<svg id="howto_pict" xmlns="http://www.w3.org/2000/svg" xmlns:xlink="http://www.w3.org/1999/xlink" width="209.499" height="235.87" viewBox="0 0 209.499 235.87">
  <defs>
    <clipPath id="clip-path">
      <rect id="長方形_14929" data-name="長方形 14929" width="209.499" height="235.87" fill="none"/>
    </clipPath>
    <clipPath id="clip-path-3">
      <rect id="長方形_14927" data-name="長方形 14927" width="11.137" height="9.959" fill="none"/>
    </clipPath>
  </defs>
  <g id="グループ_35104" data-name="グループ 35104" clip-path="url(#clip-path)">
    <g id="グループ_35103" data-name="グループ 35103">
      <g id="グループ_35102" data-name="グループ 35102" clip-path="url(#clip-path)">
        <path id="パス_65505" data-name="パス 65505" d="M162.56,131.636c-22.45,25.145-9.757,45.437-1.7,55.148,4.52,5.445,17.7,6.466,35.387.632,26.354-8.7,38.592-10.894,41.539-14.812s-31.656-10.242-53.206-4.079c0,0-5.252-37.895-16.617-36.959s-5.4.071-5.4.071" transform="translate(-42.037 -36.885)" fill="#f3b784"/>
        <path id="パス_65506" data-name="パス 65506" d="M100.543,34.794c10.823,9.433,20.069,14.893,28.072,33.527,8.239,19.195,17.157,22.576,24.042,25.958,9.408,4.626-22.086,24.675-22.086,24.675s-13.027-12.4-17.183-20.534-9.666-10.384-14.165-15.727-1.3-14.979.617-24.235a16.983,16.983,0,0,0-4.221-15.12Z" transform="translate(-26.811 -9.756)" fill="#f6c89e"/>
        <path id="パス_65507" data-name="パス 65507" d="M98.576,88.857A7.538,7.538,0,0,0,99.733,90.8c.192.227.389.445.586.652,4.388,4.605,9.61,3.862,13.584,11.653l22.242-17.355s-5.54-9.474-7.021-12.744c-.076-.172-.152-.339-.227-.506-3.994-8.694-7.962-14.559-12.36-19.286-.546-.586-1.1-1.153-1.654-1.708a2.718,2.718,0,0,1-1.557,1.85c-.212.127-.445.243-.693.364a40.453,40.453,0,0,0-7.3,3.746,11.744,11.744,0,0,0-5.2,9.939l-.971,1.113c-1.466,6.491-2.7,15.323-.586,20.337" transform="translate(-27.323 -14.443)" fill="#82cddf"/>
        <path id="パス_65508" data-name="パス 65508" d="M106.742,61.911c2.806-2.765,8.311-5.035,12.653-.93s6.972,15.747,3.67,21.408c-2.3,3.943-11.647,2.442-16.343-.5s.02-19.979.02-19.979" transform="translate(-29.341 -16.469)" fill="#f6c89e"/>
        <path id="パス_65509" data-name="パス 65509" d="M93.4,243.273c3.508,22.375,7.926,15.626,13.952-5.864s-1.83-44.9-4.813-48.561c-2.588-3.175,21.187-9.256,40.725-23.406a81.47,81.47,0,0,0,8.553-7.072c15.262-14.569,11.233-31.156,1.254-39.255a17.311,17.311,0,0,0-19.119-1.663,75.268,75.268,0,0,0-16.627,13.063c-18.2,18.249-33.754,45.8-33.941,53.394-.273,10.96,6.506,36.989,10.015,59.364" transform="translate(-23.378 -32.338)" fill="#f6c89e"/>
        <path id="パス_65510" data-name="パス 65510" d="M99.842,58.653a16.986,16.986,0,0,0-4.221-15.12L100,35.93l1.122-.44q.865.75,1.719,1.471c3.341,12.684-1.618,21.585-1.618,21.585l-1.639,1.29c.086-.394.172-.789.253-1.183" transform="translate(-26.811 -9.951)" fill="#f3b784"/>
        <g id="グループ_35101" data-name="グループ 35101" transform="translate(71.253 67.05)" style="mix-blend-mode: multiply;isolation: isolate">
          <g id="グループ_35100" data-name="グループ 35100">
            <g id="グループ_35099" data-name="グループ 35099" clip-path="url(#clip-path-3)">
              <g id="グループ_35098" data-name="グループ 35098" transform="translate(0)">
                <g id="グループ_35097" data-name="グループ 35097" clip-path="url(#clip-path-3)">
                  <path id="パス_65511" data-name="パス 65511" d="M99.016,100.541a7.424,7.424,0,0,0,1.157,1.942c.192.232.389.445.586.652,3.125-3.18,6.325-6.561,9.393-9.954a6.614,6.614,0,0,0-2.249.834c-2.932,2.229-5.93,4.423-8.887,6.526" transform="translate(-99.016 -93.177)" fill="#ccc"/>
                </g>
              </g>
            </g>
          </g>
        </g>
        <path id="パス_65512" data-name="パス 65512" d="M72.988,25.251c-.87,6.7,1.6,17.612,7.189,16.788A17.855,17.855,0,0,0,95.468,26.57C96.337,19.862,90.3,15.15,84.7,14.428s-10.844,4.12-11.713,10.823" transform="translate(-20.417 -4.025)" fill="#f6c89e"/>
        <path id="パス_65513" data-name="パス 65513" d="M123.978,53.8c4.392,4.721,8.366,10.591,12.355,19.286,11.339.222,24.952-2.522,26.156-2.507,1.521.02,3.6,3.549,10.839,8.023,5.586,3.453,17.279,10.808,25.671,14.7l1.066,4.545s5.4,9.039,8.371,7.6,10.318-5.045,8.614-8.741-4.241-6.167-13.937-7.608c-7.224-9.893-24.154-27.652-28.6-29.755-6.082-2.877-21.384-6.679-50.532-5.546" transform="translate(-34.762 -15.029)" fill="#f3b784"/>
        <path id="パス_65514" data-name="パス 65514" d="M0,61.559c.692,9.342,9.7,12.118,9.7,12.118l.106-.071c2.478,8,8.594,20.443,14.307,26.029,8.286,8.1,14.5,9.3,19.275,7.7.177-.055.354-.121.526-.186,4.7-1.811,21.267-12.264,36.221-23.633a6.843,6.843,0,0,1,2.244-.834,10.267,10.267,0,0,1,1.259-.208c4.282-.313,6.82-2.285,8.023-4.959,2.917-6.486-2.022-17.1-8.887-18.128a11.583,11.583,0,0,0-6.4,1.137c-9.994,4.434-22,19.786-31.625,29.21-1.527,1.5-2.993,2.841-4.383,3.973C29.027,87.614,21.3,75.168,15.459,69.35c-.278-.278-.546-.536-.819-.779a11.12,11.12,0,0,0,1.148-4.14c-.06-2.159-2.8-8.437-4.706-8.655C9.058,55.544-.253,58.111,0,61.559" transform="translate(0 -15.635)" fill="#f6c89e"/>
        <path id="パス_65515" data-name="パス 65515" d="M106.746,14.644c3.882,8.766.369,21.9-9,19.579s-11.364-5.035-11.364-5.035S83.068,30,73.912,26.847,63.9,19.325,63.9,19.325s1.8-18.1,13.862-15.261A25.188,25.188,0,0,1,84.847.621c10.262-2.886,17.779,4.721,21.9,14.023" transform="translate(-17.918 0)" fill="#ef8127"/>
        <path id="パス_65516" data-name="パス 65516" d="M117.621,33.553s13.7-8.068,23.977-.086c13.857,10.768,2.836,27.217,10.924,27.571a27.731,27.731,0,0,0,4.661-.122,2.775,2.775,0,0,1,3.058,3.3,15.3,15.3,0,0,1-9.569,11.607c-9.312,3.882-21.439-9.569-21.975-24.478-.375-10.383-12.649-12.84-12.649-12.84Z" transform="translate(-32.539 -8.395)" fill="#ef8127"/>
        <path id="パス_65517" data-name="パス 65517" d="M129.843,130.855a39.724,39.724,0,0,1,8.543,6.066c1.218,1.123,2.376,2.3,3.463,3.513a69.119,69.119,0,0,1,8.625,12.209l.005.01c1.006,1.79,1.88,3.5,2.624,5.055a67.853,67.853,0,0,1,3.19,7.734,81.737,81.737,0,0,0,8.553-7.072c5.383-5.136,8.366-10.525,9.534-15.7a23.216,23.216,0,0,0-3.276-18,24.218,24.218,0,0,0-5-5.55,16.138,16.138,0,0,0-2.093-1.446,17.378,17.378,0,0,0-17.027-.217,79.54,79.54,0,0,0-17.137,13.4" transform="translate(-36.407 -32.338)" fill="#2d4761"/>
        <path id="パス_65518" data-name="パス 65518" d="M146.529,140.434a69.193,69.193,0,0,1,8.625,12.209l0,.01c1.006,1.79,1.881,3.5,2.624,5.055,0,0,28.178-15.282,18-33.042a24.218,24.218,0,0,0-5-5.55,16.622,16.622,0,0,0-2.093-1.451,17.377,17.377,0,0,0-17.026-.212s11.137,12.233-5.131,22.981" transform="translate(-41.085 -32.338)" fill="#82cddf"/>
        <path id="パス_65519" data-name="パス 65519" d="M166.6,176.094l21.121-10.065-3.033-12.713v.005c-1.167,5.176-4.15,10.565-9.529,15.7a82.241,82.241,0,0,1-8.558,7.072" transform="translate(-46.713 -42.988)" fill="#1e354b"/>
        <path id="パス_65520" data-name="パス 65520" d="M71.623,323.7c.207,2.007,10.266,2.189,15.322,1.345s10.6,1.016,13.467-1.507a4.46,4.46,0,0,0,1.158-3.8,3.733,3.733,0,0,1-1.158,2.548c-2.866,2.528-8.417,1.011-13.467,1.855-4.934.819-14.842.678-15.308-1.208a2.717,2.717,0,0,0-.014.769" transform="translate(-20.077 -89.651)" fill="#2d4761"/>
        <path id="パス_65521" data-name="パス 65521" d="M71.631,319.4a.57.57,0,0,0,.014.137c.466,1.89,10.373,2.032,15.308,1.208,5.049-.839,10.6.672,13.467-1.85a3.734,3.734,0,0,0,1.158-2.548c.263-3.008-1.749-6.966-3.012-7.724-1.613-.966-5.071.172-6.082-.839-.476-.476-1.693.207-3.432,1.415-.253.177-.522.363-.8.566-.355.253-.729.52-1.113.8-.263.187-.526.378-.8.571-.325.233-.648.466-.987.7-.263.187-.531.374-.809.561-.941.652-1.941,1.314-2.983,1.946-5.555,3.367-9.933,3.028-9.933,5.05" transform="translate(-20.085 -86.256)" fill="#2d4761"/>
        <path id="パス_65522" data-name="パス 65522" d="M94.728,310.373l2.25,3.337.813-.551-2.26-3.352c-.258.177-.526.364-.8.566" transform="translate(-26.561 -86.867)" fill="#82cddf"/>
        <path id="パス_65523" data-name="パス 65523" d="M92.07,312.282l2.164,3.21.819-.551-2.184-3.235c-.258.187-.526.379-.8.576" transform="translate(-25.816 -87.399)" fill="#82cddf"/>
        <path id="パス_65524" data-name="パス 65524" d="M89.583,314.043l2.134,3.155.813-.546-2.138-3.17c-.263.187-.536.374-.809.561" transform="translate(-25.118 -87.897)" fill="#82cddf"/>
        <path id="パス_65525" data-name="パス 65525" d="M285.892,205.27c1.906-.667-.258-10.495-2.25-15.216s-1.477-10.55-4.6-12.744a4.445,4.445,0,0,0-3.964-.243,3.709,3.709,0,0,1,2.75.53c3.119,2.2,2.937,7.952,4.929,12.669,1.947,4.611,4.11,14.281,2.381,15.166a2.69,2.69,0,0,0,.753-.162" transform="translate(-77.129 -49.552)" fill="#2d4761"/>
        <path id="パス_65526" data-name="パス 65526" d="M282.315,205.591a.417.417,0,0,0,.13-.05c1.73-.885-.435-10.555-2.38-15.166-1.993-4.711-1.811-10.47-4.93-12.669a3.736,3.736,0,0,0-2.75-.53c-2.983.44-6.37,3.316-6.81,4.721-.566,1.795,1.345,4.893.6,6.112-.354.571.592,1.6,2.168,3.008.232.207.481.425.738.648.329.288.678.586,1.042.894.242.212.491.425.743.647.3.258.6.52.911.794.242.212.49.43.733.652.853.769,1.729,1.582,2.588,2.452,4.565,4.621,5.253,8.958,7.22,8.488" transform="translate(-74.435 -49.662)" fill="#2d4761"/>
        <path id="パス_65527" data-name="パス 65527" d="M270.2,195.918l2.724-2.963-.728-.667-2.735,2.983c.232.207.481.425.738.647" transform="translate(-75.555 -53.916)" fill="#82cddf"/>
        <path id="パス_65528" data-name="パス 65528" d="M272.676,198.1l2.619-2.851-.723-.667-2.639,2.876c.243.207.49.42.743.642" transform="translate(-76.247 -54.559)" fill="#82cddf"/>
        <path id="パス_65529" data-name="パス 65529" d="M274.967,200.13l2.573-2.806-.723-.667-2.583,2.821c.243.212.486.43.733.652" transform="translate(-76.893 -55.141)" fill="#82cddf"/>
      </g>
    </g>
  </g>
</svg>
