<svg xmlns="http://www.w3.org/2000/svg" width="17" height="17" viewBox="0 0 17 17">
  <g id="icon_arw_d_rd" transform="translate(-586.5 -2130.085)">
    <path id="パス_123" data-name="パス 123" d="M113.971,569.363a1.5,1.5,0,0,1-1.061-2.561l7-7a1.5,1.5,0,0,1,2.121,2.121l-7,7A1.5,1.5,0,0,1,113.971,569.363Z" transform="translate(481.028 1577.722)" fill="#e60012"/>
    <path id="パス_123-2" data-name="パス 123" d="M7,8.5a1.5,1.5,0,0,1-1.061-.439l-7-7a1.5,1.5,0,0,1,0-2.121,1.5,1.5,0,0,1,2.121,0l7,7A1.5,1.5,0,0,1,7,8.5Z" transform="translate(595 2145.585) rotate(180)" fill="#e60012"/>
    <path id="線_33" data-name="線 33" d="M22,1.5H10A1.5,1.5,0,0,1,8.5,0,1.5,1.5,0,0,1,10-1.5H22A1.5,1.5,0,0,1,23.5,0,1.5,1.5,0,0,1,22,1.5Z" transform="translate(595 2121.585) rotate(90)" fill="#e60012"/>
  </g>
</svg>
