<svg xmlns="http://www.w3.org/2000/svg" width="38.9" height="31.108" viewBox="0 0 38.9 31.108">
  <g id="period_3rd_mb" transform="translate(-308.345 -2529.299)">
    <g id="グループ_35259" data-name="グループ 35259" transform="translate(307.36 2525.963)">
      <path id="パス_69466" data-name="パス 69466" d="M-6.336-12.888c0,1.224-.96,1.968-2.976,2.136v2.808c2.592.024,3.96,1.272,3.96,2.832a2.555,2.555,0,0,1-2.664,2.52c-1.512,0-2.472-.864-2.76-2.616h-3.24C-13.8-1.7-11.5.432-8.184.432c3.5,0,6.048-2.424,6.048-5.544A4.383,4.383,0,0,0-5.448-9.5a3.918,3.918,0,0,0,2.424-3.624,4.718,4.718,0,0,0-4.968-4.536,5.1,5.1,0,0,0-5.328,4.68h3.144A2.168,2.168,0,0,1-8.112-14.52,1.63,1.63,0,0,1-6.336-12.888ZM1.6-8.5H-.24V0H1.888V-3.44c0-.464,0-.992.016-1.456.048-1.248.528-1.952,1.136-1.952a1.5,1.5,0,0,1,.624.176L4.32-8.5a2,2,0,0,0-.928-.224A1.984,1.984,0,0,0,1.6-7.424ZM11.536,0h2.128V-11.776H11.536v4.208A3.649,3.649,0,0,0,8.864-8.72c-2.208,0-4,1.824-4,4.48A4.231,4.231,0,0,0,8.912.224,3.531,3.531,0,0,0,11.536-.9ZM9.3-6.768a2.323,2.323,0,0,1,2.336,2.5A2.346,2.346,0,0,1,9.3-1.728,2.341,2.341,0,0,1,7.008-4.256,2.316,2.316,0,0,1,9.3-6.768Z" transform="translate(20 21)" fill="#e60012"/>
    </g>
    <path id="パス_69465" data-name="パス 69465" d="M8.53-6.83l-.99-.73a4.231,4.231,0,0,1-1.2.15H3a11.87,11.87,0,0,1-1.28-.08v1.72C2-5.79,2.55-5.85,3-5.85H6.11a7.333,7.333,0,0,1-1.4,2.26A11.151,11.151,0,0,1,.62-.78L1.88.53A13.4,13.4,0,0,0,5.55-2.2,19.854,19.854,0,0,1,7.94.54L9.33-.67A26.642,26.642,0,0,0,6.61-3.46,15.5,15.5,0,0,0,8.12-6.1,5.6,5.6,0,0,1,8.53-6.83Zm3.41-.99v1.55c.33-.02.81-.04,1.16-.04h4c.38,0,.79.02,1.16.04V-7.82a9.044,9.044,0,0,1-1.16.08h-4A9.044,9.044,0,0,1,11.94-7.82ZM10.79-5.24v1.58c.28-.02.72-.04,1.01-.04h2.61a4.17,4.17,0,0,1-.64,2.05A4.167,4.167,0,0,1,12-.27L13.42.75a4.737,4.737,0,0,0,2.03-1.98,6.378,6.378,0,0,0,.66-2.47h2.24c.3,0,.72.01.99.03V-5.24a7.292,7.292,0,0,1-.99.07H11.8A8.57,8.57,0,0,1,10.79-5.24Zm10.07.44v1.91c.41-.03,1.16-.06,1.73-.06H27.9c.41,0,.97.05,1.23.06V-4.8c-.29.02-.78.07-1.23.07H22.59C22.1-4.73,21.26-4.77,20.86-4.8Zm16.31-3-1,.41a8.333,8.333,0,0,1,.87,1.57l1.03-.44A15.363,15.363,0,0,0,37.17-7.8Zm1.42-.49-1.02.42a8.888,8.888,0,0,1,.93,1.51l1.02-.45A13.374,13.374,0,0,0,38.59-8.29Zm-5.8.27-.88,1.34c.7.39,1.72,1.04,2.32,1.44l.9-1.34C34.56-6.97,33.49-7.64,32.79-8.02ZM30.74-.95l.91,1.6A12.2,12.2,0,0,0,35-.58a12.267,12.267,0,0,0,4.05-3.61l-.93-1.66a10.2,10.2,0,0,1-3.95,3.8A10.881,10.881,0,0,1,30.74-.95Zm.49-4.77-.88,1.34c.71.38,1.72,1.04,2.33,1.46l.89-1.36A27.225,27.225,0,0,0,31.23-5.72Z" transform="translate(307.725 2559.657)" fill="#e60012"/>
  </g>
</svg>
