<svg xmlns="http://www.w3.org/2000/svg" width="103.72" height="20.998" viewBox="0 0 103.72 20.998">
  <g id="period_1st_dt" transform="translate(-309.72 -2526.859)">
    <g id="グループ_35259" data-name="グループ 35259" transform="translate(306.48 2525.963)">
      <path id="パス_69472" data-name="パス 69472" d="M-13.76-16.464h4.144V0H-5.78V-20.1h-5.768ZM4.7-4.14c.74.38,1.18.72,1.18,1.18,0,.48-.52.86-1.18.86A3.333,3.333,0,0,1,2.48-3.34L.84-1.54A4.487,4.487,0,0,0,4.56.28c2.32,0,3.82-1.42,3.82-3.32,0-1.58-.94-2.5-2.7-3.4l-.98-.5c-.58-.3-.96-.48-.96-.88,0-.42.42-.64.96-.64a2.725,2.725,0,0,1,1.84.98L8.18-9.14a4.32,4.32,0,0,0-3.5-1.76A3.2,3.2,0,0,0,1.24-7.84c0,1.34.86,2.38,2.56,3.24Zm9.1-6.48H12.44v2.28H13.8V0h2.66V-8.34h1.58v-2.28H16.46v-3.92H13.8Z" transform="translate(17 21)" fill="#e60012"/>
    </g>
    <path id="パス_69475" data-name="パス 69475" d="M13.648-10.928,12.064-12.1a6.769,6.769,0,0,1-1.92.24H4.8a18.992,18.992,0,0,1-2.048-.128v2.752C3.2-9.264,4.08-9.36,4.8-9.36H9.776a11.733,11.733,0,0,1-2.24,3.616,17.841,17.841,0,0,1-6.544,4.5L3.008.848A21.439,21.439,0,0,0,8.88-3.52,31.766,31.766,0,0,1,12.7.864l2.224-1.936a42.627,42.627,0,0,0-4.352-4.464A24.8,24.8,0,0,0,12.992-9.76,8.965,8.965,0,0,1,13.648-10.928ZM19.1-12.512v2.48c.528-.032,1.3-.064,1.856-.064h6.4c.608,0,1.264.032,1.856.064v-2.48a14.47,14.47,0,0,1-1.856.128h-6.4A14.471,14.471,0,0,1,19.1-12.512Zm-1.84,4.128v2.528c.448-.032,1.152-.064,1.616-.064h4.176a6.672,6.672,0,0,1-1.024,3.28A6.668,6.668,0,0,1,19.2-.432L21.472,1.2A7.579,7.579,0,0,0,24.72-1.968,10.2,10.2,0,0,0,25.776-5.92H29.36c.48,0,1.152.016,1.584.048V-8.384a11.668,11.668,0,0,1-1.584.112H18.88A13.711,13.711,0,0,1,17.264-8.384Zm16.112.7v3.056c.656-.048,1.856-.1,2.768-.1h8.5c.656,0,1.552.08,1.968.1V-7.68c-.464.032-1.248.112-1.968.112h-8.5C35.36-7.568,34.016-7.632,33.376-7.68Zm26.1-4.8-1.6.656a13.332,13.332,0,0,1,1.392,2.512l1.648-.7A24.581,24.581,0,0,0,59.472-12.48Zm2.272-.784-1.632.672A14.221,14.221,0,0,1,61.6-10.176l1.632-.72A21.4,21.4,0,0,0,61.744-13.264Zm-9.28.432-1.408,2.144c1.12.624,2.752,1.664,3.712,2.3l1.44-2.144C55.3-11.152,53.584-12.224,52.464-12.832ZM49.184-1.52,50.64,1.04A19.518,19.518,0,0,0,56-.928,19.627,19.627,0,0,0,62.48-6.7L60.992-9.36a16.324,16.324,0,0,1-6.32,6.08A17.41,17.41,0,0,1,49.184-1.52Zm.784-7.632L48.56-7.008c1.136.608,2.752,1.664,3.728,2.336l1.424-2.176A43.56,43.56,0,0,0,49.968-9.152Z" transform="translate(350.208 2546.657)" fill="#e60012"/>
  </g>
</svg>
