<svg xmlns="http://www.w3.org/2000/svg" width="122.136" height="18.894" viewBox="0 0 122.136 18.894">
  <g id="period_final_dt" transform="translate(-306.44 -2849.343)">
    <g id="グループ_36437" data-name="グループ 36437" transform="translate(-6)">
      <path id="パス_69474" data-name="パス 69474" d="M-26.04,0h3.192V-7.728H-17.5v-3.216h-5.352v-3.072H-17.5v-3.216H-26.04ZM-14.3,0h3.192V-12.744H-14.3Zm1.584-18a1.988,1.988,0,0,0-2.04,1.944,2.124,2.124,0,0,0,2.04,2.208,2.038,2.038,0,0,0,2.04-2.04A2.07,2.07,0,0,0-12.72-18Zm8.64,5.256H-7.272V0H-4.08V-5.424a6.255,6.255,0,0,1,.624-3.5A2.5,2.5,0,0,1-1.3-10.152c1.944,0,2.16,1.608,2.16,4.128V0H4.056V-8.712A4.194,4.194,0,0,0-.312-13.08,5.675,5.675,0,0,0-4.08-11.448ZM16.56,0h3.192V-12.744H16.56v1.392a5.474,5.474,0,0,0-4.008-1.728c-3.312,0-6,2.736-6,6.72,0,3.912,2.832,6.7,6.072,6.7a5.3,5.3,0,0,0,3.936-1.68ZM13.2-10.152a3.484,3.484,0,0,1,3.5,3.744,3.519,3.519,0,0,1-3.5,3.816A3.511,3.511,0,0,1,9.768-6.384,3.474,3.474,0,0,1,13.2-10.152ZM23.616,0h3.192V-17.664H23.616Z" transform="translate(338.48 2867.343)" fill="#e60012"/>
      <path id="パス_69473" data-name="パス 69473" d="M13.648-10.928,12.064-12.1a6.769,6.769,0,0,1-1.92.24H4.8a18.992,18.992,0,0,1-2.048-.128v2.752C3.2-9.264,4.08-9.36,4.8-9.36H9.776a11.733,11.733,0,0,1-2.24,3.616,17.841,17.841,0,0,1-6.544,4.5L3.008.848A21.439,21.439,0,0,0,8.88-3.52,31.766,31.766,0,0,1,12.7.864l2.224-1.936a42.627,42.627,0,0,0-4.352-4.464A24.8,24.8,0,0,0,12.992-9.76,8.965,8.965,0,0,1,13.648-10.928ZM19.1-12.512v2.48c.528-.032,1.3-.064,1.856-.064h6.4c.608,0,1.264.032,1.856.064v-2.48a14.47,14.47,0,0,1-1.856.128h-6.4A14.471,14.471,0,0,1,19.1-12.512Zm-1.84,4.128v2.528c.448-.032,1.152-.064,1.616-.064h4.176a6.672,6.672,0,0,1-1.024,3.28A6.668,6.668,0,0,1,19.2-.432L21.472,1.2A7.579,7.579,0,0,0,24.72-1.968,10.2,10.2,0,0,0,25.776-5.92H29.36c.48,0,1.152.016,1.584.048V-8.384a11.668,11.668,0,0,1-1.584.112H18.88A13.711,13.711,0,0,1,17.264-8.384Zm16.112.7v3.056c.656-.048,1.856-.1,2.768-.1h8.5c.656,0,1.552.08,1.968.1V-7.68c-.464.032-1.248.112-1.968.112h-8.5C35.36-7.568,34.016-7.632,33.376-7.68Zm26.1-4.8-1.6.656a13.332,13.332,0,0,1,1.392,2.512l1.648-.7A24.581,24.581,0,0,0,59.472-12.48Zm2.272-.784-1.632.672A14.221,14.221,0,0,1,61.6-10.176l1.632-.72A21.4,21.4,0,0,0,61.744-13.264Zm-9.28.432-1.408,2.144c1.12.624,2.752,1.664,3.712,2.3l1.44-2.144C55.3-11.152,53.584-12.224,52.464-12.832ZM49.184-1.52,50.64,1.04A19.518,19.518,0,0,0,56-.928,19.627,19.627,0,0,0,62.48-6.7L60.992-9.36a16.324,16.324,0,0,1-6.32,6.08A17.41,17.41,0,0,1,49.184-1.52Zm.784-7.632L48.56-7.008c1.136.608,2.752,1.664,3.728,2.336l1.424-2.176A43.56,43.56,0,0,0,49.968-9.152Z" transform="translate(371.345 2867.037)" fill="#e60012"/>
    </g>
  </g>
</svg>
