<svg xmlns="http://www.w3.org/2000/svg" width="105.718" height="21.502" viewBox="0 0 105.718 21.502">
  <g id="period_2nd_dt" transform="translate(-305.519 -2605.429)">
    <g id="グループ_35259" data-name="グループ 35259" transform="translate(306.48 2605.037)">
      <path id="パス_69478" data-name="パス 69478" d="M-20.552-1.848V0H-6.636V-3.556h-7.14l2.24-2.352C-8.6-8.988-6.8-11.676-6.8-14.588a6.041,6.041,0,0,0-6.3-6.02c-3.864,0-6.692,2.52-6.888,6.972h3.724c.084-2.072,1.26-3.444,2.94-3.444a2.663,2.663,0,0,1,2.772,2.716c0,1.932-1.456,3.836-3.78,6.188ZM-1.06-10.62H-3.72V0h2.66V-4.52A5.212,5.212,0,0,1-.54-7.44a2.086,2.086,0,0,1,1.8-1.02c1.62,0,1.8,1.34,1.8,3.44V0H5.72V-7.26A3.5,3.5,0,0,0,2.08-10.9,4.729,4.729,0,0,0-1.06-9.54ZM16.14,0H18.8V-14.72H16.14v5.26A4.561,4.561,0,0,0,12.8-10.9c-2.76,0-5,2.28-5,5.6A5.288,5.288,0,0,0,12.86.28a4.414,4.414,0,0,0,3.28-1.4Zm-2.8-8.46a2.9,2.9,0,0,1,2.92,3.12,2.933,2.933,0,0,1-2.92,3.18,2.926,2.926,0,0,1-2.86-3.16A2.9,2.9,0,0,1,13.34-8.46Z" transform="translate(19.591 21)" fill="#e60012"/>
    </g>
    <path id="パス_69481" data-name="パス 69481" d="M13.648-10.928,12.064-12.1a6.769,6.769,0,0,1-1.92.24H4.8a18.992,18.992,0,0,1-2.048-.128v2.752C3.2-9.264,4.08-9.36,4.8-9.36H9.776a11.733,11.733,0,0,1-2.24,3.616,17.841,17.841,0,0,1-6.544,4.5L3.008.848A21.439,21.439,0,0,0,8.88-3.52,31.766,31.766,0,0,1,12.7.864l2.224-1.936a42.627,42.627,0,0,0-4.352-4.464A24.8,24.8,0,0,0,12.992-9.76,8.965,8.965,0,0,1,13.648-10.928ZM19.1-12.512v2.48c.528-.032,1.3-.064,1.856-.064h6.4c.608,0,1.264.032,1.856.064v-2.48a14.47,14.47,0,0,1-1.856.128h-6.4A14.471,14.471,0,0,1,19.1-12.512Zm-1.84,4.128v2.528c.448-.032,1.152-.064,1.616-.064h4.176a6.672,6.672,0,0,1-1.024,3.28A6.668,6.668,0,0,1,19.2-.432L21.472,1.2A7.579,7.579,0,0,0,24.72-1.968,10.2,10.2,0,0,0,25.776-5.92H29.36c.48,0,1.152.016,1.584.048V-8.384a11.668,11.668,0,0,1-1.584.112H18.88A13.711,13.711,0,0,1,17.264-8.384Zm16.112.7v3.056c.656-.048,1.856-.1,2.768-.1h8.5c.656,0,1.552.08,1.968.1V-7.68c-.464.032-1.248.112-1.968.112h-8.5C35.36-7.568,34.016-7.632,33.376-7.68Zm26.1-4.8-1.6.656a13.332,13.332,0,0,1,1.392,2.512l1.648-.7A24.581,24.581,0,0,0,59.472-12.48Zm2.272-.784-1.632.672A14.221,14.221,0,0,1,61.6-10.176l1.632-.72A21.4,21.4,0,0,0,61.744-13.264Zm-9.28.432-1.408,2.144c1.12.624,2.752,1.664,3.712,2.3l1.44-2.144C55.3-11.152,53.584-12.224,52.464-12.832ZM49.184-1.52,50.64,1.04A19.518,19.518,0,0,0,56-.928,19.627,19.627,0,0,0,62.48-6.7L60.992-9.36a16.324,16.324,0,0,1-6.32,6.08A17.41,17.41,0,0,1,49.184-1.52Zm.784-7.632L48.56-7.008c1.136.608,2.752,1.664,3.728,2.336l1.424-2.176A43.56,43.56,0,0,0,49.968-9.152Z" transform="translate(348.005 2625.731)" fill="#e60012"/>
  </g>
</svg>
