<svg xmlns="http://www.w3.org/2000/svg" width="38.9" height="31.676" viewBox="0 0 38.9 31.676">
  <g id="period_1st_mb" transform="translate(-311.48 -2529.731)">
    <g id="グループ_35259" data-name="グループ 35259" transform="translate(312.08 2525.963)">
      <path id="パス_69462" data-name="パス 69462" d="M-10.6-14.112h3.552V0H-3.76V-17.232H-8.7ZM4.488-3.312c.592.3.944.576.944.944,0,.384-.416.688-.944.688a2.666,2.666,0,0,1-1.776-.992L1.4-1.232A3.589,3.589,0,0,0,4.376.224c1.856,0,3.056-1.136,3.056-2.656,0-1.264-.752-2-2.16-2.72l-.784-.4c-.464-.24-.768-.384-.768-.7,0-.336.336-.512.768-.512a2.18,2.18,0,0,1,1.472.784L7.272-7.312a3.456,3.456,0,0,0-2.8-1.408A2.56,2.56,0,0,0,1.72-6.272c0,1.072.688,1.9,2.048,2.592ZM10.168-8.5H9.08v1.824h1.088V0H12.3V-6.672H13.56V-8.5H12.3v-3.136H10.168Z" transform="translate(17 21)" fill="#e60012"/>
    </g>
    <path id="パス_69461" data-name="パス 69461" d="M8.53-6.83l-.99-.73a4.231,4.231,0,0,1-1.2.15H3a11.87,11.87,0,0,1-1.28-.08v1.72C2-5.79,2.55-5.85,3-5.85H6.11a7.333,7.333,0,0,1-1.4,2.26A11.151,11.151,0,0,1,.62-.78L1.88.53A13.4,13.4,0,0,0,5.55-2.2,19.854,19.854,0,0,1,7.94.54L9.33-.67A26.642,26.642,0,0,0,6.61-3.46,15.5,15.5,0,0,0,8.12-6.1,5.6,5.6,0,0,1,8.53-6.83Zm3.41-.99v1.55c.33-.02.81-.04,1.16-.04h4c.38,0,.79.02,1.16.04V-7.82a9.044,9.044,0,0,1-1.16.08h-4A9.044,9.044,0,0,1,11.94-7.82ZM10.79-5.24v1.58c.28-.02.72-.04,1.01-.04h2.61a4.17,4.17,0,0,1-.64,2.05A4.167,4.167,0,0,1,12-.27L13.42.75a4.737,4.737,0,0,0,2.03-1.98,6.378,6.378,0,0,0,.66-2.47h2.24c.3,0,.72.01.99.03V-5.24a7.292,7.292,0,0,1-.99.07H11.8A8.57,8.57,0,0,1,10.79-5.24Zm10.07.44v1.91c.41-.03,1.16-.06,1.73-.06H27.9c.41,0,.97.05,1.23.06V-4.8c-.29.02-.78.07-1.23.07H22.59C22.1-4.73,21.26-4.77,20.86-4.8Zm16.31-3-1,.41a8.333,8.333,0,0,1,.87,1.57l1.03-.44A15.363,15.363,0,0,0,37.17-7.8Zm1.42-.49-1.02.42a8.888,8.888,0,0,1,.93,1.51l1.02-.45A13.374,13.374,0,0,0,38.59-8.29Zm-5.8.27-.88,1.34c.7.39,1.72,1.04,2.32,1.44l.9-1.34C34.56-6.97,33.49-7.64,32.79-8.02ZM30.74-.95l.91,1.6A12.2,12.2,0,0,0,35-.58a12.267,12.267,0,0,0,4.05-3.61l-.93-1.66a10.2,10.2,0,0,1-3.95,3.8A10.881,10.881,0,0,1,30.74-.95Zm.49-4.77-.88,1.34c.71.38,1.72,1.04,2.33,1.46l.89-1.36A27.225,27.225,0,0,0,31.23-5.72Z" transform="translate(310.86 2560.657)" fill="#e60012"/>
  </g>
</svg>
