<svg xmlns="http://www.w3.org/2000/svg" width="68.675" height="18.825" viewBox="0 0 68.675 18.825">
  <path id="point_title" d="M-33.475,0h3.425V-7.6c1.875,0,3.475.025,5-.9a4.678,4.678,0,0,0,2.275-4.25,5.268,5.268,0,0,0-1.45-3.75c-1.125-1.1-2.75-1.45-5.075-1.45h-4.175Zm3.425-14.6h1.45c1.625,0,2.475.65,2.475,1.85,0,1.225-.775,1.825-2.325,1.825h-1.6Zm19.075-3.8A9.331,9.331,0,0,0-20.325-9a9.316,9.316,0,0,0,9.4,9.425A9.225,9.225,0,0,0-1.65-8.925,9.373,9.373,0,0,0-10.975-18.4ZM-11-15.125A6,6,0,0,1-5.1-8.95a5.932,5.932,0,0,1-5.85,6.1,5.878,5.878,0,0,1-5.925-6.075A5.888,5.888,0,0,1-11-15.125ZM1.3,0H4.725V-17.95H1.3ZM8.55,0h3.425V-11.775L19.65,0h3.3V-17.95H19.525v11.8l-7.7-11.8H8.55ZM25.275-14.6h3.2V0H31.9V-14.6h3.3v-3.35H25.275Z" transform="translate(33.475 18.4)" fill="#e60012"/>
</svg>
