<svg xmlns="http://www.w3.org/2000/svg" width="480" height="112.188" viewBox="0 0 480 112.188">
  <g id="point_img1" transform="translate(-220.48 -1876)">
    <rect id="長方形_15070" data-name="長方形 15070" width="480" height="110" transform="translate(220.48 1876)" fill="#fff"/>
    <g id="コンポーネント_29_6" data-name="コンポーネント 29 – 6" transform="translate(220.48 1876)">
      <rect id="長方形_15049" data-name="長方形 15049" width="88" height="88" rx="14" fill="#e60012"/>
      <g id="グループ_35316" data-name="グループ 35316" transform="translate(31 34)">
        <path id="パス_69496" data-name="パス 69496" d="M-11.145-13.524h3.4V0H-4.59V-16.514H-9.328ZM3.7-3.726c.666.342,1.062.648,1.062,1.062,0,.432-.468.774-1.062.774a3,3,0,0,1-2-1.116L.23-1.386A4.038,4.038,0,0,0,3.578.252c2.088,0,3.438-1.278,3.438-2.988,0-1.422-.846-2.25-2.43-3.06L3.7-6.246c-.522-.27-.864-.432-.864-.792,0-.378.378-.576.864-.576a2.453,2.453,0,0,1,1.656.882L6.836-8.226A3.888,3.888,0,0,0,3.686-9.81,2.88,2.88,0,0,0,.59-7.056c0,1.206.774,2.142,2.3,2.916Zm5.49-5.832H7.97v2.052H9.194V0h2.394V-7.506H13.01V-9.558H11.588v-3.528H9.194Z" transform="translate(13 17)" fill="#fff"/>
      </g>
    </g>
    <g id="コンポーネント_29_7" data-name="コンポーネント 29 – 7" transform="translate(604.48 1876)">
      <rect id="長方形_15049-2" data-name="長方形 15049" width="88" height="88" rx="14" fill="#f5f5f5"/>
      <g id="グループ_35316-2" data-name="グループ 35316" transform="translate(31 34)">
        <path id="パス_69500" data-name="パス 69500" d="M-23.345,0h3.059V-7.406h5.129v-3.082h-5.129v-2.944h5.129v-3.082h-8.188Zm10.327,0h3.059V-12.213h-3.059ZM-11.5-17.25a1.906,1.906,0,0,0-1.955,1.863A2.035,2.035,0,0,0-11.5-13.271a1.953,1.953,0,0,0,1.955-1.955A1.983,1.983,0,0,0-11.5-17.25Zm7.36,5.037H-7.2V0H-4.14V-5.2a5.994,5.994,0,0,1,.6-3.358,2.4,2.4,0,0,1,2.07-1.173C.391-9.729.6-8.188.6-5.773V0H3.657V-8.349A4.02,4.02,0,0,0-.529-12.535,5.439,5.439,0,0,0-4.14-10.971ZM15.18,0h3.059V-12.213H15.18v1.334a5.246,5.246,0,0,0-3.841-1.656c-3.174,0-5.75,2.622-5.75,6.44C5.589-2.346,8.3.322,11.408.322a5.076,5.076,0,0,0,3.772-1.61ZM11.96-9.729a3.339,3.339,0,0,1,3.358,3.588A3.373,3.373,0,0,1,11.96-2.484,3.365,3.365,0,0,1,8.671-6.118,3.329,3.329,0,0,1,11.96-9.729ZM21.022,0h3.059V-16.928H21.022Z" transform="translate(13 17)"/>
      </g>
    </g>
    <g id="コンポーネント_29_8" data-name="コンポーネント 29 – 8" transform="translate(508.48 1876)">
      <rect id="長方形_15049-3" data-name="長方形 15049" width="88" height="88" rx="14" fill="#e60012"/>
      <g id="グループ_35316-3" data-name="グループ 35316" transform="translate(31 34)">
        <path id="パス_69499" data-name="パス 69499" d="M-14.655-6.3v2.921h7.222V0h3.059V-3.381H-2.9V-6.3H-4.374V-16.928H-7.5Zm3.427,0,3.795-5.543V-6.3ZM.409-9.558H-.815v2.052H.409V0H2.8V-7.506H4.225V-9.558H2.8v-3.528H.409ZM5.539,0H7.933V-4.068a4.6,4.6,0,0,1,.45-2.61A1.9,1.9,0,0,1,10-7.614c1.4,0,1.638,1.152,1.638,3.1V0h2.394V-6.318A3.169,3.169,0,0,0,10.759-9.81,4.241,4.241,0,0,0,7.933-8.586v-4.662H5.539Z" transform="translate(13 17)" fill="#fff"/>
      </g>
    </g>
    <g id="コンポーネント_29_9" data-name="コンポーネント 29 – 9" transform="translate(412.48 1876)">
      <rect id="長方形_15049-4" data-name="長方形 15049" width="88" height="88" rx="14" fill="#f5f5f5"/>
      <g id="グループ_35316-4" data-name="グループ 35316" transform="translate(31 34)">
        <path id="パス_69498" data-name="パス 69498" d="M-7.713-12.351c0,1.173-.92,1.886-2.852,2.047v2.691c2.484.023,3.8,1.219,3.8,2.714A2.448,2.448,0,0,1-9.323-2.484c-1.449,0-2.369-.828-2.645-2.507h-3.105A5.34,5.34,0,0,0-9.484.414c3.358,0,5.8-2.323,5.8-5.313A4.2,4.2,0,0,0-6.862-9.108a3.755,3.755,0,0,0,2.323-3.473A4.522,4.522,0,0,0-9.3-16.928a4.889,4.889,0,0,0-5.106,4.485h3.013a2.077,2.077,0,0,1,1.978-1.472A1.562,1.562,0,0,1-7.713-12.351Zm8.7,2.793h-2.07V0H1.309V-3.87c0-.522,0-1.116.018-1.638.054-1.4.594-2.2,1.278-2.2a1.687,1.687,0,0,1,.7.2l.738-2.052A2.255,2.255,0,0,0,3-9.81,2.232,2.232,0,0,0,.985-8.352ZM12.163,0h2.394V-13.248H12.163v4.734a4.105,4.105,0,0,0-3.006-1.3c-2.484,0-4.5,2.052-4.5,5.04A4.759,4.759,0,0,0,9.211.252a3.973,3.973,0,0,0,2.952-1.26ZM9.643-7.614a2.613,2.613,0,0,1,2.628,2.808A2.639,2.639,0,0,1,9.643-1.944,2.634,2.634,0,0,1,7.069-4.788,2.605,2.605,0,0,1,9.643-7.614Z" transform="translate(13 17)"/>
      </g>
    </g>
    <g id="コンポーネント_29_10" data-name="コンポーネント 29 – 10" transform="translate(316.48 1876)">
      <rect id="長方形_15049-5" data-name="長方形 15049" width="88" height="88" rx="14" fill="#f5f5f5"/>
      <g id="グループ_35316-5" data-name="グループ 35316" transform="translate(31 34)">
        <path id="パス_69497" data-name="パス 69497" d="M-17.584-1.518V0H-6.153V-2.921h-5.865l1.84-1.932c2.415-2.53,3.887-4.738,3.887-7.13a4.962,4.962,0,0,0-5.175-4.945c-3.174,0-5.5,2.07-5.658,5.727h3.059C-14-12.9-13.03-14.03-11.65-14.03A2.188,2.188,0,0,1-9.373-11.8c0,1.587-1.2,3.151-3.1,5.083Zm16.572-8.04H-3.406V0h2.394V-4.068A4.691,4.691,0,0,1-.544-6.7a1.877,1.877,0,0,1,1.62-.918c1.458,0,1.62,1.206,1.62,3.1V0H5.09V-6.534A3.146,3.146,0,0,0,1.814-9.81,4.256,4.256,0,0,0-1.012-8.586ZM14.467,0h2.394V-13.248H14.467v4.734a4.105,4.105,0,0,0-3.006-1.3c-2.484,0-4.5,2.052-4.5,5.04A4.759,4.759,0,0,0,11.516.252a3.973,3.973,0,0,0,2.952-1.26Zm-2.52-7.614a2.613,2.613,0,0,1,2.628,2.808,2.639,2.639,0,0,1-2.628,2.862A2.634,2.634,0,0,1,9.373-4.788,2.605,2.605,0,0,1,11.948-7.614Z" transform="translate(13 17)"/>
      </g>
    </g>
    <g id="コンポーネント_30_6" data-name="コンポーネント 30 – 6" transform="translate(255.98 1929)">
      <path id="パス_65969" data-name="パス 65969" d="M32.733,1.545,33.6.86A4.018,4.018,0,0,1,39.7,2.25l.487.995A4.019,4.019,0,0,0,44.658,5.4l1.082-.239a4.018,4.018,0,0,1,4.885,3.895l.007,1.108a4.019,4.019,0,0,0,3.1,3.883l1.078.254a4.018,4.018,0,0,1,2.711,5.629l-.474,1a4.018,4.018,0,0,0,1.105,4.842l.861.7a4.018,4.018,0,0,1,0,6.248l-.861.7a4.018,4.018,0,0,0-1.105,4.842l.474,1a4.018,4.018,0,0,1-2.711,5.629l-1.078.254a4.019,4.019,0,0,0-3.1,3.883l-.007,1.108a4.018,4.018,0,0,1-4.885,3.895l-1.082-.239a4.019,4.019,0,0,0-4.475,2.155l-.487.995a4.018,4.018,0,0,1-6.091,1.39l-.871-.685a4.018,4.018,0,0,0-4.966,0l-.871.685a4.018,4.018,0,0,1-6.091-1.39l-.487-.995a4.019,4.019,0,0,0-4.475-2.155l-1.082.239a4.018,4.018,0,0,1-4.885-3.895l-.008-1.108a4.018,4.018,0,0,0-3.1-3.883l-1.078-.254a4.018,4.018,0,0,1-2.71-5.629l.474-1a4.018,4.018,0,0,0-1.105-4.842l-.861-.7a4.018,4.018,0,0,1,0-6.248l.861-.7a4.018,4.018,0,0,0,1.105-4.842l-.474-1A4.018,4.018,0,0,1,5.694,14.3l1.078-.254a4.018,4.018,0,0,0,3.1-3.883l.008-1.108a4.018,4.018,0,0,1,4.885-3.895l1.082.239a4.018,4.018,0,0,0,4.475-2.155l.487-.995A4.018,4.018,0,0,1,26.9.86l.871.685a4.018,4.018,0,0,0,4.966,0" transform="translate(0 0)" fill="#ffc703"/>
      <path id="パス_65971" data-name="パス 65971" d="M1.313,0h1.42L4.491,5.307,6.271,0h1.4L8.951,7.605h-1.4L6.737,2.8,5.116,7.605H3.845L2.246,2.8,1.409,7.605H0Z" transform="matrix(0.966, -0.259, 0.259, 0.966, 7.842, 28.356)" fill="#fff"/>
      <rect id="長方形_15046" data-name="長方形 15046" width="1.452" height="7.605" transform="matrix(0.966, -0.259, 0.259, 0.966, 17.512, 25.765)" fill="#fff"/>
      <path id="パス_65972" data-name="パス 65972" d="M1.218,5.6c.35.657.752,1,1.261,1a.807.807,0,0,0,.879-.71,1.189,1.189,0,0,0-.487-.847C1.292,3.717.361,3,.361,1.917A2,2,0,0,1,2.447,0a2.835,2.835,0,0,1,2.2,1.218l-1.081.953a1.486,1.486,0,0,0-1.143-.784c-.382,0-.647.222-.647.529s.222.487.445.678c1.42,1.25,2.552,1.843,2.552,3.231a2.15,2.15,0,0,1-2.33,2.161A2.591,2.591,0,0,1,0,6.334Z" transform="matrix(0.966, -0.259, 0.259, 0.966, 19.795, 24.957)" fill="#fff"/>
      <path id="パス_65973" data-name="パス 65973" d="M1.218,5.6c.35.657.752,1,1.261,1a.807.807,0,0,0,.879-.71,1.189,1.189,0,0,0-.487-.847C1.292,3.717.361,3,.361,1.917A2,2,0,0,1,2.447,0a2.835,2.835,0,0,1,2.2,1.218l-1.081.953a1.486,1.486,0,0,0-1.143-.784c-.382,0-.647.222-.647.529s.222.487.445.678c1.42,1.25,2.552,1.843,2.552,3.231a2.15,2.15,0,0,1-2.33,2.161A2.591,2.591,0,0,1,0,6.334Z" transform="matrix(0.966, -0.259, 0.259, 0.966, 25.116, 23.531)" fill="#fff"/>
      <rect id="長方形_15047" data-name="長方形 15047" width="1.452" height="7.605" transform="matrix(0.966, -0.259, 0.259, 0.966, 31.019, 22.146)" fill="#fff"/>
      <path id="パス_65974" data-name="パス 65974" d="M7.913,4.014a3.909,3.909,0,0,1-3.93,3.961A3.947,3.947,0,0,1,0,3.982a3.957,3.957,0,1,1,7.913.032m-6.45,0A2.5,2.5,0,1,0,6.45,4a2.544,2.544,0,0,0-2.5-2.616A2.494,2.494,0,0,0,1.462,4.014" transform="matrix(0.966, -0.259, 0.259, 0.966, 33.579, 21.263)" fill="#fff"/>
      <path id="パス_65975" data-name="パス 65975" d="M0,0H1.388L4.65,5V0H6.1V7.605H4.7L1.452,2.616V7.605H0Z" transform="matrix(0.966, -0.259, 0.259, 0.966, 42.582, 19.048)" fill="#fff"/>
      <path id="パス_65976" data-name="パス 65976" d="M7.33,6.525a4.261,4.261,0,0,1-3.3,1.461A3.842,3.842,0,0,1,0,3.983,3.919,3.919,0,0,1,4.046,0,4.379,4.379,0,0,1,7.362,1.525L6.345,2.5a3.112,3.112,0,0,0-2.33-1.112,2.56,2.56,0,0,0-2.6,2.6A2.517,2.517,0,0,0,4.046,6.6a3.041,3.041,0,0,0,2.3-1.1Z" transform="matrix(0.966, -0.259, 0.259, 0.966, 15.911, 36.779)" fill="#fff"/>
      <path id="パス_65977" data-name="パス 65977" d="M0,0H1.452V6.229H3.559V7.605H0Z" transform="matrix(0.966, -0.259, 0.259, 0.966, 24.3, 34.728)" fill="#fff"/>
      <path id="パス_65978" data-name="パス 65978" d="M0,0H4.152V1.42h-2.7V2.775h2.7V4.2h-2.7V6.186h2.7v1.42H0Z" transform="matrix(0.966, -0.259, 0.259, 0.966, 28.813, 33.519)" fill="#fff"/>
      <path id="パス_65979" data-name="パス 65979" d="M2.934,0H4.4L7.33,7.605h-1.5L5.233,6.038H2.13L1.5,7.605H0Zm.742,2.013L2.67,4.618H4.682Z" transform="matrix(0.966, -0.259, 0.259, 0.966, 33.53, 32.255)" fill="#fff"/>
      <path id="パス_65980" data-name="パス 65980" d="M0,0H1.769a2.848,2.848,0,0,1,2.15.614A2.205,2.205,0,0,1,4.534,2.2,2.008,2.008,0,0,1,3.072,4.226l1.8,3.379H3.294l-1.7-3.22H1.452v3.22H0ZM1.452,2.976h.667c.657,0,1-.265,1-.784,0-.5-.35-.773-1.039-.773H1.452Z" transform="matrix(0.966, -0.259, 0.259, 0.966, 41.787, 30.043)" fill="#fff"/>
    </g>
    <g id="コンポーネント_30_9" data-name="コンポーネント 30 – 9" transform="translate(543.979 1929)">
      <path id="パス_65969-2" data-name="パス 65969" d="M32.733,1.545,33.6.86A4.018,4.018,0,0,1,39.7,2.25l.487.995A4.019,4.019,0,0,0,44.658,5.4l1.082-.239a4.018,4.018,0,0,1,4.885,3.895l.007,1.108a4.019,4.019,0,0,0,3.1,3.883l1.078.254a4.018,4.018,0,0,1,2.711,5.629l-.474,1a4.018,4.018,0,0,0,1.105,4.842l.861.7a4.018,4.018,0,0,1,0,6.248l-.861.7a4.018,4.018,0,0,0-1.105,4.842l.474,1a4.018,4.018,0,0,1-2.711,5.629l-1.078.254a4.019,4.019,0,0,0-3.1,3.883l-.007,1.108a4.018,4.018,0,0,1-4.885,3.895l-1.082-.239a4.019,4.019,0,0,0-4.475,2.155l-.487.995a4.018,4.018,0,0,1-6.091,1.39l-.871-.685a4.018,4.018,0,0,0-4.966,0l-.871.685a4.018,4.018,0,0,1-6.091-1.39l-.487-.995a4.019,4.019,0,0,0-4.475-2.155l-1.082.239a4.018,4.018,0,0,1-4.885-3.895l-.008-1.108a4.018,4.018,0,0,0-3.1-3.883l-1.078-.254a4.018,4.018,0,0,1-2.71-5.629l.474-1a4.018,4.018,0,0,0-1.105-4.842l-.861-.7a4.018,4.018,0,0,1,0-6.248l.861-.7a4.018,4.018,0,0,0,1.105-4.842l-.474-1A4.018,4.018,0,0,1,5.694,14.3l1.078-.254a4.018,4.018,0,0,0,3.1-3.883l.008-1.108a4.018,4.018,0,0,1,4.885-3.895l1.082.239a4.018,4.018,0,0,0,4.475-2.155l.487-.995A4.018,4.018,0,0,1,26.9.86l.871.685a4.018,4.018,0,0,0,4.966,0" transform="translate(0 0)" fill="#ffc703"/>
      <path id="パス_65971-2" data-name="パス 65971" d="M1.313,0h1.42L4.491,5.307,6.271,0h1.4L8.951,7.605h-1.4L6.737,2.8,5.116,7.605H3.845L2.246,2.8,1.409,7.605H0Z" transform="matrix(0.966, -0.259, 0.259, 0.966, 7.842, 28.356)" fill="#fff"/>
      <rect id="長方形_15046-2" data-name="長方形 15046" width="1.452" height="7.605" transform="matrix(0.966, -0.259, 0.259, 0.966, 17.512, 25.765)" fill="#fff"/>
      <path id="パス_65972-2" data-name="パス 65972" d="M1.218,5.6c.35.657.752,1,1.261,1a.807.807,0,0,0,.879-.71,1.189,1.189,0,0,0-.487-.847C1.292,3.717.361,3,.361,1.917A2,2,0,0,1,2.447,0a2.835,2.835,0,0,1,2.2,1.218l-1.081.953a1.486,1.486,0,0,0-1.143-.784c-.382,0-.647.222-.647.529s.222.487.445.678c1.42,1.25,2.552,1.843,2.552,3.231a2.15,2.15,0,0,1-2.33,2.161A2.591,2.591,0,0,1,0,6.334Z" transform="matrix(0.966, -0.259, 0.259, 0.966, 19.795, 24.957)" fill="#fff"/>
      <path id="パス_65973-2" data-name="パス 65973" d="M1.218,5.6c.35.657.752,1,1.261,1a.807.807,0,0,0,.879-.71,1.189,1.189,0,0,0-.487-.847C1.292,3.717.361,3,.361,1.917A2,2,0,0,1,2.447,0a2.835,2.835,0,0,1,2.2,1.218l-1.081.953a1.486,1.486,0,0,0-1.143-.784c-.382,0-.647.222-.647.529s.222.487.445.678c1.42,1.25,2.552,1.843,2.552,3.231a2.15,2.15,0,0,1-2.33,2.161A2.591,2.591,0,0,1,0,6.334Z" transform="matrix(0.966, -0.259, 0.259, 0.966, 25.116, 23.531)" fill="#fff"/>
      <rect id="長方形_15047-2" data-name="長方形 15047" width="1.452" height="7.605" transform="matrix(0.966, -0.259, 0.259, 0.966, 31.019, 22.146)" fill="#fff"/>
      <path id="パス_65974-2" data-name="パス 65974" d="M7.913,4.014a3.909,3.909,0,0,1-3.93,3.961A3.947,3.947,0,0,1,0,3.982a3.957,3.957,0,1,1,7.913.032m-6.45,0A2.5,2.5,0,1,0,6.45,4a2.544,2.544,0,0,0-2.5-2.616A2.494,2.494,0,0,0,1.462,4.014" transform="matrix(0.966, -0.259, 0.259, 0.966, 33.579, 21.263)" fill="#fff"/>
      <path id="パス_65975-2" data-name="パス 65975" d="M0,0H1.388L4.65,5V0H6.1V7.605H4.7L1.452,2.616V7.605H0Z" transform="matrix(0.966, -0.259, 0.259, 0.966, 42.582, 19.048)" fill="#fff"/>
      <path id="パス_65976-2" data-name="パス 65976" d="M7.33,6.525a4.261,4.261,0,0,1-3.3,1.461A3.842,3.842,0,0,1,0,3.983,3.919,3.919,0,0,1,4.046,0,4.379,4.379,0,0,1,7.362,1.525L6.345,2.5a3.112,3.112,0,0,0-2.33-1.112,2.56,2.56,0,0,0-2.6,2.6A2.517,2.517,0,0,0,4.046,6.6a3.041,3.041,0,0,0,2.3-1.1Z" transform="matrix(0.966, -0.259, 0.259, 0.966, 15.911, 36.779)" fill="#fff"/>
      <path id="パス_65977-2" data-name="パス 65977" d="M0,0H1.452V6.229H3.559V7.605H0Z" transform="matrix(0.966, -0.259, 0.259, 0.966, 24.3, 34.728)" fill="#fff"/>
      <path id="パス_65978-2" data-name="パス 65978" d="M0,0H4.152V1.42h-2.7V2.775h2.7V4.2h-2.7V6.186h2.7v1.42H0Z" transform="matrix(0.966, -0.259, 0.259, 0.966, 28.813, 33.519)" fill="#fff"/>
      <path id="パス_65979-2" data-name="パス 65979" d="M2.934,0H4.4L7.33,7.605h-1.5L5.233,6.038H2.13L1.5,7.605H0Zm.742,2.013L2.67,4.618H4.682Z" transform="matrix(0.966, -0.259, 0.259, 0.966, 33.53, 32.255)" fill="#fff"/>
      <path id="パス_65980-2" data-name="パス 65980" d="M0,0H1.769a2.848,2.848,0,0,1,2.15.614A2.205,2.205,0,0,1,4.534,2.2,2.008,2.008,0,0,1,3.072,4.226l1.8,3.379H3.294l-1.7-3.22H1.452v3.22H0ZM1.452,2.976h.667c.657,0,1-.265,1-.784,0-.5-.35-.773-1.039-.773H1.452Z" transform="matrix(0.966, -0.259, 0.259, 0.966, 41.787, 30.043)" fill="#fff"/>
    </g>
  </g>
</svg>
