<svg xmlns="http://www.w3.org/2000/svg" width="73.409" height="21.315" viewBox="0 0 73.409 21.315">
  <g id="tips_tab5_text_dt" transform="translate(-280.547 -3106.178)">
    <path id="パス_69515" data-name="パス 69515" d="M-22.32,0h2.34l2.322-8.352L-15.264,0h2.358L-9.99-12.924h-2.43L-14.256-4.68l-2.34-8.244h-2.052L-20.97-4.68l-1.854-8.244h-2.43ZM-1.386-2.808a3.094,3.094,0,0,1-2.376.936A2.558,2.558,0,0,1-6.444-4.086h7.7c0-.216.018-.324.018-.54A4.9,4.9,0,0,0-3.8-9.81,4.885,4.885,0,0,0-8.766-4.788a4.839,4.839,0,0,0,5,5.04A4.858,4.858,0,0,0,.63-1.854Zm-4.95-3.168a2.609,2.609,0,0,1,2.574-1.8,2.588,2.588,0,0,1,2.628,1.8Zm17.37,3.168a3.094,3.094,0,0,1-2.376.936A2.558,2.558,0,0,1,5.976-4.086h7.7c0-.216.018-.324.018-.54A4.9,4.9,0,0,0,8.622-9.81,4.885,4.885,0,0,0,3.654-4.788a4.839,4.839,0,0,0,5,5.04A4.858,4.858,0,0,0,13.05-1.854ZM6.084-5.976a2.609,2.609,0,0,1,2.574-1.8,2.588,2.588,0,0,1,2.628,1.8ZM16.524,0h2.394V-4.41L22.986,0h2.97L21.348-4.968l4.1-4.59H22.464L18.918-5.616v-7.632H16.524Z" transform="translate(328 3126)" fill="#c6c6c6"/>
    <path id="パス_69514" data-name="パス 69514" d="M-5.8-9.28l3.219.725A3.333,3.333,0,0,1-.058-9.8,3.007,3.007,0,0,1,2.871-6.554,3.191,3.191,0,0,1-.29-3.161,3.231,3.231,0,0,1-3.277-5.133H-7.453A6.92,6.92,0,0,0-.377.493,7.069,7.069,0,0,0,6.757-6.7c0-3.973-2.726-6.9-6.583-6.9a4.164,4.164,0,0,0-1.334.2l.841-3.77H6.467v-3.654H-3.277Z" transform="translate(288 3127)" fill="#c6c6c6"/>
  </g>
</svg>
