<svg xmlns="http://www.w3.org/2000/svg" width="31.295" height="26.874" viewBox="0 0 31.295 26.874">
  <g id="tips_tab4_text_mb" transform="translate(-276.567 -3108.28)">
    <path id="パス_69534" data-name="パス 69534" d="M-13.64,0h1.43l1.419-5.1L-9.328,0h1.441L-6.1-7.9H-7.59L-8.712-2.86-10.142-7.9H-11.4L-12.815-2.86-13.948-7.9h-1.485ZM-.847-1.716A1.891,1.891,0,0,1-2.3-1.144,1.563,1.563,0,0,1-3.938-2.5H.77c0-.132.011-.2.011-.33A3,3,0,0,0-2.321-6,2.985,2.985,0,0,0-5.357-2.926,2.957,2.957,0,0,0-2.3.154,2.969,2.969,0,0,0,.385-1.133ZM-3.872-3.652A1.594,1.594,0,0,1-2.3-4.752a1.582,1.582,0,0,1,1.606,1.1ZM6.743-1.716a1.891,1.891,0,0,1-1.452.572A1.563,1.563,0,0,1,3.652-2.5H8.36c0-.132.011-.2.011-.33A3,3,0,0,0,5.269-6,2.985,2.985,0,0,0,2.233-2.926,2.957,2.957,0,0,0,5.291.154,2.969,2.969,0,0,0,7.975-1.133ZM3.718-3.652a1.594,1.594,0,0,1,1.573-1.1A1.582,1.582,0,0,1,6.9-3.652ZM10.1,0h1.463V-2.7L14.047,0h1.815L13.046-3.036l2.508-2.805H13.728L11.561-3.432V-8.1H10.1Z" transform="translate(292 3135)" fill="#c6c6c6"/>
    <path id="パス_69533" data-name="パス 69533" d="M-5.2-5.48v2.54H1.08V0H3.74V-2.94H5.02V-5.48H3.74v-9.24H1.02Zm2.98,0,3.3-4.82v4.82Z" transform="translate(292 3123)" fill="#c6c6c6"/>
  </g>
</svg>
