<svg xmlns="http://www.w3.org/2000/svg" width="197.784" height="53.004" viewBox="0 0 197.784 53.004">
  <path id="パス_70442" data-name="パス 70442" d="M2.52,0V-6.12q5.4-5.04,9.63-9.27a54.978,54.978,0,0,0,6.63-7.77,11.96,11.96,0,0,0,2.4-6.6,7.758,7.758,0,0,0-.69-3.48,4.749,4.749,0,0,0-2.01-2.1,6.42,6.42,0,0,0-3.12-.72,6.754,6.754,0,0,0-4.11,1.35A30.373,30.373,0,0,0,7.8-31.74L1.98-37.5a24.753,24.753,0,0,1,6.69-5.19A17.872,17.872,0,0,1,16.8-44.4a16.1,16.1,0,0,1,7.62,1.74,12.8,12.8,0,0,1,5.16,4.89,14.306,14.306,0,0,1,1.86,7.41,15.675,15.675,0,0,1-1.98,7.35,42.691,42.691,0,0,1-5.07,7.44Q21.3-11.88,17.94-8.4q1.68-.24,3.75-.42T25.26-9h8.22V0ZM39.132,0V-20.484h5.22l.468,2.556h.108a13.09,13.09,0,0,1,2.862-2.16,7.4,7.4,0,0,1,3.69-.9,5.445,5.445,0,0,1,4.86,2.232,10.714,10.714,0,0,1,1.512,6.084V0H51.444V-11.88a5.064,5.064,0,0,0-.576-2.88,2.118,2.118,0,0,0-1.8-.756,3.422,3.422,0,0,0-1.836.468A10.559,10.559,0,0,0,45.54-13.68V0ZM70.164.5a7.668,7.668,0,0,1-4.446-1.3A8.288,8.288,0,0,1,62.8-4.5a14.665,14.665,0,0,1-1.026-5.76A12.48,12.48,0,0,1,63-16a9.519,9.519,0,0,1,3.168-3.69,7.225,7.225,0,0,1,4.068-1.3,6.091,6.091,0,0,1,2.808.576,9.044,9.044,0,0,1,2.124,1.548l-.216-3.06v-6.84H81.36V0H76.14l-.468-1.98h-.144A9.483,9.483,0,0,1,73.044-.2,6.371,6.371,0,0,1,70.164.5Zm1.692-5.256a3.769,3.769,0,0,0,1.674-.36A3.882,3.882,0,0,0,74.952-6.48v-8.064A4.087,4.087,0,0,0,73.4-15.5a5.315,5.315,0,0,0-1.656-.27,2.7,2.7,0,0,0-1.638.576,4.033,4.033,0,0,0-1.26,1.764,8.288,8.288,0,0,0-.486,3.1,10.262,10.262,0,0,0,.414,3.186,3.548,3.548,0,0,0,1.206,1.818A3.1,3.1,0,0,0,71.856-4.752ZM111.816.5a15.209,15.209,0,0,1-5.274-.972,14.225,14.225,0,0,1-4.734-2.88l3.672-4.428a12.042,12.042,0,0,0,3.15,1.98,8.382,8.382,0,0,0,3.33.756,4.453,4.453,0,0,0,2.646-.63,2.02,2.02,0,0,0,.846-1.71,1.765,1.765,0,0,0-.468-1.278,4.394,4.394,0,0,0-1.314-.882q-.846-.4-2-.864l-3.42-1.44a11.144,11.144,0,0,1-2.646-1.548A7.577,7.577,0,0,1,103.59-15.8a7.045,7.045,0,0,1-.774-3.384,7.161,7.161,0,0,1,1.242-4.1,8.657,8.657,0,0,1,3.438-2.916,11.278,11.278,0,0,1,5.04-1.08,12.9,12.9,0,0,1,4.644.882,11.519,11.519,0,0,1,4.068,2.646l-3.2,4.032a11.531,11.531,0,0,0-2.628-1.53,7.644,7.644,0,0,0-2.88-.522,4.078,4.078,0,0,0-2.322.576,1.849,1.849,0,0,0-.846,1.62,1.679,1.679,0,0,0,.522,1.26,4.834,4.834,0,0,0,1.422.9q.9.4,2.088.864l3.348,1.332a9.964,9.964,0,0,1,2.844,1.656,6.8,6.8,0,0,1,1.818,2.394,7.908,7.908,0,0,1,.63,3.294,7.6,7.6,0,0,1-1.206,4.14,8.694,8.694,0,0,1-3.492,3.078A12.01,12.01,0,0,1,111.816.5Zm20.808,0a7.6,7.6,0,0,1-4.158-1.026,5.941,5.941,0,0,1-2.34-2.844,11.191,11.191,0,0,1-.738-4.23V-15.48h-2.772v-4.752l3.168-.252.72-5.436H131.8v5.436h4.824v5H131.8v7.812a3.345,3.345,0,0,0,.738,2.43,2.514,2.514,0,0,0,1.854.738,4.142,4.142,0,0,0,1.008-.126,6.784,6.784,0,0,0,.864-.27l1.008,4.644q-.792.252-1.926.5A12.7,12.7,0,0,1,132.624.5Zm12.024,0a6.036,6.036,0,0,1-3.24-.846A5.718,5.718,0,0,1,139.3-2.61a6.658,6.658,0,0,1-.738-3.114,5.768,5.768,0,0,1,2.7-5.058q2.7-1.818,8.676-2.466a3.594,3.594,0,0,0-.4-1.422,2.074,2.074,0,0,0-.99-.9,4.115,4.115,0,0,0-1.71-.306,7.4,7.4,0,0,0-2.52.468,19.543,19.543,0,0,0-2.844,1.332l-2.232-4.212a21.07,21.07,0,0,1,2.79-1.422,17.765,17.765,0,0,1,2.934-.936,13.989,13.989,0,0,1,3.1-.342,9.24,9.24,0,0,1,4.5,1.008,6.576,6.576,0,0,1,2.808,3.078,12.434,12.434,0,0,1,.972,5.274V0h-5.22L150.7-2.052h-.18A12.308,12.308,0,0,1,147.8-.216,7.017,7.017,0,0,1,144.648.5Zm2.2-4.968a3.226,3.226,0,0,0,1.692-.432,6.269,6.269,0,0,0,1.4-1.188V-9.36a13.224,13.224,0,0,0-3.15.72,3.956,3.956,0,0,0-1.656,1.08,2.1,2.1,0,0,0-.486,1.332,1.537,1.537,0,0,0,.594,1.332A2.669,2.669,0,0,0,146.844-4.464ZM168.624,8.6a16.706,16.706,0,0,1-4.3-.522,6.847,6.847,0,0,1-3.114-1.656,3.982,3.982,0,0,1-1.152-2.97,3.889,3.889,0,0,1,.72-2.286,5.648,5.648,0,0,1,2.16-1.746v-.18A4.741,4.741,0,0,1,161.6-2.142a3.912,3.912,0,0,1-.54-2.142,3.9,3.9,0,0,1,.648-2.106,5.768,5.768,0,0,1,1.656-1.71v-.144a6.816,6.816,0,0,1-1.962-2.142,5.992,5.992,0,0,1-.846-3.186,6.775,6.775,0,0,1,1.224-4.14,7.381,7.381,0,0,1,3.186-2.466,10.788,10.788,0,0,1,4.158-.81,11.479,11.479,0,0,1,1.728.126,7.738,7.738,0,0,1,1.512.378h7.524v4.644H176.76a5.275,5.275,0,0,1,.378,1.1,5.844,5.844,0,0,1,.162,1.386,6.537,6.537,0,0,1-1.1,3.906A6.384,6.384,0,0,1,173.25-7.2a11.3,11.3,0,0,1-4.122.72,7.725,7.725,0,0,1-1.116-.09,11.93,11.93,0,0,1-1.3-.27,2.916,2.916,0,0,0-.486.612,1.715,1.715,0,0,0-.162.828,1.1,1.1,0,0,0,.684,1.026,5.685,5.685,0,0,0,2.34.342h3.24a11.432,11.432,0,0,1,5.85,1.242,4.324,4.324,0,0,1,2.07,4.014A5.685,5.685,0,0,1,178.83,5.04,9.458,9.458,0,0,1,174.8,7.65,17.992,17.992,0,0,1,168.624,8.6Zm.5-18.936a2.553,2.553,0,0,0,1.35-.36,2.446,2.446,0,0,0,.936-1.08,4.188,4.188,0,0,0,.342-1.8,3.853,3.853,0,0,0-.342-1.728,2.483,2.483,0,0,0-.936-1.044,2.553,2.553,0,0,0-1.35-.36,2.486,2.486,0,0,0-1.314.36,2.483,2.483,0,0,0-.936,1.044,3.853,3.853,0,0,0-.342,1.728,4.188,4.188,0,0,0,.342,1.8,2.446,2.446,0,0,0,.936,1.08A2.486,2.486,0,0,0,169.128-10.332Zm.5,14.94a7.892,7.892,0,0,0,2.322-.306,4.266,4.266,0,0,0,1.566-.81A1.5,1.5,0,0,0,174.1,2.34a1.14,1.14,0,0,0-.774-1.206,7.038,7.038,0,0,0-2.214-.27h-1.944q-1.116,0-1.764-.054a6.037,6.037,0,0,1-1.152-.2,3.283,3.283,0,0,0-.7.882,2.039,2.039,0,0,0-.234.954,1.734,1.734,0,0,0,1.188,1.62A7.649,7.649,0,0,0,169.632,4.608ZM191.7.5a10.962,10.962,0,0,1-5.31-1.278,9.459,9.459,0,0,1-3.744-3.69,11.448,11.448,0,0,1-1.386-5.8,11.7,11.7,0,0,1,.81-4.464,10.308,10.308,0,0,1,2.2-3.384A9.654,9.654,0,0,1,187.4-20.25a9.117,9.117,0,0,1,3.582-.738,8.645,8.645,0,0,1,4.9,1.3,7.952,7.952,0,0,1,2.916,3.528,12.5,12.5,0,0,1,.972,5.04,13.731,13.731,0,0,1-.09,1.62,8.491,8.491,0,0,1-.2,1.152H187.452a5.072,5.072,0,0,0,1.008,2.268,4.348,4.348,0,0,0,1.764,1.278,6.3,6.3,0,0,0,2.34.414,7.245,7.245,0,0,0,2.16-.324,10.564,10.564,0,0,0,2.16-.972l2.124,3.852a12.65,12.65,0,0,1-3.546,1.728A12.624,12.624,0,0,1,191.7.5Zm-4.356-13.068h6.984a4.152,4.152,0,0,0-.738-2.52,2.9,2.9,0,0,0-2.5-1.008,3.685,3.685,0,0,0-1.638.378,3.57,3.57,0,0,0-1.332,1.152A4.806,4.806,0,0,0,187.344-12.564Z" transform="translate(-1.98 44.4)" fill="#e60012"/>
</svg>
