<?xml version="1.0" encoding="UTF-8"?>
<svg id="_レイヤー_2" data-name="レイヤー 2" xmlns="http://www.w3.org/2000/svg" viewBox="0 0 103.21 53.02">
  <defs>
    <style>
      .cls-1 {
        fill: #e60012;
      }

      .cls-2 {
        fill: #fff;
      }
    </style>
  </defs>
  <g id="_レイヤー_1-2" data-name="レイヤー 1">
    <g id="tips_tab5_close_label" data-name="tips tab5 close label">
      <rect id="_長方形_15211" data-name="長方形 15211" class="cls-1" x="1.6" y="12.01" width="100.01" height="29" rx="2" ry="2" transform="translate(-5.1 14.27) rotate(-15.01)"/>
      <g id="_グループ_35929" data-name="グループ 35929">
        <g id="_グループ_35912" data-name="グループ 35912">
          <path id="_パス_66160" data-name="パス 66160" class="cls-2" d="m65.61,17.12c1.64,1.69,3.48,3.19,5.46,4.46.33-.81.77-1.57,1.29-2.27-1.8-.92-3.45-2.13-4.86-3.58l-1.89,1.39Zm-4.29.22c-.19,2.08-.95,4.08-2.18,5.77.85.25,1.67.58,2.45.98,1.23-2.06,2.02-4.36,2.32-6.74h-2.59Zm6.51,6.8c.63.51,1.31,1.11,1.97,1.71-1.38.44-2.76.89-4.08,1.3.49-1.79.88-3.61,1.15-5.44l-2.67.09c-.08,2.06-.37,4.11-.86,6.11-.72.24-1.41.44-2.01.63l.85,2.09c2.49-.82,5.96-1.96,9.28-3.11.29.3.56.63.81.96l1.89-1.71c-1.37-1.51-2.89-2.87-4.53-4.08l-1.8,1.46Zm9.11-9.22l.13.48-1.75.47-.13-.48,1.75-.47Zm-1.14,2.75l-.14-.52,1.75-.47.14.52-1.75.47Zm4.09.43l-1.38-5.13-5.75,1.54,3.44,12.81,2.04-.55-2.06-7.68,3.71-1Zm.66,3.05l-.21-.8.95-.25.21.8-.95.25Zm4.61.52l-.44-1.64-1.4.37-.21-.8,1.19-.32-.42-1.58-6.87,1.84.42,1.58,1.14-.3.21.8-1.33.36.44,1.64,1.24-.33c.04.83-.25,1.65-.81,2.26.58.19,1.12.46,1.63.79.79-1,1.14-2.28.98-3.54l1.01-.27.74,2.77,1.83-.49-.74-2.78,1.4-.37Zm-2.91-5.7l-.15-.56,1.81-.49.15.56-1.81.49Zm1.19-2.81l.13.48-1.81.49-.13-.48,1.81-.49Zm1.68-1.97l-5.85,1.57,1.39,5.17,3.8-1.02,1.43,5.33c.05.19,0,.3-.21.36s-.91.24-1.46.36c.47.55.86,1.17,1.14,1.84.86-.13,1.68-.49,2.36-1.04.49-.49.5-1.08.24-2.05l-2.82-10.53Zm5.07,6.89l1.65-.44-.9-4.84-.51-2.25-2.57.69.68,2.21,1.64,4.64Zm1.89,3.76c.83-.21,1.34-1.06,1.13-1.89,0-.02-.01-.05-.02-.07-.2-.84-1.05-1.36-1.9-1.16-.84.2-1.36,1.05-1.16,1.9,0,.03.01.05.02.08.19.84,1.03,1.36,1.86,1.17.02,0,.04-.01.07-.02Z"/>
          <path id="_パス_69344" data-name="パス 69344" class="cls-2" d="m35.63,23.16l1.27-.34-1.44,16.8-1.27.34,1.44-16.8Z"/>
        </g>
      </g>
      <path id="_パス_69557" data-name="パス 69557" class="cls-2" d="m11.74,32.91l2.86-.77,3.05,11.36,2.65-.71-3.72-13.87-3.98,1.07-.85,2.92Zm11.32,7.77l.34,1.28,9.6-2.57-.66-2.45-4.93,1.32,1.11-2.04c1.46-2.67,2.2-4.86,1.66-6.86-.62-2.3-2.99-3.66-5.29-3.04-.06.02-.11.03-.17.05-2.67.71-4.15,2.98-3.46,6.08l2.57-.69c-.33-1.45.23-2.61,1.39-2.92,1-.31,2.07.24,2.38,1.24.01.04.02.08.03.12.36,1.33-.29,2.92-1.46,4.97l-3.12,5.52Z"/>
      <path id="_パス_69556" data-name="パス 69556" class="cls-2" d="m38.79,25.66l2.86-.77,3.05,11.36,2.65-.71-3.72-13.87-3.98,1.07-.85,2.92Zm9.85-2.64l2.86-.77,3.05,11.36,2.65-.71-3.72-13.87-3.98,1.07-.85,2.92Z"/>
    </g>
  </g>
</svg>