<svg xmlns="http://www.w3.org/2000/svg" width="182.052" height="52.164" viewBox="0 0 182.052 52.164">
  <g id="tips_1st_title" transform="translate(-6 24.56)">
    <path id="パス_69537" data-name="パス 69537" d="M4.68,0h28.2V-8.64H24.84V-43.56H16.98A31.226,31.226,0,0,1,5.94-39.48v6.6h8.22V-8.64H4.68ZM45.252.5c5.58,0,8.532-2.916,8.532-6.7,0-3.708-2.844-5.184-5.4-6.156C46.26-13.1,44.5-13.572,44.5-14.8c0-.972.684-1.476,2.16-1.476A7.8,7.8,0,0,1,50.9-14.544l2.844-3.816a11.709,11.709,0,0,0-7.308-2.628c-4.788,0-7.92,2.628-7.92,6.48,0,3.42,2.772,5.076,5.22,6.048,2.088.828,4.068,1.4,4.068,2.628,0,1.008-.72,1.62-2.412,1.62a8.9,8.9,0,0,1-5.184-2.16l-2.844,4A13.239,13.239,0,0,0,45.252.5ZM64.728.5a15.066,15.066,0,0,0,4.644-.756L68.364-4.9a5.956,5.956,0,0,1-1.872.4C64.98-4.5,63.9-5.4,63.9-7.668V-15.48h4.824v-5H63.9V-25.92H58.608l-.72,5.436-3.168.252v4.752h2.772V-7.6C57.492-2.772,59.58.5,64.728.5ZM97.992.5c6.48,0,10.224-3.924,10.224-8.388,0-3.78-1.98-6.012-5.292-7.344L99.576-16.56c-2.376-.936-4.032-1.512-4.032-3.024,0-1.4,1.188-2.2,3.168-2.2a8.712,8.712,0,0,1,5.508,2.052l3.2-4.032a12.464,12.464,0,0,0-8.712-3.528c-5.688,0-9.72,3.6-9.72,8.1,0,3.888,2.628,6.228,5.436,7.344l3.42,1.44c2.3.972,3.78,1.476,3.78,3.024,0,1.44-1.116,2.34-3.492,2.34a10.65,10.65,0,0,1-6.48-2.736L87.984-3.348A14.99,14.99,0,0,0,97.992.5Zm21.06,0A15.066,15.066,0,0,0,123.7-.252L122.688-4.9a5.956,5.956,0,0,1-1.872.4c-1.512,0-2.592-.9-2.592-3.168V-15.48h4.824v-5h-4.824V-25.92h-5.292l-.72,5.436-3.168.252v4.752h2.772V-7.6C111.816-2.772,113.9.5,119.052.5Zm12.312,0a8.751,8.751,0,0,0,5.868-2.556h.18L137.844,0h5.22V-11.628c0-6.408-2.988-9.36-8.28-9.36a17.035,17.035,0,0,0-8.82,2.7l2.232,4.212a11.242,11.242,0,0,1,5.364-1.8c2.088,0,2.952.972,3.1,2.628-7.992.864-11.376,3.2-11.376,7.524A5.915,5.915,0,0,0,131.364.5Zm2.2-4.968c-1.332,0-2.2-.576-2.2-1.764,0-1.44,1.3-2.628,5.292-3.132v3.276A4.035,4.035,0,0,1,133.56-4.464ZM155.34,8.6c7.128,0,11.628-3.06,11.628-7.38,0-3.708-2.88-5.256-7.92-5.256h-3.24c-2.2,0-3.024-.432-3.024-1.368a1.717,1.717,0,0,1,.648-1.44,9.108,9.108,0,0,0,2.412.36c4.536,0,8.172-2.088,8.172-6.876a5.908,5.908,0,0,0-.54-2.484h3.132v-4.644h-7.524a10.033,10.033,0,0,0-3.24-.5c-4.428,0-8.568,2.448-8.568,7.416a6.509,6.509,0,0,0,2.808,5.328V-8.1a4.886,4.886,0,0,0-2.3,3.816,3.978,3.978,0,0,0,1.872,3.528v.18c-1.908.972-2.88,2.34-2.88,4.032C146.772,7.128,150.624,8.6,155.34,8.6Zm.5-18.936c-1.476,0-2.592-1.08-2.592-3.24,0-2.052,1.116-3.132,2.592-3.132,1.512,0,2.628,1.08,2.628,3.132C158.472-11.412,157.356-10.332,155.844-10.332Zm.5,14.94c-2.592,0-4.32-.72-4.32-2.16a2.367,2.367,0,0,1,.936-1.836,10.955,10.955,0,0,0,2.916.252h1.944c1.908,0,2.988.252,2.988,1.476C160.812,3.636,158.976,4.608,156.348,4.608ZM178.668.5a13.218,13.218,0,0,0,7.308-2.34l-2.124-3.852a8.335,8.335,0,0,1-4.32,1.3c-2.592,0-4.536-1.152-5.112-3.96h12.024a12.005,12.005,0,0,0,.288-2.772c0-5.58-2.88-9.864-8.784-9.864-4.932,0-9.72,4.1-9.72,10.728C168.228-3.456,172.764.5,178.668.5Zm-4.356-13.068c.432-2.412,1.98-3.528,3.744-3.528,2.34,0,3.24,1.512,3.24,3.528Z" transform="translate(1.32 19)" fill="#e60012"/>
  </g>
</svg>
