<svg xmlns="http://www.w3.org/2000/svg" width="31.295" height="26.514" viewBox="0 0 31.295 26.514">
  <g id="tips_tab5_text_mb" transform="translate(-276.567 -3108.64)">
    <path id="パス_69529" data-name="パス 69529" d="M-13.64,0h1.43l1.419-5.1L-9.328,0h1.441L-6.1-7.9H-7.59L-8.712-2.86-10.142-7.9H-11.4L-12.815-2.86-13.948-7.9h-1.485ZM-.847-1.716A1.891,1.891,0,0,1-2.3-1.144,1.563,1.563,0,0,1-3.938-2.5H.77c0-.132.011-.2.011-.33A3,3,0,0,0-2.321-6,2.985,2.985,0,0,0-5.357-2.926,2.957,2.957,0,0,0-2.3.154,2.969,2.969,0,0,0,.385-1.133ZM-3.872-3.652A1.594,1.594,0,0,1-2.3-4.752a1.582,1.582,0,0,1,1.606,1.1ZM6.743-1.716a1.891,1.891,0,0,1-1.452.572A1.563,1.563,0,0,1,3.652-2.5H8.36c0-.132.011-.2.011-.33A3,3,0,0,0,5.269-6,2.985,2.985,0,0,0,2.233-2.926,2.957,2.957,0,0,0,5.291.154,2.969,2.969,0,0,0,7.975-1.133ZM3.718-3.652a1.594,1.594,0,0,1,1.573-1.1A1.582,1.582,0,0,1,6.9-3.652ZM10.1,0h1.463V-2.7L14.047,0h1.815L13.046-3.036l2.508-2.805H13.728L11.561-3.432V-8.1H10.1Z" transform="translate(292 3135)" fill="#c6c6c6"/>
    <path id="パス_69530" data-name="パス 69530" d="M-4-6.4l2.22.5A2.3,2.3,0,0,1-.04-6.76,2.074,2.074,0,0,1,1.98-4.52,2.2,2.2,0,0,1-.2-2.18,2.228,2.228,0,0,1-2.26-3.54H-5.14A4.772,4.772,0,0,0-.26.34,4.875,4.875,0,0,0,4.66-4.62,4.494,4.494,0,0,0,.12-9.38a2.872,2.872,0,0,0-.92.14l.58-2.6H4.46v-2.52H-2.26Z" transform="translate(292 3123)" fill="#c6c6c6"/>
  </g>
</svg>
