<svg xmlns="http://www.w3.org/2000/svg" width="60.18" height="41.25" viewBox="0 0 60.18 41.25">
  <g id="tips_label_mission2_behind" transform="translate(-386.655 -3487.75)">
    <path id="パス_69541" data-name="パス 69541" d="M-30.345,0h1.995l1.185-6.81L-24.9,0h1.8l2.3-6.81L-19.65,0h1.98l-1.815-10.77h-1.98l-2.52,7.515-2.49-7.515h-2.01Zm15.4,0h1.995V-7.965H-14.94Zm.99-11.25a1.243,1.243,0,0,0-1.275,1.215,1.327,1.327,0,0,0,1.275,1.38A1.274,1.274,0,0,0-12.675-9.93,1.294,1.294,0,0,0-13.95-11.25Zm6.57,8.145c.555.285.885.54.885.885s-.39.645-.885.645A2.5,2.5,0,0,1-9.045-2.5l-1.23,1.35A3.365,3.365,0,0,0-7.485.21,2.574,2.574,0,0,0-4.62-2.28c0-1.185-.705-1.875-2.025-2.55L-7.38-5.2c-.435-.225-.72-.36-.72-.66s.315-.48.72-.48A2.044,2.044,0,0,1-6-5.61l1.23-1.245a3.24,3.24,0,0,0-2.625-1.32,2.4,2.4,0,0,0-2.58,2.3c0,1,.645,1.785,1.92,2.43Zm8.1,0c.555.285.885.54.885.885s-.39.645-.885.645A2.5,2.5,0,0,1-.945-2.5l-1.23,1.35A3.365,3.365,0,0,0,.615.21,2.574,2.574,0,0,0,3.48-2.28c0-1.185-.705-1.875-2.025-2.55L.72-5.2C.285-5.43,0-5.565,0-5.865s.315-.48.72-.48A2.044,2.044,0,0,1,2.1-5.61L3.33-6.855A3.24,3.24,0,0,0,.705-8.175a2.4,2.4,0,0,0-2.58,2.3c0,1,.645,1.785,1.92,2.43ZM6.36,0h2V-7.965h-2Zm.99-11.25a1.243,1.243,0,0,0-1.275,1.215A1.327,1.327,0,0,0,7.35-8.655,1.274,1.274,0,0,0,8.625-9.93,1.294,1.294,0,0,0,7.35-11.25Zm8.055,3.075a4.168,4.168,0,0,0-4.125,4.2A4.13,4.13,0,0,0,15.42.21a4.149,4.149,0,0,0,4.215-4.2A4.187,4.187,0,0,0,15.405-8.175Zm.03,1.89a2.152,2.152,0,0,1,2.19,2.31,2.156,2.156,0,0,1-2.19,2.295A2.126,2.126,0,0,1,13.29-3.99,2.155,2.155,0,0,1,15.435-6.285Zm9.315-1.68h-2V0h2V-3.39a3.909,3.909,0,0,1,.39-2.19,1.564,1.564,0,0,1,1.35-.765c1.215,0,1.35,1.005,1.35,2.58V0h1.995V-5.445a2.621,2.621,0,0,0-2.73-2.73,3.547,3.547,0,0,0-2.355,1.02Z" transform="translate(417 3499)" fill="#e60012"/>
    <path id="パス_69540" data-name="パス 69540" d="M-7.77-1.98V0H7.14V-3.81H-.51l2.4-2.52c3.15-3.3,5.07-6.18,5.07-9.3A6.472,6.472,0,0,0,.21-22.08c-4.14,0-7.17,2.7-7.38,7.47h3.99c.09-2.22,1.35-3.69,3.15-3.69a2.854,2.854,0,0,1,2.97,2.91c0,2.07-1.56,4.11-4.05,6.63Z" transform="translate(418 3529)" fill="#e60012"/>
  </g>
</svg>
