<svg xmlns="http://www.w3.org/2000/svg" width="31.295" height="26.874" viewBox="0 0 31.295 26.874">
  <g id="tips_tab3_text_mb" transform="translate(-276.567 -3108.28)">
    <path id="パス_69536" data-name="パス 69536" d="M-13.64,0h1.43l1.419-5.1L-9.328,0h1.441L-6.1-7.9H-7.59L-8.712-2.86-10.142-7.9H-11.4L-12.815-2.86-13.948-7.9h-1.485ZM-.847-1.716A1.891,1.891,0,0,1-2.3-1.144,1.563,1.563,0,0,1-3.938-2.5H.77c0-.132.011-.2.011-.33A3,3,0,0,0-2.321-6,2.985,2.985,0,0,0-5.357-2.926,2.957,2.957,0,0,0-2.3.154,2.969,2.969,0,0,0,.385-1.133ZM-3.872-3.652A1.594,1.594,0,0,1-2.3-4.752a1.582,1.582,0,0,1,1.606,1.1ZM6.743-1.716a1.891,1.891,0,0,1-1.452.572A1.563,1.563,0,0,1,3.652-2.5H8.36c0-.132.011-.2.011-.33A3,3,0,0,0,5.269-6,2.985,2.985,0,0,0,2.233-2.926,2.957,2.957,0,0,0,5.291.154,2.969,2.969,0,0,0,7.975-1.133ZM3.718-3.652a1.594,1.594,0,0,1,1.573-1.1A1.582,1.582,0,0,1,6.9-3.652ZM10.1,0h1.463V-2.7L14.047,0h1.815L13.046-3.036l2.508-2.805H13.728L11.561-3.432V-8.1H10.1Z" transform="translate(292 3135)" fill="#c6c6c6"/>
    <path id="パス_69535" data-name="パス 69535" d="M1.4-10.74C1.4-9.72.6-9.1-1.08-8.96v2.34c2.16.02,3.3,1.06,3.3,2.36A2.129,2.129,0,0,1,0-2.16,2.226,2.226,0,0,1-2.3-4.34H-5A4.643,4.643,0,0,0-.14.36,4.73,4.73,0,0,0,4.9-4.26,3.653,3.653,0,0,0,2.14-7.92a3.265,3.265,0,0,0,2.02-3.02A3.932,3.932,0,0,0,.02-14.72a4.251,4.251,0,0,0-4.44,3.9H-1.8A1.806,1.806,0,0,1-.08-12.1,1.358,1.358,0,0,1,1.4-10.74Z" transform="translate(292 3123)" fill="#c6c6c6"/>
  </g>
</svg>
