<svg xmlns="http://www.w3.org/2000/svg" width="308.848" height="37.12" viewBox="0 0 308.848 37.12">
  <g id="campaign_title" transform="translate(-470.837 -7545.978)">
    <g id="グループ_2919" data-name="グループ 2919" transform="translate(-57 2908)">
      <path id="パス_6083" data-name="パス 6083" d="M-128.137-3.774l-.969-2.448c-.306-.765-.51-1.071-.918-1.071a2.394,2.394,0,0,0-1.02.357,13.313,13.313,0,0,1-5.916,1.275c-7.293,0-11.832-4.9-11.832-12.087s4.335-13.158,12.8-13.158a13.76,13.76,0,0,1,5.457,1.173,2.7,2.7,0,0,0,1.02.306c.408,0,.561-.306.867-1.071l1.122-3.06a3.031,3.031,0,0,0,.255-.969c0-.459-.357-.714-1.122-1.02a20.012,20.012,0,0,0-7.344-1.275c-12.75,0-19.227,8.568-19.227,19.227C-154.964-7.14-148.18-.1-137.624-.1A22.373,22.373,0,0,0-129-1.734c.765-.357,1.122-.612,1.122-1.071A3.031,3.031,0,0,0-128.137-3.774Zm34.17-5.151c1.377,0,1.683.1,2.142,1.224.714,1.683,1.377,3.417,2.244,5.865.459,1.224.714,1.428,2.04,1.428h3.927c.816,0,1.173-.1,1.173-.51a2.187,2.187,0,0,0-.306-.867c-1.581-3.519-2.7-6.069-3.825-8.721l-7.344-17.238c-.918-2.142-1.938-4.59-3.009-7.344-.459-1.224-.714-1.428-2.04-1.428h-2.193c-1.326,0-1.581.2-2.04,1.428-1.071,2.754-2.142,5.2-3.06,7.4L-113.552-10.4c-1.071,2.5-2.193,5.049-3.774,8.619a2.187,2.187,0,0,0-.306.867c0,.408.357.51,1.173.51h3.57c1.326,0,1.581-.2,2.04-1.428.867-2.448,1.53-4.182,2.244-5.865.459-1.122.816-1.224,2.142-1.224Zm-6.783-18c.2-.561.408-.816.561-.816.2,0,.357.306.561.816l4.743,11.679a2.289,2.289,0,0,1,.2.867c0,.459-.357.561-1.173.561h-8.721c-.816,0-1.173-.1-1.173-.561a2.289,2.289,0,0,1,.2-.867Zm36.465,2.805c0-.51.153-.816.357-.816s.408.153.663.459l10.1,12.6a1.353,1.353,0,0,0,1.02.612,1.386,1.386,0,0,0,1.071-.612l10.2-12.6c.255-.306.459-.459.663-.459s.357.306.357.816l.255,13.107c.1,2.754,0,7.6,0,9.078,0,1.275.255,1.53,1.53,1.53h3.111c1.275,0,1.428-.153,1.428-1.53,0-.765-.255-6.732-.306-9.435l-.255-15.249c-.051-3.621,0-7.6,0-8.364,0-1.275-.255-1.53-1.53-1.53h-1.683a2.444,2.444,0,0,0-2.448,1.224c-1.479,1.989-3.009,3.978-4.488,5.814l-6.783,8.619c-.408.51-.714.765-.969.765-.306,0-.561-.255-.969-.765L-59.9-29.631c-1.479-1.836-2.958-3.723-4.386-5.661a2.443,2.443,0,0,0-2.448-1.224h-1.683c-1.275,0-1.479.255-1.479,1.53,0,1.02,0,5.814-.051,8.364L-70.2-11.373c-.051,3.672-.357,9.231-.357,9.945,0,.765.357,1.02,1.479,1.02h3.06c1.275,0,1.53-.255,1.53-1.53,0-1.173-.051-7.344,0-9.129ZM-14.153-.408c1.173,0,1.479-.2,1.479-1.275,0-.357-.153-5.967-.153-8.925v-1.173c0-1.275.255-1.53,1.53-1.53h4.029C2.167-13.311,6.3-18.666,6.3-25.959,6.3-33.15,1.912-36.516-5.33-36.516h-5.2c-2.4,0-6.426-.1-6.783-.1-1.122,0-1.428.408-1.428,1.632.051,2.907.1,6.069.1,8.568v15.81c0,2.958-.153,8.568-.153,8.925,0,1.071.306,1.275,1.479,1.275Zm1.326-29.325c0-1.275.255-1.53,1.53-1.53h4.9C-2.627-31.263.28-29.835.28-25.4c0,5.049-3.315,7.038-7.548,7.038H-11.3c-1.275,0-1.53-.255-1.53-1.53ZM35.164-8.925c1.377,0,1.683.1,2.142,1.224.714,1.683,1.377,3.417,2.244,5.865.459,1.224.714,1.428,2.04,1.428h3.927c.816,0,1.173-.1,1.173-.51a2.187,2.187,0,0,0-.306-.867C44.8-5.3,43.681-7.854,42.56-10.506L35.215-27.744c-.918-2.142-1.938-4.59-3.009-7.344-.459-1.224-.714-1.428-2.04-1.428H27.973c-1.326,0-1.581.2-2.04,1.428-1.071,2.754-2.142,5.2-3.06,7.4L15.58-10.4c-1.071,2.5-2.193,5.049-3.774,8.619a2.187,2.187,0,0,0-.306.867c0,.408.357.51,1.173.51h3.57c1.326,0,1.581-.2,2.04-1.428.867-2.448,1.53-4.182,2.244-5.865.459-1.122.816-1.224,2.142-1.224Zm-6.783-18c.2-.561.408-.816.561-.816.2,0,.357.306.561.816l4.743,11.679a2.289,2.289,0,0,1,.2.867c0,.459-.357.561-1.173.561H24.556c-.816,0-1.173-.1-1.173-.561a2.289,2.289,0,0,1,.2-.867ZM63.775-.408c1.173,0,1.479-.2,1.479-1.275,0-.357-.153-5.967-.153-8.925V-26.316c0-2.958.153-8.568.153-8.925,0-1.071-.306-1.275-1.479-1.275H60.511c-1.173,0-1.479.2-1.479,1.275,0,.357.153,5.967.153,8.925v15.708c0,2.958-.153,8.568-.153,8.925,0,1.071.306,1.275,1.479,1.275Zm44.931-9.843c0-2.244.153-5.559.153-5.916,0-1.071-.306-1.275-1.479-1.275H104.27c-1.173,0-1.479.2-1.479,1.275,0,.357.153,3.672.153,5.916v2.346c0,1.275-.255,1.581-1.479,1.887a13.12,13.12,0,0,1-3.723.51c-7.191,0-12.648-3.927-12.648-12.138,0-7.752,5.2-13.26,13.566-13.26a14.73,14.73,0,0,1,6.273,1.428,2.2,2.2,0,0,0,1.02.357c.357,0,.51-.306.816-1.071l1.173-3.06a3.031,3.031,0,0,0,.255-.969c0-.459-.357-.714-1.122-1.071a21.828,21.828,0,0,0-8.211-1.53c-11.781,0-19.941,7.344-19.941,19.176C78.923-7.548,84.941-.1,97.385-.1a25.762,25.762,0,0,0,9.945-1.989c1.122-.459,1.377-.816,1.377-2.091Zm20.6-13.566c0-.51.1-.816.357-.816q.229,0,.612.459L143.845-7.446c1.683,2.04,3.162,3.876,4.692,5.814a2.4,2.4,0,0,0,2.448,1.224h1.02c1.173,0,1.479-.2,1.479-1.275,0-.357-.153-5.61-.153-8.415V-26.316c0-2.958.153-8.568.153-8.925,0-1.071-.306-1.275-1.479-1.275h-3.06c-1.173,0-1.479.2-1.479,1.275,0,.357.153,5.967.153,8.925v12.648c0,.51-.1.816-.357.816q-.229,0-.612-.459L133.9-29.223c-1.632-1.989-3.264-3.978-4.845-6.069a2.444,2.444,0,0,0-2.448-1.224h-1.683c-1.173,0-1.479.2-1.479,1.275,0,.357.153,5.559.153,8.415v16.218c0,2.958-.153,8.568-.153,8.925,0,1.071.306,1.275,1.479,1.275h3.06c1.173,0,1.479-.2,1.479-1.275,0-.357-.153-5.967-.153-8.925Z" transform="translate(683 4675)" fill="#f4ffc4" stroke="#f4ffc4" stroke-linecap="round" stroke-width="0.4"/>
    </g>
  </g>
</svg>
