<svg xmlns="http://www.w3.org/2000/svg" width="274.659" height="233.291" viewBox="0 0 274.659 233.291">
  <g id="summary_item1_text_mb" transform="translate(-411.166 -2834.641)">
    <path id="パス_6213" data-name="パス 6213" d="M8.352-14.376c-.216-.792-.312-1.1-.5-1.7a15.856,15.856,0,0,1-.84-2.832l-2.976.84a26.244,26.244,0,0,1,1.632,4.464c-1.152.36-1.344.408-2.328.744a13.685,13.685,0,0,1-2.184.624l.936,2.808a27.769,27.769,0,0,1,3.1-1.224,11.229,11.229,0,0,0,1.2-.432A90.325,90.325,0,0,1,9.312,1.68L12.48.96a6.413,6.413,0,0,1-.36-1.152c-1.44-6-1.56-6.456-3.048-11.664,4.056-1.2,5.5-1.488,7.2-1.488,2.016,0,3.192.888,3.192,2.4A2.481,2.481,0,0,1,18.48-8.9a4.813,4.813,0,0,1-2.712.792,9.069,9.069,0,0,1-3.84-.936A10.578,10.578,0,0,1,12.36-6.1a11.736,11.736,0,0,0,3.72.672A6.746,6.746,0,0,0,20.52-6.84a5.445,5.445,0,0,0,1.944-4.176c0-2.952-2.232-4.9-5.616-4.9-.48,0-.816.024-1.392.072a26.761,26.761,0,0,1,.12-3.84H12.552A14.087,14.087,0,0,1,12.7-16.8c.024.84.024.84.024,1.32-.96.192-1.368.288-2.04.456Zm18.816,2.04a9.019,9.019,0,0,1,1.056-.072,83.636,83.636,0,0,0,8.52-.576,26.54,26.54,0,0,0,2.592,4.368,11.15,11.15,0,0,0-4.152-.72c-2.736,0-4.728.552-6.12,1.728a4.669,4.669,0,0,0-1.728,3.576,4.477,4.477,0,0,0,1.416,3.24c1.224,1.176,3.6,1.824,6.672,1.824a24.776,24.776,0,0,0,7.608-1.3l-.384-3.072a16.675,16.675,0,0,1-7.224,1.608c-3.264,0-5.04-.864-5.04-2.424,0-1.7,1.92-2.688,5.184-2.688a12.028,12.028,0,0,1,3.792.552,4.241,4.241,0,0,1,1.656,1.032L43.8-6.528c-.84-1.128-1.9-2.688-2.544-3.792-.24-.432-.792-1.44-1.656-3.048q2.988-.576,3.528-.72c.816-.168,1.08-.24,1.7-.336L44.5-17.28a36.518,36.518,0,0,1-5.88,1.416A20.109,20.109,0,0,1,37.3-19.7l-3.1.408c.12.192,1.152,2.736,1.56,3.792-1.488.192-4.68.408-6.48.408a16.454,16.454,0,0,1-2.328-.12ZM52.9-19.176a11.936,11.936,0,0,1,.1,1.632c0,.336,0,.84-.024,1.56-.144,6.024-.192,8.424-.192,9.672,0,3.216.7,5.064,2.352,6.168a7.825,7.825,0,0,0,4.2,1.056,9.084,9.084,0,0,0,7.2-3.048c1.176-1.32,1.9-2.88,2.856-6.12a10.365,10.365,0,0,1-2.9-1.848,16.089,16.089,0,0,1-1.1,4.032,6.175,6.175,0,0,1-5.808,4.1,3.8,3.8,0,0,1-3.216-1.248c-.48-.72-.624-1.584-.624-3.864,0-1.7.144-6.576.24-8.808a21.939,21.939,0,0,1,.288-3.24ZM74.568-17.64a11.468,11.468,0,0,1,.1,1.536c.1,6.648.528,10.128,1.512,12.528.96,2.3,2.256,3.48,3.864,3.48,2.04,0,3.432-1.944,4.68-6.624A11.847,11.847,0,0,1,82.32-8.9,17.694,17.694,0,0,1,81.048-4.56c-.288.672-.624,1.032-.984,1.032-.768,0-1.536-1.536-1.944-4.032a44.912,44.912,0,0,1-.456-6.432,27.9,27.9,0,0,1,.192-3.648Zm12.12,2.28a20.949,20.949,0,0,1,3.408,5.9A24.33,24.33,0,0,1,91.632-2.52l2.976-1.128a23.927,23.927,0,0,0-5.4-12.912Zm25.392-.816h-8.3v-1.032a22.99,22.99,0,0,1,.144-2.736h-3a22.589,22.589,0,0,1,.168,2.736v1.032H100.1a20.365,20.365,0,0,1-2.9-.168v2.88a20.591,20.591,0,0,1,2.9-.168h.984v12.36a22.337,22.337,0,0,1-.168,3.048h2.856V.432h8.3V1.776h2.88a23.934,23.934,0,0,1-.168-3.072V-13.632h.984a22.3,22.3,0,0,1,3,.168v-2.88a20.7,20.7,0,0,1-3,.168h-.984v-.984a19.717,19.717,0,0,1,.168-2.784h-3.024a22.719,22.719,0,0,1,.144,2.784Zm0,2.544v4.248h-8.3v-4.248Zm0,6.7v4.824h-8.3V-6.936Zm12.24-8.9a18.663,18.663,0,0,1,1.9-.144c2.352-.1,2.928-.12,4.152-.216-.6,2.208-.888,3.12-1.512,5.016a8.547,8.547,0,0,0-4.536,1.152,6.039,6.039,0,0,0-2.976,5.256c0,2.616,1.632,4.56,3.84,4.56,1.32,0,2.4-.744,3.288-2.28a31.974,31.974,0,0,0,2.376-5.9,18.327,18.327,0,0,1,5.4,1.656,9.769,9.769,0,0,1-2.136,3.552,11.285,11.285,0,0,1-3.72,2.52,8.723,8.723,0,0,1,2.184,2.16A13.907,13.907,0,0,0,136.2-1.224a11.334,11.334,0,0,0,2.616-4.224,24.508,24.508,0,0,1,3.312,2.232l1.08-3.168a8.473,8.473,0,0,1-1.1-.576c-.744-.432-1.8-.984-2.568-1.368a39.984,39.984,0,0,0,.432-5.088,7.781,7.781,0,0,1,.144-1.608l-3.024-.12a7.2,7.2,0,0,1,.1,1.272,26.069,26.069,0,0,1-.24,4.44,19.559,19.559,0,0,0-5.3-1.512c.216-.744,1.68-5.16,1.8-5.448a3.582,3.582,0,0,1,.5-1.008l-1.9-1.632a1.819,1.819,0,0,1-.96.288c-.888.12-3.024.216-4.464.216a14.232,14.232,0,0,1-2.424-.12Zm3.792,7.176a31.305,31.305,0,0,1-1.56,4.008c-.552,1.08-.912,1.512-1.368,1.512-.648,0-1.176-.792-1.176-1.776a3.374,3.374,0,0,1,.912-2.3A4.748,4.748,0,0,1,128.112-8.664Zm29.76-6.72a5.246,5.246,0,0,1,2.424.72,5.946,5.946,0,0,1,2.952,5.328,6.719,6.719,0,0,1-3.336,6,12.755,12.755,0,0,1-4.776,1.32A7.656,7.656,0,0,1,156.6.792a15.691,15.691,0,0,0,3.768-1.008A9.246,9.246,0,0,0,166.2-9.168c0-5.4-3.744-8.9-9.5-8.9a10.774,10.774,0,0,0-8.256,3.36,10.309,10.309,0,0,0-2.64,6.984c0,3.864,1.968,6.648,4.7,6.648,1.968,0,3.5-1.416,4.872-4.512A34.72,34.72,0,0,0,157.872-15.384Zm-2.928.024a31.63,31.63,0,0,1-1.992,8.112c-.864,2.064-1.68,3.072-2.472,3.072-1.056,0-1.9-1.56-1.9-3.528a8.035,8.035,0,0,1,3.264-6.48A6.109,6.109,0,0,1,154.944-15.36Z" transform="translate(472.5 3022.012)" fill="#371606"/>
    <path id="パス_6212" data-name="パス 6212" d="M18.4-11.52l.1,9.568v.576A20.374,20.374,0,0,1,18.3,1.7h4.352c-.1-.9-.16-2.112-.192-3.68L22.3-16.832h3.3a32.9,32.9,0,0,1,3.68.128v-3.872a18.2,18.2,0,0,1-3.776.224H22.272l-.064-2.592v-.192a20.531,20.531,0,0,1,.128-2.72H18.112a23.07,23.07,0,0,1,.16,2.944l.032,2.56H7.232A18.6,18.6,0,0,1,3.2-20.576v3.9a33.336,33.336,0,0,1,3.936-.16H15.9a30.444,30.444,0,0,1-4.288,5.28A34.056,34.056,0,0,1,1.536-4.608,9.271,9.271,0,0,1,4.192-1.28,46.353,46.353,0,0,0,8.928-4.224a44.056,44.056,0,0,0,6.3-5.568,19.386,19.386,0,0,0,3.264-4.48c-.032.512-.1,2.144-.1,2.3Zm15.872,1.472a35.129,35.129,0,0,1,5.216-.16H56.48a35.129,35.129,0,0,1,5.216.16V-14.5a31.425,31.425,0,0,1-5.184.224H39.456a31.425,31.425,0,0,1-5.184-.224ZM66.72-21.92a38.714,38.714,0,0,1,3.648,9.536L74.3-13.6a40.812,40.812,0,0,0-3.872-9.408Zm8.416-1.6a40.374,40.374,0,0,1,3.584,9.28l3.9-1.248a41,41,0,0,0-3.84-9.056ZM88.8-23.84a25.223,25.223,0,0,1-1.6,7.52,21.039,21.039,0,0,1-5.6,8.8,24.939,24.939,0,0,1-8.992,5.568,12.256,12.256,0,0,1,2.816,3.584c9.6-4.672,14.688-11.1,16.96-21.376a14.277,14.277,0,0,1,.8-3.1Zm14.3,1.952a84.415,84.415,0,0,1,17.472,3.68l1.28-3.936A106.667,106.667,0,0,0,104.544-25.6Zm-.512,8.8a70.374,70.374,0,0,1,8.1,1.408,55,55,0,0,1,8.8,2.56l1.248-3.936a100.558,100.558,0,0,0-16.672-3.712ZM100-4.1A89.031,89.031,0,0,1,110.048-2.24a58.707,58.707,0,0,1,11.328,3.584l1.376-4.032A100.176,100.176,0,0,0,101.5-7.744Zm35.456-20.928a16.083,16.083,0,0,1,.128,2.912c0,8.96-.736,13.088-3.04,16.768a13.147,13.147,0,0,1-3.3,3.68,11.389,11.389,0,0,1,3.232,3.1A20.378,20.378,0,0,0,136.9-4.48c1.664-3.3,2.368-6.912,2.592-13.152.192-6.272.192-6.272.32-7.168Zm8.48-.224a13.851,13.851,0,0,1,.128,2.112v.96L143.9-4.128a14.34,14.34,0,0,1-.288,3.392l2.048,2.176A13.923,13.923,0,0,1,147.04.864a21.134,21.134,0,0,0,6.816-3.84,19.859,19.859,0,0,0,5.088-7.456,13.413,13.413,0,0,1-3.008-3.008A15.637,15.637,0,0,1,152.8-7.584a12.865,12.865,0,0,1-4.9,3.648l.16-18.208a17.343,17.343,0,0,1,.224-3.04ZM185.952-22.5a5.669,5.669,0,0,1-2.336.32l-7.008.1c-.608,0-1.12.032-1.536.064a7.548,7.548,0,0,0,.512-1.024l.416-.832a6.461,6.461,0,0,1,.416-.9,6.546,6.546,0,0,1,.544-.992l-4.384-.864a11.943,11.943,0,0,1-1.632,4.224,24.616,24.616,0,0,1-8.288,9.28,8.5,8.5,0,0,1,3.1,2.752,31.321,31.321,0,0,0,7.488-8.192l9.632-.16a25.34,25.34,0,0,1-9.344,13.5,28.818,28.818,0,0,1-7.008,3.776,9.86,9.86,0,0,1,2.72,3.36A32.327,32.327,0,0,0,180.64-6.208,33.191,33.191,0,0,0,187.2-18.56a6.019,6.019,0,0,1,.8-1.92Z" transform="translate(460.5 3066.012)" fill="#371606"/>
    <g id="グループ_3305" data-name="グループ 3305" transform="translate(0 7)">
      <path id="合体_75" data-name="合体 75" d="M925.631,104.483a2.653,2.653,0,0,1-.6-.791,2.439,2.439,0,0,1-.2-1,1.694,1.694,0,0,1,.5-1.237c.193-.367.37-.685.529-.947a3.227,3.227,0,0,1,.593-.725,2.3,2.3,0,0,1,.5-.76c.25-.348.517-.755.793-1.211a9.894,9.894,0,0,1,.676-1.3,15.959,15.959,0,0,0,.786-1.485c.383-.782,1-1.946,1.825-3.46.809-1.478,1.572-2.98,2.27-4.464.161-.4.338-.826.525-1.274s.374-.885.541-1.264.3-.688.41-.941a6.186,6.186,0,0,0,.251-.7l.231-.786c.041-.142.121-.478.263-1.273-.021-.186-.039-.328-.053-.434-.112-.038-.236-.085-.377-.143a4.865,4.865,0,0,1-1.333.059.951.951,0,0,0-.387.024,4.162,4.162,0,0,0-.6.2,5.741,5.741,0,0,1-.854.274,2.2,2.2,0,0,1-.852.486,3.253,3.253,0,0,1-.793.818,1.637,1.637,0,0,1-1.781.136c-.331-.169-.549-.288-.687-.374a1.49,1.49,0,0,1-.6-.8q-.329.432-.653.87c-.621.841-1.068,1.455-1.328,1.827-.233.334-.478.668-.732,1a1.694,1.694,0,0,1-.556.905,2.979,2.979,0,0,1-.358.7,3.7,3.7,0,0,1-.582.852,3.336,3.336,0,0,1-.167.465c0,.008,0,.017,0,.029a2.22,2.22,0,0,1,.616,1.036,1.754,1.754,0,0,1-.564,1.708,2.18,2.18,0,0,1-1.2.7,1.484,1.484,0,0,1-.235.019,1.894,1.894,0,0,1-1.141-.357,3.866,3.866,0,0,1-.543-.472,2.2,2.2,0,0,1-.724-1.871,6.833,6.833,0,0,1,.277-1.408l.013-.04.017-.04a7.971,7.971,0,0,1,.685-1.293,3.083,3.083,0,0,0,.337-.6,4.338,4.338,0,0,1,.566-1.024c.237-.341.618-.874,1.134-1.584l.024-.033.027-.031a1.268,1.268,0,0,0,.19-.305,4.472,4.472,0,0,1,.415-.712,6.232,6.232,0,0,1,.961-1.4,5.936,5.936,0,0,0,.837-1.272l.091-.192.167-.131c.186-.146.38-.307.575-.478a.311.311,0,0,0,.1-.21l.058-.354.286-.217a2.131,2.131,0,0,0,.578-.67,1.929,1.929,0,0,1,.643-.753.58.58,0,0,0,.039-.059,4.679,4.679,0,0,1,.663-.814l.021-.021a4.782,4.782,0,0,0,.421-.446,2.385,2.385,0,0,1,1.047-.683l.089-.034.094-.014a2.522,2.522,0,0,1,1.528.185l.027.013a2.262,2.262,0,0,1,.993.866,1.659,1.659,0,0,1,.1,1.3,1.734,1.734,0,0,1-.8,1.06,6.386,6.386,0,0,1-.649.321,1.329,1.329,0,0,0-.21.13c.123-.062.235-.118.332-.169a3.663,3.663,0,0,1,1.112-.373c.286-.046.689-.1,1.2-.171s.845-.115,1.045-.147a5.763,5.763,0,0,1,1.191-.017l.073,0,.071.016a1.337,1.337,0,0,0,.432.037,2.368,2.368,0,0,1,1.016.114,3.018,3.018,0,0,1,.959.588,4.441,4.441,0,0,1,.77.847,2.867,2.867,0,0,1,.451,1.324,2.356,2.356,0,0,1,.038,1.333,2.6,2.6,0,0,0-.076.652,1.357,1.357,0,0,1-.359,1.009c-.032.166-.079.355-.141.571a2.936,2.936,0,0,1-.457.884,2.47,2.47,0,0,1-.412,1.062,1.792,1.792,0,0,1-.4,1.16l-.029.04-.033.037a2.485,2.485,0,0,0-.2.239,1.776,1.776,0,0,1-.3.5l.011.32-.266.275a.769.769,0,0,0-.124.155,3.706,3.706,0,0,1-.286.657c-.094.175-.484.9-1.159,2.153-.817,1.52-1.085,2.092-1.167,2.3a4.325,4.325,0,0,1-.492.937,1.439,1.439,0,0,1-.519.92,2.791,2.791,0,0,0-.2.351,3.72,3.72,0,0,0-.2.494,1.508,1.508,0,0,1-.456.754,1.228,1.228,0,0,0-.058.259,2.072,2.072,0,0,1-.646,1.233.864.864,0,0,0-.226.382,2.665,2.665,0,0,1-.406,1.054,2.593,2.593,0,0,0-.2.353,1.709,1.709,0,0,1-.292.943,3.682,3.682,0,0,1-.224.3,1.236,1.236,0,0,1-.456.97q-.008.028-.016.068l-.04.187-.113.154a2.254,2.254,0,0,0-.2.364,1.453,1.453,0,0,0-.094.484l-.012.164-.068.149c-.069.15-.152.343-.247.572a1.471,1.471,0,0,1-1.162.9,1.946,1.946,0,0,1-.3.023h-.013A1.953,1.953,0,0,1,925.631,104.483Zm-30.085-2.2-.255-.669a1.6,1.6,0,0,1,.107-1.316,1.994,1.994,0,0,1,1.072-.957,3.1,3.1,0,0,1,.987-.28c.221-.023.434-.051.631-.082a9.932,9.932,0,0,1,1.045-.183,1.269,1.269,0,0,0,.327-.071,7.324,7.324,0,0,1,.974-.266,5.49,5.49,0,0,1,.551-.12,3.3,3.3,0,0,1,.477-.043,2.454,2.454,0,0,1,.762-.242,2.111,2.111,0,0,1,.617-.146c.14-.011.339-.021.608-.029a3.024,3.024,0,0,1,1.319-.346c.077-.029.153-.059.224-.09a7.806,7.806,0,0,1,.594-.923,2.456,2.456,0,0,1,.259-.81l.008-.014a3.678,3.678,0,0,1,.465-.659l.068-.507a2.558,2.558,0,0,1,.409-.946,1.387,1.387,0,0,0,.174-.384,1.576,1.576,0,0,1,.266-.913,4.19,4.19,0,0,0,.221-.4,1.363,1.363,0,0,0,0-.249,1.514,1.514,0,0,1,.082-.765,2.286,2.286,0,0,1,.134-.915,4.013,4.013,0,0,0,.046-.934,2.716,2.716,0,0,0-.128-.5,1.119,1.119,0,0,0-.274-.175l-.007,0c-.29-.148-.512-.266-.676-.36a2.347,2.347,0,0,0-.477-.024,5.822,5.822,0,0,0-.7.04l-.023,0a2.545,2.545,0,0,1-.859.026c-.267.086-.373.13-.408.145a1.506,1.506,0,0,1-.836.122,2.3,2.3,0,0,1-.756.185,2.458,2.458,0,0,1-.664.086l-.014,0a.684.684,0,0,0-.127.036,2.243,2.243,0,0,1-.7.14,1.315,1.315,0,0,1-.679.31,1.928,1.928,0,0,1-.46.013c-.058,0-.1.006-.131.01a1.794,1.794,0,0,1-.895.362l-.037.005a1.4,1.4,0,0,1-.565.19,2.771,2.771,0,0,1-.636.3,3.237,3.237,0,0,0-.52.35,1.343,1.343,0,0,1-.928.549,2.236,2.236,0,0,1-.509.018,1.86,1.86,0,0,1-1.237-.47,2.321,2.321,0,0,1-.473-.777,1.906,1.906,0,0,1-.1-1.139,3.128,3.128,0,0,1,.32-.821c.232-.416.708-.721,1.7-1.088l.045-.016.047-.012a1.889,1.889,0,0,0,.3-.093,1.353,1.353,0,0,1,.517-.183,2.548,2.548,0,0,1,.385-.029,3.261,3.261,0,0,1,.81-.31,5.96,5.96,0,0,1,1.381-.378c.5-.155,1.131-.31,1.923-.472s1.534-.312,2.212-.445l.016,0,.015,0a13.058,13.058,0,0,1,1.664-.145,11.242,11.242,0,0,1,2.048.085l.057.01c.431.088.737.155.935.205a3.071,3.071,0,0,1,.891.408,5.371,5.371,0,0,1,.8.617,3.737,3.737,0,0,1,.64.769,2.964,2.964,0,0,1,.352,1.154,1.55,1.55,0,0,1,.171.715.667.667,0,0,0,.032.206,2.369,2.369,0,0,1,.1.823,6.089,6.089,0,0,1-.189,2.1,13.994,13.994,0,0,1-.423,1.445c-.076.193-.154.383-.231.568a3.412,3.412,0,0,1-.4,1.2,1.9,1.9,0,0,0-.14.45,4.332,4.332,0,0,1-.241.869c-.073.185-.165.392-.274.618a2.263,2.263,0,0,1,.236-.027,1.533,1.533,0,0,1,1.082.424,1.828,1.828,0,0,1,.6,1.369,1.491,1.491,0,0,1-.741,1.5,4.209,4.209,0,0,1-1.067.37l-.059.011c-.247.04-.518.068-.8.086-.163.01-.384.035-.661.074a2.08,2.08,0,0,1-.652.542,2.646,2.646,0,0,1-.953.291,3.891,3.891,0,0,1-.71.012,1.209,1.209,0,0,1-.708-.322,10.573,10.573,0,0,0-1.274.227c-.478.122-.9.225-1.246.305a3.13,3.13,0,0,1-.817.259c-.081.013-.162.021-.24.025a.939.939,0,0,0-.359.1l-.021.009a4.587,4.587,0,0,1-.734.276,2.737,2.737,0,0,1-.624.078.611.611,0,0,0-.1.056,2.325,2.325,0,0,1-.836.33,2.036,2.036,0,0,1-.733.315c-.221.048-.482.1-.777.161l-.071.013a1.6,1.6,0,0,1-.251.02A1.357,1.357,0,0,1,895.546,102.286Zm64.931-6.5a1.99,1.99,0,0,1-.738-.941,1.934,1.934,0,0,1-.087-1.024,2.2,2.2,0,0,1,.59-1.062c.172-.19.346-.391.517-.6a4.255,4.255,0,0,1,.537-.929,6.785,6.785,0,0,0,.4-.562,2.552,2.552,0,0,1,.556-.688c.2-.461.433-.933.682-1.408a8.093,8.093,0,0,0,.608-1.554c.081-.33.176-.661.284-.983a2.84,2.84,0,0,0,.136-.749l0-.047c.083-.778.1-1.119.1-1.266a2.473,2.473,0,0,0-.05-.5c-.041-.19-.1-.434-.167-.724a10.454,10.454,0,0,0-.768-1.674,4.273,4.273,0,0,0-.921-1.118,8.524,8.524,0,0,0-.886-.541l-.1-.054-.085-.076a.551.551,0,0,0-.249-.146,1.8,1.8,0,0,1-.674-.223l-.045.016a1.384,1.384,0,0,1-.535.1,1.386,1.386,0,0,1,.387.458,4.246,4.246,0,0,1,.341,1.147,6.317,6.317,0,0,1,.048,1.74,4.3,4.3,0,0,1-.157,1.134c-.063.2-.14.469-.23.807a6.472,6.472,0,0,1-.691,1.536c-.31.531-.61,1.03-.895,1.48a18.584,18.584,0,0,1-1.4,1.866,26.472,26.472,0,0,1-2.01,2.166,7.44,7.44,0,0,1-2.621,1.644,2.667,2.667,0,0,1-.989.251,7.413,7.413,0,0,1-.774-.006,2.9,2.9,0,0,1-1.072-.3,4.839,4.839,0,0,1-1.364-.949,3.494,3.494,0,0,1-.99-1.778,10.7,10.7,0,0,1-.253-1.724V88.48c-.019-.566-.015-.758-.012-.853a5.672,5.672,0,0,1,.061-.591c.033-.226.087-.511.164-.87a14.146,14.146,0,0,1,.574-1.778,2.612,2.612,0,0,1,.529-1.1,1.285,1.285,0,0,0,.064-.178,1.494,1.494,0,0,1,.323-.719,1.435,1.435,0,0,1,.57-.791.342.342,0,0,0,.082-.1,2.055,2.055,0,0,1,.457-.491,18.581,18.581,0,0,0,1.349-1.5,1.858,1.858,0,0,0,.3-.346l.076-.1.1-.079,1.035-.8a6.174,6.174,0,0,1,1.464-.856,2.941,2.941,0,0,1,.846-.457,10.724,10.724,0,0,1,2.751-.877l.011,0c.427-.094.825-.17,1.183-.227A6.645,6.645,0,0,1,961,75.695l.017,0c.641.131,1.048.22,1.246.269a3.511,3.511,0,0,1,1.1.59,3.4,3.4,0,0,1,.82.5,10.825,10.825,0,0,1,.951,1c.138.14.3.3.473.464a1.888,1.888,0,0,1,.58.85c.022.077.051.193.091.351a2,2,0,0,1,.5.989,3.782,3.782,0,0,0,.1.4,1.54,1.54,0,0,1,.328,1.017,2.788,2.788,0,0,1,.262,1.074c.013.279.04.554.079.819a1.531,1.531,0,0,1-.081,1.3,1.123,1.123,0,0,0-.035.157,3.07,3.07,0,0,1-.221.737c0,.214-.007.365-.013.468a1.884,1.884,0,0,1-.427.984l-.044.061a2.029,2.029,0,0,1-.211.738,3.16,3.16,0,0,1-.381.878,4.769,4.769,0,0,1-.737,1.706,4.007,4.007,0,0,1-.68,1.451l-.021.028-.023.026a.608.608,0,0,0-.091.131c-.034.142-.077.348-.129.614l-.049.248-.17.186a1.248,1.248,0,0,0-.16.221,2.483,2.483,0,0,1-.317.434,3.782,3.782,0,0,1-.323.7,1.638,1.638,0,0,1-.952.641,2.736,2.736,0,0,1-.584.3,1.476,1.476,0,0,1-.262.068,1.356,1.356,0,0,1-.212.017A1.606,1.606,0,0,1,960.477,95.785ZM955.06,80.511a14.187,14.187,0,0,0-2.255,1.946,9.79,9.79,0,0,0-2.074,3.217,2.481,2.481,0,0,1-.227.908,1.454,1.454,0,0,1-.233.713,2.764,2.764,0,0,1-.046.559,1.482,1.482,0,0,1,.2.632c.011.14.014.315.013.532.038.086.066.143.086.178a1.177,1.177,0,0,1,.346.383c.1.021.188.044.278.069l.085-.013a1.343,1.343,0,0,0,.19-.041,2.683,2.683,0,0,1,.526-.236,2.806,2.806,0,0,1,.709-.43c.236-.281.345-.421.4-.491a1.675,1.675,0,0,1,.638-.535,2.29,2.29,0,0,1,.784-.768,9.537,9.537,0,0,0,.859-1.209c.378-.607.643-1.05.788-1.32a7.6,7.6,0,0,0,.468-1.437c.043-.291.1-.578.159-.855a3.6,3.6,0,0,0-.061-.444.882.882,0,0,0-.107-.241,2.4,2.4,0,0,1-.309-1.082,1.807,1.807,0,0,1,.094-.715A10.291,10.291,0,0,0,955.06,80.511Zm34.319,15.453a1.862,1.862,0,0,1-1.157-.776,2.017,2.017,0,0,1-.13-1.621,2.424,2.424,0,0,1,1.748-1.615,11.432,11.432,0,0,0,1.3-.812c.475-.34.919-.645,1.32-.907a41.051,41.051,0,0,0,3.922-4.288,12.105,12.105,0,0,0,2.078-3.159,4.351,4.351,0,0,0,.26-1.118,1.8,1.8,0,0,1,.181-.95,3.467,3.467,0,0,0-.1-.715c-.176-.26-.388-.569-.632-.918a3.47,3.47,0,0,0-.825-.816,1.523,1.523,0,0,1-.481-.3,1.956,1.956,0,0,1-.671-.267c-.465-.042-.922-.1-1.364-.174a3.835,3.835,0,0,0-1.234,0l-.21.033-.2-.065a.815.815,0,0,0-.445-.024c-.153.038-.3.071-.451.1-.227.474-.394.809-.51,1.018-.145.265-.4.67-.764,1.237-.707,1.27-1.4,2.4-2.056,3.37a21.766,21.766,0,0,1-1.642,2.184l-.131.148.122.019a2.337,2.337,0,0,1,1.3.606l.045.041.039.046a2.48,2.48,0,0,1,.545,1.088,1.51,1.51,0,0,1-.209,1.184,1.4,1.4,0,0,1-1.139.973,1.922,1.922,0,0,1-.548,0l-.086-.012-.083-.028a6.015,6.015,0,0,1-1.553-.688,3.746,3.746,0,0,0-.534-.323c-.13-.064-.276-.144-.44-.243a4.1,4.1,0,0,1-.524.368,2.15,2.15,0,0,0-.482.38L983.6,89l-.059.046a7.612,7.612,0,0,0-.682.578l-.141.137-.186.066a1.832,1.832,0,0,0-.469.237,2.627,2.627,0,0,1-1.127.444l-.188.03-.017,0-.059.063-.188.075a1.932,1.932,0,0,1-1.043.105,2.51,2.51,0,0,1-1.072-.138,2.654,2.654,0,0,1-1.592-.618,5.082,5.082,0,0,1-.777-.646l-.207-.207-.046-.289a.1.1,0,0,0-.025-.063,1.659,1.659,0,0,1-.383-.8,3.116,3.116,0,0,1-.32-1.464c.013-.4.032-.8.056-1.214a3.579,3.579,0,0,1,.343-1.337,1.561,1.561,0,0,1,.563-1.02,1.057,1.057,0,0,0,.04-.134,6.6,6.6,0,0,1,.8-1.354l.274-.253a2.511,2.511,0,0,1,.986-1,3.271,3.271,0,0,1,.73-.8,6.251,6.251,0,0,1,.816-.509q.356-.235.742-.491a9.825,9.825,0,0,1,.852-.508,7.268,7.268,0,0,1,.793-.488c.028-1.131.049-2.17.064-3.093.013-.82.078-1.872.194-3.14a6.761,6.761,0,0,1-.952.3,3.4,3.4,0,0,1-.921.314,1.466,1.466,0,0,1-.784-.071,5.2,5.2,0,0,1-.616-.292l-.159-.091-.111-.146a1.834,1.834,0,0,1-.365-1.653,2.319,2.319,0,0,1,.583-1.058l.034-.034.039-.03a2.5,2.5,0,0,1,1.551-.614c.1,0,.164,0,.2,0a1.406,1.406,0,0,1,.359-.1,3.26,3.26,0,0,1,.413-.034,4.907,4.907,0,0,1,.624-.16,5.232,5.232,0,0,1,.5-.223,4.337,4.337,0,0,1,.358-.9,6.216,6.216,0,0,0,.313-.625l.041-.094.06-.083a2.1,2.1,0,0,1,1.391-.866q.074-.012.151-.019a2.253,2.253,0,0,1,1.158.118,2.191,2.191,0,0,1,.869.9l.134.214v.044l.1-.032a12.58,12.58,0,0,0,1.354-.513l.037-.015c.308-.119.653-.269,1.028-.446a2.885,2.885,0,0,1,.779-.259,1.419,1.419,0,0,1,.856.107,1.928,1.928,0,0,1,.862.887A1.95,1.95,0,0,1,992,67.569l-.03.056-.038.052a1.807,1.807,0,0,1-.624.563,3.783,3.783,0,0,0-.385.256l-.144.1-.174.041c-.633.148-1.272.318-1.9.5s-1.217.385-1.779.607c-.386.151-.73.273-1.038.367-.11.5-.222,1.066-.337,1.7a18.282,18.282,0,0,0-.279,2.425c-.021.49-.033,1.063-.035,1.709.658-.217,1.264-.4,1.81-.543.832-.218,1.478-.39,1.922-.51.259-.07.5-.13.724-.178a1.755,1.755,0,0,0,.073-.269l.011-.052a8.049,8.049,0,0,1,.394-1.234,5.159,5.159,0,0,1,.116-.763l.016-.07.026-.067a6.008,6.008,0,0,0,.249-.79,2.075,2.075,0,0,1,1.208-1.386l.117-.056.129-.021a2.62,2.62,0,0,1,1.355.131,1.639,1.639,0,0,1,1.055,1.39,2.6,2.6,0,0,1-.109,1.238,2.221,2.221,0,0,1-.536.81c-.082.2-.166.381-.249.548a4.176,4.176,0,0,1,.9.045,7.571,7.571,0,0,0,.835.047,1.86,1.86,0,0,1,.94.2c.026,0,.061-.006.105-.014l.041-.006.04,0a2.473,2.473,0,0,1,1.24.24,7.975,7.975,0,0,0,.741.305l.122.043.105.076c.427.31.846.62,1.247.922a5.1,5.1,0,0,1,1.29,1.48,11.52,11.52,0,0,1,.842,1.722l.035.09.015.1c.07.442.118.875.143,1.286a3.617,3.617,0,0,1-.217,1.466,5.87,5.87,0,0,0-.149.8,2.383,2.383,0,0,1-.511,1.235,3.319,3.319,0,0,1-.664,1.119,25.955,25.955,0,0,1-4.5,5.609,11.793,11.793,0,0,1-1.835,2.018,3.587,3.587,0,0,1-.87.75,3.288,3.288,0,0,1-.56.637,2.091,2.091,0,0,1-.729.421,2.3,2.3,0,0,1-.625.654c-.236.16-.478.311-.718.446a1.8,1.8,0,0,1-.888.226A2.23,2.23,0,0,1,989.379,95.964Zm-7.672-14.39-.006,0c-.572.464-1.039.846-1.389,1.135a9.47,9.47,0,0,0-1.084,1.122c-.107.2-.213.388-.317.558-.122.2-.238.376-.344.524a.283.283,0,0,0-.049.108c-.034.14-.078.3-.131.476,0,.168-.012.374-.029.623a1.52,1.52,0,0,0,.164.672.92.92,0,0,0,.33.318,2.241,2.241,0,0,0,1.131.083,3.5,3.5,0,0,0,.837-.266,1.626,1.626,0,0,0,.379-.291l.09-.093.113-.064a8.874,8.874,0,0,0,.881-.564,6.858,6.858,0,0,0,.675-.607,4.611,4.611,0,0,1-.159-.44,5.777,5.777,0,0,0-.3-.764l-.074-.159-.009-.175a15.852,15.852,0,0,0-.15-1.626c-.038-.241-.071-.545-.1-.919A5.2,5.2,0,0,0,981.707,81.574Zm6.224-3.04c-.21.079-.418.148-.622.206a.889.889,0,0,0-.3.164l-.209.164-.265.024a1.7,1.7,0,0,0-.663.188c-.177.094-.376.2-.593.3.023.914.069,1.651.136,2.193q.038.313.11.667c.047-.045.1-.089.149-.133.351-.41.684-.792.993-1.142a1.994,1.994,0,0,1,.553-.921,1.334,1.334,0,0,1,.364-.673,3.811,3.811,0,0,0,.282-.317.326.326,0,0,0,.023-.1,1.653,1.653,0,0,1,.222-.658C988.053,78.51,987.992,78.522,987.931,78.534Zm23.892,9.617a4.074,4.074,0,0,1-1.468-1.781l-.023-.052-.016-.055a3.926,3.926,0,0,1-.221-1.56,6.377,6.377,0,0,1,.228-1.044,3.174,3.174,0,0,1,1.076-1.465,8.216,8.216,0,0,1,2.5-1.511,15.758,15.758,0,0,1,3.1-.91c.681-.125,1.354-.267,2.011-.424-.034-.134-.071-.271-.112-.409a3.326,3.326,0,0,0-.484-1,2.529,2.529,0,0,0-.633-.648,3.888,3.888,0,0,0-.9-.416,6,6,0,0,0-1.068-.257c-.346-.047-.706-.087-1.073-.121-.272.02-.532.038-.773.053a2.84,2.84,0,0,1-1.184-.192,2.46,2.46,0,0,1-1.01-.674,1.808,1.808,0,0,1-.356-1.532,2.541,2.541,0,0,1,.47-1.217,2.787,2.787,0,0,1,.63-.6c.135-.09.339-.236.607-.434a6.586,6.586,0,0,1,.866-.543,1.631,1.631,0,0,1,.979-.528,1.243,1.243,0,0,0,.152-.074c.157-.183.334-.377.528-.581a4.706,4.706,0,0,1,.711-.609,2.6,2.6,0,0,1,.65-.648,1.9,1.9,0,0,0,.472-.5c.169-.261.3-.481.4-.656a.983.983,0,0,0,.106-.348A1.308,1.308,0,0,0,1018,67.2a1.308,1.308,0,0,0-.174-.068c-.229-.061-.489-.132-.77-.21a2.519,2.519,0,0,0-.652-.091c-.29,0-.8.005-1.528.021a3.888,3.888,0,0,0-1.606.364,1.556,1.556,0,0,0-.4.3,3.264,3.264,0,0,1-.582.83,1.639,1.639,0,0,1-.937.523,1.439,1.439,0,0,1-.368.01,3.014,3.014,0,0,1-.9-.255,1.509,1.509,0,0,1-.894-1.394,2.391,2.391,0,0,1,.466-1.453,4.715,4.715,0,0,1,.891-.976l.005-.005a5.772,5.772,0,0,1,1.451-.814,5.238,5.238,0,0,1,1.125-.336,2.522,2.522,0,0,1,.431-.034,1.373,1.373,0,0,0,.2-.02,5.849,5.849,0,0,0,.856-.224l.111-.036.117-.007a2.582,2.582,0,0,1,1,.157c.164-.014.312-.032.443-.052a2.053,2.053,0,0,1,.984.1,2.165,2.165,0,0,1,1.273.158c.213.105.4.191.556.257a7.158,7.158,0,0,1,.8.41,2.967,2.967,0,0,1,1.08,1.138l.022.039.018.041c.157.353.277.628.359.821a2.711,2.711,0,0,1,.148,1.269,3.816,3.816,0,0,1-.276,1.244,4.39,4.39,0,0,1-.878,1.213c-.689.769-1.138,1.261-1.371,1.5s-.567.562-.985.932l-.911.805a1.836,1.836,0,0,1,.586.336,2.094,2.094,0,0,1,.938.337c.121.088.262.181.42.277a5.161,5.161,0,0,1,.723.542,4.4,4.4,0,0,1,.578.6,2.352,2.352,0,0,1,.843.981,1.146,1.146,0,0,0,.086.08l.1.08.071.105a8.855,8.855,0,0,1,.653,1.09,3.53,3.53,0,0,1,.327.984c0,.027.008.055.013.084.21-.013.389-.019.539-.017a2.677,2.677,0,0,0,.424-.042c.22-.035.49-.09.806-.163l.06-.014.062-.005a6.1,6.1,0,0,1,1.282.017,2.524,2.524,0,0,1,1.437.67,1.4,1.4,0,0,1,.335,1.841,3.444,3.444,0,0,1-.645.763,1.51,1.51,0,0,1-.764.358,1.716,1.716,0,0,1-.72-.046,2.989,2.989,0,0,0-.385-.088c-.05,0-.211-.01-.69-.018-.565.088-.964.145-1.216.172l-.608.069a2.562,2.562,0,0,1-.154.533,4.419,4.419,0,0,1-.487.8c-.165.228-.337.454-.512.674a1.466,1.466,0,0,1-.7.952,3.869,3.869,0,0,1-.5.708,3.413,3.413,0,0,1-1.109.8,4.907,4.907,0,0,1-1.243.809,1.686,1.686,0,0,1-1.045.432,2.592,2.592,0,0,1-.627.391,2.255,2.255,0,0,1-1.033.175c-.243-.013-.45-.03-.632-.054a1.182,1.182,0,0,0-.185.08l-.176.092-.2.009-.123,0A3.3,3.3,0,0,1,1011.823,88.151Zm3.877-4.822c-.173.059-.334.117-.481.172a1.59,1.59,0,0,1-.762.525c-.045.041-.115.109-.215.218l-.014.014c-.246.253-.482.508-.7.756a.507.507,0,0,0,.028.117c.02.057.046.132.22.194a5.937,5.937,0,0,0,1.175-.058,3.376,3.376,0,0,0,1.5-.59,11.287,11.287,0,0,0,2.063-1.963c.01-.026.021-.051.031-.076-.049,0-.1,0-.15,0a.89.89,0,0,0-.156.013,2.394,2.394,0,0,0-.37.1,1.839,1.839,0,0,1-.907.266,1.48,1.48,0,0,1-.924.241h-.006A1.146,1.146,0,0,0,1015.7,83.328Zm32.645,1.713a1.721,1.721,0,0,1-.694-1.816,1.789,1.789,0,0,1,1.275-1.512,3.059,3.059,0,0,0,.706-.3c.255-.155.537-.322.841-.5a6.936,6.936,0,0,0,1-.7,8,8,0,0,0,.789-.764c.229-.26.553-.664.964-1.2a6.237,6.237,0,0,0,.853-1.463c.268-.671.381-.988.428-1.136a4.172,4.172,0,0,1,.245-.622c0-.023-.01-.055-.02-.1l-.084-.341.126-.229a1.227,1.227,0,0,1-.061-.744l-.14-.2.051-.357c.009-.065.014-.113.016-.148a3.779,3.779,0,0,1-.232-.516,2.717,2.717,0,0,1-.657-.547.335.335,0,0,0-.146-.073,3.713,3.713,0,0,1-.8-.347,3.959,3.959,0,0,1-1-.291c-.049.01-.1.019-.144.026a1.748,1.748,0,0,1-.888-.052,2.067,2.067,0,0,1-.221.049,2.362,2.362,0,0,1-.707,0c-.573.066-1.1.106-1.58.12a6.978,6.978,0,0,1-1.393.415l-.113.016-.112.015a1.256,1.256,0,0,0-.379.1c-.211.115-.409.215-.589.3s-.346.155-.49.208a1.866,1.866,0,0,1-.7.1,4.067,4.067,0,0,1-.794.342,1.947,1.947,0,0,1-.589.4c-.053.023-.131.06-.242.119-.077.613-.091.845-.092.932a1.73,1.73,0,0,1-.267.945,2.108,2.108,0,0,1-.107.83,1.277,1.277,0,0,1-.125.822,1.588,1.588,0,0,1-.151.842c-.07.138-.179.366-.322.678l-.022.045c-.089.17-.185.371-.287.6a1.752,1.752,0,0,1-.5,1.192c-.014.014-.068.068-.193.219a1.877,1.877,0,0,1-.9.947c-.243.185-.49.36-.736.523s-.516.338-.779.506a2.968,2.968,0,0,1-1.139.39c-.162.026-.34.046-.528.059l-.039,0a4,4,0,0,1-2.084-.513,2.923,2.923,0,0,1-1.4-1.543,3.828,3.828,0,0,1-.244-1.582,9.494,9.494,0,0,1,.243-1.473,4.92,4.92,0,0,1,.919-1.852c.391-.507.715-.914.964-1.211a8.666,8.666,0,0,1,1.092-1.057c.383-.319.722-.59,1.006-.81a2.755,2.755,0,0,1,1.031-.691,2.512,2.512,0,0,0,.412-.31,2.624,2.624,0,0,1,.724-.512,2,2,0,0,0,.219-.128c0-.041-.01-.074-.014-.1a1.985,1.985,0,0,1,.019-.737,1.466,1.466,0,0,1,.058-.942,1.664,1.664,0,0,1-.094-.687l-.168-.266.072-.355a2.039,2.039,0,0,0,.044-.32,1.419,1.419,0,0,1-.028-1.148.041.041,0,0,1,0,0,2.85,2.85,0,0,1-.1-.905,11.144,11.144,0,0,0-.086-1.154,3.065,3.065,0,0,1-.542.211,2.167,2.167,0,0,0-.429.246,3.408,3.408,0,0,1-.495.838,1.453,1.453,0,0,1-.9.477,2.376,2.376,0,0,1-.647.006,2.041,2.041,0,0,1-1.555-1.04,1.942,1.942,0,0,1-.054-1.975,2.168,2.168,0,0,1,1.086-1.134c.324-.155.707-.327,1.14-.51.393-.167.742-.334,1.039-.495l.049-.027L1038,61.1c.223-.088.445-.17.658-.244l.023-.008c-.019-.14-.033-.26-.044-.363A2.215,2.215,0,0,1,1039,59.13a2.125,2.125,0,0,1,1.575-1.013l.21-.033.2.064c.329.1.611.2.836.284a1.528,1.528,0,0,1,.941.886c.013.032.023.066.034.1l.116-.055a6.29,6.29,0,0,1,1.562-.529l.062-.011a1.712,1.712,0,0,1,1.845.909,2.175,2.175,0,0,1,.346,1.5l-.009.041a1.683,1.683,0,0,1-.886,1.051,2.266,2.266,0,0,1-.736.272,1.428,1.428,0,0,1-.459,0,.611.611,0,0,0-.155.011l-.087.016a.815.815,0,0,0-.283.112,1.959,1.959,0,0,1-.8.3,3.124,3.124,0,0,1-.362.035,2.037,2.037,0,0,0-.246.085,3.032,3.032,0,0,1-.063.394c0,.1,0,.486.112,1.8.107,1.229.179,2.248.213,3.028.016.361.028.736.034,1.123l.045-.007a4.164,4.164,0,0,0,.583-.118c.112-.037.26-.1.441-.18a3.575,3.575,0,0,1,.933-.275.639.639,0,0,0,.272-.1l.12-.086.141-.043a19.458,19.458,0,0,1,2.627-.6c.221-.035.446-.067.67-.094a14.769,14.769,0,0,1,3.418-.022,7.906,7.906,0,0,1,3.018.917,1.938,1.938,0,0,1,.881.6,1.53,1.53,0,0,1,.787.733,1.5,1.5,0,0,0,.2.308,3.129,3.129,0,0,1,.472.772,8.473,8.473,0,0,1,.354,1.021l.013.05a7.766,7.766,0,0,1,.145,1.685,7.324,7.324,0,0,1-.4,2.293,14.144,14.144,0,0,1-1,2.286l-.024.041c-.358.582-.717,1.16-1.068,1.716A7.429,7.429,0,0,1,1054.247,82a2.757,2.757,0,0,1-.693.936,7.3,7.3,0,0,1-.672.492.592.592,0,0,0-.085.064,1.322,1.322,0,0,1-.707.661,3.152,3.152,0,0,1-.912.7c-.2.093-.364.167-.473.22a5.007,5.007,0,0,1-.746.263,2,2,0,0,1-.227.05,1.8,1.8,0,0,1-.279.022A1.943,1.943,0,0,1,1048.345,85.041Zm-9.639-9.207a4.321,4.321,0,0,1-.768.666.882.882,0,0,0-.191.171,1.02,1.02,0,0,0-.162.244,5.331,5.331,0,0,1-.649.973c-.147.335-.283.65-.4.938a1.1,1.1,0,0,0-.077.3.489.489,0,0,0,.1-.02c.2-.065.51-.172.911-.319a3.206,3.206,0,0,0,.735-.684,7.338,7.338,0,0,0,.536-.937,4.814,4.814,0,0,0,.373-1.29l.073-.44A3.731,3.731,0,0,0,1038.706,75.834Zm34.031.231-.23-.039-.183-.145a2.421,2.421,0,0,0-.689-.4,2.448,2.448,0,0,1-1.144-.824c-.375-.359-.71-.7-1-1.018a4.016,4.016,0,0,1-.756-1.191,1.711,1.711,0,0,0-.207-.215,1.4,1.4,0,0,1-.728-1.27.533.533,0,0,0-.054-.075,2.558,2.558,0,0,1-.425-.741,1.639,1.639,0,0,1-.44-.9.816.816,0,0,0-.071-.1l-.144-.184-.036-.23a4.86,4.86,0,0,0-.117-.545,3.337,3.337,0,0,1-.122-.594c0-.007-.011-.017-.019-.028a2.676,2.676,0,0,1-.347-.625,4.121,4.121,0,0,1-.174-.751,4.438,4.438,0,0,1-.337-.951,7.3,7.3,0,0,1-.166-.922c-.017-.176-.039-.349-.064-.514-.068-.265-.133-.6-.2-1.025a4.276,4.276,0,0,1-.06-1.205,3.845,3.845,0,0,1,.176-.767,1.933,1.933,0,0,1,.85-.97,2.264,2.264,0,0,1,.866-.329,2.334,2.334,0,0,1,.556-.021,1.522,1.522,0,0,1,1.386,1,2.541,2.541,0,0,1,0,1.513,4.7,4.7,0,0,0,.014,1.092,7.766,7.766,0,0,0,.283,1.586l.032.108,0,.113a2.931,2.931,0,0,0,.2,1.116,2.645,2.645,0,0,1,.337,1.067,3.534,3.534,0,0,0,.182.462,14.273,14.273,0,0,1,.68,1.354,15.618,15.618,0,0,0,.863,1.639,9.014,9.014,0,0,0,.957,1.312,9.092,9.092,0,0,1,.814.779,2.875,2.875,0,0,0,.294.184,2.164,2.164,0,0,0,.19-.13,5,5,0,0,1,.776-.984,4.316,4.316,0,0,1,.2-.555,3.1,3.1,0,0,1,.474-.687,2.257,2.257,0,0,1,.47-.9,5.368,5.368,0,0,1,.442-.666s.006-.009.009-.032a1.354,1.354,0,0,1,.525-.95c.135-.26.277-.538.422-.829l.016-.033.02-.032c.212-.351.4-.664.55-.931a4.7,4.7,0,0,1,.65-.892,1.644,1.644,0,0,1,.937-.516,1.565,1.565,0,0,1,.552.013,2.013,2.013,0,0,1,1.176.743,1.664,1.664,0,0,1,.333,1.541,3.215,3.215,0,0,1-.39.87c-.112.168-.32.478-.62.92-.4.645-.929,1.436-1.561,2.35-.62.9-1.111,1.639-1.46,2.206-.364.592-.738,1.168-1.111,1.713l-.069.1-.094.078a4.974,4.974,0,0,1-1.191.76,2.2,2.2,0,0,1-.529.149,3.3,3.3,0,0,1-.517.038A6.011,6.011,0,0,1,1072.737,76.065Zm29.932-2.978a3.929,3.929,0,0,1-2.879-2.452,17.513,17.513,0,0,1-.763-2.331c-.1-.5-.2-1-.275-1.488-.081-.511-.152-1.322-.219-2.479-.062-1.083-.13-1.863-.2-2.319l-.006-.045,0-.044c-.031-.529-.022-1.436.023-2.774.046-1.318.172-2.8.374-4.4a4.278,4.278,0,0,0,.06-.709,2.477,2.477,0,0,1,.4-1.333,2.3,2.3,0,0,1,1.348-1.185l.061-.016c.055-.013.111-.023.166-.032a2.78,2.78,0,0,1,1.485.2l.05.023c1.174.56,1.127,1.383,1.052,1.712a2.97,2.97,0,0,1-.434,1.01c-.1.151-.2.306-.283.463-.1.447-.276,1.225-.513,2.317a2.286,2.286,0,0,1-.224,1.1c-.041.434-.083.938-.121,1.5-.055.787-.066,1.138-.064,1.292a6.65,6.65,0,0,0,.043.688,2.155,2.155,0,0,1-.118.99,5.336,5.336,0,0,1,.047,1.264c.14.75.238,1.42.292,1.993a11.805,11.805,0,0,0,.509,2.193,4.225,4.225,0,0,0,.417,1.046,5.34,5.34,0,0,0,.551.634c.031.031.088.089.31.06a2.633,2.633,0,0,0,.913-.29,14.232,14.232,0,0,0,1.7-1.264c.538-.466,1-.875,1.371-1.217a3.388,3.388,0,0,1,.832-.847,1.645,1.645,0,0,1,.791-.892l.171-.234a2.906,2.906,0,0,1,.579-.554,1.566,1.566,0,0,1,.745-.994.8.8,0,0,0,.121-.079l.006-.01a7.861,7.861,0,0,1,.573-.789c.18-.217.422-.5.719-.855a9.984,9.984,0,0,1,.765-.826,3.56,3.56,0,0,0,.472-.611l.038-.052a2.322,2.322,0,0,1,1.4-1.031,3.182,3.182,0,0,1,.969,0,1.536,1.536,0,0,1,1.234,1.112,1.493,1.493,0,0,1-.167,1.486c-.08.1-.249.292-.794.835a2.251,2.251,0,0,0-.292.364,1.5,1.5,0,0,1-.567.55,2.775,2.775,0,0,1-.631.855c-.247.227-.505.483-.769.761l-.013.014a6.232,6.232,0,0,0-.826,1,3.162,3.162,0,0,1-.855.927c-.108.134-.234.275-.383.429a3.445,3.445,0,0,0-.315.359c-.069.1-.218.287-.708.858a15.651,15.651,0,0,1-2.031,1.806,2.124,2.124,0,0,1-.9,1.036c-.242.134-.5.261-.763.378a4.459,4.459,0,0,1-.914.6,4.1,4.1,0,0,1-.847.278c-.214.046-.491.114-.824.2a1.938,1.938,0,0,1-.211.044,2.415,2.415,0,0,1-.378.029A3.993,3.993,0,0,1,1102.669,73.087Zm-15.635-2.645a1.675,1.675,0,0,1-1.111-1.255,2.431,2.431,0,0,1-.006-1.093,3.242,3.242,0,0,0,.057-.607,4.753,4.753,0,0,1,.042-1.364c-.179-.947-.215-1.217-.225-1.345a2.372,2.372,0,0,1,.077-.78,3.04,3.04,0,0,1-.239-.941,4.654,4.654,0,0,0-.229-.937l-.039-.114-.008-.12a2.545,2.545,0,0,0-.247-.773c-.2-.453-.375-.871-.524-1.245a2.357,2.357,0,0,0-.272-.551l-.1-.121-.051-.145a2.212,2.212,0,0,1-.105-1.181,2.159,2.159,0,0,1,.482-.974l.071-.085.091-.064a2.128,2.128,0,0,1,.909-.391,2.562,2.562,0,0,1,.975-.014,1.571,1.571,0,0,1,.983.893,5.163,5.163,0,0,1,.709,1.6,21.86,21.86,0,0,1,.561,2.659l.495,3.129a9.332,9.332,0,0,1,.189,1.589c.015.44.042.859.078,1.246a3.718,3.718,0,0,1,.322,1.314,1.722,1.722,0,0,1-.357,1.118,2.017,2.017,0,0,1-1.06.621,2.313,2.313,0,0,1-.63.088A2.39,2.39,0,0,1,1087.034,70.442Zm48.8-.956a3.689,3.689,0,0,1-1.691-.594l-.069-.04-.061-.051c-.215-.179-.457-.4-.719-.643a16.114,16.114,0,0,0-1.522-1.146c-.842-.59-1.719-1.249-2.6-1.958a14.7,14.7,0,0,1-1.617-1.382c-.106-.124-.256-.282-.446-.468a3.7,3.7,0,0,1-.7-.978,2.087,2.087,0,0,1-.205-1.429,1.862,1.862,0,0,1,1.107-1.4,3.967,3.967,0,0,1,1.075-.289c.251-.027.512-.05.775-.068a8.7,8.7,0,0,0,1.439-.421c.464-.233.815-.426,1.044-.571a7.054,7.054,0,0,0,.94-.8,9.183,9.183,0,0,0,.719-.724,7.047,7.047,0,0,0,.376-.689,2.679,2.679,0,0,1,.331-.854,1.852,1.852,0,0,0,.111-.614,3.891,3.891,0,0,1,0-.928,1.2,1.2,0,0,0-.08-.447L1134,52.9l-.008-.1a1.32,1.32,0,0,0-.127-.516,5.132,5.132,0,0,1-.36-.835c-.008-.024-.018-.054-.031-.088-.7.209-1.207.365-1.5.466a3.487,3.487,0,0,0-.716.311,1.858,1.858,0,0,1-.964.29,1.3,1.3,0,0,1-.57.249,1.083,1.083,0,0,1-.31,0,2.724,2.724,0,0,1-.545.316,2.1,2.1,0,0,1-.519.148,2.974,2.974,0,0,1-.479.036,1.923,1.923,0,0,1-.905.283,2.193,2.193,0,0,1-1.02.571c-.061.009-.222.04-.625.131-.44.167-.775.286-1.022.364a6.229,6.229,0,0,1-.891.207,8.942,8.942,0,0,0-.995.247,3.249,3.249,0,0,1-1.53.449,2.228,2.228,0,0,1-1.743-.6,1.874,1.874,0,0,1-.617-1.491,1.827,1.827,0,0,1,.522-1.223,1.982,1.982,0,0,1,1.1-.533,7.024,7.024,0,0,1,.806-.084c.221-.009.421-.014.594-.014a.929.929,0,0,0,.131-.013,2.293,2.293,0,0,0,.226-.049,4.4,4.4,0,0,1,.786-.135c.7-.208,1.212-.342,1.556-.41.305-.06.917-.211,1.82-.451,1.735-.553,3.074-.979,4.093-1.3.732-.232,1.494-.48,2.277-.74l-.056-.106a10.777,10.777,0,0,1-.536-1.166,3.629,3.629,0,0,1-.446-1.4,2.568,2.568,0,0,1-.058-1.27,1.553,1.553,0,0,1,.677-1.066c.139-.083.332-.184.591-.308l.223-.108.246.022a4.067,4.067,0,0,1,.769.142,3.182,3.182,0,0,1,.7.286,1.393,1.393,0,0,1,.667,1.279c0,.232,0,.539-.015.934.067.12.132.247.2.38a2.012,2.012,0,0,1,.189.94c.042.112.084.222.125.33.093-.021.184-.038.274-.052s.185-.026.275-.033l.048,0h.006a.1.1,0,0,0,.031-.018,2.239,2.239,0,0,1,.868-.389,2.173,2.173,0,0,1,.734-.273.678.678,0,0,0,.211-.088,2.3,2.3,0,0,1,.85-.275,4.95,4.95,0,0,1,1.031-.337,1.8,1.8,0,0,1,.832-.356,2.228,2.228,0,0,1,.715-.361c.043-.011.186-.053.579-.2a2.509,2.509,0,0,1,1.419-.141,2.308,2.308,0,0,1,1.324.71,1.644,1.644,0,0,1,.459,1.495,1.5,1.5,0,0,1-1.042,1.13c-.254.08-.557.161-.925.246a3.467,3.467,0,0,1-.822.189,1.076,1.076,0,0,0-.3.082,2.222,2.222,0,0,1-.668.161,3.179,3.179,0,0,1-1.254.433,2.494,2.494,0,0,0-.274.113,2.2,2.2,0,0,1-.747.2,8.261,8.261,0,0,1-.838.287c-.272.076-.563.175-.867.292l-.053.018c-.246.078-.513.159-.8.244.049.161.1.343.139.541a5.112,5.112,0,0,0,.149.537,4.731,4.731,0,0,1,.192.778c.031.193.1.554.207,1.072l.02.1,0,.1c-.009.6-.024,1.033-.046,1.32a5.713,5.713,0,0,1-.146.917c-.062.252-.133.532-.211.833a2.2,2.2,0,0,1-.579,1.078l0,.005a1.406,1.406,0,0,1-.422.631,1.4,1.4,0,0,1-.564.879.726.726,0,0,0-.154.15,9.046,9.046,0,0,1-.738.771,4.141,4.141,0,0,1-1.075.783,3.6,3.6,0,0,1-.794.5c-.1.039-.328.132-.687.279-.323.192-.543.32-.672.391a2.689,2.689,0,0,1-.328.152,4.8,4.8,0,0,0,.44.342,9.64,9.64,0,0,1,1.226.934,1.344,1.344,0,0,0,.446.253l.289.112.158.266a.51.51,0,0,0,.056.078,1.937,1.937,0,0,1,.8.654c.31.105.712.249,1.218.436l.145.053.12.1a3.009,3.009,0,0,0,.662.471,1.432,1.432,0,0,1,.945,1.035,3.691,3.691,0,0,1,.075.907,1.612,1.612,0,0,1-.579,1.283,1.869,1.869,0,0,1-1.2.378Zm-78.58-2.479a9.32,9.32,0,0,1-.815-.732,20.19,20.19,0,0,1-1.927-2.1,6.14,6.14,0,0,0-1.21-1.21,1.562,1.562,0,0,1-.989-1.463,2.289,2.289,0,0,1,.292-1.229,1.648,1.648,0,0,1,1.214-.76,2.125,2.125,0,0,1,1.368.238,2.49,2.49,0,0,1,.917.918c.241.233.52.5.829.789a4.281,4.281,0,0,1,.77.924,2.043,2.043,0,0,1,.591.671,1.631,1.631,0,0,0,.371.412,2.63,2.63,0,0,1,.866.856,1.658,1.658,0,0,1,.262,1.425,2.692,2.692,0,0,0-.087.327,1.366,1.366,0,0,1-1.059,1.022,2.62,2.62,0,0,1-.418.106,1.7,1.7,0,0,1-.265.022A1.172,1.172,0,0,1,1057.251,67.007Zm-93.32-6.223-.065-.014-.061-.022c-.448-.167-.927-.371-1.423-.607a6.8,6.8,0,0,1-2.205-2.2l-.061-.085-.041-.1a17.433,17.433,0,0,1-1.2-4.327,30.758,30.758,0,0,1-.3-4.164q-1.305,1.454-3.154,3.55l-.111.127-.149.077c-.038.019-.068.036-.09.049a1.352,1.352,0,0,1-.547.6,4.824,4.824,0,0,0-.427.354,2.183,2.183,0,0,1-1.374.9c-.044.007-.089.012-.133.015a2.969,2.969,0,0,1-1.142-.1A1.508,1.508,0,0,1,950.43,53.6a2.022,2.022,0,0,1,.038-1.168,3.375,3.375,0,0,1,.315-.589,2.3,2.3,0,0,1,1.212-.811,3.515,3.515,0,0,0,.835-.441c.3-.319.606-.619.913-.893.287-.256.564-.525.825-.8l.006-.006c1.468-1.52,2.588-2.719,3.327-3.562a11.6,11.6,0,0,1,1.519-1.595,1.255,1.255,0,0,0,.26-.322c.161-.25.278-.439.348-.562a1.661,1.661,0,0,1,.816-.7.726.726,0,0,0,.041-.078,2.264,2.264,0,0,1,.886-.994l.136-.166c-.345.125-.507.175-.6.2a.814.814,0,0,0-.263.121,1.6,1.6,0,0,1-1.034.316l-.546.284-.053.02c-.324.12-.629.218-.909.293-.2.13-.355.23-.477.305a1.674,1.674,0,0,1-.6.217,1.727,1.727,0,0,1-.715.466,2.99,2.99,0,0,1-.534.588,2.07,2.07,0,0,1-1.005.419,3.914,3.914,0,0,1-.433.041,1.745,1.745,0,0,1-1.6-.658,2.6,2.6,0,0,1-.439-1.217c-.137-1.139,1.225-1.79,1.738-2.036a61.816,61.816,0,0,1,7.087-2.541l.022-.006c1.1-.317,1.994-.57,2.659-.754-.015-.259-.031-.46-.047-.6-.029-.257-.071-.564-.127-.915l-.012-.074v-.075a.46.46,0,0,0-.094-.292,3.952,3.952,0,0,1-.552-1.154,1.59,1.59,0,0,1-.058-.3l-.29.23a17.681,17.681,0,0,0-2.335,2.082,12.694,12.694,0,0,0-1,1.42l-.069.113-.1.088a3.1,3.1,0,0,1-1.57.808,1.548,1.548,0,0,1-1.74-.993,2.04,2.04,0,0,1,.708-2.559,3.7,3.7,0,0,1,.779-.715,2.017,2.017,0,0,1,.8-.641,1.45,1.45,0,0,1,.484-.443,1.555,1.555,0,0,1,.635-.59,1.762,1.762,0,0,1,.688-.584l.1-.222.3-.14a3.656,3.656,0,0,0,.8-.464,6.686,6.686,0,0,1,.716-.522,5.894,5.894,0,0,1,.549-.517,1.349,1.349,0,0,1,.479-.24,1.29,1.29,0,0,1,.749-.477,1.344,1.344,0,0,1,.822-.475,8.146,8.146,0,0,1,1.672-1.053l.01,0a2.6,2.6,0,0,0,.437-.185,3.6,3.6,0,0,1,1.495-.619l.049-.013.049-.008a2.249,2.249,0,0,1,.977.062,4.484,4.484,0,0,1,.7.266,1.625,1.625,0,0,1,.845,1.025c.084.265.156.537.212.807a1.378,1.378,0,0,1-.868,1.568,2.752,2.752,0,0,1-1.158.28,3.871,3.871,0,0,1-.869-.123,8.332,8.332,0,0,0-2.2.867c-.09.049-.181.1-.275.157a1.647,1.647,0,0,1,.694.519,5.289,5.289,0,0,1,.827,1.589l.053.156-.005.164c-.016.512-.02,1.074-.011,1.67,0,.1,0,.184.006.266,1.382-.31,2.327-.525,2.811-.642l.055-.011L972.4,35.1c.292-.047.573-.1.837-.167a4.144,4.144,0,0,1,1.157-.113,6.942,6.942,0,0,0,.894-.025,2.043,2.043,0,0,1,2.147,2.21,1.659,1.659,0,0,1-.828,1.177,2.742,2.742,0,0,1-.9.357,7.152,7.152,0,0,1-1.1.23,4.321,4.321,0,0,1-.754.022,1.717,1.717,0,0,1-.94-.414c-.207.008-.443.014-.71.018a3.02,3.02,0,0,1-.57.156,1.537,1.537,0,0,1-.633-.019c-.026,0-.063.006-.116.015a9.313,9.313,0,0,0-.954.225l-.046.012c-.42.093-.9.185-1.417.273.1.012.21.027.321.047l.36.065.213.3a6.077,6.077,0,0,1,.707,1.284,1.625,1.625,0,0,1,.636.614,2.045,2.045,0,0,1,.565.543.519.519,0,0,0,.185.138,3.834,3.834,0,0,1,.939.746,1.026,1.026,0,0,0,.115.089,1.939,1.939,0,0,1,1.056.512,10.082,10.082,0,0,0,1.8.816,20.052,20.052,0,0,0,3.523,1.023,21.948,21.948,0,0,0,3.542.41,2.224,2.224,0,0,1,.966.037,1.725,1.725,0,0,1,1.033.644,2.467,2.467,0,0,1,.344.684,1.538,1.538,0,0,1-.1,1.162,1.711,1.711,0,0,1-1.031.86,4.822,4.822,0,0,1-.842.223l-.128.021-.129-.017a3.706,3.706,0,0,1-1.17-.29h0a1.67,1.67,0,0,1-.9-.259,1.882,1.882,0,0,1-1.062-.192l-.047.005a1.5,1.5,0,0,1-1.223-.363,1.284,1.284,0,0,1-.686-.184.827.827,0,0,0-.125-.016l-.136-.008-.128-.049q-.636-.242-1.188-.454a3.209,3.209,0,0,1,.447,1.409l0,.049a10.445,10.445,0,0,1-.025,1.4,7.02,7.02,0,0,1-.274,1.4c-.128.423-.257.814-.386,1.162a7.282,7.282,0,0,0-.246.773c-.049.2-.137.547-.266,1.058a2.2,2.2,0,0,1,.338.85,1.921,1.921,0,0,1-.3,1.346,2.537,2.537,0,0,1-.987.853,3.176,3.176,0,0,1-1.039,1.049,1.9,1.9,0,0,1-.647.23,2.164,2.164,0,0,1-1.184-.167,3.789,3.789,0,0,1-.728-.4,4.759,4.759,0,0,1-.953.067,3.68,3.68,0,0,1-.7.193,2.132,2.132,0,0,1-.453.025h-.014a2.255,2.255,0,0,1-.71.267c-.246.053-.533.1-.856.136-.047.005-.094.013-.124.019a1.6,1.6,0,0,1-.448.238,1.89,1.89,0,0,1-.1.318,1.817,1.817,0,0,1-.829.885,1.87,1.87,0,0,1-.924.229A2.57,2.57,0,0,1,963.931,60.784Zm-.822-4.667a1.169,1.169,0,0,1,.4.478l.076.012a1.316,1.316,0,0,1,.254.068,1.407,1.407,0,0,1,.872-.5l.058-.008a5.333,5.333,0,0,0,.794-.158c.336-.092.7-.182,1.068-.267l.037-.007c.927-.171,1.674-.327,2.221-.462.573-.141,1.1-.264,1.569-.363.332-.071.719-.158,1.156-.257.029-.088.057-.17.083-.247l-.025.006c-.1.025-.2.046-.3.061a1.68,1.68,0,0,1-1.353-.277,4.906,4.906,0,0,1-.4-.36c-.193.025-.357.051-.489.079a6.183,6.183,0,0,0-.707.194,4.476,4.476,0,0,1-.955.219,1.648,1.648,0,0,0-.485.246l-.105.068-1.086.326a1.641,1.641,0,0,0-.085.208,1.255,1.255,0,0,1-1.085.842,3.05,3.05,0,0,1-.625.025,2.02,2.02,0,0,1-1.038-.324A1.562,1.562,0,0,1,963.109,56.118Zm.182-11.88c-.56.606-1.288,1.365-2.164,2.257-.112.115-.245.252-.394.411l.059.006a2.2,2.2,0,0,1,1.434.688,1.577,1.577,0,0,1,.174,1.8,2.633,2.633,0,0,0-.233.751l-.023.156-.073.139a1.315,1.315,0,0,0-.1.227,1.613,1.613,0,0,1-.052.73,1.392,1.392,0,0,1,0,.8,2.38,2.38,0,0,1,.193.934.293.293,0,0,0,.008.107,1.6,1.6,0,0,1,.091.3,1.816,1.816,0,0,1,.2-.47A2.938,2.938,0,0,1,963.756,52a3.762,3.762,0,0,1,1.19-.425l.206-.071a3.387,3.387,0,0,1-.6.015,2.065,2.065,0,0,1-1.678-1.2l-.1-.167-.02-.191a2.049,2.049,0,0,1,.651-1.811,3.835,3.835,0,0,1,.932-.6c-.037-.044-.073-.091-.109-.141a1.836,1.836,0,0,1-.251-1.6c.023-.444.048-.849.074-1.205.027-.38.056-.76.086-1.129,0-.031,0-.065.007-.1Q963.639,43.861,963.291,44.238Zm3.43,6.086a4.207,4.207,0,0,1-.2.37,1.745,1.745,0,0,1-.628.575q.606-.184,1.294-.365c.48-.126.9-.218,1.256-.274a5.537,5.537,0,0,1,.625-.068,2.768,2.768,0,0,1,1.173-.186,6.517,6.517,0,0,1,1.046.1,5.123,5.123,0,0,1,.763.221,1.531,1.531,0,0,1,.72.542,7.393,7.393,0,0,0,.237-.87,3.076,3.076,0,0,0,.068-.773,1.023,1.023,0,0,0-.076-.321,1.046,1.046,0,0,0-.451-.107,5.356,5.356,0,0,0-.879.026,4.167,4.167,0,0,1-.864.022,12.474,12.474,0,0,1-1.288.306,1.778,1.778,0,0,1-.68.005.729.729,0,0,0-.1.035,2.1,2.1,0,0,0-.436.22,1.371,1.371,0,0,1-.938.24A2.516,2.516,0,0,1,966.721,50.324Zm.866-7.122c-.018.324-.037.787-.057,1.378a3.514,3.514,0,0,1,.1.877.8.8,0,0,0,.065.29,1.643,1.643,0,0,1,.105.683l.025-.006c.354-.08.737-.172,1.139-.273.2-.05.428-.1.675-.135.318-.049.682-.093,1.084-.126a12.5,12.5,0,0,1,1.413-.049l-1.409-.76A37.355,37.355,0,0,1,967.591,43C967.591,43.07,967.59,43.137,967.586,43.2Zm24.5,10.419a5.205,5.205,0,0,1-.567-.275l-.043-.024-.04-.03a4.128,4.128,0,0,1-.835-.733,2.79,2.79,0,0,1-.24-.378,1.434,1.434,0,0,1-.58-.528c-.1-.154-.194-.328-.3-.531a3.566,3.566,0,0,1-.487-.668,4.157,4.157,0,0,1-.384-.825,5.225,5.225,0,0,1-.35-1.164,2.672,2.672,0,0,1-.117-1.211,1.8,1.8,0,0,1-.069-.841,2.02,2.02,0,0,1-.087-1.061,2.409,2.409,0,0,1,.016-.942,2.367,2.367,0,0,1-.087-.78c.013-.144.03-.385.049-.717a9.353,9.353,0,0,1,.1-.951c.025-.153.114-.765.391-2.816.226-1.672.615-3.831,1.155-6.42a10.158,10.158,0,0,1,.366-1.511,5.933,5.933,0,0,1,.544-1.316l.023-.039.026-.036a3.391,3.391,0,0,1,.82-.836,2.948,2.948,0,0,1,.856-.4,2.671,2.671,0,0,1,.315-.068,3.314,3.314,0,0,1,.649-.035,1.62,1.62,0,0,1,1.34.824,2.927,2.927,0,0,1,.4,1.051,1.6,1.6,0,0,1-.6,1.484,1.982,1.982,0,0,1-1.087.517,5.69,5.69,0,0,1-.152.633c-.037.117-.119.4-.3,1.079-.145.547-.365,1.471-.655,2.745l-.387,2.029-.046.1a.373.373,0,0,0-.034.1,3.69,3.69,0,0,1-.046.5,3.863,3.863,0,0,1-.155.565,1.833,1.833,0,0,1-.2,1.054,1.643,1.643,0,0,1-.2,1.1s0,.005,0,.007a5.379,5.379,0,0,1-.1,1.6c.058.84.087,1.538.085,2.075a3.939,3.939,0,0,0,.094,1.03,7.6,7.6,0,0,0,.255.764,1.368,1.368,0,0,0,.111.23,1.6,1.6,0,0,1,.44.763.919.919,0,0,0,.081.134,1.7,1.7,0,0,1,.618.724,3.694,3.694,0,0,0,.453.305l.045.029c.424.283.639.41.744.468a1.821,1.821,0,0,1,.838,1.281,1.513,1.513,0,0,1-.633,1.731,2.223,2.223,0,0,1-1.108.374h-.079A2.211,2.211,0,0,1,992.083,53.621Zm12.872-4.1a1.106,1.106,0,0,0-.29-.011,2,2,0,0,1-1.231-.3,9,9,0,0,1-1.157-.567,2.6,2.6,0,0,1-1.017-1.094,2.427,2.427,0,0,1-.5-1.688,3.129,3.129,0,0,1,.642-1.724,6.732,6.732,0,0,1,1.255-1.243l.086-.068.1-.044c.346-.153.642-.287.88-.4a2.4,2.4,0,0,1,1.069-.247.129.129,0,0,0,.028-.016l.131-.094.155-.042a4.3,4.3,0,0,1,1.369-.16c.08-.02.162-.037.245-.051.013-.207.028-.385.04-.531l0-.034.006-.034a7.435,7.435,0,0,0,.065-1.143c0-.522-.028-1.123-.085-1.787s-.113-1.18-.168-1.524a5.236,5.236,0,0,1-.077-.945,3.816,3.816,0,0,0-.062-.649c-.024-.153-.083-.441-.221-.981a1.539,1.539,0,0,1-.6.159.846.846,0,0,0-.218.058,4.4,4.4,0,0,1-.8.2,2.641,2.641,0,0,1-.552.122,1.386,1.386,0,0,1-.618.268,1.25,1.25,0,0,1-.343.007,1.673,1.673,0,0,0-.33.1l-.089.034-.094.015a1,1,0,0,0-.317.084l-.53.308a3.255,3.255,0,0,1-.983.367,2.1,2.1,0,0,1-1.322-.149,1.92,1.92,0,0,1-1-1.142,1.808,1.808,0,0,1,.259-1.721,1.994,1.994,0,0,1,1.174-.846c.215-.047.7-.154,1.443-.319a4.554,4.554,0,0,1,1.4-.23c.9-.189,1.657-.346,2.255-.464q.3-.061.553-.116c0-.024-.007-.049-.012-.074l-.011-.07v-.07a2.072,2.072,0,0,1,1.013-1.838,1.676,1.676,0,0,1,.617-.231,1.851,1.851,0,0,1,2,1.333c.165-.048.388-.106.7-.183a6.673,6.673,0,0,1,1.147-.4l.085-.016a1.573,1.573,0,0,1,1.146.261c-.191-.293-.4-.621-.618-.979l-.044-.072-.031-.079c-.171-.449-.311-.815-.419-1.1a1.559,1.559,0,0,1,.62-1.847,2.645,2.645,0,0,1,1.2-.627,1.784,1.784,0,0,1,1.07.161,1.865,1.865,0,0,1,.876.982,3.367,3.367,0,0,1,.258,1.143,5.208,5.208,0,0,0,.39.833,4.288,4.288,0,0,0,.51.665,6.339,6.339,0,0,0,.639.6,2.844,2.844,0,0,1,.718.681,3.131,3.131,0,0,0,.362.267l.066.043.057.053a1.846,1.846,0,0,1,.653,1.638,1.753,1.753,0,0,1-.7,1.243,2,2,0,0,1-.99.382,2.251,2.251,0,0,1-.991-.146,2.46,2.46,0,0,1-.846-.517,2.758,2.758,0,0,1-.465-.584c-.193-.157-.349-.283-.465-.376a4.942,4.942,0,0,1-.741-.807q-.142-.182-.286-.378a1.656,1.656,0,0,1,.028.177,2.314,2.314,0,0,1-.076.954,1.3,1.3,0,0,1-1.085.9,3.343,3.343,0,0,0-.55.161,1.421,1.421,0,0,1-.874.2,1.76,1.76,0,0,1-.739.225s-.039,0-.15.021l-.046.007c.046.317.07.452.083.508a3.632,3.632,0,0,1,.074.911,1.265,1.265,0,0,0,.075.463l.051.149v.157a11.188,11.188,0,0,0,.057,1.23,20.325,20.325,0,0,1,.185,2.906c-.008.634-.021,1.33-.039,2.076.607.031,1.07.052,1.381.063.436.015,1.459.019,3.044.013.423-.041.728-.064.933-.069a4.412,4.412,0,0,1,1.156.186l.1.026.092.049a2.308,2.308,0,0,1,1.05,1.014,1.48,1.48,0,0,1,.067,1.338,2.97,2.97,0,0,1-.365.569,1.484,1.484,0,0,1-.948.523c-.069.011-.142.018-.216.023a3.266,3.266,0,0,1-1.035-.14,4.032,4.032,0,0,1-1.336-.144,1.749,1.749,0,0,0-.408-.042,1.718,1.718,0,0,1-.907-.069,1.534,1.534,0,0,1-.191.042,1.8,1.8,0,0,1-.961-.123,2.48,2.48,0,0,1-.771-.024.848.848,0,0,0-.291.013,2.671,2.671,0,0,1-.848.019l-.031,0a1.76,1.76,0,0,1-.292.661,1.2,1.2,0,0,1-.324.955,1.31,1.31,0,0,1-.589.877c-.013.039-.03.089-.049.155l-.044.152-.094.129a3.319,3.319,0,0,1-1.751,1.308,6.019,6.019,0,0,1-.73.169,2.843,2.843,0,0,1-.442.038A1.8,1.8,0,0,1,1004.954,49.52Zm.134-4.037a2.524,2.524,0,0,1-.6.473l.068.1a1.544,1.544,0,0,0,.636.153,1.185,1.185,0,0,0,.48-.3c.114-.281.22-.515.317-.707h0C1005.689,45.29,1005.387,45.382,1005.089,45.482Zm26.34.414a3.927,3.927,0,0,1-2.879-2.452,17.4,17.4,0,0,1-.763-2.331c-.105-.5-.2-1-.274-1.489-.081-.51-.153-1.321-.22-2.479-.062-1.082-.131-1.862-.2-2.319l-.007-.044,0-.045c-.031-.528-.023-1.436.024-2.773.046-1.319.171-2.8.373-4.4a4.577,4.577,0,0,0,.061-.709,2.471,2.471,0,0,1,.4-1.334,2.3,2.3,0,0,1,1.349-1.184l.061-.016a1.679,1.679,0,0,1,.166-.032,2.778,2.778,0,0,1,1.484.2l.051.022c1.173.56,1.126,1.383,1.051,1.712a2.983,2.983,0,0,1-.433,1.009c-.1.151-.2.307-.284.463-.1.446-.276,1.223-.512,2.318a2.287,2.287,0,0,1-.225,1.1c-.041.433-.082.938-.121,1.5-.055.788-.065,1.138-.064,1.293a6.6,6.6,0,0,0,.043.689,2.147,2.147,0,0,1-.118.99,5.282,5.282,0,0,1,.047,1.263c.14.751.239,1.42.292,1.993a11.886,11.886,0,0,0,.509,2.193,4.317,4.317,0,0,0,.417,1.046,5.409,5.409,0,0,0,.551.633c.031.031.089.09.31.061a2.653,2.653,0,0,0,.913-.291,14.164,14.164,0,0,0,1.7-1.263c.538-.466,1-.875,1.372-1.217a3.359,3.359,0,0,1,.832-.847,1.639,1.639,0,0,1,.791-.892l.17-.234a2.882,2.882,0,0,1,.579-.554,1.569,1.569,0,0,1,.745-.994.692.692,0,0,0,.121-.08l.006-.01a8.236,8.236,0,0,1,.573-.788c.181-.219.423-.507.72-.855a10.049,10.049,0,0,1,.764-.826,3.6,3.6,0,0,0,.472-.611l.039-.053a2.328,2.328,0,0,1,1.4-1.031,3.188,3.188,0,0,1,.97,0,1.537,1.537,0,0,1,1.234,1.111,1.5,1.5,0,0,1-.168,1.487,11.451,11.451,0,0,1-.794.834,2.267,2.267,0,0,0-.292.365,1.5,1.5,0,0,1-.568.55,2.748,2.748,0,0,1-.631.854c-.246.227-.5.483-.769.762l-.013.014a6.325,6.325,0,0,0-.826.994,3.129,3.129,0,0,1-.855.927c-.107.135-.234.276-.383.429a3.531,3.531,0,0,0-.315.36c-.068.095-.217.287-.708.858a15.68,15.68,0,0,1-2.03,1.806,2.123,2.123,0,0,1-.9,1.036c-.243.134-.5.261-.764.378a4.43,4.43,0,0,1-.914.6,4.079,4.079,0,0,1-.847.279c-.214.046-.49.113-.823.2-.068.018-.14.032-.212.044a2.4,2.4,0,0,1-.377.029A3.978,3.978,0,0,1,1031.429,45.9Zm26.438-5.95-.229-.039-.183-.145a2.458,2.458,0,0,0-.69-.4,2.448,2.448,0,0,1-1.144-.823c-.374-.359-.71-.7-1-1.018a4.039,4.039,0,0,1-.757-1.191,1.783,1.783,0,0,0-.207-.215,1.4,1.4,0,0,1-.728-1.27.543.543,0,0,0-.054-.075,2.545,2.545,0,0,1-.424-.741,1.634,1.634,0,0,1-.441-.9.769.769,0,0,0-.071-.1l-.143-.184-.037-.23a4.468,4.468,0,0,0-.117-.544,3.273,3.273,0,0,1-.122-.594c0-.008-.012-.017-.019-.029a2.676,2.676,0,0,1-.347-.625,3.959,3.959,0,0,1-.174-.751,4.428,4.428,0,0,1-.338-.951,7.144,7.144,0,0,1-.165-.921c-.018-.176-.04-.349-.065-.514-.068-.266-.132-.6-.2-1.025a4.349,4.349,0,0,1-.06-1.206,3.769,3.769,0,0,1,.176-.766,1.927,1.927,0,0,1,.849-.97,2.252,2.252,0,0,1,.866-.33,2.335,2.335,0,0,1,.556-.021,1.524,1.524,0,0,1,1.387,1,2.549,2.549,0,0,1,0,1.513,4.6,4.6,0,0,0,.013,1.092,7.757,7.757,0,0,0,.283,1.586l.032.108.005.113a2.892,2.892,0,0,0,.2,1.116,2.662,2.662,0,0,1,.337,1.066,3.435,3.435,0,0,0,.181.462,13.779,13.779,0,0,1,.679,1.354,15.563,15.563,0,0,0,.864,1.638,9.03,9.03,0,0,0,.956,1.313,8.942,8.942,0,0,1,.814.778,2.757,2.757,0,0,0,.3.184,2.108,2.108,0,0,0,.19-.13,5,5,0,0,1,.775-.984,4.584,4.584,0,0,1,.2-.555,3.139,3.139,0,0,1,.475-.687,2.25,2.25,0,0,1,.469-.9,5.6,5.6,0,0,1,.442-.666s.007-.009.01-.032a1.35,1.35,0,0,1,.524-.95c.136-.26.277-.538.423-.829l.016-.032.019-.031c.213-.351.4-.665.551-.932a4.73,4.73,0,0,1,.65-.892,1.639,1.639,0,0,1,.937-.516,1.586,1.586,0,0,1,.552.013,2.016,2.016,0,0,1,1.176.743,1.665,1.665,0,0,1,.332,1.542,3.179,3.179,0,0,1-.39.869c-.112.168-.32.478-.62.92-.4.645-.929,1.436-1.561,2.351-.619.9-1.111,1.639-1.459,2.205-.365.592-.738,1.168-1.111,1.713l-.07.1-.094.079a4.967,4.967,0,0,1-1.191.759,2.194,2.194,0,0,1-.528.149,3.313,3.313,0,0,1-.517.038A6.022,6.022,0,0,1,1057.867,39.947Zm14.3-5.623a1.676,1.676,0,0,1-1.112-1.254,2.443,2.443,0,0,1-.006-1.093,3.286,3.286,0,0,0,.057-.608,4.757,4.757,0,0,1,.041-1.364c-.178-.941-.213-1.21-.225-1.345a2.375,2.375,0,0,1,.077-.78,3.055,3.055,0,0,1-.239-.941,4.655,4.655,0,0,0-.229-.938l-.04-.113-.008-.12a2.514,2.514,0,0,0-.247-.774c-.2-.453-.374-.871-.524-1.245a2.406,2.406,0,0,0-.271-.551l-.1-.121-.05-.145a2.2,2.2,0,0,1-.106-1.181,2.158,2.158,0,0,1,.481-.974l.072-.085.09-.064a2.132,2.132,0,0,1,.909-.391,2.6,2.6,0,0,1,.975-.014,1.568,1.568,0,0,1,.983.894,5.142,5.142,0,0,1,.71,1.6,21.987,21.987,0,0,1,.56,2.658l.5,3.129a9.418,9.418,0,0,1,.188,1.589c.016.44.042.859.079,1.247a3.718,3.718,0,0,1,.322,1.314,1.731,1.731,0,0,1-.357,1.118,2.017,2.017,0,0,1-1.06.621,2.315,2.315,0,0,1-.631.088A2.391,2.391,0,0,1,1072.165,34.323Zm-52.917-3.346a1.571,1.571,0,0,1-1.048-1.127c-.265-.756-.486-1.343-.656-1.744a3.892,3.892,0,0,0-.4-.767,5.255,5.255,0,0,0-.579-.622l-.09-.086-.064-.106a4.964,4.964,0,0,1-.418-.9,1.442,1.442,0,0,1,.427-1.627,2.94,2.94,0,0,1,1.306-.583l.113-.025.116,0a2.154,2.154,0,0,1,1.744,1.16l.023.036.02.039c.284.564.77,1.525,1.484,2.933a2.292,2.292,0,0,1,.5,1.271,2.459,2.459,0,0,1-.2,1.267,1.624,1.624,0,0,1-1.166.9c-.047.009-.092.018-.137.025a2.517,2.517,0,0,1-.394.032A2.1,2.1,0,0,1,1019.247,30.977Z" transform="translate(-459.578 2876.094)" fill="#009f39"/>
    </g>
    <path id="パス_2469" data-name="パス 2469" d="M3034.682,2890.236s79.9.86,120.987,60.061" transform="translate(-2622 -54.078)" fill="none" stroke="#009f3a" stroke-linecap="round" stroke-width="3"/>
  </g>
</svg>
