<svg xmlns="http://www.w3.org/2000/svg" width="415" height="120" viewBox="0 0 415 120">
  <g id="summary_title" transform="translate(-399 -1895)">
    <g id="グループ_2909" data-name="グループ 2909" transform="translate(437.754 1895)">
      <path id="パス_4902" data-name="パス 4902" d="M9.517,41.955a4.984,4.984,0,0,0,1.6-.423l.221-.086a2.575,2.575,0,0,0,1.946-2.462c0-.328-.013-.668-.025-1.014s-.026-.692-.026-1.042a20.983,20.983,0,0,1,1.28-5.244c.293-.9.571-1.752.754-2.468.013-.05.037-.122.065-.205a3.112,3.112,0,0,0,.205-.907c0-1.021-1.5-1.867-2.265-1.867-.885,0-1.348,1.068-1.862,2.463-.059.161-.11.3-.156.411-.154.384-.462,1.155-.7,1.591a26.242,26.242,0,0,1-.676-6.258A49.978,49.978,0,0,1,12.44,9.19c.623-1.633.78-1.745,1.58-2.128a1.154,1.154,0,0,0,.817-1.118c0-.793-.791-1.185-1.172-1.373l-.343.571.3-.594L13.6,4.539l-.4-.189c-2.828-1.333-3.526-1.576-3.88-1.576-.247,0-1.06.1-1.252,1.336-.229.912-.506,1.845-.775,2.748-.14.47-.279.941-.416,1.421A60.1,60.1,0,0,0,4.5,24.545a36.25,36.25,0,0,0,3.02,15.478c.307.676.878,1.932,2,1.932" transform="translate(-4.497 -0.918)" fill="#009f39"/>
      <path id="パス_4903" data-name="パス 4903" d="M22.953,16.74a41.535,41.535,0,0,0,5.229.274c1.413,0,3.622-.108,4.808-.167.4-.02.681-.034.751-.034.289,0,.43.04.475.95,0,.093.009.178.014.227.09,1.655.35,7.018.35,8.738a.7.7,0,0,1-.042.3.507.507,0,0,1-.247.037,1.625,1.625,0,0,1-.29-.016.654.654,0,0,0-.129-.029,20.039,20.039,0,0,0-2.486-.156c-3.748,0-8.125,1.71-8.125,6.53,0,4.649,4.383,6.731,8.726,6.731,4.272,0,7.047-1.9,7.619-5.244a1.884,1.884,0,0,1,.034-.2,20.129,20.129,0,0,1,3.8,2.9,2.721,2.721,0,0,0,1.771,1c1.331,0,3.016-2.214,3.016-3.571,0-2.358-7.123-5.732-7.19-5.764l-.264-.122c-.77-.355-.931-.429-.961-1.175-.1-1.652-.45-9.784-.45-11.039,0-.591.123-.687,1.087-.848l.217-.032c5.406-.8,6.859-1.02,6.859-2.63,0-.041-.113-4.073-1.915-4.073a2.592,2.592,0,0,0-1.012.25,36.443,36.443,0,0,1-5.048,1.254c-.243,0-.389,0-.389-1.191V8.25a7.368,7.368,0,0,1,.406-3.117l.083-.1a1.752,1.752,0,0,0,.513-1.115A1.186,1.186,0,0,0,39.3,2.8a.648.648,0,0,0-.086-.028,38.865,38.865,0,0,0-4.818-.822,1.185,1.185,0,0,0-1.264,1.266v.452a.669.669,0,0,0,.007.1c.192,1.3.644,6.168.644,7.424,0,.173-.044.216-.061.233a5.612,5.612,0,0,1-2.475.258h-.457c-1.859,0-4.051-.116-6.517-.345a7.357,7.357,0,0,0-1.1-.106c-1.364,0-1.364,1.32-1.364,1.816,0,2.379.324,3.448,1.143,3.7m11.778,15.9c0,1.819-.865,2.595-2.893,2.595-1.218,0-3.494-.541-3.494-1.843,0-1.23,2.365-1.643,3.444-1.643a10.9,10.9,0,0,1,2.707.4c.089.041.236.136.236.487" transform="translate(-10.242 -0.645)" fill="#009f39"/>
      <path id="パス_4904" data-name="パス 4904" d="M127.164,6.414c1.064,1.066,2.167,2.28,3.457,3.806l.059.074a1.494,1.494,0,0,0,1.161.726c.97,0,2.816-1.6,2.816-2.669,0-.938-4.467-5.577-5.37-5.577-.824,0-2.766,1.49-2.766,2.519a1.537,1.537,0,0,0,.588,1.066Z" transform="translate(-44.986 -0.918)" fill="#009f39"/>
      <path id="パス_4905" data-name="パス 4905" d="M107.019,41.4c6.267,0,12.394-3.876,15.607-9.874.6-1.106,2.033-4.4,2.033-5.982,0-1.791-2.724-4.073-4.018-4.073-1.207,0-1.4,1.339-1.508,2.123a14.5,14.5,0,0,1-2.917,7.152,12.791,12.791,0,0,1-9.5,4.914c-4.892,0-5.3-4.667-5.3-9.865a121.154,121.154,0,0,1,1.1-17.067c.086-.773.229-2.065.762-2.529l.106-.086a1.455,1.455,0,0,0,.684-1.175c0-.929-.94-1.223-1.445-1.381l-.16-.051-.032-.01-.466-.132a21,21,0,0,0-3.918-.9c-1.364,0-1.364,1.357-1.364,1.867a28.839,28.839,0,0,1-.1,2.9c-.483,5.992-.954,12.371-.954,18.7,0,3.967.3,8.42,2.486,11.379a11.028,11.028,0,0,0,8.894,4.076" transform="translate(-34.74 -0.819)" fill="#009f39"/>
      <path id="パス_4906" data-name="パス 4906" d="M118.857,11.739a.676.676,0,0,0,.071.08,41.975,41.975,0,0,1,3.423,3.767,1.517,1.517,0,0,0,1.243.83c.97,0,2.817-1.565,2.817-2.619,0-.947-4.467-5.627-5.371-5.627-.8,0-2.766,1.488-2.766,2.468a1.51,1.51,0,0,0,.478.977c.039.043.076.084.106.124" transform="translate(-42.25 -2.705)" fill="#009f39"/>
      <path id="パス_4907" data-name="パス 4907" d="M184.382,35.262a22.862,22.862,0,0,0,6.719-7.435,39.6,39.6,0,0,0,4.894-13.469c.108-.648.3-.648.448-.648a2.8,2.8,0,0,1,.756.171c5.04,1.557,7.6,4.6,7.6,9.042,0,8.077-8.23,11.718-11.779,12.913-.112.04-.222.076-.328.11-.618.2-1.465.476-1.465,1.417,0,1.123,2.029,3.872,3.368,3.872.444,0,1.431-.211,4.88-2.039,7.34-4.1,10.907-9.4,10.907-16.222a13.219,13.219,0,0,0-4.906-10.746,18.7,18.7,0,0,0-7.387-3.591L197.9,8.6c-.83-.169-.9-.265-.9-.517,0-.158.012-.3.023-.451.014-.179.027-.359.025-.489a6.172,6.172,0,0,1,.68-2.686l.1-.141a1.655,1.655,0,0,0,.422-1.047A1.6,1.6,0,0,0,197.1,1.856l-.022-.009a25.419,25.419,0,0,0-4.345-1.1c-.611,0-1.264.385-1.264,1.466,0,.408.013.816.025,1.224s.025.789.025,1.183c0,3.505,0,3.505-1.235,3.655a21.99,21.99,0,0,0-7.628,2.554c-.113.048-.226.106-.339.163a1.881,1.881,0,0,1-.47.2,1.176,1.176,0,0,1-.144-.328c-.259-.93-1.038-3.918-1.137-4.845l-.028-.181c-.077-.512-.235-1.577-1.477-1.577a17.2,17.2,0,0,0-3.316.805,1.537,1.537,0,0,0-1.1,1.412,2.032,2.032,0,0,0,.119.587c.019.06.037.12.059.2q.326,1.106.641,2.211c.416,1.448.847,2.944,1.31,4.4.033.114.075.233.118.356a2.136,2.136,0,0,1,.157.614.735.735,0,0,1-.233.462,19.4,19.4,0,0,0-5.176,13.176c0,4.1,1.682,8.886,6.423,8.886a12.189,12.189,0,0,0,6.32-2.113m-5.769-3.326c-1.022,0-1.541-1.16-1.541-3.448a13.591,13.591,0,0,1,2.3-7.594c.017.037.032.075.044.105.452.961.877,1.951,1.288,2.908.679,1.581,1.382,3.216,2.249,4.822a.659.659,0,0,1,.106.411c0,.789-2.727,2.8-4.445,2.8m4.87-15.289c.035-.773,4.588-3.138,7.05-3.138a.2.2,0,0,1,.075.011.165.165,0,0,1,.013.078.975.975,0,0,1-.016.24.709.709,0,0,0-.02.074,32.52,32.52,0,0,1-3.243,9.5,7.653,7.653,0,0,1-.634,1.07,11.147,11.147,0,0,1-.627-1.251l-.33-.751a42.4,42.4,0,0,1-2.268-5.836" transform="translate(-59.958 -0.248)" fill="#009f39"/>
      <path id="パス_4908" data-name="パス 4908" d="M274.78,27.476l-.263-.015c-.472-.028-1.456-.086-2.152-.086-4.9,0-10.128,1.807-10.128,6.881,0,4.685,4.307,6.781,8.576,6.781,5.29,0,8.83-2.288,9.468-6.12l.028-.177c.027-.178.1-.65.194-.712a.184.184,0,0,1,.075-.01c.736,0,3.96,2.094,5.311,3.175l.181.14a2.879,2.879,0,0,0,1.669.8c1.466,0,3.117-2.46,3.117-3.771,0-1.092-1.335-1.939-2.587-2.646l-.142-.081a28.881,28.881,0,0,0-6.657-2.973l-.2-.058c-.938-.274-1.082-.316-1.082-5.422,0-.793,0-.793,1.3-.944a55.417,55.417,0,0,0,6.4-1.017c1.44-.339,1.513-1.324,1.513-2.9v-.1a3.467,3.467,0,0,0-.561-2.387,1.111,1.111,0,0,0-.8-.336,3.073,3.073,0,0,0-.724.114c-.072.018-.142.035-.247.058A42.849,42.849,0,0,1,280.329,17a.275.275,0,0,0-.049,0c-.106-.124-.389-.759-.389-3.949,0-.573.247-.711,1.463-.821l1.386-.172c2.4-.312,4.874-.635,7.144-1.116l.4-.083c1.091-.223,1.88-.384,1.88-1.87,0-1.446-.229-3.872-1.765-3.872a3.3,3.3,0,0,0-.79.12c-.067.016-.131.031-.23.053a64.494,64.494,0,0,1-8.134,1.689c-.018,0-.051.009-.069.013-.145.032-.849.082-.994.082s-.389,0-.389-.54c0-2.713.244-3.368.418-3.612l.044-.058a1.573,1.573,0,0,0,.389-1.043c0-1.094-1.224-1.24-2.034-1.336l-.194-.023c-.167-.024-.408-.062-.685-.106A24.476,24.476,0,0,0,274.971,0c-1.266,0-1.364.93-1.364,1.215a2.522,2.522,0,0,0,.112.674c.019.07.037.139.049.2.136.724.44,4.212.44,5.042,0,.257,0,.374-.593.491a28.131,28.131,0,0,1-4.13.149h-.473c-1.981,0-4.237-.123-5.884-.213-.941-.052-1.622-.088-1.979-.088-1.514,0-1.514,1.379-1.514,1.967,0,2.877.423,3.772,3.066,3.772,3.007,0,6.087-.12,8.337-.208,1.331-.052,2.382-.093,2.982-.093.442,0,.639,1.249.639,4.05a.65.65,0,0,1-.077.393c-.254.254-1.532.25-3.148.248h-.669c-1.854,0-4.344-.187-5.407-.267-.289-.021-.469-.033-.5-.033a1.383,1.383,0,0,0-1.415,1.566,7.793,7.793,0,0,0,.771,3.288c.542.775,1.688.835,3.247.835,1.2,0,2.468-.04,3.7-.079,1.171-.037,2.276-.072,3.263-.072.412,0,.539.53.539,3.848l0,.13a1.613,1.613,0,0,1-.072.644.249.249,0,0,1-.108.017m-3.966,8.573c-.772,0-3.293-.126-3.293-1.743,0-1.3,1.918-1.994,5.547-1.994,1.157,0,2.041.029,2.041.389,0,2.346-1.285,3.347-4.3,3.347" transform="translate(-89.156)" fill="#009f39"/>
      <path id="パス_4909" data-name="パス 4909" d="M368.845,31.531c.6-1.106,2.033-4.4,2.033-5.982,0-1.791-2.723-4.073-4.018-4.073-1.207,0-1.4,1.339-1.508,2.123a14.5,14.5,0,0,1-2.917,7.152,12.792,12.792,0,0,1-9.5,4.914c-4.892,0-5.3-4.667-5.3-9.865a121.154,121.154,0,0,1,1.1-17.067c.086-.773.229-2.065.752-2.521l.066-.052a1.55,1.55,0,0,0,.734-1.217c0-.468-.249-1.086-1.429-1.39a30.3,30.3,0,0,0-4.592-1.079c-1.364,0-1.364,1.357-1.364,1.868a28.846,28.846,0,0,1-.1,2.9c-.483,5.991-.954,12.371-.954,18.7,0,3.966.3,8.42,2.487,11.379a11.026,11.026,0,0,0,8.893,4.076c6.267,0,12.394-3.876,15.607-9.874" transform="translate(-116.439 -0.819)" fill="#009f39"/>
      <path id="パス_4910" data-name="パス 4910" d="M441.22,40.811a10.866,10.866,0,0,0,.764-3.539c0-1.366-1.272-1.366-1.815-1.366-.271,0-.589.012-.921.025s-.7.026-1.032.026a13.877,13.877,0,0,1-5.457-.8c-2.614-1.074-3.545-3.987-3.545-6.355a19.383,19.383,0,0,1,2.616-9.346,14.945,14.945,0,0,1,8.5-7.271,28.256,28.256,0,0,1,8.307-.97c1.188,0,2.666,0,2.666-1.767a25.43,25.43,0,0,0-.313-2.837c-.086-.434-.316-1.587-1.5-1.587a3.331,3.331,0,0,0-.815.11c-3.5.609-8.054,1.123-11.384,1.5C428.7,7.66,422.117,8.293,415.959,8.682c-.223,0-.445.015-.651.029-.157.011-.3.021-.449.021-1.565.047-2.7.081-2.7,1.716,0,.049.154,4.875,2.065,4.875a2.65,2.65,0,0,0,.954-.181c2.439-.619,5.006-1.015,7.49-1.4l.239-.037c1.073-.2,6.07-.853,7.444-.973q-.182.183-.47.452a24.015,24.015,0,0,0-6.5,15.962c0,8.253,5.643,12.8,15.888,12.8a1.761,1.761,0,0,0,1.952-1.136" transform="translate(-139.768 -1.663)" fill="#009f39"/>
      <path id="パス_4911" data-name="パス 4911" d="M492.506,43.172c-1.1,0-3.368,2.336-3.368,3.471a1.654,1.654,0,0,0,.921,1.386c.053.035.107.07.193.13a29.532,29.532,0,0,1,7.423,6.491,1.961,1.961,0,0,0,1.541,1.029c1.328,0,3.568-2.606,3.568-3.822,0-1.7-8.85-8.685-10.279-8.685" transform="translate(-165.31 -14.293)" fill="#009f39"/>
    </g>
    <g id="グループ_2910" data-name="グループ 2910" transform="translate(399 1968.247)">
      <path id="パス_4912" data-name="パス 4912" d="M39.827,142.528c-.17-.256-.189-.324-.189-.484s.059-.282.369-.547c1.594-1.361,2.152-1.9,3.5-3.214L43.8,138l.083-.056a.686.686,0,0,1,.12.018,2.638,2.638,0,0,0,.269.037,1.226,1.226,0,0,0,.312.045,1.091,1.091,0,0,0,1.163-1.115c0-.638-.592-1.277-1.252-1.931L43.8,134.3c-.723-.724-1.245-1.248-1.821-1.248a1.459,1.459,0,0,0-1.072.591l-.1.112c-.38.392-.684.711-.95.991a34.518,34.518,0,0,1-2.577,2.5.538.538,0,0,1-.3.118c-.095,0-.17,0-.315-.249a37.243,37.243,0,0,1-1.96-4.559l-.037-.106a.671.671,0,0,1-.03-.086.824.824,0,0,1,.007-.088c.008-.007.084-.072.382-.1h3.806c.921,0,1.854.025,2.787.05s1.89.05,2.822.05c1.765,0,1.765-1.338,1.765-2.519s0-2.519-1.765-2.519c-.993,0-2.734.052-3.7.1-.533-.034-.642-.157-.642-.68l.15-10.085a3.93,3.93,0,0,0-.676-2.987,3.247,3.247,0,0,0-2.441-.788c-.531,0-1.05.013-1.569.026s-1.016.025-1.536.025H25.1c-.642,0-1.284-.025-1.927-.05-.659-.025-1.32-.051-1.978-.051-1.815,0-1.815,1.312-1.815,2.469,0,1.238,0,2.519,1.815,2.519.659,0,1.319-.025,1.978-.051.643-.025,1.285-.049,1.927-.049h9.065a.877.877,0,0,1,.637.189,1.353,1.353,0,0,1,.2.9l0,.808c-.055.433-.092.481-.589.481H27.807c-.845,0-1.69-.025-2.534-.05s-1.716-.051-2.574-.051c-1.664,0-1.664,1.255-1.664,2.469,0,1.157,0,2.468,1.664,2.468.858,0,1.716-.025,2.574-.05s1.69-.049,2.534-.049h6.411c.555,0,.668.05.738.665l-.044,1.346c-.071.572-.116.572-.544.572H24.953c-.921,0-1.854-.025-2.787-.049s-1.89-.051-2.822-.051c-1.636,0-1.755,1.15-1.764,2.258-.7-1.553-1.2-2.007-2.092-2.007-.573,0-2.816.5-2.816,1.917a3.252,3.252,0,0,0,.383,1.257l.075.166a.742.742,0,0,0,.037.072,3.632,3.632,0,0,1,.236.532l.091.227a.292.292,0,0,1,.029.1c0,.05-.005.077,0,.082a.768.768,0,0,1-.283.064c-.971.146-2.017.245-3,.344,2.389-3.665,4.7-7.267,6.667-11.009a1.046,1.046,0,0,1,.153-.157h0l.2-.031c.509-.076,1.457-.217,1.457-1.276,0-1.371-4.078-2.769-4.419-2.769a1.484,1.484,0,0,0-1.278,1.041c-.033.069-.065.136-.122.24-.941,1.985-2.055,3.909-3.132,5.772-.124.218-.188.218-.275.218s-.083,0-.267-.149l-.061-.049c-.275-.229-.507-.462-.807-.762-.206-.206-.206-.245-.206-.332a.576.576,0,0,1,.131-.322,60.63,60.63,0,0,0,4.338-7.415c.035-.048.058-.052.2-.076l.117-.012c.376-.038,1.374-.139,1.374-1.149,0-1.376-3.94-2.87-4.269-2.87a1.466,1.466,0,0,0-1.312,1.107,72.667,72.667,0,0,1-3.864,7.638.54.54,0,0,1-.1.128c-.024,0-.052-.015-.156-.09-.061-.052-.131-.117-.206-.187a2.7,2.7,0,0,0-1.626-.924c-1.274,0-2.466,2.214-2.466,3.22a1.825,1.825,0,0,0,.8,1.421c1.393,1.116,3.791,3.35,5.269,4.828.265.308.341.459.341.671a1.381,1.381,0,0,1-.166.625c-.271.422-.531.856-.792,1.29s-.518.864-.8,1.3c-.311.52-.529.641-1.25.684a14.6,14.6,0,0,1-1.487.1c-.8,0-2.015,0-2.015,1.166a22.009,22.009,0,0,0,.545,2.734l.081.356c.031.106.057.209.083.309.151.588.38,1.476,1.356,1.476a1.386,1.386,0,0,0,1.02-.5.656.656,0,0,0,.124-.172,1.487,1.487,0,0,1,.163-.287c.5-.042,1-.1,1.495-.159.709-.083,1.378-.163,2.041-.191.422-.022.535.062.553.08a.823.823,0,0,1,.1.511v1.751c-1.073-.862-3.81-1.06-3.845-1.06-1.1,0-1.209.956-1.288,1.655l-.013.132a4.83,4.83,0,0,0-.064.526c-.01.128-.021.266-.043.415A59.815,59.815,0,0,1,.135,151.76a2.415,2.415,0,0,0-.135.762c0,1.478,2.621,1.817,3.017,1.817a1.646,1.646,0,0,0,1.635-1.37,83.872,83.872,0,0,0,2.371-10.645c.015-.075.05-.252.053-.271a.767.767,0,0,1,.178-.088,1.654,1.654,0,0,0,.508-.274v6.319c0,1.041-.038,2.092-.075,3.11s-.076,2.092-.076,3.157c0,2.13.881,2.519,2.616,2.519,1.991,0,2.566-.565,2.566-2.519,0-1.058-.025-2.1-.05-3.149s-.049-2.07-.049-3.117V137.782c0-.592.091-.761.768-.9.422-.084.848-.132,1.259-.177l.164-.019c.265-.04.323-.05.479.323a1.739,1.739,0,0,0,1.724,1.389c.579,0,2.917-.35,2.917-1.967,0-.019,0-.041,0-.063.15.239.341.508.571.821l.131.179c.632.925,1.286,1.882,1.85,2.819a1.575,1.575,0,0,0,1.445.969c.651,0,3.116-1.007,3.116-2.368a6.844,6.844,0,0,0-1.38-2.793l-.611-.9c-1.008-1.444-1.562-2.24-2.477-2.24-.76,0-2.655.9-3.009,2.048-.227-.688-.555-1.569-.966-2.645l-.025-.067a2.5,2.5,0,0,0,.695.086c.964,0,1.915-.025,2.86-.051.92-.025,1.835-.049,2.75-.049h3c.635,0,.739.1.739.741v9.427a2.28,2.28,0,0,0-1.591-1.016,1.821,1.821,0,0,0-1.233.708l-.1.105a53.774,53.774,0,0,1-5.943,5.014.321.321,0,0,1-.041.025.935.935,0,0,1-.1-.245c-.439-1.659-.983-3.414-1.62-5.22l-.12-.333c-.6-1.684-.937-2.612-2.106-2.612-.6,0-2.817.48-2.817,1.917a3.234,3.234,0,0,0,.3,1.147,48.515,48.515,0,0,1,1.97,6.4c.164.823.416,1.576,1.67,1.732h.009c.114.012.123.013.293.31.018.033,1.925,3.353,3.136,3.353,1.091,0,1.208-1.07,1.246-1.422l.013-.112a.568.568,0,0,0,.005-.082c0-.043,0-.088-.014-.069a2.79,2.79,0,0,1,.509-.46c2.136-1.663,4.4-3.47,6.542-5.449v2.648a5.209,5.209,0,0,1-.256,2.329c-.152.227-.521.488-2.035.488-.555,0-1.1-.036-1.532-.065-.3-.02-.554-.036-.722-.036a1.512,1.512,0,0,0-1.565,1.717,8.26,8.26,0,0,0,.513,2.587,2.279,2.279,0,0,0,2.313,1.085h.241c2.506,0,8.376,0,8.376-5.327,0-.506-.025-1.023-.05-1.548s-.05-1.038-.05-1.56v-6.794a47.777,47.777,0,0,0,6.031,9.564c.986,1.235,2.336,2.707,3.172,2.707.968,0,3.167-1.638,3.167-2.82a2.016,2.016,0,0,0-.584-1.26,55.268,55.268,0,0,1-5.888-7.231" transform="translate(0 -110.044)" fill="#009f39"/>
      <path id="パス_4913" data-name="パス 4913" d="M128.243,124.442a18.21,18.21,0,0,0-13.183-5.05,21.084,21.084,0,0,0-21.146,21.471,16.538,16.538,0,0,0,1.577,7.275c1.225,2.354,3.706,4.87,7,4.87,2.36,0,4.574-1.275,6.77-3.9,5.511-6.654,6.916-17.233,7.264-22.951l.006-.118c.059-1.187.182-1.308.684-1.308a10.462,10.462,0,0,1,1.909.421c5.209,1.6,8.446,6.239,8.446,12.1,0,6.511-4.366,11.488-11.4,12.989-.06.014-.128.025-.2.039-.47.087-1.573.29-1.573,1.311,0,1.232,1.978,3.923,3.467,3.923,1.358,0,4.655-1.505,5.466-1.931a18.17,18.17,0,0,0,10.021-16.531,17.206,17.206,0,0,0-5.1-12.6l-.007-.007M102.49,147.269c-2.277,0-3.043-4.537-3.043-6.606a15.456,15.456,0,0,1,9.848-14.826l.21-.081a6.756,6.756,0,0,1,1.348-.423c.114,0,.138.184.138.339a41.984,41.984,0,0,1-2.96,14.551c-1.052,2.724-3.486,7.046-5.542,7.046" transform="translate(-31.163 -112.774)" fill="#009f39"/>
      <path id="パス_4914" data-name="パス 4914" d="M237.094,112.509l-.012-.014-.861-1.029c-1.22-1.4-1.775-1.967-2.353-1.967-.788,0-2.867,1.316-2.867,2.368a1.592,1.592,0,0,0,.559,1.082,49.629,49.629,0,0,1,3.243,4.2l.084.112a1.38,1.38,0,0,0,1.135.689c.9,0,2.867-1.466,2.867-2.569,0-.512-.48-1.2-1.629-2.658Z" transform="translate(-76.651 -109.498)" fill="#009f39"/>
      <path id="パス_4915" data-name="パス 4915" d="M212.926,123.572a7.908,7.908,0,0,0-1.14.056c-.469.063-1.8.095-3.974.095l-6,.049a.4.4,0,0,1-.439-.439c0-.2.143-1.761.2-2.159.108-1.514.215-2.408.295-3.007.115-.766.115-.766.46-1.034a1.8,1.8,0,0,0,.75-1.321c0-.947-.879-1.134-1.3-1.224l-.123-.026c-.172-.037-.474-.107-.839-.192a25.5,25.5,0,0,0-3.356-.675,1.128,1.128,0,0,0-.826.328,1.892,1.892,0,0,0-.388,1.4v.093c0,.884-.353,6.948-.444,7.628a.835.835,0,0,1-.8.733l-8.51.05c-.823,0-1.634-.012-2.444-.025s-1.634-.025-2.464-.025c-1.765,0-1.765,1.445-1.765,2.72,0,1.163,0,2.919,1.815,2.919.27,0,.909-.033,1.669-.073,1.08-.057,2.423-.128,3.243-.128l7.858-.049a.305.305,0,0,1,.339.289,5.018,5.018,0,0,1-.1.771l-.031.18c-1.886,8.077-6.324,15.249-12.2,19.7l-.086.071a1.638,1.638,0,0,0-.753,1.291c0,1.166,2.5,3.22,3.618,3.22,1.93,0,7.488-7.062,7.541-7.133,3.71-4.937,6.064-10.336,7.634-17.524.158-.842.522-.912.856-.912l6.2-.051h.511a6.987,6.987,0,0,1,1.88.111.959.959,0,0,1,.051.429,100.6,100.6,0,0,1-1.538,12.547c-.914,4.321-2.029,5.089-4.71,5.089-.64,0-1.2-.048-1.686-.09-.376-.033-.7-.06-.968-.06a1.373,1.373,0,0,0-1.464,1.466,8.408,8.408,0,0,0,1.088,2.986,2.091,2.091,0,0,0,2.128,1.238c2.345,0,5.571-.338,7.619-1.946,2.281-1.782,3.1-5.743,3.6-8.114.726-3.636,1.133-7.338,1.527-10.917l.137-1.245c.02-.256.087-.859.16-1.52.146-1.319.243-2.205.243-2.492a3.782,3.782,0,0,0-3.067-3.07" transform="translate(-59.664 -110.887)" fill="#009f39"/>
      <path id="パス_4916" data-name="パス 4916" d="M226.673,114.295c-.788,0-2.867,1.316-2.867,2.368a1.537,1.537,0,0,0,.414.961l.1.124a51.6,51.6,0,0,1,3.269,4.17,1.387,1.387,0,0,0,1.189.823c.916,0,2.917-1.466,2.917-2.569,0-.817-4.041-5.878-5.02-5.878" transform="translate(-74.263 -111.086)" fill="#009f39"/>
      <path id="パス_4917" data-name="パス 4917" d="M301.353,139.628c-.309,0-.96.022-1.763.049-1.247.043-2.957.1-4.246.1H272.356c-1.326,0-3.052-.059-4.311-.1-.8-.027-1.441-.049-1.749-.049-1.922,0-2.015,1.128-2.015,3.121,0,1.123,0,2.82,1.915,2.82,1.039,0,2.089-.039,3.1-.076s2.041-.075,3.056-.075h22.987c1.014,0,2.052.038,3.056.075s2.065.076,3.1.076c1.865,0,1.865-1.7,1.865-2.82,0-1.88,0-3.121-2.015-3.121" transform="translate(-87.693 -119.473)" fill="#009f39"/>
      <path id="パス_4918" data-name="パス 4918" d="M390.551,127.155c-1.057,0-2.114.025-3.171.05s-2.093.049-3.139.049h-7.412c-.643,0-.74-.652-.74-1.04,0-1.226.013-2.452.025-3.678s.025-2.462.025-3.692v-.5c0-.878.017-.9.305-1.184a1.285,1.285,0,0,0,.4-.921c0-.573-.371-.987-1.1-1.232a.615.615,0,0,0-.09-.023c-.539-.1-3.56-.463-4.176-.463a1.1,1.1,0,0,0-1.213,1.165,3.133,3.133,0,0,0,.062.736c.125.977.188,3.764.188,8.288v.953c0,1.475-.341,1.591-.789,1.591H358.951c-1.009,0-2.043-.037-3.043-.074-1.031-.038-2.1-.076-3.167-.076-1.815,0-1.815,1.369-1.815,2.82,0,1.369,0,2.92,1.865,2.92,1.032,0,2.065-.025,3.1-.05s2.042-.05,3.064-.05h10.516a.569.569,0,0,1,.539.589,4.832,4.832,0,0,1-.166,1.044.714.714,0,0,0-.023.092c-1.421,7.853-5.452,13.27-12.017,16.118-.623.249-1.666.664-1.666,1.6,0,1.163,2.891,3.572,3.969,3.572.275,0,.92,0,4.8-2.684,6.143-4.477,9.755-10.923,10.736-19.168.122-1.161.556-1.161.843-1.161h7.763c1.046,0,2.093.025,3.139.05s2.114.05,3.171.05c1.865,0,1.865-1.7,1.865-2.72,0-1.787,0-2.969-1.865-2.969" transform="translate(-116.443 -111.161)" fill="#009f39"/>
      <path id="パス_4919" data-name="パス 4919" d="M467.427,149.977c-.3,0-.629.013-.963.025s-.666.025-.99.025a14.56,14.56,0,0,1-5.5-.8c-2.617-1.1-3.549-4-3.549-6.358a19.2,19.2,0,0,1,2.67-9.351,14.707,14.707,0,0,1,8.492-7.265,27.794,27.794,0,0,1,8.308-.97c1.226,0,2.616,0,2.616-1.767a17.012,17.012,0,0,0-.318-2.86c-.1-.507-.312-1.563-1.5-1.563a3.236,3.236,0,0,0-.764.11c-2.456.428-5.39.775-8.227,1.111-1.114.132-2.2.26-3.205.388-6.935.813-14.33,1.642-21.791,2.052l-.589.026c-1.533.064-2.744.115-2.744,1.74,0,.049.19,4.875,2.115,4.875a2.494,2.494,0,0,0,.669-.111c.07-.019.14-.037.246-.06,2.522-.644,5.154-1.05,7.681-1.439.325-.04,1-.132,1.824-.245,1.687-.231,4.65-.635,5.691-.731l-.151.151-.305.3a23.521,23.521,0,0,0-6.5,15.959c0,8.252,5.642,12.8,15.887,12.8a1.79,1.79,0,0,0,1.953-1.135,10.879,10.879,0,0,0,.763-3.54c0-1.365-1.272-1.365-1.815-1.365" transform="translate(-145.791 -112.674)" fill="#009f39"/>
      <path id="パス_4920" data-name="パス 4920" d="M494.777,129.21c-.788,0-2.867,1.316-2.867,2.368a1.625,1.625,0,0,0,.453,1l.08.1c.016.021.033.04.05.059a42.429,42.429,0,0,1,3.218,4.018l.091.12a1.46,1.46,0,0,0,1.128.731c.915,0,2.917-1.466,2.917-2.569,0-.81-4.081-5.828-5.07-5.828" transform="translate(-163.225 -116.024)" fill="#009f39"/>
      <path id="パス_4921" data-name="パス 4921" d="M488.72,135.449c-1.237-1.447-1.972-2.266-2.687-2.266-.775,0-2.817,1.316-2.817,2.368a1.537,1.537,0,0,0,.436.922c.03.038.058.072.077.1a.59.59,0,0,0,.047.062c1.123,1.319,2.284,2.683,3.241,4.022a1.5,1.5,0,0,0,1.219.875c.939,0,2.917-1.44,2.917-2.569,0-.557-.523-1.345-2-3.01Z" transform="translate(-160.34 -117.339)" fill="#009f39"/>
      <path id="パス_4922" data-name="パス 4922" d="M565.012,120.544c-.849,0-2.55.082-4.051.155-.837.041-1.612.078-2.143.1l-.935.047c-1.77.091-5.915.3-6.194.3a.646.646,0,0,1-.739-.69V120.1c0-1.073,0-2.541.049-3.581a1.759,1.759,0,0,1,.507-1.414,1.39,1.39,0,0,0,.5-1.021c0-1.175-1.765-1.294-3.635-1.419-.406-.027-.79-.053-.963-.086l-.013,0a13.67,13.67,0,0,0-1.511-.159,1.2,1.2,0,0,0-1.263,1.215,1.758,1.758,0,0,0,.07.565,47.57,47.57,0,0,1,.531,6.4c0,.6-.126.887-1.275.941-1.6.085-3.2.181-4.8.276-3.081.185-6.266.377-9.415.476-1.31.047-2.442.086-2.442,1.615a11.355,11.355,0,0,0,.367,2.706l.032.144c.13.589.348,1.574,1.666,1.574a4.071,4.071,0,0,0,.81-.06c1.885-.314,13.5-1.6,14.816-1.6.269,0,.483,0,.487,2.228-.068.007-.153,0-.188.006-.01,0-.061,0-.07,0-5.08.159-7.353,5-7.353,9.737,0,4.159,1.979,8.637,6.322,8.637a4.508,4.508,0,0,0,1.634-.3,19.469,19.469,0,0,1-3.856,5.537l-.156.15c-.637.608-1.089,1.076-1.089,1.573,0,1.543,4.191,2.368,4.419,2.368,2.67,0,7.874-9.371,7.874-17.36a16.137,16.137,0,0,0-1.59-7.2c-.42-.736-.428-.8-.418-3.225l0-1.41c0-.393.1-.883.415-.98.621-.189,5.75-.311,7.386-.311,1.469,0,3.258.082,4.564.142.727.033,1.291.058,1.6.058a1.453,1.453,0,0,0,1.127-.387,3.613,3.613,0,0,0,.635-2.583c0-1.256,0-2.82-1.715-2.82m-17.54,18.012c0,.634-.113,3.8-2.342,3.8-1.987,0-2.142-3.023-2.142-3.949,0-1.154.4-4.149,2.242-4.149,1.773,0,2.242,2.812,2.242,4.3" transform="translate(-174.964 -110.466)" fill="#009f39"/>
      <path id="パス_4923" data-name="パス 4923" d="M606.092,154.469A7.532,7.532,0,1,0,613.616,162a7.537,7.537,0,0,0-7.524-7.532m0,11.481A3.949,3.949,0,1,1,610.037,162a3.951,3.951,0,0,1-3.944,3.949" transform="translate(-198.616 -124.386)" fill="#009f39"/>
    </g>
  </g>
</svg>
