<svg xmlns="http://www.w3.org/2000/svg" width="215.111" height="237.091" viewBox="0 0 215.111 237.091">
  <g id="concept_item2_text_dt" transform="translate(-1113 -1243.756)">
    <g id="グループ_3086" data-name="グループ 3086" transform="translate(8.52 -0.979)">
      <path id="パス_6223" data-name="パス 6223" d="M6.195-4.59a9.6,9.6,0,0,1,2.88-.495c1.6,0,2.655.84,2.655,2.13A1.541,1.541,0,0,1,10.215-1.29,1.037,1.037,0,0,1,9.27-1.8a2.89,2.89,0,0,1-.21-1.32,5.2,5.2,0,0,1,.03-.66,6.328,6.328,0,0,1-1.665.66A5.011,5.011,0,0,0,7.68-1.2,2.422,2.422,0,0,0,10.14.465a3.332,3.332,0,0,0,3.4-3.42c0-2.13-1.785-3.66-4.29-3.66a10.4,10.4,0,0,0-3.06.42v-1.95c.57-.06.87-.105,1.365-.2,1.035-.18,1.32-.225,1.59-.27l-.06-1.68a16.729,16.729,0,0,1-2.9.57v-.96a9.209,9.209,0,0,1,.09-1.635H4.41A10.278,10.278,0,0,1,4.5-10.59v.99c-.165,0-.24,0-.6.015-.21.015-.375.015-.525.015A9.2,9.2,0,0,1,1.56-9.7l.015,1.68A2.812,2.812,0,0,1,1.89-8.04c.045,0,.18,0,.375.015s.6.015.825.015c.375,0,.585,0,.81-.015.5-.03.5-.03.615-.03l.015,2.31A8.025,8.025,0,0,0,2.34-4.47,3.2,3.2,0,0,0,1.05-2.25,2.2,2.2,0,0,0,1.875-.555,4.672,4.672,0,0,0,4.71.51,1.318,1.318,0,0,0,6.09-.36a4.466,4.466,0,0,0,.12-1.275ZM4.515-1.86c0,.5-.075.63-.33.63a1.8,1.8,0,0,1-.96-.33c-.345-.21-.5-.435-.5-.69,0-.54.66-1.2,1.785-1.8ZM14.2-8.19a12.722,12.722,0,0,0-2.97-3.075l-1.41.945a12.809,12.809,0,0,1,3,3.24Zm2.4-2.835a7.167,7.167,0,0,1,.06.96c.06,4.155.33,6.33.945,7.83C18.21-.8,19.02-.06,20.025-.06,21.3-.06,22.17-1.275,22.95-4.2a7.4,7.4,0,0,1-1.5-1.365,11.058,11.058,0,0,1-.8,2.715c-.18.42-.39.645-.615.645-.48,0-.96-.96-1.215-2.52a28.07,28.07,0,0,1-.285-4.02,17.438,17.438,0,0,1,.12-2.28ZM24.18-9.6a13.093,13.093,0,0,1,2.13,3.69,15.206,15.206,0,0,1,.96,4.335l1.86-.705a14.955,14.955,0,0,0-3.375-8.07Zm8.88-2.385a7.46,7.46,0,0,1,.06,1.02c0,.21,0,.525-.015.975-.09,3.765-.12,5.265-.12,6.045,0,2.01.435,3.165,1.47,3.855A4.89,4.89,0,0,0,37.08.57a5.677,5.677,0,0,0,4.5-1.905A9.24,9.24,0,0,0,43.365-5.16,6.478,6.478,0,0,1,41.55-6.315a10.056,10.056,0,0,1-.69,2.52A3.859,3.859,0,0,1,37.23-1.23a2.375,2.375,0,0,1-2.01-.78,4.169,4.169,0,0,1-.39-2.415c0-1.065.09-4.11.15-5.505a13.712,13.712,0,0,1,.18-2.025ZM46.98-7.71a5.636,5.636,0,0,1,.66-.045,52.273,52.273,0,0,0,5.325-.36,16.588,16.588,0,0,0,1.62,2.73,6.969,6.969,0,0,0-2.6-.45,5.734,5.734,0,0,0-3.825,1.08,2.918,2.918,0,0,0-1.08,2.235A2.8,2.8,0,0,0,47.97-.5,6.189,6.189,0,0,0,52.14.645,15.485,15.485,0,0,0,56.9-.165l-.24-1.92A10.422,10.422,0,0,1,52.14-1.08c-2.04,0-3.15-.54-3.15-1.515,0-1.065,1.2-1.68,3.24-1.68a7.518,7.518,0,0,1,2.37.345,2.65,2.65,0,0,1,1.035.645l1.74-.8c-.525-.7-1.185-1.68-1.59-2.37-.15-.27-.495-.9-1.035-1.9q1.867-.36,2.205-.45c.51-.1.675-.15,1.065-.21L57.81-10.8a22.824,22.824,0,0,1-3.675.885,12.568,12.568,0,0,1-.825-2.4l-1.935.255c.075.12.72,1.71.975,2.37-.93.12-2.925.255-4.05.255a10.283,10.283,0,0,1-1.455-.075ZM63.39-9.825a8.386,8.386,0,0,1,.96-.09,37.04,37.04,0,0,0,4.185-.33,28.885,28.885,0,0,1-4.605,3.69,7.82,7.82,0,0,1-.855.12c-.3.045-.495.06-.57.075-.36.045-.99.09-1.29.09a1.657,1.657,0,0,1-.24-.015l.18,1.83a5.119,5.119,0,0,1,.69-.15c1-.15,1.815-.255,2.415-.33.42-.06.975-.12,1.65-.21.72-.09,1.2-.165,1.845-.285a5.142,5.142,0,0,0-1.6,1.14,2.868,2.868,0,0,0-.81,1.95A2.812,2.812,0,0,0,67.455.285a9.791,9.791,0,0,0,2.79.42h.195c.42-.015.66-.015.765-.015.21,0,.39,0,.555.015l-.075-1.9a5.821,5.821,0,0,1-1.425.135c-1.935,0-3.015-.54-3.015-1.515,0-.81.825-1.725,2.04-2.28a10.133,10.133,0,0,1,4.17-.735h.45L73.8-7.35a2.484,2.484,0,0,1-.5.06c-.135.015-.525.045-1.065.105-.345.03-1.035.075-1.98.15-1.815.15-2.9.255-3.645.36a43.023,43.023,0,0,0,4.125-3.27,6.414,6.414,0,0,1,.87-.735l-.975-1.245a5.167,5.167,0,0,1-1.41.24c-1.17.09-3.1.165-4.455.165A10.126,10.126,0,0,1,63.3-11.6Zm20.28.21a3.278,3.278,0,0,1,1.515.45,3.716,3.716,0,0,1,1.845,3.33,4.2,4.2,0,0,1-2.085,3.75,7.972,7.972,0,0,1-2.985.825A4.785,4.785,0,0,1,82.875.5a9.807,9.807,0,0,0,2.355-.63,5.779,5.779,0,0,0,3.645-5.6c0-3.375-2.34-5.565-5.94-5.565a6.733,6.733,0,0,0-5.16,2.1,6.443,6.443,0,0,0-1.65,4.365c0,2.415,1.23,4.155,2.94,4.155,1.23,0,2.19-.885,3.045-2.82A21.7,21.7,0,0,0,83.67-9.615ZM81.84-9.6A19.769,19.769,0,0,1,80.6-4.53c-.54,1.29-1.05,1.92-1.545,1.92-.66,0-1.185-.975-1.185-2.205a5.022,5.022,0,0,1,2.04-4.05A3.818,3.818,0,0,1,81.84-9.6Zm21.645,8.01c-.21-.12-.285-.18-.54-.345a13.417,13.417,0,0,0-4.11-2.115c-.015-.36-.015-.36-.06-1.815.585-.03.81-.045,1.02-.06,1.125-.105,1.8-.18,2.025-.21.345-.045.72-.09.975-.105l-.045-1.65a11.1,11.1,0,0,1-1.86.33c-1.38.15-1.38.15-2.13.2-.015-.93-.015-1.11-.03-1.485,1.32-.075,1.9-.12,3.225-.3a9.382,9.382,0,0,1,1.185-.135l-.075-1.665a20.294,20.294,0,0,1-4.32.57,9.3,9.3,0,0,1,.1-1.83h-1.9a10.7,10.7,0,0,1,.075,1.89c-.375.015-.885.03-1.125.03a19.724,19.724,0,0,1-4.035-.315L91.845-8.94h.24c.045,0,.165,0,.33.015,1,.075,2.94.15,3.675.15.225,0,.465,0,.945-.015.015.855.015,1.365.015,1.5-.42.015-.93.03-1.23.03a19.342,19.342,0,0,1-3.5-.255l-.03,1.62c.225,0,.375,0,.57.015,1.245.09,1.8.105,2.715.105.315,0,.78-.015,1.5-.03.015.6.015.6.03.81v.33a2.89,2.89,0,0,1,.015.36,7.837,7.837,0,0,0-1-.06c-2.52,0-4.005.96-4.005,2.6,0,1.485,1.26,2.34,3.45,2.34A3.994,3.994,0,0,0,98.04-.075,2.34,2.34,0,0,0,98.88-2.1v-.165a6.675,6.675,0,0,1,.81.375A10.121,10.121,0,0,1,102.465.165Zm-6.33-1.155v.36a1.9,1.9,0,0,1-.18.96,1.558,1.558,0,0,1-1.305.48c-1.065,0-1.71-.345-1.71-.9,0-.645.735-1.035,1.95-1.035A5.265,5.265,0,0,1,97.155-2.745Zm21.33,1.155c-.21-.12-.285-.18-.54-.345a13.417,13.417,0,0,0-4.11-2.115c-.015-.36-.015-.36-.06-1.815.585-.03.81-.045,1.02-.06,1.125-.105,1.8-.18,2.025-.21.345-.045.72-.09.975-.105l-.045-1.65a11.1,11.1,0,0,1-1.86.33c-1.38.15-1.38.15-2.13.2-.015-.93-.015-1.11-.03-1.485,1.32-.075,1.9-.12,3.225-.3a9.382,9.382,0,0,1,1.185-.135l-.075-1.665a20.294,20.294,0,0,1-4.32.57,9.3,9.3,0,0,1,.1-1.83h-1.9a10.7,10.7,0,0,1,.075,1.89c-.375.015-.885.03-1.125.03a19.724,19.724,0,0,1-4.035-.315l-.015,1.665h.24c.045,0,.165,0,.33.015,1,.075,2.94.15,3.675.15.225,0,.465,0,.945-.015.015.855.015,1.365.015,1.5-.42.015-.93.03-1.23.03a19.342,19.342,0,0,1-3.5-.255l-.03,1.62c.225,0,.375,0,.57.015,1.245.09,1.8.105,2.715.105.315,0,.78-.015,1.5-.03.015.6.015.6.03.81v.33a2.89,2.89,0,0,1,.015.36,7.837,7.837,0,0,0-1-.06c-2.52,0-4.005.96-4.005,2.6,0,1.485,1.26,2.34,3.45,2.34a3.994,3.994,0,0,0,2.475-.645,2.34,2.34,0,0,0,.84-2.025v-.165a6.675,6.675,0,0,1,.81.375A10.121,10.121,0,0,1,117.465.165Zm-6.33-1.155v.36a1.9,1.9,0,0,1-.18.96,1.558,1.558,0,0,1-1.305.48c-1.065,0-1.71-.345-1.71-.9,0-.645.735-1.035,1.95-1.035A5.265,5.265,0,0,1,112.155-2.745Z" transform="translate(1150 1432.459)" fill="#371606"/>
      <path id="パス_6222" data-name="パス 6222" d="M12.66-7.88v1.12H11.64a8.011,8.011,0,0,1-1.32-.08v1.78a8.011,8.011,0,0,1,1.26-.08h5.18c.62,0,1.02.02,1.5.06a12.673,12.673,0,0,1-.06-1.38V-7.88a4.594,4.594,0,0,1,1.18.1V-9.7a4.409,4.409,0,0,1-1.18.1v-1.36a13.891,13.891,0,0,1,.06-1.4c-.42.04-.88.06-1.56.06H14.5v-1.06h2.58a15.309,15.309,0,0,1,2.1.1V-15.3a15.057,15.057,0,0,1-2.1.12H14.52v-.12a10.033,10.033,0,0,1,.1-1.46H12.36a8.1,8.1,0,0,1,.1,1.46v.12H9.92a17.164,17.164,0,0,1-1.94-.08c.02.16.02.22.04.36l-1.56-.42a18.8,18.8,0,0,1-.9,3.86v-3.38a12.2,12.2,0,0,1,.1-1.98H3.52a12.95,12.95,0,0,1,.1,2v4.74H2.54a9.3,9.3,0,0,1-1.64-.1v2.14a8.377,8.377,0,0,1,1.64-.1h.82A14,14,0,0,1,.48-2.82,4.973,4.973,0,0,1,1.66-1.08a13.014,13.014,0,0,0,2.1-4.14c-.06.66-.08,1.48-.12,2.46V-.32a15.242,15.242,0,0,1-.12,2.06H5.66a14.14,14.14,0,0,1-.1-2.08v-3.3c0-.68-.04-1.56-.1-2.24a11.712,11.712,0,0,0,1.22,1.9c.08-.16.12-.28.16-.34a3.424,3.424,0,0,1,.26-.54,4.248,4.248,0,0,1,.5-.78,9.4,9.4,0,0,1-2-2.5h.52a8.779,8.779,0,0,1,1.4.08v-2.1a8.779,8.779,0,0,1-1.4.08H5.56V-11.3l1.4.5a22.441,22.441,0,0,0,1.06-3.92c.02.6.04,1.16.04,1.9,0,1.08-.06,3.48-.1,4.98a35.134,35.134,0,0,1-.4,3.92A10.839,10.839,0,0,1,6.16.16a7.3,7.3,0,0,1,1.7,1.28c1.2-2.3,1.7-4.72,1.94-9.32ZM9.86-9.6c.04-1.04.06-1.76.06-3.76h2.74v1.06h-.74a8.549,8.549,0,0,1-1.36-.08v1.76a8.98,8.98,0,0,1,1.28-.08h.82v1.1ZM16.4-7.88v1.12H14.5V-7.88Zm0-1.72H14.5v-1.1h1.9ZM.86-14.92A21.394,21.394,0,0,1,1.9-10.76l1.58-.52a29.822,29.822,0,0,0-1-4.18ZM9.92.06a10.531,10.531,0,0,1-.1,1.68H11.9V.88h4.38v.84h2.14a15.026,15.026,0,0,1-.1-1.82V-2.9a9.97,9.97,0,0,1,.08-1.46,10.569,10.569,0,0,1-1.5.08H11.4a11.315,11.315,0,0,1-1.56-.08,9.271,9.271,0,0,1,.08,1.4Zm1.98-2.6h4.38V-.9H11.9ZM32.44-14.02c.02-.16.02-.32.04-.62a30.618,30.618,0,0,0,5.86-.76l-1.28-1.68a14.71,14.71,0,0,1-2.8.66c-.78.1-2.62.24-3.28.24a4.184,4.184,0,0,1-.62-.04,4.373,4.373,0,0,1,.06.72,6.207,6.207,0,0,1-1.16,4.18,7.208,7.208,0,0,1,.96.82H27.68v-1.74h.52a10.09,10.09,0,0,1,1.42.08V-14.1a9.461,9.461,0,0,1-1.46.08H24.18a5.255,5.255,0,0,0,.02-.6,21.233,21.233,0,0,0,5.52-.82L28.5-17.12a9.045,9.045,0,0,1-2,.6,24.455,24.455,0,0,1-3.7.34c-.04,0-.2,0-.4-.02h-.34a7.81,7.81,0,0,1,.08.92c0,2.6-.44,3.98-1.6,5.16a10.313,10.313,0,0,1,1.66,1.7,6.047,6.047,0,0,0,.96-1.42c.04.7.04.98.04,1.94v4.02a17.774,17.774,0,0,1-.1,2.36,20.938,20.938,0,0,1,2.16-.08h1.16c-1.52.84-2.56,1.1-5.6,1.42A7.98,7.98,0,0,1,21.9,1.84,17.1,17.1,0,0,0,28.44-.34L26.82-1.6h6.26L31.46-.42A16.611,16.611,0,0,0,38.1,1.86,7.662,7.662,0,0,1,39.12-.18,14.354,14.354,0,0,1,33.36-1.6H34.8a20.028,20.028,0,0,1,2.14.08,14.9,14.9,0,0,1-.1-2.28V-7.88a20.37,20.37,0,0,1,.1-2.7c-.34.04-.4.04-.82.06v-1.72h1.32a8.807,8.807,0,0,1,1.52.1V-14.1a11.565,11.565,0,0,1-1.54.08Zm1.66,1.78v1.74H31.46a7.19,7.19,0,0,0,.7-1.74ZM25.2-10.5c-.72,0-1.06,0-1.72-.04a6.587,6.587,0,0,0,.52-1.7h1.68v1.74Zm.12,1.66h9.4v.86h-9.4Zm0,2.34h9.4v.84h-9.4Zm0,2.34h9.4v.86h-9.4Zm15.5.62A5.282,5.282,0,0,0,41.94-1.3C43.08,0,44.68.6,47.02.6a6.908,6.908,0,0,0,4.92-1.62,4.235,4.235,0,0,0,1.2-2.92,3.842,3.842,0,0,0-.96-2.76,4.208,4.208,0,0,0-2.86-1.34,4.937,4.937,0,0,0,1.94-.78,3.646,3.646,0,0,0,1.38-2.94c0-2.6-2.16-4.28-5.5-4.28a6.494,6.494,0,0,0-3.92,1.1,4.969,4.969,0,0,0-1.9,2.86l2.86.48a2.938,2.938,0,0,1,.84-1.54,3.334,3.334,0,0,1,2.18-.62c1.7,0,2.64.78,2.64,2.16,0,1.54-1.18,2.46-3.18,2.46a13.711,13.711,0,0,1-1.94-.1v2.48a17.078,17.078,0,0,1,2.14-.1,5.181,5.181,0,0,1,2.3.48,2.33,2.33,0,0,1,1.12,2.1c0,1.58-1.26,2.6-3.24,2.6a3.777,3.777,0,0,1-2.42-.78,2.6,2.6,0,0,1-.94-1.64ZM61.34.56A5.677,5.677,0,0,0,66.2-1.8a10.5,10.5,0,0,0,1.48-5.92,13.45,13.45,0,0,0-.78-4.64,5.6,5.6,0,0,0-1.32-2.02A5.809,5.809,0,0,0,61.36-16a5.687,5.687,0,0,0-5.1,2.78,11.776,11.776,0,0,0-1.22,5.54,13.385,13.385,0,0,0,.78,4.6,5.6,5.6,0,0,0,1.32,2.02A5.762,5.762,0,0,0,61.34.56Zm.02-2.32a2.93,2.93,0,0,1-2.56-1.3,9,9,0,0,1-1.02-4.76,7.463,7.463,0,0,1,1.32-4.86,2.69,2.69,0,0,1,2.24-1.02,2.891,2.891,0,0,1,2.18.84c.9.98,1.4,2.8,1.4,5.12,0,2.34-.5,4.2-1.4,5.14A2.907,2.907,0,0,1,61.36-1.76Zm9.68,1.7,1.02.82,12.6-16.12-1.04-.8ZM82.56.56a3.681,3.681,0,0,0,2.7-1.02,4.721,4.721,0,0,0,1.16-3.46,4.7,4.7,0,0,0-1.16-3.44,3.73,3.73,0,0,0-2.7-1.02,3.813,3.813,0,0,0-2.72,1.02,4.734,4.734,0,0,0-1.16,3.44A4.721,4.721,0,0,0,79.84-.46,3.7,3.7,0,0,0,82.56.56Zm0-7.24a1.441,1.441,0,0,1,1.28.62,3.531,3.531,0,0,1,.54,2c0,1.94-.62,2.94-1.82,2.94-1.18,0-1.82-1-1.82-2.84a3.478,3.478,0,0,1,.54-2.08A1.392,1.392,0,0,1,82.56-6.68Zm-9.42-.36a3.681,3.681,0,0,0,2.7-1.02A4.721,4.721,0,0,0,77-11.52a4.7,4.7,0,0,0-1.16-3.44,3.73,3.73,0,0,0-2.7-1.02c-2.44,0-3.88,1.66-3.88,4.46a4.753,4.753,0,0,0,1.16,3.46A3.7,3.7,0,0,0,73.14-7.04Zm0-7.24a1.539,1.539,0,0,1,1.46.9,4.391,4.391,0,0,1,.36,1.86c0,1.8-.66,2.8-1.82,2.8-1.18,0-1.82-1-1.82-2.84C71.32-13.3,71.98-14.28,73.14-14.28ZM98.68-7.2l.06,5.98v.36a12.734,12.734,0,0,1-.12,1.92h2.72c-.06-.56-.1-1.32-.12-2.3l-.1-9.28h2.06a20.565,20.565,0,0,1,2.3.08v-2.42a11.372,11.372,0,0,1-2.36.14H101.1l-.04-1.62v-.12a12.832,12.832,0,0,1,.08-1.7H98.5a14.418,14.418,0,0,1,.1,1.84l.02,1.6H91.7a11.622,11.622,0,0,1-2.52-.14v2.44a20.835,20.835,0,0,1,2.46-.1h5.48a19.028,19.028,0,0,1-2.68,3.3,21.285,21.285,0,0,1-6.3,4.34A5.794,5.794,0,0,1,89.8-.8a28.971,28.971,0,0,0,2.96-1.84A27.535,27.535,0,0,0,96.7-6.12a12.116,12.116,0,0,0,2.04-2.8c-.02.32-.06,1.34-.06,1.44Zm24.86-7.58a7.31,7.31,0,0,1-2.14.2h-9.18a14.087,14.087,0,0,1-2.56-.14v2.6a15.877,15.877,0,0,1,2.52-.12h9.52a13.857,13.857,0,0,1-6.06,8.72,16.272,16.272,0,0,1-4.38,2.04A7.36,7.36,0,0,1,113.02.9a19.473,19.473,0,0,0,7.44-5.1,18.8,18.8,0,0,0,4.1-8.38,3.008,3.008,0,0,1,.34-.9Z" transform="translate(1148 1460.772)" fill="#371606"/>
    </g>
    <g id="グループ_2827" data-name="グループ 2827" transform="translate(269.722 -185.353)">
      <path id="パス_4804" data-name="パス 4804" d="M3034.682,2890.236s59.923.645,90.743,45.047" transform="translate(-259.697 -2589.869) rotate(30)" fill="none" stroke="#009f3a" stroke-linecap="round" stroke-width="2"/>
    </g>
    <path id="パス_4801_-_アウトライン" data-name="パス 4801 - アウトライン" d="M165.274,0h.034l.034,0a1.386,1.386,0,0,1,1.345,1.307l.006.064,0,.064a4.106,4.106,0,0,0,0,.62,2.393,2.393,0,0,1-.111.92,5.955,5.955,0,0,1-.108.9c-.037.194-.07.364-.1.508.556-.067,1.028-.131,1.409-.193.608-.1,1.238-.213,1.872-.34.254-.054.483-.1.682-.149a2.308,2.308,0,0,0,.35-.1,1.753,1.753,0,0,1,.77-.112,1.778,1.778,0,0,1,.884.284,1.23,1.23,0,0,1,.578,1.067,2.1,2.1,0,0,1-.154.809,1.2,1.2,0,0,1-.976.73c-.177.025-.323.05-.436.074a2.119,2.119,0,0,1-.649.019,1.822,1.822,0,0,1-.532.082,1.272,1.272,0,0,1-.987.056,8.4,8.4,0,0,1-1.248.189l-1.337.111L165.521,7a3.755,3.755,0,0,1-.338.719,3.134,3.134,0,0,0-.247.456c-.076.179-.166.387-.269.619a3.9,3.9,0,0,1-.451.75,1.476,1.476,0,0,1-.343.787,1.4,1.4,0,0,1-.308.661,1.093,1.093,0,0,1-.345.628c-.024.094-.053.19-.089.289a3.088,3.088,0,0,1-.308.6.7.7,0,0,0-.106.223,1.114,1.114,0,0,1-.477.717,4.047,4.047,0,0,1-.563.894,5.662,5.662,0,0,0-.539.762,3.279,3.279,0,0,1-.471.677.643.643,0,0,0-.125.174,2.169,2.169,0,0,1-.425.6,1.278,1.278,0,0,1-.462.7,1.146,1.146,0,0,1-.21.351,1.462,1.462,0,0,1-.215.632,1.32,1.32,0,0,1-.449.445c-.056.186-.1.332-.145.442a1.344,1.344,0,0,1-.536.685,1.176,1.176,0,0,0-.192.161,1.781,1.781,0,0,1-.759.435,1.233,1.233,0,0,1-1.259-.339,2.1,2.1,0,0,1-.511-.792,1.552,1.552,0,0,1,.077-1.168,3.305,3.305,0,0,1,.8-1.03l.018-.016a6.074,6.074,0,0,0,.908-1.08l.069-.1.1-.073a1.02,1.02,0,0,0,.292-.313,2.413,2.413,0,0,1,.49-.642,10.286,10.286,0,0,0,.827-1.051c.274-.4.571-.842.882-1.314s.682-1.065,1.111-1.773a21.7,21.7,0,0,0,1.169-2.217c.19-.415.36-.836.51-1.258l-.022.006a2.227,2.227,0,0,1-.574.071,3.287,3.287,0,0,1-.482-.038,2.353,2.353,0,0,1-1.01.124,1.366,1.366,0,0,0-.188-.01c-.112,0-.247.008-.4.023a3.022,3.022,0,0,1-.979.055,1.907,1.907,0,0,1-.879.141c-.083-.01-.18-.017-.29-.02a2.046,2.046,0,0,1-.828.1,1.03,1.03,0,0,1-.7.016,1.268,1.268,0,0,0-.182.028l-.029.006-.029,0c-.267.035-.617.071-1.042.106a2.381,2.381,0,0,1-.769.11c-.123,0-.257-.006-.4-.019a2.362,2.362,0,0,1-1.269-.4l-.057-.044-.047-.054a2.468,2.468,0,0,1-.438-.711,1.186,1.186,0,0,1,.215-1.264,2.012,2.012,0,0,1,.939-.566,3.671,3.671,0,0,1,.912-.171l.081,0a1.67,1.67,0,0,1,.84.218,3.961,3.961,0,0,0,1.029.156c.483.017.945.013,1.373-.013l2.029-.124c.892-.055,1.62-.1,2.164-.138.438-.03,1.035-.1,1.779-.2l.038-.112a7.194,7.194,0,0,0,.143-.918c.035-.362.052-.645.052-.841V2.627l.048-.126a.386.386,0,0,0,.014-.142,1.229,1.229,0,0,1-.009-.489q-.025-.1-.043-.2a1.087,1.087,0,0,1,.3-.932,2.3,2.3,0,0,1,.439-.443A1.47,1.47,0,0,1,165.274,0Zm-.108,2.468a.9.9,0,0,0,.028-.3q-.006-.085-.01-.169l-.033.088.008.083A2.277,2.277,0,0,1,165.166,2.468ZM154.624,6.4q-.1-.028-.189-.06l-.089-.031-.079-.052a.172.172,0,0,0-.106-.028h-.016a2.188,2.188,0,0,0-.533.105c-.042.013-.079.026-.11.039l.011.016a1.83,1.83,0,0,0,.444.08c.1.009.186.013.265.013a.849.849,0,0,0,.29-.032Zm2.613,12.2c.031-.082.083-.241.17-.546q-.068.065-.134.124a1.892,1.892,0,0,0-.445.538.36.36,0,0,0-.029.089.521.521,0,0,0,.06.111A2.711,2.711,0,0,1,157.237,18.6ZM124.52.359h.057a1.231,1.231,0,0,1,1.138.534,2.309,2.309,0,0,1,.275.729,6.233,6.233,0,0,1,.113.991l0,.034v.034a6.01,6.01,0,0,0,.036,1.044,5.327,5.327,0,0,0,.118.66,4.7,4.7,0,0,1,.134.739,2.277,2.277,0,0,0,.154.579c.166.366.342.764.525,1.182l.046.105.012.114a1.218,1.218,0,0,1-.786,1.42,2.317,2.317,0,0,1-1.007.1c-.563-.067-.958-.512-1.173-1.321-.089-.282-.206-.625-.347-1.02a6.336,6.336,0,0,1-.332-1.534c-.044-.462-.092-.828-.143-1.089a4.433,4.433,0,0,1-.073-1,3.615,3.615,0,0,1-.12-.951,1.405,1.405,0,0,1,.363-.892,1.578,1.578,0,0,1,.953-.454Zm-8.8.055a1.3,1.3,0,0,1,1.145.67,1.643,1.643,0,0,1,.269.95,1.083,1.083,0,0,1-.556.911c-.085.046-.229.127-.429.24a16.018,16.018,0,0,0-1.279,1.728q-.166.248-.313.465.177-.006.386-.017h.039c.413,0,.725,0,.927-.013l.109,0a7.6,7.6,0,0,1,1.08.107l.016,0a5.488,5.488,0,0,1,1.161.351,3.528,3.528,0,0,1,.937.524,2.111,2.111,0,0,1,.521.7,2.494,2.494,0,0,1,.29.711,3.817,3.817,0,0,1,.086.618c.01.179.015.346.015.5a1.708,1.708,0,0,1-.168.729c-.061.13-.147.323-.254.573l-.005.012a6.72,6.72,0,0,1-.5.95c-.136.2-.3.436-.494.693s-.6.74-1.221,1.444a16.168,16.168,0,0,1-1.551,1.569,2.1,2.1,0,0,1-.522.58c-.138.1-.284.217-.432.338-.165.135-.329.263-.485.38l-.054.04-.06.03a2.164,2.164,0,0,0-.267.151c-.059.041-.2.146-.564.414l-.023.017-.024.015a2.786,2.786,0,0,1-1.155.373,2.124,2.124,0,0,1-.268.017,2.008,2.008,0,0,1-1.287-.468l-.085-.069-.062-.09a3.722,3.722,0,0,0-.705-.828l-.074-.058-.057-.074a5.429,5.429,0,0,1-.515-.787,1.646,1.646,0,0,1-.129-1.215,1.39,1.39,0,0,1,1.2-.994,1.5,1.5,0,0,1,.276-.026,1.422,1.422,0,0,1,1.3.875c.246.315.425.556.547.733q.029.042.06.084l.228-.142c.209-.173.38-.311.508-.411.1-.082.218-.175.338-.278a2.531,2.531,0,0,1,.6-.526.987.987,0,0,0,.228-.179c.1-.12.212-.245.331-.374s.308-.321.577-.588l.069-.068.084-.049.039-.023a1.193,1.193,0,0,1,.454-.532,2.5,2.5,0,0,1,.334-.436,1.476,1.476,0,0,1,.449-.632,1.748,1.748,0,0,1,.264-.459,2.616,2.616,0,0,0,.175-.491,1.508,1.508,0,0,0,.093-.585.211.211,0,0,0-.036-.1,1.3,1.3,0,0,0-.4-.209c-.258-.1-.506-.183-.737-.249a1.287,1.287,0,0,0-.253-.039,1.438,1.438,0,0,1-.205.014,2.729,2.729,0,0,1-.489-.052,2.3,2.3,0,0,1-.634.009,1.952,1.952,0,0,0-.221-.016,1.837,1.837,0,0,1-.73.14h-.061a2.208,2.208,0,0,1-.727.045c-.015,0-.045,0-.095.008-.082.1-.147.191-.194.261-.1.144-.4.578-.927,1.327l-.021.029c-.881,1.132-1.85,2.414-2.879,3.811-1.041,1.413-2.1,2.776-3.136,4.05l-.024.03-.027.027a7.784,7.784,0,0,0-.642.718c-.108.294-.221.564-.338.806a1.209,1.209,0,0,0-.122.321,1.226,1.226,0,0,1-.738,1.006,1.558,1.558,0,0,1-.744.22.986.986,0,0,1-.409-.086l-.368-.169a1.153,1.153,0,0,1-.626-1.2,2.269,2.269,0,0,1,.3-1.06,6.2,6.2,0,0,1,.986-1.424c.33-.355.651-.724.955-1.1l.007-.008c.722-.862,1.554-1.888,2.474-3.053a1.592,1.592,0,0,1,.553-.6,1.872,1.872,0,0,1,.335-.54,2.11,2.11,0,0,1,.579-.741,1.142,1.142,0,0,1,.3-.389,1.108,1.108,0,0,1,.323-.459,1.524,1.524,0,0,1,.387-.569,1.515,1.515,0,0,0,.223-.243l.021-.031c-.331.1-.661.209-.986.336a5.6,5.6,0,0,0-.884.44l-.03.017a2.551,2.551,0,0,1-1.181.4,1.807,1.807,0,0,1-.95-.291,1.373,1.373,0,0,1-.618-1.339,1.34,1.34,0,0,1,.892-1.269,5.7,5.7,0,0,1,.731-.2,3.448,3.448,0,0,0,.591-.161,1.571,1.571,0,0,1,.7-.226,1.529,1.529,0,0,0,.311-.067l.057-.017.059-.008c.237-.031.49-.063.755-.095a2.492,2.492,0,0,1,.7-.232,2.944,2.944,0,0,0,.5-.132l.1-.036.106-.007a2.252,2.252,0,0,0,.583-.113,3.032,3.032,0,0,1,.645-.146,4.97,4.97,0,0,0,.357-.454q.236-.345.638-.937c.32-.472.441-.663.485-.741a5.248,5.248,0,0,0,.24-.5l.057-.132.1-.1a.077.077,0,0,0,.025-.041,1.35,1.35,0,0,1,.439-.7,1.258,1.258,0,0,0,.072-.19l.055-.177.105-.1,0-.008a1.272,1.272,0,0,1,.47-.679,2.174,2.174,0,0,1,.9-.558A2.993,2.993,0,0,1,115.723.414Zm-9.852,8.261a1.758,1.758,0,0,0,.364-.153,3.9,3.9,0,0,0-.425.115q0,.01,0,.019A.284.284,0,0,0,105.871,8.675ZM70.884.5c.036,0,.073,0,.11,0A1.646,1.646,0,0,1,72,.982a1.583,1.583,0,0,1,.566,1.46,1.578,1.578,0,0,1-.487.993.738.738,0,0,0-.136.152,3.85,3.85,0,0,0-.252.473l.057.008A2.834,2.834,0,0,1,72.9,4.6l.09.06.07.083a3.013,3.013,0,0,1,.474.708,2.267,2.267,0,0,1,.144.9,2.088,2.088,0,0,1-.418,1.234l-.021.03-.024.028a4.611,4.611,0,0,1-.465.462,2.806,2.806,0,0,1-.476.337c-.049.027-.183.1-.528.321a5.067,5.067,0,0,1-.785.408,1.489,1.489,0,0,1-.632.359A2.3,2.3,0,0,0,70,9.648c-.114.049-.268.122-.459.216a1.857,1.857,0,0,1-.583.339q-.074.213-.141.383.214-.027.451-.062c.648-.1,1.147-.19,1.482-.275.366-.093.658-.165.868-.212A5.581,5.581,0,0,0,72.4,9.76a1.643,1.643,0,0,1,.915-.311,1.253,1.253,0,0,1,.427.074,1.461,1.461,0,0,1,.858.781,1.313,1.313,0,0,1,.031,1.1,1.568,1.568,0,0,1-.878.773l-.028.011a9.389,9.389,0,0,1-1.618.423c-.587.108-1.038.2-1.34.269a5.321,5.321,0,0,1-1.021.144,9.646,9.646,0,0,0-1.14.142l-.036.005-.5.057q-.015.074-.024.135c-.03.188-.077.439-.145.766-.06.289-.134.729-.22,1.311a4.2,4.2,0,0,0,.131.918,2.027,2.027,0,0,0,.375.794.653.653,0,0,0,.44.263l.057.009.055.017a.548.548,0,0,0,.161.021,1.469,1.469,0,0,0,.449-.086,11.4,11.4,0,0,0,1.544-.7,14.885,14.885,0,0,0,1.722-1.261c.565-.48,1.147-.995,1.73-1.529s.971-.916,1.193-1.17l.028-.032.032-.029a3.107,3.107,0,0,1,.81-.558,1.335,1.335,0,0,1,.549-.116,1.645,1.645,0,0,1,.733.185,1.266,1.266,0,0,1,.761,1.208,1.487,1.487,0,0,1-.427,1.021,4.39,4.39,0,0,1-.54.444,1.3,1.3,0,0,1-.646.436,1.508,1.508,0,0,1-.584.533,4.1,4.1,0,0,1-.591.549c-.2.151-.4.286-.587.4a1.156,1.156,0,0,0-.272.228,2.8,2.8,0,0,1-.658.529,2.182,2.182,0,0,1-.863.6,4.668,4.668,0,0,1-.662.508,10.084,10.084,0,0,1-.987.565,2.429,2.429,0,0,1-.631.3c-.092.025-.226.058-.409.1a2.1,2.1,0,0,1-.888.263,3.22,3.22,0,0,1-1,.132,3.079,3.079,0,0,1-.985-.2,3.871,3.871,0,0,1-1.18-.639,3.313,3.313,0,0,1-.754-.908,6.588,6.588,0,0,1-.423-.874l-.021-.054-.012-.057a7.79,7.79,0,0,1-.183-1.634,8.694,8.694,0,0,1,.152-1.586q.056-.3.113-.611c-.174,0-.439.012-.792.026-.536.019-.917.028-1.17.028A1.335,1.335,0,0,1,62.3,12.9a2.027,2.027,0,0,1-.327-.847,1.718,1.718,0,0,1,.1-.914,1.628,1.628,0,0,1,.89-.82l.045-.019a7.919,7.919,0,0,0,.9-.416c.387-.209.557-.307.632-.353a2.539,2.539,0,0,1,.572-.256,3.638,3.638,0,0,0,.345-.126l.206-.088a1.526,1.526,0,0,1,.831-.487,1.607,1.607,0,0,1,.234-.135c.332-.9.569-1.525.723-1.892l.213-.5c-.087-.015-.18-.035-.279-.061A1.2,1.2,0,0,1,67,6.055a.939.939,0,0,1-.36-.069l-.057,0c-.209.021-.426.031-.644.031-.174,0-.4.008-.674.025a1.99,1.99,0,0,0-.561.116,1.353,1.353,0,0,1-.555.122,1.33,1.33,0,0,1-.67-.184,1.278,1.278,0,0,1-.657-.782,3.864,3.864,0,0,1-.088-.531A1.322,1.322,0,0,1,63.1,3.732a1.79,1.79,0,0,1,1.054-.5,5.963,5.963,0,0,1,.939-.079h.039l.039,0c.381.04.665.08.868.122a.754.754,0,0,0,.239.017,1.794,1.794,0,0,1,.7.058c.266.02.638.055,1.134.106l.029,0,.6.086q.064-.146.127-.309a7.573,7.573,0,0,1,.414-.894,4.14,4.14,0,0,1,.47-1.154A1.328,1.328,0,0,1,70.884.5Zm.2,1.711a.5.5,0,0,0-.117-.143,3.076,3.076,0,0,0-.24.649,2.252,2.252,0,0,1,.326-.366A1.171,1.171,0,0,0,71.089,2.206Zm-6.137,9.745-.3-.773-.031.017a9.432,9.432,0,0,1-1.047.486.958.958,0,0,0-.129.073.383.383,0,0,0,0,.091.529.529,0,0,0,.043.148c.234,0,.591-.01,1.065-.027ZM181.55,1.432c.057,0,.117,0,.178.006l.083.006.079.024a1.829,1.829,0,0,1,.845.55,1.24,1.24,0,0,1,.272,1.266,2.294,2.294,0,0,1-.692.918.886.886,0,0,0-.162.23,2.808,2.808,0,0,1-.32.6.584.584,0,0,0-.093.215,2.277,2.277,0,0,1-.183.547c0,.012.006.027.01.045l.1.387-.236.258a.971.971,0,0,1-.142.576,1.634,1.634,0,0,1,0,.554,1.556,1.556,0,0,1-.049.5c.009.025.021.057.039.1l.061.14v.506a1.449,1.449,0,0,1,.223.712.58.58,0,0,0,.076.1,5.515,5.515,0,0,0,.419.389.571.571,0,0,0,.1.036,1.1,1.1,0,0,1,.517.239,3.637,3.637,0,0,1,.441.05,5.081,5.081,0,0,0,.616-.322,2.242,2.242,0,0,1,1.114-.335,2.9,2.9,0,0,1,.9-.141,1.431,1.431,0,0,1,1.211.594,2.015,2.015,0,0,1,.36.809,1.454,1.454,0,0,1-.218,1.02,1.451,1.451,0,0,1-.855.727l-.015,0a1.239,1.239,0,0,1-.848.327,1.955,1.955,0,0,1-.441.168,1.274,1.274,0,0,1-.72-.015,1.738,1.738,0,0,1-.47.071,5.067,5.067,0,0,1-.489.266,3.645,3.645,0,0,0-.436.238c-.119.079-.323.216-.606.409a1.732,1.732,0,0,1-.528.525c-.149.136-.3.283-.448.439a4.267,4.267,0,0,0-.386.459,4.562,4.562,0,0,0-.237.452,1.33,1.33,0,0,0-.086.235l.041.035a1.874,1.874,0,0,0,.295.146,2.138,2.138,0,0,0,.447.055l.911.053a10.581,10.581,0,0,0,1.573-.17l.053-.013.054-.005a6.366,6.366,0,0,0,1.4-.3c.5-.169,1.062-.344,1.671-.521a14.336,14.336,0,0,0,1.528-.535,1.713,1.713,0,0,1,.958-.353l.031-.022.125-.1.153-.038c.109-.027.241-.068.394-.122a1.691,1.691,0,0,1,.816-.232,1.911,1.911,0,0,1,.709.136,2.019,2.019,0,0,1,.619.393,1.075,1.075,0,0,1,.183,1.349,1.516,1.516,0,0,1-.768.73,5.072,5.072,0,0,1-.751.221,2.961,2.961,0,0,1-.7.31c-.063.016-.192.052-.445.136a5,5,0,0,1-.821.21,5.041,5.041,0,0,0-.759.217c-.568.192-.734.242-.809.262a1.081,1.081,0,0,0-.206.091,1.584,1.584,0,0,1-.768.176.445.445,0,0,0-.076.042,1.3,1.3,0,0,1-.75.218q-.052,0-.106,0c-.148.052-.235.088-.285.111a1.381,1.381,0,0,1-.606.118,1.465,1.465,0,0,1-.723.2h-.559a1.717,1.717,0,0,1-.909.11.381.381,0,0,0-.146,0,1.364,1.364,0,0,1-.617-.03,1.053,1.053,0,0,1-.828-.089l-.3.02-.1,0a1.262,1.262,0,0,1-.738-.221l-.028,0a1.175,1.175,0,0,1-.956-.609,2,2,0,0,1-.887-1.458,2.9,2.9,0,0,1,.134-1.513,2.03,2.03,0,0,1,.469-.938,1.236,1.236,0,0,0,.094-.164l.013-.026.015-.025a2.391,2.391,0,0,1,.647-.768.272.272,0,0,0,.072-.064,2.354,2.354,0,0,1,.529-.547c.233-.2.441-.362.627-.491a3.261,3.261,0,0,1-.291-.236,4.732,4.732,0,0,1-.82-1.066,4.841,4.841,0,0,1-.589-2.036,11.387,11.387,0,0,1-.028-2.159c.057-.625.139-1.249.244-1.855a5.281,5.281,0,0,1,.638-1.785,8.806,8.806,0,0,1,.377-.8,2,2,0,0,1,.683-.7A1.526,1.526,0,0,1,181.55,1.432Zm4.209,9.646h-.012a1.363,1.363,0,0,0-.5.089l-.13.05h-.139a.825.825,0,0,0-.444.1,6.908,6.908,0,0,1-.936.482c.034,0,.065,0,.093,0a.454.454,0,0,0,.085-.006,1.125,1.125,0,0,1,.854-.024.505.505,0,0,0,.108-.059l.22-.156.269.019.06,0a1.5,1.5,0,0,1,.472-.254.844.844,0,0,0,.046-.072l0-.008c.008-.014.014-.025.019-.034A.752.752,0,0,0,185.759,11.078Zm-2.618.832-.095-.02a2.436,2.436,0,0,0-.482-.066q-.065,0-.125,0l.348.311a3.386,3.386,0,0,0,.321-.2ZM120.385,1.433c.05,0,.1,0,.152.008a1.218,1.218,0,0,1,1,.684,2.2,2.2,0,0,1,.226.706,12.9,12.9,0,0,1,.145,1.52,2.45,2.45,0,0,0,.063.572,2.787,2.787,0,0,0,.243.606,4.249,4.249,0,0,0,.388.607,4.19,4.19,0,0,1,.866.659,1.956,1.956,0,0,1,.427.644,1.119,1.119,0,0,1-.227,1.219,1.6,1.6,0,0,1-.921.476,1.5,1.5,0,0,1-1.042-.164,3.752,3.752,0,0,1-.517-.377,2.105,2.105,0,0,1-.6-.613,1.931,1.931,0,0,0-.241-.244l-.023-.021-.021-.022a1.95,1.95,0,0,1-.612-1.031.742.742,0,0,0-.08-.221,5.55,5.55,0,0,1-.348-1.047,15.214,15.214,0,0,1-.317-1.767,1.7,1.7,0,0,1,.065-1.349,2.261,2.261,0,0,1,.5-.538A1.394,1.394,0,0,1,120.385,1.433ZM92.8,3.924a5.081,5.081,0,0,1,1.639.208l.014,0c.46.171.752.284.894.344a2.67,2.67,0,0,1,.761.571,2.61,2.61,0,0,1,.558.475,8.163,8.163,0,0,1,.591.852c.085.118.184.25.294.393A1.468,1.468,0,0,1,97.9,7.5c.006.057.014.14.024.251a1.56,1.56,0,0,1,.258.809,2.742,2.742,0,0,0,.025.283,1.211,1.211,0,0,1,.128.807,2.151,2.151,0,0,1,.066.833,5.919,5.919,0,0,0-.037.6,1.22,1.22,0,0,1-.225,1,.874.874,0,0,0-.036.092,2.36,2.36,0,0,1-.25.52c-.026.15-.047.258-.063.331a1.471,1.471,0,0,1-.452.71l-.025.025a1.6,1.6,0,0,1-.245.518,2.463,2.463,0,0,1-.38.6,1.4,1.4,0,0,1-.283.567,1.4,1.4,0,0,1-.471.617,3.07,3.07,0,0,1-.681.991l-.02.02-.022.019a.458.458,0,0,0-.065.065c-.041.1-.1.242-.163.426l-.072.2-.164.131a.842.842,0,0,0-.133.133,1.89,1.89,0,0,1-.285.284A2.792,2.792,0,0,1,94,18.8a1.29,1.29,0,0,1-.814.383,2.072,2.072,0,0,1-.475.156,1.113,1.113,0,0,1-.216.021,1.229,1.229,0,0,1-.877-.391,1.558,1.558,0,0,1-.457-.818,1.512,1.512,0,0,1,.059-.8,1.716,1.716,0,0,1,.585-.745c.146-.116.294-.24.442-.37a3.217,3.217,0,0,1,.513-.626c.142-.133.261-.254.353-.36a1.972,1.972,0,0,1,.5-.448c.2-.312.426-.629.663-.946A5.92,5.92,0,0,0,94.9,12.8c.1-.236.209-.469.328-.695a2.033,2.033,0,0,0,.182-.516l.009-.038c.16-.589.206-.824.219-.912a1.737,1.737,0,0,0,.021-.357c-.008-.143-.021-.327-.038-.547a7.733,7.733,0,0,0-.367-1.3,3.122,3.122,0,0,0-.533-.9,6.437,6.437,0,0,0-.585-.5l-.076-.057L94,6.9a.332.332,0,0,0-.131-.111,1.465,1.465,0,0,1-.471-.235,1.137,1.137,0,0,1-.253.027,1.064,1.064,0,0,1,.135.268,3.225,3.225,0,0,1,.122.905,4.671,4.671,0,0,1-.17,1.3,3.25,3.25,0,0,1-.256.834c-.069.137-.158.327-.264.564a4.9,4.9,0,0,1-.7,1.066c-.291.355-.573.687-.837.987a14.1,14.1,0,0,1-1.264,1.216,19.984,19.984,0,0,1-1.748,1.364A5.66,5.66,0,0,1,86,16a2.072,2.072,0,0,1-.786.071,5.509,5.509,0,0,1-.58-.1,2.25,2.25,0,0,1-.783-.357,3.688,3.688,0,0,1-.916-.873,2.671,2.671,0,0,1-.539-1.463,8.019,8.019,0,0,1,.016-1.309l0-.022c.053-.42.078-.563.092-.634a4.341,4.341,0,0,1,.117-.435c.052-.164.125-.369.224-.626a10.638,10.638,0,0,1,.636-1.247,2.027,2.027,0,0,1,.53-.763.9.9,0,0,0,.055-.1,1.184,1.184,0,0,1,.333-.511,1.138,1.138,0,0,1,.544-.538.291.291,0,0,0,.048-.044,1.59,1.59,0,0,1,.4-.315,1.181,1.181,0,0,1,.587-.452,1.183,1.183,0,0,1,.606-.506,1.4,1.4,0,0,0,.239-.2L86.9,5.5,87,5.452l.859-.468a4.739,4.739,0,0,1,1.192-.463,2.287,2.287,0,0,1,.687-.24,8.238,8.238,0,0,1,2.154-.326H91.9C92.226,3.934,92.53,3.924,92.8,3.924ZM90.424,8.56a2.449,2.449,0,0,0,.006-.311.59.59,0,0,0-.046-.167,1.874,1.874,0,0,1-.106-.866,1.415,1.415,0,0,1,.093-.4,7.181,7.181,0,0,0-.886.3A10.577,10.577,0,0,0,87.6,8.281a7.224,7.224,0,0,0-1.886,2.1,1.938,1.938,0,0,1-.274.642,1.145,1.145,0,0,1-.255.5,2.111,2.111,0,0,1-.091.373,1.154,1.154,0,0,1,.071.5c-.009.1-.025.229-.051.383.012.046.023.079.031.1a.95.95,0,0,1,.2.306q.08.032.156.066h.048a1.067,1.067,0,0,0,.126-.006,2.11,2.11,0,0,1,.411-.111,2.194,2.194,0,0,1,.566-.23c.2-.169.289-.256.333-.3a1.335,1.335,0,0,1,.545-.331,1.826,1.826,0,0,1,.673-.473,7.159,7.159,0,0,0,.761-.774c.349-.4.6-.7.735-.876a5.555,5.555,0,0,0,.5-.984C90.275,8.955,90.347,8.754,90.424,8.56Zm1.451-1.133c-.024-.012-.054-.027-.093-.044l-.015-.006a.461.461,0,0,0,.008.153,2.188,2.188,0,0,1,.124.422q0-.08,0-.153A3.658,3.658,0,0,0,91.876,7.427ZM92.95,17.712c.03-.049.071-.119.125-.217q-.139.118-.277.229l.115-.009ZM50.053,4.261c.275,0,.542.008.794.024.29.018.559.032.8.04a2.64,2.64,0,0,1,.7.111,1.924,1.924,0,0,1,.86.094l.021.007a1.176,1.176,0,0,1,.77.149.855.855,0,0,0,.1.016l.151.015.133.072a1.647,1.647,0,0,0,.419.162,1.81,1.81,0,0,1,.849.449c.213.159.412.313.592.456a3.074,3.074,0,0,1,.723.887,2.833,2.833,0,0,1,.321,1.6,3.721,3.721,0,0,1-.247,1.3,4.074,4.074,0,0,1-.4.677,1.575,1.575,0,0,1-.751.968,1.987,1.987,0,0,1-.335.425l-.125.124-.156.052a1.274,1.274,0,0,1-.594.438,1.811,1.811,0,0,1-.366.329,1.057,1.057,0,0,1-.577.473,1.168,1.168,0,0,1-.586.386l-5,3.213c-1.022.677-1.761,1.146-2.261,1.432l-.03.016-.913.47h-.183c-1.008,0-1.378-.432-1.51-.794a1.871,1.871,0,0,1-.071-1.042,1.433,1.433,0,0,1,.474-.872,1.759,1.759,0,0,1,.544-.279,1.814,1.814,0,0,1,.607-.349,1.023,1.023,0,0,0,.226-.113l.012-.007a2.137,2.137,0,0,1,.733-.278c.253-.114.535-.253.84-.416.363-.194.744-.4,1.133-.6.373-.194.855-.47,1.431-.819s1.335-.835,2.255-1.444l1.144-.907c.391-.309.774-.636,1.139-.972a2.764,2.764,0,0,0,.638-.794,1.481,1.481,0,0,0,.165-.622,1.057,1.057,0,0,0-.047-.388l0-.01a1.349,1.349,0,0,1-.432-.45l-.1-.017a1.257,1.257,0,0,1-.549-.222,1.239,1.239,0,0,1-.48-.17,1.127,1.127,0,0,1-.448-.107,1.839,1.839,0,0,1-.574-.139,2.093,2.093,0,0,1-.335.029,1.4,1.4,0,0,1-.343-.041,1.707,1.707,0,0,1-.43.05,1.223,1.223,0,0,1-.357-.05,1.311,1.311,0,0,1-.569.042l-.022,0-.466-.081-.312.091a2.665,2.665,0,0,1-.5.1,1.193,1.193,0,0,1-.415-.041,1.236,1.236,0,0,1-.5.112c-.042,0-.154,0-.438.018a1.572,1.572,0,0,1-.719.161h0A1.447,1.447,0,0,1,46,7.349a1.328,1.328,0,0,1-.721.262,1.178,1.178,0,0,1-.749.221,1.5,1.5,0,0,1-.612.352.958.958,0,0,1-.519.256q-.055.058-.121.132a1.693,1.693,0,0,1-.761.888,1.421,1.421,0,0,1-.66.169,1.315,1.315,0,0,1-.564-.128,1.614,1.614,0,0,1-.737-.684l-.038-.068-.023-.074a2.278,2.278,0,0,1-.112-.919,2.063,2.063,0,0,1,.335-.888l.044-.069.058-.058a7.283,7.283,0,0,1,.775-.65,4.28,4.28,0,0,1,1.1-.6c.316-.114.726-.248,1.217-.4l.026-.007c.509-.136,1.218-.281,2.167-.443s1.825-.27,2.642-.326h0C49.2,4.278,49.645,4.261,50.053,4.261ZM41.878,8.036c.013-.028.028-.063.043-.106l.048-.135.095-.108c.085-.1.161-.181.229-.253-.14.11-.257.209-.352.3a.376.376,0,0,0-.063.3Zm3.281,8.829q.215-.124.505-.3a2.269,2.269,0,0,1-.394.17,1.194,1.194,0,0,0-.2.151l-.065.059ZM32.537,4.421a2.014,2.014,0,0,1,.751.109,1.232,1.232,0,0,1,.663.811,3.848,3.848,0,0,1,.343,1.277,16.318,16.318,0,0,1,.1,2.03v2.358a7.031,7.031,0,0,1-.047,1.2c-.039.32-.068.626-.087.911a2.806,2.806,0,0,1,.083,1.021,1.354,1.354,0,0,1-.42.824,1.585,1.585,0,0,1-.9.352,1.854,1.854,0,0,1-.219.013,1.832,1.832,0,0,1-.906-.242,1.319,1.319,0,0,1-.713-1.113,1.876,1.876,0,0,1,.129-.837,2.361,2.361,0,0,0,.107-.419,3.6,3.6,0,0,1,.19-1c-.021-.706-.016-.908-.008-1.01a1.813,1.813,0,0,1,.144-.565,2.4,2.4,0,0,1-.062-.717,3.376,3.376,0,0,0-.059-.7l-.017-.1.009-.1a1.834,1.834,0,0,0-.09-.572c-.094-.357-.176-.686-.243-.979a1.729,1.729,0,0,0-.128-.416L31.1,6.447l-.023-.125a1.707,1.707,0,0,1,.063-.92,1.681,1.681,0,0,1,.492-.691l.07-.06.082-.041A1.687,1.687,0,0,1,32.537,4.421Zm.024,1.489h-.012l-.006.014h0a.191.191,0,0,0,0,.045,3.584,3.584,0,0,1,.212.677q.034.148.073.31-.008-.076-.018-.147a2.314,2.314,0,0,0-.2-.8l-.044-.074Zm.3,7.923a2.765,2.765,0,0,0-.067-.406,2.383,2.383,0,0,1-.1.291.412.412,0,0,0-.011.093.3.3,0,0,0,.124.027l.04,0ZM18.339,4.556a1.863,1.863,0,0,1,.432.052,1.209,1.209,0,0,1,.964.958,1.953,1.953,0,0,1-.182,1.154,3.435,3.435,0,0,0-.113.782,5.647,5.647,0,0,0,.023,1.184l.013.093-.011.093a2.094,2.094,0,0,0,.013.813,2.051,2.051,0,0,1,.128.846,2.616,2.616,0,0,0,.075.337,10.542,10.542,0,0,1,.345,1.079,11.461,11.461,0,0,0,.444,1.3,6.672,6.672,0,0,0,.545,1.06,6.876,6.876,0,0,1,.509.664c.062.06.112.1.15.132.027-.012.059-.027.1-.047a3.833,3.833,0,0,1,.677-.624,3.328,3.328,0,0,1,.208-.377,2.484,2.484,0,0,1,.432-.453,1.756,1.756,0,0,1,.46-.611,4.211,4.211,0,0,1,.4-.432,1.081,1.081,0,0,1,.52-.672c.128-.172.262-.355.4-.546l.018-.025.02-.023c.2-.233.372-.442.515-.62a3.6,3.6,0,0,1,.6-.592,1.3,1.3,0,0,1,.8-.286,1.258,1.258,0,0,1,.434.078,1.578,1.578,0,0,1,.822.716,1.3,1.3,0,0,1,.068,1.241,2.461,2.461,0,0,1-.4.613c-.1.11-.287.308-.566.6-.375.428-.857.949-1.432,1.549s-1.012,1.074-1.335,1.449c-.34.394-.685.775-1.026,1.133l-.07.074-.088.052a3.809,3.809,0,0,1-.99.428,1.717,1.717,0,0,1-.428.051,3.637,3.637,0,0,1-1.123-.217L20.5,17.5l-.131-.142a1.746,1.746,0,0,0-.444-.36,1.9,1.9,0,0,1-.777-.764c-.235-.307-.443-.6-.618-.864a3.069,3.069,0,0,1-.428-.976,1.3,1.3,0,0,0-.108-.155,1.1,1.1,0,0,1-.416-1.063.325.325,0,0,0-.019-.035,1.95,1.95,0,0,1-.233-.6,1.286,1.286,0,0,1-.226-.731.576.576,0,0,0-.03-.061l-.094-.169v-.193a3.3,3.3,0,0,0-.022-.405,2.559,2.559,0,0,1-.022-.446l0,0a2.072,2.072,0,0,1-.19-.518,3.044,3.044,0,0,1-.042-.576,3.347,3.347,0,0,1-.138-.745,5.4,5.4,0,0,1-.015-.707c.008-.129.012-.256.013-.378-.019-.2-.028-.46-.028-.78a3.265,3.265,0,0,1,.1-.915,2.9,2.9,0,0,1,.226-.558A1.514,1.514,0,0,1,17.63,4.7,1.778,1.778,0,0,1,18.339,4.556Zm-.313,2.135a2.607,2.607,0,0,1,.138-.531l.009-.022.023-.055c-.023.011-.04.02-.052.027a1.566,1.566,0,0,0-.081.219A1.574,1.574,0,0,0,18.026,6.691Zm128,1.53a2.6,2.6,0,0,1,.363.021,2.264,2.264,0,0,1,.644.2,1.222,1.222,0,0,1,.691,1.038,1.676,1.676,0,0,1-.146.909,1.194,1.194,0,0,1-.7.622,3.626,3.626,0,0,1-.762.131c-.3.029-.6.049-.88.058-.254.009-.592.031-1,.067l-.055,0-.055,0c-.172-.01-.412-.016-.711-.016-.7,0-1.733.029-3.076.085-1.986.084-3.079.129-3.341.138a2.892,2.892,0,0,1-.717-.061,3.857,3.857,0,0,1-.462.118,2.752,2.752,0,0,1-.916-.014,1.681,1.681,0,0,1-.633.141,1.069,1.069,0,0,1-.359-.06.988.988,0,0,0-.27-.04,1.6,1.6,0,0,0-.365.024c-.424.115-.707.183-.887.215a1.294,1.294,0,0,1-.223.019,1.884,1.884,0,0,1-.84-.225,1.465,1.465,0,0,1-.775-1.426,1.321,1.321,0,0,1,.869-1.387,2.308,2.308,0,0,1,1.085-.185c.288.02.6.055.922.1a3.146,3.146,0,0,0,.451.041c.038,0,.071,0,.1,0l.111-.011.11.022.415.084a1.279,1.279,0,0,1,.816-.048,3.749,3.749,0,0,0,.593.058,4.562,4.562,0,0,1,.875-.023l.716.048a2.474,2.474,0,0,1,.99.013,5.373,5.373,0,0,1,.952-.078l.156,0a8.291,8.291,0,0,0,1.2-.064L141,8.727l.088.01a1.527,1.527,0,0,0,.335,0c.152-.017.307-.038.46-.064a2.428,2.428,0,0,1,.636-.024c.119,0,.239,0,.358-.012a.787.787,0,0,0,.228-.051l.127-.047h.136c.234,0,.433-.008.593-.024.187-.019.42-.037.693-.056a2.663,2.663,0,0,0,.684-.158l.126-.057.138-.009C145.767,8.226,145.907,8.221,146.03,8.221Zm-13.094,1.913c-.185-.023-.363-.041-.53-.052a.8.8,0,0,0-.352.052c0,.01,0,.022,0,.034a.724.724,0,0,0,.009.123.627.627,0,0,0,.1.036c.106-.021.319-.07.749-.186ZM12.814,27.268a1.259,1.259,0,0,1,1.153.792l.029.063.017.068a1.162,1.162,0,0,0,.082.235,1.5,1.5,0,0,1,.162.678,2.862,2.862,0,0,0,.023.327,3.277,3.277,0,0,1,.018.59,2.338,2.338,0,0,1-.169.695,4.216,4.216,0,0,1-.486,1.363c-.076.142-.139.263-.192.367.4-.017.83-.029,1.3-.038h.014c1,0,2.02.028,3.023.083.4,0,.547-.007.6-.012a2.155,2.155,0,0,1,.707.084,10.871,10.871,0,0,0,1.095.15,1.311,1.311,0,0,1,1.223,1.07l.01.048a2.227,2.227,0,0,1,.01.807,1.279,1.279,0,0,1-.847.89,2,2,0,0,1-.911.343l-.494.028a1.592,1.592,0,0,0-.319.045,1.036,1.036,0,0,1-.266.034,1.447,1.447,0,0,1-.947-.413,1.382,1.382,0,0,1-.424-.619c-.328,0-.68-.011-1.05-.028l-.07,0-.068-.016a2.01,2.01,0,0,0-.472-.054,2.181,2.181,0,0,1,.072.459,3.388,3.388,0,0,1-.07.787,1.415,1.415,0,0,1-.038.774,2.192,2.192,0,0,1-.069.716c-.052.2-.091.359-.115.483a2.091,2.091,0,0,0-.027.393,3.008,3.008,0,0,1-.108.94,4.472,4.472,0,0,0-.118.448c-.048.219-.1.445-.158.672a6.526,6.526,0,0,1-.2.671c-.069.187-.135.352-.2.492a2.637,2.637,0,0,1-.278.485,5.351,5.351,0,0,1,1.043.145,2.062,2.062,0,0,1,1.02.621,2.7,2.7,0,0,1,.578,1.025,1.774,1.774,0,0,1-.106,1.38,2.442,2.442,0,0,1-.5.708,2.764,2.764,0,0,0-.238.249,3.59,3.59,0,0,1-.418.415c-.655.558-1.208,1.008-1.643,1.337-.278.211-.6.453-.97.724a3.732,3.732,0,0,0,.358.377c.227.2.5.428.8.682a8.294,8.294,0,0,0,1.359.852,9.142,9.142,0,0,0,2.348.812,16.518,16.518,0,0,0,2.937.37l.061,0,.059.012a4.641,4.641,0,0,1,.72.187,1.109,1.109,0,0,1,.663.626,2.6,2.6,0,0,1,.143.581,1.156,1.156,0,0,1-.348,1.076,1.686,1.686,0,0,1-.554.342,1.137,1.137,0,0,1-.722.009,1.519,1.519,0,0,1-.619-.057,2.807,2.807,0,0,1-.427-.192,1.8,1.8,0,0,1-.739-.093l-.1-.036-.082-.06a.64.64,0,0,0-.312-.125,3.011,3.011,0,0,1-.819-.21,13.73,13.73,0,0,1-2.58-.891,16.515,16.515,0,0,1-2.113-1.146,11.856,11.856,0,0,1-1.28-.935c-.187-.166-.424-.4-.716-.712-.6.4-1.145.758-1.622,1.06-.6.377-1.193.779-1.772,1.192l-.051.037-.057.028c-.787.382-1.379.676-1.76.875a9.42,9.42,0,0,1-1.453.593,1.468,1.468,0,0,1-1.111.03,2.126,2.126,0,0,0-.369-.112,1.282,1.282,0,0,1-.923-.781A1.374,1.374,0,0,1,1.949,52a1.166,1.166,0,0,1,.994-.7,1.752,1.752,0,0,1,.729.1h.022a6.293,6.293,0,0,0,.645-.148l.016,0a5.466,5.466,0,0,0,1.3-.524c.513-.277,1.089-.614,1.713-1s1.149-.716,1.534-.962c.207-.132.424-.284.651-.456q-.074-.1-.136-.18a5.786,5.786,0,0,1-.479-.7l-.023-.042a4.2,4.2,0,0,1-.27-.672,2.169,2.169,0,0,1-.051-.963A1.259,1.259,0,0,1,9.5,44.7a1.851,1.851,0,0,1,.419-.077,1.787,1.787,0,0,1-.026-.257,12.086,12.086,0,0,0-1.2.659c-.655.4-1.232.785-1.712,1.139s-.873.65-1.134.856a2.971,2.971,0,0,0-.45.407,2.2,2.2,0,0,0-.254.5,1.425,1.425,0,0,1-1.36.931,1.513,1.513,0,0,1-1.28-.574,1.652,1.652,0,0,1-.328-1.139,1.733,1.733,0,0,1,.64-1.178,4.639,4.639,0,0,1,.716-.53c.3-.28.57-.514.8-.7.25-.2.56-.418.922-.651.331-.213.662-.439.984-.67a9.2,9.2,0,0,1,.926-.592,2.834,2.834,0,0,1,1.057-.6l.027-.018a1.513,1.513,0,0,1-.183-.076,1.421,1.421,0,0,1-.732-.913,2.441,2.441,0,0,1-.1-.911l.008-.086.028-.082c.062-.184.19-.512.393-1A10.981,10.981,0,0,1,8.128,38.1a5.149,5.149,0,0,0,.3-.8l.009-.028a6.594,6.594,0,0,0,.2-.681,2.858,2.858,0,0,0,.09-.667,2.262,2.262,0,0,1,.089-.64,2.016,2.016,0,0,1-.3-.018.417.417,0,0,0-.06,0,1.284,1.284,0,0,1-.7.14,1.741,1.741,0,0,1-.768.189H6.566a1.16,1.16,0,0,1-.649.238c-.107.055-.212.116-.312.18a4.368,4.368,0,0,1-.41.234,1.344,1.344,0,0,1-.275.4,2.155,2.155,0,0,1-.714.437,1.337,1.337,0,0,1-.514.1,1.511,1.511,0,0,1-.926-.339,1.413,1.413,0,0,1-.592-1.35,2.35,2.35,0,0,1,.219-.706,1.6,1.6,0,0,1,.625-.707,4.457,4.457,0,0,1,1.044-.392c.369-.116.818-.232,1.333-.346s1.446-.256,2.807-.426c.856-.107,1.422-.17,1.8-.206v-.034l.195-.213a.784.784,0,0,0,.193-.3l.035-.129.078-.108c.171-.237.3-.436.392-.59a3.258,3.258,0,0,0,.235-.527l.019-.052.026-.048a1.686,1.686,0,0,0,.168-.381,2.146,2.146,0,0,0,0-.412c-.013-.163-.031-.33-.055-.5a1.2,1.2,0,0,1,.317-1.657A1.972,1.972,0,0,1,12.814,27.268Zm7.113,6.919c-.27-.025-.6-.072-1.011-.142l-.169.4a3.424,3.424,0,0,1,.353-.036l.456-.026a1.353,1.353,0,0,0,.276-.147l.06-.039Zm-7.12,1.535a1.248,1.248,0,0,1-.174-.747h-.1a4.341,4.341,0,0,0-.556.035c-.087.011-.173.02-.255.025a1.2,1.2,0,0,1-.072.944,3.122,3.122,0,0,0-.176.477,6.7,6.7,0,0,1-.262.792c-.083.2-.179.429-.287.679-.127.36-.238.667-.33.915l-.193.517a1.781,1.781,0,0,1,.332-.03,3.014,3.014,0,0,1,.546.056l.173.032.14.1a6.614,6.614,0,0,0,.709.471l.128.071c.052-.146.119-.356.2-.656a7.357,7.357,0,0,0,.21-1.513c.034-.633.061-1.16.079-1.568C12.885,36.11,12.846,35.908,12.807,35.721ZM3.839,35.6c0-.011.007-.027.012-.047L3.9,35.3a.934.934,0,0,0-.111.049h0a.249.249,0,0,0-.042.067.993.993,0,0,0-.081.226l.014.011.017.012A1.222,1.222,0,0,0,3.839,35.6Zm7.628,8.833c.026,0,.117-.061.234-.252l.059-.1q-.112.043-.235.094a.661.661,0,0,0-.137.114.353.353,0,0,0,.018.134l.057.005Zm.218,2.25.583-.4a6.97,6.97,0,0,0,.851-.7c.265-.25.508-.476.724-.677-.073,0-.145.011-.214.02a5.072,5.072,0,0,0-.581.1.918.918,0,0,0-.174.083,1.693,1.693,0,0,1-1.391.8c.025.117.046.246.064.389C11.6,46.471,11.649,46.591,11.685,46.679Zm-7.935.678,0-.008c.059-.143.117-.27.174-.384q-.061.05-.125.106c-.11.1-.137.16-.139.176a.187.187,0,0,0,.014.1A.467.467,0,0,0,3.75,47.357ZM38.471,28.4h.1l.1.027a1.966,1.966,0,0,1,1.1.676,1.644,1.644,0,0,1,.341.994,1.471,1.471,0,0,1-.367.951c-.056.163-.1.293-.142.394a3.564,3.564,0,0,1-.207.427,1.766,1.766,0,0,1-.088.536,3.165,3.165,0,0,1-.219.487,1.173,1.173,0,0,1-.248.777l-.006.02c-.031.115-.054.217-.068.3a1.674,1.674,0,0,1-.221.558,1.169,1.169,0,0,1-.224.78l-.023.185-.121.138a1.5,1.5,0,0,1-.026.38,4.893,4.893,0,0,1-.191.619,3.323,3.323,0,0,1-.1.6c-.03.1-.065.218-.105.342a2.9,2.9,0,0,1-.145.875c-.064.241-.137.571-.218.982q0,.064,0,.127l.42-.192a12.357,12.357,0,0,1,1.452-.482c.761-.227,1.444-.4,2.03-.515a14.281,14.281,0,0,1,1.706-.232,8.285,8.285,0,0,1,.833-.044,6.272,6.272,0,0,1,.786.047c.458.058.865.127,1.212.206a12.379,12.379,0,0,1,1.35.412l.043.017a2.268,2.268,0,0,1,.769.482,1.08,1.08,0,0,1,.592.379,1.041,1.041,0,0,1,.536.557,3.529,3.529,0,0,1,.367.443,1.954,1.954,0,0,1,.335.811,1.559,1.559,0,0,1,.209.931.822.822,0,0,0,0,.214,2.234,2.234,0,0,1-.151.964,2.95,2.95,0,0,1-.431,1.134c-.183.292-.351.56-.5.8l-.028.045-.034.041a20.222,20.222,0,0,1-2.7,2.641c-.988.808-1.8,1.444-2.421,1.893a2.415,2.415,0,0,1-1.006.5,1.564,1.564,0,0,1-.336.038,1.138,1.138,0,0,1-.994-.543,4.99,4.99,0,0,1-.277-.5,1.277,1.277,0,0,1,.033-1.075,1.789,1.789,0,0,1,.618-.771,1.636,1.636,0,0,1,.639-.274,1.9,1.9,0,0,1,.527-.3c.051-.018.135-.052.271-.115a1.255,1.255,0,0,1,.679-.425c.144-.1.277-.19.4-.265a2.146,2.146,0,0,1,.229-.226,4.219,4.219,0,0,1,.35-.251,1.672,1.672,0,0,0,.135-.135,1.139,1.139,0,0,1,.561-.522c.05-.023.151-.072.35-.177.041-.049.064-.08.075-.1a1.15,1.15,0,0,1,.417-.5,1.4,1.4,0,0,1,.423-.545,3.188,3.188,0,0,0,.326-.6,1.345,1.345,0,0,0,.086-.628,2.923,2.923,0,0,0-.083-.52,1.328,1.328,0,0,1-.282-.434,4.707,4.707,0,0,1-.529-.405,4.107,4.107,0,0,1-.838-.373,1.348,1.348,0,0,0-.352-.162.427.427,0,0,0-.116-.019,1.1,1.1,0,0,1-.224.023,1.322,1.322,0,0,1-.5-.1,1.4,1.4,0,0,1-.482.018,2.05,2.05,0,0,1-.3-.065,1.074,1.074,0,0,1-.538.093,1.28,1.28,0,0,1-.475.095,1.106,1.106,0,0,1-.156-.011.968.968,0,0,1-.534.067,1.094,1.094,0,0,1-.712.1,2.051,2.051,0,0,0-.288.089,2.042,2.042,0,0,1-.886.178.426.426,0,0,0-.1.035,1.35,1.35,0,0,1-.681.28,1.292,1.292,0,0,1-.752.3,1.065,1.065,0,0,1-.685.3,1.252,1.252,0,0,1-.594.271,1.664,1.664,0,0,1-.371.282,2.235,2.235,0,0,0-.07.339,2.556,2.556,0,0,1-.152.686,1.294,1.294,0,0,0-.043.327,1.579,1.579,0,0,1-.16.764q-.022.438-.034.686a3.044,3.044,0,0,1-.194.867,1.558,1.558,0,0,0-.01.231,1.043,1.043,0,0,1-.055.8,1.353,1.353,0,0,1-.006.611,2.359,2.359,0,0,1,.008.684,2.031,2.031,0,0,0,.053.567,3.2,3.2,0,0,0,.168.369,2.354,2.354,0,0,1,.623.421,1.435,1.435,0,0,1,.423.854,1.484,1.484,0,0,1-.209.934,1.385,1.385,0,0,1-.858.647,1.605,1.605,0,0,1-1.171-.189,3.272,3.272,0,0,1-.741-.526,2.1,2.1,0,0,1-.519-.708,4.8,4.8,0,0,1-.284-.918l-.018-.08v-.082a2.476,2.476,0,0,0-.027-.448,1.527,1.527,0,0,1,0-.582,1.745,1.745,0,0,1,.021-.788,13.784,13.784,0,0,0,.192-1.386c.083-.75.144-1.307.18-1.655.022-.2.071-.561.15-1.076a4.119,4.119,0,0,0-.419.283c-.135.115-.331.267-.6.461-.176.191-.3.329-.377.411a2.461,2.461,0,0,1-.452.374,1.44,1.44,0,0,1-.5.451q-.027.059-.054.123a1.142,1.142,0,0,1-.47.558l-.025.043-.017.03-.019.028c-.329.48-.458.686-.508.775a2.169,2.169,0,0,1-.427.545,1.722,1.722,0,0,1-.94.38,1.313,1.313,0,0,1-.184.013,1.362,1.362,0,0,1-1.227-.838,1.612,1.612,0,0,1,.17-1.757l.035-.048.042-.042a1.154,1.154,0,0,0,.221-.3l.015-.029.017-.028a4.443,4.443,0,0,1,.537-.714.879.879,0,0,0,.183-.277l.073-.182.154-.123a1.562,1.562,0,0,0,.437-.525l.026-.052.034-.048c.251-.349.364-.487.426-.558a2.329,2.329,0,0,0,.156-.336l0,0c.284-.694.383-.9.437-1a1.468,1.468,0,0,0,.1-.228,5.5,5.5,0,0,1,.232-.548,1.581,1.581,0,0,1,.1-.62,1.376,1.376,0,0,0,.018-.26c-.014-.218-.025-.337-.033-.4l-.049-.014a2.706,2.706,0,0,0-.455.195,1.5,1.5,0,0,0-.357.3,1.739,1.739,0,0,1-1.518.934,1.35,1.35,0,0,1-1-.428,1.585,1.585,0,0,1-.485-1.108,1.773,1.773,0,0,1,.242-.916,1.612,1.612,0,0,1,.6-.6,5.113,5.113,0,0,1,1.269-.732c.353-.133.683-.248.98-.344A2.521,2.521,0,0,1,31.8,36.9l.031.007.03.009c.308.1.539.171.707.23a1.55,1.55,0,0,1,.815.745,3.82,3.82,0,0,1,.365.6,5.791,5.791,0,0,1,.276.782l.015.052.008.053a2.062,2.062,0,0,1-.038.913,1.109,1.109,0,0,0,.031.263l.046.227-.092.213c-.031.072-.054.13-.072.176q.129-.065.241-.119l.459-.217a39.53,39.53,0,0,1,.822-4.16c.348-1.348.654-2.63.911-3.813l.016-.075.031-.07a.713.713,0,0,0,.061-.26,1.986,1.986,0,0,1,.182-.748,2,2,0,0,0,.092-.3c.011-.066.034-.228.078-.623l.007-.064.018-.062c.17-.581.281-.953.339-1.136a2.088,2.088,0,0,1,.429-.75l.044-.05.052-.041A1.233,1.233,0,0,1,38.471,28.4ZM28.911,39.57a.173.173,0,0,0,.137-.118l.045-.112.079-.092q.089-.1.181-.2-.128.088-.263.191l-.058.044-.065.032c-.006,0-.024.012-.051.057a.287.287,0,0,0-.035.149A.267.267,0,0,0,28.911,39.57Zm2.1,5.194c.013-.017.03-.041.051-.074l.089-.14.14-.089c.053-.033.1-.062.131-.087l-.535.332a3.007,3.007,0,0,1-.207.269A1.085,1.085,0,0,1,31.006,44.764Zm-.68.782c.041-.093.082-.182.123-.263a1.108,1.108,0,0,1,.116-.183q-.087.091-.182.175a2.419,2.419,0,0,1-.4.561,2.911,2.911,0,0,0-.337.45,2.653,2.653,0,0,1-.434.606c-.062.1-.047.126-.026.166l0,.006.037-.011a.815.815,0,0,0,.1-.144c.094-.167.272-.44.558-.857A1.487,1.487,0,0,1,30.326,45.546ZM59.95,30.177a1.449,1.449,0,0,1,.65.14.848.848,0,0,0,.215.074,3.922,3.922,0,0,1,.465.12,2.163,2.163,0,0,1,.512.253.319.319,0,0,0,.118.038,2.253,2.253,0,0,1,.667.228,1.619,1.619,0,0,0,.3.122,1.449,1.449,0,0,1,.617.36.887.887,0,0,0,.136.035,1.616,1.616,0,0,1,.6.234,1.953,1.953,0,0,1,.8.4c.149.111.262.2.347.262a3.1,3.1,0,0,1,.553.639l.055.076.034.087c.138.353.258.712.357,1.065a1.641,1.641,0,0,1-.1,1.334,1.778,1.778,0,0,1-.647.634,1.279,1.279,0,0,1-.629.17,1.205,1.205,0,0,1-.447-.086,4,4,0,0,1-.5-.238,1.362,1.362,0,0,1-.617-.77l-.012-.04a2.339,2.339,0,0,1-.094-.767c0-.017,0-.037,0-.061a3.835,3.835,0,0,0-1.17-.66,9.441,9.441,0,0,1-1.215-.441,3.31,3.31,0,0,0-.729-.2,1.5,1.5,0,0,1-.518.111,1.9,1.9,0,0,1-.67-.159,1.4,1.4,0,0,1-.852-.947A1.614,1.614,0,0,1,59.648,30.2,2.3,2.3,0,0,1,59.95,30.177Zm5.025,4.732a.953.953,0,0,0-.038-.2q-.047-.167-.1-.335a2.278,2.278,0,0,1,0,.266.8.8,0,0,0,.029.223q.053.028.107.054Zm136.071-3.551.2.05a3.161,3.161,0,0,1,.566.2,2.442,2.442,0,0,1,.5.3A1.107,1.107,0,0,1,202.681,33c-.024.168-.063.388-.117.668.033.092.065.188.094.287a1.56,1.56,0,0,1,.034.733l.038.181a3.131,3.131,0,0,1,.361,0l.026,0a1.759,1.759,0,0,1,.705-.192,1.689,1.689,0,0,1,.591-.116.452.452,0,0,0,.14-.036,1.8,1.8,0,0,1,.678-.109,3.837,3.837,0,0,1,.791-.126,1.436,1.436,0,0,1,.66-.166,1.734,1.734,0,0,1,.581-.182c.025,0,.131-.015.443-.081a1.967,1.967,0,0,1,1.107.064,1.8,1.8,0,0,1,.934.705,1.29,1.29,0,0,1,.172,1.222,1.193,1.193,0,0,1-.962.757c-.2.03-.432.053-.715.073a2.706,2.706,0,0,1-.645.044.743.743,0,0,0-.206.024,1.754,1.754,0,0,1-.518.044,2.474,2.474,0,0,1-.984.172,1.691,1.691,0,0,0-.2.048,1.729,1.729,0,0,1-.592.067,6.355,6.355,0,0,1-.651.112c-.208.025-.433.063-.669.113l-.046.008c-.17.025-.353.051-.547.076.013.107.023.222.03.346a3.83,3.83,0,0,0,.047.4,3.678,3.678,0,0,1,.052.606c0,.145.009.417.027.809l0,.081-.014.08c-.078.443-.14.76-.19.971a4.271,4.271,0,0,1-.219.669c-.075.177-.16.374-.254.588a1.723,1.723,0,0,1-.568.749,1.113,1.113,0,0,1-.384.415,1.1,1.1,0,0,1-.55.6.467.467,0,0,0-.112.08,6.961,6.961,0,0,1-.644.487,3.2,3.2,0,0,1-.9.459,2.754,2.754,0,0,1-.658.28l-.534.123c-.259.1-.436.171-.54.209q-.069.025-.149.047.1.107.2.206a7.214,7.214,0,0,1,.806.839.931.931,0,0,0,.279.218l.222.129.1.238a.375.375,0,0,0,.017.038,1.519,1.519,0,0,1,.517.574c.215.112.489.262.832.452l.113.063.085.1a2.3,2.3,0,0,0,.416.408,1.138,1.138,0,0,1,.615.93,2.823,2.823,0,0,1-.052.694,1.273,1.273,0,0,1-.616.928,1.5,1.5,0,0,1-1.014.142,2.838,2.838,0,0,1-1.215-.65l-.052-.041-.044-.05c-.139-.158-.294-.347-.46-.56a11.815,11.815,0,0,0-.984-1.011c-.556-.534-1.128-1.121-1.7-1.748a10.43,10.43,0,0,1-1.043-1.216c-.063-.1-.154-.233-.271-.391a2.834,2.834,0,0,1-.416-.823,1.617,1.617,0,0,1,.018-1.125,1.464,1.464,0,0,1,1.035-.945,3.052,3.052,0,0,1,.85-.089c.189.009.383.022.579.039a6.5,6.5,0,0,0,1.093-.139c.366-.116.645-.216.829-.3a5.149,5.149,0,0,0,.776-.469,7.185,7.185,0,0,0,.606-.44,5.555,5.555,0,0,0,.346-.446,2.065,2.065,0,0,1,.348-.595,1.287,1.287,0,0,0,.142-.4,2.974,2.974,0,0,1,.113-.7.86.86,0,0,0-.009-.306l-.011-.079.006-.08a.919.919,0,0,0-.029-.364,3.833,3.833,0,0,1-.171-.666c-.507.067-.872.12-1.09.159a2.517,2.517,0,0,0-.549.141,1.472,1.472,0,0,1-.764.109,1.041,1.041,0,0,1-.465.115.9.9,0,0,1-.221-.028,2.151,2.151,0,0,1-.429.161,1.664,1.664,0,0,1-.42.051,2.353,2.353,0,0,1-.349-.027,1.512,1.512,0,0,1-.695.1,1.676,1.676,0,0,1-.839.3c-.045,0-.166,0-.468.023-.344.071-.6.12-.8.149a4.729,4.729,0,0,1-.695.05,6.6,6.6,0,0,0-.746.064,2.516,2.516,0,0,1-1.211.153,1.745,1.745,0,0,1-1.273-.671,1.462,1.462,0,0,1-.295-1.229,1.439,1.439,0,0,1,.559-.883,1.558,1.558,0,0,1,.922-.277,5.347,5.347,0,0,1,.616.033c.165.019.314.039.443.059a.6.6,0,0,0,.088.005,1.609,1.609,0,0,0,.165-.01,3.4,3.4,0,0,1,.6-.008c.542-.071.935-.11,1.2-.12.231-.009.7-.049,1.392-.119l3.18-.481c.54-.081,1.1-.17,1.683-.265h0a7.955,7.955,0,0,1-.261-.923,2.763,2.763,0,0,1-.17-1.1,1.972,1.972,0,0,1,.111-.972,1.176,1.176,0,0,1,.668-.746c.114-.045.271-.1.48-.16Zm.125,1.6q-.045-.02-.09-.038a.713.713,0,0,0,0,.242l.01.072,0,.073q0,.058,0,.113C201.122,33.235,201.15,33.081,201.171,32.954Zm-9.829,4.811-.248-.031a3.827,3.827,0,0,0-.433-.023l.011.015a.382.382,0,0,0,.229.075A1.051,1.051,0,0,0,191.342,37.764Zm4.75,6.443c-.1-.007-.2-.013-.3-.018a1.515,1.515,0,0,0-.395.042.417.417,0,0,0-.028.058.239.239,0,0,0,.018.118v0Zm3.662,5.119-.086-.048c.088.111.171.211.248.3a2.858,2.858,0,0,0,.373.253A3.876,3.876,0,0,1,199.754,49.326ZM131.012,31.745h.177l.158.079c.232.115.43.219.588.307a1.21,1.21,0,0,1,.629.81l.012,0a4.832,4.832,0,0,1,1.236-.211,1.357,1.357,0,0,1,1.379.932,1.678,1.678,0,0,1,.081,1.193l-.013.032a1.329,1.329,0,0,1-.822.71,1.767,1.767,0,0,1-.6.119,1.155,1.155,0,0,1-.361-.056.474.474,0,0,0-.095-.007l-.062,0a.535.535,0,0,0-.2.042,1.549,1.549,0,0,1-.655.131,2.488,2.488,0,0,1-.272-.016q-.066.008-.132.021a2.3,2.3,0,0,1-.081.241c-.015.079-.058.368-.126,1.321-.065.918-.132,1.677-.2,2.256q-.041.362-.095.747a2.838,2.838,0,0,0,.381-.017,3.439,3.439,0,0,0,.339-.08,2.792,2.792,0,0,1,.743-.1.412.412,0,0,0,.179-.032l.11-.055.122-.017a14.794,14.794,0,0,1,2.025-.14c.169,0,.34,0,.509.009a11.175,11.175,0,0,1,2.549.385,6.013,6.013,0,0,1,2.148,1.035,1.546,1.546,0,0,1,.593.552,1.211,1.211,0,0,1,.515.664,1.026,1.026,0,0,0,.1.233,2.377,2.377,0,0,1,.267.643,6.255,6.255,0,0,1,.144.8l0,.043a5.791,5.791,0,0,1-.091,1.272,5.516,5.516,0,0,1-.575,1.662,10.6,10.6,0,0,1-1.016,1.576l-.025.031c-.332.385-.666.768-.992,1.139a5.609,5.609,0,0,1-1.215,1.026,2.118,2.118,0,0,1-.637.617,5.6,5.6,0,0,1-.562.287.507.507,0,0,0-.048.024,1.066,1.066,0,0,1-.621.419,2.418,2.418,0,0,1-.769.41c-.161.045-.287.08-.374.106a3.845,3.845,0,0,1-.595.109,1.464,1.464,0,0,1-1.22-.42,1.373,1.373,0,0,1-.32-1.494,1.426,1.426,0,0,1,1.181-1.014,2.227,2.227,0,0,0,.538-.131c.207-.084.436-.174.682-.268a5.078,5.078,0,0,0,.809-.4,5.859,5.859,0,0,0,.665-.464c.2-.163.485-.421.85-.767a4.581,4.581,0,0,0,.79-.96c.276-.46.395-.679.446-.781a3.279,3.279,0,0,1,.246-.419c0-.012,0-.026,0-.043l-.024-.29.116-.149a.979.979,0,0,1,.04-.533l-.079-.157.088-.285c.01-.033.017-.059.023-.08a2.858,2.858,0,0,1-.1-.372,2.084,2.084,0,0,1-.417-.48.242.242,0,0,0-.067-.042,2.859,2.859,0,0,1-.559-.351,3.044,3.044,0,0,1-.688-.321h-.089a1.408,1.408,0,0,1-.667-.139,1.748,1.748,0,0,1-.69-.077c-.425-.018-.816-.05-1.166-.095a5.285,5.285,0,0,1-1.083.142l-.089,0h-.082a.87.87,0,0,0-.268.029c-.171.06-.33.111-.474.152s-.279.075-.393.1a1.458,1.458,0,0,1-.537-.007,3.11,3.11,0,0,1-.606.153,1.539,1.539,0,0,1-.493.23c-.035.009-.084.024-.151.046-.124.428-.156.579-.164.628a1.364,1.364,0,0,1-.309.682,1.648,1.648,0,0,1-.174.584,1.018,1.018,0,0,1-.192.6,1.233,1.233,0,0,1-.222.616c-.068.093-.174.247-.316.459l-.024.034c-.084.111-.176.243-.274.393a1.359,1.359,0,0,1-.538.849c-.013.009-.056.041-.154.126a1.484,1.484,0,0,1-.8.609c-.2.108-.405.208-.606.3s-.42.188-.637.281a2.3,2.3,0,0,1-.919.16c-.126,0-.261-.006-.4-.019l-.032,0a3.086,3.086,0,0,1-1.519-.636,2.247,2.247,0,0,1-.885-1.342,2.9,2.9,0,0,1,.006-1.223,7.122,7.122,0,0,1,.356-1.067,3.726,3.726,0,0,1,.915-1.281c.349-.328.637-.591.857-.781a6.474,6.474,0,0,1,.943-.658c.32-.189.6-.349.836-.477a2.146,2.146,0,0,1,.862-.4,1.81,1.81,0,0,0,.321-.17,2.031,2.031,0,0,1,.619-.3,1.223,1.223,0,0,0,.124-.046c0-.009,0-.018,0-.025a1.539,1.539,0,0,1,.1-.549,1.171,1.171,0,0,1,.152-.689,1.3,1.3,0,0,1,.01-.5l-.1-.222.106-.28a1.518,1.518,0,0,0,.064-.2,1.12,1.12,0,0,1,.114-.866,2.173,2.173,0,0,1,.036-.678c.034-.252.056-.5.066-.746a2.368,2.368,0,0,1-.335.065,1.57,1.57,0,0,0-.307.115,2.548,2.548,0,0,1-.467.557,1.166,1.166,0,0,1-.768.264,1.876,1.876,0,0,1-.5-.073,1.6,1.6,0,0,1-1.079-.99,1.512,1.512,0,0,1,.2-1.529,1.7,1.7,0,0,1,.977-.737c.259-.076.564-.158.907-.243.308-.077.584-.158.819-.241l.044-.016.046-.01c.162-.036.322-.068.476-.1,0-.081.005-.152.009-.214a1.717,1.717,0,0,1,.448-1A1.668,1.668,0,0,1,131.012,31.745Zm.081,1.625-.223-.117a.092.092,0,0,0-.044.029.764.764,0,0,0-.109.159c-.008.152-.011.38-.011.679v.537l-.47.156h.518l.018-.089.192-.082-.051,0,.137-.911C131.075,33.564,131.087,33.447,131.093,33.369Zm-3.877,2.6c.044-.058.1-.145.179-.271l.1-.161-.145.042a.2.2,0,0,0-.136.1l-.026.044-.032.04a.219.219,0,0,0-.032.05.168.168,0,0,0,.012.038C127.17,35.948,127.2,35.964,127.216,35.97Zm-.955,10.621a2.31,2.31,0,0,0,.6-.4,5.381,5.381,0,0,0,.5-.618,3.489,3.489,0,0,0,.417-.886l.046-.137a2.085,2.085,0,0,0-.22.139,3.24,3.24,0,0,1-.662.409.58.58,0,0,0-.142.092.691.691,0,0,0-.134.145,3.975,3.975,0,0,1-.6.646c-.145.225-.281.438-.4.634a.655.655,0,0,0-.048.092C125.764,46.685,125.982,46.645,126.261,46.591ZM83.967,31.879a1.167,1.167,0,0,1,.372.056,2.49,2.49,0,0,0,.3.051,3.235,3.235,0,0,1,.779.2,1.4,1.4,0,0,1,.822.9,1.892,1.892,0,0,1,.044,1.079l-.028.112-.061.1a2.733,2.733,0,0,1-.548.679,1.35,1.35,0,0,1-.831.286,1.561,1.561,0,0,1-.474.178c-.05.009-.148.029-.334.074a1.5,1.5,0,0,1-.831.243,1.293,1.293,0,0,1-.355.118,1,1,0,0,1-.651.217c-.038,0-.077,0-.117,0l-.083.037a1.175,1.175,0,0,1-.5.457,1.064,1.064,0,0,1-.429.433,4.964,4.964,0,0,1-.495.6,11.1,11.1,0,0,0-.755.906l-.031.038c-.325.377-.622.736-.883,1.066s-.452.583-.574.755a1.893,1.893,0,0,1-.621.561,2.5,2.5,0,0,1-.386.424c-.036.1-.065.189-.086.257a1.051,1.051,0,0,1-.41.567,1.734,1.734,0,0,1-.588.847c-.152.212-.268.378-.346.494a3.231,3.231,0,0,0-.259.562,1.7,1.7,0,0,0-.069.213q.07.048.135.1a1.418,1.418,0,0,1,.677.436,1.223,1.223,0,0,1,.27,1.147,1.545,1.545,0,0,1-.535.82,1.588,1.588,0,0,1-.743.348,1.719,1.719,0,0,1-.742-.063,4.908,4.908,0,0,1-.641-.244l-.124-.056-.1-.1a2.434,2.434,0,0,0-.4-.337,1.329,1.329,0,0,1-.609-.973,3.8,3.8,0,0,1-.024-.742,1.931,1.931,0,0,1,.03-.545,1.746,1.746,0,0,1,.309-.684,2.868,2.868,0,0,1,.125-.377,3.435,3.435,0,0,1,.265-.5c.1-.155.292-.45.6-.9l.014-.021c.8-1.116,1.654-2.2,2.525-3.225q.724-.851,1.458-1.727c-.15.058-.282.1-.4.141a1.711,1.711,0,0,1-.6.081,1.692,1.692,0,0,0-.162.1l-.092.065-.107.035a1.6,1.6,0,0,0-.283.113,1.128,1.128,0,0,1-1.011.122,1.931,1.931,0,0,1-.636-.359,2.922,2.922,0,0,1-.43-.446,1.175,1.175,0,0,1-.195-1.079,2.391,2.391,0,0,1,.283-.621,1.665,1.665,0,0,1,1.2-.61l.031,0,.032,0c.554-.036,1.238-.108,2.032-.216l.039,0,1.317-.109c.372-.048.734-.1,1.078-.145a1.57,1.57,0,0,1,.581-.134c.287-.284.553-.544.792-.773a4.228,4.228,0,0,1,1.34-.815,1.628,1.628,0,0,1,.8-.185A1.954,1.954,0,0,1,83.967,31.879Zm.855,1.672a1.762,1.762,0,0,0-.372-.088,3.868,3.868,0,0,1-.51-.092c-.019,0-.05.006-.094.015l-.11.022-.111-.011a.127.127,0,0,0-.09.021l-.039.022-.042.017a2.839,2.839,0,0,0-.9.523c-.2.19-.416.4-.65.633l.148.037a1.014,1.014,0,0,1,.494-.166,1.174,1.174,0,0,1,.649-.145,1.519,1.519,0,0,0,.142-.078l.1-.06.112-.028c.224-.056.391-.094.51-.116a1.055,1.055,0,0,0,.146-.085l.213-.141.256.018.075,0c.025-.031.059-.076.1-.141a.438.438,0,0,0-.025-.155ZM76.1,35.8l.084-.055q-.2.017-.384.029a1.678,1.678,0,0,0-.189.04l0,0q.05.051.106.1l.036.028A3.2,3.2,0,0,1,76.1,35.8ZM176.318,33.87a2.165,2.165,0,0,1,1.113.33l.039.025a1.179,1.179,0,0,1,.6,1.471,2.285,2.285,0,0,1-.454.715c-.089.1-.174.194-.254.294-.129.316-.345.861-.643,1.626a1.765,1.765,0,0,1-.3.795c-.08.31-.168.672-.262,1.076-.132.571-.181.825-.2.938a4.893,4.893,0,0,0-.048.5,1.664,1.664,0,0,1-.2.73,3.987,3.987,0,0,1-.113.923c.015.566.009,1.069-.018,1.5a8.716,8.716,0,0,0,.119,1.656,3.159,3.159,0,0,0,.179.8,3.942,3.942,0,0,0,.327.52c.011.015.034.046.163.05a1.931,1.931,0,0,0,.681-.1,10.576,10.576,0,0,0,1.39-.725c.449-.278.835-.523,1.149-.73a2.605,2.605,0,0,1,.713-.527,1.315,1.315,0,0,1,.7-.572l.139-.138a2.184,2.184,0,0,1,.488-.341,1.242,1.242,0,0,1,.7-.661.587.587,0,0,0,.076-.033,6.113,6.113,0,0,1,.521-.517c.159-.14.373-.324.634-.546a7.529,7.529,0,0,1,.67-.524,2.634,2.634,0,0,0,.407-.383l.018-.02.02-.018a1.812,1.812,0,0,1,1.207-.616,2.473,2.473,0,0,1,.74.117,1.218,1.218,0,0,1,.834,1.021,1.179,1.179,0,0,1-.322,1.141c-.078.07-.227.192-.691.526a1.609,1.609,0,0,0-.245.221,1.2,1.2,0,0,1-.494.352,2.136,2.136,0,0,1-.574.556c-.207.137-.427.295-.654.468l-.012.009a4.6,4.6,0,0,0-.716.625,2.432,2.432,0,0,1-.755.6c-.1.086-.2.174-.331.268a2.562,2.562,0,0,0-.267.221c-.063.063-.2.188-.629.552a11.777,11.777,0,0,1-1.71,1.091,1.653,1.653,0,0,1-.812.671c-.194.07-.4.133-.606.188a3.375,3.375,0,0,1-.756.34,3.161,3.161,0,0,1-.675.109c-.163.009-.375.026-.629.052a1.66,1.66,0,0,1-.169.009,2.679,2.679,0,0,1-1.245-.366,3,3,0,0,1-1.884-2.191,12.937,12.937,0,0,1-.293-1.815c-.019-.381-.029-.761-.029-1.131,0-.388.042-.995.129-1.856.081-.8.121-1.38.121-1.722v-.037l0-.037c.04-.395.152-1.063.344-2.044s.456-2.044.794-3.2a3.376,3.376,0,0,0,.125-.5,1.9,1.9,0,0,1,.47-.972,1.8,1.8,0,0,1,1.186-.743l.053-.006C176.23,33.871,176.274,33.87,176.318,33.87Zm.2,1.534a.544.544,0,0,0-.191-.045.516.516,0,0,0-.184.164,2.047,2.047,0,0,0-.177.261,4.759,4.759,0,0,1-.174.729q-.054.185-.105.366c.148-.374.258-.649.334-.832l.036-.088.057-.076A5.986,5.986,0,0,1,176.517,35.4Zm-35.873-1.089a1.669,1.669,0,0,1,1.03.35,1.919,1.919,0,0,1,.591.8c.15.2.323.422.515.669a3.274,3.274,0,0,1,.465.773,1.607,1.607,0,0,1,.365.579,1.115,1.115,0,0,0,.209.32,2.034,2.034,0,0,1,.556.754A1.3,1.3,0,0,1,144.4,39.7a1.83,1.83,0,0,0-.1.22,1.092,1.092,0,0,1-.963.679,2.042,2.042,0,0,1-.335.03,1.02,1.02,0,0,1-.749-.28,7,7,0,0,1-.524-.641,15.155,15.155,0,0,1-1.186-1.777,4.513,4.513,0,0,0-.734-1.009,1.231,1.231,0,0,1-.588-1.261,1.775,1.775,0,0,1,.377-.907A1.309,1.309,0,0,1,140.644,34.315ZM115.612,35.7a2.014,2.014,0,0,1,.751.108,1.232,1.232,0,0,1,.663.811,3.848,3.848,0,0,1,.343,1.277,16.083,16.083,0,0,1,.1,2.03V42.28a7.031,7.031,0,0,1-.047,1.2c-.039.321-.068.627-.087.911a2.807,2.807,0,0,1,.083,1.021,1.354,1.354,0,0,1-.419.824,1.585,1.585,0,0,1-.9.352,1.854,1.854,0,0,1-.219.013,1.832,1.832,0,0,1-.906-.242,1.319,1.319,0,0,1-.713-1.113,1.875,1.875,0,0,1,.129-.837,2.364,2.364,0,0,0,.107-.419,3.6,3.6,0,0,1,.19-1c-.021-.706-.016-.908-.008-1.011a1.811,1.811,0,0,1,.143-.564,2.394,2.394,0,0,1-.062-.718,3.378,3.378,0,0,0-.059-.7l-.017-.1.009-.1a1.834,1.834,0,0,0-.09-.572c-.094-.357-.176-.686-.243-.979a1.733,1.733,0,0,0-.128-.416l-.064-.111-.023-.125a1.707,1.707,0,0,1,.063-.92,1.681,1.681,0,0,1,.492-.691l.07-.06.082-.041A1.687,1.687,0,0,1,115.612,35.7Zm.024,1.489h-.012l-.006.014a.2.2,0,0,0,0,.045,3.584,3.584,0,0,1,.212.677q.034.148.073.31-.008-.076-.018-.147a2.314,2.314,0,0,0-.2-.8l-.044-.074Zm.3,7.923a2.765,2.765,0,0,0-.067-.406,2.384,2.384,0,0,1-.1.291.413.413,0,0,0-.011.093.3.3,0,0,0,.124.027l.04,0Zm48.6-9.413a2.014,2.014,0,0,1,.751.109,1.232,1.232,0,0,1,.663.811,3.848,3.848,0,0,1,.343,1.277,16.082,16.082,0,0,1,.1,2.03V42.28a7.031,7.031,0,0,1-.047,1.2c-.039.32-.068.626-.087.911a2.807,2.807,0,0,1,.083,1.021,1.354,1.354,0,0,1-.42.824,1.585,1.585,0,0,1-.9.352,1.854,1.854,0,0,1-.219.013,1.832,1.832,0,0,1-.906-.242,1.319,1.319,0,0,1-.713-1.113,1.876,1.876,0,0,1,.129-.837,2.362,2.362,0,0,0,.107-.419,3.6,3.6,0,0,1,.19-1c-.021-.706-.016-.908-.008-1.011a1.811,1.811,0,0,1,.143-.564,2.393,2.393,0,0,1-.062-.718,3.378,3.378,0,0,0-.059-.7l-.017-.1.009-.1a1.833,1.833,0,0,0-.09-.572c-.094-.357-.176-.686-.243-.979a1.732,1.732,0,0,0-.128-.416l-.064-.111-.023-.125a1.707,1.707,0,0,1,.063-.92,1.681,1.681,0,0,1,.492-.691l.07-.06.082-.041A1.687,1.687,0,0,1,164.537,35.7Zm.024,1.489h-.012l-.006.014h0a.192.192,0,0,0,0,.045,3.585,3.585,0,0,1,.212.677q.034.148.073.31-.008-.076-.018-.147a2.314,2.314,0,0,0-.2-.8l-.044-.074Zm.3,7.923a2.764,2.764,0,0,0-.067-.406,2.387,2.387,0,0,1-.1.291.412.412,0,0,0-.011.093.3.3,0,0,0,.124.027l.04,0Zm-63.452-9.278a1.864,1.864,0,0,1,.432.052,1.209,1.209,0,0,1,.964.958,1.953,1.953,0,0,1-.182,1.154,3.442,3.442,0,0,0-.113.782,5.647,5.647,0,0,0,.023,1.184l.013.093-.011.093a2.094,2.094,0,0,0,.013.813,2.052,2.052,0,0,1,.128.846,2.617,2.617,0,0,0,.075.336,10.535,10.535,0,0,1,.345,1.079,11.459,11.459,0,0,0,.444,1.3,6.671,6.671,0,0,0,.545,1.06,6.874,6.874,0,0,1,.508.664c.062.06.112.1.15.132.027-.012.059-.027.1-.047a3.834,3.834,0,0,1,.677-.624,3.325,3.325,0,0,1,.208-.377,2.484,2.484,0,0,1,.432-.453,1.756,1.756,0,0,1,.46-.611,4.2,4.2,0,0,1,.4-.432,1.081,1.081,0,0,1,.52-.672c.128-.171.261-.354.4-.546l.018-.025.02-.023c.2-.233.372-.442.515-.62a3.6,3.6,0,0,1,.6-.592,1.3,1.3,0,0,1,.8-.286,1.258,1.258,0,0,1,.434.078,1.578,1.578,0,0,1,.822.716,1.3,1.3,0,0,1,.068,1.241,2.464,2.464,0,0,1-.4.613c-.1.112-.288.309-.566.6-.375.428-.857.949-1.432,1.549s-1.012,1.074-1.335,1.449c-.34.394-.685.776-1.026,1.133l-.071.074-.088.052a3.809,3.809,0,0,1-.99.428,1.717,1.717,0,0,1-.428.051,3.637,3.637,0,0,1-1.123-.217l-.184-.061-.131-.142a1.744,1.744,0,0,0-.444-.36,1.9,1.9,0,0,1-.777-.764c-.235-.307-.443-.6-.618-.864a3.067,3.067,0,0,1-.428-.976,1.3,1.3,0,0,0-.108-.155,1.1,1.1,0,0,1-.416-1.063.324.324,0,0,0-.019-.035,1.95,1.95,0,0,1-.233-.6,1.286,1.286,0,0,1-.226-.731.575.575,0,0,0-.03-.061l-.094-.169v-.193a3.3,3.3,0,0,0-.022-.405,2.559,2.559,0,0,1-.022-.446l0,0a2.071,2.071,0,0,1-.19-.519,3.043,3.043,0,0,1-.042-.576,3.348,3.348,0,0,1-.138-.745,5.4,5.4,0,0,1-.015-.707c.008-.129.012-.256.013-.378-.019-.2-.028-.46-.028-.78a3.265,3.265,0,0,1,.1-.915,2.9,2.9,0,0,1,.226-.557,1.514,1.514,0,0,1,.778-.648A1.778,1.778,0,0,1,101.414,35.831Zm-.313,2.136a2.608,2.608,0,0,1,.138-.531l.009-.022.023-.055c-.023.011-.04.02-.052.027a1.187,1.187,0,0,0-.118.581Zm49.238-2.136a1.864,1.864,0,0,1,.432.052,1.209,1.209,0,0,1,.964.958,1.954,1.954,0,0,1-.182,1.154,3.442,3.442,0,0,0-.113.782,5.647,5.647,0,0,0,.023,1.184l.013.093-.011.093a2.094,2.094,0,0,0,.013.813,2.052,2.052,0,0,1,.128.846,2.62,2.62,0,0,0,.075.336,10.533,10.533,0,0,1,.345,1.079,11.465,11.465,0,0,0,.444,1.3,6.673,6.673,0,0,0,.545,1.06,6.874,6.874,0,0,1,.508.664c.062.06.112.1.15.132.027-.012.059-.027.1-.047a3.835,3.835,0,0,1,.677-.624,3.325,3.325,0,0,1,.208-.377,2.483,2.483,0,0,1,.432-.453,1.756,1.756,0,0,1,.46-.611,4.208,4.208,0,0,1,.4-.432,1.08,1.08,0,0,1,.52-.672c.127-.171.261-.354.4-.546l.018-.025.02-.023c.2-.233.372-.442.515-.62a3.6,3.6,0,0,1,.6-.592,1.3,1.3,0,0,1,.8-.286,1.258,1.258,0,0,1,.434.078,1.578,1.578,0,0,1,.822.716,1.3,1.3,0,0,1,.068,1.241,2.464,2.464,0,0,1-.4.613c-.1.112-.288.309-.566.6-.375.428-.857.949-1.432,1.549s-1.012,1.074-1.335,1.449c-.34.394-.685.776-1.026,1.133l-.071.074-.088.052a3.809,3.809,0,0,1-.99.428,1.717,1.717,0,0,1-.428.051,3.637,3.637,0,0,1-1.123-.217l-.184-.061-.131-.142a1.744,1.744,0,0,0-.444-.36,1.9,1.9,0,0,1-.777-.764c-.235-.307-.443-.6-.618-.864a3.067,3.067,0,0,1-.428-.976,1.3,1.3,0,0,0-.108-.155,1.1,1.1,0,0,1-.416-1.063.326.326,0,0,0-.019-.035,1.95,1.95,0,0,1-.234-.6,1.286,1.286,0,0,1-.226-.731.57.57,0,0,0-.03-.061l-.094-.169v-.193a3.3,3.3,0,0,0-.022-.405,2.559,2.559,0,0,1-.022-.446l0,0a2.071,2.071,0,0,1-.19-.519,3.042,3.042,0,0,1-.042-.576,3.348,3.348,0,0,1-.138-.745,5.405,5.405,0,0,1-.015-.707c.008-.129.012-.256.013-.378-.019-.2-.028-.46-.028-.78a3.264,3.264,0,0,1,.1-.915,2.9,2.9,0,0,1,.226-.557,1.514,1.514,0,0,1,.778-.648A1.778,1.778,0,0,1,150.339,35.831Zm-.313,2.136a2.609,2.609,0,0,1,.138-.531l.009-.022.023-.055c-.023.011-.04.02-.052.027a1.187,1.187,0,0,0-.118.581Zm-91.6-2.122a1.539,1.539,0,0,1,1.13.6c.687.765.4,1.315.244,1.516a8.209,8.209,0,0,1-.67.716c-.153.246-.273.451-.358.612a4.814,4.814,0,0,0-.273.678l-.014.041-.018.039c-.119.253-.207.462-.264.622s-.108.327-.149.482-.076.3-.1.426-.065.354-.126.711c.049.235.079.343.093.389a.168.168,0,0,0,.009.022,2.1,2.1,0,0,0,.248.018c.375-.087.753-.162,1.128-.224a10.658,10.658,0,0,0,1.064-.232,6.839,6.839,0,0,1,1.064-.216,5.4,5.4,0,0,0,.609-.1c.214-.048.43-.092.644-.131a7.292,7.292,0,0,1,.838-.093h.011a7.047,7.047,0,0,1,1.077.017,3.72,3.72,0,0,1,.854.192,3.366,3.366,0,0,1,.716.357,2.053,2.053,0,0,1,.584.573,2.278,2.278,0,0,1,.5,1.289,2.172,2.172,0,0,1-.209,1.162,6.652,6.652,0,0,1-.726,1.01c-.381.51-.8,1.022-1.259,1.521s-.934.99-1.426,1.46c-.6.577-1.189,1.173-1.752,1.769-.527.558-.9.948-1.139,1.187a6.065,6.065,0,0,1-.378.6,1.553,1.553,0,0,1-.848.531,2.1,2.1,0,0,1-.589.091,1.487,1.487,0,0,1-.358-.042,1.565,1.565,0,0,1-.8-.508,1.177,1.177,0,0,1-.3-1.11c.043-.161.1-.328.161-.5a1.37,1.37,0,0,1,.509-.655c.16-.156.317-.3.467-.416a1.425,1.425,0,0,1,.608-.432,1.715,1.715,0,0,1,.549-.475,2.417,2.417,0,0,1,.779-.6,1.916,1.916,0,0,0,.142-.162,5.19,5.19,0,0,1,1-1.007,5.415,5.415,0,0,1,.69-.815A3.117,3.117,0,0,1,63,46.17a1.311,1.311,0,0,1,.622-.626.3.3,0,0,0,.038-.047,3.654,3.654,0,0,1,.506-.575,4.767,4.767,0,0,0,.334-.35l.006-.027c-.06-.036-.183-.1-.421-.218a1,1,0,0,0-.238-.037.241.241,0,0,0-.036,0,2.839,2.839,0,0,1-.686.012,1.932,1.932,0,0,1-.815.083c-.182.064-.337.124-.463.18a1.443,1.443,0,0,1-.866.117,1.243,1.243,0,0,1-.781.29h-.045a1.16,1.16,0,0,1-.472.1,1.188,1.188,0,0,1-.165-.012l-.174.129-.286-.022c-.035,0-.066,0-.093,0h-.03a2.623,2.623,0,0,1-.771.193l-.049.007h-.05a2.983,2.983,0,0,1-.918-.107c-.16-.053-.343-.124-.559-.215a2.332,2.332,0,0,1-.778-.546,2.25,2.25,0,0,1-.523-.942l-.014-.049-.007-.05a6.017,6.017,0,0,1-.063-.851v-.76a4.507,4.507,0,0,1,.176-1.14,4.767,4.767,0,0,1,.238-1c.125-.372.224-.653.3-.859.072-.188.153-.391.242-.6a5.462,5.462,0,0,1,.246-.691,7.17,7.17,0,0,1,.4-.744l.047-.079.065-.065a6.212,6.212,0,0,1,.474-.424,1.77,1.77,0,0,1,.862-.38A1.124,1.124,0,0,1,58.43,35.844Zm.779,16.082c.043-.063.126-.192.271-.446-.1.087-.211.188-.324.3l-.071.071-.047.027q-.021.056-.039.111a.951.951,0,0,0,.112-.026A.739.739,0,0,0,59.208,51.926ZM16.925,36.083a1.092,1.092,0,0,1,.588.173,2.684,2.684,0,0,1,.829.467c.541.358,1.079.707,1.6,1.039a7.148,7.148,0,0,1,1.277.969,2.735,2.735,0,0,1,.575.825,2.4,2.4,0,0,1,.3.748,1.694,1.694,0,0,1-.062.994,1.408,1.408,0,0,1-.792.788,1.192,1.192,0,0,1-.47.094,1.881,1.881,0,0,1-1.033-.366l-.194-.128-.086-.215a5.716,5.716,0,0,1-.246-.742,1.13,1.13,0,0,1-.367-.418h0a.469.469,0,0,0-.1-.1,1.431,1.431,0,0,0-.159-.123,3.091,3.091,0,0,1-.42-.273,2.31,2.31,0,0,1-.993-.459,1.835,1.835,0,0,1-.928-.543,1.538,1.538,0,0,1-.655-.878,1.408,1.408,0,0,1,.153-1.137,1.5,1.5,0,0,1,.779-.645A1.2,1.2,0,0,1,16.925,36.083Zm-10.742.171a1.834,1.834,0,0,1,.356.037,1.351,1.351,0,0,1,.905.612,1.3,1.3,0,0,1,.135,1.1,4.478,4.478,0,0,1-.2.53,2.139,2.139,0,0,1-.433.591,6.858,6.858,0,0,1-1,.9c-.41.317-.857.675-1.331,1.064-.575.473-.8.678-.893.768l-.052.052-.429.284a3.833,3.833,0,0,0-.332.333l-.061.065-.021.014a1.2,1.2,0,0,1-.994.768,1.485,1.485,0,0,1-.278.027A1.461,1.461,0,0,1,.511,42.95,1.546,1.546,0,0,1,0,41.843a1.665,1.665,0,0,1,.42-1.066l.024-.029.026-.026a4.419,4.419,0,0,1,.762-.579c.295-.235.429-.356.489-.416a2.579,2.579,0,0,1,.657-.452.682.682,0,0,0,.159-.145,1.375,1.375,0,0,1,.657-.451,3.048,3.048,0,0,1,.467-.405,1.057,1.057,0,0,1,.507-.5,1.85,1.85,0,0,0,.23-.183,1.447,1.447,0,0,0,.19-.288c.127-.643.812-.873,1.084-.955A1.43,1.43,0,0,1,6.183,36.254Zm-.329,1.851.008-.008a.841.841,0,0,0,.155-.186q.027-.057.054-.129L6,37.809A1.9,1.9,0,0,1,5.854,38.106Zm82.179-1.7c.061,0,.122,0,.181.008a4.054,4.054,0,0,1,.953.23l1.007.334.083.055a1.818,1.818,0,0,0,.246.137,4.226,4.226,0,0,1,.44.235c.106.065.232.136.375.211.164.086.316.169.452.246a7.922,7.922,0,0,0,.874.415c.382.157.707.293.967.4l.04.018a3.514,3.514,0,0,1,.814.521,1.562,1.562,0,0,1,.461.714,1.371,1.371,0,0,1-.154,1.034,1.7,1.7,0,0,1-.6.689,1.339,1.339,0,0,1-1.076.112,2.338,2.338,0,0,1-.9-.518,1.439,1.439,0,0,1-.453-.314,1.1,1.1,0,0,1-.61-.248,2.07,2.07,0,0,1-.762-.347,5.252,5.252,0,0,1-.473-.339,2.212,2.212,0,0,1-.444-.165c-.084-.042-.35-.162-1.12-.491l-.011,0a1.384,1.384,0,0,1-.328.157,1.944,1.944,0,0,1,.348.124,1.135,1.135,0,0,1,.652,1.122,2.333,2.333,0,0,1-.167.789,1.48,1.48,0,0,1-.349.513,2.156,2.156,0,0,1-.31.561q-.062.079-.124.173a1.714,1.714,0,0,1-.18.708,1.2,1.2,0,0,1-.158.91.478.478,0,0,0-.008.051,1.862,1.862,0,0,1-.18.628q-.009.078-.023.157a1.475,1.475,0,0,1,.5.075.506.506,0,0,0,.152.017c.159,0,.367,0,.638.014a7.314,7.314,0,0,1,.78.069,8.027,8.027,0,0,1,1.226.066,2.377,2.377,0,0,0,.358.044,2.344,2.344,0,0,1,.678.131c.223-.012.456-.014.7-.006a1.919,1.919,0,0,1,1.1.37,1.449,1.449,0,0,1,.607.887,1.283,1.283,0,0,1-.168.928,1.461,1.461,0,0,1-.641.561,1.586,1.586,0,0,1-.678.131,3.157,3.157,0,0,1-.385-.026l-.037-.006c-.315-.055-.6-.107-.854-.153-.212-.039-.55-.076-1.007-.109a1.873,1.873,0,0,1-.634-.055l-.016,0a1.159,1.159,0,0,1-.254.028,1.663,1.663,0,0,1-.574-.114,1.888,1.888,0,0,0-.561-.051H88.3l-.115-.038a.8.8,0,0,0-.249-.045,1.379,1.379,0,0,1-.6-.12,2.34,2.34,0,0,1-.5.021q-.066,0-.141-.013c-.269.45-.517.859-.742,1.222a8.738,8.738,0,0,1-1.125,1.45l-.053.055-.063.043a5.355,5.355,0,0,1-.954.515,2.616,2.616,0,0,1-1.266.208,2.136,2.136,0,0,1-.98-.314,1.762,1.762,0,0,1-.912-.771,2.224,2.224,0,0,1-.486-.818c-.04-.149-.092-.366-.16-.663a2.284,2.284,0,0,1-.059-.946,3.827,3.827,0,0,1,.356-.892l.007-.014a2.757,2.757,0,0,1,1.514-1.2,6.751,6.751,0,0,1,1.909-.45c.372-.03.739-.059,1.094-.086q.021-.093.038-.183c.045-.23.095-.52.149-.86l0-.027.006-.027c.071-.3.133-.6.186-.9.057-.321.175-.917.361-1.822a4.435,4.435,0,0,1,.214-.857A1.462,1.462,0,0,1,86.7,39.6q.154-.047.3-.079a1.859,1.859,0,0,1-.215-.091,1.434,1.434,0,0,1-.76-1.054,1.367,1.367,0,0,1,.312-1.282,2.124,2.124,0,0,1,.893-.543A2.569,2.569,0,0,1,88.034,36.41ZM87.5,38.1a1.488,1.488,0,0,1,.483-.2,1.189,1.189,0,0,0-.284.062.9.9,0,0,0-.214.1l0,.011c0,.013.005.024.008.033Zm-.063,2.874.011-.028a1.9,1.9,0,0,0-.307.071h0A2.962,2.962,0,0,0,87,41.6l-.008.044-.014.069.012-.015a1.008,1.008,0,0,0,.137-.312l.087-.281Zm-3.893,7.16.068-.11a1.431,1.431,0,0,1-.554.141l-.018,0c-.078.055-.175.116-.3.185a.525.525,0,0,0-.016.153.49.49,0,0,0,.016.07l.056,0a.927.927,0,0,0,.313-.07A2.484,2.484,0,0,0,83.548,48.138Z" transform="translate(1113 1355.625) rotate(-7)" fill="#009f3a"/>
    <path id="パス_6267" data-name="パス 6267" d="M14,5.435l-3.894-3.9-.363.363,3.9,3.927-3.9,3.905.363.363L14,6.216l3.905,3.872.352-.363-3.9-3.905,3.9-3.927-.352-.363Zm.011-3.641a.845.845,0,0,0-.847.836.855.855,0,0,0,.847.847.842.842,0,0,0,0-1.683ZM10.854,4.973a.838.838,0,0,0-.847.836.855.855,0,0,0,.847.847.842.842,0,0,0,0-1.683Zm6.292.011a.836.836,0,1,0,.836.836A.836.836,0,0,0,17.146,4.984ZM14,8.174l-.022.022c-.011,0-.011,0-.022-.011a.04.04,0,0,0-.033-.011A.849.849,0,0,0,14,9.868a.852.852,0,0,0,.836-.847A.838.838,0,0,0,14,8.174ZM28.476,3.026l.561-.22a7.356,7.356,0,0,0-.979-1.738l-.8.3a7.165,7.165,0,0,1,.858,1.518l.055.11.033.088a3.7,3.7,0,0,1-.6.022l-2.442.011c.033-.385.033-.4.044-.693l.033-.594.011-.209c0-.077.011-.132.011-.2a3.071,3.071,0,0,1,.044-.352l-1.474-.033a2.247,2.247,0,0,1,.033.429v.275c0,.319-.022.968-.055,1.375l-1.925.011a6.576,6.576,0,0,1-1.221-.077l.011,1.342a7.459,7.459,0,0,1,1.188-.055H23.68A6.024,6.024,0,0,1,20.2,9.362a4.484,4.484,0,0,1,.99,1.155,7.6,7.6,0,0,0,3.85-6.193h2.563a24.818,24.818,0,0,1-.242,3.52c-.176.957-.341,1.2-.814,1.2A5.352,5.352,0,0,1,25.1,8.779a3.358,3.358,0,0,1,.253,1.408,7.435,7.435,0,0,0,1.364.132c1.32,0,1.7-.451,1.991-2.354.11-.726.231-2.431.264-3.674a1.662,1.662,0,0,1,.121-.726Zm1.936-.792A6.419,6.419,0,0,0,29.444.562L28.663.87a7.879,7.879,0,0,1,.946,1.7Zm.869,4.312a12.076,12.076,0,0,1,1.793-.055h5.841a12.076,12.076,0,0,1,1.793.055V5.017a10.8,10.8,0,0,1-1.782.077H33.063a10.8,10.8,0,0,1-1.782-.077ZM48,3.741c0-.121,0-.121.011-.847l.011-.66a6.939,6.939,0,0,1,.055-1.056H46.56a6.924,6.924,0,0,1,.055,1.056v.649c0,.2,0,.4-.011.858H43.832a7.951,7.951,0,0,1-1.43-.077V5.05a11.3,11.3,0,0,1,1.408-.055h2.728A4.756,4.756,0,0,1,46,7.206a5.078,5.078,0,0,1-2.651,2.167,3.417,3.417,0,0,1,1,1.188A6.622,6.622,0,0,0,47.154,8.1a6.073,6.073,0,0,0,.792-3.1H50.2a11.3,11.3,0,0,1,1.408.055V3.664a7.879,7.879,0,0,1-1.43.077Zm6.941-1.265a29.017,29.017,0,0,1,6.006,1.265l.44-1.353A36.667,36.667,0,0,0,55.437,1.2ZM54.766,5.5a24.191,24.191,0,0,1,2.783.484,18.908,18.908,0,0,1,3.025.88L61,5.512a34.567,34.567,0,0,0-5.731-1.276Zm-.891,3.091a30.6,30.6,0,0,1,3.454.638,20.18,20.18,0,0,1,3.894,1.232L61.7,9.076a34.435,34.435,0,0,0-7.3-1.738ZM66.063,1.4a5.529,5.529,0,0,1,.044,1c0,3.08-.253,4.5-1.045,5.764a4.519,4.519,0,0,1-1.133,1.265,3.915,3.915,0,0,1,1.111,1.067A7,7,0,0,0,66.558,8.46a10.3,10.3,0,0,0,.891-4.521,22.989,22.989,0,0,1,.11-2.464Zm2.915-.077a4.76,4.76,0,0,1,.044.726v.33l-.055,6.2a4.929,4.929,0,0,1-.1,1.166l.7.748a4.787,4.787,0,0,1,.473-.2,7.265,7.265,0,0,0,2.343-1.32,6.827,6.827,0,0,0,1.749-2.563A4.611,4.611,0,0,1,73.1,5.38a5.375,5.375,0,0,1-1.078,2.013,4.422,4.422,0,0,1-1.683,1.254L70.4,2.388a5.96,5.96,0,0,1,.077-1.045Zm14.443.946a1.949,1.949,0,0,1-.8.11l-2.409.033c-.209,0-.385.011-.528.022a2.594,2.594,0,0,0,.176-.352L80,1.794a2.221,2.221,0,0,1,.143-.308,2.249,2.249,0,0,1,.187-.341l-1.507-.3A4.105,4.105,0,0,1,78.262,2.3a8.462,8.462,0,0,1-2.849,3.19,2.923,2.923,0,0,1,1.067.946A10.767,10.767,0,0,0,79.054,3.62l3.311-.055a8.711,8.711,0,0,1-3.212,4.642,9.906,9.906,0,0,1-2.409,1.3,3.389,3.389,0,0,1,.935,1.155A11.112,11.112,0,0,0,81.6,7.866,11.409,11.409,0,0,0,83.85,3.62a2.069,2.069,0,0,1,.275-.66ZM88.382,5.2H89.9a5.259,5.259,0,0,1,1.056.066v-1.3a5.259,5.259,0,0,1-1.056.066H88.382V2.2A7.332,7.332,0,0,1,88.448.969H87.073A9.072,9.072,0,0,1,87.139,2.2V9.274a6.984,6.984,0,0,1-1.21.209l.264,1.364a4.607,4.607,0,0,1,.6-.209c.088-.022.088-.022.231-.066.8-.22.8-.22,1.166-.33,1.331-.418,1.892-.616,2.75-.946L90.934,8.13c-.979.341-1.518.517-2.552.814Zm4.2.7a19.207,19.207,0,0,0,3.047-1.98c.231-.187.231-.187.4-.308l-.858-1.012a8.684,8.684,0,0,1-2.585,2.013v-2.4A7.557,7.557,0,0,1,92.65.98H91.3a8.495,8.495,0,0,1,.066,1.243V9.582c0,.495.11.759.407.913a3.628,3.628,0,0,0,1.683.2c1.309,0,1.782-.1,2.09-.44s.44-.979.517-2.618a4.671,4.671,0,0,1-1.166-.484,5.428,5.428,0,0,1-.231,2.211c-.11.154-.374.2-1.144.2-.792,0-.935-.044-.935-.286Z" transform="translate(1167 1470)" fill="#371606"/>
  </g>
</svg>
