<svg xmlns="http://www.w3.org/2000/svg" width="108.882" height="282.443" viewBox="0 0 108.882 282.443">
  <g id="deliciousness_item2_copy" transform="translate(-336.405 -4423.505)">
    <path id="合体_76" data-name="合体 76" d="M-37.013,464.952l-.322-.1-.231-.244a3.8,3.8,0,0,0-.977-.767,3.655,3.655,0,0,1-1.526-1.463c-.49-.623-.925-1.21-1.292-1.75a6.083,6.083,0,0,1-.883-1.948,2.6,2.6,0,0,0-.288-.4,2.076,2.076,0,0,1-.8-2.029.829.829,0,0,0-.078-.154,3.821,3.821,0,0,1-.477-1.2,2.43,2.43,0,0,1-.47-1.437,1.024,1.024,0,0,0-.1-.2l-.168-.292-.006-.337a7.02,7.02,0,0,0-.061-.858,4.919,4.919,0,0,1-.057-.927c-.006-.016-.017-.039-.031-.068a4,4,0,0,1-.384-1,6.209,6.209,0,0,1-.1-1.17,6.669,6.669,0,0,1-.307-1.5,10.867,10.867,0,0,1-.054-1.418c.011-.274.015-.542.012-.8-.045-.413-.073-.934-.085-1.589a6.552,6.552,0,0,1,.163-1.814,5.785,5.785,0,0,1,.423-1.107,2.879,2.879,0,0,1,1.454-1.253,3.386,3.386,0,0,1,1.35-.308,3.522,3.522,0,0,1,.828.085,2.253,2.253,0,0,1,1.825,1.754,3.808,3.808,0,0,1-.319,2.245,7,7,0,0,0-.217,1.674,11.873,11.873,0,0,0,.092,2.472l.025.162-.016.163a4.534,4.534,0,0,0,.066,1.759,3.949,3.949,0,0,1,.278,1.661,5.18,5.18,0,0,0,.181.76,21.473,21.473,0,0,1,.739,2.188,23.686,23.686,0,0,0,.959,2.668,13.863,13.863,0,0,0,1.176,2.2,13.9,13.9,0,0,1,1.067,1.352,3.986,3.986,0,0,0,.454.374,3.109,3.109,0,0,0,.371-.181,7.551,7.551,0,0,1,1.391-1.33,7.039,7.039,0,0,1,.421-.807,4.784,4.784,0,0,1,.863-.932,3.374,3.374,0,0,1,.892-1.247,8.339,8.339,0,0,1,.806-.91.136.136,0,0,0,.041-.082,1.992,1.992,0,0,1,.973-1.285c.264-.369.541-.764.825-1.178l.031-.044.033-.041c.4-.486.744-.922,1.031-1.293a7.125,7.125,0,0,1,1.159-1.2,2.423,2.423,0,0,1,1.48-.564,2.32,2.32,0,0,1,.807.132,2.959,2.959,0,0,1,1.581,1.34,2.468,2.468,0,0,1,.172,2.332,4.823,4.823,0,0,1-.762,1.213c-.2.23-.585.654-1.133,1.259-.747.889-1.707,1.973-2.857,3.22-1.129,1.225-2.029,2.243-2.677,3.026-.677.818-1.364,1.608-2.042,2.35l-.12.131-.151.094a7.548,7.548,0,0,1-1.941.887,3.247,3.247,0,0,1-.813.111h-.072A7.3,7.3,0,0,1-37.013,464.952ZM-14.2,459.5a2.487,2.487,0,0,1-1.375-2.071,3.639,3.639,0,0,1,.218-1.62,5.142,5.142,0,0,0,.22-.927,7.238,7.238,0,0,1,.353-2.051c-.069-1.476-.066-1.891-.054-2.085a3.518,3.518,0,0,1,.286-1.165,4.508,4.508,0,0,1-.166-1.475,7.194,7.194,0,0,0-.149-1.481l-.033-.17.013-.173a3.93,3.93,0,0,0-.211-1.247c-.2-.725-.382-1.395-.527-1.99a3.7,3.7,0,0,0-.3-.911l-.113-.191-.044-.219a3.3,3.3,0,0,1,.088-1.767,3.212,3.212,0,0,1,.914-1.34l.12-.106.141-.074a3.193,3.193,0,0,1,1.425-.389,3.857,3.857,0,0,1,1.449.181,2.331,2.331,0,0,1,1.254,1.519,7.786,7.786,0,0,1,.728,2.545,33.472,33.472,0,0,1,.282,4.127l.085,4.838a14.347,14.347,0,0,1-.052,2.429c-.07.675-.12,1.319-.147,1.916a5.634,5.634,0,0,1,.209,2.037,2.561,2.561,0,0,1-.755,1.57,3.006,3.006,0,0,1-1.694.694,3.654,3.654,0,0,1-.418.032h-.062A3.5,3.5,0,0,1-14.2,459.5Zm48.218-19.423a6.01,6.01,0,0,1-1.945-.36,7.657,7.657,0,0,1-2.357-1.228,6.554,6.554,0,0,1-1.515-1.773,13.2,13.2,0,0,1-.878-1.745l-.038-.095-.022-.1a15.8,15.8,0,0,1-.427-3.295,17.759,17.759,0,0,1,.248-3.216q.127-.753.253-1.526h-.021c-.32.006-.95.036-1.872.088h-.005c-1.083.058-1.857.09-2.368.1a2.5,2.5,0,0,1-2.176-1.051,3.945,3.945,0,0,1-.659-1.631,3.317,3.317,0,0,1,.167-1.758,3.109,3.109,0,0,1,1.673-1.59l.038-.019.04-.016a16.362,16.362,0,0,0,1.847-.9c.787-.445,1.133-.654,1.285-.751a4.942,4.942,0,0,1,1.106-.521c.257-.086.5-.179.72-.278l.463-.208a2.832,2.832,0,0,1,1.636-1,3.019,3.019,0,0,1,.556-.329c.658-1.911,1.129-3.217,1.434-3.983.161-.4.337-.843.526-1.312a5.669,5.669,0,0,1-.9-.163,2.221,2.221,0,0,1-.786.167,1.671,1.671,0,0,1-.69-.13h-.017a1.607,1.607,0,0,0-.168.013c-.419.049-.851.077-1.29.086-.362.006-.829.031-1.39.077a4.223,4.223,0,0,0-1.213.279,2.515,2.515,0,0,1-1.033.247,2.478,2.478,0,0,1-1.258-.325,2.4,2.4,0,0,1-1.258-1.439,7.9,7.9,0,0,1-.192-1.054,2.465,2.465,0,0,1,.648-2,3.413,3.413,0,0,1,2-1,11.712,11.712,0,0,1,1.875-.191l.068,0,.067.006c.77.067,1.343.139,1.75.217a1.739,1.739,0,0,0,.563.029,3.409,3.409,0,0,1,1.368.094c.542.032,1.308.091,2.331.178l.049.005c.469.059.934.118,1.391.177q.159-.377.318-.807a15.244,15.244,0,0,1,.813-1.843,8.3,8.3,0,0,1,.9-2.345,2.463,2.463,0,0,1,2.1-1.356c.067,0,.135,0,.2.006a3.076,3.076,0,0,1,1.934.892,3.039,3.039,0,0,1,1.136,2.772,2.926,2.926,0,0,1-.878,1.913,1.759,1.759,0,0,0-.315.363,8.988,8.988,0,0,0-.58,1.155l-.035.078-.018.03a2.3,2.3,0,0,0,.42.08,5.592,5.592,0,0,1,2.258,1.02l.158.1.123.143a5.981,5.981,0,0,1,.957,1.38,4.466,4.466,0,0,1,.306,1.753,4.081,4.081,0,0,1-.767,2.412l-.036.053-.041.049a9.281,9.281,0,0,1-.909.94,5.507,5.507,0,0,1-.92.68c-.124.071-.411.247-1.076.684a10.049,10.049,0,0,1-1.589.862,2.824,2.824,0,0,1-1.208.733,4.812,4.812,0,0,0-.688.258c-.239.109-.562.27-.966.478a3.634,3.634,0,0,1-1.225.732c-.159.5-.306.905-.442,1.237q.6-.08,1.305-.2c1.325-.223,2.345-.432,3.033-.622.741-.2,1.331-.359,1.754-.464a11.671,11.671,0,0,0,1.629-.615,3.126,3.126,0,0,1,1.744-.642,2.308,2.308,0,0,1,.8.125,2.759,2.759,0,0,1,1.644,1.453,2.484,2.484,0,0,1,.1,2.073,2.946,2.946,0,0,1-1.644,1.5l-.049.021a19.12,19.12,0,0,1-3.242.914c-1.2.242-2.116.445-2.732.6a10.571,10.571,0,0,1-2.032.324,20.571,20.571,0,0,0-2.346.336l-.061.01c-.375.05-.773.1-1.189.154q-.049.257-.076.451c-.054.383-.141.9-.267,1.565-.113.6-.249,1.517-.406,2.724a8.867,8.867,0,0,0,.308,1.947,4.373,4.373,0,0,0,.835,1.7,1.563,1.563,0,0,0,1.052.606l.1.013.1.029a2.392,2.392,0,0,0,1.38-.158,23.418,23.418,0,0,0,3.162-1.507,30.528,30.528,0,0,0,3.5-2.67c1.136-1.005,2.306-2.082,3.477-3.2,1.148-1.1,1.958-1.923,2.4-2.458l.049-.058.054-.051a6.11,6.11,0,0,1,1.571-1.133,2.487,2.487,0,0,1,1.021-.237,3.111,3.111,0,0,1,1.4.33,2.38,2.38,0,0,1,1.465,2.24,2.831,2.831,0,0,1-.77,1.955,8.859,8.859,0,0,1-1.077.921,2.389,2.389,0,0,1-1.3.9,2.877,2.877,0,0,1-1.162,1.119,8.169,8.169,0,0,1-1.179,1.148c-.4.314-.795.591-1.164.826a2.577,2.577,0,0,0-.6.522,5.5,5.5,0,0,1-1.3,1.08,4.224,4.224,0,0,1-1.712,1.242,9.163,9.163,0,0,1-1.331,1.072,20.269,20.269,0,0,1-1.978,1.185,4.751,4.751,0,0,1-1.222.625c-.189.055-.471.13-.858.227a4,4,0,0,1-1.754.558,6.389,6.389,0,0,1-1.887.3Zm2.59-26.97.056-.027c.382-.244.769-.5,1.153-.754-.056-.017-.12-.035-.191-.051-.161-.037-.353-.08-.574-.128Q36.813,412.652,36.611,413.1Zm-72.234.479a5.919,5.919,0,0,1-3.789-4.267,26.3,26.3,0,0,1-.657-3.674c-.053-.776-.085-1.55-.1-2.3-.014-.787.05-2.026.2-3.787.136-1.651.2-2.847.186-3.556v-.065l.005-.065c.066-.8.27-2.171.624-4.18.349-1.98.853-4.19,1.5-6.57a6.613,6.613,0,0,0,.245-1.073,3.717,3.717,0,0,1,.879-1.892,3.439,3.439,0,0,1,2.243-1.475l.045-.007.046,0c.083-.008.167-.013.251-.014a4.17,4.17,0,0,1,2.164.607l.035.02.033.023c1.61,1.066,1.374,2.259,1.2,2.722a4.48,4.48,0,0,1-.855,1.411c-.191.211-.371.429-.538.652-.252.652-.68,1.8-1.274,3.414a3.41,3.41,0,0,1-.569,1.6c-.156.65-.326,1.408-.507,2.261-.251,1.181-.34,1.71-.372,1.946a10.17,10.17,0,0,0-.082,1.057,3.2,3.2,0,0,1-.389,1.455,8,8,0,0,1-.2,1.931c.052,1.165.059,2.2.018,3.078a18.117,18.117,0,0,0,.3,3.432,6.622,6.622,0,0,0,.416,1.7,8.354,8.354,0,0,0,.7,1.085c.048.064.137.184.514.187a4.16,4.16,0,0,0,1.471-.25,21.745,21.745,0,0,0,2.844-1.555c.916-.593,1.7-1.115,2.34-1.553a5.05,5.05,0,0,1,1.438-1.1,2.447,2.447,0,0,1,1.372-1.171l.323-.334a4.429,4.429,0,0,1,1-.715,2.325,2.325,0,0,1,1.306-1.326,1.164,1.164,0,0,0,.221-.108l.018-.022a12.432,12.432,0,0,1,1.028-1.064c.319-.292.747-.675,1.269-1.139a15.127,15.127,0,0,1,1.324-1.08,5.523,5.523,0,0,0,.856-.835l.031-.035.034-.032a3.481,3.481,0,0,1,2.283-1.241,4.773,4.773,0,0,1,1.444.205,2.272,2.272,0,0,1,1.576,1.885,2.21,2.21,0,0,1-.546,2.145c-.14.13-.436.386-1.373,1.089a3.524,3.524,0,0,0-.53.5,2.228,2.228,0,0,1-.966.7,4.142,4.142,0,0,1-1.128,1.157c-.422.292-.868.625-1.327.991l-.022.017a9.571,9.571,0,0,0-1.471,1.339,4.72,4.72,0,0,1-1.476,1.206c-.192.181-.413.369-.672.571a5.4,5.4,0,0,0-.56.483c-.123.128-.387.385-1.248,1.142a24.032,24.032,0,0,1-3.458,2.3,3.176,3.176,0,0,1-1.549,1.361c-.4.151-.811.289-1.237.409a6.744,6.744,0,0,1-1.5.717,6.228,6.228,0,0,1-1.324.238c-.335.023-.769.068-1.292.13-.105.013-.213.02-.321.022h-.058A5.3,5.3,0,0,1-35.623,413.581ZM20.913,388.5a5.586,5.586,0,0,1-2.049-.88,3.99,3.99,0,0,1-1.577-2.092l-.063-.189,0-.164a.5.5,0,0,0-.034-.076,4.284,4.284,0,0,1-.4-1.249c-.062-.355-.135-.759-.218-1.2l-.034-.186.021-.189a.553.553,0,0,0,0-.221,5.125,5.125,0,0,1-.153-1.84l.008-.213.076-.2q.011-.03.016-.049a3.274,3.274,0,0,1-.246-1.6c.031-.4.093-1.116.188-2.18a49.6,49.6,0,0,1,.733-6.368c.331-1.695.75-3.614,1.244-5.708s.946-3.858,1.341-5.238.8-2.665,1.205-3.805c.392-1.11.7-1.993.909-2.629l.014-.04.016-.04a19.6,19.6,0,0,1,1.219-2.679c.18-.29.447-.785.793-1.471l.053-.105.072-.094a4.047,4.047,0,0,1,2.134-1.509l.085-.024.088-.013a7.765,7.765,0,0,1,.953-.084,4.459,4.459,0,0,1,1,.1,2.119,2.119,0,0,1,1.551,1.641,2.812,2.812,0,0,1-.035,2.019,2.953,2.953,0,0,1-.984,1.217,9.2,9.2,0,0,0-.852.743,2.876,2.876,0,0,0-.182.227,1.757,1.757,0,0,1-.637,1.273c-.122.378-.21.638-.273.8a4.032,4.032,0,0,1-.556.971q-.148.2-.293.365a2.766,2.766,0,0,1-.409,1.215,7.164,7.164,0,0,0-.4.743,3.174,3.174,0,0,1-.508,1.317,3.654,3.654,0,0,1-.253,1.356,6.741,6.741,0,0,0-.292,1.09l-.021.094-.034.091a3.029,3.029,0,0,0-.192.668,2.686,2.686,0,0,1-.419,1.159c-.132.309-.259.59-.378.839a.266.266,0,0,0-.015.038,1.949,1.949,0,0,1-.324,1.452,2.376,2.376,0,0,0-.06.3,2.023,2.023,0,0,1-.441,1.353,2.549,2.549,0,0,1-.207.72,3.036,3.036,0,0,1-.23,1.5c-.093.436-.163.754-.212.969s-.112.454-.2.76a3.535,3.535,0,0,1-.229,1.464,2.494,2.494,0,0,1-.2,1.273,3.049,3.049,0,0,1-.058,1.114,3.126,3.126,0,0,0-.01.885l.026.288-.1.273a.547.547,0,0,0-.005.449l.1.238,0,.259a9.16,9.16,0,0,0,.066.988,9.24,9.24,0,0,1,.033,1.589,5.747,5.747,0,0,0,.248,1.69,3.235,3.235,0,0,0,.377.9,2.9,2.9,0,0,0,.778-.215l.123-.055.132-.029a8.689,8.689,0,0,1,1.7-.225,2.442,2.442,0,0,1,1.966.878A2.974,2.974,0,0,1,27.1,384.3a3.548,3.548,0,0,1-.115,1.521,2.135,2.135,0,0,1-1.382,1.661c-.27.088-.59.174-.976.259-.33.116-.744.259-1.233.426a7.236,7.236,0,0,1-2.2.356l-.138,0Zm30.078-9.338c-.87-.06-1.626-.114-2.246-.159s-1.217-.081-1.807-.108l-.048,0-.049-.005c-1.15-.139-1.924-.253-2.367-.35-.367-.081-.768-.154-1.192-.217l-.193-.029-.176-.085a2.412,2.412,0,0,0-.844-.249,3.6,3.6,0,0,1-1.53-.435,1.89,1.89,0,0,1-.345.037,3.555,3.555,0,0,1-1.752-.548,3.569,3.569,0,0,1-1.507-.689,2.769,2.769,0,0,1-1.763-1.463,2.844,2.844,0,0,1-.139-2.678A2.736,2.736,0,0,1,37,370.633a5.459,5.459,0,0,1,1.009-.13,2.585,2.585,0,0,1,.627.059c.2.046.445.093.734.139a2,2,0,0,1,1.556,1.343,7.377,7.377,0,0,0,1.249.527,13.391,13.391,0,0,0,1.788.461c.564.1,1.145.216,1.726.349,1,.021,1.7.058,2.147.11a3.927,3.927,0,0,0,.5.031,1.521,1.521,0,0,0,.2-.015,3.868,3.868,0,0,1,.489-.039,6.36,6.36,0,0,1,.849.049,6.572,6.572,0,0,1,1.276-.092,3.629,3.629,0,0,1,1.148.247,2.231,2.231,0,0,1,1.239,1.262,4.2,4.2,0,0,1,.311,1.308,2.517,2.517,0,0,1-.712,1.913,3.173,3.173,0,0,1-1.823.991l-.162.031ZM37.463,364.636a4.048,4.048,0,0,1-1.1-.815,2.8,2.8,0,0,1-.732-1.643l-.017-.14.014-.14a3.75,3.75,0,0,1,1.089-2.366,5.183,5.183,0,0,1,1.938-1.2l.038-.013c.8-.255,1.389-.423,1.809-.515.4-.087,1.04-.2,1.955-.356a18.582,18.582,0,0,1,2.708-.26h.043l.043,0a9.7,9.7,0,0,0,1.547-.053c.191-.021.38-.033.563-.036a4.936,4.936,0,0,1,1.63.234c.532.174,1.071.381,1.6.615l.275.121.194.229a5.968,5.968,0,0,1,.964,1.513A2.444,2.444,0,0,1,51.925,362a3.154,3.154,0,0,1-1.31,1.263,2.181,2.181,0,0,1-.981.247,3.089,3.089,0,0,1-1.552-.435l-.04-.022-.037-.023a.576.576,0,0,0-.167-.084,5.052,5.052,0,0,1-.814-.224,2.061,2.061,0,0,1-.794.179,1.864,1.864,0,0,1-.913-.22.966.966,0,0,0-.227-.016c-.056,0-.117,0-.181.01l-.2.019-.194-.041c-.055-.012-.1-.019-.135-.024a2.25,2.25,0,0,1-1.1.266c-.139,0-.289,0-.452-.015a2.488,2.488,0,0,1-.931.29,1.8,1.8,0,0,1-.963.307,1.705,1.705,0,0,1-.18-.006,4.078,4.078,0,0,1-.534.519c-.172.139-.375.3-.6.478a1.925,1.925,0,0,1-1.156.415h-.036A2.1,2.1,0,0,1,37.463,364.636ZM-38.9,356.969l-.321-.1-.232-.244a3.775,3.775,0,0,0-.977-.766,3.663,3.663,0,0,1-1.526-1.464c-.491-.622-.925-1.211-1.292-1.75a6.077,6.077,0,0,1-.883-1.949,2.655,2.655,0,0,0-.288-.4,2.077,2.077,0,0,1-.8-2.029.8.8,0,0,0-.077-.154,3.824,3.824,0,0,1-.478-1.2,2.427,2.427,0,0,1-.469-1.438,1.19,1.19,0,0,0-.1-.2l-.168-.292-.006-.337a7.032,7.032,0,0,0-.061-.858,4.841,4.841,0,0,1-.057-.927c-.007-.016-.017-.039-.032-.068a4.066,4.066,0,0,1-.384-1,6.236,6.236,0,0,1-.1-1.17,6.62,6.62,0,0,1-.307-1.5,11.052,11.052,0,0,1-.055-1.417c.012-.273.015-.541.013-.8-.046-.413-.073-.933-.085-1.589a6.518,6.518,0,0,1,.163-1.814A5.784,5.784,0,0,1-47,332.4a2.874,2.874,0,0,1,1.454-1.252,3.37,3.37,0,0,1,1.349-.309,3.512,3.512,0,0,1,.828.086,2.252,2.252,0,0,1,1.826,1.753,3.819,3.819,0,0,1-.319,2.246,6.993,6.993,0,0,0-.217,1.673,11.874,11.874,0,0,0,.092,2.472l.025.162-.016.163a4.515,4.515,0,0,0,.066,1.759,3.949,3.949,0,0,1,.278,1.66,5.1,5.1,0,0,0,.18.761,20.927,20.927,0,0,1,.739,2.187,23.979,23.979,0,0,0,.959,2.669,14.01,14.01,0,0,0,1.176,2.2,13.764,13.764,0,0,1,1.067,1.352,3.894,3.894,0,0,0,.453.374,3.139,3.139,0,0,0,.372-.18,7.5,7.5,0,0,1,1.391-1.331,6.893,6.893,0,0,1,.421-.807,4.811,4.811,0,0,1,.863-.932,3.375,3.375,0,0,1,.892-1.247,8.346,8.346,0,0,1,.806-.91.135.135,0,0,0,.042-.082,1.991,1.991,0,0,1,.973-1.285c.264-.369.54-.764.825-1.178l.03-.043.034-.041c.4-.487.744-.922,1.031-1.293a7.167,7.167,0,0,1,1.159-1.2,2.422,2.422,0,0,1,1.481-.563,2.325,2.325,0,0,1,.807.131,2.959,2.959,0,0,1,1.58,1.341,2.464,2.464,0,0,1,.172,2.331,4.818,4.818,0,0,1-.761,1.214c-.2.23-.585.653-1.133,1.259-.747.888-1.708,1.972-2.857,3.219-1.129,1.225-2.03,2.243-2.678,3.027-.676.817-1.363,1.607-2.041,2.349l-.12.131-.151.094a7.505,7.505,0,0,1-1.942.886,3.275,3.275,0,0,1-.812.112h-.066A7.349,7.349,0,0,1-38.9,356.969Zm22.818-5.457a2.486,2.486,0,0,1-1.375-2.072,3.657,3.657,0,0,1,.217-1.62,4.982,4.982,0,0,0,.22-.926,7.213,7.213,0,0,1,.353-2.052c-.07-1.476-.066-1.891-.055-2.085a3.553,3.553,0,0,1,.287-1.165,4.5,4.5,0,0,1-.166-1.475,7.2,7.2,0,0,0-.149-1.481l-.033-.17.013-.173a3.963,3.963,0,0,0-.211-1.247c-.2-.724-.382-1.394-.527-1.99a3.684,3.684,0,0,0-.3-.91l-.113-.192-.044-.219a3.3,3.3,0,0,1,.087-1.767,3.232,3.232,0,0,1,.914-1.34l.12-.106.142-.074a3.2,3.2,0,0,1,1.425-.389,3.9,3.9,0,0,1,1.449.181,2.331,2.331,0,0,1,1.254,1.52,7.8,7.8,0,0,1,.728,2.544,33.322,33.322,0,0,1,.281,4.128l.085,4.837a14.161,14.161,0,0,1-.052,2.429c-.07.675-.119,1.319-.146,1.916a5.638,5.638,0,0,1,.209,2.038,2.561,2.561,0,0,1-.755,1.57,3.012,3.012,0,0,1-1.695.694,3.429,3.429,0,0,1-.418.032H-14.4A3.493,3.493,0,0,1-16.081,351.512ZM18.493,335.7a3.043,3.043,0,0,1-.6-1.034,2.757,2.757,0,0,1-.053-1.336l.227-1.248A3.738,3.738,0,0,1,18.9,329.9c.251-.26.5-.494.735-.695a2.105,2.105,0,0,1,1.427-.471c1.249-1.2,2.166-2.082,2.729-2.63a29.634,29.634,0,0,0,2.227-2.53c.923-1.147,1.848-2.29,2.75-3.4s1.529-1.881,1.877-2.316c.148-.184.325-.412.532-.68-.134-.058-.256-.107-.367-.149-.513-.194-1.032-.423-1.544-.678a6.113,6.113,0,0,0-1.338-.464l-.1-.022-.094-.037a4.314,4.314,0,0,0-1.16-.362,2.3,2.3,0,0,1-1.766-.871,4.078,4.078,0,0,1-.59-.951,2.4,2.4,0,0,1,.122-1.875,3.428,3.428,0,0,1,1.155-1.5,2.357,2.357,0,0,1,1.351-.466,2.487,2.487,0,0,1,.925.167,5.8,5.8,0,0,1,1.067.512,2.6,2.6,0,0,1,1.62.683,2.467,2.467,0,0,1,1.155.5,1.846,1.846,0,0,1,1.414.532,3.662,3.662,0,0,0,.567.3,9.212,9.212,0,0,1,.949.266q.315-.416.654-.829c1.5-2.118,2.487-3.568,2.921-4.309a14.117,14.117,0,0,1,1.247-1.841,7.951,7.951,0,0,1,.85-1.493,11.818,11.818,0,0,1,.7-1.486c.035-.06.056-.1.005-.229a2.129,2.129,0,0,0-.214-.445,6.084,6.084,0,0,1-.9-.138,2.144,2.144,0,0,1-.935.25,1.7,1.7,0,0,1-.654-.116,1.8,1.8,0,0,0-.216.046l-.314.085-.317-.074a1.711,1.711,0,0,0-.391-.055,2.086,2.086,0,0,1-1.083.334,1.982,1.982,0,0,1-.358-.027c-.13.049-.194.079-.221.092a3.808,3.808,0,0,1-1.706.475,7.9,7.9,0,0,0-1.312.59,10.1,10.1,0,0,1-.818.986,2.1,2.1,0,0,1-1.5.659,2.474,2.474,0,0,1-.714-.1,3.716,3.716,0,0,1-1.581-.922,2.884,2.884,0,0,1-.913-1.723,3.251,3.251,0,0,1,.77-2.286l.088-.126.116-.1a6.509,6.509,0,0,1,1.82-1.157,21.617,21.617,0,0,1,5.094-1.441c1.6-.238,2.866-.4,3.758-.471.4-.033.808-.053,1.221-.06.546-.01,1.113,0,1.686.04l.086,0,.084.017a5.382,5.382,0,0,1,1.764.651,5.555,5.555,0,0,1,1.357,1.193,4.882,4.882,0,0,1,.956,1.795,9.364,9.364,0,0,1,.323,1.607,5.135,5.135,0,0,1-.121,1.746,7.158,7.158,0,0,1-.561,1.531c-.188.375-.387.747-.592,1.108a2.8,2.8,0,0,1-1,1.565,3.693,3.693,0,0,1-.6,1.041,2.822,2.822,0,0,1-1.052,1.3c-.085.208-.165.388-.239.544a2.379,2.379,0,0,1-.842.995,4.068,4.068,0,0,1-.9,1.047,4.349,4.349,0,0,1-.72.928,2.987,2.987,0,0,1-.847,1.415,2.344,2.344,0,0,0-.248.274,1.716,1.716,0,0,1-.179,1.624c-.164.234-.378.518-.656.867a2.489,2.489,0,0,1-1.838.887c-.121.18-.218.32-.3.426a5.325,5.325,0,0,1-.775.783,4.9,4.9,0,0,1-.963,1.255.547.547,0,0,0-.082.085,2.212,2.212,0,0,1-1.066,1.258,3.23,3.23,0,0,1-.725.9,3.88,3.88,0,0,1-.985,1.312,1.723,1.723,0,0,0-.352.454,7.4,7.4,0,0,1-.743,1.043c-.188.214-.407.46-.648.73-.174.193-.382.454-.621.776a2.826,2.826,0,0,1-1.346,1.611,7.014,7.014,0,0,1-.67,1.028c-.265.333-.523.651-.77.945-.228.273-.451.549-.661.822-.2.254-.441.583-.731.982a3,3,0,0,1-1.056,1.361l-.079.283-.257.246a3.52,3.52,0,0,1-2.194,1.09c-.055,0-.109.006-.162.007h-.06A2.192,2.192,0,0,1,18.493,335.7Zm-.607-23.363a3.159,3.159,0,0,1-1.988-.577,3.985,3.985,0,0,1-.859-.954,3.277,3.277,0,0,1-.473-1.575,3.506,3.506,0,0,1,.707-2.182c.363-.535.779-1.108,1.236-1.7l.028-.034c1.094-1.322,1.884-2.3,2.351-2.917.507-.667,1.4-1.71,2.734-3.19,1.318-1.463,2.791-2.939,4.377-4.385a34.177,34.177,0,0,1,3.722-3.069,4.884,4.884,0,0,1,1.879-.878,4.052,4.052,0,0,1,.63-.059,5.5,5.5,0,0,1,1.075.094,2.346,2.346,0,0,1,1.912,2.02,4.5,4.5,0,0,1,.04,1.832,2.161,2.161,0,0,1-1.232,1.524,8.022,8.022,0,0,1-.942.355c-.267.081-.666.175-1.216.286a6.464,6.464,0,0,1-1,.538,12.139,12.139,0,0,1-2.192,1.614,5.913,5.913,0,0,1-1.345,1.071c-.486.622-.61.793-.641.838a4.016,4.016,0,0,1-.933.881,4.173,4.173,0,0,0-.792.857l-.059.08-.07.069a7.855,7.855,0,0,0-1.477,1.794l-.029.058-.034.053a5.186,5.186,0,0,1-.63.8,4.391,4.391,0,0,1-.383.353,1.955,1.955,0,0,1-1.138,1.6,1.391,1.391,0,0,0-.122.269,4.018,4.018,0,0,1-.416.859c.031.4.055.73.073.977a2.542,2.542,0,0,1-.59,1.835,2.583,2.583,0,0,1-2.051.859h-.155Zm-46.637-1.831a2.555,2.555,0,0,1-.643-2.815,2.658,2.658,0,0,1,2.189-1.964,4.754,4.754,0,0,0,1.147-.3c.419-.18.881-.373,1.375-.572a10.513,10.513,0,0,0,1.67-.859A12.165,12.165,0,0,0-21.649,303c.4-.346.981-.887,1.717-1.613a9.616,9.616,0,0,0,1.612-2.046c.441-.77.74-1.319.889-1.631a6.276,6.276,0,0,1,.509-.9,1.489,1.489,0,0,0-.009-.179l-.051-.5.243-.324a1.8,1.8,0,0,1,.067-1.158l-.173-.329.145-.5c.031-.112.05-.193.061-.248a5.587,5.587,0,0,1-.252-.862,4.127,4.127,0,0,1-.879-.964.553.553,0,0,0-.238-.169,5.622,5.622,0,0,1-1.138-.7,5.916,5.916,0,0,1-1.459-.659c-.085.005-.166.008-.244.01a2.575,2.575,0,0,1-1.318-.27,3.285,3.285,0,0,1-1.417-.125c-.886-.022-1.7-.074-2.427-.156a10.587,10.587,0,0,1-2.192.332h-.346a1.972,1.972,0,0,0-.621.082c-.342.128-.661.237-.948.324s-.553.159-.778.209a2.821,2.821,0,0,1-1.072-.008,6.048,6.048,0,0,1-1.293.355,2.907,2.907,0,0,1-.967.486c-.092.026-.229.069-.432.143-.256.941-.328,1.3-.349,1.434a2.552,2.552,0,0,1-.6,1.354,3.123,3.123,0,0,1-.339,1.245,1.887,1.887,0,0,1-.361,1.2,2.352,2.352,0,0,1-.4,1.226c-.137.2-.349.518-.633.958l-.041.06c-.175.241-.365.528-.569.855a2.633,2.633,0,0,1-.984,1.664,4.408,4.408,0,0,0-.358.3,2.787,2.787,0,0,1-1.535,1.219c-.406.228-.817.441-1.224.635s-.849.4-1.283.6a4.441,4.441,0,0,1-1.776.341c-.249,0-.52,0-.8-.023l-.056-.005a6.045,6.045,0,0,1-3.006-1.205,4.384,4.384,0,0,1-1.765-2.585,5.757,5.757,0,0,1-.032-2.413A14.6,14.6,0,0,1-50.1,296.3a7.422,7.422,0,0,1,1.766-2.578c.7-.682,1.273-1.228,1.712-1.624a12.963,12.963,0,0,1,1.864-1.358c.65-.4,1.219-.742,1.7-1.012a4.122,4.122,0,0,1,1.687-.817,3.975,3.975,0,0,0,.707-.392,3.9,3.9,0,0,1,1.181-.609,3.5,3.5,0,0,0,.41-.17c0-.086,0-.152,0-.2a2.947,2.947,0,0,1,.188-1.1,2.178,2.178,0,0,1,.288-1.409,2.472,2.472,0,0,1,0-1.076l-.2-.437.175-.492a2.831,2.831,0,0,0,.141-.5,2.093,2.093,0,0,1,.2-1.717.355.355,0,0,0,0-.036,4.251,4.251,0,0,1,.042-1.368,16.976,16.976,0,0,0,.114-1.876,4.728,4.728,0,0,1-.948.234,3.258,3.258,0,0,0-.743.3,5.1,5.1,0,0,1-.923,1.163,2.145,2.145,0,0,1-1.409.513,3.559,3.559,0,0,1-.959-.126,3.043,3.043,0,0,1-2.081-1.86,2.9,2.9,0,0,1,.331-2.927,3.237,3.237,0,0,1,1.843-1.453c.523-.165,1.138-.343,1.83-.528.633-.17,1.2-.349,1.681-.531l.076-.029.079-.019c.355-.085.707-.162,1.043-.228l.1-.02c0-.24,0-.445.011-.615a3.317,3.317,0,0,1,.829-1.931,3.17,3.17,0,0,1,2.54-1.168l.307-.005.277.132c.473.227.877.43,1.2.6a2.261,2.261,0,0,1,1.2,1.491c.017.075.031.153.041.238.089-.026.179-.054.27-.083a9.545,9.545,0,0,1,2.453-.465l.094,0a2.544,2.544,0,0,1,2.525,1.719,3.254,3.254,0,0,1,.205,2.286l-.022.056a2.5,2.5,0,0,1-1.519,1.359,3.343,3.343,0,0,1-1.146.249,2.1,2.1,0,0,1-.67-.093.968.968,0,0,0-.26-.019c-.043,0-.09,0-.139.006a1.288,1.288,0,0,0-.48.114,2.911,2.911,0,0,1-1.235.27,4.964,4.964,0,0,1-.554-.024,3.4,3.4,0,0,0-.45.089,4.841,4.841,0,0,1-.188.624c-.027.146-.108.722-.216,2.76-.1,1.879-.208,3.434-.321,4.62-.055.575-.121,1.172-.2,1.786l.156,0a6.679,6.679,0,0,0,.918-.055c.18-.033.419-.095.712-.181a5.436,5.436,0,0,1,1.449-.215,1.049,1.049,0,0,0,.465-.1l.189-.1.211-.033a29.779,29.779,0,0,1,4.089-.356c.341-.005.688-.005,1.03,0a22.448,22.448,0,0,1,5.154.692,11.987,11.987,0,0,1,4.346,2.018,2.9,2.9,0,0,1,1.189,1.086,2.266,2.266,0,0,1,1.018,1.245,2.368,2.368,0,0,0,.244.524,4.665,4.665,0,0,1,.54,1.247,12.79,12.79,0,0,1,.316,1.608l.008.075a11.665,11.665,0,0,1-.139,2.56,11.1,11.1,0,0,1-1.091,3.358,21.468,21.468,0,0,1-1.993,3.232l-.042.054c-.666.806-1.332,1.6-1.978,2.367a11.222,11.222,0,0,1-2.427,2.128,4.142,4.142,0,0,1-1.232,1.26,11.272,11.272,0,0,1-1.111.6,1.025,1.025,0,0,0-.166.093,1.92,1.92,0,0,1-1.192.838,4.765,4.765,0,0,1-1.511.855c-.328.1-.585.176-.763.233a7.622,7.622,0,0,1-1.172.235,2.968,2.968,0,0,1-.344.028h-.044A2.826,2.826,0,0,1-28.751,310.508Zm-12.709-15.967a6.517,6.517,0,0,1-1.285.833,1.432,1.432,0,0,0-.344.229,1.642,1.642,0,0,0-.311.351,8.112,8.112,0,0,1-1.184,1.326c-.293.477-.568.927-.816,1.34a1.81,1.81,0,0,0-.209.547.8.8,0,0,0,.254,0c.326-.054.815-.152,1.458-.291a4.961,4.961,0,0,0,1.285-.9,11.354,11.354,0,0,0,1.015-1.311,7.385,7.385,0,0,0,.846-1.889l.257-.82A6.382,6.382,0,0,0-41.459,294.541Zm94.6,5.78c-.555-.083-1.872-.5-2.089-2.578l0-.026a5.342,5.342,0,0,1,.247-2.127,30.459,30.459,0,0,0,.695-3.108,14.64,14.64,0,0,1,.319-1.728,8.578,8.578,0,0,0,.175-1.4,2.873,2.873,0,0,1,.778-2.409,3.432,3.432,0,0,1,1.4-.785l.155-.041.16,0a3.37,3.37,0,0,1,1.658.418l.07.037.065.046a2.607,2.607,0,0,1,1.22,1.984,6.9,6.9,0,0,1-.261,2.044l-.016.068-.023.065a14.1,14.1,0,0,0-.612,2.956l-.024.2-.082.182A4.361,4.361,0,0,0,56.617,296l0,.174-.042.169c-.1.375-.192.828-.287,1.345-.12,1.08-.359,2.124-1.25,2.514a2.475,2.475,0,0,1-.964.187H54.01A5.979,5.979,0,0,1,53.139,300.321Zm-6.632-.557a2.94,2.94,0,0,1-1.379-1.674c-.3-.57-.578-1.147-.84-1.718a9.948,9.948,0,0,1-.53-1.262c-.151-.428-.313-.851-.481-1.26a8.843,8.843,0,0,1-.491-2.38,2.735,2.735,0,0,1,1.182-2.819,3.142,3.142,0,0,1,1.717-.595,2.777,2.777,0,0,1,2.586,1.75,4.011,4.011,0,0,1,.164,1.465,7.182,7.182,0,0,0,.349,1.74,11.917,11.917,0,0,0,1.192,2.568c.289.47,1.139,1.864.494,3.085a2.826,2.826,0,0,1-2.441,1.506H47.98A2.968,2.968,0,0,1,46.507,299.764Zm-57.964-14.62a14.36,14.36,0,0,1-1.07-1.273l0,0A30.664,30.664,0,0,1-14.99,280.3a9.471,9.471,0,0,0-1.589-2.108,2.284,2.284,0,0,1-1.158-2.354,3.434,3.434,0,0,1,.687-1.759,2.443,2.443,0,0,1,1.941-.862,3.113,3.113,0,0,1,1.97.635,3.732,3.732,0,0,1,1.172,1.561c.317.406.683.868,1.093,1.378a6.444,6.444,0,0,1,.961,1.558,3.045,3.045,0,0,1,.745,1.125,2.547,2.547,0,0,0,.491.727,3.951,3.951,0,0,1,1.111,1.455,2.459,2.459,0,0,1,.094,2.146,3.845,3.845,0,0,0-.2.485,2.1,2.1,0,0,1-1.762,1.27,3.807,3.807,0,0,1-.643.07h-.049A1.835,1.835,0,0,1-11.458,285.144Zm34.713-8.356a2.767,2.767,0,0,1-.875-2.7,3.7,3.7,0,0,1,1.292-1.979,7.835,7.835,0,0,1,1.516-.975c.291-.294.532-.523.733-.694a3.03,3.03,0,0,1,1.324-.6,4.988,4.988,0,0,1,1.018-.675c.966-.669,1.88-1.318,2.721-1.931.9-.654,1.67-1.182,2.293-1.566a10.83,10.83,0,0,0,1.523-1.14c.567-.506,1.431-1.207,2.64-2.143a21.55,21.55,0,0,0,3.074-2.911l.053-.061.06-.054A16.564,16.564,0,0,0,42.07,257.9a3.5,3.5,0,0,0,.659-1,.248.248,0,0,0-.027-.187,2.36,2.36,0,0,1-.763-.293,2.018,2.018,0,0,1-1.509-.6.294.294,0,0,0-.068-.012,2.245,2.245,0,0,1-.527.074,2.14,2.14,0,0,1-.866-.166l-.022.007a2.676,2.676,0,0,1-1.731-.042,2.711,2.711,0,0,1-1.111.032,4.952,4.952,0,0,1-.927.163,4.1,4.1,0,0,1-1.1-.071,2.559,2.559,0,0,1-.962.122,2.524,2.524,0,0,1-1.321.29c-.173-.012-.348-.016-.522-.014a2.934,2.934,0,0,0-.306.045,2.229,2.229,0,0,1-1.24.336c-.064,0-.131,0-.2,0a14.261,14.261,0,0,1-2.279.427,2.927,2.927,0,0,1-1.384.364,2.247,2.247,0,0,0-.6.075l-.07.021-.073.013a1.374,1.374,0,0,0-.546.2,5.677,5.677,0,0,1-1.077.637,12.881,12.881,0,0,1-2.106,1.317l-.245.128-.275.018c-.066,0-.131.006-.194.007a2.425,2.425,0,0,1-2.615-1.9,3.606,3.606,0,0,1,.477-2.768,2.993,2.993,0,0,1,1.819-1.371,2.363,2.363,0,0,1,1.53-.55,1.475,1.475,0,0,0,.661-.186,5.474,5.474,0,0,1,1.882-.559c.516-.063,1.038-.144,1.552-.242a10.932,10.932,0,0,0,1.077-.243,3.924,3.924,0,0,1,1.06-.144c.079,0,.162,0,.248,0a5.432,5.432,0,0,1,1.564-.346c.561-.092,1.895-.246,4.07-.47,1.256-.13,2.4-.2,3.414-.221a21.094,21.094,0,0,1,2.245.069,28.8,28.8,0,0,1,3.455.477l.127.028.118.052a3.381,3.381,0,0,0,.778.276,2.154,2.154,0,0,1,1.436.758.2.2,0,0,0,.026.012,3.161,3.161,0,0,1,1.234.954,5.881,5.881,0,0,1,.972,1.94l.041.121.016.127a11.7,11.7,0,0,1,.123,1.792,2.723,2.723,0,0,1-.51,1.607,1.36,1.36,0,0,0-.179.388,3.3,3.3,0,0,1-.738,1.264.679.679,0,0,0-.054.063,1.719,1.719,0,0,1-1.013,1.078,3.494,3.494,0,0,1-1.037.942,2.064,2.064,0,0,1-1.012.943.776.776,0,0,0-.105.132,2.225,2.225,0,0,1-1.48,1.049,3.426,3.426,0,0,0-.469.393l-.031.029-.032.027c-1.571,1.319-3.456,2.821-5.6,4.467-2.175,1.668-3.587,2.73-4.316,3.247a5.316,5.316,0,0,0-.966.792,2.925,2.925,0,0,1-1.215,1.038,3.035,3.035,0,0,1-1.238,1.022.971.971,0,0,0-.142.215,3.058,3.058,0,0,1-1.809,1.5,2.458,2.458,0,0,1-.725.123h-.046A2.808,2.808,0,0,1,23.255,276.789ZM22.7,247.411a2.461,2.461,0,0,1-2.06-2.425,2.876,2.876,0,0,1,1.6-2.93,7.778,7.778,0,0,1,2.814-.8c.954-.131,2.005-.246,3.127-.342s2.763-.2,4.879-.313h.015c.78-.033,1.529-.056,2.226-.067s1.365-.014,1.98-.006l.077,0c.375.028.716.039,1.016.033h.068c1.484.052,2.5.112,3.109.182.591.068,1.172.158,1.726.266a2.937,2.937,0,0,1,2.219,1.408,2.761,2.761,0,0,1-2.21,4.028c-.058,0-.115.005-.171.006a2.861,2.861,0,0,1-1.824-.532,1.423,1.423,0,0,0-.448-.163,3.16,3.16,0,0,1-1.47-.031.636.636,0,0,0-.2-.032,2.326,2.326,0,0,1-1.235-.03,3.5,3.5,0,0,0-.627.06A1.908,1.908,0,0,1,36,245.609a2,2,0,0,1-.794.024h0a2.069,2.069,0,0,1-.548.084,2.126,2.126,0,0,1-.959-.212,4.066,4.066,0,0,0-.592-.038,2.042,2.042,0,0,1-1,.3,1.591,1.591,0,0,1-.731-.159c-.133.043-.275.086-.424.129a8.025,8.025,0,0,1-1.009.221,2.961,2.961,0,0,1-.418.032,6.565,6.565,0,0,1-.9-.056,2.8,2.8,0,0,1-1.111.243,3.74,3.74,0,0,1-.687-.056,5.035,5.035,0,0,0-.726.276c-.67.387-1.114.643-1.361.781a2.508,2.508,0,0,1-1.205.292h-.068A5.266,5.266,0,0,1,22.7,247.411Zm-8.8-24.136a2.372,2.372,0,0,1-1.543-1.66,4.131,4.131,0,0,1-.1-1.4,3.135,3.135,0,0,1,.546-1.454l.691-1a7.12,7.12,0,0,1,.924-1.125,3.454,3.454,0,0,0,.425-.481c.141-.2.3-.449.484-.756a2.81,2.81,0,0,1,1.131-1.084,2.37,2.37,0,0,0,.257-.456,2.357,2.357,0,0,1,.5-.875,1.718,1.718,0,0,1,1.053-1.213,2.181,2.181,0,0,0,.192-.215,2.256,2.256,0,0,1,.8-1.116.662.662,0,0,0,.145-.185,4.608,4.608,0,0,0,.3-.6,2.446,2.446,0,0,1,.958-1.186,1.077,1.077,0,0,0,.238-.212,3.269,3.269,0,0,0,.315-.428,8.044,8.044,0,0,1,.494-.718l.031-.04.032-.036c.5-.558,1.012-1.152,1.515-1.765a16.227,16.227,0,0,0,1.066-1.442,2.181,2.181,0,0,1,1.093-1.493.755.755,0,0,0,.037-.069,2.826,2.826,0,0,1,1.045-1.4,2.692,2.692,0,0,1,.539-.646,1.97,1.97,0,0,1,.132-.344,3.462,3.462,0,0,1-1.028.207l-.319.005a1.939,1.939,0,0,1-1.309.451c-.059,0-.122,0-.185,0a2.023,2.023,0,0,0-.692.1l-.363.115-.2-.053a2.838,2.838,0,0,1-1.243.414c-.631.185-1.237.357-1.8.509l-1.772.475a1.459,1.459,0,0,0-.355.17,4.067,4.067,0,0,1-.837.913,3.9,3.9,0,0,1-1.175.618,2.789,2.789,0,0,1-3.456-1.666,2.76,2.76,0,0,1,.648-3.017l.075-.088.089-.074a4.967,4.967,0,0,1,1.781-1.07,1.421,1.421,0,0,0,.174-.057,3.463,3.463,0,0,1,1.218-.58c.437-.133,1.2-.3,2.32-.518,1.709-.447,3.76-.886,6.1-1.306,2.115-.379,4.161-.793,6.089-1.232.3-.445.692-1.021,1.2-1.745a8.3,8.3,0,0,0,1.17-2.133l.126-.4.34-.251a.662.662,0,0,0,.054-.045,2.3,2.3,0,0,1,.667-1.015,2.607,2.607,0,0,0,.134-.247,2.115,2.115,0,0,1,.811-1.463,2.092,2.092,0,0,0,.182-.375,1.8,1.8,0,0,1,.821-1.209l.016-.022a5.91,5.91,0,0,1,1.23-1.719l.176-.164.223-.091a4.391,4.391,0,0,1,1.535-.4,3.986,3.986,0,0,1,1.1.144,2.093,2.093,0,0,1,1.479,1.672,4.832,4.832,0,0,1,.167,1.4,2.453,2.453,0,0,1-.718,1.576c-.158.163-.317.32-.476.467a2.492,2.492,0,0,1-.7.971,5.253,5.253,0,0,0-.626.706,18.005,18.005,0,0,0-1.077,1.574c-.445.714-.9,1.391-1.348,2.013q.662-.07,1.35-.137c.9-.085,1.694-.135,2.359-.147.462-.008.877,0,1.234.03a5.951,5.951,0,0,1,1.922.332,2.12,2.12,0,0,0,.483.121,8.518,8.518,0,0,1,1.01.219,5.975,5.975,0,0,1,.89.336,4.657,4.657,0,0,1,2.11,1.733,2,2,0,0,1,.647,1.258,5.5,5.5,0,0,1,.6,1.525,3.252,3.252,0,0,1-.076,1.316,5.447,5.447,0,0,1-.221,1.807,9.119,9.119,0,0,1-.538,1.2c-.208.393-.428.793-.655,1.186l-.018.03c-.527.862-1.175,1.832-1.928,2.885a35.241,35.241,0,0,1-2.91,3.5,44.692,44.692,0,0,1-5.645,4.79,22.223,22.223,0,0,1-2.414,1.681,8.685,8.685,0,0,1-2.645,1.228,10.434,10.434,0,0,1-1.876.2,4.024,4.024,0,0,1-2.754-1.212l-.188-.171-.11-.229a9.321,9.321,0,0,1-.9-2.984,14.222,14.222,0,0,1-.05-2.587c-.014-.743-.046-1.514-.094-2.291a7.6,7.6,0,0,1-.035-1.078l-.749.95c-.827,1.054-1.04,1.376-1.093,1.466a11.432,11.432,0,0,1-1.109,1.452c-.327.414-.758.966-1.283,1.642-.512.659-1.607,2.217-3.253,4.631-.392.752-.838,1.535-1.328,2.337a2.073,2.073,0,0,1-.253,1.265,4.505,4.505,0,0,1-.707,1,3,3,0,0,1-2.042.819A3.474,3.474,0,0,1,13.9,223.275Zm16.536-18.8a2.633,2.633,0,0,1,1.513.884,3.13,3.13,0,0,1,.689,2.081l0,.138-.026.135a5.075,5.075,0,0,0-.125.948,6.782,6.782,0,0,1-.145,1.372,5.388,5.388,0,0,0-.094,1.1c.008.485,0,.987-.035,1.492a1.618,1.618,0,0,0,.074.595,3.3,3.3,0,0,0,.52-.29c.358-.248.686-.461.971-.631l.063-.035,1.236-.644a4.1,4.1,0,0,0,.587-.4c.3-.23.575-.443.835-.635.366-.3.586-.472.727-.573a1.61,1.61,0,0,1,1.149-.983,2.113,2.113,0,0,1,.756-.77.7.7,0,0,0,.163-.125c.148-.152.316-.316.5-.486a1.268,1.268,0,0,0,.216-.268,2.463,2.463,0,0,1,.978-.921c.006-.009.013-.021.021-.035a3.391,3.391,0,0,1,.806-.941,2.23,2.23,0,0,1,.743-1.206,1.616,1.616,0,0,0,.21-.357,2.354,2.354,0,0,1,.908-1.144,2.523,2.523,0,0,0,.247-.32c.34-.589.566-.964.713-1.181a.993.993,0,0,0,.115-.3,7.348,7.348,0,0,0,.149-.912,2.571,2.571,0,0,0,0-.715A1.459,1.459,0,0,0,44.6,199a3.866,3.866,0,0,0-.748-.557,8.156,8.156,0,0,1-.891-.266,1.8,1.8,0,0,1-.544.094,2.27,2.27,0,0,1-.766-.128,8.85,8.85,0,0,1-.94.066,12.211,12.211,0,0,1-1.315-.053c-.89.122-1.476.193-1.787.218a4.69,4.69,0,0,1-1.159-.049,1.944,1.944,0,0,1-.911.251,1.915,1.915,0,0,1-.278-.017,13.167,13.167,0,0,1-1.593.3c-.279.37-.715.991-1.39,2.036-.69,1.068-1.535,2.251-2.516,3.528h.055A3.463,3.463,0,0,1,30.436,204.476Z" transform="translate(387.292 4240.6)" fill="#5b1e16"/>
  </g>
</svg>
