<svg xmlns="http://www.w3.org/2000/svg" width="113.506" height="279.501" viewBox="0 0 113.506 279.501">
  <g id="deliciousness_item3_copy" transform="translate(-336.405 -4426.447)">
    <path id="合体_78" data-name="合体 78" d="M-976.014,461.979l-.321-.1-.232-.245a3.774,3.774,0,0,0-.977-.766,3.658,3.658,0,0,1-1.526-1.464c-.491-.622-.925-1.21-1.292-1.75a6.069,6.069,0,0,1-.883-1.949,2.653,2.653,0,0,0-.288-.4,2.077,2.077,0,0,1-.8-2.029.8.8,0,0,0-.077-.154,3.815,3.815,0,0,1-.478-1.2,2.423,2.423,0,0,1-.469-1.438,1.188,1.188,0,0,0-.1-.2l-.168-.292-.006-.337a7.01,7.01,0,0,0-.061-.857,4.858,4.858,0,0,1-.057-.928c-.007-.016-.017-.039-.032-.067a4.071,4.071,0,0,1-.384-1,6.225,6.225,0,0,1-.1-1.17,6.61,6.61,0,0,1-.307-1.5,11.05,11.05,0,0,1-.055-1.418c.012-.273.015-.541.013-.8-.046-.413-.073-.933-.085-1.589a6.521,6.521,0,0,1,.163-1.814,5.777,5.777,0,0,1,.423-1.106,2.876,2.876,0,0,1,1.454-1.253,3.371,3.371,0,0,1,1.349-.309,3.561,3.561,0,0,1,.828.086,2.253,2.253,0,0,1,1.826,1.754,3.817,3.817,0,0,1-.319,2.246,6.991,6.991,0,0,0-.217,1.673,11.874,11.874,0,0,0,.092,2.472l.025.162-.016.163a4.512,4.512,0,0,0,.066,1.759,3.951,3.951,0,0,1,.278,1.661,5.108,5.108,0,0,0,.18.761,21.073,21.073,0,0,1,.739,2.187,23.983,23.983,0,0,0,.959,2.668,14.011,14.011,0,0,0,1.176,2.2A13.761,13.761,0,0,1-974.627,457a3.8,3.8,0,0,0,.453.374,3.139,3.139,0,0,0,.372-.18,7.532,7.532,0,0,1,1.391-1.331,6.975,6.975,0,0,1,.421-.807,4.84,4.84,0,0,1,.863-.932,3.381,3.381,0,0,1,.892-1.247,8.431,8.431,0,0,1,.805-.91.135.135,0,0,0,.042-.082,1.993,1.993,0,0,1,.973-1.285c.264-.369.54-.764.825-1.177l.03-.044.034-.041c.4-.487.744-.922,1.03-1.293a7.127,7.127,0,0,1,1.159-1.2,2.423,2.423,0,0,1,1.481-.564,2.3,2.3,0,0,1,.807.132,2.954,2.954,0,0,1,1.58,1.34,2.466,2.466,0,0,1,.172,2.332,4.828,4.828,0,0,1-.761,1.213c-.2.23-.585.653-1.133,1.259-.747.889-1.708,1.972-2.857,3.219-1.128,1.225-2.029,2.244-2.677,3.027-.676.817-1.363,1.608-2.041,2.349l-.12.131-.151.095a7.506,7.506,0,0,1-1.942.886,3.281,3.281,0,0,1-.812.112h-.072A7.337,7.337,0,0,1-976.014,461.979Zm22.818-5.457a2.485,2.485,0,0,1-1.375-2.071,3.659,3.659,0,0,1,.217-1.621,4.984,4.984,0,0,0,.221-.926,7.2,7.2,0,0,1,.353-2.051c-.07-1.477-.066-1.892-.055-2.086a3.555,3.555,0,0,1,.287-1.165,4.5,4.5,0,0,1-.166-1.475,7.254,7.254,0,0,0-.148-1.48l-.033-.171.013-.173a3.965,3.965,0,0,0-.211-1.247c-.205-.725-.383-1.394-.527-1.989a3.707,3.707,0,0,0-.3-.911l-.113-.192-.044-.218a3.3,3.3,0,0,1,.087-1.768,3.224,3.224,0,0,1,.914-1.339l.12-.106.142-.075a3.2,3.2,0,0,1,1.425-.389,3.875,3.875,0,0,1,1.449.182,2.327,2.327,0,0,1,1.254,1.519,7.794,7.794,0,0,1,.728,2.545,33.315,33.315,0,0,1,.281,4.127l.085,4.837a14.165,14.165,0,0,1-.052,2.429c-.07.674-.119,1.318-.146,1.915a5.639,5.639,0,0,1,.209,2.038,2.561,2.561,0,0,1-.755,1.57,3.006,3.006,0,0,1-1.695.694,3.267,3.267,0,0,1-.418.032h-.062A3.494,3.494,0,0,1-953.2,456.522Zm-21.426-45.914a5.925,5.925,0,0,1-3.79-4.268,26.59,26.59,0,0,1-.657-3.673c-.052-.776-.086-1.551-.1-2.3-.014-.787.049-2.025.2-3.786.136-1.652.2-2.848.186-3.556l0-.065.005-.065c.067-.8.271-2.171.625-4.18.348-1.981.853-4.191,1.5-6.571a6.719,6.719,0,0,0,.245-1.073,3.714,3.714,0,0,1,.879-1.891,3.434,3.434,0,0,1,2.242-1.475l.046-.007.045,0c.084-.007.168-.012.252-.014a4.171,4.171,0,0,1,2.164.607l.034.02.034.023c1.609,1.066,1.373,2.26,1.2,2.723a4.478,4.478,0,0,1-.856,1.41c-.19.211-.37.43-.537.652-.252.652-.68,1.8-1.274,3.414a3.414,3.414,0,0,1-.569,1.6c-.156.65-.326,1.409-.507,2.26-.251,1.181-.341,1.71-.372,1.947a10.14,10.14,0,0,0-.082,1.057,3.2,3.2,0,0,1-.389,1.454,8.034,8.034,0,0,1-.2,1.931c.052,1.165.058,2.2.017,3.078a18.19,18.19,0,0,0,.3,3.432,6.608,6.608,0,0,0,.417,1.7,8.334,8.334,0,0,0,.7,1.084c.049.065.138.184.514.188a4.21,4.21,0,0,0,1.471-.25,21.85,21.85,0,0,0,2.844-1.555c.916-.593,1.7-1.115,2.34-1.554a5.05,5.05,0,0,1,1.438-1.1,2.436,2.436,0,0,1,1.372-1.17l.323-.335a4.393,4.393,0,0,1,1-.714,2.329,2.329,0,0,1,1.306-1.327,1.121,1.121,0,0,0,.222-.107l.018-.022a12.163,12.163,0,0,1,1.028-1.064c.32-.293.746-.676,1.269-1.139a15.35,15.35,0,0,1,1.324-1.081,5.579,5.579,0,0,0,.856-.834l.031-.035.033-.033a3.489,3.489,0,0,1,2.284-1.241,4.8,4.8,0,0,1,1.443.205,2.274,2.274,0,0,1,1.577,1.885,2.214,2.214,0,0,1-.546,2.145c-.141.131-.436.387-1.373,1.089a3.527,3.527,0,0,0-.53.5,2.219,2.219,0,0,1-.966.7,4.121,4.121,0,0,1-1.129,1.157c-.421.293-.868.626-1.327.992l-.022.016a9.679,9.679,0,0,0-1.471,1.339,4.7,4.7,0,0,1-1.476,1.206c-.191.181-.413.37-.671.571a5.412,5.412,0,0,0-.561.484c-.123.128-.386.384-1.247,1.141a24.009,24.009,0,0,1-3.458,2.3,3.175,3.175,0,0,1-1.549,1.361c-.4.152-.811.29-1.238.409a6.648,6.648,0,0,1-1.5.717,6.152,6.152,0,0,1-1.323.238c-.335.023-.769.068-1.292.131a3.129,3.129,0,0,1-.321.022h-.058A5.3,5.3,0,0,1-974.623,410.608Zm68.7-27.5a5.984,5.984,0,0,1-1.945-.359,7.638,7.638,0,0,1-2.357-1.229,6.552,6.552,0,0,1-1.516-1.772,13.352,13.352,0,0,1-.878-1.745l-.038-.095-.023-.1a15.859,15.859,0,0,1-.427-3.3,17.677,17.677,0,0,1,.249-3.215c.084-.5.168-1.012.253-1.526h-.021c-.321.005-.951.035-1.873.088h-.005c-1.082.058-1.857.09-2.367.1a2.5,2.5,0,0,1-2.177-1.05,3.943,3.943,0,0,1-.658-1.631,3.311,3.311,0,0,1,.167-1.759,3.116,3.116,0,0,1,1.672-1.59l.039-.019.04-.016a16.348,16.348,0,0,0,1.846-.9c.786-.445,1.133-.654,1.286-.752a4.936,4.936,0,0,1,1.105-.521,7.3,7.3,0,0,0,.721-.278l.462-.207a2.83,2.83,0,0,1,1.636-1,3.051,3.051,0,0,1,.556-.329c.659-1.911,1.129-3.217,1.434-3.983q.242-.607.526-1.313a5.6,5.6,0,0,1-.9-.162,2.26,2.26,0,0,1-.785.167,1.675,1.675,0,0,1-.691-.13h-.016c-.048,0-.1.005-.169.013a12.786,12.786,0,0,1-1.289.085c-.362.006-.83.032-1.391.077a4.242,4.242,0,0,0-1.214.28,2.511,2.511,0,0,1-1.033.247,2.462,2.462,0,0,1-1.257-.324,2.4,2.4,0,0,1-1.258-1.439,7.619,7.619,0,0,1-.192-1.054,2.463,2.463,0,0,1,.647-2,3.425,3.425,0,0,1,2-1,11.927,11.927,0,0,1,1.875-.191h.068l.068.005c.769.068,1.342.139,1.75.217a1.769,1.769,0,0,0,.563.03,3.412,3.412,0,0,1,1.369.094c.542.031,1.307.09,2.33.178l.05.005c.467.059.932.117,1.391.176q.159-.375.319-.806a15.407,15.407,0,0,1,.812-1.844,8.354,8.354,0,0,1,.9-2.345,2.461,2.461,0,0,1,2.1-1.356c.067,0,.135,0,.2.005a3.082,3.082,0,0,1,1.934.893A3.039,3.039,0,0,1-898.9,347.2a2.927,2.927,0,0,1-.879,1.913,1.732,1.732,0,0,0-.314.363,8.909,8.909,0,0,0-.581,1.155l-.035.078-.019.03a2.318,2.318,0,0,0,.42.08,5.568,5.568,0,0,1,2.258,1.02l.159.1.123.143a5.961,5.961,0,0,1,.957,1.38,4.452,4.452,0,0,1,.305,1.753,4.074,4.074,0,0,1-.766,2.412l-.037.052-.041.049a9.173,9.173,0,0,1-.909.94,5.491,5.491,0,0,1-.92.68c-.124.07-.411.247-1.076.684a10,10,0,0,1-1.589.862,2.835,2.835,0,0,1-1.209.733,4.739,4.739,0,0,0-.687.258c-.238.109-.562.269-.966.478a3.632,3.632,0,0,1-1.225.731c-.159.5-.306.906-.442,1.237.4-.052.836-.119,1.3-.2,1.325-.223,2.345-.433,3.032-.622.741-.2,1.331-.36,1.755-.464a11.723,11.723,0,0,0,1.628-.615,3.129,3.129,0,0,1,1.745-.642,2.3,2.3,0,0,1,.795.124,2.765,2.765,0,0,1,1.645,1.453,2.484,2.484,0,0,1,.1,2.073,2.944,2.944,0,0,1-1.644,1.495l-.049.022a19.128,19.128,0,0,1-3.242.913c-1.2.243-2.116.445-2.732.6a10.577,10.577,0,0,1-2.031.325,20.523,20.523,0,0,0-2.346.335l-.061.01c-.376.051-.774.1-1.189.155-.032.17-.058.321-.076.45-.053.383-.14.9-.266,1.565-.112.6-.249,1.517-.407,2.725a8.863,8.863,0,0,0,.308,1.946,4.391,4.391,0,0,0,.836,1.7,1.556,1.556,0,0,0,1.051.6l.1.013.1.028a2.381,2.381,0,0,0,1.379-.158,23.5,23.5,0,0,0,3.163-1.508,30.521,30.521,0,0,0,3.5-2.669c1.136-1.005,2.3-2.083,3.477-3.2,1.148-1.1,1.958-1.923,2.4-2.459l.048-.058.054-.051a6.108,6.108,0,0,1,1.572-1.132,2.472,2.472,0,0,1,1.021-.237,3.118,3.118,0,0,1,1.4.33,2.379,2.379,0,0,1,1.465,2.239,2.843,2.843,0,0,1-.77,1.956,8.953,8.953,0,0,1-1.078.921,2.4,2.4,0,0,1-1.294.9,2.883,2.883,0,0,1-1.162,1.119,8.213,8.213,0,0,1-1.179,1.148c-.4.313-.8.591-1.165.826a2.593,2.593,0,0,0-.6.522,5.537,5.537,0,0,1-1.3,1.08,4.23,4.23,0,0,1-1.712,1.242,9.239,9.239,0,0,1-1.332,1.072,20.442,20.442,0,0,1-1.977,1.185,4.76,4.76,0,0,1-1.223.624c-.189.055-.471.13-.857.228a4.023,4.023,0,0,1-1.754.558,6.375,6.375,0,0,1-1.881.3Zm2.589-26.969.057-.027q.574-.366,1.153-.754-.084-.027-.192-.051c-.161-.038-.353-.08-.573-.128C-903.049,355.516-903.2,355.837-903.332,356.137ZM-977.9,354l-.321-.1-.232-.244a3.767,3.767,0,0,0-.977-.767,3.666,3.666,0,0,1-1.526-1.463c-.49-.623-.925-1.211-1.292-1.751a6.066,6.066,0,0,1-.884-1.948,2.57,2.57,0,0,0-.287-.4,2.076,2.076,0,0,1-.8-2.03.8.8,0,0,0-.078-.153,3.843,3.843,0,0,1-.477-1.2,2.422,2.422,0,0,1-.469-1.437,1.123,1.123,0,0,0-.1-.2l-.169-.292-.005-.337a7,7,0,0,0-.062-.858,4.911,4.911,0,0,1-.056-.927c-.007-.017-.017-.039-.032-.068a4.057,4.057,0,0,1-.384-1,6.188,6.188,0,0,1-.1-1.17,6.7,6.7,0,0,1-.307-1.5,10.888,10.888,0,0,1-.054-1.418c.012-.273.015-.541.012-.8-.045-.413-.073-.934-.084-1.589a6.479,6.479,0,0,1,.163-1.814,5.726,5.726,0,0,1,.423-1.107,2.875,2.875,0,0,1,1.454-1.253,3.382,3.382,0,0,1,1.349-.309,3.564,3.564,0,0,1,.828.086,2.255,2.255,0,0,1,1.826,1.754,3.817,3.817,0,0,1-.319,2.246,7.029,7.029,0,0,0-.216,1.674,11.814,11.814,0,0,0,.092,2.472l.024.161-.015.163a4.518,4.518,0,0,0,.066,1.76,3.963,3.963,0,0,1,.278,1.66,5.1,5.1,0,0,0,.18.76,21.512,21.512,0,0,1,.739,2.187,23.815,23.815,0,0,0,.959,2.669,13.884,13.884,0,0,0,1.176,2.2,13.921,13.921,0,0,1,1.067,1.353,3.916,3.916,0,0,0,.453.374,3.043,3.043,0,0,0,.371-.181,7.523,7.523,0,0,1,1.392-1.33,6.756,6.756,0,0,1,.421-.807,4.815,4.815,0,0,1,.862-.933,3.371,3.371,0,0,1,.893-1.246,8.165,8.165,0,0,1,.806-.91.139.139,0,0,0,.041-.082,2,2,0,0,1,.974-1.286c.264-.369.54-.763.824-1.177l.031-.044.033-.041c.4-.486.744-.922,1.031-1.293a7.126,7.126,0,0,1,1.159-1.2,2.423,2.423,0,0,1,1.481-.564,2.328,2.328,0,0,1,.808.132,2.96,2.96,0,0,1,1.58,1.34,2.468,2.468,0,0,1,.172,2.332,4.812,4.812,0,0,1-.762,1.213c-.2.23-.585.654-1.132,1.259-.747.889-1.708,1.972-2.858,3.22-1.128,1.225-2.029,2.243-2.677,3.026-.676.817-1.364,1.608-2.041,2.35l-.121.131-.15.094a7.519,7.519,0,0,1-1.942.886,3.246,3.246,0,0,1-.813.112h-.071A7.332,7.332,0,0,1-977.9,354Zm22.818-5.457a2.485,2.485,0,0,1-1.375-2.071,3.646,3.646,0,0,1,.217-1.621,5.046,5.046,0,0,0,.22-.926,7.2,7.2,0,0,1,.352-2.051c-.069-1.476-.066-1.892-.054-2.086a3.574,3.574,0,0,1,.286-1.165,4.548,4.548,0,0,1-.166-1.474,7.129,7.129,0,0,0-.148-1.481l-.032-.17.013-.174a3.975,3.975,0,0,0-.212-1.246c-.2-.725-.382-1.4-.526-1.99a3.7,3.7,0,0,0-.3-.911l-.114-.192-.043-.218a3.294,3.294,0,0,1,.087-1.768,3.224,3.224,0,0,1,.914-1.339l.12-.106.142-.074a3.189,3.189,0,0,1,1.424-.389,3.854,3.854,0,0,1,1.449.181,2.326,2.326,0,0,1,1.254,1.519,7.776,7.776,0,0,1,.729,2.545,33.315,33.315,0,0,1,.281,4.127l.085,4.837a14.258,14.258,0,0,1-.052,2.429c-.07.675-.12,1.318-.147,1.916a5.638,5.638,0,0,1,.21,2.037,2.565,2.565,0,0,1-.756,1.57,3.006,3.006,0,0,1-1.694.694,3.644,3.644,0,0,1-.418.032h-.057A3.5,3.5,0,0,1-955.081,348.539Zm36.052-17a5.543,5.543,0,0,1-2.049-.88,3.984,3.984,0,0,1-1.578-2.092l-.062-.188,0-.165c-.005-.014-.015-.038-.034-.075a4.255,4.255,0,0,1-.4-1.25c-.062-.352-.135-.757-.218-1.2l-.034-.186.02-.188a.592.592,0,0,0,0-.22,5.145,5.145,0,0,1-.154-1.84l.008-.212.076-.2q.011-.028.016-.049a3.272,3.272,0,0,1-.246-1.6c.031-.4.094-1.131.188-2.181a49.257,49.257,0,0,1,.734-6.368c.331-1.7.749-3.615,1.243-5.708s.946-3.858,1.342-5.238.8-2.666,1.2-3.806c.392-1.11.7-1.993.91-2.628l.014-.04.016-.04a19.583,19.583,0,0,1,1.218-2.68c.181-.29.447-.785.794-1.471l.053-.105.071-.094a4.052,4.052,0,0,1,2.134-1.51l.086-.024.088-.013a7.736,7.736,0,0,1,.952-.083,4.4,4.4,0,0,1,1,.1,2.117,2.117,0,0,1,1.551,1.641,2.817,2.817,0,0,1-.034,2.019,2.958,2.958,0,0,1-.984,1.216,9.3,9.3,0,0,0-.853.742c-.086.1-.144.176-.182.228a1.747,1.747,0,0,1-.637,1.272c-.121.379-.209.638-.272.8a4.093,4.093,0,0,1-.556.971c-.1.134-.2.256-.293.365a2.759,2.759,0,0,1-.41,1.215,6.967,6.967,0,0,0-.4.743,3.2,3.2,0,0,1-.508,1.317,3.677,3.677,0,0,1-.253,1.356,6.586,6.586,0,0,0-.292,1.089l-.021.1-.035.091a3.094,3.094,0,0,0-.192.667,2.677,2.677,0,0,1-.419,1.16c-.131.308-.258.59-.378.838a.234.234,0,0,0-.015.039,1.949,1.949,0,0,1-.324,1.452,2.614,2.614,0,0,0-.06.3,2.025,2.025,0,0,1-.44,1.354,2.6,2.6,0,0,1-.207.719,3.056,3.056,0,0,1-.23,1.5c-.094.436-.163.754-.213.97s-.112.454-.2.76a3.558,3.558,0,0,1-.229,1.463,2.5,2.5,0,0,1-.2,1.274,3.047,3.047,0,0,1-.058,1.114,3.082,3.082,0,0,0-.01.884l.025.289-.1.272a.545.545,0,0,0-.005.45l.1.238.005.26a8.952,8.952,0,0,0,.066.988,9.156,9.156,0,0,1,.032,1.589,5.806,5.806,0,0,0,.248,1.689,3.213,3.213,0,0,0,.378.9,2.913,2.913,0,0,0,.779-.214l.123-.056.132-.029a8.827,8.827,0,0,1,1.7-.225,2.443,2.443,0,0,1,1.966.879,2.963,2.963,0,0,1,.687,1.351,3.548,3.548,0,0,1-.114,1.521,2.139,2.139,0,0,1-1.382,1.661c-.27.088-.59.173-.977.259-.328.116-.743.258-1.233.426a7.254,7.254,0,0,1-2.2.355l-.138,0Zm30.077-9.338c-.869-.061-1.625-.114-2.246-.16s-1.217-.08-1.806-.107l-.049,0-.048-.006c-1.15-.138-1.924-.253-2.368-.35-.367-.08-.768-.153-1.191-.216l-.193-.029-.176-.085a2.4,2.4,0,0,0-.843-.25,3.575,3.575,0,0,1-1.53-.435,1.886,1.886,0,0,1-.345.037,3.552,3.552,0,0,1-1.753-.548,3.55,3.55,0,0,1-1.507-.689,2.762,2.762,0,0,1-1.763-1.462,2.84,2.84,0,0,1-.14-2.677,2.734,2.734,0,0,1,1.966-1.551,5.3,5.3,0,0,1,1.009-.13,2.537,2.537,0,0,1,.626.059c.2.046.445.092.735.139a2,2,0,0,1,1.556,1.343,7.41,7.41,0,0,0,1.248.527,13.682,13.682,0,0,0,1.789.461c.564.1,1.145.216,1.726.348,1,.022,1.7.058,2.147.111a3.746,3.746,0,0,0,.5.03,1.526,1.526,0,0,0,.2-.014,3.706,3.706,0,0,1,.49-.039,6.351,6.351,0,0,1,.849.048,6.552,6.552,0,0,1,1.276-.091,3.629,3.629,0,0,1,1.148.247,2.227,2.227,0,0,1,1.238,1.262,4.194,4.194,0,0,1,.312,1.308,2.516,2.516,0,0,1-.713,1.913,3.168,3.168,0,0,1-1.822.992l-.161.03Zm-78.8-14.664a2.558,2.558,0,0,1-.642-2.816,2.66,2.66,0,0,1,2.189-1.964,4.735,4.735,0,0,0,1.147-.3c.419-.18.881-.373,1.375-.572a10.562,10.562,0,0,0,1.67-.859,12.134,12.134,0,0,0,1.364-.994c.4-.345.98-.887,1.716-1.613a9.59,9.59,0,0,0,1.613-2.045c.44-.77.74-1.318.889-1.632a6.288,6.288,0,0,1,.509-.9,1.791,1.791,0,0,0-.01-.179l-.05-.5.242-.323a1.81,1.81,0,0,1,.067-1.158l-.172-.33.144-.5a2.482,2.482,0,0,0,.061-.247,5.638,5.638,0,0,1-.251-.862,4.107,4.107,0,0,1-.879-.964.566.566,0,0,0-.238-.17,5.543,5.543,0,0,1-1.138-.7,5.955,5.955,0,0,1-1.46-.658c-.085,0-.166.008-.244.009a2.572,2.572,0,0,1-1.317-.269,3.3,3.3,0,0,1-1.417-.125c-.886-.022-1.7-.075-2.428-.157a10.589,10.589,0,0,1-2.191.332h-.346a1.945,1.945,0,0,0-.62.083c-.342.127-.661.237-.948.324s-.554.159-.779.208a2.819,2.819,0,0,1-1.072-.007,6.1,6.1,0,0,1-1.294.355,2.917,2.917,0,0,1-.967.485c-.092.026-.23.07-.432.144-.256.94-.329,1.3-.349,1.433a2.558,2.558,0,0,1-.6,1.354,3.139,3.139,0,0,1-.339,1.246,1.884,1.884,0,0,1-.362,1.2,2.355,2.355,0,0,1-.4,1.227c-.137.194-.35.517-.633.958l-.041.059c-.175.241-.365.528-.57.856a2.623,2.623,0,0,1-.984,1.663c-.023.017-.119.089-.357.305a2.785,2.785,0,0,1-1.534,1.218c-.406.229-.817.442-1.224.635s-.849.4-1.284.6a4.436,4.436,0,0,1-1.775.341c-.249,0-.52,0-.8-.023l-.056,0a6.05,6.05,0,0,1-3.006-1.205,4.392,4.392,0,0,1-1.766-2.586,5.753,5.753,0,0,1-.032-2.412,14.332,14.332,0,0,1,.677-2.164,7.414,7.414,0,0,1,1.766-2.578c.7-.682,1.272-1.229,1.711-1.625a13.051,13.051,0,0,1,1.865-1.359c.65-.4,1.219-.742,1.7-1.012a4.143,4.143,0,0,1,1.688-.818,3.892,3.892,0,0,0,.707-.392,3.91,3.91,0,0,1,1.181-.609,3.4,3.4,0,0,0,.41-.169c0-.086,0-.152,0-.2a2.928,2.928,0,0,1,.187-1.1,2.183,2.183,0,0,1,.289-1.409,2.458,2.458,0,0,1,0-1.076l-.2-.438.175-.491a2.963,2.963,0,0,0,.141-.5,2.1,2.1,0,0,1,.2-1.718.209.209,0,0,0,0-.035,4.249,4.249,0,0,1,.042-1.368,17.009,17.009,0,0,0,.115-1.876,4.853,4.853,0,0,1-.948.234,3.2,3.2,0,0,0-.743.3,5.144,5.144,0,0,1-.923,1.163,2.143,2.143,0,0,1-1.409.512,3.548,3.548,0,0,1-.958-.125,3.046,3.046,0,0,1-2.082-1.86,2.9,2.9,0,0,1,.332-2.928,3.242,3.242,0,0,1,1.843-1.453c.522-.165,1.138-.342,1.83-.528.633-.17,1.2-.348,1.681-.53l.076-.029.079-.019c.355-.086.706-.162,1.043-.228l.1-.02c0-.24,0-.445.011-.615a3.317,3.317,0,0,1,.829-1.932,3.171,3.171,0,0,1,2.54-1.167l.307-.005.276.132c.474.227.878.429,1.2.6a2.256,2.256,0,0,1,1.2,1.491,2.169,2.169,0,0,1,.042.237c.089-.026.179-.053.27-.083a9.616,9.616,0,0,1,2.453-.465l.1,0a2.543,2.543,0,0,1,2.525,1.719,3.252,3.252,0,0,1,.205,2.285l-.022.056a2.5,2.5,0,0,1-1.52,1.36,3.377,3.377,0,0,1-1.145.249,2.124,2.124,0,0,1-.671-.093.937.937,0,0,0-.26-.02c-.043,0-.09,0-.14.006a1.3,1.3,0,0,0-.479.115,2.929,2.929,0,0,1-1.236.269,4.737,4.737,0,0,1-.554-.023,3.337,3.337,0,0,0-.45.089,4.917,4.917,0,0,1-.189.624c-.027.146-.107.721-.216,2.759-.1,1.88-.208,3.434-.32,4.62-.055.575-.121,1.172-.2,1.786l.155,0a6.466,6.466,0,0,0,.918-.055,7.2,7.2,0,0,0,.713-.181,5.436,5.436,0,0,1,1.449-.214,1.053,1.053,0,0,0,.464-.1l.189-.1.211-.033a29.647,29.647,0,0,1,4.09-.355c.341-.006.687-.006,1.029,0a22.432,22.432,0,0,1,5.154.691,11.989,11.989,0,0,1,4.346,2.019,2.9,2.9,0,0,1,1.19,1.085,2.264,2.264,0,0,1,1.018,1.246,2.346,2.346,0,0,0,.244.524,4.668,4.668,0,0,1,.54,1.247,12.754,12.754,0,0,1,.316,1.608l.008.075a11.726,11.726,0,0,1-.139,2.561,11.135,11.135,0,0,1-1.091,3.358,21.489,21.489,0,0,1-1.994,3.231l-.042.054c-.666.806-1.332,1.6-1.978,2.368a11.243,11.243,0,0,1-2.427,2.128,4.149,4.149,0,0,1-1.232,1.259,10.911,10.911,0,0,1-1.112.6.936.936,0,0,0-.165.094,1.926,1.926,0,0,1-1.192.838,4.783,4.783,0,0,1-1.511.855c-.328.1-.585.176-.764.232a7.607,7.607,0,0,1-1.171.235,2.779,2.779,0,0,1-.344.028h-.047A2.829,2.829,0,0,1-967.751,307.535Zm-12.708-15.968a6.558,6.558,0,0,1-1.285.834,1.38,1.38,0,0,0-.344.229,1.6,1.6,0,0,0-.31.351,8.208,8.208,0,0,1-1.184,1.326c-.294.476-.569.926-.816,1.339a1.794,1.794,0,0,0-.209.548.855.855,0,0,0,.254,0c.325-.055.815-.153,1.458-.292a4.984,4.984,0,0,0,1.285-.9,11.253,11.253,0,0,0,1.014-1.311,7.391,7.391,0,0,0,.847-1.89l.257-.82A6.486,6.486,0,0,0-980.459,291.568Zm77.98,16.1a4.034,4.034,0,0,1-1.1-.816,2.8,2.8,0,0,1-.733-1.643l-.016-.14.013-.141a3.757,3.757,0,0,1,1.089-2.365,5.189,5.189,0,0,1,1.939-1.205l.037-.013c.8-.254,1.39-.422,1.809-.514.4-.087,1.041-.2,1.956-.356a18.444,18.444,0,0,1,2.708-.26h.043l.043,0a9.6,9.6,0,0,0,1.547-.052c.19-.021.38-.033.563-.037a4.955,4.955,0,0,1,1.629.235c.533.174,1.072.381,1.6.615l.274.121.194.229a5.943,5.943,0,0,1,.964,1.513,2.442,2.442,0,0,1-.105,2.192,3.157,3.157,0,0,1-1.31,1.263,2.172,2.172,0,0,1-.981.246,3.087,3.087,0,0,1-1.552-.434l-.04-.022-.038-.024a.575.575,0,0,0-.166-.083,4.993,4.993,0,0,1-.815-.225,2.059,2.059,0,0,1-.794.18,1.879,1.879,0,0,1-.913-.22.931.931,0,0,0-.227-.017c-.055,0-.116,0-.181.011l-.2.019-.194-.041c-.055-.012-.1-.02-.135-.024a2.263,2.263,0,0,1-1.1.266,4.433,4.433,0,0,1-.452-.016,2.473,2.473,0,0,1-.932.291,1.806,1.806,0,0,1-.962.306,1.731,1.731,0,0,1-.181-.006,4.081,4.081,0,0,1-.533.52c-.174.139-.377.3-.6.478a1.933,1.933,0,0,1-1.156.415h-.031A2.11,2.11,0,0,1-902.479,307.671Zm-47.979-25.5a14.324,14.324,0,0,1-1.071-1.272l0,0a30.792,30.792,0,0,1-2.457-3.568,9.43,9.43,0,0,0-1.589-2.108,2.285,2.285,0,0,1-1.158-2.353,3.437,3.437,0,0,1,.687-1.76,2.442,2.442,0,0,1,1.94-.862,3.122,3.122,0,0,1,1.971.636,3.717,3.717,0,0,1,1.171,1.561c.317.406.684.868,1.093,1.378a6.4,6.4,0,0,1,.962,1.557,3.063,3.063,0,0,1,.745,1.125,2.53,2.53,0,0,0,.49.728,3.94,3.94,0,0,1,1.111,1.454,2.457,2.457,0,0,1,.093,2.146,3.838,3.838,0,0,0-.2.484,2.1,2.1,0,0,1-1.763,1.271,3.888,3.888,0,0,1-.643.07h-.049A1.836,1.836,0,0,1-950.458,282.171Zm48.957-2.865c-.459-.112-.812-.2-1.079-.28a3.8,3.8,0,0,1-1.675-1.274l-.044-.052c-.4-.5-.877-1.146-1.412-1.91s-1.011-1.485-1.411-2.14c-.382-.623-.767-1.235-1.147-1.819l-.1-.15-.053-.17a3.593,3.593,0,0,1-.2-2.076,1.828,1.828,0,0,1,.131-.334c-.05.039-.1.081-.159.126-.279.227-.595.471-.943.73a2.786,2.786,0,0,1-.526,1.678,3.927,3.927,0,0,1-1.786,1.391,3.175,3.175,0,0,1-1.362.358,2.52,2.52,0,0,1-1.093-.225,4.308,4.308,0,0,1-1.712-1.556l-.068-.1-.049-.109a2.534,2.534,0,0,1,.159-2.617,5.8,5.8,0,0,1,1.571-1.423c.581-.477,1.337-1.032,2.252-1.652.932-.632,2.227-1.44,3.849-2.4q1.149-.682,2.244-1.349a2.314,2.314,0,0,1-1.38-.907,2.89,2.89,0,0,1-.357-2.267,6.31,6.31,0,0,0-.221-1.616c-.325-.249-.743-.592-1.271-1.039-1.455-.641-2.2-1.514-2.221-2.6a2.463,2.463,0,0,1,.89-2.189,4.726,4.726,0,0,1,1.2-.61,2.193,2.193,0,0,1,.7-.125,2.924,2.924,0,0,1,1.629.519l.064.04.058.049a16.672,16.672,0,0,1,1.512,1.318c.179.194.455.527.87,1.047a8.7,8.7,0,0,1,1.169,1.977c.262.6.466,1.049.607,1.319l.122.234.022.264a14.178,14.178,0,0,1,.031,1.872,4.364,4.364,0,0,1-.079.639c1.139-.7,1.574-.928,1.806-1.039a4.981,4.981,0,0,1,1.624-.385c.193-2.327.32-4.7.374-7.073.045-1.965.067-3.7.064-5.179a2.072,2.072,0,0,1-1,.04,2.857,2.857,0,0,1-1.236.255,3.966,3.966,0,0,1-1.764.572,10.645,10.645,0,0,0-1.239.444,4.315,4.315,0,0,1-1.429.355,3.934,3.934,0,0,1-1.471.646,2.348,2.348,0,0,0-.706.507c-.3.35-.534.614-.721.808a3.582,3.582,0,0,1-1.384.814,2.855,2.855,0,0,1-.936.179,2.757,2.757,0,0,1-1.386-.351,2.643,2.643,0,0,1-1.318-2.341,2.806,2.806,0,0,1,.447-1.717c-.054,0-.109.007-.166.008a6.375,6.375,0,0,1-1.659-.255l-.063-.018a2.961,2.961,0,0,0-.879-.176l-.032,0c-.121.008-.324.027-.662.067a2.152,2.152,0,0,1-.1.321,2.969,2.969,0,0,0-.15.587,3.693,3.693,0,0,1-.167,1.819,4.028,4.028,0,0,1-.157,1.63c-.056.532-.1,1.02-.122,1.454l-.013.208-.013.032c.1,0,.18,0,.234,0,.317-.005.746.007,1.311.038l.257.014.233.112a1.452,1.452,0,0,0,.546.167,2.121,2.121,0,0,1,1.917,1.6,2.747,2.747,0,0,1-.04,2.252,2.635,2.635,0,0,1-1.324,1.273,2.344,2.344,0,0,1-.874.172,4.848,4.848,0,0,1-1.364-.206l-.112-.031-.1-.049a4.581,4.581,0,0,0-1.365-.189c-.085.338-.163.621-.236.852a11.236,11.236,0,0,0-.3,1.294l-.008.043c-.134.618-.3,1.246-.5,1.866,0,.031,0,.063,0,.094q1.188-.36,2.552-.815c1.879-.626,3.415-1.142,4.564-1.535a3.116,3.116,0,0,1,1.154-.266,2.048,2.048,0,0,1,1.706.809,2.387,2.387,0,0,1,.411,2.29A3.138,3.138,0,0,1-910,263.514l-.3.183-.352.005a.768.768,0,0,0-.2.024,4.9,4.9,0,0,1-1.838.617l-.048.009-.049,0a2.386,2.386,0,0,0-.769.216,9.5,9.5,0,0,0-.988.542l-.346.215-.407-.02c-.084,0-.162-.005-.232,0a1.62,1.62,0,0,0-.188.013,5.505,5.505,0,0,1-1.135.567,4.412,4.412,0,0,1-1.4.283,3.773,3.773,0,0,1-1.529.55,2.868,2.868,0,0,1-1.185.643,5.454,5.454,0,0,1-1.075.164,8.517,8.517,0,0,0-1.884.691l-.272.142-.307.005a1.494,1.494,0,0,0-.162.01,2.22,2.22,0,0,1-1.265.518,11.7,11.7,0,0,1-1.827.429c-.051.006-.089.013-.114.019a2.571,2.571,0,0,1-1.2.633,8.481,8.481,0,0,1-.836.143,8.524,8.524,0,0,1-1.414.85l-.114.056-.122.033a3.735,3.735,0,0,1-.9.131,3.027,3.027,0,0,1-2.239-.918,2.491,2.491,0,0,1-.8-2.768,3.513,3.513,0,0,1,.94-1.43c.367-.316.969-.586,2.828-.949.635-.153,1.142-.287,1.5-.4a14.86,14.86,0,0,1,1.546-.345,3.13,3.13,0,0,1,1.3-1.309,12.771,12.771,0,0,1,1.942-.826,2.478,2.478,0,0,0,.973-.8,10.233,10.233,0,0,0,.906-2.02,19.267,19.267,0,0,0,.589-2.038l-.078-.014a2.11,2.11,0,0,1-.935.236,2.216,2.216,0,0,1-.581-.068l-.056.014a2.23,2.23,0,0,1,.053,1.3,2.079,2.079,0,0,1-1.17,1.321,3.856,3.856,0,0,1-1.8.453,2.338,2.338,0,0,1-1.71-.909,4.775,4.775,0,0,1-.85-1.887l-.037-.147,0-.15a5.321,5.321,0,0,1,.709-3.065,4.318,4.318,0,0,1,2.942-1.678l.068-.011c.882-.126,1.549-.23,1.981-.311.38-.07,1.076-.154,2.114-.255.095-.886.192-1.884.292-2.979a14.552,14.552,0,0,0,.048-2.292c-.832.132-1.589.284-2.261.453-1.037.259-1.775.451-2.193.568a9.155,9.155,0,0,0-1.013.339c-.225.092-.491.2-.8.315a3.061,3.061,0,0,1-1.232,1.321,3.057,3.057,0,0,1-1.471.411,3.161,3.161,0,0,1-.763-.082,3.376,3.376,0,0,1-1.953-1.346,2.3,2.3,0,0,1-.175-2.771,6.488,6.488,0,0,1,3.227-2.041A42.861,42.861,0,0,1-923.7,242.4c3.069-.566,6.222-1,9.371-1.281.413-.049.869-.076,1.356-.085a2.388,2.388,0,0,1,2.169,1.212,2.622,2.622,0,0,1,.24,2.293,2.285,2.285,0,0,1-.151.331,33.714,33.714,0,0,1,4.238-1.525c2.112-.617,3.56-1.009,4.423-1.2.688-.154,1.722-.352,3.141-.6-.04-2.049-.064-2.747-.077-2.956-.023-.333-.054-.718-.094-1.146-.142-.489-.292-.95-.447-1.373-.32-.875-.112-1.949.672-3.485l.035-.07.044-.065a2.551,2.551,0,0,1,2.121-1.158h.047l.046,0a2.7,2.7,0,0,1,2.162,1.12,3.242,3.242,0,0,1,.6,2q-.016.679-.032,1.386a6.045,6.045,0,0,0,.036.948l.026.182-.025.182a5.8,5.8,0,0,0-.08,1.346,14.926,14.926,0,0,1-.051,2.324c1.073-.093,1.977-.178,2.7-.256,1.036-.111,1.706-.187,1.99-.229a4.546,4.546,0,0,1,.544-.038c.356-.006.807.013,1.383.057l.061.006c.938.118,1.4.151,1.615.159a2.267,2.267,0,0,1,.671.127l-.089-.138c-.237-.367-.92-1.349-2.029-2.919a9.7,9.7,0,0,0-1.321-1.156,2.515,2.515,0,0,1-1.164-2.479,2.6,2.6,0,0,1,1.636-2.083,3.119,3.119,0,0,1,1.178-.28,2,2,0,0,1,1.24.383,6.063,6.063,0,0,1,1,.973,10.03,10.03,0,0,1,1.319,1.438c.375.5.854,1.232,1.463,2.228a27.52,27.52,0,0,0,1.636,2.4,8.484,8.484,0,0,1,1.4,2.634,2.266,2.266,0,0,1,0,1.826,2.277,2.277,0,0,1-1.463,1.188,3.579,3.579,0,0,1-1.014.179,2.26,2.26,0,0,1-1.759-.73,2.561,2.561,0,0,1-.828,1.184,3.513,3.513,0,0,1-1.616.852,14.977,14.977,0,0,1-1.651.188l-.273.02-.257-.091a2.308,2.308,0,0,0-.68-.105c-.453-.013-.912-.046-1.364-.1a2.173,2.173,0,0,1-1.514-.913c-.164.014-.324.022-.479.024-.358.006-.769.022-1.222.049-.286.017-.728.055-1.32.116q0,.346.006.733c.013.807-.05,2.029-.2,3.734-.139,1.623-.252,3.268-.336,4.89-.031.594-.078,1.326-.144,2.191,1.074-.993,2.007-1.908,2.781-2.726.892-.942,1.741-1.822,2.524-2.614s1.283-1.3,1.52-1.545a5.482,5.482,0,0,1,1.34-.958,2.442,2.442,0,0,1,1.529-.6,2.251,2.251,0,0,1,.749.115,2.662,2.662,0,0,1,1.6,1.431,2.956,2.956,0,0,1,.184,2.048,2.216,2.216,0,0,1-1.351,1.627,9.428,9.428,0,0,0-.9.422c-.983.871-1.281,1.108-1.429,1.216a2.553,2.553,0,0,0-.331.284,3.625,3.625,0,0,1-.823.633.986.986,0,0,0-.22.232,5.614,5.614,0,0,1-1.109,1.048,6.17,6.17,0,0,1-.84,1.039,1.312,1.312,0,0,0-.266.343,2.951,2.951,0,0,1-.895,1.006,6.807,6.807,0,0,1-.609.991,2.24,2.24,0,0,1-.351.369,2.452,2.452,0,0,1,.471,1.374,4.828,4.828,0,0,1,.473.767,3.183,3.183,0,0,0,.314.546q.2.25.517.637a2.45,2.45,0,0,0,.619.489l.109.067.094.086a13.4,13.4,0,0,0,2.875,1.958,18.681,18.681,0,0,0,2.785,1.247c.754.237,1.471.478,2.133.718a15.217,15.217,0,0,0,2.043.562l.043.01.042.012a5.937,5.937,0,0,1,2.012.875,2.192,2.192,0,0,1,.676,2.478,2.215,2.215,0,0,1-1.879,1.778c-.1.011-.2.018-.3.02a6.329,6.329,0,0,1-1.867-.319l-.075-.022-.071-.031c-1.6-.69-3.52-1.547-5.706-2.546a31.122,31.122,0,0,1-7.331-4.975,20.43,20.43,0,0,1-1.841-1.759c-.284,2.693-.588,5.063-.905,7.068a18.824,18.824,0,0,1-.779,3.592c-.212.549-.44,1.066-.676,1.539a3.942,3.942,0,0,1-1.324,1.532,2.758,2.758,0,0,1-1.515.489h-.042A2.963,2.963,0,0,1-901.5,279.306Zm.691-15.024c-.873.591-1.618,1.074-2.214,1.434a11.639,11.639,0,0,0-1.228.83l-.2.158-.241.073a1.926,1.926,0,0,0-.409.164,2.475,2.475,0,0,1-.7.6,2.03,2.03,0,0,1,1.061.37,6.533,6.533,0,0,1,1.545,1.918l.077.127.048.141a11.3,11.3,0,0,0,.659,1.611,8.449,8.449,0,0,0,.626,1.039,9.322,9.322,0,0,1,.543.836q.119-.27.219-.54a11.778,11.778,0,0,0,.593-2.459c.134-.988.28-1.99.433-2.977a15.328,15.328,0,0,0,.191-2.614l0-.086.01-.086q.069-.6.124-1.189A9.737,9.737,0,0,0-900.809,264.282Zm5.714-43.9a4.367,4.367,0,0,0-.482-.148,2.565,2.565,0,0,1-.578.068,9.53,9.53,0,0,1-1.276-.093l-.056-.008a8.138,8.138,0,0,1-1.98-.614,14.886,14.886,0,0,1-4.85-1.857,9.629,9.629,0,0,1-4.351-4.927,13.459,13.459,0,0,1-.87-2.774,6.785,6.785,0,0,1-1.44.762l-.187.078-.2.018a2.614,2.614,0,0,0-.814.164,2.7,2.7,0,0,1-.918.247,2.439,2.439,0,0,1-.917.41,3.539,3.539,0,0,1-1,.029,5.856,5.856,0,0,1-2.085.773l-.209.03-.208-.038a.89.89,0,0,0-.237-.02c-.2.082-.465.184-.779.305a3.661,3.661,0,0,1-2.061.866,2.984,2.984,0,0,0-.765.275,3.13,3.13,0,0,1-1.493.447,3.325,3.325,0,0,0-.459.061,1.617,1.617,0,0,1-1.108.464q-.065,0-.13,0a3.559,3.559,0,0,1-1.074.32,1.747,1.747,0,0,1-.934.379,3.236,3.236,0,0,0-.628.228,2.922,2.922,0,0,0-.817.522l-.167.154-.209.088a12.509,12.509,0,0,0-1.274.661,4.022,4.022,0,0,1-2.684,1.4c-.081,0-.164,0-.244-.007a2.557,2.557,0,0,1-2.264-1.737,2.813,2.813,0,0,1-.014-2.282,3.937,3.937,0,0,1,.868-1.123,4.333,4.333,0,0,1,1.44-.932c.438-.18.949-.383,1.517-.6.6-.231,1.032-.388,1.328-.478.068-.021.4-.136,1.884-.755a5.829,5.829,0,0,1,.341-.881,8.485,8.485,0,0,1,.811-1.371,8.884,8.884,0,0,0,.692-2.306c.292-1.357.515-2.5.665-3.407.1-.587.2-1.456.318-2.6a2.911,2.911,0,0,1-.6.012,5,5,0,0,1-1.2.335,1.8,1.8,0,0,1-1.3.5h-.094c-.131.068-.271.133-.419.2a3.52,3.52,0,0,1-.385.816,3.751,3.751,0,0,1-.721.792,1.9,1.9,0,0,1-1.216.419,3.746,3.746,0,0,1-1.025-.145,3.265,3.265,0,0,1-2.122-2.011,2.791,2.791,0,0,1,1.037-3.489l.125-.1.145-.064a28.337,28.337,0,0,1,3.865-1.4c1.232-.346,2.254-.616,3.038-.8.356-.085.7-.164,1.021-.237a7.843,7.843,0,0,1,.049-1.638,5.873,5.873,0,0,0-.07-1.165,14.467,14.467,0,0,0-.347-1.9,2.345,2.345,0,0,1,.011-2.837,2.936,2.936,0,0,1,1.768-1.175,2.794,2.794,0,0,1,.451-.045,3.162,3.162,0,0,1,1.426.33,2.657,2.657,0,0,1,1.434,1.659c.117.383.224.723.32,1.012a4.467,4.467,0,0,1,.169,1.674l0,.078-.014.077a6.217,6.217,0,0,0-.151,1.351c.013.185.029.565.032,1.717.423-.061,1.121-.148,2.128-.265a2.508,2.508,0,0,1,1.238-.248,5.729,5.729,0,0,0,.71-.013,3.843,3.843,0,0,1,1.458.18,2.455,2.455,0,0,1,1.581,1.6,3.735,3.735,0,0,1,.293,1.521,2.394,2.394,0,0,1-.808,1.568,2.134,2.134,0,0,1-1.493.551,5.115,5.115,0,0,1-1.131-.128,2.358,2.358,0,0,1-1.018.015,6.723,6.723,0,0,0-1.144-.036c-.578.01-1.03.027-1.344.049a6.373,6.373,0,0,0-.711.109,5.08,5.08,0,0,0-.2,1.04c-.065.738-.257,2.495-.59,5.371l-.008.069-.015.068c-.344,1.518-.6,2.6-.772,3.273,1.715-.534,3.343-1.046,4.86-1.529,2.165-.689,3.783-1.234,4.808-1.621l.07-.023a2.6,2.6,0,0,1,.742-.126,2.007,2.007,0,0,1,1.269.4q.015-.7.072-1.4.04-.478.087-.947a1.6,1.6,0,0,0-.227.2,3.018,3.018,0,0,1-1.269.859,2.536,2.536,0,0,1-1.669.02,3.24,3.24,0,0,1-1.4-1.019,2.446,2.446,0,0,1-.4-2.538,3.755,3.755,0,0,1,1.424-1.83l.081-.057.089-.043c.544-.266,1.239-.624,2.064-1.063.706-.377,1.516-.778,2.414-1.2.194-.97.365-1.734.518-2.323.175-.677.416-1.622.713-2.807.3-1.2.745-2.817,1.317-4.8l.015-.048a10.62,10.62,0,0,1,.69-1.757l.109-.2.168-.149a3.387,3.387,0,0,1,1.319-.746,4.961,4.961,0,0,1,1.266-.179,2.642,2.642,0,0,1,1.834.715,2.385,2.385,0,0,1,.868,1.757,3.423,3.423,0,0,1-.324,1.465,5.3,5.3,0,0,1-.95,1.346,11.325,11.325,0,0,1-.749,2.222,5.444,5.444,0,0,1-.776,2.461,7.409,7.409,0,0,0-.285.738q.348-.151.732-.322a23.328,23.328,0,0,1,2.7-1.1,13.49,13.49,0,0,0,1.678-.72c.51-1.131,1-2.192,1.452-3.157a12.262,12.262,0,0,0,.958-2.933c.084-1.539.348-2.372.9-2.867a2.583,2.583,0,0,1,1.685-.682l.068,0,.068.006c.553.049,1.847.162,2.3,1.206a4.836,4.836,0,0,0,.321.59,2.354,2.354,0,0,1,.239,2.011c-.112.359-.264.8-.45,1.309l-.017.047-.021.045q-.5,1.115-.821,1.824a12.036,12.036,0,0,0,1.539-.394,7.681,7.681,0,0,1,1.2-.358c.233-.043.613-.1,1.162-.187a3.771,3.771,0,0,1,2.234.06,3.729,3.729,0,0,1,1.794,1.1,8.967,8.967,0,0,1,.842.986,3.923,3.923,0,0,1,.5,1.129,4.471,4.471,0,0,1-.031,2.16l0,.016c-.147.677-.274,1.2-.389,1.612a11.835,11.835,0,0,1-.583,1.553c-.261.743-.563,1.485-.9,2.209a9.041,9.041,0,0,1-1.348,2.09,7.022,7.022,0,0,1-1.2,1.779c-.537.733-.915,1.283-1.125,1.635a5.74,5.74,0,0,1-1.692,1.649,8.2,8.2,0,0,1-1.385,1.4,7.922,7.922,0,0,1-1.319.869,3.433,3.433,0,0,1-1.626.319,5.209,5.209,0,0,1-1.941-.511l-.167-.075-.14-.117a28.155,28.155,0,0,1-3.251-3.362,3.9,3.9,0,0,1-.973-1.528q-.17.084-.351.162a10.287,10.287,0,0,1-1.435.855,2.593,2.593,0,0,1-1.9.038,2.148,2.148,0,0,1-1.243-1.088,11.811,11.811,0,0,1-.273,1.48,3.876,3.876,0,0,1-.069,1.871,5.425,5.425,0,0,0,.07,1.109l.014.08.005.081a6.775,6.775,0,0,0,.769,2.569,9.885,9.885,0,0,0,1.691,2.441c.62.389,1.1.707,1.448.973a1.078,1.078,0,0,0,.408.222,5.012,5.012,0,0,1,1.255.406c1.491.4,2.709.667,3.621.809a11.908,11.908,0,0,0,2.01.122c.331-.006.679-.023,1.034-.051l.078,0a8.807,8.807,0,0,0,3.377-.72,7,7,0,0,0,1.393-1.135,6.391,6.391,0,0,0,.913-1.087,10.026,10.026,0,0,1,.93-1.318c.31-.58.7-1.345,1.15-2.275a14.9,14.9,0,0,0,1.1-3.532l.008-.04.011-.039a5.124,5.124,0,0,1,1.209-2.578,2.246,2.246,0,0,1,1.462-.593,2.2,2.2,0,0,1,.539.058,3.571,3.571,0,0,1,1.494.8,2.7,2.7,0,0,1,.958,2.063,5.215,5.215,0,0,1-.311,1.816,3.585,3.585,0,0,1-.887,1.645.409.409,0,0,0-.073.094,3.289,3.289,0,0,1-.68,1.79c-.2.274-.418.612-.653,1.006a2.588,2.588,0,0,1-.633,1.727,6.571,6.571,0,0,1-.664.645,5.237,5.237,0,0,1-.986,1.445,8.616,8.616,0,0,1-2.8,2.594,14.355,14.355,0,0,1-3.34,1.488l-.071.021-.074.013a8.172,8.172,0,0,0-.9.185,1.935,1.935,0,0,1-.967.252,3.511,3.511,0,0,1-.4-.019,5.227,5.227,0,0,1-1.367.139c-.433-.011-.987-.01-1.645,0l-.236,0Zm6.749-26.2a5.315,5.315,0,0,1-1.4.384,9.46,9.46,0,0,1-1.478.4l-1.111.581a14.214,14.214,0,0,1-1.6.662c-.522.815-.874,1.368-1.048,1.646a14.133,14.133,0,0,0-.671,1.275l-.026.05a8.564,8.564,0,0,1-.9,1.46,2.433,2.433,0,0,1,1.074.444,2.6,2.6,0,0,1,.887,1.161,14.49,14.49,0,0,1,.958,1.407,4.958,4.958,0,0,0,.529.694c.108-.121.241-.274.4-.469l.082-.1.1-.08a13.442,13.442,0,0,0,1.8-1.787,16.216,16.216,0,0,0,1.434-1.935,31.4,31.4,0,0,0,1.463-2.87,14.8,14.8,0,0,0,1.076-3.1A8.563,8.563,0,0,1-888.346,194.189Z" transform="translate(1326.292 4243.573)" fill="#5b1e16"/>
  </g>
</svg>
