<svg xmlns="http://www.w3.org/2000/svg" width="107.838" height="237.129" viewBox="0 0 107.838 237.129">
  <g id="deliciousness_item1_copy" transform="translate(-337.244 -4424.721)">
    <path id="パス_6072" data-name="パス 6072" d="M19.173-28.6a1.517,1.517,0,0,1,.623.821,3.934,3.934,0,0,0,.793,1.218,2.622,2.622,0,0,1,.793,1.048,1.239,1.239,0,0,1,.085,1.048,5.244,5.244,0,0,0-.283.651q-.085.255-.765.368t-.878-.085q-.2-.2-.935-1.161a29.4,29.4,0,0,1-2.294-3.455,10.412,10.412,0,0,0-1.9-2.549,1.032,1.032,0,0,1-.623-1.133,2.219,2.219,0,0,1,.425-1.1,1.192,1.192,0,0,1,.963-.368,1.841,1.841,0,0,1,1.161.4,2.541,2.541,0,0,1,.793,1.189q.51.68,1.189,1.558A4.447,4.447,0,0,1,19.173-28.6ZM6.655-19.428a26.294,26.294,0,0,1-2.719-.227,9.4,9.4,0,0,1-2.266.312A3.537,3.537,0,0,0,.4-19.2q-.481.17-.878.283t-.68.17a2.531,2.531,0,0,1-.963-.113,4.6,4.6,0,0,1-1.7.453,1.687,1.687,0,0,1-.765.453q-.425.113-1.161.4-.51,1.7-.595,2.209a1.2,1.2,0,0,1-.4.765A.638.638,0,0,0-7-13.962a2.112,2.112,0,0,1-.4,1.161.634.634,0,0,1-.34.85A1.617,1.617,0,0,1-7.9-10.9q-.227.312-.68.991-.34.453-.736,1.076Q-9.6-7.873-9.8-7.76a6.033,6.033,0,0,0-.765.623,1.444,1.444,0,0,1-1.02.793q-.623.34-1.246.623t-1.274.566a4.216,4.216,0,0,1-1.954.17,4.741,4.741,0,0,1-2.351-.991,3.121,3.121,0,0,1-1.246-1.841,4.446,4.446,0,0,1,0-1.869A13.1,13.1,0,0,1-19-11.64a6.1,6.1,0,0,1,1.5-2.1q1.048-.991,1.7-1.558a11.821,11.821,0,0,1,1.7-1.189q1.048-.623,1.784-1.02a2.841,2.841,0,0,1,1.359-.623,5.564,5.564,0,0,0,1.076-.566,2.6,2.6,0,0,1,.793-.4,8.9,8.9,0,0,0,1.3-.566q.057-.68.057-1.048a1.623,1.623,0,0,1,.142-.68.827.827,0,0,0,.057-.595q-.085-.283.425-1.02a1.618,1.618,0,0,1-.113-.991,1.083,1.083,0,0,0-.057-.765,2.054,2.054,0,0,0,.2-1.274A.8.8,0,0,1-7-26.763a1.288,1.288,0,0,0,.17-.85,2.953,2.953,0,0,1,.057-.991,18.018,18.018,0,0,0,.17-2.436,4.951,4.951,0,0,0,.113-1.246,3.981,3.981,0,0,0-1.5.227,3.778,3.778,0,0,1-1.02.283,5.3,5.3,0,0,0-1.5.566,4.879,4.879,0,0,1-.878,1.161,1.287,1.287,0,0,1-1.189.085A1.774,1.774,0,0,1-13.764-31.1a1.605,1.605,0,0,1,.255-1.7,1.931,1.931,0,0,1,1.161-.906q.765-.227,1.784-.481t1.813-.538q.51-.113.991-.2A8.4,8.4,0,0,0-6.6-35.23q0-1.02.028-1.529A2.119,2.119,0,0,1-6-37.921a1.9,1.9,0,0,1,1.558-.651q.68.34,1.133.595a1,1,0,0,1,.538.651A5.192,5.192,0,0,1-2.86-35.8a9.179,9.179,0,0,0,2.039-.4A8.236,8.236,0,0,1,1.3-36.562a1.261,1.261,0,0,1,1.331.906,2.163,2.163,0,0,1,.17,1.388,1.264,1.264,0,0,1-.793.623,1.542,1.542,0,0,1-.963.113,2.425,2.425,0,0,0-.878-.085,2.577,2.577,0,0,0-.963.227,2.214,2.214,0,0,1-1.218.085,4.9,4.9,0,0,0-1.586.4,6.153,6.153,0,0,1-.312,1.161,19.381,19.381,0,0,0-.34,3.115q-.2,2.8-.4,4.56t-.538,3.738a16.41,16.41,0,0,0,1.756-.51A7.813,7.813,0,0,0-2.294-20.9a8.533,8.533,0,0,0,.85-.2,4.114,4.114,0,0,1,1.1-.142,2.314,2.314,0,0,0,1.048-.227,28.323,28.323,0,0,1,4.9-.255,21.019,21.019,0,0,1,4.843.736,10.544,10.544,0,0,1,3.965,1.954,1.753,1.753,0,0,1,.906.963,1.1,1.1,0,0,1,.708.68,3.619,3.619,0,0,0,.368.821,3.358,3.358,0,0,1,.368.906,11.545,11.545,0,0,1,.255,1.444,10.6,10.6,0,0,1-.17,2.266,9.791,9.791,0,0,1-1.02,2.945,20.12,20.12,0,0,1-1.926,3q-1.02,1.189-2.011,2.322A10.006,10.006,0,0,1,9.487-1.7,3.28,3.28,0,0,1,8.5-.623a9.818,9.818,0,0,1-.991.51A1.558,1.558,0,0,0,6.8.425a.713.713,0,0,1-.651.312,4.324,4.324,0,0,1-1.359.821q-.51.142-.793.227a6.67,6.67,0,0,1-.963.17A1.484,1.484,0,0,1,1.784,1.5,1.308,1.308,0,0,1,1.529.028,1.38,1.38,0,0,1,2.69-1.02a5.992,5.992,0,0,0,1.473-.368q.623-.255,1.359-.538a11.819,11.819,0,0,0,1.9-.935A13.393,13.393,0,0,0,8.949-3.937q.651-.538,1.813-1.643a10.847,10.847,0,0,0,1.869-2.294q.708-1.189.963-1.7a4.562,4.562,0,0,1,.481-.793,1.379,1.379,0,0,0,.17-.963.849.849,0,0,0,.227-.878.532.532,0,0,1,.057-.623q.227-.255-.057-.821a1.465,1.465,0,0,0,.085-.991,4.953,4.953,0,0,1-.312-1.218,3.6,3.6,0,0,1-.935-.935,1.776,1.776,0,0,0-.793-.68,4.457,4.457,0,0,1-1.048-.708,4.494,4.494,0,0,1-1.7-.85q-1.076.113-1.331-.113a.794.794,0,0,0-.708-.142A2.072,2.072,0,0,1,6.655-19.428Zm-16.709,3.455a11.767,11.767,0,0,0-2.266,1.189,5.537,5.537,0,0,1-1.02.651,2.684,2.684,0,0,0-.68.425,2.922,2.922,0,0,0-.566.623,8.989,8.989,0,0,1-1.133,1.189q-.51.793-.935,1.473a3.43,3.43,0,0,0-.481,1.643.888.888,0,0,0,.651.736,2.274,2.274,0,0,0,1.161.142q.566-.085,1.7-.312A6.633,6.633,0,0,0-11.81-9.431a12.452,12.452,0,0,0,1.161-1.444A8.614,8.614,0,0,0-9.6-13.084l.68-2.039q.227-.68.453-1.416A10.279,10.279,0,0,1-10.054-15.973Zm-4.078,46.92a5.819,5.819,0,0,0,.085,2.294,2.874,2.874,0,0,1,.2,1.133,3.918,3.918,0,0,0,.227,1.331,19.3,19.3,0,0,1,.68,2.124,25,25,0,0,0,.963,2.832,15.043,15.043,0,0,0,1.3,2.521A12.475,12.475,0,0,1-9.6,44.6a3.614,3.614,0,0,0,1.133.85q.453.17,1.529-.453a5.589,5.589,0,0,1,1.586-1.416,8.539,8.539,0,0,1,.51-.991,5.734,5.734,0,0,1,.906-.878A2.06,2.06,0,0,1-3.2,40.633a7.631,7.631,0,0,1,.765-.85,1.434,1.434,0,0,0,.425-.708.721.721,0,0,1,.566-.538q.51-.68,1.076-1.473.623-.736,1.076-1.3a5.8,5.8,0,0,1,.963-.963,1.037,1.037,0,0,1,1.048-.2,1.688,1.688,0,0,1,.878.793,1.168,1.168,0,0,1,.085,1.133,3.524,3.524,0,0,1-.566.878q-.312.34-1.161,1.246-1.133,1.3-2.889,3.144t-2.775,3.03q-1.02,1.189-2.039,2.266a6.2,6.2,0,0,1-1.614.708,4.4,4.4,0,0,1-2.294-.312,5.047,5.047,0,0,0-1.3-1.048,2.377,2.377,0,0,1-1.02-1.048q-.736-.963-1.274-1.784a4.719,4.719,0,0,1-.708-1.728,3,3,0,0,0-.765-.991q-.312-.2-.2-1.048a1.985,1.985,0,0,0-.283-.765,2.961,2.961,0,0,1-.34-1.048,1.357,1.357,0,0,1-.368-.878,1.619,1.619,0,0,0-.255-.878,8.28,8.28,0,0,0-.057-1.02,3.427,3.427,0,0,1-.028-.736,1.283,1.283,0,0,0-.17-.68,2.818,2.818,0,0,1-.255-.68,7.126,7.126,0,0,1-.057-1.133,5.166,5.166,0,0,1-.283-1.388,9.775,9.775,0,0,1-.028-1.246q.028-.481.028-.935-.057-.566-.057-1.529a5.485,5.485,0,0,1,.142-1.444,4.425,4.425,0,0,1,.34-.85,1.68,1.68,0,0,1,.85-.651,2.1,2.1,0,0,1,1.359-.113.966.966,0,0,1,.821.765,2.644,2.644,0,0,1-.283,1.5,7.982,7.982,0,0,0-.34,2.067A13.1,13.1,0,0,0-14.132,30.947Zm26.678-5.324a2.017,2.017,0,0,1,.057-1.076,1.928,1.928,0,0,1,.566-.793,1.91,1.91,0,0,1,.85-.227,2.867,2.867,0,0,1,.963.113q.283.113.51.85a6.222,6.222,0,0,1,.595,2.209,32.012,32.012,0,0,1,.2,3.965v4.871a12.88,12.88,0,0,1-.085,2.237q-.142,1.161-.2,2.181a5.022,5.022,0,0,1,.2,1.728,1.3,1.3,0,0,1-.368.793,1.828,1.828,0,0,1-.991.34,2.175,2.175,0,0,1-1.359-.283,1.194,1.194,0,0,1-.68-1.02,2.426,2.426,0,0,1,.142-1.048,6.824,6.824,0,0,0,.34-1.3,6.127,6.127,0,0,1,.4-1.982Q13.622,35.365,13.65,35a2.31,2.31,0,0,1,.227-.793.921.921,0,0,0,.057-.765,2.945,2.945,0,0,1-.113-1.133,8.435,8.435,0,0,0-.142-1.756,5.231,5.231,0,0,0-.227-1.7q-.283-1.076-.481-1.954A4.921,4.921,0,0,0,12.546,25.623ZM12.6,93.217a2.83,2.83,0,0,1-1.02,1.189q-.68.453-1.416,1.02a10.823,10.823,0,0,0-1.7,1.5,3.171,3.171,0,0,1-1.246.935,6.949,6.949,0,0,1-.736.623,6.768,6.768,0,0,0-.708.595q-.255.255-1.189,1.048a24.981,24.981,0,0,1-3.6,2.266,2.114,2.114,0,0,1-1.076,1.076,13.125,13.125,0,0,1-1.3.4,6.013,6.013,0,0,1-1.359.651,4.857,4.857,0,0,1-1.048.17q-.538.028-1.359.113a3.75,3.75,0,0,1-2.067-.595,4.611,4.611,0,0,1-3-3.427,25.659,25.659,0,0,1-.566-3.483q-.057-1.133-.057-2.237t.255-3.653q.255-2.549.255-3.682.113-1.133.68-4.05t1.586-6.429a7.86,7.86,0,0,0,.312-1.331,2.876,2.876,0,0,1,.651-1.189,2.178,2.178,0,0,1,1.416-.935,2.791,2.791,0,0,1,1.643.453q.906.623.68,1.189a3.153,3.153,0,0,1-.623.991,10.664,10.664,0,0,0-.736.878q-.4.963-1.473,3.738a2.127,2.127,0,0,1-.51,1.3Q-7,83.418-7.335,84.891T-7.76,86.93a11.561,11.561,0,0,0-.113,1.189A1.951,1.951,0,0,1-8.3,89.252,6.736,6.736,0,0,1-8.524,91.4q.057,1.813-.028,3.144a19.28,19.28,0,0,0,.255,3.71,7.892,7.892,0,0,0,.51,2.1A9.536,9.536,0,0,0-7,101.628a1.829,1.829,0,0,0,1.529.736,5.452,5.452,0,0,0,1.982-.312A22.908,22.908,0,0,0-.4,100.438q1.5-.935,2.521-1.614A3.476,3.476,0,0,1,3.6,97.8q.623-.963.85-.935a.548.548,0,0,0,.453-.2l.481-.481a5.149,5.149,0,0,1,1.161-.708,1.218,1.218,0,0,1,.708-.991,1.722,1.722,0,0,0,.765-.481,10.911,10.911,0,0,1,.935-.935q.481-.425,1.274-1.1a14.158,14.158,0,0,1,1.218-.963,6.887,6.887,0,0,0,1.1-1.02,2.528,2.528,0,0,1,1.416-.85,3.471,3.471,0,0,1,1.048.17.981.981,0,0,1,.651.878q.113.708-.17.963t-1.3.991a4.846,4.846,0,0,0-.765.708A1.16,1.16,0,0,1,12.6,93.217Zm-26.734,45.73a5.819,5.819,0,0,0,.085,2.294,2.874,2.874,0,0,1,.2,1.133,3.918,3.918,0,0,0,.227,1.331,19.3,19.3,0,0,1,.68,2.124,25,25,0,0,0,.963,2.832,15.043,15.043,0,0,0,1.3,2.521A12.476,12.476,0,0,1-9.6,152.6a3.614,3.614,0,0,0,1.133.85q.453.17,1.529-.453a5.589,5.589,0,0,1,1.586-1.416,8.538,8.538,0,0,1,.51-.991,5.733,5.733,0,0,1,.906-.878,2.06,2.06,0,0,1,.736-1.076,7.63,7.63,0,0,1,.765-.85,1.434,1.434,0,0,0,.425-.708.721.721,0,0,1,.566-.538q.51-.68,1.076-1.473.623-.736,1.076-1.3a5.8,5.8,0,0,1,.963-.963,1.037,1.037,0,0,1,1.048-.2,1.688,1.688,0,0,1,.878.793,1.168,1.168,0,0,1,.085,1.133,3.524,3.524,0,0,1-.566.878q-.312.34-1.161,1.246-1.133,1.3-2.889,3.144t-2.775,3.03q-1.02,1.189-2.039,2.266a6.2,6.2,0,0,1-1.614.708,4.4,4.4,0,0,1-2.294-.312,5.047,5.047,0,0,0-1.3-1.048,2.377,2.377,0,0,1-1.02-1.048q-.736-.963-1.274-1.784a4.719,4.719,0,0,1-.708-1.728,3,3,0,0,0-.765-.991q-.312-.2-.2-1.048a1.985,1.985,0,0,0-.283-.765,2.961,2.961,0,0,1-.34-1.048,1.357,1.357,0,0,1-.368-.878,1.619,1.619,0,0,0-.255-.878,8.28,8.28,0,0,0-.057-1.02,3.427,3.427,0,0,1-.028-.736,1.283,1.283,0,0,0-.17-.68,2.818,2.818,0,0,1-.255-.68,7.126,7.126,0,0,1-.057-1.133,5.166,5.166,0,0,1-.283-1.388,9.775,9.775,0,0,1-.028-1.246q.028-.481.028-.935-.057-.566-.057-1.529a5.485,5.485,0,0,1,.142-1.444,4.425,4.425,0,0,1,.34-.85,1.68,1.68,0,0,1,.85-.651,2.1,2.1,0,0,1,1.359-.113.966.966,0,0,1,.821.765,2.644,2.644,0,0,1-.283,1.5,7.982,7.982,0,0,0-.34,2.067A13.1,13.1,0,0,0-14.132,138.947Zm26.678-5.324a2.017,2.017,0,0,1,.057-1.076,1.928,1.928,0,0,1,.566-.793,1.91,1.91,0,0,1,.85-.227,2.867,2.867,0,0,1,.963.113q.283.113.51.85a6.222,6.222,0,0,1,.595,2.209,32.012,32.012,0,0,1,.2,3.965v4.871a12.88,12.88,0,0,1-.085,2.237q-.142,1.161-.2,2.181a5.022,5.022,0,0,1,.2,1.728,1.3,1.3,0,0,1-.368.793,1.828,1.828,0,0,1-.991.34,2.175,2.175,0,0,1-1.359-.283,1.194,1.194,0,0,1-.68-1.02,2.426,2.426,0,0,1,.142-1.048,6.824,6.824,0,0,0,.34-1.3,6.127,6.127,0,0,1,.4-1.982q-.057-1.812-.028-2.181a2.31,2.31,0,0,1,.227-.793.921.921,0,0,0,.057-.765,2.945,2.945,0,0,1-.113-1.133,8.435,8.435,0,0,0-.142-1.756,5.231,5.231,0,0,0-.227-1.7q-.283-1.076-.481-1.954A4.921,4.921,0,0,0,12.546,133.623Z" transform="matrix(1, -0.017, 0.017, 1, 419.492, 4464.986)" fill="#5b1e16" stroke="#5b1e16" stroke-width="2.6"/>
    <path id="パス_6071" data-name="パス 6071" d="M7.93-7.93A7.551,7.551,0,0,1,5.551-6.74a2.254,2.254,0,0,1-1.246,0,2.194,2.194,0,0,1-.85-.963A9.491,9.491,0,0,1,1.9-7.618a1.93,1.93,0,0,0-1.048.2A1.717,1.717,0,0,1-.4-7.42q-1.076.17-1.359-.057l-.963.057-.481.227a3.186,3.186,0,0,1-1.048.283,3.453,3.453,0,0,0-.878.425,2.107,2.107,0,0,1-1.274.2,2.073,2.073,0,0,1-1.274-.4,1.573,1.573,0,0,1-.368-1.189,1.608,1.608,0,0,1,.538-1.3,2.264,2.264,0,0,1,1.614-.4,4.732,4.732,0,0,1,1.926.057q1.7-.227,3.313-.283t2.1-.113a15.768,15.768,0,0,1,1.614-.057q1.133-.34,2.266-.566.906-.68,1.756-1.416a15.574,15.574,0,0,1,1.473-1.133,2.62,2.62,0,0,1,.793-1.1,8.187,8.187,0,0,0,.906-.878,1.031,1.031,0,0,1,.623-.85,28.674,28.674,0,0,0,1.756-2.322q.51-.793,1.161-1.954t1.02-1.9a5.586,5.586,0,0,0,.51-1.558,8.2,8.2,0,0,0,.142-1.331,8.235,8.235,0,0,0-.368-1.1,9.187,9.187,0,0,0-.708-.821q-1.02-.453-1.529-.736a1.416,1.416,0,0,0-.878-.227.663.663,0,0,1-.651-.34,1.794,1.794,0,0,1-1.048.028l-.312-.142a.8.8,0,0,1-.68.2,3.974,3.974,0,0,0-.878-.113,12.007,12.007,0,0,0-1.558.057,8.8,8.8,0,0,1-1.869-.028,6.179,6.179,0,0,0-1.756.227,5.128,5.128,0,0,1-1.926.453,1.557,1.557,0,0,0-.651.142A.965.965,0,0,1,0-27.329a.686.686,0,0,0-.651.2,1.024,1.024,0,0,1-.708.283,1.542,1.542,0,0,1-.963.113,15.7,15.7,0,0,1-1.7.623,1.191,1.191,0,0,1-.566.312,2.51,2.51,0,0,0-.85.481A1.536,1.536,0,0,1-5.862-24.1a1.031,1.031,0,0,1-1.02.2q-.595-.17-.991-.255a1.076,1.076,0,0,1-.651-.425,2.25,2.25,0,0,1-.368-.935,2.509,2.509,0,0,1,.113-1.274,1.385,1.385,0,0,1,.51-.821q.283-.142.906-.425,1.189-.453,2.407-.793t1.7-.425q.481-.085,1.388-.255.736-.17,1.473-.312t1.416-.312a6.839,6.839,0,0,1,1.416-.17,8.631,8.631,0,0,0,1.444-.142,21.434,21.434,0,0,1,2.662-.2q1.841-.057,3.455,0a11.123,11.123,0,0,1,3.144.566,4.989,4.989,0,0,0,.878.142,3.691,3.691,0,0,1,1.1.312,4.484,4.484,0,0,1,.991.538,9.562,9.562,0,0,1,.878.736,2.619,2.619,0,0,1,.651.906q.2.481.283.736a5.66,5.66,0,0,1,.17.935,2.343,2.343,0,0,1-.142,1.218,5.534,5.534,0,0,0-.34,1.161q-.113.566-.312,1.331a2.731,2.731,0,0,1-.708,1.274,7.688,7.688,0,0,1-.538,1.161q-.255.425-.481.736a5,5,0,0,1-.51.595,5.749,5.749,0,0,0-.425,1.1q-.142.538-1.048.991.113.85-.227,1.02a1.547,1.547,0,0,0-.566.481,7.51,7.51,0,0,1-.538.651,6.229,6.229,0,0,0-.51.623,1.58,1.58,0,0,0-.255.708,1.832,1.832,0,0,1-.595.963,6.921,6.921,0,0,0-.991,1.274,9.415,9.415,0,0,1,1.359.17,4.641,4.641,0,0,0,1.3.057,11.429,11.429,0,0,1,2.549-.17,4.977,4.977,0,0,1,1.1-.227q.595-.057,1.161-.057a1.316,1.316,0,0,1,.85.425,1.243,1.243,0,0,1,.368.736,1.734,1.734,0,0,1-.17.821,1.019,1.019,0,0,1-.623.595,3.651,3.651,0,0,0-.821.4.805.805,0,0,1-.793.085,4.546,4.546,0,0,1-1.02,0q-.4-.057-1.02-.17A2.412,2.412,0,0,1,13.2-7.7a2.587,2.587,0,0,0-.765,0,1.8,1.8,0,0,1-.878-.113,1.5,1.5,0,0,0-.85-.085A3.331,3.331,0,0,1,9.572-7.93,5.967,5.967,0,0,0,7.93-7.93ZM-13.65-6.174a6.9,6.9,0,0,1-1.161-2.067q-.481-1.274-.793-2.011t-.68-1.671a6.361,6.361,0,0,1-.425-2.011q-.057-1.359-.2-2.662a18.609,18.609,0,0,1-.028-3.115,42.524,42.524,0,0,1,.34-4.39q.283-2.181.453-4.956.057-.566.085-1.161a6.247,6.247,0,0,1,.312-1.5,11.367,11.367,0,0,0,.4-1.643,2.72,2.72,0,0,1,1.02-.963,2.9,2.9,0,0,1,1.246-.057,1.3,1.3,0,0,1,.708.595,2.245,2.245,0,0,1,.368.935,1.362,1.362,0,0,1-.113.793q-.17.34-.793,1.529-.566.227-.736,1.359-.17,1.3-.425,2.747t-.425,2.86q.34.34.085.651a.685.685,0,0,0-.085.736,1.126,1.126,0,0,1,.028.821,2.508,2.508,0,0,0-.142.85,1.088,1.088,0,0,1-.17,1.3,3.9,3.9,0,0,0,.085,1.218,3.684,3.684,0,0,1-.028,1.5,1.1,1.1,0,0,1,.113,1.246,4.458,4.458,0,0,1,.4,1.586.816.816,0,0,1,.312.708,1.13,1.13,0,0,0,.227.736,3.073,3.073,0,0,1,.481.821,1.467,1.467,0,0,0,.595.765q.312.142.312,1.1.51.566.708.821t.425.566a1.748,1.748,0,0,0,.51.481.846.846,0,0,1,.34.68,1.681,1.681,0,0,1-.2.991,1.7,1.7,0,0,1-.651.708,1.008,1.008,0,0,1-.68.17,6.127,6.127,0,0,1-.708-.2A3.152,3.152,0,0,1-13.65-6.174ZM-8.978,24.66a5.074,5.074,0,0,1-.283,1.813,4,4,0,0,1,0,1.643,3.357,3.357,0,0,1,.17,1.643q.057.68.113,1.3a.7.7,0,0,1,.566.708,1.572,1.572,0,0,0,.2.85,2.589,2.589,0,0,0,.595.623q.4.312.793.651,1.076.283,1.246.623A.968.968,0,0,0-4.984,35a1.574,1.574,0,0,0,.935,0,2.292,2.292,0,0,1,1.076-.028q.85-.51,1.671-1.048a4.74,4.74,0,0,1,1.841-.708,4.579,4.579,0,0,1,1.671-.368,1.422,1.422,0,0,1,1.218.4,6.152,6.152,0,0,0,.651.708.849.849,0,0,1,.2.85,1.324,1.324,0,0,1-.793.906,7.4,7.4,0,0,1-.991.793,1.144,1.144,0,0,1-.878.113,2.285,2.285,0,0,1-.906.4A1.175,1.175,0,0,0,0,37.4a.513.513,0,0,1-.651.17.568.568,0,0,0-.68.142,2.53,2.53,0,0,1-1.359.425A13.992,13.992,0,0,1-4.645,39.3a5.8,5.8,0,0,0-1.671,1.189,5.539,5.539,0,0,1-1.076.935l-1.133,1.3a10.229,10.229,0,0,0-.821,1.02,2.72,2.72,0,0,0-.425,1.02,2.206,2.206,0,0,0-.425,1.416,1.725,1.725,0,0,0,.821,1.359,3.852,3.852,0,0,0,1.529.68q.566.057,1.331.113a13.614,13.614,0,0,0,2.294-.113q1.076-.17,2.889-.651t2.464-.595a8.113,8.113,0,0,0,1.784-.623,2.314,2.314,0,0,1,.906-.368,1.809,1.809,0,0,0,.736-.255,1.583,1.583,0,0,1,.963-.17,2.843,2.843,0,0,1,1.048-.651,2.5,2.5,0,0,1,.991-.085,1.614,1.614,0,0,1,.935.453,1.109,1.109,0,0,1,.17,1.218,1.987,1.987,0,0,1-.51.991,2.983,2.983,0,0,1-1.218.227,1.992,1.992,0,0,1-1.473.566,7.3,7.3,0,0,1-1.416.566,7.523,7.523,0,0,0-.963.255,1.8,1.8,0,0,1-1.133.028,1.832,1.832,0,0,1-1.1.538,2.077,2.077,0,0,1-.935-.142,1.167,1.167,0,0,1-.878.425,2.017,2.017,0,0,0-.821.113q-.4.142-1.076.312a2.606,2.606,0,0,1-1.1.085,1.292,1.292,0,0,0-.765.057,1.716,1.716,0,0,1-.85.085,5.207,5.207,0,0,1-1.246-.34.641.641,0,0,1-.793.113,1.111,1.111,0,0,0-.736-.17,1.217,1.217,0,0,1-.68-.085q-.34-.142-1.359-.708a3.364,3.364,0,0,1-1.728-1.954,5.908,5.908,0,0,1-.255-2.634q.057-.34.17-.793a1.2,1.2,0,0,1,.312-.623,1.534,1.534,0,0,0,.368-.595,2.28,2.28,0,0,1,.368-.651,2.983,2.983,0,0,0,.368-.538,1.975,1.975,0,0,1,.906-.651,3.234,3.234,0,0,1,.991-1.133A1.4,1.4,0,0,0-8.3,39.3a.9.9,0,0,1,.453-.425,2.537,2.537,0,0,0,.736-.566,9.549,9.549,0,0,1,1.076-.85,13.279,13.279,0,0,0-1.161-.821q-.425-.255-1.1-.651a5.347,5.347,0,0,1-1.529-1.7,10.246,10.246,0,0,1-1.218-2.464,8.1,8.1,0,0,1-.368-2.464A14.1,14.1,0,0,0-11.5,27.8a4.59,4.59,0,0,1,.028-1.359,4.724,4.724,0,0,0,.085-1.133,4.42,4.42,0,0,1,.142-1.246,5.934,5.934,0,0,0,.17-1.388q.34-2.039.538-2.945a9.357,9.357,0,0,1,.312-1.189q.113-.283.34-1.133.34-1.076.935-1.189a11.576,11.576,0,0,0,1.161-.283q.453.17.878.312a2.672,2.672,0,0,1,.935.623.972.972,0,0,1,.368.991,4.308,4.308,0,0,1-.4.963A1.036,1.036,0,0,1-7,19.279a1.343,1.343,0,0,0-.878.708q-.142.425-.368,1.161a2.317,2.317,0,0,0-.34,1.3,1.583,1.583,0,0,1-.17.963A2.611,2.611,0,0,0-8.978,24.66Zm26.734,3.115a9.366,9.366,0,0,1,.255,1.444,2.379,2.379,0,0,1-.255,1.1,1.175,1.175,0,0,1,.34.736,1.689,1.689,0,0,1-1.7,1.5q-.963.085-1.189-.51a4.1,4.1,0,0,1-.255-1.3,15.946,15.946,0,0,1,.028-1.614,28.38,28.38,0,0,1,.227-3.087q.227-1.954.368-2.974t.255-2.1a3.533,3.533,0,0,1,.481-1.444q.312-.425,1.218-.312a1.707,1.707,0,0,1,1.274.651,1.767,1.767,0,0,1,.368.963q0,.425-.736,1.048a2.968,2.968,0,0,0-.028,1.076,1.169,1.169,0,0,1-.2.906,4.407,4.407,0,0,1-.142,1.473,4.756,4.756,0,0,0-.255.623,1.443,1.443,0,0,0,.085.906A.81.81,0,0,1,17.757,27.775ZM6.542,22.734q-.113-1.246.821-1.529a2.386,2.386,0,0,1,1.331-.142,1.152,1.152,0,0,1,.623.538,1.586,1.586,0,0,1,.227.793v1.246a1.415,1.415,0,0,1,.142.68.775.775,0,0,0,.2.566,1.034,1.034,0,0,1,.2.736,2.388,2.388,0,0,0,.368,1.189q.34.623.255.85t.227.623a1.427,1.427,0,0,1,.312.906,5.933,5.933,0,0,1,.312,1.218.883.883,0,0,1-.255.68,3.794,3.794,0,0,1-.651.566.893.893,0,0,1-.85.085,1.523,1.523,0,0,1-.793-.68,6.5,6.5,0,0,1-.595-1.416Q7.618,27.1,7.278,25.85t-.481-1.9Q6.655,23.3,6.542,22.734ZM4.956,78.094a8.089,8.089,0,0,1,1.3-.17,6.369,6.369,0,0,0,1.416-.283,17.241,17.241,0,0,1,.17-1.926q0-.85-.113-2.1-.057-1.076,0-2.266a3.18,3.18,0,0,1-.142-1.841,1.941,1.941,0,0,1,.878-1.388,2.685,2.685,0,0,1,.963-.227,1.8,1.8,0,0,1,1.189.906,2.085,2.085,0,0,1,.283,1.7q-.113,1.246-.113,1.7a7.12,7.12,0,0,1-.113,1.133,4.951,4.951,0,0,1-.113,1.246,5.578,5.578,0,0,0-.17.963q-.057.566-.057,1.869,1.246-.057,2.011-.142a11.3,11.3,0,0,0,1.359-.227,27.471,27.471,0,0,1,3.144-.312,2.836,2.836,0,0,1,1.671.368,1.787,1.787,0,0,1,.623,1.161,1.51,1.51,0,0,1-.085,1.1,1.465,1.465,0,0,1-.793.481,3.447,3.447,0,0,1-1.7-.113,2.462,2.462,0,0,0-1.388.057,1.77,1.77,0,0,1-1.1.085,1.028,1.028,0,0,0-.708-.028,1.647,1.647,0,0,1-.935-.057q-1.076.057-2.549.17A8.08,8.08,0,0,1,9.8,81.294q-.085.481-.2,1.388a2.249,2.249,0,0,0-.2,1.133q.085.34-.368.85A1.011,1.011,0,0,1,8.751,85.8q-.113,1.133-.227,1.7a1.782,1.782,0,0,1-.4,1.359.726.726,0,0,1-.085.68,2.813,2.813,0,0,0-.368,1.133,14.168,14.168,0,0,1-.85,2.945q-.4.623-.227.906t-.453.85a1.422,1.422,0,0,1-.255.991,1.659,1.659,0,0,0-.368.878,2.173,2.173,0,0,0-.566,1.586q-.566,1.189-1.133,2.322a2.127,2.127,0,0,1-.623,1.133,2.5,2.5,0,0,1-.793,1.813,1.362,1.362,0,0,1-.312.963,8.281,8.281,0,0,0-.595.935,12.074,12.074,0,0,0-.566,1.331q-.566,1.02-1.416,2.492a3.044,3.044,0,0,1-.821,1.274,1.418,1.418,0,0,1-.991.453,3.444,3.444,0,0,1-.878-.17q-.425-.142-.623-.991a1.422,1.422,0,0,1,.227-1.331,5.382,5.382,0,0,0,.765-1.161,7.491,7.491,0,0,0,.793-1.218,2.325,2.325,0,0,1,.736-.906,1.971,1.971,0,0,0,.68-.935,1.967,1.967,0,0,1,.538-.85l.255-.17a2.231,2.231,0,0,1,.963-1.473,10.381,10.381,0,0,1,.566-1.359,2.189,2.189,0,0,0,.425-.935,4.109,4.109,0,0,1,.708-1.388,63.877,63.877,0,0,0,3.257-9.4,48.766,48.766,0,0,0,1.5-9.062,10.92,10.92,0,0,0-1.189.057q-.51.057-1.756.227a7.221,7.221,0,0,1-1.586.255,1.125,1.125,0,0,0-.736.255,2.679,2.679,0,0,1-.963.312q-.4.028-1.586.17a5.8,5.8,0,0,0-1.869.481,18.043,18.043,0,0,0-1.954.68q-.481.227-1.1-.51a1.428,1.428,0,0,1-.312-1.529,2.063,2.063,0,0,1,.793-1.076,13.29,13.29,0,0,1,3.313-.623q1.473-.17,2.86-.4t1.841-.34A6.223,6.223,0,0,1,4.956,78.094ZM-18.38,91.348a3.618,3.618,0,0,1-.028-1.189,6.4,6.4,0,0,1,.255-1.076,5.491,5.491,0,0,1-.085-1.189,10.178,10.178,0,0,1,.425-1.869,3.983,3.983,0,0,1,.227-.906,7.169,7.169,0,0,0,.283-.963q.34-1.416.51-2.549a1.062,1.062,0,0,0,.34-.963,5.626,5.626,0,0,1,.623-1.133.937.937,0,0,1,.028-.821,3.768,3.768,0,0,0,.368-.821,1,1,0,0,0,.368-.736,1.788,1.788,0,0,1,.425-.963,3.524,3.524,0,0,1,.453-1.246,9.636,9.636,0,0,1,.453-1.246,1.469,1.469,0,0,1,.821-.595,5.206,5.206,0,0,1,1.02-.312,2.407,2.407,0,0,1,.736,0,1,1,0,0,1,.651.453,1.84,1.84,0,0,1,.34.708,1.059,1.059,0,0,1-.17.708,1.567,1.567,0,0,1-.566.595,2.077,2.077,0,0,0-.68.935,5.676,5.676,0,0,0-.906,1.246,10.061,10.061,0,0,1-.623,1.5,3.771,3.771,0,0,0-.34.68,2.076,2.076,0,0,1-.453.708,19.353,19.353,0,0,0-.736,2.039q-.283.963-.68,2.1-.283,1.076-.538,2.379t-.4,2.379a6.557,6.557,0,0,0-.028,1.813q.113.736.255,1.359a1.17,1.17,0,0,0,.595.85,1.568,1.568,0,0,0,1.048.312q.595-.028,1.529-.17a8.735,8.735,0,0,0,1.643-.4,7.75,7.75,0,0,1,1.784-.368q1.02-.17,1.3.057a5.146,5.146,0,0,0,.623.425.586.586,0,0,1,.227.708,3.056,3.056,0,0,1-.4.963,1.715,1.715,0,0,1-.85.68q-.85.17-1.161.255a1.851,1.851,0,0,1-.793,0,3.464,3.464,0,0,0-1.274.085,2.165,2.165,0,0,1-1.529.113,2.035,2.035,0,0,1-1.161.312,5.412,5.412,0,0,1-1.048-.142,4.209,4.209,0,0,1-1.1-.51,3.438,3.438,0,0,1-1.048-.963,2.7,2.7,0,0,1-.481-1.048,8.731,8.731,0,0,0-.2-.878A4.292,4.292,0,0,1-18.38,91.348Z" transform="matrix(1, -0.017, 0.017, 1, 357.609, 4548.681)" fill="#5b1e16" stroke="#5b1e16" stroke-width="2.6"/>
  </g>
</svg>
