<svg xmlns="http://www.w3.org/2000/svg" width="383.36" height="120.224" viewBox="0 0 383.36 120.224">
  <g id="deliciousness_title" transform="translate(-458.3 -4510.456)">
    <g id="グループ_3281" data-name="グループ 3281">
      <g id="グループ_2913" data-name="グループ 2913" transform="translate(96.621 3.694)">
        <path id="パス_6067" data-name="パス 6067" d="M-134.169-10.653c0-2.332.159-5.777.159-6.148,0-1.113-.318-1.325-1.537-1.325h-3.233c-1.219,0-1.537.212-1.537,1.325,0,.371.159,3.816.159,6.148v2.438c0,1.325-.265,1.643-1.537,1.961a13.635,13.635,0,0,1-3.869.53c-7.473,0-13.144-4.081-13.144-12.614,0-8.056,5.406-13.78,14.1-13.78a15.308,15.308,0,0,1,6.519,1.484,2.285,2.285,0,0,0,1.06.371c.371,0,.53-.318.848-1.113l1.219-3.18a3.15,3.15,0,0,0,.265-1.007c0-.477-.371-.742-1.166-1.113a22.684,22.684,0,0,0-8.533-1.59c-12.243,0-20.723,7.632-20.723,19.928,0,10.494,6.254,18.232,19.186,18.232A26.772,26.772,0,0,0-135.6-2.173c1.166-.477,1.431-.848,1.431-2.173Zm15.37-6.36a2.5,2.5,0,0,1,1.166-2.385,9.139,9.139,0,0,1,5.512-2.067c.53,0,1.007.106,1.272.106.583,0,.9-.265.9-1.06v-4.028c0-1.06-.212-1.431-1.007-1.431a13.12,13.12,0,0,0-2.915.53,13.16,13.16,0,0,0-4.24,2.438,1.65,1.65,0,0,1-.795.477c-.318,0-.477-.424-.477-1.59,0-1.378-.318-1.59-1.7-1.59H-123.3c-1.219,0-1.537.212-1.537,1.325,0,.371.106,4.77.106,7.155V-8.9c0,2.385-.106,6.784-.106,7.155,0,1.113.318,1.325,1.537,1.325h3.074c1.219,0,1.537-.212,1.537-1.325,0-.371-.106-4.77-.106-7.155ZM-82.812-5.936c-.371-.742-.583-1.113-1.007-1.113a2.823,2.823,0,0,0-1.06.424,12.756,12.756,0,0,1-5.936,1.431c-3.445,0-5.565-1.113-6.784-3.021a6.88,6.88,0,0,1-1.113-2.968c0-.636.371-.8,1.325-.8h15c1.378,0,1.8-.424,1.8-3.127,0-8.162-3.922-12.826-10.706-12.826-8.215,0-13.409,6.254-13.409,14.469,0,7.155,3.922,13.356,13.356,13.356a19.8,19.8,0,0,0,8.692-1.961c.742-.371,1.06-.636,1.06-1.113a2.383,2.383,0,0,0-.318-1.007Zm-4.876-10.971H-97.07c-.848,0-1.219-.159-1.219-.583a5.049,5.049,0,0,1,.954-2.173,6.743,6.743,0,0,1,5.83-2.968,4.639,4.639,0,0,1,4.452,2.544,6.034,6.034,0,0,1,.742,2.491C-86.364-17.066-86.735-16.907-87.688-16.907Zm36.2,10.971c-.371-.742-.583-1.113-1.007-1.113a2.823,2.823,0,0,0-1.06.424,12.756,12.756,0,0,1-5.936,1.431c-3.445,0-5.565-1.113-6.784-3.021a6.88,6.88,0,0,1-1.113-2.968c0-.636.371-.8,1.325-.8h15c1.378,0,1.8-.424,1.8-3.127,0-8.162-3.922-12.826-10.706-12.826-8.215,0-13.409,6.254-13.409,14.469,0,7.155,3.922,13.356,13.356,13.356A19.8,19.8,0,0,0-51.33-2.067c.742-.371,1.06-.636,1.06-1.113a2.383,2.383,0,0,0-.318-1.007Zm-4.876-10.971h-9.381c-.848,0-1.219-.159-1.219-.583a5.049,5.049,0,0,1,.954-2.173,6.743,6.743,0,0,1,5.83-2.968,4.639,4.639,0,0,1,4.452,2.544,6.034,6.034,0,0,1,.742,2.491C-55.04-17.066-55.411-16.907-56.365-16.907Zm21.836-1.166a2.546,2.546,0,0,1,1.166-2.385,8.27,8.27,0,0,1,4.982-1.749c3.5,0,5.194,2.173,5.194,5.406v7.9c0,2.385-.106,6.784-.106,7.155,0,1.113.318,1.325,1.537,1.325h3.074c1.219,0,1.537-.212,1.537-1.325,0-.371-.106-4.77-.106-7.155v-9.54c0-5.883-3.657-9.487-9.116-9.487a12.283,12.283,0,0,0-7.367,2.438,1.622,1.622,0,0,1-.8.371c-.265,0-.371-.318-.424-1.007-.053-1.272-.265-1.484-1.537-1.484h-2.544c-1.219,0-1.537.212-1.537,1.325,0,.371.106,4.77.106,7.155V-8.9c0,2.385-.106,6.784-.106,7.155,0,1.113.318,1.325,1.537,1.325h3.074c1.219,0,1.537-.212,1.537-1.325,0-.371-.106-4.77-.106-7.155Zm71.285,7.42c0-2.332.159-5.777.159-6.148,0-1.113-.318-1.325-1.537-1.325H32.145c-1.219,0-1.537.212-1.537,1.325,0,.371.159,3.816.159,6.148v2.438c0,1.325-.265,1.643-1.537,1.961a13.635,13.635,0,0,1-3.869.53c-7.473,0-13.144-4.081-13.144-12.614,0-8.056,5.406-13.78,14.1-13.78a15.307,15.307,0,0,1,6.519,1.484,2.285,2.285,0,0,0,1.06.371c.371,0,.53-.318.848-1.113l1.219-3.18a3.15,3.15,0,0,0,.265-1.007c0-.477-.371-.742-1.166-1.113a22.684,22.684,0,0,0-8.533-1.59C14.284-38.266,5.8-30.634,5.8-18.338,5.8-7.844,12.058-.106,24.99-.106A26.772,26.772,0,0,0,35.325-2.173c1.166-.477,1.431-.848,1.431-2.173ZM52.5-18.073a2.546,2.546,0,0,1,1.166-2.385,8.27,8.27,0,0,1,4.982-1.749c3.5,0,5.194,2.173,5.194,5.406v7.9c0,2.385-.106,6.784-.106,7.155,0,1.113.318,1.325,1.537,1.325h3.074c1.219,0,1.537-.212,1.537-1.325,0-.371-.106-4.77-.106-7.155v-9.54c0-5.883-3.657-9.487-9.116-9.487a11.934,11.934,0,0,0-6.89,2.12,2.012,2.012,0,0,1-.848.424c-.318,0-.424-.371-.424-1.113v-4.558c0-2.385.106-6.784.106-7.155,0-1.113-.318-1.325-1.537-1.325H47.992c-1.219,0-1.537.212-1.537,1.325,0,.371.106,4.77.106,7.155V-8.9c0,2.385-.106,6.784-.106,7.155,0,1.113.318,1.325,1.537,1.325h3.074c1.219,0,1.537-.212,1.537-1.325,0-.371-.106-4.77-.106-7.155ZM98.872-.424c1.166,0,1.484-.212,1.484-1.113s-.159-4.717-.106-7.738l.159-8.056c0-7.473-3.339-10.6-10.123-10.6a23.538,23.538,0,0,0-9.911,2.385c-.742.371-1.06.689-1.06,1.166a2.179,2.179,0,0,0,.265,1.007l1.007,2.332c.318.742.53,1.06.9,1.06a2.163,2.163,0,0,0,1.06-.477,14.11,14.11,0,0,1,7-2.173c2.014,0,3.339.583,4.081,1.7a4.664,4.664,0,0,1,.848,2.332c-.053.583-.424.8-1.325.848-7.1.689-15.105,3.657-15.105,10.441,0,4.823,3.392,7.208,7.95,7.208a14.63,14.63,0,0,0,7.791-2.385,1.519,1.519,0,0,1,.742-.371c.318,0,.371.318.424.9C95-.53,95.268-.424,96.487-.424ZM94.526-11.448v2.332A2.172,2.172,0,0,1,93.2-6.784a11.088,11.088,0,0,1-5.618,1.749c-2.226,0-3.657-.954-3.657-2.7,0-2.65,4.187-4.4,9.063-5.088a2.8,2.8,0,0,1,.636-.053C94.367-12.879,94.526-12.508,94.526-11.448Zm21.836-6.625a2.546,2.546,0,0,1,1.166-2.385,8.27,8.27,0,0,1,4.982-1.749c3.5,0,5.194,2.173,5.194,5.406v7.9c0,2.385-.106,6.784-.106,7.155,0,1.113.318,1.325,1.537,1.325h3.074c1.219,0,1.537-.212,1.537-1.325,0-.371-.106-4.77-.106-7.155v-9.54c0-5.883-3.657-9.487-9.116-9.487a12.283,12.283,0,0,0-7.367,2.438,1.622,1.622,0,0,1-.795.371c-.265,0-.371-.318-.424-1.007-.053-1.272-.265-1.484-1.537-1.484h-2.544c-1.219,0-1.537.212-1.537,1.325,0,.371.106,4.77.106,7.155V-8.9c0,2.385-.106,6.784-.106,7.155,0,1.113.318,1.325,1.537,1.325h3.074c1.219,0,1.537-.212,1.537-1.325,0-.371-.106-4.77-.106-7.155ZM162.736-.424c1.166,0,1.484-.212,1.484-1.113s-.159-4.717-.106-7.738l.159-8.056c0-7.473-3.339-10.6-10.123-10.6a23.538,23.538,0,0,0-9.911,2.385c-.742.371-1.06.689-1.06,1.166a2.18,2.18,0,0,0,.265,1.007l1.007,2.332c.318.742.53,1.06.9,1.06a2.163,2.163,0,0,0,1.06-.477,14.11,14.11,0,0,1,7-2.173c2.014,0,3.339.583,4.081,1.7a4.664,4.664,0,0,1,.848,2.332c-.053.583-.424.8-1.325.848-7.1.689-15.1,3.657-15.1,10.441,0,4.823,3.392,7.208,7.95,7.208a14.63,14.63,0,0,0,7.791-2.385,1.519,1.519,0,0,1,.742-.371c.318,0,.371.318.424.9.053,1.431.318,1.537,1.537,1.537ZM158.39-11.448v2.332a2.172,2.172,0,0,1-1.325,2.332,11.088,11.088,0,0,1-5.618,1.749c-2.226,0-3.657-.954-3.657-2.7,0-2.65,4.187-4.4,9.063-5.088a2.8,2.8,0,0,1,.636-.053C158.231-12.879,158.39-12.508,158.39-11.448Z" transform="translate(527 4546.5)" fill="#009f39" stroke="#009f39" stroke-linecap="round" stroke-width="0.4"/>
        <path id="パス_6068" data-name="パス 6068" d="M-3.417-30.7c.561,0,.816.408.816.918a51.866,51.866,0,0,1-1.632,9.945c-1.428,5.2-4.284,11.016-6.834,11.016-2.6,0-3.264-4.743-3.264-6.63a15.78,15.78,0,0,1,9.18-14.688A5.737,5.737,0,0,1-3.417-30.7Zm4.9-5.967a21.011,21.011,0,0,0-21.165,21.42A15.987,15.987,0,0,0-18.1-8.007c1.377,2.6,3.825,4.845,6.936,4.845,2.805,0,5.049-1.887,6.732-3.927,4.9-5.865,6.681-14.943,7.242-22.389.051-.867.051-1.989,1.224-1.989a8.907,8.907,0,0,1,1.938.459c5.3,1.836,8.16,6.732,8.16,12.189,0,7.293-5.253,11.679-11.934,13.26-.51.1-1.275.2-1.275.714,0,1.122,2.091,4.284,3.417,4.284,1.224,0,4.386-1.428,5.559-2.04a18.325,18.325,0,0,0,9.945-16.473A17.25,17.25,0,0,0,14.688-31.62,18.138,18.138,0,0,0,1.479-36.669Z" transform="translate(725 4548.5)" fill="#009f39" stroke="#009f39" stroke-linecap="round" stroke-width="0.4"/>
      </g>
      <g id="グループ_2912" data-name="グループ 2912" transform="translate(-8.632 -46)">
        <path id="パス_6065" data-name="パス 6065" d="M7.028-22.456a9.089,9.089,0,0,0,4.7-8.344c0-5.04-3.752-9.688-12.936-9.688a24.184,24.184,0,0,0-11.088,2.632c-.784.392-1.12.672-1.12,1.176a2.968,2.968,0,0,0,.336,1.12l1.232,2.576c.336.784.616,1.12,1.008,1.12a2.286,2.286,0,0,0,1.12-.5,14.7,14.7,0,0,1,7.84-2.184c4.312,0,7.056,1.9,7.056,4.928,0,3.08-2.52,5.488-9.3,5.488-1.064,0-2.576-.056-3.192-.056-1.456,0-1.68.224-1.68,1.68v2.52c0,1.4.224,1.624,1.68,1.624.56,0,2.52-.056,3.752-.056,7.224,0,10.472,1.96,10.472,5.824,0,3.528-3.3,6.944-9.912,6.944a17.055,17.055,0,0,1-8.68-2.184,2.836,2.836,0,0,0-1.064-.448c-.448,0-.672.392-.952,1.176l-.952,2.744a2.542,2.542,0,0,0-.224,1.008c0,.56.336.9,1.176,1.288A26.175,26.175,0,0,0-3.22-.056c12.208,0,16.8-6.216,16.8-12.432a8.767,8.767,0,0,0-6.44-8.848q-.84-.252-.84-.5C6.3-22.008,6.58-22.232,7.028-22.456Z" transform="translate(492 4676)" fill="#009f39" stroke="#009f39" stroke-linecap="round" stroke-width="0.4"/>
        <path id="パス_6066" data-name="パス 6066" d="M-157.437-27.183c-2.142.663-2.754.867-2.754,1.53,0,1.428,2.295,5.1,3.876,5.1a2.893,2.893,0,0,0,1.326-.408c6.222-3.213,14.127-6.987,21.216-6.987,4.284,0,7.8,2.55,7.8,7.089,0,8.721-11.169,12.546-18.309,13.107-.663.051-1.734.153-1.734,1.071a10.882,10.882,0,0,0,1.173,3.417c.408.714.765,1.224,1.632,1.224,2.295,0,7.752-1.683,9.945-2.55,6.834-2.8,13.056-8.313,13.056-16.167a13.187,13.187,0,0,0-3.468-8.976c-2.652-2.7-6.324-3.723-10.047-3.723-6.426,0-12.852,2.6-18.819,4.692C-154.683-28-156.264-27.54-157.437-27.183Zm73.95-3.519c.561,0,.816.408.816.918A51.866,51.866,0,0,1-84.3-19.839c-1.428,5.2-4.284,11.016-6.834,11.016-2.6,0-3.264-4.743-3.264-6.63a15.78,15.78,0,0,1,9.18-14.688A5.737,5.737,0,0,1-83.487-30.7Zm4.9-5.967a21.011,21.011,0,0,0-21.165,21.42,15.987,15.987,0,0,0,1.581,7.242c1.377,2.6,3.825,4.845,6.936,4.845,2.805,0,5.049-1.887,6.732-3.927,4.9-5.865,6.681-14.943,7.242-22.389.051-.867.051-1.989,1.224-1.989a8.907,8.907,0,0,1,1.938.459c5.3,1.836,8.16,6.732,8.16,12.189,0,7.293-5.253,11.679-11.934,13.26-.51.1-1.275.2-1.275.714,0,1.122,2.091,4.284,3.417,4.284,1.224,0,4.386-1.428,5.559-2.04a18.325,18.325,0,0,0,9.945-16.473A17.25,17.25,0,0,0-65.382-31.62,18.138,18.138,0,0,0-78.591-36.669Zm70.482,7.242c-1.122-.918-3.213-2.652-3.825-2.652-.816,0-3.06,2.55-3.06,3.315,0,.561.561.969.918,1.224a73.019,73.019,0,0,1,6.783,5.712,2.047,2.047,0,0,0,1.122.612c1.02,0,3.213-2.5,3.213-3.468,0-.561-2.55-2.7-3.927-3.774C-7.293-28.764-7.7-29.121-8.109-29.427Zm-23.97,20.2c0,.2.051.459.051.714,0,.1.1,2.193.1,2.244,0,.2-.051.408-.357.408a1.007,1.007,0,0,1-.612-.306,12.243,12.243,0,0,0-2.6-1.581,1.153,1.153,0,0,0-1.122,1.02c0,.408.357.714.612.969a10.32,10.32,0,0,1,3.111,3.978c.408.867.765,1.938,1.887,1.938,1.377,0,4.488-1.224,4.488-3.723,0-.51-.357-5.1-.459-6.171-.051-.714-.153-2.754-.153-3.366a1.717,1.717,0,0,1,.816-1.581,19.883,19.883,0,0,1,8.976-2.448c2.856,0,6.12,1.581,6.12,4.794,0,3.723-4.335,4.692-7.293,4.692a40.278,40.278,0,0,1-4.182-.459c-.765,0-.918.663-.918,1.326A9.89,9.89,0,0,0-22.8-3.111c.255.51,1.326.561,2.142.561h.612c3.06,0,7.65-.51,10.251-2.295a8.978,8.978,0,0,0,4.08-7.6c0-6.12-5.457-9.639-11.118-9.639A23.846,23.846,0,0,0-25.3-20.4a4.841,4.841,0,0,1-1.275.459c-.663,0-.765-1.122-.765-1.989v-.714c0-2.346.1-2.7,1.989-3.06,3.876-.663,4.743-.663,4.743-1.989,0-.867-.153-4.182-1.326-4.182a2.8,2.8,0,0,0-.867.255c-.51.153-2.856.867-3.213.867a.894.894,0,0,1-.867-.867c0-.2.051-.51.051-.714.051-.459.1-.867.153-1.173.153-1.581.2-2.193.969-2.805.2-.2.51-.51.51-.816,0-.459-.714-.612-1.02-.663-1.02-.2-4.437-.918-5.2-.918-.51,0-.663.357-.663.765,0,.2.1,1.377.1,2.4,0,1.428-.051,2.856-.1,4.284a2.066,2.066,0,0,1-.408,1.53,2.719,2.719,0,0,1-1.887.612c-1.581.2-3.366.306-4.947.357-.969.051-1.071.255-1.071,1.632,0,3.723.816,3.774,1.479,3.774.765,0,4.233-.612,5.2-.816.1,0,.2-.051.306-.051a1.113,1.113,0,0,1,1.122,1.173v.51c0,.765-.051,1.53-.051,2.295v1.734c0,1.581-.2,1.632-2.142,2.805-2.805,1.734-5.508,3.57-8.364,5.2-.612.357-1.173.51-1.173,1.071,0,1.02,2.04,4.845,3.06,4.845A1.6,1.6,0,0,0-40.188-5c.867-.765,6.936-5.661,7.548-5.661C-32.13-10.659-32.13-10.149-32.079-9.231ZM40.494-29.886a.841.841,0,0,0,.459.765C45.8-25.4,47.889-20.553,48.5-14.586c.1,1.224.051,1.938,1.683,1.938a10.782,10.782,0,0,0,2.856-.459c.867-.255,1.377-.51,1.377-1.479,0-3.06-1.581-7.905-3.009-10.608-2.448-4.692-6.732-7.9-7.854-7.9C42.534-33.1,40.494-30.855,40.494-29.886Zm-23-3.315a.635.635,0,0,0-.714.561c-.1.459-.255,6.936-.255,7.752,0,5.406.408,11.832,2.958,16.626,1.683,3.111,4.641,6.528,8.415,6.528,2.4,0,3.978-1.53,5.457-3.213.714-.816,3.009-3.468,3.009-4.437,0-.918-2.6-3.009-3.672-3.009-.663,0-1.071.765-1.377,1.275C30.7-10,29.223-7.752,27.795-7.752c-1.785,0-3.468-3.009-4.08-4.437-1.326-3.213-1.632-7.242-1.632-10.659a38,38,0,0,1,.408-5.406c.153-.867.2-1.887.918-2.448.306-.255.51-.357.51-.663,0-.51-.714-.612-1.122-.714C21.93-32.232,18.156-33.2,17.493-33.2ZM76.5-38.607c-.714,0-.765.51-.765,1.275v.561c0,2.091-.459,6.987-.612,9.333q-.459,6.043-.459,12.087c0,3.723.255,8.67,2.55,11.73A11.27,11.27,0,0,0,86.19.306a17.854,17.854,0,0,0,15.5-9.741c.714-1.326,2.091-4.539,2.091-5.967,0-1.53-3.111-4.131-4.233-4.131-.765,0-.867.867-1.02,1.683A16.215,16.215,0,0,1,95.421-10.3a12.918,12.918,0,0,1-9.588,4.947c-5.508,0-5.406-6.171-5.406-10.149,0-2.907.459-19.074,2.244-20.4.306-.255.612-.408.612-.765,0-.459-.663-.663-1.02-.714A43.265,43.265,0,0,0,76.5-38.607ZM137.292-40.8c-.714,0-4.947,1.071-4.947,2.091a1.676,1.676,0,0,0,.357.816c.663.867,3.825,5.457,3.825,6.222,0,.714-.663.867-1.224,1.02a56.775,56.775,0,0,1-10.2,1.122c-.663.051-1.224.1-1.224.918a9.9,9.9,0,0,0,.612,2.7c.459,1.428.714,1.836,1.836,1.836a70.981,70.981,0,0,0,12.087-1.938,3.114,3.114,0,0,1,.663-.153c1.122,0,1.479.969,1.938,1.785,1.02,1.836,1.836,3.213,2.958,4.947a2.012,2.012,0,0,1,.306.765.514.514,0,0,1-.561.459,1.808,1.808,0,0,1-.561-.153,16.2,16.2,0,0,0-6.375-1.479c-5.712,0-10.761,3.672-10.761,9.741,0,6.018,4.794,9.078,10.1,10.4a39.054,39.054,0,0,0,8.772,1.173c1.071,0,1.479-.2,1.734-.867a9.468,9.468,0,0,0,.51-3.111c0-.918-.153-1.632-1.173-1.632-.663,0-1.683.1-2.856.1-3.927,0-11.73-1.071-11.73-6.324,0-2.958,2.805-4.539,5.457-4.539,4.386,0,9.588,2.55,12.087,4.284.612.408,1.377,1.071,1.938,1.071,1.071,0,3.621-2.244,3.621-3.366a2.408,2.408,0,0,0-.816-1.428c-2.958-3.213-5.2-7.293-7.395-11.22a3.942,3.942,0,0,1-.867-1.938c0-.918,1.02-1.122,1.683-1.377a39.26,39.26,0,0,0,4.692-2.193c.663-.357,1.53-.765,1.53-1.326,0-.918-2.244-3.978-3.264-3.978a3.028,3.028,0,0,0-1.377.612c-.969.612-4.59,2.754-5.559,2.754a1.493,1.493,0,0,1-1.377-.969c-1.071-1.989-2.04-3.978-3.162-5.916C138.261-40.443,138.006-40.8,137.292-40.8Z" transform="translate(686 4675)" fill="#009f39" stroke="#009f39" stroke-linecap="round" stroke-width="0.4"/>
      </g>
    </g>
  </g>
</svg>
