<svg xmlns="http://www.w3.org/2000/svg" width="219.34" height="328.472" viewBox="0 0 219.34 328.472">
  <g id="earth_item_text1_mb" transform="translate(-94.5 -7991)">
    <g id="グループ_2592" data-name="グループ 2592" transform="translate(0.5 43)">
      <g id="グループ_3218" data-name="グループ 3218" transform="translate(0 -5)">
        <path id="合体_62" data-name="合体 62" d="M1033.688-134.741a1.827,1.827,0,0,1-1.223-.68,2.627,2.627,0,0,1-.465-.866,2.38,2.38,0,0,1-.039-1,1.536,1.536,0,0,1,.67-1.067c.3-.4.564-.744.8-1.02a3.25,3.25,0,0,1,.8-.691,2.248,2.248,0,0,1,.667-.758c.37-.373.771-.814,1.193-1.314a11.075,11.075,0,0,1,.982-1.332,19.955,19.955,0,0,0,1.2-1.6c.575-.82,1.484-2.035,2.7-3.61,1.2-1.554,2.354-3.144,3.428-4.726.256-.426.536-.887.833-1.367s.584-.939.843-1.341.471-.735.642-1.006a7.589,7.589,0,0,0,.438-.8l.408-.859c.08-.167.243-.566.571-1.512.022-.473.025-.729.022-.868a5.247,5.247,0,0,1-.72-.4,5.686,5.686,0,0,1-1.531-.156,1.566,1.566,0,0,0-.622-.061,5.474,5.474,0,0,0-.792.135,6.371,6.371,0,0,1-1.062.157,2.05,2.05,0,0,1-1.082.4c-.041,0-.1.058-.124.091l0,.005a3.288,3.288,0,0,1-.968.738,1.5,1.5,0,0,1-.7.178,1.514,1.514,0,0,1-.9-.311c-.333-.242-.557-.415-.687-.528a1.387,1.387,0,0,1-.417-.947,1.5,1.5,0,0,1,.284-1.006c-.64.592-1.28,1.2-1.909,1.822-.866.852-1.491,1.477-1.858,1.858-.344.357-.7.712-1.072,1.058a1.513,1.513,0,0,1-.758.868,3,3,0,0,1-.546.773,3.767,3.767,0,0,1-.837.868,3.416,3.416,0,0,1-.333.609,1.128,1.128,0,0,0-.033.354,2.216,2.216,0,0,1,.522,1.19,1.613,1.613,0,0,1-.778,1.458,2.105,2.105,0,0,1-1.237.491,1.366,1.366,0,0,1-.2-.015,1.77,1.77,0,0,1-1-.491,4.123,4.123,0,0,1-.49-.586,2.128,2.128,0,0,1-.419-1.9,7.464,7.464,0,0,1,.539-1.472l.013-.026.015-.024a8.974,8.974,0,0,1,.968-1.291,3.876,3.876,0,0,0,.558-.715,4.7,4.7,0,0,1,.762-.97c.33-.346.861-.883,1.577-1.6l.041-.037a1.9,1.9,0,0,0,.357-.409,4.654,4.654,0,0,1,.567-.69,6.763,6.763,0,0,1,1.291-1.371,7.294,7.294,0,0,0,1.283-1.4l.08-.117.123-.068c.247-.138.5-.291.766-.456a.8.8,0,0,0,.331-.455l.076-.227.212-.113a2.94,2.94,0,0,0,.924-.782,1.773,1.773,0,0,1,.725-.621.565.565,0,0,0,.191-.171,5.062,5.062,0,0,1,.832-.74l.016-.012a6.6,6.6,0,0,0,.607-.468,2.346,2.346,0,0,1,1.116-.487l.062-.014h.063a2.5,2.5,0,0,1,1.462.41l.016.012a2.221,2.221,0,0,1,.828.966,1.494,1.494,0,0,1-.109,1.167,1.567,1.567,0,0,1-.869.842,6.886,6.886,0,0,1-.752.235,3.5,3.5,0,0,0-.825.4,13.292,13.292,0,0,0-1.9,1.442,3.427,3.427,0,0,1,.578-.259,1.9,1.9,0,0,1,1.3-.373c.511-.155.929-.285,1.242-.39a3.8,3.8,0,0,1,1.2-.2c.333,0,.8.007,1.39.022s.994.022,1.232.022a6.3,6.3,0,0,1,1.269.186l.047.01.045.018a2.016,2.016,0,0,0,.627.152,2.276,2.276,0,0,1,.958.263,3.036,3.036,0,0,1,.863.742,4.67,4.67,0,0,1,.664,1.012,2.926,2.926,0,0,1,.232,1.419,2.352,2.352,0,0,1-.151,1.319,3.456,3.456,0,0,0-.245.858,1.116,1.116,0,0,1-.523.873.211.211,0,0,0-.016.039,6.42,6.42,0,0,1-.284.689,3.026,3.026,0,0,1-.665.872,2.223,2.223,0,0,1-.717,1.17,1.541,1.541,0,0,1-.541,1.156l-.023.024-.026.021a2.267,2.267,0,0,0-.361.329,1.649,1.649,0,0,1-.455.529.248.248,0,0,0-.037.121l-.031.253-.2.153a.978.978,0,0,0-.3.3,3.989,3.989,0,0,1-.4.634c-.142.184-.719.942-1.717,2.254-1.224,1.608-1.645,2.232-1.784,2.471a4.55,4.55,0,0,1-.739.967,1.243,1.243,0,0,1-.624.824,2.71,2.71,0,0,0-.4.485,4.336,4.336,0,0,0-.366.612,1.4,1.4,0,0,1-.588.642,2.126,2.126,0,0,0-.2.484,1.99,1.99,0,0,1-.81,1.055,1.446,1.446,0,0,0-.471.6,2.628,2.628,0,0,1-.559.97,3.546,3.546,0,0,0-.387.51,1.547,1.547,0,0,1-.407.886,3.909,3.909,0,0,1-.39.37,1.042,1.042,0,0,1-.616.92,1.533,1.533,0,0,0-.122.258l-.046.119-.09.09a2.963,2.963,0,0,0-.355.446,2.1,2.1,0,0,0-.258.682l-.025.107-.06.091c-.11.165-.243.375-.4.625a1.253,1.253,0,0,1-1.114.6A1.829,1.829,0,0,1,1033.688-134.741Zm-60.343-4.8a7.121,7.121,0,0,1-.959-.8,1.264,1.264,0,0,0-.424-.287l-.062-.028-.054-.04a9.976,9.976,0,0,1-1.643-1.551c-.549-.636-1.149-1.382-1.784-2.219-.6-.789-1.179-1.627-1.727-2.494-.365-.138-.644-.245-.832-.32a1.747,1.747,0,0,1-.814-.676,2.284,2.284,0,0,1-.206-1.515c-.263-.449-.482-.806-.653-1.063a5.989,5.989,0,0,1-.573-1.1,3.53,3.53,0,0,1-.257-1.273,2.035,2.035,0,0,1,1.131-2.008l.065-.042.073-.024a2.094,2.094,0,0,1,1.108-.061,2.5,2.5,0,0,1,.876.346,1.374,1.374,0,0,1,.581.959,1.731,1.731,0,0,1-.252,1.139,4.309,4.309,0,0,0,.161.844,2.4,2.4,0,0,0,.22.479c.051.08.157.234.38.529a1.772,1.772,0,0,0,.423-.057c.263-.069.486-.131.663-.186s.41-.123.734-.216a1.325,1.325,0,0,1,.919-.455,1.857,1.857,0,0,0,.537-.229l.031-.016.031-.013c.846-.338,1.538-.631,2.056-.869a3.778,3.778,0,0,0,.938-.539,6.089,6.089,0,0,1,.762-.6,2.547,2.547,0,0,1,.733-.346,2.5,2.5,0,0,1,.545-.5c.135-.086.349-.22.638-.4a1.293,1.293,0,0,1,.869-.706,1.231,1.231,0,0,0,.265-.384,1.248,1.248,0,0,1,.813-.771c.2-.29.4-.562.6-.81a7.127,7.127,0,0,1,.905-.92,3.878,3.878,0,0,0,.384-.787.594.594,0,0,0,.029-.16,1.274,1.274,0,0,0-.247-.283,1.421,1.421,0,0,0-.552-.257,1.41,1.41,0,0,1-.986-.2.9.9,0,0,0-.4-.118,2.473,2.473,0,0,1-.64-.143,3.4,3.4,0,0,1-.983.056,4.5,4.5,0,0,1-.792-.173.353.353,0,0,0-.229-.013,3.54,3.54,0,0,1-.96.188l-.105.009-.1-.028a.961.961,0,0,0-.242-.039.246.246,0,0,0-.105.018,1.466,1.466,0,0,1-1.081.059c-.392.073-.676.122-.864.148a4.085,4.085,0,0,1-.536.027c-.171,0-.379,0-.618-.014a1.753,1.753,0,0,1-1.049.243.163.163,0,0,0-.084.036,1.141,1.141,0,0,1-.635.207.962.962,0,0,1-.3-.048,1.22,1.22,0,0,1-.723.208,2.2,2.2,0,0,1-.34-.029,2.363,2.363,0,0,1-.784.184.932.932,0,0,1-.153-.013,1.322,1.322,0,0,1-.782.221c-.063,0-.129,0-.2-.009a2.14,2.14,0,0,1-1.342.336l-.041-.006a.9.9,0,0,1-.575.208.894.894,0,0,1-.212-.025l-.019.013a1.63,1.63,0,0,1-.778.266,5.079,5.079,0,0,1-1.688.514,3.012,3.012,0,0,0-1.3.634l-.051.044-.059.032c-.344.183-.681.378-1.007.58-.187.7-.313.908-.482,1.048a3.888,3.888,0,0,1-.562.363,1.887,1.887,0,0,1-1.31.153,1.579,1.579,0,0,1-1.225-1.1l-.031-.085,0-.09a3.332,3.332,0,0,1,.624-2.112,3.752,3.752,0,0,1,1.538-1.321,11.125,11.125,0,0,1,1.613-.562,51,51,0,0,1,4.916-1.364c2.03-.475,3.584-.782,4.616-.913,1.011-.129,2.116-.273,3.283-.429a46.007,46.007,0,0,1,5.537-.242,12.187,12.187,0,0,1,2.079.181l.032.006a8.467,8.467,0,0,1,1.809.585,8.285,8.285,0,0,1,.974.558,2.582,2.582,0,0,1,.779.9,4.983,4.983,0,0,1,.5,1.01,2.625,2.625,0,0,1,.067,1.335c-.076.425-.143.74-.207.961a2.082,2.082,0,0,1-.391.752c-.136.166-.372.431-.719.807-.5.616-.839,1.012-1.039,1.214s-.392.383-.6.574a20.982,20.982,0,0,1-1.733,1.315c-.92.661-2.272,1.576-4.018,2.722l-.036.022a40.587,40.587,0,0,1-5.487,2.6c.176.319.224.4.237.415.039.057.145.223.62.991a5.18,5.18,0,0,1,.608.776,3.593,3.593,0,0,0,.6.693c.4.346.813.711,1.216,1.085l.016.015a5.217,5.217,0,0,0,.462.4,6.758,6.758,0,0,0,.592.415,3.157,3.157,0,0,0,.759.309,2.587,2.587,0,0,1,1.453.634,1.944,1.944,0,0,1,.576,1.057,1.559,1.559,0,0,1-.243,1.14,2.723,2.723,0,0,1-.554.63,1.9,1.9,0,0,1-1.147.324l-.092,0A2.052,2.052,0,0,1,973.345-139.54Zm-86.738-1.822a1.767,1.767,0,0,1-1.17-.873,2.5,2.5,0,0,1-.434-1.116,1.381,1.381,0,0,1,.454-1.087,2.144,2.144,0,0,1,1.038-.567,6.76,6.76,0,0,1,1.664-.083,5.1,5.1,0,0,1,1.938.04c.432-.025.8-.039,1.092-.039a7.477,7.477,0,0,1,.76.035,2.454,2.454,0,0,1,1.225,0l.608-.054a2.507,2.507,0,0,1,.734.055.718.718,0,0,0,.342-.015,1.9,1.9,0,0,1,.832-.031c.29-.05.578-.089.857-.115.109-.011.23-.021.365-.031a1.76,1.76,0,0,1,0-1.022,10.536,10.536,0,0,1,.638-1.422,3.314,3.314,0,0,1,.589-1.416,2.842,2.842,0,0,0,.118-.539,1.536,1.536,0,0,1,.2-.738c.084-.153.222-.388.425-.718a2.541,2.541,0,0,1,.305-.95.787.787,0,0,0,.1-.316,3.244,3.244,0,0,1,.245-.823,2.461,2.461,0,0,1,.082-.9c.053-.159.148-.471.282-.925a2.491,2.491,0,0,0,.042-.575,1.181,1.181,0,0,1,.126-.809,2.365,2.365,0,0,0,.112-.527,1.491,1.491,0,0,1,.425-1.5,2.791,2.791,0,0,1,.885-.568,1.124,1.124,0,0,1,.381-.065,1.689,1.689,0,0,1,.889.292,1.936,1.936,0,0,1,.859,1.109,3.753,3.753,0,0,1,.086,1.508l-.012.107-.048.1c-.226.451-.39.786-.487,1a2.7,2.7,0,0,0-.189.665,4.331,4.331,0,0,1-.235.881c-.171.681-.3,1.176-.405,1.511s-.281.929-.536,1.781c-.265.881-.467,1.489-.619,1.855a5.724,5.724,0,0,0-.27.883,11.74,11.74,0,0,1-.3,1.139q-.055.329-.093.644c.391-.034.773-.051,1.14-.051.217,0,.451-.006.7-.021a2.606,2.606,0,0,0,.556-.085,6.126,6.126,0,0,1,.931-.169c.368-.044.862-.082,1.47-.111,1.64-.141,3.152-.306,4.493-.49a22.181,22.181,0,0,1,2.408-.247c.078,0,.145,0,.2.008.028,0,.059,0,.093,0a3.463,3.463,0,0,0,.89-.158l.015,0a3.661,3.661,0,0,1,.886-.125,1.89,1.89,0,0,1,.494.061,2.022,2.022,0,0,1,1.055-.2.761.761,0,0,0,.1.005,2.77,2.77,0,0,0,.391-.035,1.982,1.982,0,0,1,1.1-.231,1.886,1.886,0,0,0,.512-.022,3.248,3.248,0,0,1,1.136-.386,2.556,2.556,0,0,1,1.094.066,2.26,2.26,0,0,1,1.043.823,1.8,1.8,0,0,1,.466,1.391c-.127.8-1.1,1.037-1.421,1.113l-.045.008a3.194,3.194,0,0,1-1.365.024s-.013,0-.046,0a1.9,1.9,0,0,0-.494.091l-.047.014-.048.005a10.5,10.5,0,0,1-1.145.09,4.285,4.285,0,0,0-.658.058c-.289.045-.661.084-1.107.113H915.3c-.67.028-1.378.085-2.105.168l-.054.006-.054,0q-.073-.005-.184-.005c-.5,0-1.474.074-2.9.219-.305.031-.615.046-.92.046H908.3a6.024,6.024,0,0,1-1.242.17,2.543,2.543,0,0,1-1.348.137c-.241.024-.445.037-.619.037a1.055,1.055,0,0,0-.3.039,1.989,1.989,0,0,1-.754.052c-.322.052-.642.1-.951.14s-.567.077-.731.1a1.115,1.115,0,0,1-.764-.126l-.027.01a2.358,2.358,0,0,1-.958.131,5.974,5.974,0,0,1-.869.2,3.725,3.725,0,0,1-.745.025,2.678,2.678,0,0,1-.621-.115.62.62,0,0,0-.094.061l-.178.133-.221-.015c-.095-.006-.183-.009-.263-.009a1.259,1.259,0,0,0-.442.054,1.811,1.811,0,0,1-.931.122,3.066,3.066,0,0,0-.587,0,3.352,3.352,0,0,1-1.262.225h-.069l-.068-.016a2.558,2.558,0,0,0-1.182,0,4.515,4.515,0,0,1-.839.123l-.75.042c-.249.015-.578.022-1,.022-.187.028-.409.061-.658.1s-.754.142-1.488.305a4.173,4.173,0,0,1-1.432.341A1.529,1.529,0,0,1,886.606-141.362Zm40.432-1.841c-.072-.343-.129-.614-.172-.814a1.427,1.427,0,0,1,.29-1.138,1.889,1.889,0,0,1,1.153-.728,3.135,3.135,0,0,1,1.043-.127c.269.014.528.021.77.021.346-.019.637-.028.867-.028.124,0,.229,0,.324.008a1.948,1.948,0,0,0,.5-.031,8.1,8.1,0,0,1,1.106-.119,5.683,5.683,0,0,1,.615-.037,3.171,3.171,0,0,1,.59.049,2.433,2.433,0,0,1,.926-.149,1.971,1.971,0,0,1,.651-.057c.173.013.432.042.788.088a3.051,3.051,0,0,1,1.535-.163c.183-.035.354-.076.513-.122a8.492,8.492,0,0,1,.979-1.1,2.457,2.457,0,0,1,.406-.854l.007-.008a3.916,3.916,0,0,1,.687-.683l.205-.685a2.555,2.555,0,0,1,.551-.853,2.057,2.057,0,0,0,.37-.588,1.381,1.381,0,0,1,.365-.814,6.114,6.114,0,0,0,.407-.52,2.073,2.073,0,0,0,.081-.473,1.32,1.32,0,0,1,.222-.721,2.223,2.223,0,0,1,.3-.987,5.154,5.154,0,0,0,.254-1.235,3.638,3.638,0,0,0-.073-.736c0-.018-.049-.187-.449-.473l0,0c-.325-.236-.564-.418-.732-.554a2.132,2.132,0,0,0-.716-.175,6.927,6.927,0,0,0-.864-.084l-.06,0a2.716,2.716,0,0,1-.928-.136,6.291,6.291,0,0,0-.636.117,1.3,1.3,0,0,1-.832-.043h-.008a.3.3,0,0,0-.087.016,2.195,2.195,0,0,1-.837.073,2.422,2.422,0,0,1-.692-.014.972.972,0,0,0-.334.02,2.127,2.127,0,0,1-.85,0,1.047,1.047,0,0,1-.718.255,1.8,1.8,0,0,1-.448-.061,2.191,2.191,0,0,0-.265-.019.689.689,0,0,0-.113.007,1.512,1.512,0,0,1-.944.245l-.122,0a1.323,1.323,0,0,1-.515.118.861.861,0,0,1-.168-.015,2.532,2.532,0,0,1-.821.258,2.959,2.959,0,0,0-.836.406,1.119,1.119,0,0,1-.863.347,2.137,2.137,0,0,1-.487-.061,1.684,1.684,0,0,1-1.066-.584,2.273,2.273,0,0,1-.33-.815,1.772,1.772,0,0,1,.072-1.062,3.135,3.135,0,0,1,.45-.771c.266-.337.81-.562,1.88-.776l.031-.006.031,0a1.875,1.875,0,0,0,.477-.079,1.13,1.13,0,0,1,.464-.086,2.938,2.938,0,0,1,.494.05,3.252,3.252,0,0,1,1.009-.225,6.411,6.411,0,0,1,1.606-.177c.585-.085,1.349-.15,2.273-.193s1.805-.079,2.605-.108h.022a14.572,14.572,0,0,1,1.877.133,12.5,12.5,0,0,1,2.252.451l.036.013c.471.176.8.306,1.013.4a3.171,3.171,0,0,1,.827.553,5.876,5.876,0,0,1,.742.79,3.845,3.845,0,0,1,.532.892,3.147,3.147,0,0,1,.159,1.287,1.369,1.369,0,0,1,.073.709,1.2,1.2,0,0,0,0,.375,2.352,2.352,0,0,1-.04.835,6.565,6.565,0,0,1-.562,2.244,16.056,16.056,0,0,1-.721,1.528c-.13.22-.262.438-.392.649a3.52,3.52,0,0,1-.628,1.228,2.676,2.676,0,0,0-.3.608,4.6,4.6,0,0,1-.4.867c-.148.251-.339.539-.569.857a4.625,4.625,0,0,1-.324.508l.158-.012a5.93,5.93,0,0,1,.922-.02,1.336,1.336,0,0,1,.868.528,1.691,1.691,0,0,1,.334,1.338,1.294,1.294,0,0,1-.826,1.208,4.446,4.446,0,0,1-1.169.205h-.041c-.275,0-.576-.015-.895-.045-.233-.023-.563-.036-.985-.04a2.041,2.041,0,0,1-.809.526,2.594,2.594,0,0,1-.977.138,4.066,4.066,0,0,1-.733-.1.926.926,0,0,1-.613-.5c-.285-.013-.555-.019-.8-.019-.363,0-.693.014-.981.04-.586.054-1.1.1-1.517.125a3,3,0,0,1-1.137.131,1.551,1.551,0,0,0-.6.064l-.014,0a5.06,5.06,0,0,1-.813.169,2.772,2.772,0,0,1-.661-.026l-.024,0a.791.791,0,0,0-.306.085,2.231,2.231,0,0,1-.946.189,1.886,1.886,0,0,1-.812.228c-.259.014-.565.029-.911.043h-.066A1.141,1.141,0,0,1,927.038-143.2Zm66.77-7.471a1.734,1.734,0,0,1-.891-1.718,1.512,1.512,0,0,1,.989-1.636,2.978,2.978,0,0,1,1.436-.251c.43.029.895.082,1.381.156a4.294,4.294,0,0,0,.989.06l.09-.009.088.018c.407.081.675.136.819.167l.043-.02a1.376,1.376,0,0,1,1.012-.1,6.339,6.339,0,0,0,1.075.109,6.505,6.505,0,0,1,1.292-.04l1.181.081a3.231,3.231,0,0,1,1.482.029,7.824,7.824,0,0,1,1.713-.132,13.332,13.332,0,0,0,1.932-.1l.07-.009.07.008a2.934,2.934,0,0,0,.641,0c.246-.028.5-.062.742-.1a3.188,3.188,0,0,1,.863-.03c.2,0,.411-.007.616-.02a1.792,1.792,0,0,0,.515-.113l.1-.039h.109c.379,0,.706-.013.971-.04.287-.029.648-.058,1.073-.086a4.639,4.639,0,0,0,1.231-.292l.1-.046.111-.006c.24-.015.452-.023.628-.023a3.4,3.4,0,0,1,.482.028,2.983,2.983,0,0,1,.837.265,1.339,1.339,0,0,1,.75,1.157,2.04,2.04,0,0,1-.168,1.115,1.3,1.3,0,0,1-.755.688,5.158,5.158,0,0,1-1.056.178c-.454.044-.9.074-1.326.089-.4.014-.935.049-1.58.105l-.044,0-.044,0c-.277-.017-.659-.025-1.133-.025-1.086,0-2.694.045-4.778.133-3.021.129-4.757.2-5.16.215a3.836,3.836,0,0,1-1.116-.118,5.4,5.4,0,0,1-.792.215,4,4,0,0,1-1.382-.05,2.237,2.237,0,0,1-.907.237,1.079,1.079,0,0,1-.366-.06,2.055,2.055,0,0,0-.579-.095,3,3,0,0,0-.716.049c-.643.175-1.083.283-1.344.329a1.391,1.391,0,0,1-.247.022A2.364,2.364,0,0,1,993.808-150.674Zm-103.3-7a2.234,2.234,0,0,1-.81-.693,1.4,1.4,0,0,1-.093-1.174,3.037,3.037,0,0,1,.458-.964,3.166,3.166,0,0,1,1.612-.883l.04-.013.04-.007c.674-.117,1.5-.213,2.463-.286s2.684-.18,5.168-.323c2.209-.114,4.07-.173,5.534-.173h.01a26.334,26.334,0,0,1,3.614.215,2.885,2.885,0,0,1,1.16.185,1.74,1.74,0,0,1,.783,1.241,1.624,1.624,0,0,1-.223,1.511,2.38,2.38,0,0,1-1.143.545,2.1,2.1,0,0,1-1.457-.13c-.483-.133-.973-.255-1.456-.362l-.042-.012a1.456,1.456,0,0,0-.578-.064,1.629,1.629,0,0,1-.977-.156.157.157,0,0,0-.079-.023l-.029,0a3.991,3.991,0,0,1-.658.051,1.212,1.212,0,0,0-.343.039,1.35,1.35,0,0,1-.784-.024c-.319.048-.562.077-.739.091a3.072,3.072,0,0,1-.829-.079,2.115,2.115,0,0,1-.742.18.852.852,0,0,1-.266-.041.827.827,0,0,0-.19.032,1.681,1.681,0,0,1-.4.046,2.909,2.909,0,0,1-.714-.1c-.257.046-.471.082-.635.107a3,3,0,0,1-.462.029c-.143,0-.311-.005-.5-.017a1.68,1.68,0,0,1-.821-.027.122.122,0,0,0-.031-.006.075.075,0,0,0-.03.014,1.22,1.22,0,0,1-.674.226.966.966,0,0,1-.283-.043,1.869,1.869,0,0,0-.283-.013c-.133,0-.3.005-.492.015a7.035,7.035,0,0,0-1.645.438,8.353,8.353,0,0,1-1.006.671,1.452,1.452,0,0,1-.7.186A1.526,1.526,0,0,1,890.5-157.673Zm91.4-16.3a4.173,4.173,0,0,0-.443-.346,1.778,1.778,0,0,1-.677-1.4,3.787,3.787,0,0,1,.026-.958,1.708,1.708,0,0,1,.624-1.085.825.825,0,0,0,.272-.4,17.921,17.921,0,0,1,.647-2.346,2.83,2.83,0,0,0,.2-.631c.026-.182.046-.409.059-.676a3.682,3.682,0,0,1,.152-.886,2.412,2.412,0,0,1,.139-.7.644.644,0,0,0,0-.355l-.063-.285.185-.225a.709.709,0,0,0,.211-.535,2.166,2.166,0,0,1,.133-.988,1.529,1.529,0,0,1,.106-1.012,1.014,1.014,0,0,1,.1-.83,2.6,2.6,0,0,1,.187-1.1,1.561,1.561,0,0,0-.064-.555l-.031-.092v-.1a5.405,5.405,0,0,1,.1-1.19.923.923,0,0,0,.019-.4,5.4,5.4,0,0,1-.1-.872,1.294,1.294,0,0,0-.209-.618,1.205,1.205,0,0,1-.185-1.318,7.379,7.379,0,0,1,.375-.7,1.492,1.492,0,0,1,.909-.651,1.814,1.814,0,0,1,.483-.067,1.838,1.838,0,0,1,.669.129,1.8,1.8,0,0,1,.893.735,2.482,2.482,0,0,1,.263,1.452,26.919,26.919,0,0,1-.2,3.88c-.127.806-.394,2.788-.792,5.891l-.007.041c-.141.708-.257,1.311-.341,1.791s-.216,1.237-.386,2.232l0,.023c-.283,1.327-.482,2.385-.595,3.143l-.006.035a8.9,8.9,0,0,1-.35,1.3,1.47,1.47,0,0,1-1.134.882l-.027.006a2.412,2.412,0,0,1-.43.044A.955.955,0,0,1,981.9-173.972Zm-55.159-1.274a1.616,1.616,0,0,1-.774-.328.48.48,0,0,0-.175-.064,2.141,2.141,0,0,1-.906-.522c-.251-.221-.42-.376-.517-.473a.236.236,0,0,0-.042-.012l-.1-.02-.086-.049a33.423,33.423,0,0,1-3.165-2.326,33.023,33.023,0,0,1-4.267-4.048,29.823,29.823,0,0,1-2.941-3.926c-.95.812-1.994,1.67-3.11,2.56-1.327,1.056-2.607,2.068-3.806,3.01s-2.29,1.857-3.278,2.746c-1.006.905-1.955,1.715-2.819,2.408l-.091.073-.112.033a6.263,6.263,0,0,0-.706.254,1.777,1.777,0,0,1-1.159.076,2,2,0,0,1-1-.582,2.171,2.171,0,0,1-.306-1.795,1.4,1.4,0,0,1,1.5-1.277,2.989,2.989,0,0,1,.518.049c.393-.258.753-.509,1.074-.746.465-.345.635-.48.7-.532a1.8,1.8,0,0,1,.574-.3,1.693,1.693,0,0,1,.763-.531,1.634,1.634,0,0,0,.584-.38l.516-.516a9.9,9.9,0,0,1,.99-.788c.5-.372,1.066-.785,1.683-1.229a31.315,31.315,0,0,0,2.586-2.209l.023-.022.025-.018a3.956,3.956,0,0,1,1.215-.7.181.181,0,0,0,.067-.027l0,0a2.909,2.909,0,0,1,.544-.715,1.543,1.543,0,0,1,.906-.765.821.821,0,0,0,.253-.135c.489-.464,1-1,1.517-1.6l.045-.051.055-.041a9.658,9.658,0,0,1,1.378-.88.917.917,0,0,1,.749-.86,2.3,2.3,0,0,0,.57-.338,1.692,1.692,0,0,1,.777-.741,1.191,1.191,0,0,1,.827-.814c.08-.025.091-.049.1-.072l.051-.119.095-.087a2.467,2.467,0,0,0,.483-.517,1.542,1.542,0,0,1,.524-.628,1.34,1.34,0,0,0,.3-.342,8.87,8.87,0,0,1,.754-.913,8.953,8.953,0,0,0,.408-.882,1.564,1.564,0,0,0,.073-.86c-.013-.082-.05-.3-.539-.481l-.033-.013a1.545,1.545,0,0,0-.565-.171,1.33,1.33,0,0,1-.421.064,2.884,2.884,0,0,1-.9-.174l-.236-.079-.107-.213h-.039a1.887,1.887,0,0,0-.635.147,1.518,1.518,0,0,1-1.066.084c-.055,0-.106,0-.154,0a.93.93,0,0,0-.28.027,2.608,2.608,0,0,1-1.259.163,1.51,1.51,0,0,1-.892.324,1.183,1.183,0,0,1-.211-.019.392.392,0,0,0-.056,0,2.389,2.389,0,0,0-.735.172c-.488.173-.954.333-1.385.476l-.031.01a16.116,16.116,0,0,0-3.971,1.669,1.768,1.768,0,0,1-.524,1.173,1.623,1.623,0,0,1-1.092.351,2.983,2.983,0,0,1-.3-.016,1.5,1.5,0,0,1-1.353-1.133,3.178,3.178,0,0,1-.1-1.507,1.931,1.931,0,0,1,.864-1.3,7.743,7.743,0,0,1,1.117-.606c.347-.153.664-.3.94-.438l.044-.022.048-.014c1.11-.341,2.27-.709,3.45-1.093a25.966,25.966,0,0,1,3.607-.9,18.61,18.61,0,0,1,3-.31c.375-.056.781-.1,1.209-.128h.04a9.568,9.568,0,0,1,1.4.089c.433.029.865.073,1.284.131a2.267,2.267,0,0,1,1.347.713,1.947,1.947,0,0,1,.975.741l.025.036.02.04c.133.266.246.473.335.612a2.935,2.935,0,0,1,.327.754,1.681,1.681,0,0,1-.055,1.053,1.959,1.959,0,0,1-.135.961,1.413,1.413,0,0,1-.221,1.157,1.1,1.1,0,0,0-.184.431,2.479,2.479,0,0,1-.726,1.131,1.658,1.658,0,0,1-1.017,1.049,7.822,7.822,0,0,1-.99,1.124l-.005.005c-.528.472-.977.907-1.336,1.292a11.811,11.811,0,0,1-1.267,1.178c-.512.409-.734.61-.832.707a6.941,6.941,0,0,0-.458.529c.164.47.256.737.281.812.03.09.08.248.154.483a1.708,1.708,0,0,0,.221.461c.14.2.3.455.479.774a4.486,4.486,0,0,0,.57.778l.06.068.038.082a4.143,4.143,0,0,0,.387.708c.138.184.245.337.326.465a2,2,0,0,0,.376.305l.008.006a2.841,2.841,0,0,1,.836.963,1.452,1.452,0,0,0,.273.13,2.552,2.552,0,0,1,1,.79l.017.02a5.4,5.4,0,0,0,1.332,1.032c.692.413,1.155.7,1.414.885a4.816,4.816,0,0,0,.857.454,8.694,8.694,0,0,1,1.461.843,2.325,2.325,0,0,1,1.069.461,1.154,1.154,0,0,1,1.005,1,2.326,2.326,0,0,1-.121,1.266,1.592,1.592,0,0,1-.8.9,1.686,1.686,0,0,1-.717.162A1.7,1.7,0,0,1,926.741-175.246Zm73.544-.253a1.309,1.309,0,0,1-.724-1.526,1.668,1.668,0,0,1,.7-1.26,1.973,1.973,0,0,1,.837-.956,1.6,1.6,0,0,1,.779-.786,1.925,1.925,0,0,1,.623-.7,1.56,1.56,0,0,0,.41-.436,4.814,4.814,0,0,1,.688-.809,2.239,2.239,0,0,0,.33-.352c.065-.1.138-.23.218-.377a1.278,1.278,0,0,1,.595-.531,1.9,1.9,0,0,1,.239-.518,2.4,2.4,0,0,1,.367-.39,1.83,1.83,0,0,1,.616-.757,1.221,1.221,0,0,0,.213-.175,1.431,1.431,0,0,1,.681-.879,1.8,1.8,0,0,1,.463-.612,1.549,1.549,0,0,1,.473-.751c.219-.33.5-.774.84-1.323.365-.588.755-1.271,1.163-2.03.38-.706.7-1.322.94-1.832a1.4,1.4,0,0,1,.469-1.147.087.087,0,0,0,.041-.062,4.75,4.75,0,0,0,.094-.514,1.52,1.52,0,0,1,.522-.908c.095-.428.247-1.019.464-1.793.028-.651.049-1.127.062-1.417a1.223,1.223,0,0,1,.882-1.142,2.6,2.6,0,0,1,.822-.136,2.621,2.621,0,0,1,.355.025,2.025,2.025,0,0,1,1.156.6,1.483,1.483,0,0,1,.47,1.309c-.041.273-.09.737-.146,1.381l-.016.188-.121.144a1.269,1.269,0,0,0-.338.585,1.327,1.327,0,0,1-.649,1.026.62.62,0,0,0-.079.325l-.012.167-.1.136a11.169,11.169,0,0,0-.932,1.62,15.08,15.08,0,0,1-.937,1.89c-.287.474-.536.876-.737,1.192l-.007.011c-.222.334-.563.888-1.014,1.649-.465.786-.967,1.552-1.49,2.28-.509.707-1.149,1.634-1.9,2.755s-1.718,2.48-2.857,4.018a10.278,10.278,0,0,1-.785,1.139c-.231.285-.488.639-.762,1.051l-.065.1-.1.066a3.265,3.265,0,0,1-1.578.684l-.119,0A2.657,2.657,0,0,1,1000.285-175.5ZM952.1-176.54a7.044,7.044,0,0,1-.958-.8,1.255,1.255,0,0,0-.425-.287l-.062-.028-.054-.04a9.933,9.933,0,0,1-1.642-1.551c-.55-.636-1.15-1.382-1.785-2.219-.6-.789-1.179-1.627-1.727-2.494-.365-.138-.645-.245-.832-.32a1.757,1.757,0,0,1-.814-.676,2.284,2.284,0,0,1-.206-1.515c-.263-.449-.482-.806-.653-1.064a5.951,5.951,0,0,1-.573-1.1,3.53,3.53,0,0,1-.257-1.274,2.038,2.038,0,0,1,1.131-2.009l.065-.041.073-.025a2.1,2.1,0,0,1,1.108-.06,2.5,2.5,0,0,1,.876.346,1.374,1.374,0,0,1,.581.959,1.731,1.731,0,0,1-.252,1.138,4.306,4.306,0,0,0,.161.844,2.453,2.453,0,0,0,.22.479c.051.08.157.234.381.529a1.77,1.77,0,0,0,.422-.057c.263-.069.486-.132.663-.186s.41-.123.734-.216a1.326,1.326,0,0,1,.919-.455,1.856,1.856,0,0,0,.537-.229l.031-.016.031-.013c.846-.338,1.537-.631,2.056-.869a3.779,3.779,0,0,0,.938-.539,6.158,6.158,0,0,1,.762-.6,2.547,2.547,0,0,1,.734-.346,2.5,2.5,0,0,1,.545-.5c.134-.086.349-.22.638-.4a1.3,1.3,0,0,1,.869-.707,1.212,1.212,0,0,0,.265-.384,1.246,1.246,0,0,1,.813-.771c.2-.29.4-.562.6-.81a7.119,7.119,0,0,1,.905-.92,3.877,3.877,0,0,0,.384-.788.549.549,0,0,0,.029-.16,1.3,1.3,0,0,0-.247-.282,1.421,1.421,0,0,0-.552-.257,1.407,1.407,0,0,1-.985-.2.9.9,0,0,0-.4-.118,2.471,2.471,0,0,1-.641-.143,3.4,3.4,0,0,1-.983.056,4.52,4.52,0,0,1-.792-.173.353.353,0,0,0-.229-.013,3.54,3.54,0,0,1-.96.188l-.105.009-.1-.028a.962.962,0,0,0-.242-.039.246.246,0,0,0-.105.018,1.466,1.466,0,0,1-1.081.059c-.392.073-.676.122-.864.148a4.086,4.086,0,0,1-.536.027c-.171,0-.379,0-.618-.014a1.753,1.753,0,0,1-1.049.243.163.163,0,0,0-.084.036,1.141,1.141,0,0,1-.635.207.967.967,0,0,1-.3-.048,1.226,1.226,0,0,1-.723.208,2.1,2.1,0,0,1-.34-.03,2.347,2.347,0,0,1-.784.185.932.932,0,0,1-.153-.013,1.328,1.328,0,0,1-.782.221c-.063,0-.129,0-.2-.009a2.146,2.146,0,0,1-1.342.336l-.041-.006a.9.9,0,0,1-.575.208.894.894,0,0,1-.211-.025l-.019.013a1.619,1.619,0,0,1-.778.266,5.06,5.06,0,0,1-1.688.515,3.012,3.012,0,0,0-1.3.635l-.051.044-.059.031c-.344.184-.681.379-1.007.581-.187.7-.313.908-.481,1.048a3.962,3.962,0,0,1-.563.363,1.887,1.887,0,0,1-1.31.152,1.576,1.576,0,0,1-1.225-1.1l-.031-.085,0-.09a3.33,3.33,0,0,1,.624-2.112,3.75,3.75,0,0,1,1.538-1.321,11.129,11.129,0,0,1,1.613-.562c1.244-.432,2.9-.891,4.916-1.363s3.584-.782,4.616-.913c1.011-.128,2.116-.272,3.283-.428a45.816,45.816,0,0,1,5.537-.242,12.189,12.189,0,0,1,2.079.181l.032.006a8.466,8.466,0,0,1,1.809.585,8.208,8.208,0,0,1,.974.558,2.572,2.572,0,0,1,.779.9,4.983,4.983,0,0,1,.5,1.01,2.625,2.625,0,0,1,.067,1.335c-.076.425-.143.74-.207.961a2.082,2.082,0,0,1-.391.752c-.136.167-.372.43-.719.807-.5.616-.839,1.012-1.039,1.214s-.392.383-.6.573a20.4,20.4,0,0,1-1.733,1.316c-.92.661-2.271,1.576-4.018,2.722l-.036.022a40.589,40.589,0,0,1-5.487,2.6c.177.319.225.4.237.414.039.058.145.224.62.992a5.176,5.176,0,0,1,.608.776,3.568,3.568,0,0,0,.6.693c.4.346.812.711,1.215,1.085l.016.015a5.25,5.25,0,0,0,.462.4,6.446,6.446,0,0,0,.592.414,3.117,3.117,0,0,0,.759.31,2.587,2.587,0,0,1,1.453.635,1.944,1.944,0,0,1,.576,1.057,1.559,1.559,0,0,1-.243,1.14,2.724,2.724,0,0,1-.554.63,1.9,1.9,0,0,1-1.148.324l-.092,0A2.052,2.052,0,0,1,952.1-176.54Zm70.2-2.843a6.388,6.388,0,0,1-1.217-.148c-.207-.055-.562-.14-1.054-.252a3.2,3.2,0,0,1-1.85-1.546l-.036-.054-.023-.061a5.659,5.659,0,0,1-.245-3.024,21.365,21.365,0,0,1,.686-2.808c.274-.848.688-2.04,1.232-3.544s1.093-2.983,1.636-4.413l.015-.042.022-.039a2.5,2.5,0,0,0,.31-.682,1.663,1.663,0,0,1,.378-.974.853.853,0,0,0,.138-.234,2.089,2.089,0,0,1,.3-.923,8.248,8.248,0,0,1,.4-1.094,2.12,2.12,0,0,1,1.4-1.054l.106-.034.112.007a2.19,2.19,0,0,1,1.462.6,1.55,1.55,0,0,1,.392,1.542,3.924,3.924,0,0,1-.751,1.415c-.326.555-.445.782-.487.875-.05.111-.166.342-.586,1.067-.4.992-.723,1.75-.968,2.255-.221.454-.437.92-.647,1.387a2.032,2.032,0,0,1-.573,1.369.95.95,0,0,1-.145.656,2.062,2.062,0,0,0-.2.417,1.468,1.468,0,0,0-.072.486,1.043,1.043,0,0,1-.429.89,1.685,1.685,0,0,0-.067.435.928.928,0,0,1-.348.813,1.6,1.6,0,0,0-.053.43,1.02,1.02,0,0,1-.23.909,3.283,3.283,0,0,1-.235.955,1.233,1.233,0,0,1-.056.8.339.339,0,0,0-.023.235.571.571,0,0,0,.212.244,1.306,1.306,0,0,0,.564.233,4.952,4.952,0,0,0,.88.076,5.728,5.728,0,0,0,1.595-.213,8.5,8.5,0,0,1,1.277-.286,3.775,3.775,0,0,1,.908-.346l.048-.011.048,0a2.227,2.227,0,0,0,.466-.063,1.528,1.528,0,0,1,.932-.419,2.144,2.144,0,0,1,.825-.423,2.068,2.068,0,0,0,.6-.267c.253-.163.864-.522,1.867-1.1a3.243,3.243,0,0,1,1.26-.712.36.36,0,0,0,.043-.045,1.654,1.654,0,0,1,.608-.49c.109-.049.252-.1.432-.167a1.784,1.784,0,0,1,.92-.716c.165-.052.333-.1.5-.142a1.327,1.327,0,0,1,.644-.655c.292-.153.539-.287.733-.4a5.068,5.068,0,0,0,.739-.574,4.293,4.293,0,0,1,1.621-.855l.833-.257a.93.93,0,0,1,.272-.04,1.289,1.289,0,0,1,1,.583,2.475,2.475,0,0,1,.535,1.27c.108.9-.811,1.5-1.138,1.706a6.556,6.556,0,0,1-.886.556c-.222.111-.519.242-.905.4a1.94,1.94,0,0,1-.665.437,3.463,3.463,0,0,0-.51.255c-.2.123-.425.248-.669.37l-.688.344c-.463.231-.86.422-1.18.568a5.691,5.691,0,0,0-.635.325,2.767,2.767,0,0,1-.787.311,1.928,1.928,0,0,1-.874.513,1.286,1.286,0,0,0-.394.155,1.925,1.925,0,0,1-.83.357,1.219,1.219,0,0,1-.645.433,1.424,1.424,0,0,0-.433.23,1.772,1.772,0,0,1-.9.345,12.549,12.549,0,0,1-2.111.882c-.733.23-1.338.412-1.8.543s-.908.238-1.3.312a6.77,6.77,0,0,1-1.273.118ZM970.5-182.8a2.955,2.955,0,0,1-.99-.773,2.486,2.486,0,0,1-.772-1.4,2.093,2.093,0,0,1,.3-1.546,8.691,8.691,0,0,1,.9-1.128c.5-.561.878-.958,1.15-1.216a1.271,1.271,0,0,0,.341-.431,1.283,1.283,0,0,1,.919-.756,3.111,3.111,0,0,1,.653-.593,3.573,3.573,0,0,1,1-.984,18.723,18.723,0,0,1,1.938-1.675c.348-.289.984-.8,1.889-1.524s2.021-1.58,3.28-2.525,2.875-2.086,4.792-3.389c1.949-1.324,3.3-2.183,4.129-2.628a4.263,4.263,0,0,1,1.611-.631l.027,0h.07a2.08,2.08,0,0,1,1.325.522l.023.019.022.022a1.58,1.58,0,0,1,.5,1.558,2,2,0,0,1-.544,1.029,1.77,1.77,0,0,1-.9.427,3.649,3.649,0,0,1-.851.05h-.039a.32.32,0,0,0-.193.052l-.031.021-.033.016c-.326.163-.669.329-1.02.491a1.756,1.756,0,0,1-.847.367,4.138,4.138,0,0,1-.837.663c-.351.216-.694.448-1.018.691a2.324,2.324,0,0,1-.855.428,1.017,1.017,0,0,0-.4.236,1.117,1.117,0,0,1-.628.518,1.646,1.646,0,0,1-.891.559,5.236,5.236,0,0,1-.894.85l-.045.033-.05.023a6.335,6.335,0,0,0-1.453.941l-.058.05-.069.034a2.894,2.894,0,0,0-.815.643l-.041.044-.049.036c-.329.238-.663.459-.993.654a2.669,2.669,0,0,0-.7.615l-.037.045-.044.036c-.353.294-.724.578-1.107.842-.332.249-.761.595-1.276,1.026a3.612,3.612,0,0,0-.864.894,1.494,1.494,0,0,1-.812.723,1.7,1.7,0,0,1-.767.684,6.09,6.09,0,0,1-.65.73,1.131,1.131,0,0,0-.27.325,1.631,1.631,0,0,1-.414.572.869.869,0,0,0-.163.237,1.91,1.91,0,0,1-.269.388q.22.126.432.25a1.441,1.441,0,0,1,.718,1.047,1.314,1.314,0,0,1-.457,1.234,3.418,3.418,0,0,0-.419.416,1.435,1.435,0,0,1-1.131.461l-.105,0A2.713,2.713,0,0,1,970.5-182.8Z" transform="translate(-764.945 8259.053)" fill="#009f39"/>
      </g>
      <path id="パス_6216" data-name="パス 6216" d="M-93.7-1.276V.242h2.838a15.08,15.08,0,0,1-.088-1.914V-14.256c0-.814.022-1.254.066-1.826-.506.044-.9.066-1.848.066h-12.5c-.88,0-1.342-.022-1.87-.066a14.611,14.611,0,0,1,.088,1.848V-1.628A14.7,14.7,0,0,1-107.1.264h2.838v-1.54Zm0-2.508h-10.56V-13.53H-93.7Zm9.218-8.184a22.01,22.01,0,0,1,2,5.324l2.486-.792a25.377,25.377,0,0,0-2.156-5.214Zm4.708-.924a24.192,24.192,0,0,1,2,5.17l2.442-.77a21.612,21.612,0,0,0-2.134-5.06Zm7.568-.22a9.759,9.759,0,0,1-.4,2.53,12.65,12.65,0,0,1-4.994,7.634,14.271,14.271,0,0,1-3.74,2.024,7.991,7.991,0,0,1,1.76,2.178,16.886,16.886,0,0,0,6.71-5.3,18.78,18.78,0,0,0,3.036-7.326A4.631,4.631,0,0,1-69.52-12.5Zm23.672,4.136a21.768,21.768,0,0,1,2.794.11v-2.618a15.627,15.627,0,0,1-2.838.154h-12.87a15.485,15.485,0,0,1-2.838-.154v2.618a21.768,21.768,0,0,1,2.794-.11h5.368a9.343,9.343,0,0,1-.968,4.158c-.924,1.694-2.574,2.86-5.214,3.674a6.98,6.98,0,0,1,1.782,2.42c2.97-1.188,4.576-2.4,5.742-4.334a11.946,11.946,0,0,0,1.54-5.918Zm-13.53-5.368a20.726,20.726,0,0,1,2.794-.11h8.536a20.726,20.726,0,0,1,2.794.11v-2.684a14.926,14.926,0,0,1-2.838.154h-8.448a14.926,14.926,0,0,1-2.838-.154Zm19.6-2.618a8.764,8.764,0,0,1,1.87,2.618,14.821,14.821,0,0,1-2.838,1.76,6.8,6.8,0,0,1,1.056,2.156,20,20,0,0,0,2.618-1.738,15.446,15.446,0,0,1,.506,2.244A13.934,13.934,0,0,1-43.34-5.83a8.2,8.2,0,0,1,1.056,2.156,16.28,16.28,0,0,0,3.322-3.3c.022.726.022,1.144.022,1.562a13.785,13.785,0,0,1-.374,4.18.9.9,0,0,1-.924.7A7.445,7.445,0,0,1-42.35-.946,8.3,8.3,0,0,1-42,1.5a12.93,12.93,0,0,0,2,.2A2.879,2.879,0,0,0-37.8.968c.77-.792,1.1-2.6,1.1-5.808a31.016,31.016,0,0,0-.484-6.138,21.56,21.56,0,0,0-.7-2.728,23.525,23.525,0,0,0,2.442-2.662l.506-.616-1.914-1.474A9.122,9.122,0,0,1-38.9-15.8a12.068,12.068,0,0,0-.858-1.3c-.528-.77-.528-.77-.77-1.078Zm11.484,2.42h-2.486a16.583,16.583,0,0,1-2.244-.11c.066.726.088,1.32.088,2.4v4.4c0,1.034-.022,1.606-.066,2.354a19.856,19.856,0,0,1,2.222-.088h2.486v4.18a44.484,44.484,0,0,1-4.73.352c-.176,0-.374-.022-.616-.044l.484,2.6c.4-.088.814-.154,1.3-.22C-30.888.88-27.214.33-25.3-.11a18.8,18.8,0,0,1,.506,2L-22.55.968a30.377,30.377,0,0,0-2.376-5.9l-2.046.66a21.861,21.861,0,0,1,.99,2.244c-1.21.2-1.342.22-2.156.308-.33.044-.33.044-.55.066V-5.588h2.794a19.856,19.856,0,0,1,2.222.088,22.229,22.229,0,0,1-.088-2.376V-12.32a21.835,21.835,0,0,1,.088-2.332,16.091,16.091,0,0,1-2.2.11h-2.816V-16.06a9.037,9.037,0,0,1,.154-2.178h-2.6a12.476,12.476,0,0,1,.154,2.178Zm0,2.178v4.532H-33.4v-4.532Zm2.288,4.532v-4.532h2.64v4.532ZM-16.236-15.8a21.944,21.944,0,0,1-2.684-.11,21.687,21.687,0,0,1,.11,2.706V-.88a18.924,18.924,0,0,1-.132,2.552h2.486V.55H-5.588V1.672h2.53A15.056,15.056,0,0,1-3.19-.88V-13.2a21.047,21.047,0,0,1,.11-2.706,22.567,22.567,0,0,1-2.706.11h-5.1c.4-.836.726-1.584,1.122-2.64L-12.54-18.7a12,12,0,0,1-1.012,2.9Zm-.2,2.244H-5.566v2.486H-16.434Zm0,4.6H-5.566v2.508H-16.434Zm0,4.62H-5.566v2.662H-16.434ZM12.716-14.1a4.808,4.808,0,0,1,2.222.66,5.45,5.45,0,0,1,2.706,4.884,6.159,6.159,0,0,1-3.058,5.5,11.692,11.692,0,0,1-4.378,1.21A7.018,7.018,0,0,1,11.55.726,14.383,14.383,0,0,0,15-.2,8.475,8.475,0,0,0,20.35-8.4c0-4.95-3.432-8.162-8.712-8.162a9.876,9.876,0,0,0-7.568,3.08,9.45,9.45,0,0,0-2.42,6.4c0,3.542,1.8,6.094,4.312,6.094,1.8,0,3.212-1.3,4.466-4.136A31.827,31.827,0,0,0,12.716-14.1Zm-2.684.022A29,29,0,0,1,8.206-6.644C7.414-4.752,6.666-3.828,5.94-3.828c-.968,0-1.738-1.43-1.738-3.234A7.366,7.366,0,0,1,7.194-13,5.6,5.6,0,0,1,10.032-14.08ZM41.074-4.6a3.571,3.571,0,0,1,.748.044,10.449,10.449,0,0,1-.066-1.32v-1.87a11.9,11.9,0,0,1,.066-1.386c-.484.044-1.1.066-1.98.066H31.856c-.748,0-1.32-.022-1.848-.066a11.491,11.491,0,0,1,.066,1.364V-5.94a7.053,7.053,0,0,1-.088,1.386,17.1,17.1,0,0,1,1.76-.066h1.76A13.79,13.79,0,0,1,27.17-.638a6.653,6.653,0,0,1,1.452,2,15.16,15.16,0,0,0,5.632-4.026c-.044.44-.066,1.144-.066,1.54V.066a10.718,10.718,0,0,1-.11,1.892h2.53A10.107,10.107,0,0,1,36.5.176v-1.21a14.852,14.852,0,0,0-.088-1.65A9.525,9.525,0,0,0,38.632-.506a14.745,14.745,0,0,0,3.784,2.024A14.535,14.535,0,0,1,43.6-.682a12.54,12.54,0,0,1-3.322-1.342A18.941,18.941,0,0,0,41.91-3.3c.374-.308.44-.374.616-.528Zm-.968-.022h.242A9.09,9.09,0,0,1,38.61-3.146,6.593,6.593,0,0,1,37.07-4.62ZM32.318-7.436h7.15v1.078h-7.15Zm-7.282-7.9V-11h-.2a7.618,7.618,0,0,1-1.54-.11v2.244a9.949,9.949,0,0,1,1.5-.088h.242v4.928a12.433,12.433,0,0,1-2.442.638l.572,2.53c.264-.132.792-.352,1.144-.484A52.09,52.09,0,0,0,29.458-3.5V-5.764c-1.144.506-1.518.66-2.134.9V-8.954a12.822,12.822,0,0,1,1.3.066v-2.2a7.683,7.683,0,0,1-1.3.088v-4.334h.242a7.219,7.219,0,0,1,1.386.11v-2.354a11.771,11.771,0,0,1-1.936.132H24.86a11.567,11.567,0,0,1-1.892-.132v2.354a8.231,8.231,0,0,1,1.584-.11Zm4.51.99a11.816,11.816,0,0,1-.066,1.54c.638-.044.924-.044,1.738-.044h9.5c.814,0,1.188.022,1.694.044-.044-.462-.066-1.034-.066-1.518v-2.112A13.118,13.118,0,0,1,42.438-18c-.528.044-1.232.088-1.76.088h-9.46A13.576,13.576,0,0,1,29.458-18a9.4,9.4,0,0,1,.088,1.584Zm3.674-.11H31.614V-16.1H33.22Zm3.542,0H35.134V-16.1h1.628Zm3.564,0H38.654V-16.1h1.672ZM29.106-9.9a14.428,14.428,0,0,1,2.09-.11h9.768a14.994,14.994,0,0,1,2.09.11v-2.222a14.754,14.754,0,0,1-2.112.11H31.218a11.606,11.606,0,0,1-2.112-.132ZM54.318-3.432c-.286,2.09-1.672,2.948-5.368,3.41A6.948,6.948,0,0,1,50.2,2.068C52.8,1.474,54.076.88,55.11-.2a5.3,5.3,0,0,0,1.408-3.234h1.54V-.088c0,.836.154,1.166.726,1.408a6.585,6.585,0,0,0,2.64.33c3.256,0,3.7-.4,3.916-3.74a8.222,8.222,0,0,1-2.178-.77A6.289,6.289,0,0,1,62.986-.7c-.132.22-.44.286-1.364.286-1.21,0-1.32-.044-1.32-.506V-3.432h1.716c.9,0,1.3.022,1.848.066A12.8,12.8,0,0,1,63.778-5.1V-8.932a12.59,12.59,0,0,1,.088-1.738c-.572.044-1.056.066-2.068.066H54.12c-1.034,0-1.518-.022-2.09-.066a12,12,0,0,1,.088,1.738v3.96a13.83,13.83,0,0,1-.066,1.606c.88-.044,1.21-.066,1.892-.066Zm.044-5.39h7.106v.88H54.362Zm0,2.552h7.106V-5.3H54.362ZM47.1-12.848H46.64a11.112,11.112,0,0,1-1.76-.11V-10.6a14.148,14.148,0,0,1,1.738-.11H47.1V-4.4a12.969,12.969,0,0,1-2.486.748L45.1-1.1c.308-.154.638-.286,1.012-.44,2.42-.99,3.806-1.562,5.3-2.288l-.088-2.354c-1.078.506-1.386.638-1.936.88v-5.412a9.707,9.707,0,0,1,1.518.088v-2.288a13.663,13.663,0,0,1-1.518.066v-2.926a14.664,14.664,0,0,1,.132-2.464H46.97A17.785,17.785,0,0,1,47.1-15.8ZM59.07-16.72v-.506a5.952,5.952,0,0,1,.11-1.3H56.606a7.8,7.8,0,0,1,.11,1.32v.484h-2.64a18.154,18.154,0,0,1-2.354-.11v2.046a13.809,13.809,0,0,1,1.914-.088,10.821,10.821,0,0,1,.594,1.518h-.9a17.033,17.033,0,0,1-1.958-.088v2.134a16.591,16.591,0,0,1,2.024-.066h9.328a17.235,17.235,0,0,1,2.31.11v-2.2a14.217,14.217,0,0,1-2.222.11H61.534a14.64,14.64,0,0,0,.7-1.518,20.551,20.551,0,0,1,2.244.088V-16.83a23,23,0,0,1-2.376.11Zm-2.53,3.366q-.264-.759-.594-1.518h3.916a13.193,13.193,0,0,1-.66,1.518Zm13.838-2.354v1.8h-.462a19.063,19.063,0,0,1-2.244-.088c.066.77.088,1.518.088,2.64V-1.166a27.55,27.55,0,0,1-.132,2.992h2.2V.594h5.214V1.43h2.112c-.066-.66-.088-1.386-.088-2.442v-10.56c0-.924.022-1.738.066-2.42a19.491,19.491,0,0,1-2.266.088h-.308v-1.8h.682c.792,0,1.65.044,2.244.088v-2.332a20.3,20.3,0,0,1-2.464.132H69.63a19.541,19.541,0,0,1-2.42-.132V-15.6a23.467,23.467,0,0,1,2.4-.11Zm1.782,0h.616v1.8H72.16ZM69.828-6.93A5.457,5.457,0,0,1,70.752-5.3a7.315,7.315,0,0,0,.968-2.354,20.208,20.208,0,0,0,.44-4.136v-.264h.616v4.29c0,.858.22.99,1.65.99h.616V-5.06H69.828Zm0-5.126h.858c-.044,2.53-.242,3.63-.858,4.884Zm4.4,0h.814V-8.6c-.792-.022-.814-.044-.814-.4Zm-4.4,8.888h5.214v1.716H69.828ZM86.284-15.686a21.153,21.153,0,0,1,.088-2.222,21.26,21.26,0,0,1-2.266.088h-3.63a19.3,19.3,0,0,1-2.464-.132v2.464a18.183,18.183,0,0,1,2.442-.11H83.93l.022,4.62H80.41a20.7,20.7,0,0,1-2.2-.088A19.058,19.058,0,0,1,78.3-8.91V-.858c0,2,.506,2.288,3.938,2.288,2.552,0,3.608-.242,4.18-.946.44-.572.638-1.65.77-4.29a7.682,7.682,0,0,1-2.31-.9,13.723,13.723,0,0,1-.242,3.234c-.2.55-.638.682-2.266.682a4.454,4.454,0,0,1-1.562-.176c-.132-.088-.176-.2-.176-.594V-8.756h3.542a20.7,20.7,0,0,1,2.2.088,20.079,20.079,0,0,1-.088-2.156Zm10.582,1.892v.77l-2.112.066a2.4,2.4,0,0,1-.44.022,4.287,4.287,0,0,1-.814-.044l.044,1.452c.616-.088,1.012-.11,1.232-.132l2.09-.066v.462c0,.814.176,1.056.946,1.21a25.491,25.491,0,0,0,4.268.176c3.63,0,4.73-.066,5.324-.286.638-.264.9-.748,1.034-1.892a9.546,9.546,0,0,1-1.144-.2,8.463,8.463,0,0,0,1.144-1.386c.2-.264.22-.264.4-.484.044-.066.132-.176.242-.33l-1.364-1.078a13.822,13.822,0,0,1-2.024.088H99.66v-.748h4.752a18.88,18.88,0,0,1,2.134.088v-1.738a10.619,10.619,0,0,1-2.156.132H99.66a4.608,4.608,0,0,1,.11-.924H97.218a7.339,7.339,0,0,1,.132,1.518v1.672H93.016a21.569,21.569,0,0,1-2.552-.11c.088.99.11,1.76.11,3.5,0,6.8-.462,9.482-2.068,12.122a10.1,10.1,0,0,1,1.848,1.782c1.958-3.366,2.464-6.072,2.464-13.31v-2.332Zm2.156,0h7.15a4.669,4.669,0,0,1-1.1,1.078c.506.132.7.176,1.144.33-.044.594-.154.88-.418.99a18.617,18.617,0,0,1-3.982.176c-2.486,0-2.794-.066-2.794-.506v-.088l4.268-.154h1.364l-.022-1.408a9.058,9.058,0,0,1-1.342.11l-4.268.154Zm1.342,10.318L99.418-2.4a9.781,9.781,0,0,1,2.4,1.54l1.144-1.474a13.206,13.206,0,0,0-1.936-1.144h4.444c.9,0,1.254.022,1.8.066a14.735,14.735,0,0,1-.066-1.584V-7.788c0-.682.022-1.1.066-1.606a15.463,15.463,0,0,1-1.936.088h-9.57a15.021,15.021,0,0,1-1.936-.088c.044.528.066.968.066,1.584v2.816c0,.66-.022,1.1-.066,1.584.616-.044.946-.066,1.826-.066ZM96.052-7.9h3.5v.836h-3.5Zm5.588,0h3.41v.836h-3.41ZM96.052-5.764h3.5v.88h-3.5Zm5.588,0h3.41v.88h-3.41ZM93.412,1.628A11.57,11.57,0,0,0,96.1-2.156l-1.892-.9A8.41,8.41,0,0,1,91.718.11ZM98.8-1.606a5.876,5.876,0,0,1,.088-1.232H96.536a6.659,6.659,0,0,1,.088,1.364V.11c0,1.254.594,1.5,3.608,1.5,3.3,0,4.246-.176,4.73-.858.286-.374.352-.616.572-2.046a8.412,8.412,0,0,1-2.222-.682c-.044,1.738-.088,1.76-2.332,1.76a10.417,10.417,0,0,1-1.958-.11c-.176-.044-.22-.132-.22-.374ZM109.34.044a20.875,20.875,0,0,0-2.75-3.278l-1.76,1.1a12.8,12.8,0,0,1,2.706,3.388ZM-84,9.258a18.332,18.332,0,0,1-2.42-.132v2.222c.77-.066,1.5-.11,2.42-.11h1.21V17.42h-1.782a17.613,17.613,0,0,1-2.376-.132V19.51a18.551,18.551,0,0,1,2.376-.132h2.156a10.8,10.8,0,0,1-5.1,2.486,7.861,7.861,0,0,1,1.078,2.288A15.841,15.841,0,0,0-82.5,22.106v1.5a16.642,16.642,0,0,1,2-.088h2.2v1.54H-83.2a23.322,23.322,0,0,1-2.508-.11V27.3a22.145,22.145,0,0,1,2.64-.132h12.254A21,21,0,0,1-68.2,27.3V24.922a18.7,18.7,0,0,1-2.442.132H-76.01v-1.54h2.552a16.41,16.41,0,0,1,2,.088V22.128a18.34,18.34,0,0,0,3.938,1.98A11.049,11.049,0,0,1-66.44,21.8a12.194,12.194,0,0,1-5.236-2.42h2.244a17.842,17.842,0,0,1,2.376.132V17.288a20.436,20.436,0,0,1-2.442.132h-1.76V11.238h1.452a20.429,20.429,0,0,1,2.4.11V9.126a17.518,17.518,0,0,1-2.4.132h-1.452a10.268,10.268,0,0,1,.11-1.628h-2.53a8.94,8.94,0,0,1,.11,1.628h-6.908a10.476,10.476,0,0,1,.11-1.628H-82.9a7.526,7.526,0,0,1,.11,1.628Zm3.52,8.162V16.5h6.908v.924Zm0-2.662v-.88h6.908v.88Zm0-2.618v-.9h6.908v.9Zm5.918,7.238a11.157,11.157,0,0,0,2.2,2.09c-.33.022-.572.022-1.1.022H-76.01a7.488,7.488,0,0,1,.11-1.54h-2.508a7.109,7.109,0,0,1,.11,1.54h-2.2c-.528,0-.77,0-1.166-.022a11.728,11.728,0,0,0,2.09-2.09Zm24.266-.748V17.508H-48c.946,0,1.364.022,1.958.066V15.638c-.55.044-.9.066-1.958.066h-2.288V14.626H-48c.99,0,1.408.022,1.958.066V12.756A17.828,17.828,0,0,1-48,12.822h-2.288v-1.1h2.926a16.23,16.23,0,0,1,1.914.088V9.654a16.768,16.768,0,0,1-2.222.132H-49.94c.44-.638.506-.726.924-1.43.044-.088.132-.242.242-.418l-2.266-.594a9.094,9.094,0,0,1-1.232,2.442h-2.794c.572-.88.572-.88.946-1.518.044-.066.132-.22.22-.374l-2.442-.638a13.429,13.429,0,0,1-4.51,6.028,22.143,22.143,0,0,0-2.816-1.606L-65.23,13.46a17.237,17.237,0,0,1,3.63,2.31l1.3-1.76a7.316,7.316,0,0,1,.836,1.254,7.444,7.444,0,0,0,1.32-1.452c-.022.484-.044,1.188-.044,1.848v2.9c0,1.012-.022,1.408-.066,2.09.55-.044,1.078-.066,1.8-.066v1.364h-6.16a16.732,16.732,0,0,1-2.376-.132v2.464a22.074,22.074,0,0,1,2.706-.132h5.83v1.254a22.408,22.408,0,0,1-.132,2.552h2.794a21.216,21.216,0,0,1-.132-2.574V24.152h6.116a22.324,22.324,0,0,1,2.706.132V21.842a18.711,18.711,0,0,1-2.486.11h-6.336V20.588h6.534a18.638,18.638,0,0,1,2.222.088V18.542a18.529,18.529,0,0,1-2.09.088Zm-5.61-5.808v-1.1h3.388v1.1Zm0,1.8h3.388V15.7H-55.9Zm0,2.882h3.388V18.63H-55.9Zm-8.25-8.272a11.6,11.6,0,0,1,3.63,2.442L-59.07,9.72a15.563,15.563,0,0,0-3.542-2.288Zm4.092,6.358a17.513,17.513,0,0,1-3.982,3.1,7.663,7.663,0,0,1-1.1.572l1.43,2.178a25.067,25.067,0,0,0,4.8-3.85Zm18.48-2.9a2.431,2.431,0,0,1,.352-.022c.2,0,.2,0,.616.022.484,0,2.42.044,2.772.044,0,0,.286-.022.374-.022a1.076,1.076,0,0,0-.176.286,29.139,29.139,0,0,1-2.64,3.762,13.477,13.477,0,0,1-1.98,1.958l2,1.98a9.892,9.892,0,0,1,1.914-2c1.694-1.5,3.234-2.266,4.51-2.266a1.208,1.208,0,0,1,1.342,1.188c-2.486,1.034-3.74,1.87-4.73,3.1a3.506,3.506,0,0,0-.968,2.442A3.19,3.19,0,0,0-36.586,26a9.448,9.448,0,0,0,4.906.924,39.9,39.9,0,0,0,5.632-.4,6.482,6.482,0,0,1,1.012-.088l-.22-2.838a19.114,19.114,0,0,1-6.468.924c-2.662,0-3.718-.462-3.718-1.606a2.316,2.316,0,0,1,1.144-1.8,13.371,13.371,0,0,1,2.112-1.144V20.5a17.417,17.417,0,0,1-.132,2.552l2.552-.066a9.032,9.032,0,0,1-.066-1.166c0-.154,0-.352.022-.726v-.88c0-.308,0-.308-.022-.88v-.242q2.838-.99,3.3-1.122a19.42,19.42,0,0,1,2.442-.594l-1.034-2.53a6.873,6.873,0,0,1-1.628.66q-.825.264-3.366,1.188a2.894,2.894,0,0,0-3.146-2.332,5.318,5.318,0,0,0-3.1.99c-.286.22-.286.22-.44.33l-.022-.044A11.384,11.384,0,0,0-34.8,12.712c2.222-.066,5.016-.242,6.622-.44,1.122-.132,1.122-.132,1.738-.176L-26.6,9.588a29.721,29.721,0,0,1-5.764.748c-1.21.066-1.21.066-1.386.088.044-.088.088-.154.2-.4a16.807,16.807,0,0,1,.88-1.98l-2.882-.308a8.713,8.713,0,0,1-.88,2.728,26.585,26.585,0,0,1-5.1-.286Zm37.422-2.156a3.9,3.9,0,0,1-1.606.22l-4.818.066c-.418,0-.77.022-1.056.044a5.188,5.188,0,0,0,.352-.7L-11,9.588a4.44,4.44,0,0,1,.286-.616,4.5,4.5,0,0,1,.374-.682L-13.354,7.7a8.211,8.211,0,0,1-1.122,2.9,16.923,16.923,0,0,1-5.7,6.38,5.845,5.845,0,0,1,2.134,1.892,21.533,21.533,0,0,0,5.148-5.632l6.622-.11a17.421,17.421,0,0,1-6.424,9.284,19.812,19.812,0,0,1-4.818,2.6,6.779,6.779,0,0,1,1.87,2.31A22.225,22.225,0,0,0-7.81,21.732,22.819,22.819,0,0,0-3.3,13.24a4.138,4.138,0,0,1,.55-1.32ZM4.488,8.642a13.89,13.89,0,0,1,.088,1.98v6.05a15.866,15.866,0,0,1-.11,1.98H7.48a10.62,10.62,0,0,1-.088-1.936V10.644a11.182,11.182,0,0,1,.088-1.98Zm9.922.044a11.585,11.585,0,0,1,.11,2.09v2.75c0,1.76-.022,2.728-.11,3.674-.242,2.9-.968,4.246-3.036,5.61a11.867,11.867,0,0,1-4.752,1.76,7.516,7.516,0,0,1,1.54,2.618,18.609,18.609,0,0,0,4.29-1.694,8.426,8.426,0,0,0,4.334-5.126,25.985,25.985,0,0,0,.572-6.666v-2.97a10.435,10.435,0,0,1,.11-2.046Zm26.708.484a6.056,6.056,0,0,1-2.134.2H27.5a17.539,17.539,0,0,1-3.036-.176v2.75a21.147,21.147,0,0,1,2.992-.132h11.55a9.123,9.123,0,0,1-2.09,2.794A10.2,10.2,0,0,1,33.7,16.628a7.435,7.435,0,0,1,1.98,2,13.761,13.761,0,0,0,2.64-1.826,13.961,13.961,0,0,0,3.388-4.422,6.114,6.114,0,0,1,.88-1.54Zm-10.45,4.444a5.571,5.571,0,0,1,.11,1.32c0,4.158-.7,6.05-2.948,7.832a10.144,10.144,0,0,1-3.85,1.87,7.766,7.766,0,0,1,1.738,2.508,12.712,12.712,0,0,0,5.676-3.96c1.5-1.914,2.09-4.026,2.178-7.788a10.1,10.1,0,0,1,.088-1.782Zm17.82-5.192a10.941,10.941,0,0,1,.088,1.5c0,.308,0,.77-.022,1.43-.132,5.522-.176,7.722-.176,8.866,0,2.948.638,4.642,2.156,5.654a7.173,7.173,0,0,0,3.85.968,8.327,8.327,0,0,0,6.6-2.794c1.078-1.21,1.738-2.64,2.618-5.61a9.5,9.5,0,0,1-2.662-1.694,14.749,14.749,0,0,1-1.012,3.7A5.66,5.66,0,0,1,54.6,24.2a3.484,3.484,0,0,1-2.948-1.144c-.44-.66-.572-1.452-.572-3.542,0-1.562.132-6.028.22-8.074a20.11,20.11,0,0,1,.264-2.97Zm19.558,5.522a3.285,3.285,0,0,1,.418-.022c.176,0,.484,0,.88.022.374.022.594.022.7.022h1.276a1.863,1.863,0,0,0,.286-.022A47,47,0,0,1,67.672,25.78l2.772,1.078a74.589,74.589,0,0,0,2.464-7.282c.572-2,1.122-4.334,1.364-5.7a29.991,29.991,0,0,0,3.608-.462c.528-.088.528-.088.7-.11l-.11-2.53a18.259,18.259,0,0,1-3.762.66c.088-.506.11-.638.22-1.254A12.5,12.5,0,0,1,75.35,8.07l-2.9-.264a2.985,2.985,0,0,1,.022.4,26.7,26.7,0,0,1-.418,3.366c-.506.022-.748.022-1.012.022a17.5,17.5,0,0,1-2.948-.2Zm17.446.484c-1.386-.022-1.584-.022-2.178-.022a28.233,28.233,0,0,0-6.556.7l.2,2.42a23.743,23.743,0,0,1,5.808-.638,22.9,22.9,0,0,1,2.772.154Zm-8.668,4.62c-1.21,1.65-1.628,2.64-1.628,3.806a3.179,3.179,0,0,0,1.562,2.706,8.933,8.933,0,0,0,4.422.88,25.6,25.6,0,0,0,4.092-.352c.506-.088.682-.11,1.078-.154l-.2-2.706a16.837,16.837,0,0,1-4.994.814c-2.2,0-3.3-.572-3.3-1.694A3.65,3.65,0,0,1,79,19.928Z" transform="translate(204 8009)" fill="#371606"/>
    </g>
    <path id="パス_3010" data-name="パス 3010" d="M2935.606,8130.319s3.071,78.93,73.225,134.889" transform="translate(-2751.799 52.155)" fill="none" stroke="#009f39" stroke-linecap="round" stroke-width="3"/>
    <g id="グループ_2898" data-name="グループ 2898" transform="translate(924.5 -384)">
      <g id="コンポーネント_25_11" data-name="コンポーネント 25 – 11" transform="translate(-830 8375)">
        <g id="長方形_1591" data-name="長方形 1591" fill="none" stroke="#009f39" stroke-width="2">
          <rect width="160" height="34" rx="17" stroke="none"/>
          <rect x="1" y="1" width="158" height="32" rx="16" fill="none"/>
        </g>
        <text id="外箱_個包装" data-name="外箱 / 個包装" transform="translate(79.5 25.363)" fill="#009f39" font-size="22" font-family="HiraKakuProN-W6, Hiragino Kaku Gothic ProN"><tspan x="-68.046" y="0">外箱 / 個包装</tspan></text>
      </g>
    </g>
  </g>
</svg>
