<svg xmlns="http://www.w3.org/2000/svg" width="260.04" height="261.188" viewBox="0 0 260.04 261.188">
  <g id="earth_item_text4_mb" transform="translate(-431.371 -8766.512)">
    <g id="グループ_2589" data-name="グループ 2589" transform="translate(47 84)">
      <g id="グループ_3219" data-name="グループ 3219" transform="translate(0 1)">
        <path id="合体_63" data-name="合体 63" d="M847.55-171.392a1.919,1.919,0,0,1-.954-.522,2.976,2.976,0,0,1-.508-1.406l-.031-.16.055-.154a3.08,3.08,0,0,0,.2-.82c.014-.266.037-.544.067-.824a1.861,1.861,0,0,1,.442-1.037.542.542,0,0,0,.113-.175v-.175l.1-.151c.138-.207.3-.452.5-.732a1.183,1.183,0,0,1,.222-1.056.733.733,0,0,0,.141-.317,10.265,10.265,0,0,1,.411-1.219l.024-.06.036-.055a2.284,2.284,0,0,0,.274-.5.17.17,0,0,0,.013-.06,1.389,1.389,0,0,1,.261-1.224,10.077,10.077,0,0,0,.652-1.641c.3-.873.56-1.729.785-2.545.232-.841.468-1.594.7-2.236a4.249,4.249,0,0,0,.308-1.063,3.984,3.984,0,0,1,.123-.912,3.483,3.483,0,0,1,.444-1.017,3.482,3.482,0,0,1,.423-1.3,9.474,9.474,0,0,1,.135-1.275l.029-.17.114-.13a1.145,1.145,0,0,0,.289-.552,4.485,4.485,0,0,1,.243-.837,2.172,2.172,0,0,1,.306-1.014,1.092,1.092,0,0,1,.143-.818,1.463,1.463,0,0,0,.123-.441,4.736,4.736,0,0,1,.476-1.266,1.525,1.525,0,0,1,.257-.838c0-.023.007-.057.01-.1a4.35,4.35,0,0,1,.077-.629,3.715,3.715,0,0,1,.33-.808,2.79,2.79,0,0,0,.151-.668,2.1,2.1,0,0,1,.379-1.026,2.069,2.069,0,0,0,.269-.509,1.6,1.6,0,0,1,.845-.887l.084-.046.093-.017a2.758,2.758,0,0,1,.5-.049,1.988,1.988,0,0,1,1.089.3,1.356,1.356,0,0,1,.633,1.479c-.073.378-.154.761-.241,1.139l-.016.069-.031.064c-.166.332-.313.646-.437.935s-.253.637-.391,1.049l-.016.049-.024.046a3.641,3.641,0,0,0-.353.864,5.678,5.678,0,0,1-.36,1.033l-.02.044-.027.04a1.748,1.748,0,0,0-.259.557,2.472,2.472,0,0,1-.392.854,7.808,7.808,0,0,1-.413.965,8.334,8.334,0,0,0-.471,1.349c-.217.738-.5,1.6-.849,2.569-.335.936-.561,1.633-.67,2.07a16.47,16.47,0,0,1-.513,1.629c-.21.572-.6,1.84-1.17,3.766s-1.084,3.894-1.536,5.849c-.253,1.181-.467,2.408-.635,3.645l-.011.076-.03.071a1.988,1.988,0,0,0-.215.872,1.788,1.788,0,0,1-.26,1.151,2.337,2.337,0,0,1-.75.749,1.48,1.48,0,0,1-.8.225A1.888,1.888,0,0,1,847.55-171.392Zm27.63-1.615a3.041,3.041,0,0,1,.108-1.495,4.62,4.62,0,0,1,.787-1.387,3.877,3.877,0,0,0,.65-1.247l.016-.05.025-.048a11.388,11.388,0,0,1,.787-1.318c1.955-4.052,3.443-7.15,4.423-9.21s2.085-4.792,3.3-8.161c.126-.41.254-.8.382-1.159-.468.011-.947.016-1.432.016-1.241.057-2.371.128-3.356.212-1.012.086-1.737.13-2.218.131-.247.021-.542.049-.88.085l-.142.385a10.775,10.775,0,0,1-.153,1.248,1.863,1.863,0,0,1-.067,1.134,1.247,1.247,0,0,0-.032.541l.005.063-.009.062c-.01.075-.039.3.345.624a1.725,1.725,0,0,0,.536.206c.209.028.443.057.7.085a1.359,1.359,0,0,1,.931.506,1.339,1.339,0,0,1,.572,1.678,1.612,1.612,0,0,1-1.655,1.289h-.112l-.1-.04c-.356-.137-.724-.262-1.094-.372-.388-.114-.806-.238-1.243-.364a2.111,2.111,0,0,1-1.318-1.069,3.883,3.883,0,0,1-.554-1.975c-.029-.717-.029-1.351,0-1.884.023-.4.085-.976.189-1.732l-.241.04a1.5,1.5,0,0,0-.45.108,1.01,1.01,0,0,1-1.13.274.171.171,0,0,0-.049-.011l-.009.005a1.823,1.823,0,0,1-.921.293c-.2.012-.511.05-.94.116a1.154,1.154,0,0,1-.735.265,1.2,1.2,0,0,1-.218-.02,2.171,2.171,0,0,1-.871.22.878.878,0,0,0-.369.094,8.569,8.569,0,0,1-.9.347l-.032.01a4.336,4.336,0,0,1-1,.148,4.929,4.929,0,0,1-1.164.389,1.849,1.849,0,0,1-.783.447,3.089,3.089,0,0,0-.742.355,2.7,2.7,0,0,1-1.4.644.817.817,0,0,1-.2-.024,2.039,2.039,0,0,1-.934-.643,1.72,1.72,0,0,1-.552-1.165,1.823,1.823,0,0,1,.368-1.055,2.3,2.3,0,0,1,1.12-.8c.379-.14.813-.311,1.291-.508l.029-.012,1.5-.527a11.168,11.168,0,0,1,1.458-.339c.3-.041.691-.077,1.16-.1a2.254,2.254,0,0,1,1.153-.239,2.579,2.579,0,0,1,.763-.256,3.989,3.989,0,0,1,.816-.042,1.68,1.68,0,0,1,.887-.221,2.669,2.669,0,0,1,.275.014c1-.149,2.1-.289,3.277-.417.08-.484.184-1.15.31-1.989a17.51,17.51,0,0,1,.56-2.675,3.317,3.317,0,0,1,1.021-1.571,1.455,1.455,0,0,1,1.182-.477,1.384,1.384,0,0,1,1.261.625,2.032,2.032,0,0,1,.326.92,2.4,2.4,0,0,1-.137.921,1.7,1.7,0,0,1-.586.809,9.912,9.912,0,0,1-.274,1.124,4.49,4.49,0,0,1-.328.739,1.4,1.4,0,0,1-.23,1c-.012.076-.023.152-.037.228.429-.042.784-.072,1.061-.091h.013c.625-.028,2.025-.1,4.159-.214,1.164-.076,2.263-.119,3.276-.128.289-.757.486-1.319.587-1.678a1.647,1.647,0,0,1,.452-1.239l.011-.011a.157.157,0,0,0,0-.016,1.457,1.457,0,0,1,.287-1.091,1.592,1.592,0,0,1,.11-.878,1.309,1.309,0,0,0,.087-.41,1.8,1.8,0,0,1,.936-1.643,2.185,2.185,0,0,1,1.211-.343h.115l.108.043a2.09,2.09,0,0,1,1.178,1.008,2.649,2.649,0,0,1,.273,1.139,1.961,1.961,0,0,1-.475,1.235l-.007.009a2.7,2.7,0,0,0-.511.932,7.9,7.9,0,0,1-.577,1.364,3.924,3.924,0,0,0-.293.832,6.253,6.253,0,0,1-.239.743h2.1c.458,0,1.192.007,2.179.022s2.739.079,5.2.194l.029,0a6.159,6.159,0,0,1,1.293.2,1.564,1.564,0,0,1,.816.729,2.505,2.505,0,0,1,.324,1.322,1.387,1.387,0,0,1-.6,1.316,2.371,2.371,0,0,1-.919.291,4.94,4.94,0,0,1-.98,0l-.059-.005-.058-.017c-.274-.083-.529-.151-.76-.206a2.729,2.729,0,0,1-.853-.358.384.384,0,0,0-.272-.059,1.585,1.585,0,0,1-1.06-.241.386.386,0,0,0-.234-.078,2.5,2.5,0,0,1-.878-.109,4.455,4.455,0,0,0-1.1-.083h-.106l-.1-.036a1.312,1.312,0,0,0-.685-.058l-.089.015-.09-.013c-.6-.081-1.231-.15-1.883-.206a4.827,4.827,0,0,1-1.291-.007c-.227-.023-.57-.045-1.021-.068a.509.509,0,0,0-.054.156,3.625,3.625,0,0,1-.21.75,6.975,6.975,0,0,1-.472.866,12.762,12.762,0,0,0-.76,1.9,2.466,2.466,0,0,1-.346.9,3.458,3.458,0,0,0-.317.76c-.152.456-.5,1.257-1.057,2.45-.539,1.15-1.072,2.324-1.583,3.488l-.01.021c-.481.989-.946,2.013-1.384,3.045a24.463,24.463,0,0,1-1.265,2.6c-.137.463-.256.839-.354,1.12a2.675,2.675,0,0,1-.518.869,2.885,2.885,0,0,1-.529,1.313,1.818,1.818,0,0,1-.425,1.028c0,.005,0,.014,0,.03a1.737,1.737,0,0,1-.305,1.007,1.72,1.72,0,0,1-.332,1.273,2.091,2.091,0,0,0-.332.551c-.3.715-1.261.868-1.576.919a2.768,2.768,0,0,1-.43.037A1.207,1.207,0,0,1,875.18-173.007Zm61.245.3a1.82,1.82,0,0,1-1.223-.68,2.627,2.627,0,0,1-.466-.866,2.409,2.409,0,0,1-.039-1,1.541,1.541,0,0,1,.67-1.067c.3-.4.565-.743.8-1.02a3.27,3.27,0,0,1,.8-.691,2.247,2.247,0,0,1,.668-.757c.37-.373.77-.814,1.193-1.314a11.118,11.118,0,0,1,.982-1.332c.241-.267.644-.805,1.2-1.6.575-.821,1.484-2.035,2.7-3.611,1.2-1.553,2.353-3.143,3.428-4.726.254-.424.535-.883.832-1.367s.585-.939.844-1.341.472-.737.642-1.005a7.682,7.682,0,0,0,.438-.8q.215-.451.408-.858c.079-.168.243-.567.57-1.513.023-.473.026-.729.023-.867a5.339,5.339,0,0,1-.721-.4,5.711,5.711,0,0,1-1.53-.157,1.565,1.565,0,0,0-.622-.06,5.31,5.31,0,0,0-.792.135,6.492,6.492,0,0,1-1.062.156,2.05,2.05,0,0,1-1.082.4c-.04,0-.1.057-.125.091l0,0a3.31,3.31,0,0,1-.969.739,1.5,1.5,0,0,1-.7.178,1.51,1.51,0,0,1-.9-.311c-.333-.242-.558-.414-.687-.527a1.392,1.392,0,0,1-.417-.948,1.5,1.5,0,0,1,.284-1.005c-.641.592-1.281,1.2-1.91,1.822-.865.851-1.49,1.476-1.858,1.858-.344.356-.7.712-1.071,1.057a1.51,1.51,0,0,1-.758.868,3.022,3.022,0,0,1-.546.773,3.766,3.766,0,0,1-.837.868,3.354,3.354,0,0,1-.333.609,1.107,1.107,0,0,0-.033.355,2.214,2.214,0,0,1,.521,1.19,1.609,1.609,0,0,1-.778,1.458,2.107,2.107,0,0,1-1.236.491,1.274,1.274,0,0,1-.2-.016,1.762,1.762,0,0,1-1-.49,4.03,4.03,0,0,1-.49-.586,2.126,2.126,0,0,1-.419-1.9,7.428,7.428,0,0,1,.539-1.472l.013-.025.015-.024a8.806,8.806,0,0,1,.968-1.291,3.883,3.883,0,0,0,.557-.715,4.746,4.746,0,0,1,.762-.971c.331-.345.861-.883,1.578-1.6l.04-.037a1.907,1.907,0,0,0,.358-.41,4.744,4.744,0,0,1,.566-.69,6.8,6.8,0,0,1,1.291-1.37,7.291,7.291,0,0,0,1.283-1.4l.08-.116.124-.069c.247-.137.5-.291.766-.455a.806.806,0,0,0,.331-.456l.076-.227.211-.113a2.923,2.923,0,0,0,.923-.781,1.789,1.789,0,0,1,.725-.622.557.557,0,0,0,.192-.17,5.057,5.057,0,0,1,.832-.741l.016-.012a6.4,6.4,0,0,0,.607-.468,2.339,2.339,0,0,1,1.115-.486l.062-.013h.064a2.5,2.5,0,0,1,1.462.41l.015.011a2.218,2.218,0,0,1,.828.966,1.5,1.5,0,0,1-.108,1.168,1.566,1.566,0,0,1-.869.841,7.038,7.038,0,0,1-.752.236,3.413,3.413,0,0,0-.825.4,13.278,13.278,0,0,0-1.9,1.442,3.432,3.432,0,0,1,.578-.26,1.905,1.905,0,0,1,1.3-.373c.512-.154.93-.285,1.242-.389a3.787,3.787,0,0,1,1.2-.2c.333,0,.8.008,1.39.022s.994.022,1.231.022a6.347,6.347,0,0,1,1.269.186l.048.011.045.018a2.011,2.011,0,0,0,.627.151,2.3,2.3,0,0,1,.958.263,3.065,3.065,0,0,1,.862.743,4.665,4.665,0,0,1,.665,1.012,2.941,2.941,0,0,1,.232,1.42,2.351,2.351,0,0,1-.151,1.319,3.4,3.4,0,0,0-.245.858,1.112,1.112,0,0,1-.523.872.173.173,0,0,0-.016.039,6.519,6.519,0,0,1-.284.689,3.065,3.065,0,0,1-.665.872,2.226,2.226,0,0,1-.717,1.17,1.543,1.543,0,0,1-.541,1.156l-.023.023-.026.021a2.234,2.234,0,0,0-.361.33,1.662,1.662,0,0,1-.455.529.239.239,0,0,0-.038.122l-.031.253-.2.153a.968.968,0,0,0-.3.3,3.855,3.855,0,0,1-.4.635c-.142.185-.7.923-1.716,2.254-1.224,1.608-1.646,2.232-1.784,2.472a4.544,4.544,0,0,1-.739.967,1.245,1.245,0,0,1-.624.824,2.639,2.639,0,0,0-.4.484,4.149,4.149,0,0,0-.366.612,1.405,1.405,0,0,1-.588.642,2.049,2.049,0,0,0-.2.484,1.991,1.991,0,0,1-.81,1.055,1.447,1.447,0,0,0-.471.6,2.637,2.637,0,0,1-.559.97,3.653,3.653,0,0,0-.388.509,1.552,1.552,0,0,1-.406.886,3.717,3.717,0,0,1-.391.37,1.039,1.039,0,0,1-.615.92,1.529,1.529,0,0,0-.122.259l-.045.119-.09.09a2.89,2.89,0,0,0-.355.445,2.051,2.051,0,0,0-.258.683l-.025.107-.06.091c-.11.165-.243.374-.4.625a1.255,1.255,0,0,1-1.114.6A1.829,1.829,0,0,1,936.425-172.71Zm-21.714-2.231a4.224,4.224,0,0,0-.443-.346,1.778,1.778,0,0,1-.677-1.4,3.783,3.783,0,0,1,.026-.958,1.7,1.7,0,0,1,.624-1.085.829.829,0,0,0,.272-.4,17.879,17.879,0,0,1,.647-2.346,2.819,2.819,0,0,0,.2-.632c.026-.181.046-.409.059-.675a3.682,3.682,0,0,1,.152-.886,2.418,2.418,0,0,1,.139-.7.644.644,0,0,0,0-.355l-.063-.284.185-.226a.706.706,0,0,0,.211-.535,2.165,2.165,0,0,1,.133-.988,1.53,1.53,0,0,1,.106-1.012,1.014,1.014,0,0,1,.1-.83,2.591,2.591,0,0,1,.187-1.1,1.563,1.563,0,0,0-.064-.555l-.031-.093v-.1a5.4,5.4,0,0,1,.1-1.19.924.924,0,0,0,.019-.4,5.411,5.411,0,0,1-.1-.872,1.291,1.291,0,0,0-.209-.618,1.2,1.2,0,0,1-.185-1.318,7.265,7.265,0,0,1,.375-.7,1.487,1.487,0,0,1,.909-.65,1.779,1.779,0,0,1,.483-.068,1.857,1.857,0,0,1,.669.129,1.8,1.8,0,0,1,.893.735,2.485,2.485,0,0,1,.263,1.452,26.911,26.911,0,0,1-.2,3.88c-.127.807-.394,2.789-.792,5.891l-.007.041c-.141.708-.256,1.31-.341,1.791s-.216,1.237-.386,2.231l0,.024c-.283,1.327-.482,2.384-.595,3.142l-.006.036a8.845,8.845,0,0,1-.35,1.3,1.472,1.472,0,0,1-1.134.883l-.027.005a2.412,2.412,0,0,1-.43.044A.951.951,0,0,1,914.711-174.941Zm84.512-.126a1.289,1.289,0,0,1-1.39-1.019,7.4,7.4,0,0,1-.14-1.1,3.458,3.458,0,0,1,.082-.989c.6-2.408,1.047-4.062,1.322-4.916a13.812,13.812,0,0,0,.471-1.838,2.315,2.315,0,0,1-.483-.932,2.076,2.076,0,0,1,.113-1.291,1.548,1.548,0,0,1,1.235-.87c.529-1.7,1.066-3.677,1.595-5.874.571-2.367,1.148-4.68,1.719-6.876a7.613,7.613,0,0,1,.374-1.273,1.656,1.656,0,0,1,.834-.89,2.4,2.4,0,0,1,1.286-.161,1.323,1.323,0,0,1,1.235,1.106,2.3,2.3,0,0,1,.028,1.059,3.279,3.279,0,0,1-.743,1.073,9.408,9.408,0,0,0-.473,1.052c-.15.4-.4,1.2-.736,2.38-.342,1.2-.782,2.765-1.31,4.658-.427,1.536-.787,2.876-1.076,3.993a16.222,16.222,0,0,0,4.844-.792,19.75,19.75,0,0,0,4.566-2.1,12.533,12.533,0,0,0,2.555-2.012l.03-.035.034-.03A7.073,7.073,0,0,0,1016.3-194a13.552,13.552,0,0,1,.807-1.58,5.018,5.018,0,0,0,.351-2.73c-.085-1.159-.913-2.24-2.461-3.211a4.2,4.2,0,0,1-1.043-.645.239.239,0,0,0-.2-.078,1.387,1.387,0,0,1-1.053-.453,1.212,1.212,0,0,1-.625-.352c-.064,0-.126.006-.186.006a2.023,2.023,0,0,1-.886-.185,2.1,2.1,0,0,1-.232.014,1.307,1.307,0,0,1-.684-.171,1.5,1.5,0,0,1-.975-.168.339.339,0,0,0-.113.034l-.212.094-.22-.074a1.686,1.686,0,0,0-.5-.107.357.357,0,0,0-.044,0,1.066,1.066,0,0,1-.16.012,1.192,1.192,0,0,1-.594-.162,1.729,1.729,0,0,1-.643.132,1.331,1.331,0,0,1-.307-.035.565.565,0,0,0-.068-.012.846.846,0,0,1-.523.171,1.456,1.456,0,0,1-.655-.183,3.977,3.977,0,0,1-.743.146.7.7,0,0,0-.292.078c-.177.1-.406.2-.7.327a1.234,1.234,0,0,1-.936.042,4.023,4.023,0,0,1-.735.248,1.1,1.1,0,0,0-.284.091,1.251,1.251,0,0,1-.815.235h-.04a2.417,2.417,0,0,1-.795.378.938.938,0,0,0-.437.252l-.035.035-.041.029a7.085,7.085,0,0,1-.94.543,1.512,1.512,0,0,0-.262.158,4.035,4.035,0,0,1-.14.635,1.366,1.366,0,0,1-.82.9,2.13,2.13,0,0,1-1.191.1,1.377,1.377,0,0,1-1.12-1.052,2.8,2.8,0,0,1,0-1.446,2.9,2.9,0,0,1,.628-1.241,3.941,3.941,0,0,1,1.211-.868l.013-.006a24.836,24.836,0,0,1,5.725-1.894h.006a26.174,26.174,0,0,1,4.75-.44h.973a21.749,21.749,0,0,1,5.855,1.126,10.709,10.709,0,0,1,5.024,3.435l.014.018a5.738,5.738,0,0,1,.813,1.419,12.584,12.584,0,0,1,.453,1.625,7.46,7.46,0,0,1,.141,2.219l-.005.051a9.242,9.242,0,0,1-1.148,3.147,11.345,11.345,0,0,1-1.662,2.27,22.289,22.289,0,0,1-2.055,1.769,23.069,23.069,0,0,1-2.757,1.831,23.862,23.862,0,0,1-4.3,1.747,27.438,27.438,0,0,1-6.07,1.136,16.531,16.531,0,0,0-.93,3.326c-.1.861-.188,1.547-.26,2.038a6.141,6.141,0,0,0-.068,1.044,2,2,0,0,1,.426.843,1.66,1.66,0,0,1-.13,1.121,2.085,2.085,0,0,1-.985,1.1,1.744,1.744,0,0,1-.714.15A2.041,2.041,0,0,1,999.222-175.067Zm60.574-.315a2.1,2.1,0,0,1-.993-.8l-.019-.027-.016-.03a5.021,5.021,0,0,1-.439-1.075,10.648,10.648,0,0,1-.252-1.369,4.727,4.727,0,0,1-.016-1.458c.057-.3.215-1.156.472-2.549.258-1.5.558-2.933.889-4.272.326-1.318.627-2.654.9-3.972a25.861,25.861,0,0,1,1.023-3.688c.114-.455.205-.8.278-1.045a3.871,3.871,0,0,0,.13-.631,36.306,36.306,0,0,1,1.008-3.728,3.591,3.591,0,0,1,.81-1.624l.024-.023c-.357-.009-.747-.02-1.166-.034a17.163,17.163,0,0,1-2.149.235l-1.7.043a5.374,5.374,0,0,0-1.084.087c-.154.04-.523.118-1.941.315-1,.139-2.26.363-3.753.665a6.96,6.96,0,0,1-.8.363,1.381,1.381,0,0,0-.321.182c-.173.12-.37.269-.586.445a1.626,1.626,0,0,1-1.433.27,2.054,2.054,0,0,1-1.109-.547,2.669,2.669,0,0,1-.476-.777,1.653,1.653,0,0,1-.116-.447c-.094.011-.193.019-.3.023l-.036,0-.036,0a5.038,5.038,0,0,1-1.218-.244l-.041-.014-.039-.019c-.3-.151-.526-.271-.685-.365a.077.077,0,0,0-.049-.012.272.272,0,0,0-.044,0,1.7,1.7,0,0,1-.965-.2,1.8,1.8,0,0,1-1.04.007l-.017-.005a1.722,1.722,0,0,0-.375-.094.96.96,0,0,1-.255.031,2.352,2.352,0,0,1-.7-.137,2.31,2.31,0,0,1-.858.073,1.032,1.032,0,0,1-.192.017,1.478,1.478,0,0,1-.755-.237,2.9,2.9,0,0,1-.735.119,5.2,5.2,0,0,1-1.056-.158,3.664,3.664,0,0,1-.685.072,2.227,2.227,0,0,1-.442-.041,2.016,2.016,0,0,1-1.026.168c-.325-.027-.619-.041-.874-.041h-.752a5,5,0,0,0-.613.038,3.521,3.521,0,0,1-.854,0,.941.941,0,0,0-.1,0,6.894,6.894,0,0,0-1.08.129c-.361.063-.716.126-1.063.189a1.406,1.406,0,0,1,.06.826,2.384,2.384,0,0,1-.367.828c-.3.886-.635,1.818-1.005,2.777a3.043,3.043,0,0,1-.221,1.221c-.127.315-.242.617-.346.9a2.626,2.626,0,0,1-.355,1.291,9.012,9.012,0,0,1-.176,1.164c.078,0,.154,0,.226-.006.283-.014.526-.033.723-.059a2.9,2.9,0,0,1,.617-.018,1.954,1.954,0,0,1,1.177-.141.391.391,0,0,0,.262-.013,1.4,1.4,0,0,1,.818-.087,1.718,1.718,0,0,1,.711-.183.955.955,0,0,1,.373.072.469.469,0,0,0,.114-.037,1.212,1.212,0,0,1,1.015.013c.3-.08.518-.143.66-.186a1.338,1.338,0,0,1,.8.012,1.375,1.375,0,0,1,.806-.037,1.757,1.757,0,0,1,.9-.282l.074,0c.242.014.507.036.788.063a3.058,3.058,0,0,0,.548-.054,7.677,7.677,0,0,1,1.271-.075,6.28,6.28,0,0,0,1.129-.074,2.27,2.27,0,0,1,1.147.1,1.81,1.81,0,0,1,1.1.122,1.261,1.261,0,0,1,.73,1.138,2.769,2.769,0,0,1-.165,1.1,1.5,1.5,0,0,1-.914.914,1.534,1.534,0,0,1-.53.087,3.381,3.381,0,0,1-1.062-.207c-.456-.027-.821-.055-1.085-.083a2.751,2.751,0,0,0-.615,0l-.037,0h-2.56a3.056,3.056,0,0,1-1.123.131c-.287.027-.572.06-.846.1-.319.046-.657.077-1,.092a2.75,2.75,0,0,0-.685.1,4.6,4.6,0,0,1-.765.173,3.686,3.686,0,0,1-.482.027c-.157,0-.337-.006-.537-.019-.332.052-.6.1-.79.136a6.069,6.069,0,0,1-.908.1,2.006,2.006,0,0,0-.7.147,2.568,2.568,0,0,1-1.287.151,1.594,1.594,0,0,0-.838.21,11.1,11.1,0,0,0-.707,2.029,26.765,26.765,0,0,0-.588,3.151c-.191,1.46-.231,1.978-.231,2.156,0,.3-.015.626-.045.957a2.231,2.231,0,0,0,.02.538,1.885,1.885,0,0,0,.625.141c.041,0,.114.005.244.005.571,0,1.726-.059,3.435-.177,2.059-.142,3.52-.257,4.341-.342s1.5-.141,2.072-.171a2.9,2.9,0,0,1,.718-.09c.183,0,.412-.012.682-.035a5.945,5.945,0,0,1,1.649-.229l.2,0a5.439,5.439,0,0,1,1.357-.176l.149,0a3.215,3.215,0,0,1,1.129-.21,6.261,6.261,0,0,1,1.029-.1c.068,0,.137,0,.2.005a2.308,2.308,0,0,1,1.669.2,1.481,1.481,0,0,1,.975,1.465,1.652,1.652,0,0,1-.533,1.184,2.7,2.7,0,0,1-.694.44,1.2,1.2,0,0,1-1.014-.039s-.017,0-.054.014a2.5,2.5,0,0,1-.82.2,2.618,2.618,0,0,1-.951-.134.446.446,0,0,0-.292-.021,2,2,0,0,1-.918.155c-.064,0-.154-.006-.268-.006-.242,0-.588.009-1.027.028-.571.057-1.234.114-1.974.171-.758.059-1.284.094-1.608.109-.3.014-.707.049-1.207.1-.533.059-1.612.13-3.3.217a18.623,18.623,0,0,0-2.986.281,10.427,10.427,0,0,1-1.9.275,3.428,3.428,0,0,1-1.719-.063,4.4,4.4,0,0,1-1.644-.94l-.013-.012a2.21,2.21,0,0,1-.711-1.844,4.006,4.006,0,0,1,.107-1.448,4.807,4.807,0,0,0,.154-1.092,2.072,2.072,0,0,1,.183-1.2l.045-.1.077-.077a.127.127,0,0,0,.043-.129,3.514,3.514,0,0,1,0-.853l.01-.08.031-.074a3.249,3.249,0,0,0,.278-.9,3.315,3.315,0,0,1,.207-.946c.052-.139.276-.96,1.2-4.892.725-3.075,1.149-4.815,1.3-5.317.139-.472.307-1.091.5-1.841a4.66,4.66,0,0,1,.293-1.123,5.353,5.353,0,0,0,.269-.869c.029-.126.057-.265.083-.414a3.033,3.033,0,0,1-.567.114c-.236.028-.5.063-.776.1a1.46,1.46,0,0,0-.532.179,1.006,1.006,0,0,0-.28.211,1.587,1.587,0,0,1-1.126.492l-.025,0a2.936,2.936,0,0,1-1.244-.181,1.539,1.539,0,0,1-1.005-.752c-.053-.132-.129-.3-.223-.507a1.227,1.227,0,0,1,.015-1.139,2.484,2.484,0,0,1,.643-.74,2.051,2.051,0,0,1,1.117-.454c.3-.028.851-.086,1.647-.171h.016c3.946-.315,7.021-.5,9.141-.561,1.656-.057,3.369-.086,5.087-.086h1.339c2.134.029,3.61.058,4.387.086a11.864,11.864,0,0,1,1.917.116,5.125,5.125,0,0,1,1.242.367,1.625,1.625,0,0,1,.932,1.076,2,2,0,0,1,.049.236c.556-.139,1.008-.232,1.375-.285.415-.059,2.351-.243,5.918-.562,3.522-.315,6.579-.5,9.088-.54,1.5-.025,2.859-.039,4.042-.039.789,0,1.518.006,2.166.017,1.872.033,2.573.08,2.891.118a4.6,4.6,0,0,1,1.408-.117l.063,0,.061.017c.3.082.554.144.755.184a5.494,5.494,0,0,1,.652.17,1.613,1.613,0,0,1,.8.659,1.791,1.791,0,0,1,.3,1.211,1.424,1.424,0,0,1-.7,1.15,4.319,4.319,0,0,1-.7.347,1.549,1.549,0,0,1-.538.086,2.9,2.9,0,0,1-.421-.034,2.264,2.264,0,0,1-.991-.384,1.747,1.747,0,0,0-.752-.193l-.023,0c-.539-.085-1.181-.212-1.909-.379a4.3,4.3,0,0,1-1.259-.139.2.2,0,0,0-.052-.01.084.084,0,0,0-.046.016,1.063,1.063,0,0,1-.569.158,1.456,1.456,0,0,1-.548-.115,2.1,2.1,0,0,1-1.091-.044,3.164,3.164,0,0,0-.921-.124c-.391,0-.917.014-1.564.042l-.193.006a1.823,1.823,0,0,1,.541.689,1.755,1.755,0,0,1-.217,1.764c-.141.419-.3.823-.467,1.2a7.946,7.946,0,0,1-.554,1.034,1.921,1.921,0,0,1-.211.943c-.049.082-.143.252-.319.6a2.359,2.359,0,0,1-.378,1.092c-.449,1.772-.994,4.008-1.618,6.646a50.149,50.149,0,0,0-1.168,6.235l0,.031-.005.03a5.243,5.243,0,0,0-.161,1.3,1.747,1.747,0,0,1,.325.829c.146.239.3.479.47.715a2.083,2.083,0,0,1,.409,1.2,2.364,2.364,0,0,1-.337,1.178,1.693,1.693,0,0,1-1.091.844,2.182,2.182,0,0,1-.508.061A2.013,2.013,0,0,1,1059.8-175.382Zm-103.832-1.086a1.307,1.307,0,0,1-.724-1.526,1.667,1.667,0,0,1,.7-1.26,1.969,1.969,0,0,1,.837-.956,1.6,1.6,0,0,1,.779-.787,1.921,1.921,0,0,1,.623-.7,1.573,1.573,0,0,0,.41-.436,4.814,4.814,0,0,1,.687-.809,2.172,2.172,0,0,0,.33-.352c.066-.1.139-.231.219-.378a1.283,1.283,0,0,1,.595-.531,1.918,1.918,0,0,1,.239-.518,2.438,2.438,0,0,1,.367-.39,1.826,1.826,0,0,1,.616-.756,1.229,1.229,0,0,0,.213-.176,1.433,1.433,0,0,1,.681-.879,1.794,1.794,0,0,1,.463-.612,1.557,1.557,0,0,1,.473-.751c.219-.33.5-.774.84-1.322.364-.589.755-1.272,1.163-2.03.38-.706.7-1.322.94-1.833a1.4,1.4,0,0,1,.469-1.146.092.092,0,0,0,.041-.062,4.75,4.75,0,0,0,.094-.514,1.52,1.52,0,0,1,.522-.908c.095-.429.248-1.02.464-1.794.027-.651.048-1.127.062-1.416a1.222,1.222,0,0,1,.882-1.142,2.6,2.6,0,0,1,.822-.136,2.485,2.485,0,0,1,.356.025,2.017,2.017,0,0,1,1.156.6,1.485,1.485,0,0,1,.47,1.308c-.04.274-.09.738-.146,1.382l-.016.187-.121.145a1.273,1.273,0,0,0-.338.584,1.326,1.326,0,0,1-.65,1.027.634.634,0,0,0-.078.325l-.012.167-.1.137a11.211,11.211,0,0,0-.932,1.619,15.035,15.035,0,0,1-.937,1.891c-.288.475-.536.876-.737,1.193l-.007.011c-.222.333-.563.888-1.014,1.649-.465.785-.967,1.552-1.49,2.279-.508.707-1.148,1.634-1.9,2.756s-1.718,2.48-2.857,4.017a10.3,10.3,0,0,1-.785,1.139c-.231.285-.488.639-.762,1.051l-.065.1-.1.066a3.26,3.26,0,0,1-1.578.685l-.115,0A2.655,2.655,0,0,1,955.964-176.468Zm22.01-3.883a6.462,6.462,0,0,1-1.217-.149c-.207-.055-.562-.14-1.054-.253a3.2,3.2,0,0,1-1.85-1.545l-.036-.055-.023-.06a5.661,5.661,0,0,1-.245-3.025,21.4,21.4,0,0,1,.686-2.808c.274-.848.688-2.039,1.232-3.543s1.094-2.985,1.636-4.414l.015-.041.023-.04a2.553,2.553,0,0,0,.31-.681,1.663,1.663,0,0,1,.378-.974.836.836,0,0,0,.138-.235,2.086,2.086,0,0,1,.3-.923,8.21,8.21,0,0,1,.4-1.094,2.124,2.124,0,0,1,1.4-1.055l.106-.033.112.007a2.186,2.186,0,0,1,1.461.6,1.55,1.55,0,0,1,.393,1.542,3.929,3.929,0,0,1-.751,1.414c-.344.585-.453.8-.487.876-.05.111-.167.342-.586,1.067-.4.991-.723,1.75-.968,2.255-.22.454-.438.92-.647,1.387a2.029,2.029,0,0,1-.573,1.368.947.947,0,0,1-.146.657,2.112,2.112,0,0,0-.2.417,1.461,1.461,0,0,0-.072.485,1.045,1.045,0,0,1-.429.891,1.685,1.685,0,0,0-.067.435.93.93,0,0,1-.348.813,1.592,1.592,0,0,0-.053.43,1.017,1.017,0,0,1-.231.908,3.249,3.249,0,0,1-.234.956,1.23,1.23,0,0,1-.056.8.336.336,0,0,0-.023.236.565.565,0,0,0,.212.243,1.314,1.314,0,0,0,.563.234,4.971,4.971,0,0,0,.881.076,5.729,5.729,0,0,0,1.595-.212,8.661,8.661,0,0,1,1.276-.287,3.875,3.875,0,0,1,.909-.346l.047-.01.049,0a2.227,2.227,0,0,0,.466-.063,1.523,1.523,0,0,1,.932-.419,2.133,2.133,0,0,1,.825-.423,2.066,2.066,0,0,0,.6-.267c.253-.164.863-.522,1.867-1.1a3.221,3.221,0,0,1,1.26-.711.326.326,0,0,0,.043-.046,1.671,1.671,0,0,1,.607-.49c.11-.049.253-.1.433-.167a1.784,1.784,0,0,1,.92-.716q.247-.078.5-.142a1.323,1.323,0,0,1,.644-.655c.292-.154.539-.287.733-.4a5.12,5.12,0,0,0,.739-.574,4.292,4.292,0,0,1,1.621-.854l.833-.257a.9.9,0,0,1,.272-.041,1.289,1.289,0,0,1,1,.583,2.485,2.485,0,0,1,.536,1.271c.108.9-.812,1.5-1.139,1.706a6.531,6.531,0,0,1-.886.555c-.222.112-.519.242-.905.4a1.942,1.942,0,0,1-.665.438,3.373,3.373,0,0,0-.51.255c-.2.123-.425.247-.669.37l-.688.343c-.463.231-.859.423-1.181.569a5.336,5.336,0,0,0-.635.325,2.8,2.8,0,0,1-.787.31,1.921,1.921,0,0,1-.874.513,1.3,1.3,0,0,0-.394.156,1.936,1.936,0,0,1-.83.357,1.229,1.229,0,0,1-.645.433,1.419,1.419,0,0,0-.433.229,1.765,1.765,0,0,1-.9.346,12.659,12.659,0,0,1-2.111.882c-.732.229-1.337.412-1.8.542s-.908.238-1.3.312a6.71,6.71,0,0,1-1.273.119Zm-74.666-3.414a2.978,2.978,0,0,1-.99-.773,2.492,2.492,0,0,1-.772-1.4,2.1,2.1,0,0,1,.3-1.547,8.685,8.685,0,0,1,.9-1.128c.5-.561.878-.958,1.149-1.215a1.26,1.26,0,0,0,.341-.432,1.282,1.282,0,0,1,.919-.755,3.064,3.064,0,0,1,.653-.593,3.561,3.561,0,0,1,1-.984,18.645,18.645,0,0,1,1.939-1.675c.348-.29.984-.8,1.888-1.524s2.021-1.58,3.28-2.525,2.875-2.087,4.792-3.389c1.949-1.324,3.3-2.183,4.128-2.628a4.281,4.281,0,0,1,1.612-.632l.027,0h.07a2.08,2.08,0,0,1,1.325.522l.023.019.022.021a1.581,1.581,0,0,1,.5,1.559,1.994,1.994,0,0,1-.544,1.029,1.769,1.769,0,0,1-.9.426,3.6,3.6,0,0,1-.851.051h-.039a.327.327,0,0,0-.193.051l-.032.021-.033.017c-.326.163-.669.328-1.02.491a1.758,1.758,0,0,1-.847.368,4.136,4.136,0,0,1-.837.662c-.352.216-.694.449-1.018.691a2.305,2.305,0,0,1-.855.429,1.017,1.017,0,0,0-.4.236,1.117,1.117,0,0,1-.628.518,1.641,1.641,0,0,1-.891.558,5.244,5.244,0,0,1-.894.851l-.045.032-.05.024a6.333,6.333,0,0,0-1.453.941l-.058.051-.069.034a2.873,2.873,0,0,0-.815.642l-.041.045-.049.035c-.329.239-.663.46-.993.654a2.656,2.656,0,0,0-.7.616l-.037.044-.043.037c-.354.294-.725.577-1.108.842-.332.249-.761.594-1.276,1.026a3.613,3.613,0,0,0-.864.894,1.5,1.5,0,0,1-.812.723,1.7,1.7,0,0,1-.767.683,6.113,6.113,0,0,1-.65.731,1.147,1.147,0,0,0-.27.324,1.632,1.632,0,0,1-.414.572.885.885,0,0,0-.163.238,1.959,1.959,0,0,1-.269.388c.147.083.292.167.432.249a1.444,1.444,0,0,1,.718,1.047,1.316,1.316,0,0,1-.457,1.235,3.356,3.356,0,0,0-.419.416,1.439,1.439,0,0,1-1.131.461l-.105,0A2.713,2.713,0,0,1,903.307-183.766Zm-60.848-3.8c-.252-.089-.508-.187-.76-.291a5.668,5.668,0,0,1-1.022-.589,6.592,6.592,0,0,1-1.4-1.128,2.33,2.33,0,0,1-.7-1.479c-.014-.346-.035-.667-.063-.955a4.005,4.005,0,0,1,.05-1.088c.057-.314.176-.806.361-1.5a2.426,2.426,0,0,1-.046-.659,1.382,1.382,0,0,1,.215-.648,1.689,1.689,0,0,0,.04-.355,3.869,3.869,0,0,1,.341-1.325c.091-.549.241-1.248.45-2.083a10.365,10.365,0,0,1,.669-2.013l1.041-2.082.088-.078a2.453,2.453,0,0,1,1.132-.544,1.82,1.82,0,0,1,.368-.038,2,2,0,0,1,1.119.363,1.812,1.812,0,0,1,.842,1.309,1.361,1.361,0,0,1-.585,1.365c-.2.136-.41.283-.616.439-.133.315-.229.562-.286.734a2.139,2.139,0,0,1-.419.71,3.735,3.735,0,0,1-.406,1.445,4.206,4.206,0,0,1-.221,1,3.252,3.252,0,0,0-.158.527c-.115.722-.262,1.453-.436,2.175l0,.014a4.558,4.558,0,0,0-.151,1.177,9.6,9.6,0,0,0,.08,1.253l0,.02a.658.658,0,0,0,.1.346.515.515,0,0,0,.224.164,5.625,5.625,0,0,1,.772.384c.26.15.589.326.977.52l.033.016.031.021a1.322,1.322,0,0,1,.438,1.607,1.7,1.7,0,0,1-.94,1.235,1.733,1.733,0,0,1-.628.121A1.618,1.618,0,0,1,842.459-187.561ZM871.88-215.12a3.766,3.766,0,0,1-1.021-.18c-.364-.122-.8-.482-.8-1.515,0-.291,0-1.176.64-1.517a.952.952,0,0,0,.338-.334,2.064,2.064,0,0,1,1.045-.795c.3-.112.572-.221.8-.322a5.57,5.57,0,0,1,.859-.6,5.61,5.61,0,0,0,.537-.328,3.69,3.69,0,0,0,.553-.441l.027-.026.029-.023a6.327,6.327,0,0,1,1.525-.923,1.2,1.2,0,0,0,.412-.225,1.207,1.207,0,0,1,.7-.607,1.334,1.334,0,0,1,.778-.677.637.637,0,0,0,.131-.125,1.351,1.351,0,0,1,.666-.43,1.206,1.206,0,0,1,.8-.665l.045-.013a1.962,1.962,0,0,1,.728-.756c.322-.229.636-.467.932-.708a3.3,3.3,0,0,1,.906-.724q.167-.076.383-.162a1.376,1.376,0,0,1,.589-.622,1.63,1.63,0,0,1,.763-.585,1.246,1.246,0,0,1,.587-.618,5.491,5.491,0,0,1,.671-.743c-.625-1.105-1.1-1.948-1.42-2.507-.351-.618-.642-1.108-.865-1.455s-.408-.645-.573-.921a4.844,4.844,0,0,1-.44-.536,9.632,9.632,0,0,1-.6-1.012l-.007-.014c-.2-.391-.357-.7-.481-.92a2.527,2.527,0,0,1-.31-.958,1.528,1.528,0,0,1,.226-1.043,2.543,2.543,0,0,1,.946-.754,1.636,1.636,0,0,1,.78-.208,1.58,1.58,0,0,1,.925.311,1.9,1.9,0,0,1,.839,1.082c.06.26.119.6.178,1.038l.149.629a1.211,1.211,0,0,1,.4.667,1.133,1.133,0,0,0,.305.464,1.591,1.591,0,0,1,.455.975,1.365,1.365,0,0,1,.472.788,2.475,2.475,0,0,0,.309.675,2.2,2.2,0,0,1,.754,1c.067.165.15.351.251.556q.205-.2.379-.371a5.142,5.142,0,0,1,.814-.669,1.8,1.8,0,0,1,.958-.9.273.273,0,0,0,.174-.133,1.3,1.3,0,0,1,.813-.641,1.017,1.017,0,0,0,.136-.265l.071-.185.167-.106a1.61,1.61,0,0,0,.467-.384,4.307,4.307,0,0,1,.7-.758l.048-.043.056-.032c.185-.105.389-.234.6-.382a.421.421,0,0,0,.181-.289l.054-.268.237-.135a1.64,1.64,0,0,0,.346-.247,3.7,3.7,0,0,1,.76-.526,1.772,1.772,0,0,1,.526-.929c.158-.132.32-.255.48-.365.234-.313.457-.616.665-.9a3.371,3.371,0,0,1,.779-.78,5.154,5.154,0,0,1,.41-.768c.153-.229.33-.469.528-.712a1.946,1.946,0,0,1,.843-.637,3.484,3.484,0,0,1,1.147-.143,1.506,1.506,0,0,1,1.455,1.012,1.748,1.748,0,0,1-.224,1.953,9.542,9.542,0,0,1-.919.963l-.03.025a8.94,8.94,0,0,0-1.105.982,12.973,12.973,0,0,1-1.665,1.408c-1.226,1.2-2.5,2.372-3.8,3.5-1.2,1.044-2.7,2.382-4.462,3.983.283.367.643.819,1.075,1.35.615.754,1.071,1.282,1.356,1.567s.661.639,1.094,1.031.9.806,1.377,1.229c.247.192.594.441,1.031.742l.071.049.054.066a.936.936,0,0,0,.215.21l.076,0a1.258,1.258,0,0,1,1,.608,1.348,1.348,0,0,1,.584.452,1.211,1.211,0,0,1,.847.47l.063,0a1.775,1.775,0,0,1,1.167.585c.376.079.686.158.942.238a4.275,4.275,0,0,1,.914.428,1.555,1.555,0,0,1,1.02.518.368.368,0,0,0,.087.02,1.488,1.488,0,0,1,1.043.707,1.43,1.43,0,0,1-.018,1.606,1.754,1.754,0,0,1-1.181.934,2.162,2.162,0,0,1-1.129-.067,17.016,17.016,0,0,1-1.546-.715c-.723-.346-1.326-.656-1.792-.918s-.981-.587-1.509-.954a12.06,12.06,0,0,0-1.161-.735,4.461,4.461,0,0,1-1.142-.93,35.229,35.229,0,0,1-3.969-3.671c-.8-.9-1.68-1.868-2.607-2.874-2.117,2.009-4.421,4.015-6.858,5.97l-7.218,5.937a1.782,1.782,0,0,1-1.331.707C871.922-215.118,871.9-215.118,871.88-215.12Zm128.711-.348a1.309,1.309,0,0,1-.725-1.526,1.671,1.671,0,0,1,.7-1.26,1.973,1.973,0,0,1,.837-.956,1.6,1.6,0,0,1,.779-.786,1.934,1.934,0,0,1,.624-.7,1.572,1.572,0,0,0,.409-.436,4.845,4.845,0,0,1,.687-.808,2.172,2.172,0,0,0,.33-.352c.066-.1.139-.231.219-.378a1.278,1.278,0,0,1,.595-.531,1.9,1.9,0,0,1,.238-.518,2.429,2.429,0,0,1,.366-.39,1.829,1.829,0,0,1,.616-.756,1.271,1.271,0,0,0,.213-.176,1.433,1.433,0,0,1,.681-.879,1.784,1.784,0,0,1,.463-.612,1.553,1.553,0,0,1,.472-.752c.218-.33.5-.774.84-1.322.364-.589.755-1.272,1.163-2.03.38-.706.7-1.323.94-1.833a1.4,1.4,0,0,1,.469-1.147.09.09,0,0,0,.041-.062,4.734,4.734,0,0,0,.094-.514,1.523,1.523,0,0,1,.522-.908c.094-.428.247-1.019.464-1.793.027-.648.048-1.124.062-1.416a1.222,1.222,0,0,1,.882-1.142,2.579,2.579,0,0,1,.822-.137,2.489,2.489,0,0,1,.356.026,2.021,2.021,0,0,1,1.156.6,1.487,1.487,0,0,1,.47,1.309c-.04.273-.09.737-.146,1.381l-.016.188-.121.145a1.273,1.273,0,0,0-.337.584,1.326,1.326,0,0,1-.65,1.026.641.641,0,0,0-.078.326l-.012.166-.1.137a11.2,11.2,0,0,0-.931,1.619,15.062,15.062,0,0,1-.937,1.89c-.287.474-.535.876-.737,1.193l-.007.011c-.222.333-.563.888-1.014,1.649-.465.785-.967,1.552-1.49,2.279-.509.707-1.148,1.634-1.9,2.755s-1.717,2.479-2.856,4.018a10.3,10.3,0,0,1-.785,1.139c-.231.284-.488.638-.762,1.051l-.065.1-.1.066a3.256,3.256,0,0,1-1.579.684l-.119,0A2.643,2.643,0,0,1,1000.591-215.468Zm-28.526,0a1.4,1.4,0,0,1-.917-1.005,2.725,2.725,0,0,1-.053-.935,1.99,1.99,0,0,1,.365-.918l.536-.752a5.075,5.075,0,0,1,.663-.781,3,3,0,0,0,.376-.411c.117-.157.251-.357.4-.6a1.725,1.725,0,0,1,.8-.7,2.332,2.332,0,0,0,.306-.518,1.3,1.3,0,0,1,.382-.591.92.92,0,0,1,.648-.76,1.364,1.364,0,0,0,.3-.312,1.351,1.351,0,0,1,.5-.709.835.835,0,0,0,.22-.253,3.9,3.9,0,0,0,.261-.5,1.467,1.467,0,0,1,.586-.707,1.2,1.2,0,0,0,.271-.23,2.888,2.888,0,0,0,.284-.373,6.006,6.006,0,0,1,.36-.5l.03-.034c.393-.421.792-.869,1.184-1.332a12.249,12.249,0,0,0,.888-1.166c.2-.753.581-.911.734-.963a.768.768,0,0,0,.138-.205,1.657,1.657,0,0,1,.706-.908.194.194,0,0,0,.039-.023,1.647,1.647,0,0,1,.456-.531l.023-.02a1.444,1.444,0,0,1,.418-.725c.033-.063.069-.127.108-.193a1.765,1.765,0,0,1-.71.018,2.654,2.654,0,0,1-.839.184h-.4a1.017,1.017,0,0,1-.839.324l-.121,0a1.951,1.951,0,0,0-.657.083l-.168.05-.168-.049-.021,0a.21.21,0,0,0-.092.039,1.771,1.771,0,0,1-.879.286c-.492.136-.965.261-1.4.371l-1.361.34a1.446,1.446,0,0,0-.445.22,2.786,2.786,0,0,1-.6.649,2.59,2.59,0,0,1-.783.393,1.749,1.749,0,0,1-1.139-.053,1.756,1.756,0,0,1-.989-1.038,1.714,1.714,0,0,1,.466-1.875l.035-.04.041-.033a3.5,3.5,0,0,1,1.218-.715.8.8,0,0,0,.252-.091,2.189,2.189,0,0,1,.824-.376c.322-.092.891-.208,1.74-.355,1.294-.316,2.85-.621,4.624-.907,1.671-.269,3.287-.568,4.8-.889.237-.345.577-.823,1.015-1.427a6.784,6.784,0,0,0,.968-1.706l.062-.185.158-.113c.132-.094.161-.157.167-.174a1.367,1.367,0,0,1,.452-.665,1.864,1.864,0,0,0,.2-.35,1.21,1.21,0,0,1,.548-.942,1.832,1.832,0,0,0,.223-.447.954.954,0,0,1,.508-.694,1.182,1.182,0,0,0,.1-.119,4.132,4.132,0,0,1,.886-1.207l.083-.074.1-.04a3.038,3.038,0,0,1,1.031-.256,2.661,2.661,0,0,1,.724.109,1.21,1.21,0,0,1,.829,1,3.29,3.29,0,0,1,.1.949,1.46,1.46,0,0,1-.454.941c-.139.139-.279.27-.419.392a1.519,1.519,0,0,1-.463.657,4.426,4.426,0,0,0-.539.581,14.438,14.438,0,0,0-.863,1.214c-.346.535-.7,1.04-1.045,1.5l-.452.679c.585-.059,1.2-.113,1.828-.163.674-.052,1.266-.079,1.76-.079.338,0,.641.013.9.038a4.3,4.3,0,0,1,1.33.244,1.957,1.957,0,0,0,.458.128,6.053,6.053,0,0,1,.716.167,4.22,4.22,0,0,1,.617.246,3.142,3.142,0,0,1,1.443,1.243,1.135,1.135,0,0,1,.4.823,4.06,4.06,0,0,1,.429,1.114,2.127,2.127,0,0,1-.079.886,3.876,3.876,0,0,1-.167,1.285,6.792,6.792,0,0,1-.4.852c-.16.292-.33.588-.506.879l-.008.014c-.407.639-.906,1.359-1.485,2.14a26.2,26.2,0,0,1-2.221,2.574,33.911,33.911,0,0,1-4.3,3.519,16.794,16.794,0,0,1-1.817,1.219,6.365,6.365,0,0,1-1.9.848,7.444,7.444,0,0,1-1.355.118,2.682,2.682,0,0,1-1.808-.85l-.086-.081-.049-.106a6.675,6.675,0,0,1-.61-2.149,10.334,10.334,0,0,1,0-1.91c0-.578-.014-1.176-.042-1.781a4.084,4.084,0,0,1,.239-1.925c.1-.238.4-.964,1.066-1.088a2.355,2.355,0,0,1,.895,0,1.622,1.622,0,0,1,.918.563,1.979,1.979,0,0,1,.4,1.336v.064l-.013.062a4.147,4.147,0,0,0-.116.8,4.809,4.809,0,0,1-.12.96,4.453,4.453,0,0,0-.094.908c0,.358-.015.729-.045,1.1a1.622,1.622,0,0,0,.128.774l.046.112v.111l.066-.027.047-.018a3.2,3.2,0,0,0,.76-.359c.267-.179.511-.331.722-.452l.03-.015.945-.473a3.514,3.514,0,0,0,.51-.329c.227-.17.443-.328.643-.472a7.9,7.9,0,0,1,.636-.475.271.271,0,0,0,.021-.046.847.847,0,0,1,.8-.581,1.3,1.3,0,0,1,.529-.6.933.933,0,0,0,.211-.158c.108-.108.232-.225.37-.346a1.36,1.36,0,0,0,.236-.282,1.484,1.484,0,0,1,.644-.568.4.4,0,0,0,.136-.16,2.349,2.349,0,0,1,.636-.676,1.3,1.3,0,0,1,.508-.848,1.673,1.673,0,0,0,.243-.391,1.39,1.39,0,0,1,.577-.693,1.635,1.635,0,0,0,.288-.343c.262-.436.441-.723.549-.877a1.121,1.121,0,0,0,.148-.347,6,6,0,0,0,.135-.739,2.275,2.275,0,0,0,0-.678c-.007-.04-.052-.193-.338-.464a3.232,3.232,0,0,0-.681-.515,5.04,5.04,0,0,1-.814-.269.942.942,0,0,1-.418.1,1.43,1.43,0,0,1-.532-.116,5.991,5.991,0,0,1-.761.046,9.024,9.024,0,0,1-1-.06c-.695.083-1.147.13-1.381.145a3.155,3.155,0,0,1-.822-.053.335.335,0,0,0-.069-.008.171.171,0,0,0-.091.023,1.116,1.116,0,0,1-.567.163.985.985,0,0,1-.225-.025,9.88,9.88,0,0,1-1.4.238c-.273.333-.675.9-1.2,1.676-.652.97-1.48,2.07-2.461,3.268-.966,1.18-1.71,2.09-2.211,2.706a14.336,14.336,0,0,0-.878,1.139,9.023,9.023,0,0,1-.826,1.039c-.255.311-.591.727-1,1.236s-1.264,1.68-2.557,3.507c-.327.6-.7,1.233-1.115,1.878a1.151,1.151,0,0,1-.14.848,3.043,3.043,0,0,1-.485.668,1.748,1.748,0,0,1-.875.44,1.722,1.722,0,0,1-.375.041A2.216,2.216,0,0,1,972.065-215.465Zm-62.959,0a1.405,1.405,0,0,1-.917-1.005,2.745,2.745,0,0,1-.052-.935,1.989,1.989,0,0,1,.365-.918l.537-.752a4.975,4.975,0,0,1,.663-.781,3,3,0,0,0,.376-.411c.117-.157.251-.357.4-.6a1.721,1.721,0,0,1,.8-.7,2.374,2.374,0,0,0,.306-.518,1.3,1.3,0,0,1,.382-.59.918.918,0,0,1,.647-.76,1.375,1.375,0,0,0,.3-.313,1.351,1.351,0,0,1,.5-.709.848.848,0,0,0,.22-.253,3.79,3.79,0,0,0,.26-.5,1.473,1.473,0,0,1,.587-.707,1.2,1.2,0,0,0,.271-.23,2.888,2.888,0,0,0,.284-.373,6.006,6.006,0,0,1,.36-.5l.03-.034c.393-.42.791-.868,1.184-1.332a12.249,12.249,0,0,0,.888-1.166c.2-.753.581-.911.734-.963a.768.768,0,0,0,.138-.205,1.657,1.657,0,0,1,.706-.908.225.225,0,0,0,.039-.023,1.647,1.647,0,0,1,.456-.531l.023-.02a1.449,1.449,0,0,1,.418-.725c.033-.063.069-.127.107-.193a1.76,1.76,0,0,1-.709.018,2.654,2.654,0,0,1-.839.184h-.4a1.02,1.02,0,0,1-.839.324l-.121,0a1.949,1.949,0,0,0-.657.083l-.168.05-.169-.049-.02,0a.21.21,0,0,0-.092.039,1.771,1.771,0,0,1-.879.286c-.493.136-.966.261-1.4.371l-1.361.34a1.437,1.437,0,0,0-.445.22,2.805,2.805,0,0,1-.6.649,2.59,2.59,0,0,1-.783.393,1.749,1.749,0,0,1-1.139-.053,1.753,1.753,0,0,1-.989-1.038,1.712,1.712,0,0,1,.466-1.875l.035-.04.041-.033a3.5,3.5,0,0,1,1.218-.715.8.8,0,0,0,.252-.091,2.189,2.189,0,0,1,.824-.376c.322-.092.891-.208,1.74-.355,1.294-.316,2.849-.621,4.624-.907,1.671-.269,3.286-.568,4.8-.889.237-.345.577-.823,1.015-1.427a6.812,6.812,0,0,0,.968-1.706l.062-.185.158-.113c.132-.094.161-.157.167-.174a1.365,1.365,0,0,1,.451-.665,1.784,1.784,0,0,0,.2-.35,1.215,1.215,0,0,1,.549-.942,1.832,1.832,0,0,0,.223-.447.954.954,0,0,1,.508-.694,1.332,1.332,0,0,0,.1-.119,4.144,4.144,0,0,1,.886-1.207l.083-.074.1-.04a3.038,3.038,0,0,1,1.031-.256,2.661,2.661,0,0,1,.724.109,1.208,1.208,0,0,1,.828,1,3.265,3.265,0,0,1,.1.949,1.46,1.46,0,0,1-.454.941c-.139.139-.279.27-.419.392a1.519,1.519,0,0,1-.463.657,4.364,4.364,0,0,0-.539.581,14.438,14.438,0,0,0-.863,1.214c-.346.534-.7,1.04-1.045,1.5l-.453.679c.585-.059,1.2-.113,1.829-.163.674-.052,1.266-.079,1.76-.079.338,0,.641.013.9.038a4.3,4.3,0,0,1,1.33.244,1.957,1.957,0,0,0,.458.128,6.053,6.053,0,0,1,.716.167,4.22,4.22,0,0,1,.617.246,3.142,3.142,0,0,1,1.443,1.243,1.135,1.135,0,0,1,.4.823,4.06,4.06,0,0,1,.429,1.114,2.127,2.127,0,0,1-.079.886,3.9,3.9,0,0,1-.167,1.285,6.792,6.792,0,0,1-.4.852c-.161.292-.33.588-.506.879l-.008.014c-.407.639-.906,1.359-1.485,2.14a26.2,26.2,0,0,1-2.221,2.574,33.935,33.935,0,0,1-4.3,3.52,16.846,16.846,0,0,1-1.817,1.219,6.353,6.353,0,0,1-1.894.848,7.45,7.45,0,0,1-1.355.118,2.681,2.681,0,0,1-1.808-.85l-.086-.081-.049-.106a6.675,6.675,0,0,1-.61-2.149,10.254,10.254,0,0,1,0-1.91c0-.578-.014-1.176-.042-1.781a4.084,4.084,0,0,1,.239-1.925c.1-.238.4-.964,1.066-1.088a2.35,2.35,0,0,1,.894,0,1.616,1.616,0,0,1,.918.563,1.974,1.974,0,0,1,.4,1.336v.064l-.013.062a4.07,4.07,0,0,0-.116.8,4.8,4.8,0,0,1-.12.96,4.455,4.455,0,0,0-.1.908c0,.358-.014.729-.044,1.1a1.622,1.622,0,0,0,.127.774l.047.112v.111l.066-.027.047-.018a3.174,3.174,0,0,0,.759-.359c.268-.179.511-.331.723-.452l.03-.015.945-.473a3.514,3.514,0,0,0,.51-.329c.227-.171.443-.329.642-.472.3-.238.5-.39.637-.475a.271.271,0,0,0,.021-.046.847.847,0,0,1,.8-.581,1.3,1.3,0,0,1,.529-.6.953.953,0,0,0,.211-.158c.108-.108.232-.225.37-.346a1.36,1.36,0,0,0,.236-.282,1.479,1.479,0,0,1,.644-.568.4.4,0,0,0,.136-.16,2.349,2.349,0,0,1,.636-.676,1.307,1.307,0,0,1,.507-.848,1.711,1.711,0,0,0,.244-.391,1.39,1.39,0,0,1,.577-.693,1.635,1.635,0,0,0,.288-.343c.262-.436.441-.723.549-.877a1.1,1.1,0,0,0,.148-.347,5.988,5.988,0,0,0,.136-.739,2.3,2.3,0,0,0,0-.678c-.007-.04-.052-.193-.338-.464a3.232,3.232,0,0,0-.681-.515,5.131,5.131,0,0,1-.814-.269.942.942,0,0,1-.418.1,1.43,1.43,0,0,1-.532-.116,5.991,5.991,0,0,1-.761.046,9.024,9.024,0,0,1-1-.06c-.695.083-1.147.13-1.381.145a3.152,3.152,0,0,1-.822-.053.336.336,0,0,0-.07-.008.17.17,0,0,0-.09.023,1.118,1.118,0,0,1-.567.163.985.985,0,0,1-.225-.025,9.88,9.88,0,0,1-1.4.238c-.273.333-.675.9-1.2,1.676-.652.971-1.48,2.07-2.461,3.268s-1.715,2.1-2.211,2.706a14.336,14.336,0,0,0-.878,1.139,9.13,9.13,0,0,1-.826,1.039c-.256.312-.592.728-1,1.236s-1.264,1.681-2.557,3.507c-.327.6-.7,1.232-1.115,1.878a1.151,1.151,0,0,1-.14.848,3.043,3.043,0,0,1-.485.668,1.748,1.748,0,0,1-.875.44,1.722,1.722,0,0,1-.375.041A2.223,2.223,0,0,1,909.106-215.465Zm113.495-3.888a6.479,6.479,0,0,1-1.217-.148c-.208-.056-.562-.14-1.054-.253a3.2,3.2,0,0,1-1.85-1.545l-.036-.055-.023-.061a5.658,5.658,0,0,1-.245-3.024,21.364,21.364,0,0,1,.686-2.808c.274-.848.688-2.04,1.232-3.543s1.093-2.985,1.636-4.414l.015-.042.023-.039a2.548,2.548,0,0,0,.31-.681,1.658,1.658,0,0,1,.378-.975.826.826,0,0,0,.138-.234,2.086,2.086,0,0,1,.3-.923,8.234,8.234,0,0,1,.4-1.1,2.123,2.123,0,0,1,1.4-1.054l.106-.033.112.006a2.182,2.182,0,0,1,1.461.6,1.55,1.55,0,0,1,.393,1.542,3.936,3.936,0,0,1-.751,1.414c-.344.585-.453.8-.487.875-.05.112-.167.343-.586,1.067-.4.992-.723,1.75-.968,2.255-.221.454-.438.92-.647,1.387a2.03,2.03,0,0,1-.573,1.368.946.946,0,0,1-.146.656,2.158,2.158,0,0,0-.2.417,1.47,1.47,0,0,0-.072.486,1.043,1.043,0,0,1-.429.89,1.782,1.782,0,0,0-.068.436.925.925,0,0,1-.348.813,1.611,1.611,0,0,0-.052.43,1.017,1.017,0,0,1-.231.908,3.238,3.238,0,0,1-.234.955,1.238,1.238,0,0,1-.056.8.334.334,0,0,0-.022.235.565.565,0,0,0,.212.244,1.3,1.3,0,0,0,.563.233,4.97,4.97,0,0,0,.881.077,5.767,5.767,0,0,0,1.595-.212,8.545,8.545,0,0,1,1.276-.287,3.784,3.784,0,0,1,.909-.346l.047-.011.049,0a2.23,2.23,0,0,0,.466-.063,1.528,1.528,0,0,1,.932-.419,2.129,2.129,0,0,1,.825-.422,2.116,2.116,0,0,0,.6-.267c.253-.164.864-.522,1.868-1.1a3.22,3.22,0,0,1,1.26-.711c.009-.009.023-.023.043-.046a1.661,1.661,0,0,1,.607-.491c.11-.049.253-.1.432-.167a1.794,1.794,0,0,1,.921-.716c.165-.051.333-.1.5-.141a1.322,1.322,0,0,1,.645-.655c.292-.154.539-.287.733-.4a5.118,5.118,0,0,0,.739-.574,4.3,4.3,0,0,1,1.621-.855l.833-.257a.925.925,0,0,1,.272-.041,1.289,1.289,0,0,1,1,.583,2.482,2.482,0,0,1,.536,1.27c.107.9-.812,1.5-1.139,1.706a6.459,6.459,0,0,1-.886.556c-.222.111-.519.242-.905.4a1.955,1.955,0,0,1-.665.438,3.331,3.331,0,0,0-.51.255c-.2.123-.425.247-.669.369l-.687.344c-.463.231-.859.422-1.181.568a5.418,5.418,0,0,0-.635.326,2.8,2.8,0,0,1-.787.31,1.933,1.933,0,0,1-.874.513,1.318,1.318,0,0,0-.394.155,1.925,1.925,0,0,1-.83.357,1.219,1.219,0,0,1-.645.433,1.444,1.444,0,0,0-.433.229,1.764,1.764,0,0,1-.9.345,12.662,12.662,0,0,1-2.111.883c-.733.23-1.338.412-1.8.542s-.908.238-1.3.312a6.784,6.784,0,0,1-1.273.118Zm-82.718-1.809a1.636,1.636,0,0,1-1.162-1.293,2.31,2.31,0,0,1,.132-1.471,1.748,1.748,0,0,1,1.264-.928,2.01,2.01,0,0,1,1.459.124.959.959,0,0,0,.562.1c.13-.011.284-.016.455-.016.327,0,.741.02,1.232.059.566.041,1.239.063,2,.063s1.636-.022,2.589-.064c1.922-.086,3.885-.186,5.836-.3s3.911-.215,5.809-.3c1.88-.085,3.78-.243,5.646-.469.839-.112,1.69-.212,2.531-.3a2.654,2.654,0,0,1,.785-.12c.048,0,.1,0,.144,0l.773.043a1.677,1.677,0,0,1,1.22.776,1.372,1.372,0,0,1,.164,1.615,1.542,1.542,0,0,1-1.113.779,3.525,3.525,0,0,1-.528.034,8.385,8.385,0,0,1-.869-.052l-.029,0a2.31,2.31,0,0,0-.7-.025.771.771,0,0,0-.266.084.924.924,0,0,1-.559.184,1.212,1.212,0,0,1-.5-.12.6.6,0,0,0-.2-.022,2.318,2.318,0,0,0-.275.019,1.975,1.975,0,0,1-.715.149,1.235,1.235,0,0,1-.492-.1l-.022-.008a2.682,2.682,0,0,1-1.2.185h-.033c-.083,0-.16-.006-.232-.006a1.187,1.187,0,0,0-.45.054,1.088,1.088,0,0,1-.628.187,1.716,1.716,0,0,1-.6-.121,4.528,4.528,0,0,1-1.4.059c-1.144,0-2.3.044-3.446.128-1.175.085-2.475.158-3.865.216s-3.22.15-5.469.279a16.66,16.66,0,0,0-3.56.373l-.075.045-.1.021a3.5,3.5,0,0,1-1.146.094,1,1,0,0,0-.434.042,2.75,2.75,0,0,1-1.122.058,2.436,2.436,0,0,1-.585.07A2.763,2.763,0,0,1,939.883-221.161Zm19.51-12.152a5.118,5.118,0,0,1-.691-.494,1.3,1.3,0,0,1-.949-.389,4.93,4.93,0,0,1-.708-.246,2.862,2.862,0,0,1-1.247-.366,1.974,1.974,0,0,0-.332-.033.479.479,0,0,0-.151.016.953.953,0,0,1-.379.076,1.631,1.631,0,0,1-.9-.334,2.046,2.046,0,0,1-.83-.032c-.394.025-.67.044-.823.057a1.209,1.209,0,0,1-.7-.169,2.07,2.07,0,0,1-.932.076q-.273-.049-.558-.108a1.38,1.38,0,0,1-.579.135,1.156,1.156,0,0,1-.668-.21.426.426,0,0,0-.082-.045,3.809,3.809,0,0,1-1.168.2c-.4.3-.729.537-.987.719a1.787,1.787,0,0,1-1.023.355,1.47,1.47,0,0,1-.236-.019,2.617,2.617,0,0,1-1.062-.466l-.1-.068-.064-.1a2.39,2.39,0,0,1-.416-1.148,1.937,1.937,0,0,1,.328-1.148A1.618,1.618,0,0,1,945-237.8c.175-.054.373-.122.589-.2a4.019,4.019,0,0,1,.68-.2,3.3,3.3,0,0,1,.883-.139,1.834,1.834,0,0,1,.321.027,3.6,3.6,0,0,0,.559.029c.187,0,.41-.005.664-.016l.03,0,.03,0a3.479,3.479,0,0,0,1.055-.066l.127-.034.13.022c.33.055.629.1.888.124s.554.066.892.117a3.9,3.9,0,0,1,.7-.077,4.6,4.6,0,0,1,.643.049c.185.027.38.047.579.06a2.006,2.006,0,0,1,.746.2c.508.029,1.01.071,1.493.124.527.058,1.034.133,1.5.221a15.32,15.32,0,0,1,1.769.47c.667.212,1.193.378,1.562.492l.063.019.058.033a1.743,1.743,0,0,1,.963,1.306,1.612,1.612,0,0,1-.356,1.3,2.738,2.738,0,0,1-.851.66,1.4,1.4,0,0,1-.63.154A1.36,1.36,0,0,1,959.393-233.313Z" transform="translate(-438.333 9114.021)" fill="#009f39"/>
      </g>
      <path id="パス_6219" data-name="パス 6219" d="M-113.718-6.072a18.633,18.633,0,0,1,2.134.088c-.044-.528-.066-.946-.066-2v-2.838c0-.814.022-1.364.066-1.914-.616.044-1.078.066-2.068.066h-3.234v-1.584h4.114a16.288,16.288,0,0,1,2.2.11v-2.376a20.175,20.175,0,0,1-2.486.132h-3.828a15.377,15.377,0,0,1,.066-2.222h-2.53a17.3,17.3,0,0,1,.132,2.222h-3.366a18.8,18.8,0,0,1-2.376-.132v2.376a14.942,14.942,0,0,1,2.112-.11h3.63l.022,1.584h-3.41c-1.056,0-1.386-.022-2.046-.066a12.938,12.938,0,0,1,.088,1.848v3.058a15.531,15.531,0,0,1-.088,1.848,14.39,14.39,0,0,1,1.782-.088h3.234A6.9,6.9,0,0,1-120.406-4a6.232,6.232,0,0,1-1.452-1.76l-1.914,1.012c.22.242.4.44.682.814a10.132,10.132,0,0,0,1.364,1.518,11.12,11.12,0,0,1-4.466,2.112,10.213,10.213,0,0,1,1.364,2.068,12.433,12.433,0,0,0,4.906-2.816,18.766,18.766,0,0,0,8.668,2.728,11.9,11.9,0,0,1,.946-2.442c-3.674-.154-5.918-.66-8.25-1.936a8.9,8.9,0,0,0,1.232-3.366Zm-5.5-4.488c-.044,1.232-.044,1.408-.132,2.4h-2.926v-2.4Zm5.258,0v2.4h-3.124c.088-.836.11-1.254.154-2.4ZM-128.766-.726a22,22,0,0,1-.132,2.574h2.574a23.973,23.973,0,0,1-.11-2.552V-13.222a35.132,35.132,0,0,0,1.8-4.884l-2.508-.594a17.839,17.839,0,0,1-4.114,8.756,13.763,13.763,0,0,1,1.012,2.618,17.53,17.53,0,0,0,1.54-2.31c-.066,1.408-.066,1.76-.066,2.442ZM-99.616-5.1v3.63a18.123,18.123,0,0,1-.132,2.6h2.6a19.319,19.319,0,0,1-.11-2.618V-5.1h5.28v3.85c0,.462-.2.55-1.1.55-.7,0-1.672-.066-2.772-.176a8.9,8.9,0,0,1,.616,2.288c.66.044,1.782.088,2.464.088,2.508,0,3.168-.462,3.168-2.288V-15.246c0-1.188.022-1.738.088-2.486a24.465,24.465,0,0,1-2.53.088H-104.39c-1.188,0-1.76-.022-2.53-.088a29.719,29.719,0,0,1,.11,3.19c0,2.6-.088,5.72-.2,7.568a22.26,22.26,0,0,1-.44,3.366A10.061,10.061,0,0,1-109.054.11a13.235,13.235,0,0,1,2.134,1.738A14.769,14.769,0,0,0-104.676-5.1Zm0-2.178h-4.906c0-.44,0-.594.022-1.628,0-.308.022-.748.022-1.386h4.862Zm2.354,0V-10.3h5.28v3.014Zm-2.354-5.17h-4.818l.022-.616v-2.266h4.8Zm2.354,0v-2.882h5.28v2.882Zm10.362,1.32a16.456,16.456,0,0,1,3.872,2.948l1.254-1.826a5.057,5.057,0,0,1,.682,1.76c.814-.132,1.1-.176,1.606-.286-.044,4.972-.682,6.644-3.256,8.646a5.672,5.672,0,0,1,1.936,1.716A8.468,8.468,0,0,0-77.9-2.42h6.666V-.814a20.193,20.193,0,0,1-.132,2.53h2.53A19.335,19.335,0,0,1-68.97-.792V-8.58c.7.176.968.22,1.892.4a5.815,5.815,0,0,1,.99-2.178,21.493,21.493,0,0,1-5.874-1.364,11.167,11.167,0,0,0,2.728-2.926h.506a13.3,13.3,0,0,1,2.134.11v-2.266a19.729,19.729,0,0,1-2.332.11h-4.136v-.286a10.622,10.622,0,0,1,.11-1.562h-2.574a11.181,11.181,0,0,1,.11,1.584v.264h-3.278a14.892,14.892,0,0,1-2.244-.11v1.122a24.562,24.562,0,0,0-3.586-2.684l-1.518,1.716a17.275,17.275,0,0,1,3.674,2.97l1.43-1.672v.814A11.124,11.124,0,0,1-79-14.652a13.029,13.029,0,0,0,2.97,2.948,18.351,18.351,0,0,1-5.808,1.32,19.486,19.486,0,0,0-3.63-2.574Zm15.664,3.014H-77.2c.022-.506.022-.506.022-.99a16.011,16.011,0,0,0,3.19-1.32,20.109,20.109,0,0,0,2.75,1.21Zm-.726-6.534A6.616,6.616,0,0,1-74.1-12.76a7.5,7.5,0,0,1-2.288-1.892Zm.726,8.536v1.672h-6.226c.088-.66.132-.968.176-1.672Zm-12.32-.858A27.191,27.191,0,0,1-85.91-1.32a7,7,0,0,1-.88,1.21l2.068,1.826c.44-.836.7-1.364.836-1.584a31.619,31.619,0,0,0,2.266-5.72ZM-61.71-14.52a17.108,17.108,0,0,1,1.738-.132c2.156-.088,2.684-.11,3.806-.2-.55,2.024-.814,2.86-1.386,4.6A7.835,7.835,0,0,0-61.71-9.2a5.536,5.536,0,0,0-2.728,4.818c0,2.4,1.5,4.18,3.52,4.18A3.476,3.476,0,0,0-57.9-2.288,29.31,29.31,0,0,0-55.726-7.7a16.8,16.8,0,0,1,4.95,1.518,8.955,8.955,0,0,1-1.958,3.256,10.345,10.345,0,0,1-3.41,2.31,8,8,0,0,1,2,1.98A12.748,12.748,0,0,0-50.82-1.122a10.389,10.389,0,0,0,2.4-3.872,22.466,22.466,0,0,1,3.036,2.046l.99-2.9a7.768,7.768,0,0,1-1.012-.528c-.682-.4-1.65-.9-2.354-1.254a36.653,36.653,0,0,0,.4-4.664,7.132,7.132,0,0,1,.132-1.474l-2.772-.11a6.6,6.6,0,0,1,.088,1.166,23.9,23.9,0,0,1-.22,4.07A17.929,17.929,0,0,0-55-10.032c.2-.682,1.54-4.73,1.65-4.994a3.284,3.284,0,0,1,.462-.924l-1.738-1.5a1.668,1.668,0,0,1-.88.264c-.814.11-2.772.2-4.092.2a13.046,13.046,0,0,1-2.222-.11Zm3.476,6.578a28.7,28.7,0,0,1-1.43,3.674c-.506.99-.836,1.386-1.254,1.386C-61.512-2.882-62-3.608-62-4.51a3.092,3.092,0,0,1,.836-2.112A4.352,4.352,0,0,1-58.234-7.942Zm17.27,3.608c.308-.4.4-.506.748-.924,1.188-1.408,3.036-3.7,3.938-4.906s.99-1.276,1.342-1.276c.374,0,.374,0,1.782,1.54A116,116,0,0,0-23.848-.594l1.386-3.014a15.767,15.767,0,0,1-2.09-1.672A73,73,0,0,1-31.68-12.3c-1.672-1.892-2.178-2.244-3.278-2.244a2.8,2.8,0,0,0-1.5.418,7.447,7.447,0,0,0-1.65,1.738c-2.948,3.7-4.092,4.994-4.73,5.346Zm14.41-12.012a2.545,2.545,0,0,0-2.53,2.53,2.549,2.549,0,0,0,2.53,2.552A2.554,2.554,0,0,0-24-13.816,2.549,2.549,0,0,0-26.554-16.346Zm0,1.1a1.432,1.432,0,0,1,1.452,1.43,1.451,1.451,0,0,1-1.452,1.452,1.446,1.446,0,0,1-1.43-1.452A1.427,1.427,0,0,1-26.554-15.246Zm8.4,3.278a22.01,22.01,0,0,1,2,5.324l2.486-.792a25.377,25.377,0,0,0-2.156-5.214Zm4.708-.924a24.192,24.192,0,0,1,2,5.17L-9-8.492a21.612,21.612,0,0,0-2.134-5.06Zm7.568-.22a9.759,9.759,0,0,1-.4,2.53,12.65,12.65,0,0,1-4.994,7.634A14.271,14.271,0,0,1-15-.924a7.991,7.991,0,0,1,1.76,2.178,16.886,16.886,0,0,0,6.71-5.3A18.78,18.78,0,0,0-3.5-11.374,4.63,4.63,0,0,1-3.19-12.5ZM9.174.99a24.186,24.186,0,0,1-.088-2.442V-7.26A11.374,11.374,0,0,0,9-8.756a7.108,7.108,0,0,0,.748.374,52.05,52.05,0,0,1,7.788,4.2l1.54-2.6a64.634,64.634,0,0,0-9.988-4.642V-15.51a14.748,14.748,0,0,1,.088-2.31H6.16a14.141,14.141,0,0,1,.132,2.244v14.1A14.821,14.821,0,0,1,6.16.99ZM34.628-14.344V-15.51a17.936,17.936,0,0,1,.088-2.354h-2.97a12.611,12.611,0,0,1,.132,2.288v1.232h-4.84a14.12,14.12,0,0,1-2.816-.154v2.706a18.765,18.765,0,0,1,2.772-.11h4.884V-1.254a16.383,16.383,0,0,1-.132,2.486h2.992a16.99,16.99,0,0,1-.11-2.464V-11.9H39.71a18.939,18.939,0,0,1,2.794.11V-14.5a13.744,13.744,0,0,1-2.75.154l1.518-.572a13.981,13.981,0,0,0-1.958-3.476l-1.628.572A14.964,14.964,0,0,1,39.6-14.344ZM26.95-10.318a17.857,17.857,0,0,1-3.718,8.492A8.928,8.928,0,0,1,25.784-.418a23.3,23.3,0,0,0,3.7-8.536c.044-.22.088-.352.088-.374.022-.044.044-.176.088-.33Zm9.878.66a6.01,6.01,0,0,1,.352,1.034A29.633,29.633,0,0,0,40.788-.4a16.153,16.153,0,0,1,2.53-1.54,24.076,24.076,0,0,1-3.894-8.382Zm7.326-6.2a12.838,12.838,0,0,0-1.936-3.344l-1.562.572a15.759,15.759,0,0,1,1.892,3.41ZM53.174.99a24.185,24.185,0,0,1-.088-2.442V-7.26A11.374,11.374,0,0,0,53-8.756a7.108,7.108,0,0,0,.748.374,52.051,52.051,0,0,1,7.788,4.2l1.54-2.6a64.634,64.634,0,0,0-9.988-4.642V-15.51a14.748,14.748,0,0,1,.088-2.31H50.16a14.141,14.141,0,0,1,.132,2.244v14.1A14.821,14.821,0,0,1,50.16.99ZM70.8-17.2a11.058,11.058,0,0,1,.088,2c0,6.16-.506,9-2.09,11.528a9.039,9.039,0,0,1-2.266,2.53A7.83,7.83,0,0,1,68.75.99a14.01,14.01,0,0,0,3.036-4.07c1.144-2.266,1.628-4.752,1.782-9.042a45.977,45.977,0,0,1,.22-4.928Zm5.83-.154a9.522,9.522,0,0,1,.088,1.452v.66L76.6-2.838a9.858,9.858,0,0,1-.2,2.332L77.814.99a9.574,9.574,0,0,1,.946-.4,14.53,14.53,0,0,0,4.686-2.64,13.653,13.653,0,0,0,3.5-5.126A9.221,9.221,0,0,1,84.876-9.24,10.751,10.751,0,0,1,82.72-5.214a8.845,8.845,0,0,1-3.366,2.508l.11-12.518a11.922,11.922,0,0,1,.154-2.09Zm17.71-.7v.418a33.856,33.856,0,0,1-.572,4.444c-1.21.176-3.872.44-4.686.44l.264,2.6a39.442,39.442,0,0,1,3.938-.7,37.321,37.321,0,0,1-2.134,6.226A24.036,24.036,0,0,1,88.858-.506L91.41.9c.11-.22.11-.242.176-.374l.33-.66a47.184,47.184,0,0,0,2.64-6.182A46.538,46.538,0,0,0,95.9-11.088c.506-.044.836-.066,1.276-.066,1.738,0,2.244.594,2.244,2.618a19.548,19.548,0,0,1-.572,5.016c-.33,1.078-.682,1.5-1.32,1.5a9.1,9.1,0,0,1-3.212-.858,8.263,8.263,0,0,1,.22,1.87c0,.22-.022.528-.044.968a10.674,10.674,0,0,0,3.388.638A2.786,2.786,0,0,0,100.32-.4c1.056-1.21,1.694-4.224,1.694-8.008,0-2-.286-3.058-1.034-3.894a4.262,4.262,0,0,0-3.256-1.166c-.418,0-.726.022-1.364.066.066-.286.066-.33.154-.814.308-1.65.308-1.65.374-2.112.066-.352.088-.462.132-.748a5.118,5.118,0,0,1,.176-.682Zm7.876,4.224a14.239,14.239,0,0,1,2.53,3.762,19.775,19.775,0,0,1,1.76,4.994l2.508-1.276a21.355,21.355,0,0,0-4.532-8.58Zm13.772-1.892a39.82,39.82,0,0,0,8.58,2.75l.9-2.53a33,33,0,0,1-8.206-2.442Zm-1.76,1.936a8.978,8.978,0,0,1-.132,1.276c-.4,2.6-.748,5.038-.924,6.4-.11.836-.11.924-.176,1.32l2.772.088a4.789,4.789,0,0,1,.99-.946,10.012,10.012,0,0,1,5.478-1.606c2.332,0,3.718.88,3.718,2.354,0,1.87-2.156,3.168-5.258,3.168a17.76,17.76,0,0,1-5.918-1.1A9.763,9.763,0,0,1,115.1,0a20.229,20.229,0,0,0,5.61.77,9.5,9.5,0,0,0,5.808-1.5,5.357,5.357,0,0,0,2.266-4.246c0-2.816-2.464-4.664-6.2-4.664-2.662,0-5.39.858-6.666,2.09l-.044-.044c.066-.33.066-.33.11-.638a46.551,46.551,0,0,1,.99-5.412ZM-33.99,14.032V18.08H-37.4a20.188,20.188,0,0,1-2.64-.132v2.42a23.076,23.076,0,0,1,2.662-.132h3.388V24.9h-5.654a25.794,25.794,0,0,1-3.058-.154v2.508a28.292,28.292,0,0,1,3.124-.154h13.464a25.648,25.648,0,0,1,2.992.154V24.746a24.114,24.114,0,0,1-3.058.154h-5.28V20.236h3.806a24.456,24.456,0,0,1,2.706.132v-2.42a22.835,22.835,0,0,1-2.706.132H-31.46V14.032h4.642c1.056,0,1.958.044,2.9.132v-2.42c-.9.088-1.848.132-2.97.132H-31.46V10.182a20.513,20.513,0,0,1,.132-2.618h-2.816a17.939,17.939,0,0,1,.154,2.64v1.672h-3.586q.429-1.155.594-1.65a5.27,5.27,0,0,1,.22-.726,3.477,3.477,0,0,0,.2-.572l-2.508-.616a11.94,11.94,0,0,1-.484,2.046,15.956,15.956,0,0,1-3.718,6.424,6.674,6.674,0,0,1,1.8,1.87,19.438,19.438,0,0,0,2.992-4.62Zm31.768,9.636c-.308-.176-.418-.264-.792-.506a19.678,19.678,0,0,0-6.028-3.1c-.022-.528-.022-.528-.088-2.662.858-.044,1.188-.066,1.5-.088,1.65-.154,2.64-.264,2.97-.308.506-.066,1.056-.132,1.43-.154l-.066-2.42a16.282,16.282,0,0,1-2.728.484c-2.024.22-2.024.22-3.124.286-.022-1.364-.022-1.628-.044-2.178,1.936-.11,2.794-.176,4.73-.44a13.761,13.761,0,0,1,1.738-.2l-.11-2.442a29.764,29.764,0,0,1-6.336.836A13.639,13.639,0,0,1-9.02,8.092h-2.794a15.7,15.7,0,0,1,.11,2.772c-.55.022-1.3.044-1.65.044a28.928,28.928,0,0,1-5.918-.462l-.022,2.442h.352c.066,0,.242,0,.484.022,1.474.11,4.312.22,5.39.22.33,0,.682,0,1.386-.022.022,1.254.022,2,.022,2.2-.616.022-1.364.044-1.8.044a28.369,28.369,0,0,1-5.126-.374l-.044,2.376c.33,0,.55,0,.836.022,1.826.132,2.64.154,3.982.154.462,0,1.144-.022,2.2-.044.022.88.022.88.044,1.188v.484a4.239,4.239,0,0,1,.022.528,11.494,11.494,0,0,0-1.474-.088c-3.7,0-5.874,1.408-5.874,3.806,0,2.178,1.848,3.432,5.06,3.432a5.857,5.857,0,0,0,3.63-.946,3.432,3.432,0,0,0,1.232-2.97v-.242a9.79,9.79,0,0,1,1.188.55,14.845,14.845,0,0,1,4.07,3.014Zm-9.284-1.694V22.5a2.789,2.789,0,0,1-.264,1.408,2.284,2.284,0,0,1-1.914.7c-1.562,0-2.508-.506-2.508-1.32,0-.946,1.078-1.518,2.86-1.518A7.721,7.721,0,0,1-11.506,21.974ZM7.282,15.638c.022-.264.044-.4.044-.4l.044-1.3c.132-.176.176-.22.264-.352a2,2,0,0,1,.308-.4,3.68,3.68,0,0,1,.638-.66l-.814-.924c-.154.044-.242.088-.264.088.044-1.342.066-1.518.088-1.958.044-.44.066-.726.066-.836a3.068,3.068,0,0,1,.088-.814L4.95,8.048A7.31,7.31,0,0,1,5.016,9.28c0,.506-.022,1.188-.022,1.8-.022.506-.022.506-.044.836-1.034.066-2.244.132-2.662.132a6.824,6.824,0,0,1-.9-.044l.132,2.486a28.348,28.348,0,0,1,3.366-.308c0,.594-.022.638-.022,1.144-.044.858-.044,1.1-.066,2.156-.418.462-.418.462-2.486,2.508A9.857,9.857,0,0,1,.88,21.248l1.276,2.618a12.562,12.562,0,0,1,1.012-1.254A17.133,17.133,0,0,0,4.73,20.764l.044-.022c-.044.594-.044.594-.044,2.948a19.311,19.311,0,0,1-.154,3.5H7.414a29.69,29.69,0,0,1-.11-3.63c-.022-2.442-.022-2.442-.022-2.618,0-.616,0-1.232.044-2.222a25.01,25.01,0,0,1,4-3.586,5.269,5.269,0,0,1,2.728-1.188c.594,0,.9.286.9.814A13.949,13.949,0,0,1,14.5,17.53c-.814,3.652-.9,4.246-.9,5.522a3.138,3.138,0,0,0,1.144,2.772,3.269,3.269,0,0,0,1.892.572,4.256,4.256,0,0,0,3.256-1.584,10.039,10.039,0,0,0,1.54-2.178,10.7,10.7,0,0,1-1.474-2.64A10.8,10.8,0,0,1,18.678,22.5a2.207,2.207,0,0,1-1.54,1.122c-.572,0-.9-.4-.9-1.1a27.819,27.819,0,0,1,.924-4.95,15.739,15.739,0,0,0,.55-3.366,2.837,2.837,0,0,0-3.08-2.926c-1.342,0-2.728.616-4.642,2.068A16.132,16.132,0,0,0,7.3,15.638Zm16.764-1.694a3.285,3.285,0,0,1,.418-.022c.176,0,.484,0,.88.022.374.022.594.022.7.022h1.276a1.863,1.863,0,0,0,.286-.022A47,47,0,0,1,23.672,25.78l2.772,1.078a74.588,74.588,0,0,0,2.464-7.282c.572-2,1.122-4.334,1.364-5.7a29.991,29.991,0,0,0,3.608-.462c.528-.088.528-.088.7-.11l-.11-2.53a18.259,18.259,0,0,1-3.762.66c.088-.506.11-.638.22-1.254A12.5,12.5,0,0,1,31.35,8.07l-2.9-.264a2.985,2.985,0,0,1,.022.4,26.7,26.7,0,0,1-.418,3.366c-.506.022-.748.022-1.012.022a17.5,17.5,0,0,1-2.948-.2Zm17.446.484c-1.386-.022-1.584-.022-2.178-.022a28.233,28.233,0,0,0-6.556.7l.2,2.42a23.743,23.743,0,0,1,5.808-.638,22.9,22.9,0,0,1,2.772.154Zm-8.668,4.62c-1.21,1.65-1.628,2.64-1.628,3.806a3.179,3.179,0,0,0,1.562,2.706,8.933,8.933,0,0,0,4.422.88,25.6,25.6,0,0,0,4.092-.352c.506-.088.682-.11,1.078-.154l-.2-2.706a16.837,16.837,0,0,1-4.994.814c-2.2,0-3.3-.572-3.3-1.694A3.65,3.65,0,0,1,35,19.928Z" transform="translate(515.623 8829)" fill="#371606"/>
    </g>
    <path id="パス_3007" data-name="パス 3007" d="M3175.294,8771.34s34.846,48.969,38.925,108.525" transform="translate(-2661.412 -2.736)" fill="none" stroke="#009f39" stroke-linecap="round" stroke-width="3"/>
    <g id="グループ_2899" data-name="グループ 2899" transform="translate(1129.623 485)">
      <g id="長方形_1591" data-name="長方形 1591" transform="translate(-689.124 8367)" fill="none" stroke="#009f39" stroke-width="2">
        <rect width="88" height="34" rx="17" stroke="none"/>
        <rect x="1" y="1" width="86" height="32" rx="16" fill="none"/>
      </g>
      <text id="個包装" transform="translate(-645.124 8392.363)" fill="#009f39" font-size="22" font-family="HiraKakuProN-W6, Hiragino Kaku Gothic ProN"><tspan x="-33" y="0">個包装</tspan></text>
    </g>
  </g>
</svg>
