<svg xmlns="http://www.w3.org/2000/svg" width="586.113" height="103.687" viewBox="0 0 586.113 103.687">
  <g id="earth_modal_item2_title" transform="translate(-84.075 -298.303)">
    <path id="パス_6093" data-name="パス 6093" d="M-196.092-7.969a2.871,2.871,0,0,1,1.875.859,1.092,1.092,0,0,1,1.25.938,3.153,3.153,0,0,1-.156,1.719,1.844,1.844,0,0,1-.9,1.055,1.949,1.949,0,0,1-1.211.156,1.95,1.95,0,0,1-.9-.352,1.816,1.816,0,0,0-.781-.352,2.891,2.891,0,0,1-1.172-.7q-.664-.586-.9-.82a1.188,1.188,0,0,0-.625-.312,60.72,60.72,0,0,1-5.625-4.141,58.832,58.832,0,0,1-7.617-7.227,51.88,51.88,0,0,1-5.9-8.086q-2.969,2.578-6.6,5.469t-6.914,5.469q-3.281,2.578-6.016,5.039t-5.078,4.336a12.432,12.432,0,0,0-1.406.508,2.136,2.136,0,0,1-1.406.078,2.562,2.562,0,0,1-1.289-.742q-.508-.547-.273-2.383t2.813-1.211q1.328-.859,2.383-1.641t1.328-1.016a3.127,3.127,0,0,1,1.055-.469,1.727,1.727,0,0,1,1.055-.859,4.073,4.073,0,0,0,1.445-.937l.938-.937a20.413,20.413,0,0,1,1.68-1.328q1.367-1.016,3.047-2.227a57.115,57.115,0,0,0,4.8-4.1,6.583,6.583,0,0,1,1.836-1.094,1.208,1.208,0,0,0,.82-.625A4.541,4.541,0,0,1-223.67-25q.625-.937,1.016-1.016a2.6,2.6,0,0,0,.938-.469,41.526,41.526,0,0,0,2.891-3.047,11.247,11.247,0,0,1,2.891-1.719q0-1.172.508-1.25a4.889,4.889,0,0,0,1.68-.937,2.31,2.31,0,0,1,1.016-1.094.958.958,0,0,0,.625-.7,1.075,1.075,0,0,1,.781-.742,1.3,1.3,0,0,0,.859-.742,5.113,5.113,0,0,0,1.133-1.289,1.706,1.706,0,0,1,.586-.7,3.532,3.532,0,0,0,.82-.9,15.953,15.953,0,0,1,1.367-1.641,17.07,17.07,0,0,0,.859-1.836,3.942,3.942,0,0,0,.2-2.148,2.279,2.279,0,0,0-1.68-1.719,2.761,2.761,0,0,0-1.8-.352,2.878,2.878,0,0,1-1.719-.2,1.054,1.054,0,0,0-1.094-.586,4.475,4.475,0,0,0-1.523.352,1.617,1.617,0,0,1-1.289.078,3.018,3.018,0,0,0-1.523.156,5.294,5.294,0,0,1-2.148.156,1.76,1.76,0,0,1-1.445.586,4.34,4.34,0,0,0-1.992.352q-1.328.469-2.5.859a30.237,30.237,0,0,0-7.969,3.438,2.771,2.771,0,0,1-.625,1.953,2.248,2.248,0,0,1-1.719.352,1.658,1.658,0,0,1-1.523-1.289,4.7,4.7,0,0,1-.156-2.227,2.406,2.406,0,0,1,1.094-1.641,13.043,13.043,0,0,1,1.875-1.016q.977-.43,1.758-.82,3.047-.937,6.289-1.992a46.074,46.074,0,0,1,6.406-1.6,32.293,32.293,0,0,1,5.352-.547q1.016-.156,2.188-.234a16.187,16.187,0,0,1,2.422.156q1.172.078,2.3.234a3.142,3.142,0,0,1,1.992,1.172,2.491,2.491,0,0,1,1.484,1.016q.391.781.664,1.211a4.308,4.308,0,0,1,.469,1.094,2.175,2.175,0,0,1-.2,1.523,2.4,2.4,0,0,1-.234,1.719,1.849,1.849,0,0,1-.117,1.523,3.083,3.083,0,0,0-.547,1.211,3.8,3.8,0,0,1-1.211,1.719,2,2,0,0,1-1.562,1.563,13.592,13.592,0,0,1-1.875,2.188q-1.484,1.328-2.5,2.422a20.2,20.2,0,0,1-2.187,2.031q-1.172.938-1.6,1.367a18.983,18.983,0,0,0-1.289,1.523q.625,1.8.7,2.031t.273.859a4.151,4.151,0,0,0,.547,1.133q.352.508.82,1.328a9.3,9.3,0,0,0,1.172,1.6,8.68,8.68,0,0,0,.82,1.484q.352.469.547.781a3.827,3.827,0,0,0,.977.859,4.123,4.123,0,0,1,1.328,1.641,4.533,4.533,0,0,0,1.016.508,4.3,4.3,0,0,1,1.328,1.133,10.755,10.755,0,0,0,2.7,2.109q1.836,1.094,2.5,1.563a9.75,9.75,0,0,0,1.758.938A15.6,15.6,0,0,1-196.092-7.969Zm25.984-20.547a10.341,10.341,0,0,0,.391,2.148,5.4,5.4,0,0,0,.508,1.094q.273.43,1.055,1.445a4.615,4.615,0,0,0,1.6-.117q.742-.2,1.25-.352t1.6-.469a1.671,1.671,0,0,1,1.094-.7,3.715,3.715,0,0,0,1.484-.547q2.344-.937,3.789-1.6a8.084,8.084,0,0,0,1.992-1.172,9.914,9.914,0,0,1,1.25-.977,3.135,3.135,0,0,1,1.328-.547,4.26,4.26,0,0,1,.977-.977q.43-.273,1.445-.9a1.355,1.355,0,0,1,1.25-1.016,3.847,3.847,0,0,0,.977-1.367,1.425,1.425,0,0,1,1.133-.82q.625-.937,1.25-1.719a12.148,12.148,0,0,1,1.641-1.641,8.751,8.751,0,0,0,.9-1.836,1.45,1.45,0,0,0,0-1.055,3.185,3.185,0,0,0-.7-.859,4.038,4.038,0,0,0-1.68-.781,1.623,1.623,0,0,1-1.25-.156,2.661,2.661,0,0,0-1.211-.391,2.815,2.815,0,0,1-1.133-.312,6.042,6.042,0,0,1-1.8.156,7.164,7.164,0,0,1-1.25-.273,1.687,1.687,0,0,0-1.133,0,5.47,5.47,0,0,1-1.445.273,1.961,1.961,0,0,0-1.406.039,1.766,1.766,0,0,1-1.406-.039q-1.25.234-1.8.313a14.378,14.378,0,0,1-2.187,0,2.723,2.723,0,0,1-1.484.469,1.277,1.277,0,0,0-.937.234.821.821,0,0,1-.859.117.72.72,0,0,0-.82.156,1.692,1.692,0,0,1-1.445.117,2.867,2.867,0,0,1-1.484.352.8.8,0,0,0-.742.2,1.829,1.829,0,0,1-1.367.156,3.608,3.608,0,0,1-2.031.664.97.97,0,0,0-.9.156.571.571,0,0,1-.625.156.945.945,0,0,0-.82.2,1.925,1.925,0,0,1-1.094.313,8.2,8.2,0,0,1-2.969.938,6.541,6.541,0,0,0-2.891,1.406q-1.172.625-2.266,1.328a4.927,4.927,0,0,1-.625,1.758,6.4,6.4,0,0,1-.859.547,2.385,2.385,0,0,1-1.641.156,1.811,1.811,0,0,1-1.406-1.289,4.975,4.975,0,0,1,.938-3.164,5.723,5.723,0,0,1,2.344-2.031,18.825,18.825,0,0,1,2.813-.977A90.586,90.586,0,0,1-173.9-44.18q5.508-1.289,8.281-1.641t5.977-.781a82.274,82.274,0,0,1,9.922-.43,20.938,20.938,0,0,1,3.594.313,14.46,14.46,0,0,1,3.047.977,14.048,14.048,0,0,1,1.641.938,3.632,3.632,0,0,1,1.094,1.289,8.03,8.03,0,0,1,.82,1.641A3.7,3.7,0,0,1-139.444-40q-.2,1.094-.352,1.641a2.693,2.693,0,0,1-.508.977q-.352.43-1.289,1.445-1.328,1.641-1.836,2.148t-1.055,1.016q-.547.508-3.047,2.3t-7.266,4.922a68.923,68.923,0,0,1-11.016,5.078q.938,1.719,1.094,1.953t1.172,1.875a8.16,8.16,0,0,1,1.055,1.328,7.525,7.525,0,0,0,1.289,1.484q1.094.938,2.188,1.953a10.533,10.533,0,0,0,.938.82,13.327,13.327,0,0,0,1.172.82,6.853,6.853,0,0,0,1.719.7,3.794,3.794,0,0,1,2.109.859,2.456,2.456,0,0,1,.742,1.328,1.731,1.731,0,0,1-.273,1.289,3.943,3.943,0,0,1-.781.9,2.575,2.575,0,0,1-1.445.352,2.683,2.683,0,0,1-1.836-.586,12.042,12.042,0,0,1-1.6-1.328A3.363,3.363,0,0,0-159.4-7.5a16.994,16.994,0,0,1-2.812-2.656q-1.484-1.719-3.2-3.984t-3.281-4.766q-1.25-.469-1.836-.7a2.108,2.108,0,0,1-.977-.82,3.913,3.913,0,0,1-.156-2.383q-.859-1.484-1.406-2.3a9.767,9.767,0,0,1-.937-1.8,5.321,5.321,0,0,1-.391-1.992q-.234-1.484,1.563-2.656a2.72,2.72,0,0,1,1.445-.078,3.46,3.46,0,0,1,1.211.469,1.432,1.432,0,0,1,.586,1.016A2.35,2.35,0,0,1-170.108-28.516Zm74.266-23.828a7.045,7.045,0,0,1,2.5-1.016h.078a2.718,2.718,0,0,1,1.719.7,1.833,1.833,0,0,1,.625,1.8,2.636,2.636,0,0,1-.664,1.328,2.137,2.137,0,0,1-1.094.508,5.446,5.446,0,0,1-1.289.078,1.723,1.723,0,0,0-1.094.273q-.937.469-1.953.938a2.18,2.18,0,0,1-1.484.547,5.8,5.8,0,0,1-1.562,1.328q-1.016.625-1.953,1.328a3.1,3.1,0,0,1-1.172.586,3.04,3.04,0,0,0-1.328.82,1,1,0,0,1-.859.625q-.781,1.016-1.562.938a8.913,8.913,0,0,1-1.719,1.719,12.556,12.556,0,0,0-2.891,1.875,6.275,6.275,0,0,0-1.8,1.406q-.859.625-1.719,1.133a5.907,5.907,0,0,0-1.562,1.367q-.937.781-1.953,1.484-.937.7-2.383,1.914a7.774,7.774,0,0,0-1.836,1.953,1.675,1.675,0,0,1-1.25.9,2.084,2.084,0,0,1-1.328,1.25,11.088,11.088,0,0,1-1.25,1.445,3.133,3.133,0,0,0-.742.938,1.885,1.885,0,0,1-.469.664,2.6,2.6,0,0,0-.547.742,2.012,2.012,0,0,1-.625.742q-.352.234-.039,1.094.7.391,1.367.781a1.538,1.538,0,0,1,.781,1.133,1.3,1.3,0,0,1-.469,1.25,7.233,7.233,0,0,0-.9.9,1.649,1.649,0,0,1-1.25.43,3.8,3.8,0,0,1-1.875-.43,4.244,4.244,0,0,1-1.484-1.172,3.46,3.46,0,0,1-1.133-1.992,2.737,2.737,0,0,1,.391-2.031,14.772,14.772,0,0,1,1.523-1.914q1.328-1.484,2.031-2.148a3.349,3.349,0,0,0,.9-1.211q.2-.547,1.289-.781a4.4,4.4,0,0,1,1.328-1.25,5.414,5.414,0,0,1,1.719-1.719,32.773,32.773,0,0,1,3.516-3.047q.938-.781,3.438-2.773t5.938-4.57q3.437-2.578,8.672-6.133T-95.842-52.344ZM-107.4-3.672a15.175,15.175,0,0,1-.586,2.188,1.645,1.645,0,0,1-1.289.938q-.859.156-1.094-.078a8.876,8.876,0,0,0-.937-.742,2.206,2.206,0,0,1-.781-1.758,5.726,5.726,0,0,1,.039-1.484,1.991,1.991,0,0,1,.742-1.289,2.577,2.577,0,0,0,.859-1.289,37.711,37.711,0,0,1,1.133-4.141,6.269,6.269,0,0,0,.43-1.406q.078-.547.117-1.328a5.548,5.548,0,0,1,.273-1.484,3.233,3.233,0,0,1,.2-1.094,2.232,2.232,0,0,0,.039-1.25,2.409,2.409,0,0,0,.625-1.758,2.736,2.736,0,0,1,.313-1.6,1.7,1.7,0,0,1,.313-1.875.851.851,0,0,1,0-1.25,3.788,3.788,0,0,1,.313-2.031,4.1,4.1,0,0,0-.156-1.641,8.892,8.892,0,0,1,.156-1.914,2.75,2.75,0,0,0,.039-1.211,8.837,8.837,0,0,1-.156-1.406A3.483,3.483,0,0,0-107.4-34.3a1.112,1.112,0,0,1-.234-1.289,11.972,11.972,0,0,1,.625-1.172,1.647,1.647,0,0,1,1.016-.7,2.177,2.177,0,0,1,1.406.078,2.19,2.19,0,0,1,1.094.9,3.6,3.6,0,0,1,.313,2.031,48.836,48.836,0,0,1-.352,6.914q-.352,2.227-1.445,10.742-.391,1.953-.625,3.281t-.7,4.063Q-107.092-5.781-107.4-3.672Zm68.45-10.469A21.816,21.816,0,0,1-42.822-12.5q-1.992.625-3.242.977t-2.266.547a11.148,11.148,0,0,1-2.109.2,11.156,11.156,0,0,1-1.992-.234q-.586-.156-1.953-.469a4.882,4.882,0,0,1-2.7-2.344,9.158,9.158,0,0,1-.391-4.922,37.376,37.376,0,0,1,1.211-4.961q.742-2.3,2.227-6.406t2.969-8.008a4.505,4.505,0,0,0,.7-1.758,1.958,1.958,0,0,1,.469-1.133,1.905,1.905,0,0,0,.469-1.055,3.108,3.108,0,0,1,.469-1.289,14.08,14.08,0,0,1,.7-1.953,2.841,2.841,0,0,1,1.875-1.328,2.911,2.911,0,0,1,1.953.781,1.714,1.714,0,0,1,.43,1.758A6.115,6.115,0,0,1-45.2-41.875q-.781,1.328-.977,1.758T-47.236-38.2q-1.094,2.734-1.758,4.1t-1.289,2.773a2.771,2.771,0,0,1-1.25,2.422.708.708,0,0,1,.117.9,4.853,4.853,0,0,0-.469.977,3.7,3.7,0,0,0-.2,1.25.785.785,0,0,1-.625.859,5.71,5.71,0,0,0-.273,1.641.687.687,0,0,1-.508.7,4.213,4.213,0,0,0-.2,1.719.943.943,0,0,1-.43.938,4.854,4.854,0,0,1-.547,2.188,1.077,1.077,0,0,1,.078,1.055,1.713,1.713,0,0,0-.078,1.133,2,2,0,0,0,.781,1.016,3.467,3.467,0,0,0,1.484.625,10.031,10.031,0,0,0,1.8.156,11.475,11.475,0,0,0,3.2-.43,13.362,13.362,0,0,1,2.344-.508,6.093,6.093,0,0,1,1.563-.625q1.328-.078,1.563-.43t1.406-.508a2.8,2.8,0,0,1,1.289-.742,4.846,4.846,0,0,0,1.406-.625q.664-.43,3.4-1.992a6.356,6.356,0,0,1,1.875-1.133,1.131,1.131,0,0,0,.742-.469,2,2,0,0,1,.7-.586q.352-.156,1.055-.391a2.391,2.391,0,0,1,1.289-1.172,14.5,14.5,0,0,1,1.523-.391,1.122,1.122,0,0,1,.742-1.133q.82-.43,1.367-.742A10.463,10.463,0,0,0-23.6-26.8a6.7,6.7,0,0,1,2.539-1.328l1.523-.469q.508-.156,1.133.625a3.415,3.415,0,0,1,.742,1.758q.117.977-1.6,2.07a10.981,10.981,0,0,1-1.484.938q-.625.313-1.8.781a2.417,2.417,0,0,1-.977.7,7.145,7.145,0,0,0-1.094.547q-.508.313-1.133.625l-1.25.625q-1.25.625-2.109,1.016a11.109,11.109,0,0,0-1.289.664,4.951,4.951,0,0,1-1.445.508,2.371,2.371,0,0,1-1.289.859,3.1,3.1,0,0,0-1.133.508,3.7,3.7,0,0,1-1.484.508,1.168,1.168,0,0,1-.781.7,3.63,3.63,0,0,0-1.133.586A2.131,2.131,0,0,1-38.955-14.141Zm-50.7,7.188a2.523,2.523,0,0,1,1.484-1.719A1.9,1.9,0,0,1-86.845-10a2.728,2.728,0,0,1,.938-1.211A3.868,3.868,0,0,0-84.853-12.3a7.7,7.7,0,0,1,1.094-1.289,4.97,4.97,0,0,0,.781-.859q.2-.312.43-.742a1.618,1.618,0,0,1,1.016-.664,4.079,4.079,0,0,1,.43-1.133,3.919,3.919,0,0,1,.664-.664,2.588,2.588,0,0,1,.82-1.133,3.591,3.591,0,0,0,.82-.742A1.635,1.635,0,0,1-77.7-20.859a2.24,2.24,0,0,1,.938-1.25,1.865,1.865,0,0,1,.7-1.25q.625-.937,1.641-2.578t2.148-3.75q1.133-2.109,1.836-3.594,0-1.172.391-1.445a1.246,1.246,0,0,0,.508-.742,9.612,9.612,0,0,0,.2-1.055,2.03,2.03,0,0,1,.859-1.211q.234-1.172.938-3.672.078-1.875.117-2.7a1.135,1.135,0,0,1,.859-1.094,3.54,3.54,0,0,1,1.641-.156,2.594,2.594,0,0,1,1.484.781,1.639,1.639,0,0,1,.547,1.445q-.117.781-.273,2.578a3.334,3.334,0,0,0-.859,1.641,1.336,1.336,0,0,1-.664,1.055,1.706,1.706,0,0,0-.664,1.445,21.539,21.539,0,0,0-1.8,3.125,26.3,26.3,0,0,1-1.641,3.32q-.781,1.289-1.328,2.148-.625.938-1.875,3.047T-74.658-20.7q-1.406,1.953-3.477,5.039t-5.2,7.3A17.456,17.456,0,0,1-84.7-6.367q-.664.82-1.445,1.992a5.125,5.125,0,0,1-2.3,1.055,3.681,3.681,0,0,1-1.641-.312q-.82-.352-.664-1.641A1.888,1.888,0,0,1-89.658-6.953ZM7.577-18.984a4.893,4.893,0,0,1,1.016-2.422A6.732,6.732,0,0,0,8.9-22.891a1.717,1.717,0,0,1,.234-.82q.234-.43.859-1.445a4.157,4.157,0,0,1,.43-1.523A2.476,2.476,0,0,0,10.78-27.7a5.375,5.375,0,0,1,.469-1.445,4.1,4.1,0,0,1,.078-1.484q.156-.469.547-1.8a5.309,5.309,0,0,0,.078-1.484,1.057,1.057,0,0,1,.117-.742,5.173,5.173,0,0,0,.352-1.523,1.76,1.76,0,0,1,.391-1.875,4.06,4.06,0,0,1,1.25-.82,1.62,1.62,0,0,1,1.367.313,2.447,2.447,0,0,1,1.094,1.406,5.846,5.846,0,0,1,.117,2.3q-.625,1.25-.9,1.836a5.967,5.967,0,0,0-.43,1.484,6.651,6.651,0,0,1-.391,1.445q-.469,1.875-.742,2.773T13.2-24.062q-.7,2.344-1.094,3.281a11.26,11.26,0,0,0-.547,1.8,20.88,20.88,0,0,1-.547,2.031A26.111,26.111,0,0,0,10.7-14.3a24.313,24.313,0,0,1,3.281-.234q.625,0,1.328-.039a5.722,5.722,0,0,0,1.25-.2,10.3,10.3,0,0,1,1.523-.273q.977-.117,2.617-.2,4.531-.391,8.242-.9a29.878,29.878,0,0,1,4.492-.43,6.392,6.392,0,0,0,2.188-.312,3.272,3.272,0,0,1,2.266,0,3.785,3.785,0,0,1,1.719-.469,4.657,4.657,0,0,0,1.406-.078,2.789,2.789,0,0,1,1.523-.391,4.759,4.759,0,0,0,1.445-.078,4.915,4.915,0,0,1,1.836-.664,3.584,3.584,0,0,1,1.523.078,3.158,3.158,0,0,1,1.367,1.133,2.234,2.234,0,0,1,.625,1.68q-.117.742-1.758,1.133a5.346,5.346,0,0,1-1.992.078,3.1,3.1,0,0,0-1.6.156,18.632,18.632,0,0,1-1.953.156,8.814,8.814,0,0,0-1.367.117q-.742.117-1.914.2-1.875.078-3.906.313a48.743,48.743,0,0,0-5.781.391q-.781.078-1.562.078H25.936a9.689,9.689,0,0,1-2.344.313A3.548,3.548,0,0,1,21.4-12.5a10.953,10.953,0,0,1-1.172.078,2.982,2.982,0,0,0-.859.117,2.873,2.873,0,0,1-1.094.039q-.937.156-1.836.273t-1.367.2a.869.869,0,0,1-.742-.156q-.273-.234-.9,0a3.349,3.349,0,0,1-1.484.156,10.588,10.588,0,0,1-1.6.391,5.561,5.561,0,0,1-1.133.039,3.606,3.606,0,0,1-.977-.2,1.154,1.154,0,0,0-1.055.313,4.229,4.229,0,0,0-1.758.156,2.185,2.185,0,0,1-1.133.156,6.949,6.949,0,0,0-1.484,0,4.874,4.874,0,0,1-2.031.391,5.723,5.723,0,0,0-2.656,0,7.09,7.09,0,0,1-1.328.2l-1.367.078q-.664.039-1.836.039-.547.078-1.289.2t-2.852.586a5.41,5.41,0,0,1-2.617.547A2.169,2.169,0,0,1-14.572-10a3.593,3.593,0,0,1-.625-1.523,1.46,1.46,0,0,1,.508-1.133,2.807,2.807,0,0,1,1.367-.742,12.1,12.1,0,0,1,2.852-.117,8.139,8.139,0,0,1,3.359.078q1.25-.078,2.07-.078a11.789,11.789,0,0,1,1.445.078,3.337,3.337,0,0,1,2.031,0q.859-.078,1.328-.117a3.475,3.475,0,0,1,1.016.078,2.4,2.4,0,0,0,1.133-.039,2.385,2.385,0,0,1,1.211,0q.859-.156,1.68-.234t2.148-.156a3.28,3.28,0,0,1-.547-2.5A18.955,18.955,0,0,1,7.577-18.984Zm17.734-21.25q-1.406-.391-2.812-.7a3.714,3.714,0,0,0-1.484-.156,1.91,1.91,0,0,1-1.133-.156,1.361,1.361,0,0,0-.9-.156,6.187,6.187,0,0,1-1.016.078,3.289,3.289,0,0,0-.937.117,1.634,1.634,0,0,1-1.016-.117q-1.016.156-1.523.2a5.56,5.56,0,0,1-1.523-.2,2.562,2.562,0,0,1-1.406.352,1.676,1.676,0,0,0-.937.039A3.488,3.488,0,0,1,8.9-41.094q-.859.156-1.367.234a8.7,8.7,0,0,1-1.68,0,1.953,1.953,0,0,1-1.094,0,1.17,1.17,0,0,0-1.016.156.945.945,0,0,1-.82.2,6.994,6.994,0,0,0-1.836-.039,13.609,13.609,0,0,0-3.437.938,14.523,14.523,0,0,1-1.8,1.211,1.542,1.542,0,0,1-1.6-.039,3.123,3.123,0,0,1-1.094-.9,1.539,1.539,0,0,1-.039-1.25,4.4,4.4,0,0,1,.664-1.406A5.183,5.183,0,0,1-3.83-43.2q1.8-.312,4.375-.508T9.92-44.3q6.016-.312,10-.312a45.264,45.264,0,0,1,6.484.391,4.616,4.616,0,0,1,1.758.234q.508.234.82,1.523t-.117,1.719a3.366,3.366,0,0,1-1.562.7A2.707,2.707,0,0,1,25.311-40.234Zm57.35-1.953q1.25.469,1.8.7a4.728,4.728,0,0,1,1.211.82,9.463,9.463,0,0,1,1.211,1.289,5.938,5.938,0,0,1,.82,1.367,5.358,5.358,0,0,1,.2,2.148,1.307,1.307,0,0,1,.156.9,3.32,3.32,0,0,0,0,1.016,3.33,3.33,0,0,1-.078,1.211,10.772,10.772,0,0,1-.937,3.789,28.763,28.763,0,0,1-1.25,2.656Q85.4-25.625,85-25a5.33,5.33,0,0,1-1.016,2.031,5.916,5.916,0,0,0-.7,1.406,7.155,7.155,0,0,1-.625,1.367q-.391.664-1.016,1.523a6.088,6.088,0,0,1-.7,1.055,11.135,11.135,0,0,0-1.016,1.6q1.406,0,2.422-.078a10.558,10.558,0,0,1,1.484-.039,1.449,1.449,0,0,1,.859.586,2.036,2.036,0,0,1,.352,1.6q-.117,1.055-.781,1.289a7.162,7.162,0,0,1-1.836.313q-.7,0-1.523-.078T78.52-12.5a2.943,2.943,0,0,1-1.328,1.016,3.627,3.627,0,0,1-1.367.2,6.255,6.255,0,0,1-1.133-.156q-.469-.117-.547-.9a27.722,27.722,0,0,0-4.18,0q-1.68.156-2.852.234a4.487,4.487,0,0,1-1.758.234,3.857,3.857,0,0,0-1.523.156,8.274,8.274,0,0,1-1.289.273,3.874,3.874,0,0,1-.937-.039,2.215,2.215,0,0,0-1.211.234,3.1,3.1,0,0,1-1.562.234,2.327,2.327,0,0,1-1.25.43q-.7.039-1.641.078a1.006,1.006,0,0,1-1.133-.9q-.2-.937-.312-1.484a1.55,1.55,0,0,1,.352-1.211,2.384,2.384,0,0,1,1.484-.9,4.6,4.6,0,0,1,1.563-.2q.781.039,1.484.039a20.123,20.123,0,0,1,2.07-.039,4.516,4.516,0,0,0,1.211-.078,14.225,14.225,0,0,1,1.875-.2,5.746,5.746,0,0,1,2.188.078,3.364,3.364,0,0,1,1.719-.312,2.461,2.461,0,0,1,.977-.117q.508.039,1.68.2a4.39,4.39,0,0,1,2.656-.312,11.4,11.4,0,0,0,1.563-.391,14.118,14.118,0,0,1,2.109-2.344,3.467,3.467,0,0,1,.625-1.484,6.093,6.093,0,0,1,1.328-1.25l.469-1.562a3.749,3.749,0,0,1,.781-1.172,4.809,4.809,0,0,0,.938-1.562,1.412,1.412,0,0,1,.391-.977,12.615,12.615,0,0,0,.938-1.211,5.464,5.464,0,0,0,.234-1.328,1.468,1.468,0,0,1,.391-.937,3.029,3.029,0,0,1,.469-1.719,11.137,11.137,0,0,0,.547-2.7,7.57,7.57,0,0,0-.156-1.562,2.8,2.8,0,0,0-1.25-1.523q-.859-.625-1.289-.977A4.11,4.11,0,0,0,80-39.18a10.86,10.86,0,0,0-1.914-.156,4.553,4.553,0,0,1-1.523-.273,14.508,14.508,0,0,0-1.523.273,1.26,1.26,0,0,1-.82-.039,1.325,1.325,0,0,0-.9,0,3,3,0,0,1-1.211.078,3.549,3.549,0,0,1-1.055,0,2.737,2.737,0,0,0-1.016.039,2.766,2.766,0,0,1-1.133,0,.919.919,0,0,0-.9.234q-.352.352-1.211.117-1.172-.156-1.523.156a2.259,2.259,0,0,1-1.523.234,1.2,1.2,0,0,1-.9.2.645.645,0,0,0-.625.117,3.592,3.592,0,0,1-1.289.391,6.116,6.116,0,0,0-2.031,1.055q-.391.43-1.406.2a2.176,2.176,0,0,1-1.289-.625,3.086,3.086,0,0,1-.43-1.094,2.147,2.147,0,0,1,.078-1.289,4.6,4.6,0,0,1,.664-1.133q.43-.547,2.773-1.016a4.246,4.246,0,0,0,1.211-.234,2.836,2.836,0,0,1,1.445.078,4.49,4.49,0,0,1,1.875-.469,10.483,10.483,0,0,1,2.813-.312q1.562-.234,4.1-.352t4.727-.2a25.544,25.544,0,0,1,3.281.234A21.6,21.6,0,0,1,82.661-42.187Zm34.5,13.672a10.34,10.34,0,0,0,.391,2.148,5.4,5.4,0,0,0,.508,1.094q.273.43,1.055,1.445a4.615,4.615,0,0,0,1.6-.117q.742-.2,1.25-.352t1.6-.469a1.671,1.671,0,0,1,1.094-.7,3.715,3.715,0,0,0,1.484-.547q2.344-.937,3.789-1.6a8.084,8.084,0,0,0,1.992-1.172,9.914,9.914,0,0,1,1.25-.977,3.135,3.135,0,0,1,1.328-.547,4.26,4.26,0,0,1,.977-.977q.43-.273,1.445-.9a1.355,1.355,0,0,1,1.25-1.016,3.847,3.847,0,0,0,.977-1.367,1.425,1.425,0,0,1,1.133-.82q.625-.937,1.25-1.719a12.148,12.148,0,0,1,1.641-1.641,8.751,8.751,0,0,0,.9-1.836,1.45,1.45,0,0,0,0-1.055,3.185,3.185,0,0,0-.7-.859,4.038,4.038,0,0,0-1.68-.781,1.623,1.623,0,0,1-1.25-.156,2.661,2.661,0,0,0-1.211-.391,2.815,2.815,0,0,1-1.133-.312,6.042,6.042,0,0,1-1.8.156,7.164,7.164,0,0,1-1.25-.273,1.687,1.687,0,0,0-1.133,0,5.47,5.47,0,0,1-1.445.273,1.961,1.961,0,0,0-1.406.039,1.766,1.766,0,0,1-1.406-.039q-1.25.234-1.8.313a14.378,14.378,0,0,1-2.187,0,2.723,2.723,0,0,1-1.484.469,1.277,1.277,0,0,0-.937.234.821.821,0,0,1-.859.117.72.72,0,0,0-.82.156,1.692,1.692,0,0,1-1.445.117,2.867,2.867,0,0,1-1.484.352.8.8,0,0,0-.742.2,1.829,1.829,0,0,1-1.367.156,3.608,3.608,0,0,1-2.031.664.97.97,0,0,0-.9.156.571.571,0,0,1-.625.156.945.945,0,0,0-.82.2,1.926,1.926,0,0,1-1.094.313,8.2,8.2,0,0,1-2.969.938,6.541,6.541,0,0,0-2.891,1.406q-1.172.625-2.266,1.328a4.927,4.927,0,0,1-.625,1.758,6.4,6.4,0,0,1-.859.547,2.385,2.385,0,0,1-1.641.156,1.811,1.811,0,0,1-1.406-1.289,4.975,4.975,0,0,1,.938-3.164,5.723,5.723,0,0,1,2.344-2.031,18.824,18.824,0,0,1,2.813-.977,90.586,90.586,0,0,1,8.867-2.461q5.508-1.289,8.281-1.641t5.977-.781a82.274,82.274,0,0,1,9.922-.43,20.938,20.938,0,0,1,3.594.313,14.46,14.46,0,0,1,3.047.977,14.048,14.048,0,0,1,1.641.938,3.632,3.632,0,0,1,1.094,1.289,8.03,8.03,0,0,1,.82,1.641A3.7,3.7,0,0,1,147.825-40q-.2,1.094-.352,1.641a2.693,2.693,0,0,1-.508.977q-.352.43-1.289,1.445-1.328,1.641-1.836,2.148t-1.055,1.016q-.547.508-3.047,2.3t-7.266,4.922a68.923,68.923,0,0,1-11.016,5.078q.938,1.719,1.094,1.953t1.172,1.875a8.159,8.159,0,0,1,1.055,1.328,7.525,7.525,0,0,0,1.289,1.484q1.094.938,2.188,1.953a10.533,10.533,0,0,0,.938.82,13.327,13.327,0,0,0,1.172.82,6.853,6.853,0,0,0,1.719.7,3.794,3.794,0,0,1,2.109.859,2.456,2.456,0,0,1,.742,1.328,1.731,1.731,0,0,1-.273,1.289,3.943,3.943,0,0,1-.781.9,2.575,2.575,0,0,1-1.445.352,2.683,2.683,0,0,1-1.836-.586A12.042,12.042,0,0,1,129-6.719a3.363,3.363,0,0,0-1.133-.781,16.994,16.994,0,0,1-2.812-2.656q-1.484-1.719-3.2-3.984t-3.281-4.766q-1.25-.469-1.836-.7a2.107,2.107,0,0,1-.977-.82,3.913,3.913,0,0,1-.156-2.383q-.859-1.484-1.406-2.3a9.766,9.766,0,0,1-.937-1.8,5.321,5.321,0,0,1-.391-1.992q-.234-1.484,1.563-2.656a2.72,2.72,0,0,1,1.445-.078,3.46,3.46,0,0,1,1.211.469,1.432,1.432,0,0,1,.586,1.016A2.35,2.35,0,0,1,117.161-28.516Zm37.747-1.328a4.335,4.335,0,0,1,2.148-.391q1.133.078,2.422.273a8.692,8.692,0,0,0,2.07.117q1.172.234,1.523.313a1.119,1.119,0,0,0,.781-.156,1.427,1.427,0,0,1,1.055-.078,13.572,13.572,0,0,0,2.266.234,10.563,10.563,0,0,1,2.227-.078l2.3.156a4.8,4.8,0,0,1,2.578.078,12.569,12.569,0,0,1,3.125-.273,25.17,25.17,0,0,0,3.672-.2,6.348,6.348,0,0,0,1.406,0q.7-.078,1.406-.2a4.6,4.6,0,0,1,1.328-.039q.625,0,1.25-.039a4.313,4.313,0,0,0,1.25-.273q1.094,0,1.875-.078t1.953-.156a9.752,9.752,0,0,0,2.578-.625,9.957,9.957,0,0,1,1.8,0,4.328,4.328,0,0,1,1.211.391,1.348,1.348,0,0,1,.742,1.211,2.711,2.711,0,0,1-.2,1.445,1.3,1.3,0,0,1-.742.7,8.78,8.78,0,0,1-1.68.273q-1.211.117-2.344.156t-2.93.2q-2.578-.156-10.859.2t-9.375.391a5.73,5.73,0,0,1-2.031-.273,8.672,8.672,0,0,1-1.6.469,7.15,7.15,0,0,1-2.461-.156,2.628,2.628,0,0,1-1.8.43,4.794,4.794,0,0,0-1.367-.234,6.548,6.548,0,0,0-1.6.117q-1.719.469-2.383.586a2.824,2.824,0,0,1-1.68-.391,2.163,2.163,0,0,1-1.016-2.148Q153.814-29.531,154.908-29.844Zm65.638,24.3a1.724,1.724,0,0,1-.469,1.211,5.283,5.283,0,0,1-.937.82q-.078,1.172-.508,1.25t-.82,1.094a6.4,6.4,0,0,0-.781.977,4.887,4.887,0,0,0-.625,1.6q-.312.469-.742,1.172a1.3,1.3,0,0,1-1.445.547,2.255,2.255,0,0,1-1.523-.82,3.781,3.781,0,0,1-.664-1.211,3.331,3.331,0,0,1-.039-1.367,1.747,1.747,0,0,1,.9-1.289q.859-1.172,1.523-1.953a4.628,4.628,0,0,1,1.445-1.172,3.082,3.082,0,0,1,1.094-1.328q1.094-1.094,2.344-2.578a19.744,19.744,0,0,1,1.719-2.344,36.83,36.83,0,0,0,2.266-3.008q1.563-2.227,4.883-6.523t6.289-8.672q.7-1.172,1.523-2.5t1.523-2.422q.7-1.094,1.172-1.836a15,15,0,0,0,.859-1.562q.391-.82.742-1.562t1.133-3.008a20.619,20.619,0,0,0,.039-2.07.7.7,0,0,0-.508-.664,8.5,8.5,0,0,1-1.562-.859,10.786,10.786,0,0,1-2.773-.234,3.907,3.907,0,0,0-1.562-.156,10.826,10.826,0,0,0-1.6.273,11.637,11.637,0,0,1-2.031.273,3.189,3.189,0,0,1-1.6.7,1.371,1.371,0,0,0-1.055.547,4.907,4.907,0,0,1-1.445,1.094,1.561,1.561,0,0,1-1.758-.156q-.859-.625-1.172-.9a1.54,1.54,0,0,1-.391-1.016,2.1,2.1,0,0,1,.742-1.6,4.766,4.766,0,0,1,2.07-1.25,2.421,2.421,0,0,1,1.953-.547q1.563-.469,2.5-.781a5.786,5.786,0,0,1,1.836-.312q.9,0,2.5.039t2.266.039a10.7,10.7,0,0,1,2.07.313,4.712,4.712,0,0,0,1.484.352,3.066,3.066,0,0,1,1.289.352,4.56,4.56,0,0,1,1.25,1.094A7.384,7.384,0,0,1,245-45.9a4.413,4.413,0,0,1,.313,2.148,3.4,3.4,0,0,1-.156,1.875A7.5,7.5,0,0,0,244.608-40a1.01,1.01,0,0,1-.43.82,1.124,1.124,0,0,0-.508.664,10.689,10.689,0,0,1-.469,1.133,4.91,4.91,0,0,1-1.172,1.445,3.683,3.683,0,0,1-.977,1.836,1,1,0,0,0-.469.938,1.773,1.773,0,0,1-.664,1.289,3.76,3.76,0,0,0-.937.938,1.961,1.961,0,0,1-.547.625,1.357,1.357,0,0,0-.469.938,2.815,2.815,0,0,0-.859.938,6.078,6.078,0,0,1-.625.977q-.391.508-3.125,4.1t-3.32,4.609a6.98,6.98,0,0,1-1.367,1.719q-.234.938-.625,1.094a3.855,3.855,0,0,0-1.172,1.25,8.887,8.887,0,0,0-.781,1.328,1.827,1.827,0,0,1-.859.781,5.319,5.319,0,0,0-.625,1.406,2.677,2.677,0,0,1-1.094,1.328,3.683,3.683,0,0,0-1.211,1.6,3.693,3.693,0,0,1-.781,1.367A7.979,7.979,0,0,0,220.545-5.547ZM212.42-37.578a4.257,4.257,0,0,1-1.016,1.563,5.566,5.566,0,0,1-1.562,1.563,5.7,5.7,0,0,1-.625,1.211,2.8,2.8,0,0,0-.234,1.68,3.192,3.192,0,0,1,.938,1.836,1.925,1.925,0,0,1-.977,1.68,2.533,2.533,0,0,1-1.8.664,2.13,2.13,0,0,1-1.211-.586,6.208,6.208,0,0,1-.781-.937,2.773,2.773,0,0,1-.586-2.539,12.4,12.4,0,0,1,.9-2.461,14.964,14.964,0,0,1,1.641-2.187,8.244,8.244,0,0,0,1.172-1.523,7.711,7.711,0,0,1,1.211-1.523q.9-.937,2.852-2.891a4.526,4.526,0,0,0,.859-.977,7.456,7.456,0,0,1,.938-1.133,12.51,12.51,0,0,1,2.188-2.344A14.355,14.355,0,0,0,218.9-49.3q.7-.391,1.445-.859a2.547,2.547,0,0,0,1.055-1.406,6.394,6.394,0,0,0,2.031-1.719,2.271,2.271,0,0,1,.859-.781,2.063,2.063,0,0,0,.781-.625,8.24,8.24,0,0,1,1.328-1.172,12.613,12.613,0,0,0,1.211-.937,3.374,3.374,0,0,1,1.523-.625,3.468,3.468,0,0,1,2.031.547,3.151,3.151,0,0,1,1.133,1.25,1.673,1.673,0,0,1-.156,1.289,1.79,1.79,0,0,1-.977.977,11.509,11.509,0,0,1-1.25.391,7.482,7.482,0,0,0-1.8.859,27.244,27.244,0,0,0-4.141,3.2q-2.422,2.187-4.8,4.531t-3.4,3.4q-1.016,1.055-2.109,2.07A1.719,1.719,0,0,1,212.42-37.578Z" transform="matrix(0.999, -0.035, 0.035, 0.999, 375.754, 365.288)" fill="#009f39" stroke="#009f3a" stroke-width="2"/>
    <path id="パス_3193" data-name="パス 3193" d="M4358.683,8008.586c-116.589-.434-344.9,14.584-477.9,26.236-68.334,5.987-99.015,11.819-102.123,12.65-9.143,2.444,4.968,2.065,4.968,2.065" transform="translate(-3690 -7649.077)" fill="none" stroke="#009f39" stroke-linecap="round" stroke-width="3"/>
  </g>
</svg>
