<svg xmlns="http://www.w3.org/2000/svg" width="586.113" height="107.411" viewBox="0 0 586.113 107.411">
  <g id="earth_modal_item1_title" transform="translate(-84.075 -325.656)">
    <path id="パス_6087" data-name="パス 6087" d="M-196.034-12.187a6.367,6.367,0,0,0-1.406-1.523,2.877,2.877,0,0,1-.937-1.055,9.06,9.06,0,0,1-1.484-1.8q-.859-1.25-2.148-2.93t-1.641-2.109q-.352-.43-2.461-3.477-2.031-3.047-3.672-5.469t-2.5-3.711q-.859-1.289-1.562-2.3a2.324,2.324,0,0,0-1.523-.664,2.585,2.585,0,0,0-1.523.9,2.23,2.23,0,0,0-1.094,1.055.892.892,0,0,1-.859.586l-1.25,1.25a2.655,2.655,0,0,1-.352,1.25,5.7,5.7,0,0,1-.9.938,3.293,3.293,0,0,1-1.406,1.641,2.207,2.207,0,0,1-.7,1.406,1.4,1.4,0,0,0-.586.977,2.281,2.281,0,0,1-.586,1.172,4.262,4.262,0,0,1-1.016.82,7.178,7.178,0,0,0-1.016,2.266l-.937.781a11.7,11.7,0,0,0-.547,1.875,3.188,3.188,0,0,0-.078,2.3,1.821,1.821,0,0,1-.156,1.836,1.547,1.547,0,0,1-1.289.586q-.742-.039-1.328-.039a2.034,2.034,0,0,1-1.211-.469,1.689,1.689,0,0,1-.625-1.445,9.172,9.172,0,0,1,.391-2.383,11.29,11.29,0,0,1,.859-2.031,19.815,19.815,0,0,1,1.328-2.109q.781-1.094,1.8-2.773t3.828-5.547q2.813-3.867,5.391-6.758a2.316,2.316,0,0,1,1.406-1.328,3.553,3.553,0,0,1,1.445-.82,4.885,4.885,0,0,1,1.875-.039,4.142,4.142,0,0,1,2.227,1.172,13.333,13.333,0,0,0,.938,1.328q.391.469.742.977a9.711,9.711,0,0,1,.82,1.6,6.209,6.209,0,0,1,.742,1.328.932.932,0,0,0,.547.586q.43.2.586,1.211a4.642,4.642,0,0,1,1.563,1.953,2.647,2.647,0,0,1,1.016,1.563,3.282,3.282,0,0,1,1.016,1.406q.391.469.7.9a3.524,3.524,0,0,1,.508,1.211,1.737,1.737,0,0,0,1.055,1.172,12.976,12.976,0,0,1,.977,1.641,19.185,19.185,0,0,0,.977,1.719,4.753,4.753,0,0,1,1.211,1.328l.586,1.172a8.588,8.588,0,0,1,1.25,1.172q.859.938,1.8,1.836a22.164,22.164,0,0,0,2.344,1.914A17.06,17.06,0,0,0-191-12.656q.742.469,1.68,1.094.547.391,1.133.781a2.246,2.246,0,0,1,.859,1.133,1.318,1.318,0,0,1-.312,1.406,2.285,2.285,0,0,1-1.445.781,3.727,3.727,0,0,1-1.445-.039,5.512,5.512,0,0,1-1.445-.7q-1.094-1.016-2.031-1.914T-196.034-12.187Zm1.563-30a6.374,6.374,0,0,0,1.211,1.211q.43.273,2.07,1.523a6.5,6.5,0,0,1,1.328.859,1.936,1.936,0,0,1,.625,1.367,1.416,1.416,0,0,1-.742,1.406,2.469,2.469,0,0,1-1.562.43,3.327,3.327,0,0,1-1.68-.859,12.123,12.123,0,0,1-1.367-1.25,5.54,5.54,0,0,0-1.211-1.016,3.136,3.136,0,0,1-1.016-1.016,5.361,5.361,0,0,0-1.055-1.25,1.949,1.949,0,0,1-.625-.937,7.253,7.253,0,0,0-.977-1.641,5.537,5.537,0,0,1-.625-1.484,5.267,5.267,0,0,0-.781-1.641,13.338,13.338,0,0,1-.625-2.148,9.329,9.329,0,0,0-.234-1.172,1.219,1.219,0,0,1,.391-1.172,2.68,2.68,0,0,1,1.758-.7,1.851,1.851,0,0,1,1.719.508,1.984,1.984,0,0,1,.508,1.25q0,.625.078,2.344.547,1.563,1.016,2.578a3.509,3.509,0,0,1,.625,1.25A4.985,4.985,0,0,0-194.472-42.187Zm14.766,4.453q.469,1.016.664,1.484a1.268,1.268,0,0,1-.273,1.172,2.118,2.118,0,0,1-1.055.9,2.344,2.344,0,0,1-1.445-.078,1.872,1.872,0,0,1-1.211-1.211,7.005,7.005,0,0,1-.352-2.422,7.1,7.1,0,0,1-.7-2.07q-.078-.742-.43-2.344a15.539,15.539,0,0,1-.391-2.617,11.982,11.982,0,0,0-.586-2.812,15.725,15.725,0,0,1-.156-2.227,2.715,2.715,0,0,1,.391-1.641q.391-.508,1.719-.43,1.484.078,1.8.781a5.988,5.988,0,0,1,.43,1.758,9.851,9.851,0,0,1-.039,2.3,8.224,8.224,0,0,0,.234,2.344,2.117,2.117,0,0,1,.039,1.328A2.208,2.208,0,0,0-181-42.109q.273.781.625,1.8A20.167,20.167,0,0,1-179.706-37.734Zm54.922,8.125q1.562-.547,2.5-.937.859-.313,1.8-.7a8.631,8.631,0,0,1,1.367-.586,2.659,2.659,0,0,0,.859-.43,4.092,4.092,0,0,1,1.367-.547,2.21,2.21,0,0,1,1.563-.273q1.016.117,1.211,1.445a2.5,2.5,0,0,1-.234,1.875,1.754,1.754,0,0,1-1.289.625,3.374,3.374,0,0,0-1.445.43,3.734,3.734,0,0,1-1.406.469q-.82.117-1.289.234a4.58,4.58,0,0,0-.937.352,3,3,0,0,1-2.266.391,12.888,12.888,0,0,1-2.266,1.406,3.117,3.117,0,0,0-1.68.586,6.252,6.252,0,0,1-1.758.82,2.3,2.3,0,0,1-1.875.859,1.067,1.067,0,0,1-1.016.352q-.547-.117-1.055.547t-.937.508a.792.792,0,0,0-.859.273,2.988,2.988,0,0,1-1.016.664,9.069,9.069,0,0,0-1.133.547q-.547.313-1.719,1.016a3.781,3.781,0,0,1-1.211.7,3.98,3.98,0,0,0-1.289.781,7.692,7.692,0,0,1-2.031,1.172,1.887,1.887,0,0,0-1.172.7q-.937.781-1.406,1.094a1.585,1.585,0,0,1-.859.313q-.391,0-.859.781a6.716,6.716,0,0,1-1.328.7,4.281,4.281,0,0,0-1.094.625,3.336,3.336,0,0,1-.9.977,6.92,6.92,0,0,1-1.289.586,4.57,4.57,0,0,1-2.187,1.563q-.781.938-1.133,1.289t-1.289,1.211a3.76,3.76,0,0,1,.156,2.07,3.618,3.618,0,0,1-.82.938,2.011,2.011,0,0,1-1.172.547,6.137,6.137,0,0,1-1.836-.312,3.012,3.012,0,0,1-1.875-1.445,3.527,3.527,0,0,1,.039-1.875A5.056,5.056,0,0,1-160.488-9.3,11.794,11.794,0,0,0-159-10.352q.7-.586,3.281-2.3a14.728,14.728,0,0,0,2.422-1.719q2.344-1.328,4.1-2.422t4.453-2.656q2.7-1.562,4.18-2.344t4.023-2.07q2.539-1.289,6.25-3.086t4.3-1.992A4.328,4.328,0,0,0-124.784-29.609Zm-35.547-19.453a13.937,13.937,0,0,1,4.453,1.289,22.981,22.981,0,0,1,2.539,1.484A12.077,12.077,0,0,1-151.816-45a1.878,1.878,0,0,1,1.25,1.25,8.634,8.634,0,0,1,1.328.9,4.9,4.9,0,0,1,.742.859,2.028,2.028,0,0,1,.313,1.289,2.038,2.038,0,0,1-.547,1.328,1.728,1.728,0,0,1-1.328.547,3.086,3.086,0,0,1-1.523-.391q-.781-.781-1.484-1.641a2.25,2.25,0,0,0-1.328-.937,1.379,1.379,0,0,1-.977-.547,5.752,5.752,0,0,1-.547-.859.866.866,0,0,0-.859-.391,1.283,1.283,0,0,1-.9-.234,3.6,3.6,0,0,0-1.25-.547,16.627,16.627,0,0,0-1.953-.312,1.76,1.76,0,0,1-1.172-.43q-.312-.352-.625-.742a1.049,1.049,0,0,1-.078-1.055,4.935,4.935,0,0,1,.781-1.367A2.158,2.158,0,0,1-160.331-49.062Zm32.344,3.438a4.807,4.807,0,0,1,.7,1.719,1.658,1.658,0,0,0,.781,1.016q1.016,1.563.547,2.227a3.875,3.875,0,0,1-.859.938,2.677,2.677,0,0,1-1.094.391,2.119,2.119,0,0,1-1.328-.2,3.8,3.8,0,0,1-1.328-1.719,22.368,22.368,0,0,0-.586-2.578,16.535,16.535,0,0,1-.508-2.383q-.234-1.523-.352-2.227t-.352-1.875q-.078-1.25-.078-1.8a2.406,2.406,0,0,1,.664-1.367,1.751,1.751,0,0,1,1.563-.742,3.535,3.535,0,0,1,1.445.391,1.921,1.921,0,0,1,.82,1.094,2.732,2.732,0,0,1,.156,1.406,12.158,12.158,0,0,1-.508,1.719,8.182,8.182,0,0,0,.117,2.148A9.384,9.384,0,0,1-127.988-45.625Zm-24.375,16.094a3.327,3.327,0,0,1,.859,1.68,2.286,2.286,0,0,1-.664,1.641q-.742.9-1.484.7a5.156,5.156,0,0,1-1.914-1.289q-1.953-.859-2.93-1.406a15.561,15.561,0,0,0-2.617-1.094,11.385,11.385,0,0,1-2.3-.82,2.067,2.067,0,0,1-1.055-1.055,3.174,3.174,0,0,1-.078-1.6,1.589,1.589,0,0,1,1.328-1.289,6.723,6.723,0,0,1,3.672.625q3.2,1.563,4.141,1.914a7.691,7.691,0,0,1,1.719.9A9.925,9.925,0,0,1-152.363-29.531Zm35.7-24.453a2.3,2.3,0,0,1,.938-1.914,2.829,2.829,0,0,1,1.25-.43,2.139,2.139,0,0,1,1.289.508,1.713,1.713,0,0,1,.742,1.133,4.112,4.112,0,0,1-.234,1.641A6.6,6.6,0,0,0-113.886-50q-.508,2.344-.7,3.086a10.213,10.213,0,0,0-.273,1.836,1.792,1.792,0,0,1-.156,1.523q-.391.508-.664.9a1.622,1.622,0,0,1-1.055.547,1.661,1.661,0,0,1-1.367-.273,2.745,2.745,0,0,1-.859-.977,1.585,1.585,0,0,1,.039-1.328,10.912,10.912,0,0,1,.273-1.8l.859-3.437a22.081,22.081,0,0,0,.664-3.164A1.149,1.149,0,0,1-116.659-53.984Zm25,13.125q-2.891,2.656-3.906,3.828a10.035,10.035,0,0,0-1.328,1.8,6.12,6.12,0,0,1-.078,2.227,1.721,1.721,0,0,1-.664,1.133,2.96,2.96,0,0,1-1.055.313,3.19,3.19,0,0,1-1.6-.352,1.677,1.677,0,0,1-1.055-1.523q.156-1.172.313-1.992a3.119,3.119,0,0,1,.586-1.367q.43-.547.742-.977a8.205,8.205,0,0,1,1.094-1.133,2.248,2.248,0,0,0,1.016-.742q.391-.508.781-1.133a1.4,1.4,0,0,0,.7-.469,5.441,5.441,0,0,1,1.172-.937,6.585,6.585,0,0,1,1.328-1.484,6.923,6.923,0,0,1,1.641-.781,1.406,1.406,0,0,0,.859-.9,2.238,2.238,0,0,1,1.406-1.133A4.6,4.6,0,0,0-88.339-47.5a2.078,2.078,0,0,1,1.211-.625,2.956,2.956,0,0,1,1.094-1.289q.547-.273,1.172-.664A2.828,2.828,0,0,0-84-50.82a1.386,1.386,0,0,1,.859-.508,1.808,1.808,0,0,1,1.328-.547q.156-.859.547-.937a1.21,1.21,0,0,0,.7-.469,6.263,6.263,0,0,1,.7-.742A6.913,6.913,0,0,1-78.73-54.8a17.388,17.388,0,0,1,1.836-.9q1.094-.469,1.719-.781a3.851,3.851,0,0,1,2.188-.625,1.662,1.662,0,0,1,1.719,1.133,2.523,2.523,0,0,1-.2,1.992A1.809,1.809,0,0,1-72.6-52.93q-.625.117-2.344.43a7.125,7.125,0,0,0-2.227.977,16.142,16.142,0,0,1-1.523.977q-.7.391-1.953,1.172-5.391,3.828-7.617,5.508a11.089,11.089,0,0,0-2.5,2.227A1.577,1.577,0,0,1-91.659-40.859ZM-67.519-49.3a3.309,3.309,0,0,1,1.367.234,9.394,9.394,0,0,0,1.133.43A2.243,2.243,0,0,1-64-48.008a6.835,6.835,0,0,0,.781.742,3.012,3.012,0,0,1,.742,1.016q.352.7.742,1.719a11.483,11.483,0,0,1,.234,2.773,5.245,5.245,0,0,1-.352,1.68q-.273.625-.9,1.875a7.112,7.112,0,0,0-.781,1.094,13.949,13.949,0,0,0-.625,1.25,22.5,22.5,0,0,1-2.187,3.125,34.1,34.1,0,0,0-2.578,3.672,4.258,4.258,0,0,1-1.484,1.8q-1.406,1.8-2.187,2.969a16.735,16.735,0,0,1,2.031,1.484q.781,1.172.273,1.914a2.813,2.813,0,0,1-.9.938A2.585,2.585,0,0,1-72.675-20a4.849,4.849,0,0,1-2.187-1.25q-2.891,3.281-5.039,5.9t-5.312,6.133q-3.164,3.516-4.8,5.156T-93.066-.781Q-94.472.859-95.488,2.188a3.879,3.879,0,0,1-1.992.391,4.936,4.936,0,0,1-1.25-.664A1.347,1.347,0,0,1-99.316.469a4.466,4.466,0,0,1,.664-1.719,14.273,14.273,0,0,1,.859-1.211,1.62,1.62,0,0,1,1.016-.547,6.5,6.5,0,0,0,1.523-.508q.938-.859,1.289-1.25a1.947,1.947,0,0,1,.781-.547,1.47,1.47,0,0,0,.742-.7A14.057,14.057,0,0,0-91.152-7.3q.273-.352.625-.82a1.687,1.687,0,0,1,.977-.625A15.541,15.541,0,0,1-87.909-10.2a2.078,2.078,0,0,0,.9-1.25q.117-.664,1.211-1.289a16.008,16.008,0,0,1,1.484-1.719,13.8,13.8,0,0,0,1.406-1.641,48.159,48.159,0,0,0,3.633-3.945q1.133-1.445,2.227-2.7-2.656-1.719-3.906-2.734a21.027,21.027,0,0,0-2.422-1.719q-1.016-.859-1.914-1.6a6.417,6.417,0,0,1-1.523-1.875,2.17,2.17,0,0,1,.078-2.3q.781-1.563,1.953-1.406a1.989,1.989,0,0,1,1.563.82,1.477,1.477,0,0,1,.2,1.25q-.2.586.9,1.6a2.387,2.387,0,0,1,1.563,1.328,13.394,13.394,0,0,0,2.109,1.211,4.631,4.631,0,0,1,1.563,1.6q.625.391,1.953,1.25a20.118,20.118,0,0,0,1.68-2.07q.43-.664,1.25-1.836t1.953-2.7q1.133-1.523,2.344-3.477a29.905,29.905,0,0,0,1.641-2.891,11.232,11.232,0,0,1,.82-1.523,10.842,10.842,0,0,0,.859-1.68,8.856,8.856,0,0,0-.156-2.5,10.855,10.855,0,0,0-1.172-.977q-.313-.2-1.562-1.055a14.133,14.133,0,0,1-2.656-.547q-.859.547-1.133.43a2.174,2.174,0,0,0-.977-.039q-.7.078-1.367.156a1.283,1.283,0,0,0-.977.547.933.933,0,0,1-.9.43,6.984,6.984,0,0,0-1.992.352,4.416,4.416,0,0,0-1.094,1.172,1.79,1.79,0,0,1-1.289.742,3.459,3.459,0,0,1-1.8-.078q-.82-.273-.977-1.6a2.6,2.6,0,0,1,.273-1.875,5.659,5.659,0,0,1,1.914-1.25q1.641-.625,2.578-.9t2.852-.7a20.967,20.967,0,0,1,3.633-.508A13.181,13.181,0,0,1-67.519-49.3Zm31.3,43.984a12.661,12.661,0,0,0-1.719,2.07,2.812,2.812,0,0,1-.859.977,1.659,1.659,0,0,1-1.094.352,1.214,1.214,0,0,0-.977.391q-.43.43-1.484.078t-1.094-1.133a10.441,10.441,0,0,1,.039-1.562q.078-.781,1.25-1.523t2.109-1.445a58.174,58.174,0,0,0,6.094-5.078q2.578-2.5,5.938-5.391a28.458,28.458,0,0,0,2.109-2.031,7.281,7.281,0,0,1,1.641-1.328q.859-.547.977-.977a.858.858,0,0,1,.664-.586,6.454,6.454,0,0,1,.781-1.289,1.765,1.765,0,0,1,.859-.508q.859-.7,1.8-1.484A2.114,2.114,0,0,1-18.1-27.344a2.442,2.442,0,0,1,.625-1.133q.391-.352,1.406-1.133a2.628,2.628,0,0,1,.7-1.133,1.851,1.851,0,0,0,.586-.9,1.2,1.2,0,0,1,.547-.742,3.058,3.058,0,0,0,.859-.937q.43-.664,1.211-1.836a11.368,11.368,0,0,0,1.172-2.187A3.592,3.592,0,0,0-11.3-40a2.743,2.743,0,0,0-1.719-1.523,8.8,8.8,0,0,0-2.617-.586q-1.289-.078-2.617-.234a5.433,5.433,0,0,1-2.422.234,10.671,10.671,0,0,0-2.578,0,5.067,5.067,0,0,1-3.2.156,1.734,1.734,0,0,1-1.172.508,4.32,4.32,0,0,0-1.055.156,1.541,1.541,0,0,1-.9-.039.852.852,0,0,0-.9.2,1,1,0,0,1-.9.273,9.942,9.942,0,0,1-1.289.313,7.241,7.241,0,0,1-1.523,0A1.81,1.81,0,0,1-35.245-40a30.848,30.848,0,0,0-3.164.859,1.543,1.543,0,0,1-1.211.7,1.3,1.3,0,0,0-1.055.469,2.2,2.2,0,0,1-1.562.547,4.769,4.769,0,0,0-.391,1.289,1.019,1.019,0,0,1-.508.82,11.808,11.808,0,0,1-1.211.547q-.781.312-1.875-.7a2.048,2.048,0,0,1-.625-2.344A5.246,5.246,0,0,1-43.956-40.7a17.05,17.05,0,0,1,2.813-.937q1.406-.625,2.109-.9a11.385,11.385,0,0,1,1.992-.508,5.461,5.461,0,0,0,1.719-.508,1.78,1.78,0,0,1,.977-.273q2.422-.469,7.93-1.133a58.944,58.944,0,0,1,10.039-.43,13.169,13.169,0,0,1,3.008.156q1.211.234,2.3.547a4.99,4.99,0,0,1,2.109,1.719A2.3,2.3,0,0,1-7.863-41.6a4.38,4.38,0,0,0,.391,1.172A2.868,2.868,0,0,1-7.2-39.219a2.931,2.931,0,0,1-.117,1.172q-.156.391-.547,1.953a11.605,11.605,0,0,1-2.969,4.531,73.606,73.606,0,0,1-8.281,9.414q-5.547,5.508-9.766,9.18A56.048,56.048,0,0,0-36.222-5.312ZM-2.55-51.641q.781.312,1.25,1.953a18.556,18.556,0,0,1,1.25,2.5,16.318,16.318,0,0,1,.859,1.523q.234.508.43.9a2.134,2.134,0,0,1-.117,1.406A1.816,1.816,0,0,1,.067-42.07a1.486,1.486,0,0,1-1.25,0q-.508-.273-1.25-.625T-3.722-45q-.391-1.563-.625-2.383a8.259,8.259,0,0,0-.7-1.68,5.359,5.359,0,0,1-1.289-2.109A3.146,3.146,0,0,0-6.925-52.5q-.547-.625-1.172-1.367a2.441,2.441,0,0,1-.625-1.6,1.875,1.875,0,0,1,1.68-1.719,3.425,3.425,0,0,1,2.461.625,8.069,8.069,0,0,0,1.094,1.914,1.968,1.968,0,0,1,.508.938A19.272,19.272,0,0,1-2.55-51.641ZM8-50.859a16.055,16.055,0,0,0,.9,1.914,11.143,11.143,0,0,1,.625,1.172,3.591,3.591,0,0,0,.9,1.211q.938.469,1.055,1.094a2.732,2.732,0,0,1-.156,1.406,2.078,2.078,0,0,1-.977,1.172,1.664,1.664,0,0,1-1.445.117,6.7,6.7,0,0,1-2.148-1.992q-1.25-2.422-1.6-3.008A8.849,8.849,0,0,1,4.4-49.687a37.763,37.763,0,0,1-.859-4.844,4.048,4.048,0,0,1,.391-2.031,1.325,1.325,0,0,1,1.25-1.016l.469.039q.469.039.977.117t1.055.977a2.72,2.72,0,0,1,.469,1.68q-.078.781-.156,1.406A10.039,10.039,0,0,1,8-50.859ZM54.066-14.141A21.816,21.816,0,0,1,50.2-12.5q-1.992.625-3.242.977t-2.266.547a11.148,11.148,0,0,1-2.109.2,11.156,11.156,0,0,1-1.992-.234q-.586-.156-1.953-.469a4.882,4.882,0,0,1-2.7-2.344,9.158,9.158,0,0,1-.391-4.922,37.376,37.376,0,0,1,1.211-4.961q.742-2.3,2.227-6.406t2.969-8.008a4.505,4.505,0,0,0,.7-1.758,1.958,1.958,0,0,1,.469-1.133A1.905,1.905,0,0,0,43.6-42.07a3.108,3.108,0,0,1,.469-1.289,14.08,14.08,0,0,1,.7-1.953,2.841,2.841,0,0,1,1.875-1.328,2.911,2.911,0,0,1,1.953.781,1.714,1.714,0,0,1,.43,1.758,6.115,6.115,0,0,1-1.211,2.227q-.781,1.328-.977,1.758T45.784-38.2q-1.094,2.734-1.758,4.1t-1.289,2.773a2.771,2.771,0,0,1-1.25,2.422.708.708,0,0,1,.117.9,4.853,4.853,0,0,0-.469.977,3.7,3.7,0,0,0-.2,1.25.785.785,0,0,1-.625.859,5.71,5.71,0,0,0-.273,1.641.687.687,0,0,1-.508.7,4.213,4.213,0,0,0-.2,1.719.943.943,0,0,1-.43.938,4.854,4.854,0,0,1-.547,2.188,1.077,1.077,0,0,1,.078,1.055,1.713,1.713,0,0,0-.078,1.133,2,2,0,0,0,.781,1.016,3.467,3.467,0,0,0,1.484.625,10.031,10.031,0,0,0,1.8.156,11.475,11.475,0,0,0,3.2-.43,13.362,13.362,0,0,1,2.344-.508,6.093,6.093,0,0,1,1.563-.625q1.328-.078,1.563-.43T52.5-16.25a2.8,2.8,0,0,1,1.289-.742,4.846,4.846,0,0,0,1.406-.625q.664-.43,3.4-1.992a6.356,6.356,0,0,1,1.875-1.133,1.131,1.131,0,0,0,.742-.469,2,2,0,0,1,.7-.586q.352-.156,1.055-.391a2.391,2.391,0,0,1,1.289-1.172,14.5,14.5,0,0,1,1.523-.391,1.122,1.122,0,0,1,.742-1.133q.82-.43,1.367-.742A10.463,10.463,0,0,0,69.417-26.8a6.7,6.7,0,0,1,2.539-1.328l1.523-.469q.508-.156,1.133.625a3.415,3.415,0,0,1,.742,1.758q.117.977-1.6,2.07a10.981,10.981,0,0,1-1.484.938q-.625.313-1.8.781a2.417,2.417,0,0,1-.977.7,7.145,7.145,0,0,0-1.094.547q-.508.313-1.133.625l-1.25.625q-1.25.625-2.109,1.016a11.109,11.109,0,0,0-1.289.664,4.951,4.951,0,0,1-1.445.508,2.371,2.371,0,0,1-1.289.859,3.1,3.1,0,0,0-1.133.508,3.7,3.7,0,0,1-1.484.508,1.168,1.168,0,0,1-.781.7,3.63,3.63,0,0,0-1.133.586A2.131,2.131,0,0,1,54.066-14.141ZM3.363-6.953A2.523,2.523,0,0,1,4.847-8.672,1.9,1.9,0,0,1,6.175-10a2.728,2.728,0,0,1,.938-1.211A3.868,3.868,0,0,0,8.167-12.3a7.7,7.7,0,0,1,1.094-1.289,4.97,4.97,0,0,0,.781-.859q.2-.312.43-.742a1.618,1.618,0,0,1,1.016-.664,4.079,4.079,0,0,1,.43-1.133,3.919,3.919,0,0,1,.664-.664,2.588,2.588,0,0,1,.82-1.133,3.591,3.591,0,0,0,.82-.742,1.635,1.635,0,0,1,1.094-1.328,2.24,2.24,0,0,1,.937-1.25,1.865,1.865,0,0,1,.7-1.25q.625-.937,1.641-2.578t2.148-3.75q1.133-2.109,1.836-3.594,0-1.172.391-1.445a1.246,1.246,0,0,0,.508-.742,9.611,9.611,0,0,0,.2-1.055,2.03,2.03,0,0,1,.859-1.211q.234-1.172.938-3.672.078-1.875.117-2.7a1.135,1.135,0,0,1,.859-1.094,3.54,3.54,0,0,1,1.641-.156,2.594,2.594,0,0,1,1.484.781,1.639,1.639,0,0,1,.547,1.445q-.117.781-.273,2.578a3.334,3.334,0,0,0-.859,1.641,1.336,1.336,0,0,1-.664,1.055,1.706,1.706,0,0,0-.664,1.445,21.54,21.54,0,0,0-1.8,3.125,26.3,26.3,0,0,1-1.641,3.32q-.781,1.289-1.328,2.148-.625.938-1.875,3.047T18.363-20.7q-1.406,1.953-3.477,5.039t-5.2,7.3A17.456,17.456,0,0,1,8.323-6.367q-.664.82-1.445,1.992a5.125,5.125,0,0,1-2.3,1.055,3.681,3.681,0,0,1-1.641-.312q-.82-.352-.664-1.641A1.888,1.888,0,0,1,3.363-6.953Zm119.3-45.391a7.045,7.045,0,0,1,2.5-1.016h.078a2.718,2.718,0,0,1,1.719.7,1.833,1.833,0,0,1,.625,1.8,2.636,2.636,0,0,1-.664,1.328,2.137,2.137,0,0,1-1.094.508,5.446,5.446,0,0,1-1.289.078,1.723,1.723,0,0,0-1.094.273q-.937.469-1.953.938a2.18,2.18,0,0,1-1.484.547,5.8,5.8,0,0,1-1.562,1.328q-1.016.625-1.953,1.328a3.1,3.1,0,0,1-1.172.586,3.04,3.04,0,0,0-1.328.82,1,1,0,0,1-.859.625q-.781,1.016-1.562.938a8.913,8.913,0,0,1-1.719,1.719,12.556,12.556,0,0,0-2.891,1.875,6.275,6.275,0,0,0-1.8,1.406q-.859.625-1.719,1.133a5.907,5.907,0,0,0-1.562,1.367q-.937.781-1.953,1.484-.937.7-2.383,1.914a7.774,7.774,0,0,0-1.836,1.953,1.675,1.675,0,0,1-1.25.9,2.084,2.084,0,0,1-1.328,1.25,11.088,11.088,0,0,1-1.25,1.445,3.133,3.133,0,0,0-.742.938,1.885,1.885,0,0,1-.469.664,2.6,2.6,0,0,0-.547.742,2.012,2.012,0,0,1-.625.742q-.352.234-.039,1.094.7.391,1.367.781a1.538,1.538,0,0,1,.781,1.133,1.3,1.3,0,0,1-.469,1.25,7.234,7.234,0,0,0-.9.9,1.649,1.649,0,0,1-1.25.43,3.8,3.8,0,0,1-1.875-.43,4.244,4.244,0,0,1-1.484-1.172A3.46,3.46,0,0,1,84.5-20.039a2.737,2.737,0,0,1,.391-2.031,14.772,14.772,0,0,1,1.523-1.914q1.328-1.484,2.031-2.148a3.349,3.349,0,0,0,.9-1.211q.2-.547,1.289-.781a4.4,4.4,0,0,1,1.328-1.25,5.414,5.414,0,0,1,1.719-1.719,32.773,32.773,0,0,1,3.516-3.047q.938-.781,3.437-2.773t5.938-4.57q3.437-2.578,8.672-6.133T122.659-52.344ZM111.1-3.672a15.175,15.175,0,0,1-.586,2.188,1.645,1.645,0,0,1-1.289.938q-.859.156-1.094-.078a8.876,8.876,0,0,0-.937-.742,2.206,2.206,0,0,1-.781-1.758,5.726,5.726,0,0,1,.039-1.484,1.991,1.991,0,0,1,.742-1.289,2.577,2.577,0,0,0,.859-1.289,37.711,37.711,0,0,1,1.133-4.141,6.269,6.269,0,0,0,.43-1.406q.078-.547.117-1.328A5.548,5.548,0,0,1,110-15.547a3.233,3.233,0,0,1,.2-1.094,2.232,2.232,0,0,0,.039-1.25,2.409,2.409,0,0,0,.625-1.758,2.736,2.736,0,0,1,.313-1.6,1.7,1.7,0,0,1,.313-1.875.851.851,0,0,1,0-1.25,3.788,3.788,0,0,1,.313-2.031,4.1,4.1,0,0,0-.156-1.641,8.892,8.892,0,0,1,.156-1.914,2.75,2.75,0,0,0,.039-1.211,8.837,8.837,0,0,1-.156-1.406A3.483,3.483,0,0,0,111.1-34.3a1.112,1.112,0,0,1-.234-1.289,11.972,11.972,0,0,1,.625-1.172,1.647,1.647,0,0,1,1.016-.7,2.177,2.177,0,0,1,1.406.078,2.19,2.19,0,0,1,1.094.9,3.6,3.6,0,0,1,.313,2.031,48.836,48.836,0,0,1-.352,6.914q-.352,2.227-1.445,10.742-.391,1.953-.625,3.281t-.7,4.063Q111.409-5.781,111.1-3.672ZM160.05-19.766q.859-1.016,1.445-1.055a1.11,1.11,0,0,0,.9-.508q1.25-.313,1.484-.82a2.54,2.54,0,0,1,1.406-.977,36.245,36.245,0,0,1,3.2-1.758q2.109-1.055,3.828-1.836a5.088,5.088,0,0,0,1.328-.82,2.44,2.44,0,0,1,1.484-.508,2.817,2.817,0,0,1,1.406-1.094,5.361,5.361,0,0,0,1.641-.7,1.511,1.511,0,0,1,1.055-.586,1.471,1.471,0,0,0,.977-.43,2.743,2.743,0,0,1,1.523-1.172,5.57,5.57,0,0,0,1.836-1.016,6.064,6.064,0,0,1,2.266-1.211,7.747,7.747,0,0,0,1.758-.586,1.6,1.6,0,0,1,1.6.078,2.256,2.256,0,0,1,.977.938,1.565,1.565,0,0,1,.078.977,2.283,2.283,0,0,1-.586,1.016,3.349,3.349,0,0,1-1.875.742,8.279,8.279,0,0,1-1.523.859q-.742.313-1.6.664t-1.328.586a8.93,8.93,0,0,1-2.148,1.172q-1.211.469-4.531,2.148T167.745-20.9a53.158,53.158,0,0,0-7.812,4.961q-2.227,1.875-5.352,4.063a22,22,0,0,0-4.609,4.063q-1.8,2.656-2.578,2.383t-1.914-.625a1.282,1.282,0,0,1-1.016-1.484,5.941,5.941,0,0,1,1.133-2.617q1.8-1.25,3.672-2.656t5.82-3.945Q159.034-19.3,160.05-19.766ZM145.909-40.7a3.616,3.616,0,0,1-1.328,1.133,2.1,2.1,0,0,1-1.406-.117A1.567,1.567,0,0,1,142.12-40.9a7.633,7.633,0,0,1-.2-1.6,2.061,2.061,0,0,1,1.563-1.953,4,4,0,0,1,1.563-.156q.547.078,1.172.156a5.659,5.659,0,0,1,2.109.9q.781.586,1.563,1.289a1.828,1.828,0,0,1,1.172,1.016,1.985,1.985,0,0,1,1.25.781,7.4,7.4,0,0,0,1.094,1.406,6.905,6.905,0,0,0,.977,1.055,4.555,4.555,0,0,1,.9,1.6,2.148,2.148,0,0,1,.977.742,1.926,1.926,0,0,1,.273,1.055,8.608,8.608,0,0,1,1.055,1.484,2.084,2.084,0,0,1,.078,1.406,1.686,1.686,0,0,1-1.25,1.211,2.029,2.029,0,0,1-1.8-.117,1.56,1.56,0,0,1-.82-1.094,1.2,1.2,0,0,0-.625-.937,7.152,7.152,0,0,1-1.328-2.5q-1.328-1.563-2.891-3.164A12.517,12.517,0,0,0,145.909-40.7Zm62.781,17.969a6.969,6.969,0,0,1-2.187.781,6.1,6.1,0,0,0-1.719.469q-.937.391-1.25.508a6.02,6.02,0,0,1-1.562.117,11.532,11.532,0,0,1-2.422.664,12.259,12.259,0,0,1-2.227.039,2.644,2.644,0,0,1-1.953-.859,2.05,2.05,0,0,1-.391-1.914,1.84,1.84,0,0,1,1.25-1.445,3.589,3.589,0,0,1,2.383.234,7.1,7.1,0,0,0,1.953-.2,6.322,6.322,0,0,1,2.031-.117A7.227,7.227,0,0,1,204.355-25a11.67,11.67,0,0,1,1.992-.156,2.921,2.921,0,0,1,1.953-.7q1.563-.391,3.281-.781a5.549,5.549,0,0,1,1.875-.781,17.446,17.446,0,0,0,2.266-.625q-.391-4.063-.43-5.469t-.039-2.891a2.757,2.757,0,0,0-.234-1.094,2.8,2.8,0,0,1-.156-1.367,10.59,10.59,0,0,0-.156-2.383,3.29,3.29,0,0,0-1.523.117,1.161,1.161,0,0,1-.7.156,3.524,3.524,0,0,0-.977.078,2.531,2.531,0,0,1-1.406-.2,1.822,1.822,0,0,1-1.562.547,14.209,14.209,0,0,0-2.031.117q-.781.117-1.562.2a3.1,3.1,0,0,0-1.25.352,3.436,3.436,0,0,1-1.406.352,2.1,2.1,0,0,0-1.25,1.25,1.765,1.765,0,0,1-.977,1.133q-.742.352-2.148-.586a5.4,5.4,0,0,1-1.016-1.562,1.407,1.407,0,0,1,.039-1.6,7.052,7.052,0,0,1,1.016-.977,5.037,5.037,0,0,1,1.758-.7q1.25-.312,2.5-.547,2.734-.391,5.586-.586t6.523-.664q0-2.344.078-3.672a36.413,36.413,0,0,0-.2-4.531q-.273-3.2-.273-4.3a5.692,5.692,0,0,1,.313-1.953Q214.784-60,215.644-60a3.143,3.143,0,0,1,1.6.43,2.193,2.193,0,0,1,.977.977q.234.547-.547,2.656-.078,1.641-.2,2.7a4.387,4.387,0,0,0,.117,1.8,2.953,2.953,0,0,1,.156,1.289,1.9,1.9,0,0,1-.391.938,1.5,1.5,0,0,1,.234,1.875,1.322,1.322,0,0,1,.117.938,5.514,5.514,0,0,0,.039,1.719q3.75-.078,5.7-.078H225.6a15.452,15.452,0,0,1,1.992.156,5.973,5.973,0,0,1,2.07-.117,1.523,1.523,0,0,1,1.406,1.328A2.625,2.625,0,0,1,231-41.562a1.222,1.222,0,0,1-1.055.664,4.322,4.322,0,0,1-1.484-.2,2.594,2.594,0,0,1-1.875-.078,18.542,18.542,0,0,0-1.992-.039,5.674,5.674,0,0,1-1.992-.43,7.4,7.4,0,0,1-2.07.156,20.21,20.21,0,0,0-2.539,0,11.735,11.735,0,0,1-.2,1.8,4.757,4.757,0,0,0,.117,1.719q.156,3.359.391,5.469t.391,3.828a7.472,7.472,0,0,0,2.461-.625,2.529,2.529,0,0,1,1.445-.312,12.917,12.917,0,0,1,2.5-.781,14.084,14.084,0,0,0,2.422-.7,7.461,7.461,0,0,0,1.094-.586,2.128,2.128,0,0,1,1.172-.352,21.665,21.665,0,0,0,2.109-.625,17.458,17.458,0,0,1,1.953-.82,1.687,1.687,0,0,1,1.133,0,2.158,2.158,0,0,1,.938.781,1.765,1.765,0,0,1,.391,1.172,1.511,1.511,0,0,1-.586,1.055,10.407,10.407,0,0,1-1.953,1.172,10.616,10.616,0,0,1-1.641.273,4.047,4.047,0,0,0-1.289.313,8.22,8.22,0,0,1-2.07.43,1.946,1.946,0,0,1-1.289.352,1.888,1.888,0,0,0-1.25.313,6.1,6.1,0,0,1-2.07.586,8,8,0,0,0-1.836.391,12.449,12.449,0,0,1-1.289.43,20.923,20.923,0,0,1-2.344.43A9.694,9.694,0,0,0,219-23.437a2,2,0,0,1-.312,1.641.7.7,0,0,1,.273.859,1.091,1.091,0,0,0,.078.977.729.729,0,0,1,.039.82q-.234.313.039,1.211a5.151,5.151,0,0,1,.039,2.3,4.287,4.287,0,0,1,.2,1.992,9.759,9.759,0,0,0,.156,2.7,5.117,5.117,0,0,1,.039,2.266,3.761,3.761,0,0,1,.313,1.875.57.57,0,0,1,0,.859,8.683,8.683,0,0,1,.234,1.953,1.763,1.763,0,0,1,.156,1.25,4.331,4.331,0,0,1,.313,1.406A2.4,2.4,0,0,0,220.878-.2a4.137,4.137,0,0,1-.156,2.461,1.844,1.844,0,0,1-1.914,1.68,1.691,1.691,0,0,1-1.992-1.523q0-3.672-.117-8.4t-.273-9.648q-.156-4.922-.547-8.906-2.109.469-2.93.742t-2.07.586A5.156,5.156,0,0,1,208.691-22.734Z" transform="matrix(0.999, -0.035, 0.035, 0.999, 375.957, 394.901)" fill="#009f39" stroke="#009f3a" stroke-width="2"/>
    <path id="パス_3193" data-name="パス 3193" d="M4358.683,8008.586c-116.589-.434-344.9,14.584-477.9,26.236-68.334,5.987-99.015,11.819-102.123,12.65-9.143,2.444,4.968,2.065,4.968,2.065" transform="translate(-3690 -7618)" fill="none" stroke="#009f39" stroke-linecap="round" stroke-width="3"/>
  </g>
</svg>
