<svg xmlns="http://www.w3.org/2000/svg" width="218.85" height="473.742" viewBox="0 0 218.85 473.742">
  <g id="earth_item_text3_mb" transform="translate(-67.5 -8598.031)">
    <g id="グループ_2590" data-name="グループ 2590" transform="translate(10 63)">
      <g id="グループ_3220" data-name="グループ 3220" transform="translate(0 -2)">
        <path id="合体_64" data-name="合体 64" d="M992.033-151.288l-.011-.056v-.057c0-1.335-.022-2.884-.064-4.6s-.094-3.506-.15-5.3c-.048-1.508-.127-2.911-.236-4.179-.4.1-.7.175-.886.238-.3.1-.683.209-1.131.322a3.425,3.425,0,0,1-1.255.286,4.088,4.088,0,0,1-1.289.429,2.785,2.785,0,0,0-.774.214c-.354.148-.585.241-.707.288a2.835,2.835,0,0,1-.963.1,6.578,6.578,0,0,1-1.364.361,7.35,7.35,0,0,1-1.336.025,2.032,2.032,0,0,1-1.495-.683,1.714,1.714,0,0,1-.341-1.582,1.592,1.592,0,0,1,1.088-1.225,2.481,2.481,0,0,1,1.6.1,2.969,2.969,0,0,0,.789-.079,3.622,3.622,0,0,1,1.184-.1,4.592,4.592,0,0,1,.976-.285,6.742,6.742,0,0,1,.979-.093,2.346,2.346,0,0,1,1.2-.384c.531-.132,1.093-.266,1.671-.4a3.55,3.55,0,0,1,1.151-.456,7.106,7.106,0,0,0,.71-.179c-.116-1.248-.18-2.091-.193-2.566-.014-.519-.022-1.059-.022-1.607a.921.921,0,0,0-.081-.365,2.126,2.126,0,0,1-.131-1.045,3.549,3.549,0,0,0-.018-.657l-.045.007a1.227,1.227,0,0,1-.716.143l-.041,0a1.806,1.806,0,0,0-.32.038,1.793,1.793,0,0,1-.748-.026,1.917,1.917,0,0,1-1,.23,7.212,7.212,0,0,0-1.028.059c-.294.044-.594.081-.889.111a1.126,1.126,0,0,0-.445.114,2.288,2.288,0,0,1-.908.262.553.553,0,0,0-.28.274,1.575,1.575,0,0,1-.855.993,1.182,1.182,0,0,1-.507.111,2.35,2.35,0,0,1-1.265-.476l-.049-.033-.042-.041a3.536,3.536,0,0,1-.68-1.032,1.333,1.333,0,0,1,.113-1.525,4.434,4.434,0,0,1,.646-.619,3.216,3.216,0,0,1,1.187-.493c.467-.117.941-.221,1.409-.309l.026,0c1.013-.145,2.061-.255,3.116-.327.893-.061,1.91-.161,3.031-.3,0-.623.019-1.134.041-1.525a19.476,19.476,0,0,0-.106-2.406c-.1-1.2-.152-1.993-.152-2.415a3.748,3.748,0,0,1,.208-1.279l.02-.049a1.443,1.443,0,0,1,1.318-.991,2.337,2.337,0,0,1,1.182.317,1.791,1.791,0,0,1,.788.82c.13.305.136.734-.257,1.818-.028.572-.064,1.051-.106,1.428a1.847,1.847,0,0,0,.041.742,2.183,2.183,0,0,1,.108.975,1.813,1.813,0,0,1-.105.4,1.378,1.378,0,0,1,.069,1.079,1.3,1.3,0,0,1,0,.643.9.9,0,0,0-.01.188c1.1-.021,1.971-.031,2.586-.031h1.182a8.758,8.758,0,0,1,1.066.077,3.951,3.951,0,0,1,1.229-.053,1.44,1.44,0,0,1,1.3,1.2,1.973,1.973,0,0,1-.105,1.436,1.271,1.271,0,0,1-1.069.67,2.884,2.884,0,0,1-.847-.084,2.016,2.016,0,0,1-1.163-.072,9.207,9.207,0,0,0-.931-.016l-.094,0a3.585,3.585,0,0,1-1.083-.219,4.483,4.483,0,0,1-1.146.065,7.793,7.793,0,0,0-.787-.017,3.771,3.771,0,0,1-.083.553,2.353,2.353,0,0,0,.072.689l.007.041,0,.041c.057,1.213.128,2.212.212,2.97.058.518.109,1.01.154,1.467a2.215,2.215,0,0,0,.477-.133,1.827,1.827,0,0,1,1.017-.276,7.245,7.245,0,0,1,1.4-.423,7.183,7.183,0,0,0,1.209-.353,3.535,3.535,0,0,0,.5-.269,1.771,1.771,0,0,1,.887-.287c.4-.1.736-.2,1.012-.3a9.93,9.93,0,0,1,1.125-.469,1.532,1.532,0,0,1,1.018.013,1.775,1.775,0,0,1,.784.635,1.555,1.555,0,0,1,.329,1.039,1.419,1.419,0,0,1-.53,1,6.224,6.224,0,0,1-1.2.725l-.064.031-.069.016a6.283,6.283,0,0,1-1,.165,1.63,1.63,0,0,0-.518.128,4.705,4.705,0,0,1-1.187.265,1.753,1.753,0,0,1-.785.223.989.989,0,0,1-.227-.025,1.129,1.129,0,0,0-.287.116,3.976,3.976,0,0,1-1.342.386,3.741,3.741,0,0,0-.861.176,7.665,7.665,0,0,1-.771.257c-.194.054-.462.109-.812.167a2.9,2.9,0,0,0,.1.59,1.5,1.5,0,0,1-.045,1.026.935.935,0,0,1,.012.76.249.249,0,0,0,.014.031,1,1,0,0,1,.036,1,1.317,1.317,0,0,0,.052.229,3.22,3.22,0,0,1,.063,1.386,3.082,3.082,0,0,1,.089,1.21,4.811,4.811,0,0,0,.079,1.317,3.825,3.825,0,0,1,.058,1.3,2.671,2.671,0,0,1,.153.9.861.861,0,0,1,.027.756,5.4,5.4,0,0,1,.093.839,1.548,1.548,0,0,1,.106.771,2.7,2.7,0,0,1,.153.822.739.739,0,0,0,.1.34,2.527,2.527,0,0,1-.027,1.756,1.61,1.61,0,0,1-1.6,1.4q-.081.006-.16.006A1.5,1.5,0,0,1,992.033-151.288Zm-68.413-1.363a4.175,4.175,0,0,0-.443-.346,1.777,1.777,0,0,1-.677-1.4,3.777,3.777,0,0,1,.026-.957,1.707,1.707,0,0,1,.624-1.086.826.826,0,0,0,.272-.4,17.9,17.9,0,0,1,.647-2.347,2.833,2.833,0,0,0,.2-.631c.026-.182.046-.409.059-.676a3.693,3.693,0,0,1,.152-.886,2.412,2.412,0,0,1,.14-.7.646.646,0,0,0,0-.355l-.063-.284.185-.226a.706.706,0,0,0,.211-.535,2.171,2.171,0,0,1,.133-.989,1.528,1.528,0,0,1,.106-1.012,1.014,1.014,0,0,1,.1-.83,2.6,2.6,0,0,1,.187-1.1,1.56,1.56,0,0,0-.064-.555l-.031-.092v-.1a5.405,5.405,0,0,1,.1-1.191.923.923,0,0,0,.019-.4,5.4,5.4,0,0,1-.1-.871,1.291,1.291,0,0,0-.209-.618,1.207,1.207,0,0,1-.185-1.319,7.352,7.352,0,0,1,.375-.7,1.492,1.492,0,0,1,.909-.651,1.814,1.814,0,0,1,.483-.067,1.838,1.838,0,0,1,.669.129,1.8,1.8,0,0,1,.893.735,2.476,2.476,0,0,1,.263,1.452,26.928,26.928,0,0,1-.2,3.88c-.127.806-.394,2.789-.792,5.891l-.007.041c-.141.708-.256,1.311-.341,1.792s-.215,1.233-.386,2.231l0,.023c-.283,1.328-.482,2.385-.595,3.143l-.006.036a8.9,8.9,0,0,1-.35,1.3,1.472,1.472,0,0,1-1.134.883l-.027.005a2.412,2.412,0,0,1-.43.044A.955.955,0,0,1,923.621-152.652Zm26.221-2.5c-.278-.1-.625-.211-1.032-.337a1.305,1.305,0,0,1-.977-1.451,3.811,3.811,0,0,1,.724-1.717l.062-.091.091-.063c.65-.452,1.323-.939,2-1.448.7-.522,1.785-1.26,3.236-2.194,1.349-.868,2.229-1.406,2.68-1.635a1.73,1.73,0,0,1,1.128-.693.144.144,0,0,0,.028,0l.007-.009.129-.193.225-.056a1.4,1.4,0,0,0,.437-.164,1.875,1.875,0,0,1,1.021-.778c.42-.266,1-.583,1.77-.968s1.491-.731,2.126-1.02a2.174,2.174,0,0,0,.573-.347,1.727,1.727,0,0,1,.924-.406,1.738,1.738,0,0,1,.986-.626,2.157,2.157,0,0,0,.609-.268,1.394,1.394,0,0,1,.918-.446.231.231,0,0,0,.121-.035,2.1,2.1,0,0,1,1.112-.818,2.491,2.491,0,0,0,.813-.452l.015-.013a3.863,3.863,0,0,1,1.488-.777,3.653,3.653,0,0,0,.832-.276,1.533,1.533,0,0,1,.663-.156,1.507,1.507,0,0,1,.784.226,1.779,1.779,0,0,1,.782.8,1.448,1.448,0,0,1,.074.9,1.848,1.848,0,0,1-.465.831,2.183,2.183,0,0,1-1.24.57,5.09,5.09,0,0,1-.837.457c-.273.115-.571.238-.886.368-.273.111-.489.205-.644.281a5.545,5.545,0,0,1-1.279.689c-.423.165-1.244.553-2.438,1.158s-2.846,1.488-4.879,2.611a28.824,28.824,0,0,0-4.2,2.662c-.826.7-1.831,1.458-2.986,2.267a11.664,11.664,0,0,0-2.395,2.1c-.756,1.114-1.283,1.569-1.817,1.569A.841.841,0,0,1,949.842-155.153Zm-37.625-6.324a2.973,2.973,0,0,1-.99-.772,2.492,2.492,0,0,1-.772-1.4,2.1,2.1,0,0,1,.3-1.547,8.758,8.758,0,0,1,.9-1.128c.5-.561.878-.958,1.15-1.215a1.278,1.278,0,0,0,.341-.432,1.283,1.283,0,0,1,.919-.756,3.112,3.112,0,0,1,.653-.593,3.574,3.574,0,0,1,1-.984,18.722,18.722,0,0,1,1.938-1.674c.348-.29.984-.8,1.889-1.525s2.02-1.579,3.28-2.525,2.875-2.086,4.792-3.389c1.949-1.324,3.3-2.183,4.129-2.628a4.263,4.263,0,0,1,1.611-.631l.027,0h.07a2.076,2.076,0,0,1,1.325.523l.023.019.022.021a1.581,1.581,0,0,1,.5,1.558,1.994,1.994,0,0,1-.544,1.03,1.776,1.776,0,0,1-.9.426,3.6,3.6,0,0,1-.85.051l-.039,0a.32.32,0,0,0-.193.052l-.031.021-.033.017c-.326.163-.669.328-1.02.491a1.767,1.767,0,0,1-.847.368,4.138,4.138,0,0,1-.837.662c-.351.216-.694.448-1.018.691a2.323,2.323,0,0,1-.855.428,1.031,1.031,0,0,0-.4.237,1.124,1.124,0,0,1-.628.518,1.644,1.644,0,0,1-.891.558,5.246,5.246,0,0,1-.894.851l-.045.032-.05.023a6.367,6.367,0,0,0-1.453.941l-.058.05-.069.034a2.9,2.9,0,0,0-.815.643l-.04.044-.049.036c-.329.239-.663.459-.993.654a2.657,2.657,0,0,0-.7.616l-.037.044-.044.036c-.352.294-.724.578-1.107.842-.332.249-.761.595-1.276,1.026a3.629,3.629,0,0,0-.864.894,1.491,1.491,0,0,1-.812.723,1.7,1.7,0,0,1-.767.684,6.1,6.1,0,0,1-.65.73,1.13,1.13,0,0,0-.27.325,1.631,1.631,0,0,1-.414.572.867.867,0,0,0-.163.237,1.905,1.905,0,0,1-.269.388c.147.084.292.167.432.25a1.444,1.444,0,0,1,.718,1.047,1.317,1.317,0,0,1-.457,1.235,3.361,3.361,0,0,0-.418.415,1.437,1.437,0,0,1-1.131.461l-.105,0A2.713,2.713,0,0,1,912.218-161.477Zm41.477-7.592a1.431,1.431,0,0,1-.726-1.035.068.068,0,0,0-.046-.068l-.092-.053-.068-.081a4.462,4.462,0,0,1-.805-1.462c-.456-.532-.956-1.076-1.487-1.621a7.1,7.1,0,0,0-1.136-.966,1.854,1.854,0,0,1-.639.424,1.341,1.341,0,0,1-.458.077,2.1,2.1,0,0,1-.722-.142,1.466,1.466,0,0,1-.961-1.1,4.762,4.762,0,0,1-.122-1.008v-.042l.006-.042a1.714,1.714,0,0,1,1.3-1.569,2.82,2.82,0,0,1,.8-.118c.091,0,.184.005.274.014l.025,0c.2.028.409.057.634.085l.032,0,.031.008a3.7,3.7,0,0,1,1.383.6c.265.2.534.419.8.653a1.535,1.535,0,0,1,.743.6,1.445,1.445,0,0,1,.826.658,3.4,3.4,0,0,0,.507.636l.026.031a3.185,3.185,0,0,0,.437.482,2.306,2.306,0,0,1,.592.918,1.607,1.607,0,0,1,.577.523,1.567,1.567,0,0,1,.231.672,4.606,4.606,0,0,1,.529.778,1.725,1.725,0,0,1,.092,1.174,1.5,1.5,0,0,1-1.083,1.1,2.081,2.081,0,0,1-.657.113A1.552,1.552,0,0,1,953.695-169.069Zm-3.328-20.672a3.273,3.273,0,0,1-.85-.444,1.333,1.333,0,0,1-.575-1.389,3.058,3.058,0,0,1,.454-1.174,8.35,8.35,0,0,1,.511-.719,1.48,1.48,0,0,1,.919-.512,2.806,2.806,0,0,0,.608-.2c.358-.33.522-.5.6-.581a1.667,1.667,0,0,1,.67-.464.38.38,0,0,0,.093-.121l.046-.08.068-.063a7.114,7.114,0,0,0,.642-.636c.1-.126.211-.275.337-.443a1.488,1.488,0,0,1,.7-.514,8.907,8.907,0,0,1,.859-.745.637.637,0,0,0,.263-.311,1.623,1.623,0,0,1,.85-1.061,9.306,9.306,0,0,1,.8-.913,7.044,7.044,0,0,0,.712-.831l.028-.039.033-.033a25.981,25.981,0,0,0,1.95-2.115c.267-.341.534-.671.8-.985-.709-.472-1.245-.856-1.627-1.166a11.09,11.09,0,0,0-1.263-.9l-.041-.025-.038-.031c-.369-.312-.721-.607-1.047-.876a4.135,4.135,0,0,1-.981-1.2,1.78,1.78,0,0,1,.041-1.846,1.664,1.664,0,0,1,1.485-1.093,1.594,1.594,0,0,1,.2.013,1.657,1.657,0,0,1,1.3.742,1.417,1.417,0,0,1,.187,1.087,1.4,1.4,0,0,0,.221.266,1.912,1.912,0,0,1,1,.836,5.755,5.755,0,0,0,.9.516,2.626,2.626,0,0,1,1.074,1l.547.348a7.3,7.3,0,0,0,.531-.679c.16-.248.4-.594.7-1.028s.668-.937,1.084-1.5c.4-.543.828-1.172,1.261-1.87a16.133,16.133,0,0,0,.867-1.524,6.6,6.6,0,0,1,.5-.921,5.062,5.062,0,0,0,.377-.728,4.764,4.764,0,0,0-.04-.923,3.93,3.93,0,0,0-.415-.343c-.112-.069-.358-.236-.753-.507a8.2,8.2,0,0,1-1.163-.237,1.344,1.344,0,0,1-.645.2.763.763,0,0,1-.269-.048c-.011,0-.03,0-.06,0a1.923,1.923,0,0,0-.205.014l-.748.085c-.041.005-.093.015-.108.038a1.1,1.1,0,0,1-.945.506c-.029,0-.058,0-.088,0h-.022a3.277,3.277,0,0,0-.752.14,1.636,1.636,0,0,0-.363.4,1.545,1.545,0,0,1-1.112.7,2.5,2.5,0,0,1-1.3-.062,1.465,1.465,0,0,1-.943-1.38,2.746,2.746,0,0,1,.024-.926c-.993.713-1.752,1.268-2.269,1.657a6.811,6.811,0,0,0-1.205,1.025,1.457,1.457,0,0,1-.695.662c-1,.918-1.678,1.586-2.025,1.986a6.761,6.761,0,0,0-.568.727,3.7,3.7,0,0,1-.078,1.245,1.476,1.476,0,0,1-.659,1,2.229,2.229,0,0,1-.793.24,2.289,2.289,0,0,1-1.2-.239,1.524,1.524,0,0,1-.937-1.345l0-.061.008-.06c.058-.439.118-.818.177-1.129a2.319,2.319,0,0,1,.44-1.011c.152-.193.285-.368.394-.519a5.075,5.075,0,0,1,.686-.716l.085-.076.106-.04A.628.628,0,0,0,950-213.9c.131-.17.265-.364.4-.575l.114-.184.2-.068a.254.254,0,0,0,.1-.049,2.94,2.94,0,0,1,.7-.594,3.9,3.9,0,0,1,.805-.867,4.326,4.326,0,0,1,1.044-.5c.045-.017.082-.039.114-.13a1.728,1.728,0,0,1,1.076-.964,2.163,2.163,0,0,0,.527-.365,1.431,1.431,0,0,1,.756-.5,1.921,1.921,0,0,1,.733-.737c.182-.091.383-.2.594-.337a1,1,0,0,0,.292-.232,1.267,1.267,0,0,1,.672-.483,1.582,1.582,0,0,1,.566-.3.893.893,0,0,1,.638-.567.225.225,0,0,0,.045-.046,4.052,4.052,0,0,1,.454-.48,4.339,4.339,0,0,1,.724-.5,10.277,10.277,0,0,1,1.074-.527c.371-.158.668-.292.883-.4a2.725,2.725,0,0,1,1.5-.422h.033a1.483,1.483,0,0,1,1.487,1.052,1.973,1.973,0,0,1-.155,1.552,1.547,1.547,0,0,1-1.04.884c-.228.043-.642.119-1.265.232a3.313,3.313,0,0,0-1.011.44,9.625,9.625,0,0,1-.9.573c-.077.043-.167.095-.265.152.132-.044.254-.082.364-.114.359-.1.885-.234,1.606-.4a12.3,12.3,0,0,1,2.1-.293,7.85,7.85,0,0,1,2.12.215,2.318,2.318,0,0,1,.931.184,4.584,4.584,0,0,0,.55.209,1.837,1.837,0,0,1,.824.512,3.084,3.084,0,0,0,.36.344,2.2,2.2,0,0,1,.57.759c.138.274.283.609.432,1l.02.053.011.055a6.869,6.869,0,0,1,.137,1.678,3.435,3.435,0,0,1-.242,1.12c-.105.241-.271.587-.508,1.059l-.032.066-.049.056a3.41,3.41,0,0,0-.365.509c-.1.182-.21.4-.316.634a10.831,10.831,0,0,1-1.277,1.842,18.631,18.631,0,0,0-1.359,1.928,2.954,2.954,0,0,1-.932,1.153q-.451.578-.779,1.033c.221.158.444.332.662.517l.065.055.047.07a1.443,1.443,0,0,1,.147,1.724,2.036,2.036,0,0,1-.721.714,1.193,1.193,0,0,1-.544.113,3.265,3.265,0,0,1-.667-.084l-.028-.006-.027-.009a4.009,4.009,0,0,1-.954-.428c-.895,1.022-1.693,1.96-2.376,2.793-.79.963-1.779,2.1-2.939,3.394s-2.058,2.253-2.665,2.859c-.588.588-1.141,1.183-1.644,1.77s-.947,1.131-1.311,1.607l-.105.138-.164.06a3.5,3.5,0,0,1-1.152.271A1.1,1.1,0,0,1,950.367-189.741Zm28.106-2.218a1.284,1.284,0,0,1-1.012-1.162,6.434,6.434,0,0,1,.023-.949,1.808,1.808,0,0,1,.964-1.285c.414-.262.792-.52,1.121-.768l.005,0a31.609,31.609,0,0,0,3.289-2.74c.948-.919,2.054-1.923,3.288-2.985a15.266,15.266,0,0,0,1.107-1.064,4.611,4.611,0,0,1,1.033-.842,1.255,1.255,0,0,0,.287-.225,1.021,1.021,0,0,1,.5-.594,3.326,3.326,0,0,1,.415-.639,1.515,1.515,0,0,1,.627-.416c.239-.2.487-.4.742-.612a1.734,1.734,0,0,1,.64-.914,1.727,1.727,0,0,1,.445-.683c.137-.123.358-.3.674-.548a1.971,1.971,0,0,1,.481-.694.444.444,0,0,0,.146-.2,1.261,1.261,0,0,1,.561-.769,1.105,1.105,0,0,0,.291-.336c.157-.243.383-.585.67-1.016a5.678,5.678,0,0,0,.584-1.086,1.5,1.5,0,0,0-.164-1.009l-.008-.021c-.03-.076-.119-.31-.6-.493a4.268,4.268,0,0,0-1.262-.284c-.44-.027-.893-.067-1.346-.117a3.612,3.612,0,0,1-1.464.113,5.258,5.258,0,0,0-1.167-.011,2.42,2.42,0,0,1-1.026.191,5.491,5.491,0,0,1-.746-.057,1.59,1.59,0,0,1-.777.246,1.8,1.8,0,0,0-.424.056,1.184,1.184,0,0,1-.375.059,1.7,1.7,0,0,1-.437-.062,1.13,1.13,0,0,1-.8.278,5.561,5.561,0,0,1-.68.158,3.734,3.734,0,0,1-.727.022,1.529,1.529,0,0,1-.7.281,13.972,13.972,0,0,0-1.48.4,1.366,1.366,0,0,1-1.006.463c-.084,0-.1.022-.119.042a1.467,1.467,0,0,1-.887.466,1.578,1.578,0,0,0-.053.238,1.16,1.16,0,0,1-.587.9,6.686,6.686,0,0,1-.731.331,1.152,1.152,0,0,1-.434.084,1.835,1.835,0,0,1-1.229-.588,1.73,1.73,0,0,1-.5-1.929l.018-.043a3.475,3.475,0,0,1,1.915-1.9,10.7,10.7,0,0,1,1.588-.535c.5-.22.866-.377,1.125-.477a6.74,6.74,0,0,1,1.206-.311,2.545,2.545,0,0,0,.73-.2,1.563,1.563,0,0,1,.8-.243c.9-.172,2.366-.381,4.352-.62a35.881,35.881,0,0,1,4.256-.274c.456,0,.907.012,1.34.033.162-.007.321-.01.472-.01a6.943,6.943,0,0,1,1.294.107c.459.089.9.194,1.318.313l.029.008.029.012a3.289,3.289,0,0,1,1.356,1.063,1.783,1.783,0,0,1,.77,1.067,1.838,1.838,0,0,0,.155.482,2.143,2.143,0,0,1,.223.923,2.122,2.122,0,0,1-.107.9,10.144,10.144,0,0,0-.275,1l-.007.025a6.845,6.845,0,0,1-1.743,2.7,41.539,41.539,0,0,1-4.6,5.221c-2.034,2.02-3.851,3.727-5.4,5.076a30.318,30.318,0,0,0-3.961,4.128l-.017.022-.02.021a6.263,6.263,0,0,0-.851,1.008,2.15,2.15,0,0,1-.653.743,1.5,1.5,0,0,1-.993.3h-.007c-.006,0-.023,0-.063.04a1.079,1.079,0,0,1-.788.306A2.029,2.029,0,0,1,978.473-191.958Zm23.981-1.22a1.308,1.308,0,0,1-.724-1.526,1.668,1.668,0,0,1,.7-1.26,1.969,1.969,0,0,1,.837-.956,1.6,1.6,0,0,1,.779-.786,1.918,1.918,0,0,1,.623-.7,1.572,1.572,0,0,0,.409-.436,4.816,4.816,0,0,1,.688-.809,2.241,2.241,0,0,0,.33-.352c.065-.1.138-.23.218-.377a1.273,1.273,0,0,1,.595-.531,1.924,1.924,0,0,1,.239-.519,2.4,2.4,0,0,1,.367-.389,1.83,1.83,0,0,1,.616-.757,1.226,1.226,0,0,0,.213-.176,1.432,1.432,0,0,1,.681-.878,1.787,1.787,0,0,1,.463-.612,1.549,1.549,0,0,1,.473-.752c.219-.33.5-.775.84-1.323.365-.588.755-1.271,1.163-2.03.38-.706.7-1.322.94-1.832a1.4,1.4,0,0,1,.469-1.147.09.09,0,0,0,.041-.062,4.733,4.733,0,0,0,.095-.514,1.52,1.52,0,0,1,.522-.908c.094-.428.247-1.019.464-1.793.027-.651.049-1.127.062-1.417a1.223,1.223,0,0,1,.882-1.142,2.6,2.6,0,0,1,.822-.136,2.486,2.486,0,0,1,.355.025,2.025,2.025,0,0,1,1.156.6,1.483,1.483,0,0,1,.47,1.309c-.041.273-.09.737-.146,1.381l-.016.187-.121.145a1.269,1.269,0,0,0-.338.585,1.327,1.327,0,0,1-.649,1.026.62.62,0,0,0-.079.325l-.012.167-.1.137a11.21,11.21,0,0,0-.931,1.619,15.036,15.036,0,0,1-.937,1.891c-.287.474-.535.875-.737,1.193l-.007.011c-.222.334-.563.888-1.014,1.649-.465.786-.967,1.553-1.49,2.28-.509.706-1.149,1.633-1.9,2.755s-1.718,2.48-2.857,4.017a10.2,10.2,0,0,1-.785,1.139c-.231.285-.488.639-.762,1.051l-.065.1-.1.066a3.265,3.265,0,0,1-1.578.684l-.119,0A2.657,2.657,0,0,1,1002.454-193.179Zm-86.47-.146a2.248,2.248,0,0,1-1.39-1.076l-.041-.071-.021-.081a2.546,2.546,0,0,1,.028-1.345,3.321,3.321,0,0,1,.9-1.373l.052-.052.064-.038a5.973,5.973,0,0,0,.741-.527c.276-.23.884-.658,1.856-1.306l.039-.023a7.542,7.542,0,0,0,1.233-.877l.045-.039.052-.03c.849-.481,1.6-.924,2.235-1.319s1.477-.9,2.465-1.471,1.771-1.012,2.321-1.3,1.291-.671,2.22-1.143,2.091-1.045,3.448-1.7c1.84-.891,2.268-1.069,2.434-1.125a1.809,1.809,0,0,0,.5-.276l.075-.056.087-.031c.559-.2,1.011-.365,1.342-.5l.026-.01c.3-.109.616-.233.944-.369a4.981,4.981,0,0,1,.843-.355.887.887,0,0,0,.277-.143,2.637,2.637,0,0,1,.863-.373,1.684,1.684,0,0,1,.858-.208,2.71,2.71,0,0,1,.312.019,1.358,1.358,0,0,1,1.192,1.3,1.894,1.894,0,0,1-.251,1.49,1.554,1.554,0,0,1-1.127.571,1.279,1.279,0,0,0-.54.153,2.645,2.645,0,0,1-1,.337c-.279.04-.5.079-.649.117a1.884,1.884,0,0,0-.364.134,2.169,2.169,0,0,1-1.382.318,7.219,7.219,0,0,1-1.156.692l-.12.056h-.131a1.153,1.153,0,0,0-.6.225,4.235,4.235,0,0,1-.962.474,1.842,1.842,0,0,1-1.133.535,1.154,1.154,0,0,1-.67.218,1.159,1.159,0,0,1-.167-.012.655.655,0,0,0-.056.065,1.148,1.148,0,0,1-.9.531.863.863,0,0,1-.167-.016,2.248,2.248,0,0,1-.734.473,4.389,4.389,0,0,0-.548.265c-.19.108-.49.285-.894.527a2.684,2.684,0,0,1-.816.463,1.6,1.6,0,0,0-.513.316l-.015.013a4.848,4.848,0,0,1-1.274.737l-.072.029-.076.01a.514.514,0,0,0-.267.186l-.031.035-.036.031c-.364.3-.634.512-.824.64a1.547,1.547,0,0,1-.664.264,1.4,1.4,0,0,0-.1.147l-.075.126-.125.076a3.588,3.588,0,0,1-.888.455,2.017,2.017,0,0,0-.327.2,2.217,2.217,0,0,1-.6.612,3.766,3.766,0,0,1-.655.316,3.172,3.172,0,0,1-1.212.857c-.252.3-.437.508-.565.636-.1.1-.256.249-.474.45a1.827,1.827,0,0,1-.046,1.218,2.557,2.557,0,0,1-.585.682,1.7,1.7,0,0,1-1,.445c-.034,0-.071,0-.108,0A4.31,4.31,0,0,1,915.984-193.325Zm-16.771-1.953a3.57,3.57,0,0,1-.963-.461l-.046-.029-.041-.038c-.4-.373-.779-.729-1.124-1.058s-.734-.727-1.14-1.163l-.024-.026-.021-.029a2.856,2.856,0,0,0-.615-.688,2.144,2.144,0,0,1-.671-.717,5.406,5.406,0,0,1-.845-1.038c-.305-.443-.691-.969-1.148-1.564s-.766-.994-.891-1.146c-.089-.109-.329-.43-1.382-1.95l-.005-.009c-.741-1.111-1.419-2.122-2.017-3s-1.065-1.575-1.378-2.045c-.291-.436-.561-.834-.8-1.185a.7.7,0,0,0-.356-.181s-.145.012-.453.32l-.055.055-.067.039a1.121,1.121,0,0,0-.336.256,1.039,1.039,0,0,1-.746.682l-.412.412a1.782,1.782,0,0,1-.272.753,3.335,3.335,0,0,1-.486.53,2.379,2.379,0,0,1-.747.912,1.548,1.548,0,0,1-.581.9c-.011.008-.044.03-.064.142a1.852,1.852,0,0,1-.473.948,2.982,2.982,0,0,1-.582.492,3.91,3.91,0,0,0-.4.97l-.052.173-.533.445a6.358,6.358,0,0,0-.22.8l-.013.058-.023.053a1.163,1.163,0,0,0-.023.848,1.549,1.549,0,0,1-.205,1.589,1.446,1.446,0,0,1-1.193.527c-.26-.014-.5-.021-.7-.021a1.7,1.7,0,0,1-1.026-.378,1.507,1.507,0,0,1-.583-1.274,5.571,5.571,0,0,1,.237-1.471l0-.016a6.836,6.836,0,0,1,.518-1.225,11.434,11.434,0,0,1,.771-1.224c.275-.387.6-.887.963-1.488.384-.636,1.083-1.648,2.133-3.093,1.02-1.4,2.013-2.649,2.952-3.706a1.866,1.866,0,0,1,.972-.921,2.5,2.5,0,0,1,.942-.5,2.635,2.635,0,0,1,.672-.079,4.416,4.416,0,0,1,.593.043,2.876,2.876,0,0,1,1.552.8l.056.052.041.065a6.823,6.823,0,0,0,.471.669c.154.185.3.38.44.58a5.574,5.574,0,0,1,.488.935,3.684,3.684,0,0,1,.438.8,1.234,1.234,0,0,1,.609.868,3.245,3.245,0,0,1,.8,1.04,2.066,2.066,0,0,1,.607.9,2.493,2.493,0,0,1,.542.789c.129.158.248.311.355.458a2.493,2.493,0,0,1,.375.873c.013.049.038.148.247.244l.149.068.094.135a7.738,7.738,0,0,1,.582.977c.135.27.289.544.459.815a2.931,2.931,0,0,1,.744.86l.262.523a5.5,5.5,0,0,1,.656.633c.3.331.627.661.958.978a11.707,11.707,0,0,0,1.225,1l.042.033a8.823,8.823,0,0,0,.98.762c.275.174.59.379.936.609l.016.012c.194.139.4.279.607.419a1.82,1.82,0,0,1,.7.914,1.321,1.321,0,0,1-.284,1.378,1.848,1.848,0,0,1-1.164.627,3.378,3.378,0,0,1-.457.033A2.234,2.234,0,0,1,899.213-195.278Zm125.25-1.786a6.385,6.385,0,0,1-1.217-.148c-.207-.055-.562-.139-1.054-.252a3.2,3.2,0,0,1-1.85-1.546l-.036-.054-.023-.061a5.659,5.659,0,0,1-.245-3.024,21.364,21.364,0,0,1,.686-2.808c.274-.849.688-2.041,1.232-3.544s1.094-2.986,1.636-4.413l.015-.042.022-.039a2.5,2.5,0,0,0,.31-.682,1.663,1.663,0,0,1,.378-.974.851.851,0,0,0,.138-.234,2.09,2.09,0,0,1,.3-.923,8.266,8.266,0,0,1,.4-1.094,2.12,2.12,0,0,1,1.4-1.054l.106-.034.112.007a2.186,2.186,0,0,1,1.461.6,1.55,1.55,0,0,1,.393,1.542,3.942,3.942,0,0,1-.751,1.415c-.344.584-.453.8-.487.875-.05.111-.167.342-.586,1.067-.4.991-.723,1.75-.968,2.255-.22.454-.438.92-.647,1.387a2.027,2.027,0,0,1-.573,1.368.947.947,0,0,1-.146.657,2.108,2.108,0,0,0-.2.417,1.466,1.466,0,0,0-.072.486,1.043,1.043,0,0,1-.429.89,1.682,1.682,0,0,0-.067.435.929.929,0,0,1-.348.813,1.6,1.6,0,0,0-.053.43,1.019,1.019,0,0,1-.23.909,3.281,3.281,0,0,1-.235.955,1.23,1.23,0,0,1-.056.8.342.342,0,0,0-.023.236.565.565,0,0,0,.212.243,1.3,1.3,0,0,0,.564.234,4.953,4.953,0,0,0,.88.077,5.727,5.727,0,0,0,1.595-.213,8.646,8.646,0,0,1,1.277-.287,3.825,3.825,0,0,1,.908-.345l.048-.011.048,0a2.227,2.227,0,0,0,.466-.063,1.528,1.528,0,0,1,.932-.419,2.145,2.145,0,0,1,.825-.423,2.066,2.066,0,0,0,.6-.267c.253-.164.864-.522,1.868-1.1a3.242,3.242,0,0,1,1.26-.712.344.344,0,0,0,.043-.045,1.664,1.664,0,0,1,.607-.491c.11-.049.253-.1.433-.166a1.783,1.783,0,0,1,.92-.716c.165-.052.333-.1.5-.142a1.322,1.322,0,0,1,.644-.655c.292-.153.539-.287.733-.4a5.009,5.009,0,0,0,.739-.573,4.287,4.287,0,0,1,1.621-.855l.833-.257a.929.929,0,0,1,.272-.041,1.288,1.288,0,0,1,1,.584,2.483,2.483,0,0,1,.536,1.27c.108.9-.812,1.5-1.139,1.706a6.6,6.6,0,0,1-.886.556c-.222.111-.519.241-.905.4a1.93,1.93,0,0,1-.665.438,3.456,3.456,0,0,0-.51.255c-.2.123-.425.247-.669.37l-.688.344c-.464.231-.86.422-1.18.568a5.539,5.539,0,0,0-.635.325,2.765,2.765,0,0,1-.787.311,1.928,1.928,0,0,1-.874.513,1.284,1.284,0,0,0-.394.155,1.925,1.925,0,0,1-.83.357,1.219,1.219,0,0,1-.645.433,1.4,1.4,0,0,0-.433.229,1.773,1.773,0,0,1-.9.345,12.579,12.579,0,0,1-2.111.882c-.733.23-1.338.412-1.8.543s-.908.238-1.3.312a6.778,6.778,0,0,1-1.273.118ZM919.5-205.181a3.147,3.147,0,0,1-1.233-.781c-.694-.307-1.209-.555-1.571-.759a8.013,8.013,0,0,0-1.318-.55,6.68,6.68,0,0,1-1.374-.494,1.724,1.724,0,0,1-.864-.9,2.306,2.306,0,0,1-.073-1.187,1.453,1.453,0,0,1,1.168-1.193,2.019,2.019,0,0,1,.522-.063,5.508,5.508,0,0,1,1.862.425l.027.01.026.013c1.152.562,1.9.908,2.225,1.03a4.852,4.852,0,0,1,1.078.565,6.063,6.063,0,0,1,.811.669l.037.04a2.376,2.376,0,0,1,.608,1.246,1.827,1.827,0,0,1-.5,1.347,1.475,1.475,0,0,1-1.133.624A1.2,1.2,0,0,1,919.5-205.181ZM903.977-210a1.628,1.628,0,0,1-1.047-1.027,4.249,4.249,0,0,1-.23-1.408,4.124,4.124,0,0,1-.384-1.21c-.026-.248-.1-.661-.226-1.223a8.984,8.984,0,0,1-.228-1.545,6.114,6.114,0,0,0-.3-1.4l-.013-.044-.006-.046a9.255,9.255,0,0,1-.092-1.31,2.027,2.027,0,0,1,.339-1.268,1.469,1.469,0,0,1,1.235-.476c.07,0,.145,0,.22.007a1.567,1.567,0,0,1,1.5.785,3.86,3.86,0,0,1,.284,1.144,6,6,0,0,1-.018,1.37,3.759,3.759,0,0,0,.1,1.064,1.762,1.762,0,0,1,.025,1.1.645.645,0,0,0,.036.4q.151.431.345.99a11.74,11.74,0,0,1,.373,1.427c.161.349.274.6.345.773a1.241,1.241,0,0,1-.205,1.208,1.746,1.746,0,0,1-.889.731,1.526,1.526,0,0,1-.484.075A2.254,2.254,0,0,1,903.977-210Zm-5.231-.6a2.363,2.363,0,0,1-1.237-.6,7.289,7.289,0,0,1-.812-.743,2.443,2.443,0,0,0-.527-.45,2.309,2.309,0,0,1-.757-.742,2.878,2.878,0,0,0-.42-.528,1.616,1.616,0,0,1-.567-.795,3.413,3.413,0,0,0-.458-.76l-.029-.042a3.654,3.654,0,0,1-.413-.977,2.317,2.317,0,0,0-.343-.716l-.048-.067-.027-.078a6.872,6.872,0,0,1-.372-1.3,4.577,4.577,0,0,0-.114-.569,1.253,1.253,0,0,1,.356-1.209,2.046,2.046,0,0,1,1.347-.575c.089-.008.176-.013.258-.013a1.477,1.477,0,0,1,1.211.511,1.675,1.675,0,0,1,.413,1.066c0,.209.014.6.039,1.174.171.483.332.893.479,1.219a2.567,2.567,0,0,1,.4.805,2.3,2.3,0,0,0,.5.632l.036.04a2.943,2.943,0,0,0,.527.544c.109.069.345.231,1.137.834a4.078,4.078,0,0,1,.8.527,1.643,1.643,0,0,1,.551,1.156,1.375,1.375,0,0,1-.69,1.336,2.029,2.029,0,0,1-1.065.331A1.622,1.622,0,0,1,898.746-210.6Zm21.749-2.177-.073-.041-.059-.059a12.74,12.74,0,0,1-.857-.946c-.221-.272-.34-.3-.341-.3a1.358,1.358,0,0,1-.942-.536,4.042,4.042,0,0,1-.3-.447,1.261,1.261,0,0,1-.893-.282,2.423,2.423,0,0,0-.438-.167,8.417,8.417,0,0,0-.977-.156,1.5,1.5,0,0,1-1.039-.436c-.121-.136-.243-.281-.364-.432a1.151,1.151,0,0,1-.14-1.155,3.321,3.321,0,0,1,.522-.921,1.774,1.774,0,0,1,1.333-.66l.065,0,.063.009a8.315,8.315,0,0,1,2.642.771,13.066,13.066,0,0,1,1.468.86,7.268,7.268,0,0,1,.82.681,1.6,1.6,0,0,1,.834.789,4.548,4.548,0,0,1,.653.462,3.284,3.284,0,0,1,.5.578,1.7,1.7,0,0,1,.278,1.08,1.71,1.71,0,0,1-.461,1.109,1.552,1.552,0,0,1-1.17.492A2.3,2.3,0,0,1,920.5-212.778Zm12.313-.16a2.531,2.531,0,0,1-1-1.213l-.039-.077-.015-.085a11.81,11.81,0,0,0-.3-1.344,9.467,9.467,0,0,1-.3-1.4c-.086-.553-.15-.963-.193-1.217s-.105-.59-.19-1.012l-.008-.04,0-.041c-.03-.475-.044-.811-.044-1.026a1.85,1.85,0,0,1,.5-1.13,1.565,1.565,0,0,1,1.241-.635c.045,0,.091,0,.137.006a2.511,2.511,0,0,1,1.04.292,1.643,1.643,0,0,1,.72.924,2.089,2.089,0,0,1,.109,1.083,6.811,6.811,0,0,1-.274.955,3.807,3.807,0,0,0,.058.943,5.952,5.952,0,0,1,.116.956,3.156,3.156,0,0,1,.375.985.331.331,0,0,0,.162.183l.112.07.073.112c.193.3.78,1.2.288,1.9a2.685,2.685,0,0,1-.619.661,2.032,2.032,0,0,1-.847.315,1.846,1.846,0,0,1-.305.026A1.756,1.756,0,0,1,932.809-212.938Zm68.214-1.4c-.176-.094-.4-.206-.66-.329-.447-.212-.775-.735-1.03-1.648l0-.016c-.141-.564-.256-1-.339-1.292a3.857,3.857,0,0,0-.307-.746,3.377,3.377,0,0,1-.8-1.37,1.165,1.165,0,0,0-.194-.475c-.2-.229-.418-.482-.646-.753a1.932,1.932,0,0,1-.485-1.268v-.059l.012-.058a1.62,1.62,0,0,1,1.444-1.424,2.687,2.687,0,0,1,.315-.019,2.458,2.458,0,0,1,1.456.471l.126.09.067.139a5.4,5.4,0,0,0,.47.873,1.647,1.647,0,0,1,.445.785,9.15,9.15,0,0,1,.207.941,2.39,2.39,0,0,1,.695,1.2,11.041,11.041,0,0,1,.67,1.344,9.166,9.166,0,0,1,.482.862c.083.179.159.34.228.477a1.617,1.617,0,0,1-.027,1.219,1.573,1.573,0,0,1-.947,1.1,1.7,1.7,0,0,1-.584.111A1.24,1.24,0,0,1,1001.022-214.343Zm-62.177-.216a2.107,2.107,0,0,1-.654-.752,1.412,1.412,0,0,1-.033-1.13,6.493,6.493,0,0,1,.159-1l.472-1.891a11.937,11.937,0,0,0,.347-1.6,1.18,1.18,0,0,1,.291-.772,1.7,1.7,0,0,1,.794-1.3,2.053,2.053,0,0,1,.977-.311,1.762,1.762,0,0,1,1.074.4,1.524,1.524,0,0,1,.639,1.025,2.8,2.8,0,0,1-.151,1.154l-.043.142-.105.105a3.017,3.017,0,0,0-.5,1.379c-.19.876-.319,1.439-.393,1.723a4.923,4.923,0,0,0-.126.817,1.492,1.492,0,0,1-.215,1.244c-.137.178-.254.337-.349.473a1.456,1.456,0,0,1-.954.544,1.7,1.7,0,0,1-.339.035A1.469,1.469,0,0,1,938.845-214.559Zm67.8-.136a3.956,3.956,0,0,1-1.438-1.279l-.04-.049-.03-.056c-.561-1.086-.778-1.481-.862-1.621a5.358,5.358,0,0,1-.469-1.192,21.057,21.057,0,0,1-.491-2.755l0-.033a2.821,2.821,0,0,1,.26-1.4,1.3,1.3,0,0,1,1.24-.924l.049,0,.258.022c.185.015.379.039.579.069a1.5,1.5,0,0,1,1,.818,2.084,2.084,0,0,1,.343,1.3c-.026.26-.053.5-.079.715a6.187,6.187,0,0,1,.01,1.284,6.868,6.868,0,0,0,.386.82,6.408,6.408,0,0,1,.38.71,1.45,1.45,0,0,0,.3.426,1.452,1.452,0,0,1,.825.988,2.1,2.1,0,0,1-.11,1.082,1.729,1.729,0,0,1-.812.971,1.545,1.545,0,0,1-.755.2A1.556,1.556,0,0,1,1006.642-214.7Z" transform="translate(-788.867 9160.732)" fill="#009f39"/>
      </g>
      <path id="パス_6217" data-name="パス 6217" d="M-106.942-5.918h-.176a13.783,13.783,0,0,1-2.068-.132v2.4a15.718,15.718,0,0,1,2.046-.132h.2V-.66a23.526,23.526,0,0,1-.132,2.486h2.6a14.82,14.82,0,0,1-.132-2.464V-3.784h11.286v2.618c0,.572-.2.682-1.144.682A19.45,19.45,0,0,1-97.284-.7a10.267,10.267,0,0,1,.528,2.332c.792.066,1.5.088,2.4.088,2.64,0,3.388-.484,3.388-2.222V-3.784h.132a14.664,14.664,0,0,1,2.024.132v-2.4a12.768,12.768,0,0,1-2.024.132h-.132V-11.66a16.091,16.091,0,0,1,.11-2.2,14.921,14.921,0,0,1-1.892.088h-5.1V-15.6h6.2c.9,0,1.848.044,2.706.132v-2.4a25.029,25.029,0,0,1-2.706.132h-14.52a24.318,24.318,0,0,1-2.728-.132v2.4a26.986,26.986,0,0,1,2.728-.132h6.006v1.826h-5.06a13.807,13.807,0,0,1-1.826-.088,17.887,17.887,0,0,1,.11,2.222Zm2.332,0V-7.854h4.444v1.936Zm0-3.916v-1.914h4.444v1.914Zm6.754,3.916V-7.854h4.532v1.936Zm0-3.916v-1.914h4.532v1.914Zm19.866-2.134V-7.92H-81.4a20.188,20.188,0,0,1-2.64-.132v2.42a23.076,23.076,0,0,1,2.662-.132h3.388V-1.1h-5.654A25.794,25.794,0,0,1-86.7-1.254V1.254A28.291,28.291,0,0,1-83.578,1.1h13.464a25.647,25.647,0,0,1,2.992.154V-1.254A24.114,24.114,0,0,1-70.18-1.1h-5.28V-5.764h3.806a24.456,24.456,0,0,1,2.706.132v-2.42a22.835,22.835,0,0,1-2.706.132H-75.46v-4.048h4.642c1.056,0,1.958.044,2.9.132v-2.42c-.9.088-1.848.132-2.97.132H-75.46v-1.694a20.513,20.513,0,0,1,.132-2.618h-2.816a17.939,17.939,0,0,1,.154,2.64v1.672h-3.586q.429-1.155.594-1.65a5.269,5.269,0,0,1,.22-.726,3.477,3.477,0,0,0,.2-.572l-2.508-.616a11.94,11.94,0,0,1-.484,2.046,15.956,15.956,0,0,1-3.718,6.424,6.674,6.674,0,0,1,1.8,1.87,19.438,19.438,0,0,0,2.992-4.62Zm28.116-3.388V-1.3c0,.572-.176.682-.99.682a29.06,29.06,0,0,1-3.3-.242,8.477,8.477,0,0,1,.616,2.442c.968.044,1.782.066,2.42.066,3.124,0,3.718-.374,3.718-2.442V-15.356a24.441,24.441,0,0,1,2.464.132V-17.71a25.029,25.029,0,0,1-2.706.132h-14.41a23.346,23.346,0,0,1-2.662-.132v2.486a26.544,26.544,0,0,1,2.706-.132ZM-52.888-11.2a10.745,10.745,0,0,1,.11-1.87,19.209,19.209,0,0,1-2.112.088h-5.544a17.452,17.452,0,0,1-2.046-.088,13.474,13.474,0,0,1,.11,2.024v6.93a15.476,15.476,0,0,1-.132,1.98h2.53V-3.96h5.17c.088,0,.286,0,.572.022h.572c.4.022.484.022.858.066a14.856,14.856,0,0,1-.088-1.782Zm-7.106.352h4.752v4.752h-4.752ZM-42.9-12.034a10.131,10.131,0,0,1,1.43-.154c1.518-.088,5.258-.484,6.666-.7.154.352.264.616.506,1.188l1.98-1.166a32.96,32.96,0,0,0-2.728-4.6l-1.76.858c.484.792.616.99,1.012,1.76-1.364.176-1.892.22-3.3.308.506-.836,1.3-2.31,1.562-2.882a7.039,7.039,0,0,1,.418-.814l-2.552-.462a15.319,15.319,0,0,1-1.848,4.268h-.33a1.5,1.5,0,0,1-.264.022,9.679,9.679,0,0,1-1.056-.066Zm13.068-4.554a9.376,9.376,0,0,1,.11-1.782h-2.53a11.025,11.025,0,0,1,.11,1.892V-11a1.318,1.318,0,0,0,.858,1.452,7.849,7.849,0,0,0,3.014.308c2.882,0,3.718-.132,4.29-.682.506-.506.7-1.254.88-3.322a8.2,8.2,0,0,1-2.2-.682c-.044,1.628-.132,2.068-.374,2.288-.286.22-.792.286-2.574.286-1.386,0-1.584-.088-1.584-.616v-1.386A30.821,30.821,0,0,0-24.75-15.29c1.078-.528,1.078-.528,1.54-.726l-1.628-2.024A11.048,11.048,0,0,1-27.39-16.5a14.016,14.016,0,0,1-2.442.924Zm.022,10.164A9.06,9.06,0,0,1-29.7-8.25h-2.53a10.8,10.8,0,0,1,.11,1.958V-.506a1.427,1.427,0,0,0,.682,1.43c.572.352,1.276.44,3.432.44,2.772,0,3.542-.154,4.136-.814.572-.638.814-1.474.968-3.542a8.971,8.971,0,0,1-2.244-.748A6.515,6.515,0,0,1-25.5-1.21c-.2.33-.748.44-2.2.44A6.614,6.614,0,0,1-29.26-.88c-.418-.088-.55-.22-.55-.594V-3.542a31.713,31.713,0,0,0,3.278-1.012c.682-.264,2.838-1.232,3.476-1.584l-1.672-1.936A14.532,14.532,0,0,1-29.81-5.7Zm-12.1,5.83a18.47,18.47,0,0,1-.11,2.4h2.508a19.21,19.21,0,0,1-.11-2.442V-2.816h3.7V-.99c-.044.33-.132.4-.594.4a7.768,7.768,0,0,1-1.474-.154A8.96,8.96,0,0,1-37.51,1.5c.4.022.726.022.924.022a4.462,4.462,0,0,0,2.31-.418c.44-.264.616-.77.616-1.716V-9.372c0-1.1.022-1.452.066-2.068a16.015,16.015,0,0,1-1.98.088h-4.84A15.614,15.614,0,0,1-42-11.418a19.329,19.329,0,0,1,.088,2.024Zm2.266-8.756h3.718v1.364h-3.718Zm0,3.256h3.718V-4.73h-3.718ZM-15.29-18.238a22.475,22.475,0,0,1-.66,3.828c-.484.022-.858.022-1.122.022a15.275,15.275,0,0,1-2.97-.2v2.508l1.166.022c.462.022.594.022.88.022.264,0,.4,0,1.386-.022a33.845,33.845,0,0,1-2.068,5.192,20.026,20.026,0,0,1-2.134,3.52l2.53,1.408c.132-.264.132-.264.418-.792.836-1.54,1.034-1.936,1.54-3.014a42.228,42.228,0,0,0,2.42-6.38c1.364-.11,2.706-.264,3.5-.4a4.29,4.29,0,0,1,.7-.11l-.066-2.53a18.87,18.87,0,0,1-3.52.616c.242-.968.352-1.408.462-1.936a11.013,11.013,0,0,1,.352-1.474Zm14.08,5.72a34.728,34.728,0,0,0-6.2-2.948l-1.32,2.134A26.926,26.926,0,0,1-2.4-10.252ZM-1.3-2.6a3.939,3.939,0,0,1-.33-.308A8.112,8.112,0,0,0-2.4-3.5,13.745,13.745,0,0,0-5.874-5.522a23.358,23.358,0,0,1-.2-3.014,7.333,7.333,0,0,1,.264-2.222L-8.36-10.89a11.669,11.669,0,0,0-.176,2.222c0,.66.044,1.518.11,2.53a10.927,10.927,0,0,0-2.046-.2c-2.794,0-4.752,1.562-4.752,3.784,0,2.244,1.892,3.7,4.8,3.7A5.079,5.079,0,0,0-6.776-.088,3.516,3.516,0,0,0-5.83-2.42c0-.088-.022-.242-.044-.44A13.306,13.306,0,0,1-2.508-.132Zm-7.04-1.21s.044.528.044.748c0,1.232-.726,1.848-2.222,1.848-1.364,0-2.156-.528-2.156-1.43,0-.924.924-1.518,2.354-1.518A5.546,5.546,0,0,1-8.338-3.806ZM6.314-12.452a7.149,7.149,0,0,1,1.254.088v-2.244a5.747,5.747,0,0,1-1.276.11H5.7v-1.914a14.533,14.533,0,0,1,.132-2.134H3.366A13.608,13.608,0,0,1,3.5-16.434V-14.5H2.684a7.175,7.175,0,0,1-1.606-.11v2.266a7.932,7.932,0,0,1,1.606-.11h.572A18.034,18.034,0,0,1,.528-5.742,9.227,9.227,0,0,1,1.76-3.278,17.685,17.685,0,0,0,3.674-8.36C3.542-6.93,3.5-6.05,3.5-5.346V-.572a20.3,20.3,0,0,1-.132,2.464H5.83A19.548,19.548,0,0,1,5.7-.572v-5.61C5.7-7.656,5.676-8.47,5.61-9.2a12.138,12.138,0,0,0,1.3,2.728,9.882,9.882,0,0,1,.968-2.178,10.315,10.315,0,0,1-2.112-3.806Zm9.174-.814c.176-.814.286-1.3.308-1.43h2.728a15.873,15.873,0,0,1,2.53.132V-16.83a19.572,19.572,0,0,1-2.508.132H16.17c.176-1.012.286-1.606.33-1.76l-2.442-.132v.242A14.263,14.263,0,0,1,13.9-16.7H10.56a18.1,18.1,0,0,1-2.42-.132v2.266a21.133,21.133,0,0,1,2.42-.132h3.014c-.088.484-.176.836-.33,1.43h-.176c-.814,0-1.144,0-1.672-.044a13.87,13.87,0,0,1,.088,1.8v7.128A18.165,18.165,0,0,1,11.4-2.442a16.121,16.121,0,0,1,1.694-.066h5.126c.594,0,1.056.022,1.716.066a17.222,17.222,0,0,1-.088-1.914v-7.15a15.383,15.383,0,0,1,.088-1.826,12.1,12.1,0,0,1-1.716.066ZM13.64-11.352h4.026v1.122H13.64Zm0,2.86h4.026V-7.37H13.64Zm0,2.86h4.026v1.21H13.64Zm7.326,4.224a14.02,14.02,0,0,1-2.244.11H10.208V-10.78a12.743,12.743,0,0,1,.11-2.2H7.876a20.441,20.441,0,0,1,.088,2.2v10.1a20.21,20.21,0,0,1-.11,2.574h2.354V.814H18.7a16.539,16.539,0,0,1,2.266.132ZM34.848-15.29c.132-.374.22-.616.286-.814.528-1.54.528-1.54.7-2l-2.552-.44a12.911,12.911,0,0,1-.968,3.388,12.968,12.968,0,0,1-1.562,2.882v-2.112a5.915,5.915,0,0,1-1.43.11H28.8v-2.486a10.993,10.993,0,0,1,.132-1.8h-2.6a9.5,9.5,0,0,1,.154,1.8v2.486h-.836c.066-.814.088-.924.176-2.244l-2.2-.242a6.976,6.976,0,0,1,.044.924,20.568,20.568,0,0,1-.286,3.1A12.328,12.328,0,0,1,22.55-9.68a6.885,6.885,0,0,1,2,1.188,25.409,25.409,0,0,0,.836-3.564h1.1v4.884a13.593,13.593,0,0,1-3.652.858L23.342-3.7a9.186,9.186,0,0,1,1.166-.462c.418-.132,1.078-.352,1.98-.682V-.682a17.545,17.545,0,0,1-.154,2.53h2.6A23.141,23.141,0,0,1,28.8-.682V-5.676c.748-.308,1.056-.44,2.09-.88l-.022-2.2a17.933,17.933,0,0,1-2.068.814v-4.114h.528a10.927,10.927,0,0,1,1.232.044A11.772,11.772,0,0,1,29.5-10.956a6.715,6.715,0,0,1,1.826,1.672,14.1,14.1,0,0,0,2.618-3.872H34.98a13.882,13.882,0,0,1-2.816,5.5,9.235,9.235,0,0,1-2.6,2.222A5.134,5.134,0,0,1,31.2-3.52a16.672,16.672,0,0,0,5.9-9.636h.9A23.722,23.722,0,0,1,35.882-6.49a15.374,15.374,0,0,1-5.72,6.248,5.2,5.2,0,0,1,1.848,1.8,18.453,18.453,0,0,0,5.72-6.754,27.166,27.166,0,0,0,2.354-7.964h.264A81.763,81.763,0,0,1,39.71-2.75c-.242,1.562-.572,2.024-1.452,2.024a13.179,13.179,0,0,1-2.728-.352A5.423,5.423,0,0,1,36.1,1.408c1.078.088,1.628.132,2.112.132,1.936,0,2.882-.506,3.388-1.826.594-1.518.88-4.84,1.034-12.32a19.838,19.838,0,0,1,.132-2.772,11.651,11.651,0,0,1-1.826.088Zm21.252.616v-1.584a14.033,14.033,0,0,1,.154-2.288H53.482a14.676,14.676,0,0,1,.154,2.266v1.606H48.224a17.5,17.5,0,0,1-2.376-.11c.066.7.11,1.342.11,2.112V-.88a26.985,26.985,0,0,1-.132,2.728h2.442V.77H61.71V1.848h2.464c-.088-.9-.132-1.826-.132-2.706v-11.7c0-.858.044-1.518.11-2.222a19.963,19.963,0,0,1-2.486.11Zm0,13.244V-6.094h5.61V-1.43Zm0-6.776V-12.5h5.61v4.29ZM53.636-12.5v4.29H48.268V-12.5Zm0,6.4V-1.43H48.268V-6.094Zm20.548-.924a15.7,15.7,0,0,1-2,2.332,19.222,19.222,0,0,1-5.39,3.542,11.371,11.371,0,0,1,1.5,2.2,20.561,20.561,0,0,0,3.718-2.464,16.2,16.2,0,0,0,3.652-4.136c-.066.946-.066,1.364-.066,2.046v3.08a13.469,13.469,0,0,1-.154,2.244h2.728a14.2,14.2,0,0,1-.154-2.244v-3.1c0-.462-.022-.9-.088-2.09A17,17,0,0,0,80.85-2.222,21.644,21.644,0,0,0,85.844,1.1a9.616,9.616,0,0,1,1.474-2.31,17.143,17.143,0,0,1-7.9-5.808h4.84a21.635,21.635,0,0,1,2.64.132V-9.372a13.861,13.861,0,0,1-2.53.132H82.06a22.043,22.043,0,0,0,1.914-3.7l-2.31-.748A20.081,20.081,0,0,1,79.508-9.24h-1.5v-4.8H83.4a14.82,14.82,0,0,1,2.464.132v-2.464a14.924,14.924,0,0,1-2.618.154H78.012v-.594a9.607,9.607,0,0,1,.11-1.716h-2.64a13.419,13.419,0,0,1,.11,1.694v.616h-4.84a16.8,16.8,0,0,1-2.574-.154V-13.9a19.418,19.418,0,0,1,2.442-.132h4.972v4.8H72.05l1.738-.77a21.762,21.762,0,0,0-1.826-3.828l-2.068.924A17.38,17.38,0,0,1,71.588-9.24H69.7a16.013,16.013,0,0,1-2.552-.132v2.486a22.264,22.264,0,0,1,2.574-.132ZM100.716-14.1a4.808,4.808,0,0,1,2.222.66,5.45,5.45,0,0,1,2.706,4.884,6.159,6.159,0,0,1-3.058,5.5,11.692,11.692,0,0,1-4.378,1.21A7.018,7.018,0,0,1,99.55.726,14.383,14.383,0,0,0,103-.2,8.475,8.475,0,0,0,108.35-8.4c0-4.95-3.432-8.162-8.712-8.162a9.876,9.876,0,0,0-7.568,3.08,9.45,9.45,0,0,0-2.42,6.4c0,3.542,1.8,6.094,4.312,6.094,1.8,0,3.212-1.3,4.466-4.136A31.827,31.827,0,0,0,100.716-14.1Zm-2.684.022a29,29,0,0,1-1.826,7.436c-.792,1.892-1.54,2.816-2.266,2.816-.968,0-1.738-1.43-1.738-3.234A7.366,7.366,0,0,1,95.194-13,5.6,5.6,0,0,1,98.032-14.08ZM-84.37,11.37V9.808a13.22,13.22,0,0,1,.154-2.332h-2.662a12.3,12.3,0,0,1,.154,2.244v1.65H-90a18.09,18.09,0,0,1-2.156-.088,22.916,22.916,0,0,1,.088,2.332V25.032a22.4,22.4,0,0,1-.132,2.6h2.464V26.484h8.646V27.65h2.442a24.356,24.356,0,0,1-.132-2.816V13.746a21.068,21.068,0,0,1,.11-2.486,22.568,22.568,0,0,1-2.31.11Zm-2.354,2.222v4h-3.014v-4Zm2.354,0h3.278v4H-84.37Zm-2.354,6.182V24.24h-3.014V19.774Zm2.354,0h3.278V24.24H-84.37ZM-97.482,9.434a17.773,17.773,0,0,1,3.762,3.058l1.5-1.914A19.394,19.394,0,0,0-95.986,7.74Zm-.814,5.522a19.055,19.055,0,0,1,3.96,3.014l1.364-2.024a24.039,24.039,0,0,0-3.96-2.772Zm3.19,4.422a22.114,22.114,0,0,1-2.376,5.632,6.239,6.239,0,0,1-.748.968l2.156,1.826c.132-.286.2-.374.352-.66a33.508,33.508,0,0,0,2.64-6.358Zm30.822-7.48a4.808,4.808,0,0,1,2.222.66,5.45,5.45,0,0,1,2.706,4.884,6.159,6.159,0,0,1-3.058,5.5,11.692,11.692,0,0,1-4.378,1.21,7.018,7.018,0,0,1,1.342,2.574A14.383,14.383,0,0,0-62,25.8,8.475,8.475,0,0,0-56.65,17.6c0-4.95-3.432-8.162-8.712-8.162a9.876,9.876,0,0,0-7.568,3.08,9.45,9.45,0,0,0-2.42,6.4c0,3.542,1.8,6.094,4.312,6.094,1.8,0,3.212-1.3,4.466-4.136A31.827,31.827,0,0,0-64.284,11.9Zm-2.684.022a29,29,0,0,1-1.826,7.436c-.792,1.892-1.54,2.816-2.266,2.816-.968,0-1.738-1.43-1.738-3.234A7.366,7.366,0,0,1-69.806,13,5.6,5.6,0,0,1-66.968,11.92Zm15.928-.44a17.108,17.108,0,0,1,1.738-.132c2.156-.088,2.684-.11,3.806-.2-.55,2.024-.814,2.86-1.386,4.6A7.835,7.835,0,0,0-51.04,16.8a5.536,5.536,0,0,0-2.728,4.818c0,2.4,1.5,4.18,3.52,4.18a3.476,3.476,0,0,0,3.014-2.09A29.31,29.31,0,0,0-45.056,18.3a16.8,16.8,0,0,1,4.95,1.518,8.955,8.955,0,0,1-1.958,3.256,10.345,10.345,0,0,1-3.41,2.31,8,8,0,0,1,2,1.98,12.748,12.748,0,0,0,3.322-2.486,10.389,10.389,0,0,0,2.4-3.872,22.466,22.466,0,0,1,3.036,2.046l.99-2.9a7.768,7.768,0,0,1-1.012-.528c-.682-.4-1.65-.9-2.354-1.254a36.653,36.653,0,0,0,.4-4.664,7.132,7.132,0,0,1,.132-1.474l-2.772-.11a6.6,6.6,0,0,1,.088,1.166,23.9,23.9,0,0,1-.22,4.07,17.928,17.928,0,0,0-4.862-1.386c.2-.682,1.54-4.73,1.65-4.994a3.284,3.284,0,0,1,.462-.924l-1.738-1.5a1.668,1.668,0,0,1-.88.264c-.814.11-2.772.2-4.092.2a13.046,13.046,0,0,1-2.222-.11Zm3.476,6.578a28.7,28.7,0,0,1-1.43,3.674c-.506.99-.836,1.386-1.254,1.386-.594,0-1.078-.726-1.078-1.628a3.092,3.092,0,0,1,.836-2.112A4.352,4.352,0,0,1-47.564,18.058Zm16.346-4.532a27.611,27.611,0,0,1,3.652-.44c4.268-.308,5.632-.44,7.414-.7A9.728,9.728,0,0,0-23.21,14.6a7.661,7.661,0,0,0-2.09,5.17,5.886,5.886,0,0,0,3.146,5.3,13.235,13.235,0,0,0,5.148,1.452c.418.066.462.066.748.132l.4-2.992c-.22.022-.418.022-.44.022a13.351,13.351,0,0,1-3.278-.572,3.694,3.694,0,0,1-2.926-3.586c0-2.222,1.65-4.422,4.444-5.874a9.839,9.839,0,0,1,4.356-1.188,3.406,3.406,0,0,1,.462.022L-13.4,9.7a11.853,11.853,0,0,1-2.266.176c-5.874.286-9.636.484-11.242.572-3.234.22-3.234.22-3.63.22-.11,0-.352,0-.836-.022Zm13.464,2.112a14.848,14.848,0,0,1,2.31,3.278l1.54-.814a14.257,14.257,0,0,0-2.31-3.234Zm6.468,1.034a12.723,12.723,0,0,0-2.288-3.1l-1.474.77A16.209,16.209,0,0,1-12.8,17.53Zm9-.286A14.754,14.754,0,0,1-.33,16.3H8.008a14.275,14.275,0,0,1,2.178.11V14.3a11.133,11.133,0,0,1-2.178.132h-3.3v-.99H7.062a14.545,14.545,0,0,1,1.87.088V11.678a12.4,12.4,0,0,1-1.826.088h-2.4v-.924h2.86a14.344,14.344,0,0,1,2.134.11V8.862a12.616,12.616,0,0,1-2.244.132H4.708A6.1,6.1,0,0,1,4.84,7.5H2.42a7.55,7.55,0,0,1,.11,1.5H.44a14.8,14.8,0,0,1-2.222-.132v.616l-1.76-.66a18.657,18.657,0,0,1-.924,4.422l1.54.682A27.072,27.072,0,0,0-1.782,9.5v1.452a12.885,12.885,0,0,1,2.068-.11H2.53v.924H.572a14.115,14.115,0,0,1-1.87-.088v1.848A14.173,14.173,0,0,1,.55,13.438H2.53v.99H-.33A10.456,10.456,0,0,1-2.552,14.3v.33c-.616.044-.792.044-1.364.044h-.748V9.632a16.109,16.109,0,0,1,.11-2.178H-7a14.245,14.245,0,0,1,.11,2.2V14.67H-8.074a8.993,8.993,0,0,1-1.65-.088V16.87a10.959,10.959,0,0,1,1.694-.088h.924a17.35,17.35,0,0,1-3.1,6.028,9.682,9.682,0,0,1,1.144,2.244A15.911,15.911,0,0,0-6.71,20.148c-.11,1.342-.176,2.266-.176,2.794v2.552A16.92,16.92,0,0,1-7,27.87h2.464a15.7,15.7,0,0,1-.132-2.376V22.062c0-.77-.066-1.936-.132-2.662a11.811,11.811,0,0,0,2.068,3.41,9.791,9.791,0,0,1,.946-2.068A10.352,10.352,0,0,1-3.96,18.014a7.013,7.013,0,0,1-.66-1.232h.7a11.1,11.1,0,0,1,1.628.088ZM.858,24.372H6.644V25.1c0,.462-.132.55-.814.55a11.475,11.475,0,0,1-2.068-.2,7.669,7.669,0,0,1,.506,2.2c1.122.066,1.386.066,1.76.066,1.364,0,1.848-.11,2.288-.484a2.057,2.057,0,0,0,.506-1.65V19.268A19.735,19.735,0,0,1,8.91,17a14.09,14.09,0,0,1-1.98.088H.374c-.77,0-1.232-.022-1.76-.066.044.616.066,1.034.066,1.87v6.468a18.082,18.082,0,0,1-.11,2.508h2.4a24.567,24.567,0,0,1-.11-2.508Zm0-1.76v-.99H6.644v.99Zm0-2.706v-.968H6.644v.968ZM-10.054,9.478a27.128,27.128,0,0,1,1.21,4.488l1.716-.726a32.177,32.177,0,0,0-1.21-4.422Zm34.5,15.07a16.786,16.786,0,0,0,6.644,3.278,8.411,8.411,0,0,1,1.188-2.2A15.648,15.648,0,0,1,27.7,24.152a10.076,10.076,0,0,0,2.53-1.87l-1.628-.99h.88a16.326,16.326,0,0,1,2.4.11V19.268a22.669,22.669,0,0,1-2.508.088H23.562v-.374a9.224,9.224,0,0,1,.066-1.1H22.66a1.242,1.242,0,0,0,.418-1.122V15.022c0-.44,0-.682.022-.946-.528.022-.946.044-1.76.044H19.118v-.88h2.508a17.864,17.864,0,0,1,2.068.088V11.436a12.444,12.444,0,0,1-2.178.11h-2.4v-.924h2.134c.88,0,1.386.022,2,.066V8.8a11.961,11.961,0,0,1-2.024.11H19.118a9.159,9.159,0,0,1,.088-1.452H16.9a12.277,12.277,0,0,1,.11,1.452H15.554a7.453,7.453,0,0,0,.418-.99l-2.222-.44a7.6,7.6,0,0,1-1.76,3.08,11.688,11.688,0,0,1,1.65.99,11.127,11.127,0,0,1-1.474-.088V13.35a13.389,13.389,0,0,1,1.98-.11h2.86v.88H14.454c-.506,0-1.144-.022-1.474-.044.044.66.066.836.066,1.254v1.65a9.422,9.422,0,0,1-.066,1.144l-.022.22h2.2a6.208,6.208,0,0,1-.066-1.254V15.77h1.914v1.144a13.652,13.652,0,0,1-.088,1.738h2.266c-.044-.528-.066-1.034-.066-1.738V15.77H21.23v.682c0,.286-.088.374-.374.374a8.9,8.9,0,0,1-1.144-.11,4.814,4.814,0,0,1,.352,1.474c.55.022.7.044,1.188.044.022.176.044.528.044.748v.374H14.432a21.8,21.8,0,0,1-2.442-.088V21.4a15.649,15.649,0,0,1,2.354-.11H18.5A17.288,17.288,0,0,1,11.682,24a6.927,6.927,0,0,1,1.122,1.98,25.929,25.929,0,0,0,5.1-2.046v1.5a23.755,23.755,0,0,1-2.838.264h-.22l.4,2.222c.418-.066.506-.088,1.078-.154,2.332-.33,4.73-.748,8.118-1.452ZM20.2,22.414c.44-.352.858-.748,1.254-1.122h.462A8.282,8.282,0,0,0,24.2,24.35c-1.254.286-1.826.4-4,.726Zm7.942-1.122a9.7,9.7,0,0,1-2.244,1.826A5.923,5.923,0,0,1,24.2,21.292ZM14.014,11.546a10.5,10.5,0,0,0,.66-.924h2.332v.924Zm12.65,3.894a9.644,9.644,0,0,1-.066-1.518V10.314a10.147,10.147,0,0,1,.088-1.65h-2.4a12.186,12.186,0,0,1,.11,1.65v3.63a10.138,10.138,0,0,1-.088,1.5Zm4.2-5.808a12.347,12.347,0,0,1,.11-1.98H28.512a15.288,15.288,0,0,1,.11,1.87v6.292c0,.4-.066.506-.264.572a6.463,6.463,0,0,1-.858.066,14.7,14.7,0,0,1-2.134-.2,6.4,6.4,0,0,1,.594,2.09c.55.022,1.166.044,1.606.044a5.106,5.106,0,0,0,2.552-.4c.572-.352.748-.814.748-1.98Zm5.038,5.06a8.267,8.267,0,0,1,.968-.066,76.667,76.667,0,0,0,7.81-.528,24.328,24.328,0,0,0,2.376,4,10.221,10.221,0,0,0-3.806-.66c-2.508,0-4.334.506-5.61,1.584A4.28,4.28,0,0,0,36.058,22.3a4.1,4.1,0,0,0,1.3,2.97c1.122,1.078,3.3,1.672,6.116,1.672a22.711,22.711,0,0,0,6.974-1.188l-.352-2.816a15.286,15.286,0,0,1-6.622,1.474c-2.992,0-4.62-.792-4.62-2.222,0-1.562,1.76-2.464,4.752-2.464a11.026,11.026,0,0,1,3.476.506,3.887,3.887,0,0,1,1.518.946l2.552-1.166c-.77-1.034-1.738-2.464-2.332-3.476-.22-.4-.726-1.32-1.518-2.794q2.739-.528,3.234-.66c.748-.154.99-.22,1.562-.308l-.308-2.618a33.475,33.475,0,0,1-5.39,1.3,18.433,18.433,0,0,1-1.21-3.52l-2.838.374c.11.176,1.056,2.508,1.43,3.476-1.364.176-4.29.374-5.94.374a15.082,15.082,0,0,1-2.134-.11Zm26.378.946c.022-.264.044-.4.044-.4l.044-1.3c.132-.176.176-.22.264-.352a2,2,0,0,1,.308-.4,3.68,3.68,0,0,1,.638-.66l-.814-.924c-.154.044-.242.088-.264.088.044-1.342.066-1.518.088-1.958.044-.44.066-.726.066-.836a3.068,3.068,0,0,1,.088-.814L59.95,8.048a7.31,7.31,0,0,1,.066,1.232c0,.506-.022,1.188-.022,1.8-.022.506-.022.506-.044.836-1.034.066-2.244.132-2.662.132a6.824,6.824,0,0,1-.9-.044l.132,2.486a28.348,28.348,0,0,1,3.366-.308c0,.594-.022.638-.022,1.144-.044.858-.044,1.1-.066,2.156-.418.462-.418.462-2.486,2.508a9.857,9.857,0,0,1-1.43,1.254l1.276,2.618a12.562,12.562,0,0,1,1.012-1.254,17.132,17.132,0,0,0,1.562-1.848l.044-.022c-.044.594-.044.594-.044,2.948a19.311,19.311,0,0,1-.154,3.5h2.838a29.69,29.69,0,0,1-.11-3.63c-.022-2.442-.022-2.442-.022-2.618,0-.616,0-1.232.044-2.222a25.01,25.01,0,0,1,4-3.586,5.269,5.269,0,0,1,2.728-1.188c.594,0,.9.286.9.814A13.949,13.949,0,0,1,69.5,17.53c-.814,3.652-.9,4.246-.9,5.522a3.138,3.138,0,0,0,1.144,2.772,3.269,3.269,0,0,0,1.892.572,4.256,4.256,0,0,0,3.256-1.584,10.039,10.039,0,0,0,1.54-2.178,10.7,10.7,0,0,1-1.474-2.64A10.8,10.8,0,0,1,73.678,22.5a2.207,2.207,0,0,1-1.54,1.122c-.572,0-.9-.4-.9-1.1a27.819,27.819,0,0,1,.924-4.95,15.739,15.739,0,0,0,.55-3.366,2.837,2.837,0,0,0-3.08-2.926c-1.342,0-2.728.616-4.642,2.068A16.132,16.132,0,0,0,62.3,15.638Zm16.764-1.694a3.285,3.285,0,0,1,.418-.022c.176,0,.484,0,.88.022.374.022.594.022.7.022h1.276a1.863,1.863,0,0,0,.286-.022A47,47,0,0,1,78.672,25.78l2.772,1.078a74.589,74.589,0,0,0,2.464-7.282c.572-2,1.122-4.334,1.364-5.7a29.991,29.991,0,0,0,3.608-.462c.528-.088.528-.088.7-.11l-.11-2.53a18.259,18.259,0,0,1-3.762.66c.088-.506.11-.638.22-1.254A12.5,12.5,0,0,1,86.35,8.07l-2.9-.264a2.985,2.985,0,0,1,.022.4,26.7,26.7,0,0,1-.418,3.366c-.506.022-.748.022-1.012.022a17.5,17.5,0,0,1-2.948-.2Zm17.446.484c-1.386-.022-1.584-.022-2.178-.022a28.233,28.233,0,0,0-6.556.7l.2,2.42a23.743,23.743,0,0,1,5.808-.638,22.9,22.9,0,0,1,2.772.154Zm-8.668,4.62c-1.21,1.65-1.628,2.64-1.628,3.806a3.179,3.179,0,0,0,1.562,2.706,8.933,8.933,0,0,0,4.422.88,25.6,25.6,0,0,0,4.092-.352c.506-.088.682-.11,1.078-.154l-.2-2.706a16.837,16.837,0,0,1-4.994.814c-2.2,0-3.3-.572-3.3-1.694A3.65,3.65,0,0,1,90,19.928Z" transform="translate(168 8893)" fill="#371606"/>
    </g>
    <path id="パス_3012" data-name="パス 3012" d="M3248.407,8649.592c-58.167,57.191-73.454,222.1-23.644,324.912" transform="translate(-3076.469 -49.44)" fill="none" stroke="#009f39" stroke-linecap="round" stroke-width="3"/>
    <g id="グループ_2901" data-name="グループ 2901" transform="translate(897.5 520)">
      <g id="コンポーネント_25_12" data-name="コンポーネント 25 – 12" transform="translate(-830 8375)">
        <g id="長方形_1591" data-name="長方形 1591" fill="none" stroke="#009f39" stroke-width="2">
          <rect width="66" height="34" rx="17" stroke="none"/>
          <rect x="1" y="1" width="64" height="32" rx="16" fill="none"/>
        </g>
        <text id="外箱" transform="translate(32.5 25.363)" fill="#009f39" font-size="22" font-family="HiraKakuProN-W6, Hiragino Kaku Gothic ProN"><tspan x="-22" y="0">外箱</tspan></text>
      </g>
    </g>
  </g>
</svg>
