<svg xmlns="http://www.w3.org/2000/svg" width="8" height="14" viewBox="0 0 8 14">
  <g id="icon_arw_r_br" transform="translate(121 -3093)">
    <path id="パス_6553" data-name="パス 6553" d="M-119.839,3105.107a1,1,0,0,1-.707-.293,1,1,0,0,1,0-1.414l6-6a1,1,0,0,1,1.414,0,1,1,0,0,1,0,1.414l-6,6A1,1,0,0,1-119.839,3105.107Z" transform="translate(-0.161 1.893)" fill="#371606"/>
    <path id="パス_6554" data-name="パス 6554" d="M-113.839,3105.107a1,1,0,0,1-.707-.293l-6-6a1,1,0,0,1,0-1.414,1,1,0,0,1,1.414,0l6,6a1,1,0,0,1,0,1.414A1,1,0,0,1-113.839,3105.107Z" transform="translate(-0.161 -4.107)" fill="#371606"/>
  </g>
</svg>
