<svg xmlns="http://www.w3.org/2000/svg" width="11" height="15" viewBox="0 0 11 15">
  <g id="icon_arw_l_gr" transform="translate(1.5 1.5)">
    <path id="線_15" data-name="線 15" d="M0,7.5a1.5,1.5,0,0,1-1.2-.6A1.5,1.5,0,0,1-.9,4.8l8-6a1.5,1.5,0,0,1,2.1.3,1.5,1.5,0,0,1-.3,2.1l-8,6A1.493,1.493,0,0,1,0,7.5Z" fill="#009f39"/>
    <path id="線_16" data-name="線 16" d="M8,7.5a1.493,1.493,0,0,1-.9-.3l-8-6A1.5,1.5,0,0,1-1.2-.9,1.5,1.5,0,0,1,.9-1.2l8,6A1.5,1.5,0,0,1,8,7.5Z" transform="translate(0 6)" fill="#009f39"/>
  </g>
</svg>
