<svg xmlns="http://www.w3.org/2000/svg" width="108.572" height="100.253" viewBox="0 0 108.572 100.253">
  <g id="earth_modal_bird" transform="translate(0.001 0)">
    <g id="グループ_2695" data-name="グループ 2695" transform="translate(0 0)">
      <path id="パス_3211" data-name="パス 3211" d="M74.859,62.06a12.437,12.437,0,0,1,2.9,2.7,7.534,7.534,0,0,1,1.593,3.613,3.875,3.875,0,0,1-1.858,3.421,10.229,10.229,0,0,1,2.875,2.042c.969.8,2.336,1.207,2.807,2.171a7.389,7.389,0,0,1,.34,3.543,5.13,5.13,0,0,1-1.088,3.169,9.857,9.857,0,0,1,3.319.709,12,12,0,0,1,2.559,2.329,7.736,7.736,0,0,1,2.212,2.7,4.8,4.8,0,0,1-.58,3.475,7.51,7.51,0,0,1-2.275,2.6,19.27,19.27,0,0,1-3.5,1.525c-1.054.42-2.411.338-3.732.728-1.144.335-2.236,1.119-3.53,1.416-1.187.27-2.435.5-3.717.721-1.219.211-2.508.092-3.783.248-1.241.153-2.443.906-3.71,1s-2.545.078-3.8.092-2.545-.277-3.793-.347c-1.282-.073-2.516-.391-3.742-.566a35.719,35.719,0,0,1-3.768-.43,24.281,24.281,0,0,1-3.591-1.233,24.065,24.065,0,0,1-3.239-1.933,27.814,27.814,0,0,1-3.161-2.064A33.486,33.486,0,0,1,37.8,91.108c-.857-.911-1.284-2.2-2.059-3.191s-1.935-1.7-2.63-2.751-1.088-2.3-1.714-3.382-1.69-1.967-2.258-3.074c-.585-1.139-.728-2.484-1.25-3.6-.546-1.17-.724-2.465-1.209-3.579-.524-1.2-1.452-2.069-1.916-3.166-1.367.121-2.54-.515-3.742-.6a24.017,24.017,0,0,1-3.773-.388,31.649,31.649,0,0,1-3.647-1.124c-1.28-.469-2.4-1.1-3.516-1.532a21.034,21.034,0,0,0-2.928-.4A8.238,8.238,0,0,0,4.318,64c-1.77.092-2.047,1.124-3.683.444-1.617-.673.3-1.809.9-3.737.153-.974,1.01-1.826,1.5-2.8a10.9,10.9,0,0,1,1.544-2.739A10.854,10.854,0,0,1,7.018,53.12c1.156-.67,2.715-.612,4.142-.957,1.365-.33,2.71-.9,4.077-1.141a30.724,30.724,0,0,0,4.222-.811c.136-1.212.49-2.491.6-3.717s-.109-2.472,0-3.7.287-2.438.405-3.654.585-2.4.738-3.611c.158-1.226-.277-2.528-.066-3.722.216-1.219.226-2.494.522-3.671.3-1.2.962-2.309,1.369-3.45a31.384,31.384,0,0,1,1.093-3.572,22.632,22.632,0,0,1,1.947-3.03,33.6,33.6,0,0,1,2.377-2.668c.779-.852,1.559-1.79,2.433-2.6s2.343-.894,3.259-1.634,1.357-2.139,2.3-2.809c.988-.7,2.35-.8,3.317-1.4,1.056-.651,2.086-1.195,3.067-1.7,1.212-.619,2.246-1.462,3.39-1.957,1.258-.544,2.326-1.445,3.5-1.848,1.3-.452,2.642-.629,3.829-.923A30.036,30.036,0,0,1,57.461.275a24.611,24.611,0,0,1,3.868-.27A14,14,0,0,1,65.19.374a5.1,5.1,0,0,1,2.659,2.732,5.306,5.306,0,0,1,.775,3.615,10,10,0,0,1-.954,3.853,17.87,17.87,0,0,1-3.089,3.072c1.093.024,2.843.063,3.781.733a8.74,8.74,0,0,1,2.389,2.557,9.367,9.367,0,0,1,.622,3.387,7.953,7.953,0,0,1-.274,3.3,10.479,10.479,0,0,1-1.957,3.047,3.862,3.862,0,0,1,2.486,3.045c.277,1.3.634,2.766-.024,4.091a7.074,7.074,0,0,1-3.157,2.88A4.028,4.028,0,0,0,71.758,38.2a7.159,7.159,0,0,0,3.428-1.032,22.433,22.433,0,0,0,3.555-1.959c1.083-.869,2.292-1.656,3.21-2.533,1.216-1.165,2.248-2.229,2.858-2.882.855-.913,1.282-2.12,2.059-2.894.889-.889,1.469-1.993,2.285-2.719.942-.838,2.258-1.081,3.14-1.729a27.486,27.486,0,0,1,2.795-2.115,22.339,22.339,0,0,1,3.295-1.185c1.071-.386,2.241-.826,3.093-.372.736.391,1.26,1.34,1.207,2.885a11.808,11.808,0,0,1-.575,3.064c1.061.036,1.578.983,1.969,2.224a6.182,6.182,0,0,1,.219,3.2,10.493,10.493,0,0,1-1.408,3.329c1.692-.418,3.069.024,3.647,1.326a7.21,7.21,0,0,1,.561,4.208c-.277,1.335-1.663,2.736-2.581,3.788,1.416.362,3.232.894,3.815,1.972.6,1.1-.007,2.44-.685,3.778a6.531,6.531,0,0,1-2.571,2.661,17.1,17.1,0,0,1-2.872,1.911c-.957.4-2.027.85-3.244,1.233-1.017.321-2.066.915-3.271,1.212-1.059.262-2.19.609-3.4.845-1.333.262-2.753-.233-4.011-.092-1.372.151-2.656.52-3.892.626a34.3,34.3,0,0,0-3.817.908c-1.459.27-2.872.078-3.819.775a5.208,5.208,0,0,0-1.889,3.428" transform="translate(0 0)" fill="#009f39"/>
    </g>
  </g>
</svg>
