<svg xmlns="http://www.w3.org/2000/svg" width="184.969" height="37.12" viewBox="0 0 184.969 37.12">
  <g id="movie_title" transform="translate(-492.822 -7659.978)">
    <g id="グループ_2919" data-name="グループ 2919" transform="translate(-57 2908)">
      <path id="パス_6080" data-name="パス 6080" d="M-85.706-24.123c0-.51.153-.816.357-.816s.408.153.663.459l10.1,12.6a1.353,1.353,0,0,0,1.02.612,1.386,1.386,0,0,0,1.071-.612l10.2-12.6c.255-.306.459-.459.663-.459s.357.306.357.816l.255,13.107c.1,2.754,0,7.6,0,9.078,0,1.275.255,1.53,1.53,1.53h3.111c1.275,0,1.428-.153,1.428-1.53,0-.765-.255-6.732-.306-9.435l-.255-15.249c-.051-3.621,0-7.6,0-8.364,0-1.275-.255-1.53-1.53-1.53h-1.683a2.444,2.444,0,0,0-2.448,1.224c-1.479,1.989-3.009,3.978-4.488,5.814l-6.783,8.619c-.408.51-.714.765-.969.765-.306,0-.561-.255-.969-.765l-6.936-8.772c-1.479-1.836-2.958-3.723-4.386-5.661a2.443,2.443,0,0,0-2.448-1.224h-1.683c-1.275,0-1.479.255-1.479,1.53,0,1.02,0,5.814-.051,8.364l-.255,15.249c-.051,3.672-.357,9.231-.357,9.945,0,.765.357,1.02,1.479,1.02h3.06c1.275,0,1.53-.255,1.53-1.53,0-1.173-.051-7.344,0-9.129Zm62.169-12.7c-10.608,0-18.207,7.344-18.207,18.615,0,9.537,6.324,18.1,17.391,18.1,9.792,0,18.309-6.834,18.309-18.819C-6.044-28.458-12.419-36.822-23.537-36.822Zm-.153,5.865c7.293,0,11.526,5.508,11.526,12.342,0,8.058-5.355,12.9-11.985,12.9-7.293,0-11.475-5.559-11.475-12.444C-35.624-25.5-30.983-30.957-23.69-30.957Zm57.528,4.59c1.071-2.55,2.244-5.253,3.876-8.772a2.949,2.949,0,0,0,.255-.867c0-.408-.306-.51-1.122-.51H33.073c-1.326,0-1.581.2-2.04,1.428-1.173,3.315-2.193,5.763-3.162,8.211L21.088-10.4c-.2.408-.357.612-.561.612s-.408-.2-.561-.612L13.132-26.979c-.918-2.346-1.938-4.794-3.162-8.109-.459-1.224-.714-1.428-2.04-1.428H4c-.816,0-1.173.1-1.173.51a2.583,2.583,0,0,0,.255.867c1.632,3.519,2.754,6.12,3.927,8.823L14.254-9.282c.918,2.193,1.938,4.641,3.009,7.446.51,1.224.765,1.428,2.091,1.428H21.5c1.326,0,1.581-.2,2.04-1.428,1.071-2.8,2.142-5.3,3.06-7.5ZM55.105-.408c1.173,0,1.479-.2,1.479-1.275,0-.357-.153-5.967-.153-8.925V-26.316c0-2.958.153-8.568.153-8.925,0-1.071-.306-1.275-1.479-1.275H51.841c-1.173,0-1.479.2-1.479,1.275,0,.357.153,5.967.153,8.925v15.708c0,2.958-.153,8.568-.153,8.925,0,1.071.306,1.275,1.479,1.275ZM79.229-5.763c-1.275,0-1.53-.255-1.53-1.53V-15.4c0-1.275.255-1.53,1.53-1.53h2.55c2.4,0,7.038.1,7.4.1,1.071,0,1.275-.306,1.275-1.479v-2.5c0-1.173-.2-1.479-1.275-1.479-.357,0-5,.1-7.4.1h-2.55c-1.275,0-1.53-.255-1.53-1.53v-5.814c0-1.275.255-1.53,1.53-1.53H82.85c2.448,0,7.038.153,7.4.153,1.071,0,1.275-.306,1.275-1.479v-2.754c0-1.173-.2-1.479-1.275-1.479-.357,0-4.947.1-7.4.1H79.993c-2.4,0-6.426-.1-6.783-.1-1.122,0-1.428.408-1.428,1.632.051,2.6.1,6.018.1,8.517v16.014c0,2.448-.051,5.661-.1,8.517,0,1.224.306,1.632,1.428,1.632.357,0,4.386-.1,6.783-.1h3.927c2.448,0,7.038.1,7.4.1,1.071,0,1.275-.306,1.275-1.479V-4.437c0-1.173-.2-1.479-1.275-1.479-.357,0-4.947.153-7.4.153Z" transform="translate(642 4789)" fill="#009f39" stroke="#009f39" stroke-linecap="round" stroke-width="0.4"/>
    </g>
  </g>
</svg>
