<svg xmlns="http://www.w3.org/2000/svg" width="603.998" height="205.025" viewBox="0 0 603.998 205.025">
  <g id="movie_balloon" transform="translate(-514.383 -8858.468)">
    <path id="パス_3420" data-name="パス 3420" d="M3133.363,14151.716a1.5,1.5,0,0,1-1.293-2.261,26.652,26.652,0,0,0,3.836-9.992,9.979,9.979,0,0,0-1.455-6.92,14.637,14.637,0,0,0-5.933-4.822,42.2,42.2,0,0,0-10.492-3.264c-8.1-1.565-18.794-2.175-32.694-1.85-12.139.281-26.851,1.284-44.975,3.068-17.7,1.743-37.017,4.07-53.576,6.116-14.887,1.84-28.73,3.668-42.116,5.435-35.384,4.672-65.943,8.706-93.058,9.811a287.552,287.552,0,0,1-38.761-.778,191.877,191.877,0,0,1-36.06-6.747c-9.947-2.9-18.268-6.9-24.734-11.917a43.961,43.961,0,0,1-12.73-15.267,41.666,41.666,0,0,1-3.887-12.812,47.994,47.994,0,0,1-.185-11.182,45.138,45.138,0,0,1,2.373-11.01,1.5,1.5,0,1,1,2.8,1.088,43.162,43.162,0,0,0-2.194,10.323,44.96,44.96,0,0,0,.194,10.456,38.657,38.657,0,0,0,3.61,11.841,41.017,41.017,0,0,0,11.881,14.206c6.163,4.773,14.142,8.605,23.715,11.392a188.952,188.952,0,0,0,35.5,6.642,284.02,284.02,0,0,0,38.358.767c26.979-1.1,57.475-5.125,92.787-9.786,13.393-1.769,27.241-3.6,42.141-5.437,16.577-2.049,35.914-4.379,53.65-6.125,18.2-1.791,32.984-2.8,45.2-3.082q3.575-.083,6.9-.083c25.428,0,39.731,3.653,44.8,11.371a13.026,13.026,0,0,1,1.926,8.918,24.787,24.787,0,0,1-2.22,7.341c13.228-6.1,18.7-12.9,23.174-18.449,3.811-4.73,7.1-8.815,13.754-10.618,6.872-1.862,16.931-1.126,32.616,2.388a168.2,168.2,0,0,0,33.891,3.658q1.3.016,2.6.017a209.528,209.528,0,0,0,33.535-2.7,168.76,168.76,0,0,0,16.943-3.655,121.726,121.726,0,0,0,15.14-5.151,76.557,76.557,0,0,0,12.541-6.588,43.27,43.27,0,0,0,9.16-7.921,24.335,24.335,0,0,0,5.682-11.61,25.02,25.02,0,0,0-1.818-13.747,1.5,1.5,0,1,1,2.779-1.131,27.965,27.965,0,0,1,2,15.385,27.282,27.282,0,0,1-6.349,13.041c-5,5.9-12.677,11.063-22.827,15.337a124.87,124.87,0,0,1-15.514,5.28,172.176,172.176,0,0,1-17.245,3.722,212.661,212.661,0,0,1-34.023,2.735q-1.323,0-2.639-.017c-6.136-.079-12.159-.431-17.9-1.045a149.021,149.021,0,0,1-16.607-2.686,133.6,133.6,0,0,0-19.545-3.173,35.738,35.738,0,0,0-11.63.753,16.707,16.707,0,0,0-6.805,3.616,45.646,45.646,0,0,0-5.4,5.988,61.5,61.5,0,0,1-28.249,21.019A1.511,1.511,0,0,1,3133.363,14151.716Z" transform="translate(-2220.629 -5088.223)" fill="#009f39"/>
    <path id="パス_3423" data-name="パス 3423" d="M3298.106,14290.688a1.5,1.5,0,0,1-1.447-1.9,43.433,43.433,0,0,0,.843-13.281,54.21,54.21,0,0,0-2.855-13.709,59.212,59.212,0,0,0-8.507-15.917c-9.848-13.233-25.653-24-46.976-32a238.733,238.733,0,0,0-44.307-11.395,448.772,448.772,0,0,0-62.1-5.441c-43.255-1.054-81.441.234-113.5,3.822-25.6,2.865-47.356,7.194-64.667,12.867a141.307,141.307,0,0,0-18.115,7.226,75.685,75.685,0,0,0-10.83,6.362c-4.92,3.55-6.446,5.961-6.46,5.984l-2.675-1.338a.722.722,0,0,0-.067.481c-.009-.024-1.053-2.5-14.073-4.682a250.825,250.825,0,0,0-27.078-2.629c-13.295-.705-29.56-.986-48.343-.827a201.582,201.582,0,0,0-45.961,5.34,130.87,130.87,0,0,0-32.995,12.621,91.89,91.89,0,0,0-11.839,7.856,69.023,69.023,0,0,0-8.844,8.248c-4.668,5.242-7.8,10.664-9.058,15.679a15.379,15.379,0,0,0-.008,8.479,9.2,9.2,0,0,0,4.469,5.336,1.5,1.5,0,1,1-1.437,2.633,12.276,12.276,0,0,1-5.879-7.025,15.466,15.466,0,0,1-.745-4.812,21.741,21.741,0,0,1,.69-5.34c1.375-5.482,4.739-11.342,9.728-16.944a71.938,71.938,0,0,1,9.228-8.609,94.853,94.853,0,0,1,12.227-8.116,133.867,133.867,0,0,1,33.751-12.92,204.693,204.693,0,0,1,46.648-5.425q5.138-.042,10.012-.043c28.221,0,49.633,1.072,63.75,3.194a67.439,67.439,0,0,1,13.382,3.1,12.828,12.828,0,0,1,4.074,2.274c3.273-3.555,12.6-11.449,35.513-18.959,17.505-5.736,39.464-10.108,65.267-13,24.945-2.792,53.577-4.2,85.388-4.2q13.865,0,28.519.355a451.654,451.654,0,0,1,62.579,5.491,241.622,241.622,0,0,1,44.89,11.564c21.872,8.219,38.125,19.343,48.306,33.064a62.142,62.142,0,0,1,8.928,16.79,57.181,57.181,0,0,1,2.976,14.5,45.346,45.346,0,0,1-.955,14.137A1.5,1.5,0,0,1,3298.106,14290.688Z" transform="translate(-2184.629 -5335.223)" fill="#009f39"/>
  </g>
</svg>
