<svg xmlns="http://www.w3.org/2000/svg" xmlns:xlink="http://www.w3.org/1999/xlink" width="1800" height="346" viewBox="0 0 1800 346">
  <defs>
    <clipPath id="clip-path">
      <path id="パス_2702" data-name="パス 2702" d="M258.367,38.022h.014l-.019-.014,0,.014M257,37.951c-.387.025-.844.125-1.362.186-.419.052-.867.168-1.356.254-.428.076-.908.036-1.379.147-.428.1-.833.378-1.289.514-.428.125-.877.226-1.322.386-.422.149-.869.272-1.3.455-.416.175-.852.338-1.27.547s-.757.517-1.161.752-.757.5-1.144.765-.837.4-1.2.686-.626.673-.972.986-.7.586-1.021.923-.555.721-.853,1.079-.678.626-.95,1.007c-.262.365-.48.774-.725,1.173-.239.382-.458.785-.679,1.2s-.444.795-.638,1.222c-.186.409-.368.834-.536,1.272-.163.42-.265.871-.409,1.318q-.209.642-.39,1.323c-.117.435-.207.885-.307,1.343-.095.441-.191.891-.269,1.354-.076.444-.242.887-.3,1.351-.055.447-.093.907-.133,1.375-.038.45.065.918.041,1.386-.022.45-.123.906-.133,1.373s.04.915.044,1.384c.006.452,0,.914.021,1.381s.1.912.13,1.38.054.877.1,1.345c.6.368.433-.128,1.277-.417.376-.128.811-.305,1.313-.492.4-.152.856-.266,1.324-.455.409-.164.79-.463,1.239-.659.411-.18.891-.253,1.329-.46.411-.191.848-.364,1.278-.578.409-.205.822-.428,1.243-.654.4-.217.762-.536,1.172-.773s.845-.4,1.247-.645.749-.558,1.142-.82.82-.455,1.2-.73.719-.6,1.09-.888.8-.5,1.163-.8.618-.716.961-1.038.681-.642,1-.98.66-.667.965-1.023.61-.713.891-1.087.509-.787.765-1.179.449-.819.676-1.23.622-.735.818-1.163.3-.895.461-1.337.226-.907.348-1.364.242-.9.321-1.367.163-.918.2-1.391.062-.928.06-1.405c0-.46.046-.936.006-1.411-.038-.458-.107-.929-.185-1.4-.073-.452-.269-.891-.379-1.358-.106-.449-.166-.918-.308-1.38-.133-.435-.327-.86-.493-1.307-.529-.022-.539-.087-.94-.087-.109,0-.245,0-.427.016" transform="translate(-235.94 -37.935)" fill="none"/>
    </clipPath>
    <clipPath id="clip-path-2">
      <path id="パス_2726" data-name="パス 2726" d="M247.649,40.3s20.832-.91,16.3-26.28c0,0-24.357,9.186-16.3,26.28" transform="translate(-246.017 -14.017)" fill="none"/>
    </clipPath>
    <clipPath id="clip-path-3">
      <path id="パス_2638" data-name="パス 2638" d="M144.061,90.614a34.309,34.309,0,0,0-11.223,4.546,49.945,49.945,0,0,0-9.553,7.514c-4.5,4.577-6.724,8.873-4.416,10.047a68.749,68.749,0,0,0,13.317,4.5,97.854,97.854,0,0,0,12.344,2.121,75.965,75.965,0,0,0,12.518.311,52.056,52.056,0,0,0,12.306-2.163,5.527,5.527,0,0,0,2.808-8.719,94.546,94.546,0,0,0-7.878-8.511,48.987,48.987,0,0,0-9.142-7.117,18.437,18.437,0,0,0-8.941-2.718,11.748,11.748,0,0,0-2.139.193" transform="translate(-117.946 -90.421)" fill="none"/>
    </clipPath>
    <clipPath id="clip-path-4">
      <path id="パス_2631" data-name="パス 2631" d="M72.322,26.266h0s19.7-.86,15.415-24.845c0,0-23.028,8.685-15.415,24.845" transform="translate(-70.779 -1.421)" fill="none"/>
    </clipPath>
    <clipPath id="clip-path-5">
      <path id="パス_2658" data-name="パス 2658" d="M51.4,31.24s20.342,16.9,31.388,1.2c0,0-5.239-8.344-14.952-8.344C63.3,24.1,57.8,25.915,51.4,31.24" transform="translate(-51.397 -24.1)" fill="none"/>
    </clipPath>
  </defs>
  <g id="secret_illust" transform="translate(0)">
    <path id="パス_2795" data-name="パス 2795" d="M.524,141.237c.225-1.24.8.091,2.01-.673.492-.311.688-1.77,1.407-2.176.544-.307,1.277-.316,1.961-.669.571-.3,1.2-.592,1.874-.915.587-.283,1.188-.683,1.856-.982.6-.269,1.347-.109,2.012-.388.607-.256,1.151-.878,1.814-1.143.613-.242,1.357-.056,2.02-.306.618-.234,1.21-.681,1.874-.919.623-.223,1.368.033,2.033-.193.627-.213,1.118-1.182,1.782-1.4.63-.2,1.416.309,2.081.105.633-.195,1.13-1.21,1.795-1.405.636-.188,1.3-.309,1.968-.5.638-.179,1.368.091,2.034-.086.641-.172,1.36.072,2.026-.1.644-.163,1.13-1.412,1.8-1.575.645-.158,1.451.7,2.118.541.647-.151,1.23-.815,1.9-.964.648-.144,1.241-.792,1.908-.934.649-.139,1.445.789,2.114.653.651-.133,1.256-.7,1.925-.827.651-.128,1.255-.743,1.923-.868.652-.121,1.353.095,2.023-.025.652-.116,1.372.309,2.041.195s1.28-.576,1.95-.685c.655-.105,1.379.443,2.049.337s1.3-.374,1.97-.474,1.277-.648,1.948-.743c.656-.093,1.369.416,2.041.327s1.277-.7,1.948-.789,1.314-.278,1.984-.358,1.364.4,2.035.325c.656-.076,1.255-1.082,1.923-1.154s1.313-.314,1.981-.383,1.32-.232,1.99-.3,1.373.71,2.045.648,1.339.158,2.01.1,1.278-1.045,1.95-1.1,1.361.581,2.033.53,1.342.188,2.013.141,1.291-1.04,1.962-1.084,1.346.283,2.019.241,1.309-.752,1.981-.79,1.378,1.238,2.05,1.2,1.32-.481,1.992-.513,1.311-.813,1.984-.843,1.339.346,2.009.32,1.342.534,2.013.511,1.318-.631,1.99-.65,1.326-.422,2-.439,1.349.868,2.02.854,1.325-.815,2-.829,1.346.975,2.02.964,1.335-.088,2.008-.095,1.328-.792,2-.8,1.338.943,2.009.94,1.336-.6,2.01-.6,1.338.536,2.012.537,1.335.016,2.008.021,1.34-.007,2.016,0,1.344-.509,2.02-.5c.655.009,1.31.409,1.972.42s1.317-.174,1.979-.162,1.324-.613,1.986-.6,1.306.76,1.968.776,1.326-.616,1.988-.6,1.3.954,1.962.973,1.335-.959,2-.938,1.309.469,1.97.492,1.307.418,1.97.441,1.335-.766,2-.741,1.314.17,1.976.2,1.325-.256,1.988-.227,1.313.216,1.976.246,1.307.39,1.97.422,1.317.053,1.98.086,1.3.581,1.963.615,1.349-.9,2.01-.861,1.306.437,1.969.474,1.3.66,1.959.7,1.351-1.022,2.01-.982,1.271,1.166,1.932,1.208,1.338-.578,2-.536,1.286.729,1.947.773,1.321-.118,1.981-.072,1.295.5,1.955.544,1.32-.04,1.98.007,1.357-.868,2.017-.82,1.274.98,1.934,1.031,1.307.267,1.968.318,1.311.176,1.972.228,1.344-.485,2.006-.432,1.315.109,1.976.165,1.355-.641,2.017-.585,1.275.882,1.937.938,1.3.429,1.961.486,1.347-.455,2.009-.4,1.293.553,1.954.613,1.307.29,1.969.351,1.315.163,1.977.227,1.365-.669,2.027-.606,1.248,1.186,1.907,1.251,1.387-1.063,2.046-1,1.289.532,1.95.6,1.354-.5,2.015-.432,1.237,1.361,1.9,1.43,1.34-.235,2-.165,1.354-.429,2.016-.358,1.3.434,1.959.506,1.273.8,1.934.873,1.333-.091,2-.016,1.365-.5,2.027-.429,1.266.822,1.926.9,1.288.537,1.948.615,1.343-.207,2-.128,1.358-.374,2.02-.3,1.333-.033,2,.047,1.267.89,1.929.971,1.335-.068,2,.014,1.291.546,1.954.631,1.376-.52,2.041-.436,1.314.269,1.977.355,1.273.876,1.94.962,1.384-.585,2.045-.5,1.257.971,1.918,1.059,1.394-.655,2.055-.566,1.342-.037,2,.056,1.233,1.221,1.892,1.316,1.413-.827,2.073-.731,1.288.581,1.947.68,1.318.235,1.977.336,1.36-.211,2.019-.111,1.3.388,1.963.492,1.293.494,1.952.6,1.279.615,1.939.72,1.367-.255,2.024-.148,1.288.529,1.945.637,1.411-.655,2.068-.544,1.339.051,2,.163,1.2,1.359,1.854,1.474,1.3.4,1.957.518,1.391-.441,2.049-.323,1.271.641,1.929.761,1.436-.8,2.092-.681,1.2,1.243,1.858,1.366,1.314.262,1.97.386,1.284.518,1.939.646,1.3.407,1.952.536,1.317.232,1.972.362,1.384-.3,2.039-.17,1.284.5,1.939.638,1.423-.6,2.078-.465,1.184,1.279,1.838,1.416,1.362-.107,2.017.032,1.42-.543,2.075-.4,1.168,1.347,1.822,1.491,1.318.228,1.972.372,1.437-.636,2.091-.49,1.234.845,1.887.992,1.2,1.092,1.849,1.243,1.342.063,1.994.214,1.36-.054,2.012.1,1.386-.223,2.038-.068,1.2,1.056,1.847,1.214,1.436-.537,2.086-.379,1.26.625,1.911.787,1.315.265,1.965.429,1.237.768,1.887.933,1.325.193,1.975.358,1.344.086,1.994.253,1.29.418,1.94.588,1.375-.1,2.023.072,1.162,1.2,1.81,1.372,1.443-.494,2.09-.318,1.192,1,1.84,1.177,1.267.546,1.914.725,1.3.367,1.945.548,1.34.116,1.988.3,1.19.971,1.836,1.157,1.282.45,1.929.636,1.527-.91,2.172-.722,1.115,1.375,1.76,1.567,1.448-.453,2.093-.262,1.343.128,1.988.323,1.268.53,1.912.727,1.1,1.428,1.741,1.626,1.4-.167,2.042.033,1.4-.148,2.041.054,1.143,1.164,1.786,1.368,1.382-.063,2.024.142,1.2.864,1.842,1.071,1.187.913,1.828,1.124,1.548-.859,2.189-.646,1.245.631,1.886.843,1.05,1.565,1.69,1.779,1.373,0,2.013.221,1.288.414,1.927.634,1.448-.335,2.088-.114,1.266.527,1.9.75,1.183.9,1.82,1.128,1.152,1.033,1.791,1.259,1.488-.488,2.125-.26,1.184.906,1.823,1.138,1.4-.074,2.042.16,1.04,1.525,1.679,1.76,1.267.523,1.9.76,1.325.272,1.962.511,1.34.211,1.976.453,1.248.609,1.883.852,1.38.051,2.015.3,1.387.033,2.022.281,1,1.614,1.636,1.863,1.365.125,2,.378,1.263.539,1.9.792,1.364.135,2,.39,1.36.158,1.991.416,1.154.968,1.785,1.228,1.335.262,1.965.523,1.136,1.034,1.765,1.3,1.466-.239,2.095.026,1.191.82,1.818,1.087,1.308.371,1.937.639,1.09,1.186,1.716,1.458,1.317.339,1.943.615,1.04,1.351,1.666,1.628,1.259.541,1.885.82,1.608-.713,2.233-.434,1.016,1.423,1.639,1.705,1.173.854,1.8,1.138,1.369.158,1.991.446,1.234.634,1.856.922,1.252.574,1.872.866,1.186.8,1.806,1.094,1.162.875,1.781,1.17,1.516-.32,2.135-.021,1.256.562,1.874.862,1.11,1.043,1.727,1.345,1.452-.083,2.068.221.989,1.43,1.606,1.735,1.2.746,1.811,1.056,1.548-.376,2.162-.067.946,1.546,1.56,1.858,1.343.283,1.955.6,1.322.355,1.933.673,1.219.678,1.829,1,1.259.553,1.869.875,1.271.515,1.88.838,1,1.338,1.608,1.663,1.405.116,2.012.444,1.288.469,1.894.8.9,1.6,1.509,1.937,1.349.286,1.954.622,1.44.033,2.042.371.926,1.517,1.528,1.858,1.093,1.022,1.7,1.365,1.249.578,1.85.922,1.48-.063,2.079.283,1.237.624,1.835.971.934,1.456,1.531,1.807,1.29.472,1.886.826,1.188.752,1.784,1.108,1.256.569,1.849.927,1.2.725,1.791,1.087,1.335.364,1.926.727,1.11.961,1.7,1.326,1.237.627,1.827,1,.993,1.254,1.581,1.625,1.546-.155,2.132.22.843,1.633,1.429,2.009,1.2.736,1.78,1.115,1.473.053,2.056.434,1.216.694,1.8,1.078.935,1.389,1.519,1.777,1.163.829,1.745,1.219,1.125.92,1.7,1.314,1.391.286,1.969.681,1.3.506,1.876.9.667,1.978,1.241,2.378,1.538-.042,2.11.36.84,1.556,1.408,1.962c.585.416,1.291.532,1.857.94.584.422,1.237.66,1.8,1.071.583.425,1.034,1.115,1.6,1.528.583.429,1.141.88,1.7,1.3.582.432,1.354.422,1.914.841.58.437,1.335.474,1.89.9.58.443.706,1.809,1.259,2.236.579.446,1.415.316,1.963.745.579.451.908,1.372,1.452,1.8.578.457,1.271.629,1.811,1.061.579.464,1.105.977,1.642,1.41.583.472,1.194.822,1.724,1.261.584.481,1.119.977,1.641,1.414.589.494,1.1,1.033,1.607,1.466.6.511,1.368.562,1.857.987.634.552,1.159,1.068,1.606,1.467,1.065.952,3.009,1.3,3.253,2.509a3.016,3.016,0,0,0,1.776,2.578,4.08,4.08,0,0,1,1.7,2.332H.2s.144-2.029.144-3.3.041-1.266.041-2.533S.294,261.662.294,260.4s.12-1.266.12-2.534S.377,256.6.377,255.33s-.1-1.266-.1-2.531.618-1.266.618-2.531S.305,249,.305,247.736s.489-1.266.489-2.533.1-1.266.1-2.533S.9,241.4.9,240.135s.236-1.266.236-2.533-.524-1.266-.524-2.533.195-1.265.195-2.531S.269,231.272.269,230s.508-1.261.508-2.522.054-1.263.054-2.524S.772,223.7.772,222.432,0,221.168,0,219.9s.415-1.265.415-2.531-.057-1.27-.057-2.538.082-1.266.082-2.533.507-1.265.507-2.531-.3-1.263-.3-2.527.444-1.265.444-2.529-.206-1.266-.206-2.531-.4-1.268-.4-2.536.307-1.268.307-2.536-.178-1.268-.178-2.534-.452-1.266-.452-2.533.645-1.266.645-2.533S1,188.242,1,186.974s-.12-1.268-.12-2.538S.676,183.17.676,181.9s-.012-1.268-.012-2.536-.358-1.27-.358-2.54.645-1.268.645-2.536-.392-1.27-.392-2.54-.175-1.27-.175-2.54.169-1.27.169-2.54.524-1.266.524-2.534S.561,162.87.561,161.6s-.5-1.272-.5-2.541.187-1.27.187-2.538.877-1.272.877-2.541-.2-1.272-.2-2.545.21-1.27.21-2.54-.4-1.273-.4-2.547.419-1.335.329-2.6c-.093-1.3-.757-1.268-.531-2.51" transform="translate(1122.44 76.99)" fill="#45b035"/>
    <g id="グループ_3543" data-name="グループ 3543" transform="translate(126.293 -8213)">
      <path id="パス_2795-2" data-name="パス 2795" d="M.614,141.252c.264-1.241.936.091,2.357-.673.577-.311.807-1.772,1.649-2.178.638-.308,1.5-.316,2.3-.67.669-.3,1.409-.592,2.2-.916.688-.283,1.393-.684,2.175-.982.7-.269,1.579-.109,2.359-.388.711-.257,1.349-.879,2.127-1.144.719-.243,1.591-.056,2.368-.306.724-.234,1.419-.682,2.2-.919.731-.223,1.6.033,2.383-.193.735-.213,1.31-1.183,2.09-1.4.739-.2,1.66.309,2.44.105.742-.2,1.325-1.211,2.1-1.406.745-.188,1.526-.309,2.307-.5.748-.179,1.6.091,2.384-.086.752-.172,1.594.072,2.375-.1.755-.163,1.325-1.413,2.107-1.577.756-.158,1.7.7,2.483.541.758-.151,1.442-.816,2.224-.965.76-.144,1.455-.793,2.237-.935.761-.139,1.694.789,2.478.654.763-.134,1.472-.7,2.256-.828.763-.128,1.471-.743,2.255-.868.765-.121,1.586.095,2.371-.025.765-.116,1.609.309,2.393.2.768-.111,1.5-.577,2.286-.685.768-.105,1.617.443,2.4.337.769-.1,1.524-.374,2.31-.475.769-.1,1.5-.649,2.284-.743.769-.093,1.605.417,2.393.327.771-.088,1.5-.7,2.284-.789.771-.084,1.54-.278,2.326-.359s1.6.4,2.386.325c.769-.076,1.471-1.083,2.255-1.155s1.539-.315,2.323-.383,1.547-.232,2.333-.3,1.61.71,2.4.649,1.57.158,2.357.1,1.5-1.046,2.286-1.1,1.6.582,2.383.531,1.573.188,2.36.141,1.513-1.041,2.3-1.084,1.578.283,2.367.241,1.534-.752,2.323-.791,1.615,1.239,2.4,1.2,1.547-.482,2.336-.513,1.537-.814,2.326-.844,1.57.346,2.355.32,1.573.534,2.36.511,1.545-.631,2.333-.65,1.555-.422,2.342-.439,1.581.868,2.368.854,1.553-.816,2.344-.83,1.578.975,2.368.965,1.565-.088,2.354-.095,1.557-.793,2.344-.8,1.568.944,2.355.94,1.566-.6,2.357-.6,1.568.536,2.359.538,1.565.016,2.354.021,1.571-.007,2.363,0,1.576-.51,2.368-.5c.768.009,1.536.41,2.312.42s1.544-.174,2.32-.162,1.552-.613,2.328-.6,1.531.761,2.307.777,1.555-.617,2.331-.6,1.524.954,2.3.974,1.565-.96,2.341-.939,1.534.469,2.31.492,1.532.418,2.31.441,1.565-.766,2.342-.742,1.54.17,2.316.2,1.553-.257,2.331-.227,1.539.216,2.316.246,1.532.39,2.31.422,1.544.053,2.321.086,1.524.582,2.3.615,1.581-.9,2.357-.861,1.531.438,2.308.475,1.519.661,2.3.7,1.584-1.023,2.357-.982,1.49,1.167,2.265,1.209,1.568-.578,2.342-.536,1.508.729,2.282.773,1.549-.118,2.323-.072,1.518.5,2.292.545,1.547-.04,2.321.007,1.591-.868,2.365-.821,1.493.981,2.268,1.032,1.532.267,2.307.318,1.537.176,2.312.229,1.576-.485,2.352-.432,1.542.109,2.316.165,1.589-.642,2.365-.585,1.5.882,2.271.939,1.523.429,2.3.487,1.579-.455,2.355-.4,1.516.554,2.29.613,1.532.29,2.308.352,1.542.163,2.318.227,1.6-.67,2.376-.606,1.463,1.186,2.235,1.251,1.626-1.063,2.4-1,1.511.533,2.286.6,1.587-.5,2.362-.432,1.45,1.362,2.224,1.431,1.571-.236,2.346-.165,1.587-.429,2.363-.359,1.521.434,2.3.506,1.492.8,2.268.874,1.563-.091,2.339-.016,1.6-.5,2.376-.429,1.484.823,2.258.9,1.51.538,2.284.615,1.574-.207,2.349-.128,1.592-.374,2.368-.3,1.563-.033,2.339.047,1.485.891,2.261.972,1.565-.069,2.341.014,1.513.547,2.29.631,1.613-.52,2.392-.436,1.54.269,2.318.355,1.492.877,2.274.963,1.623-.585,2.4-.5,1.474.972,2.248,1.06,1.634-.656,2.409-.566,1.573-.037,2.347.056,1.445,1.222,2.218,1.316,1.657-.828,2.43-.731,1.51.582,2.282.68,1.545.236,2.318.336,1.594-.211,2.367-.111,1.529.388,2.3.492,1.516.494,2.289.6,1.5.615,2.273.721,1.6-.255,2.373-.148,1.51.529,2.281.638,1.654-.656,2.425-.545,1.57.051,2.341.163,1.4,1.36,2.174,1.475,1.523.4,2.294.519,1.631-.441,2.4-.323,1.49.642,2.261.761,1.683-.8,2.452-.682,1.409,1.244,2.179,1.367,1.54.262,2.31.387,1.5.518,2.273.647,1.519.408,2.289.536,1.544.232,2.312.362,1.623-.3,2.391-.17,1.5.5,2.273.638,1.668-.6,2.436-.466,1.388,1.28,2.154,1.417,1.6-.107,2.365.032,1.665-.543,2.433-.4,1.369,1.348,2.137,1.492,1.545.229,2.312.373,1.685-.636,2.451-.49,1.447.845,2.213.993,1.4,1.093,2.167,1.244,1.573.063,2.337.214,1.594-.054,2.359.1,1.625-.223,2.389-.069,1.4,1.056,2.166,1.215,1.683-.538,2.446-.38,1.477.626,2.24.787,1.542.265,2.3.429,1.45.768,2.213.933,1.553.193,2.315.359,1.576.086,2.337.253,1.513.418,2.274.589,1.612-.1,2.371.072,1.362,1.2,2.122,1.373,1.691-.494,2.451-.318,1.4,1,2.158,1.178,1.485.547,2.244.726,1.521.367,2.281.548,1.571.116,2.331.3,1.395.972,2.153,1.158,1.5.45,2.261.636,1.79-.91,2.546-.722,1.307,1.376,2.064,1.568,1.7-.453,2.454-.262,1.574.128,2.331.323,1.487.531,2.242.728,1.286,1.429,2.041,1.628,1.641-.167,2.394.033,1.639-.148,2.393.054,1.34,1.165,2.094,1.369,1.62-.063,2.373.142,1.406.865,2.159,1.072,1.391.914,2.143,1.125,1.814-.859,2.566-.647,1.459.631,2.211.844,1.231,1.566,1.981,1.78,1.61,0,2.36.221,1.51.415,2.26.634,1.7-.336,2.448-.114,1.484.527,2.232.751,1.387.9,2.133,1.128,1.351,1.033,2.1,1.26,1.745-.489,2.491-.26,1.388.907,2.137,1.139,1.646-.074,2.394.16,1.22,1.526,1.968,1.761,1.485.524,2.232.761,1.553.272,2.3.511,1.571.211,2.316.453,1.463.61,2.208.852,1.618.051,2.362.3,1.626.033,2.37.281,1.176,1.615,1.918,1.865,1.6.125,2.342.378,1.481.54,2.222.793,1.6.135,2.341.39,1.594.158,2.334.417,1.353.968,2.093,1.229,1.565.262,2.3.524,1.332,1.035,2.069,1.3,1.719-.239,2.456.026,1.4.821,2.132,1.088,1.534.371,2.271.64,1.278,1.186,2.012,1.459,1.544.339,2.278.615,1.22,1.352,1.953,1.629,1.476.541,2.209.821,1.886-.714,2.618-.434,1.191,1.424,1.921,1.707,1.375.854,2.106,1.139,1.605.158,2.334.446,1.447.635,2.175.923,1.468.575,2.195.867,1.39.8,2.117,1.1,1.362.875,2.088,1.171,1.777-.32,2.5-.021,1.472.562,2.2.863,1.3,1.044,2.025,1.346,1.7-.083,2.425.221,1.16,1.431,1.882,1.736,1.4.747,2.124,1.056,1.814-.376,2.535-.067,1.109,1.547,1.829,1.86,1.575.283,2.292.6,1.55.355,2.266.673,1.429.678,2.145,1,1.476.554,2.192.875,1.49.515,2.2.838,1.173,1.339,1.886,1.664,1.647.116,2.358.445,1.51.469,2.221.8,1.059,1.6,1.769,1.939,1.581.286,2.29.622,1.688.033,2.394.371,1.085,1.519,1.792,1.86,1.281,1.023,1.987,1.366,1.464.578,2.169.923,1.735-.063,2.438.283,1.45.624,2.151.972,1.1,1.457,1.795,1.809,1.513.473,2.211.826,1.393.752,2.091,1.109,1.472.569,2.167.928,1.4.726,2.1,1.088,1.565.364,2.258.728,1.3.961,1.992,1.327,1.45.627,2.141,1,1.165,1.255,1.853,1.626,1.813-.155,2.5.22.988,1.635,1.675,2.011,1.4.736,2.086,1.116,1.727.053,2.41.434,1.425.694,2.107,1.079c.7.392,1.1,1.39,1.78,1.779s1.364.83,2.046,1.22,1.319.921,2,1.315,1.631.286,2.308.682,1.526.506,2.2.905c.69.406.782,1.979,1.455,2.38.688.41,1.8-.042,2.473.36s.985,1.557,1.651,1.963c.685.417,1.513.533,2.177.94.685.422,1.45.661,2.112,1.072.684.425,1.212,1.116,1.871,1.529.684.429,1.338.881,2,1.3.682.432,1.587.422,2.243.842.68.438,1.565.475,2.216.9.68.443.828,1.81,1.476,2.237.679.446,1.659.316,2.3.745.679.452,1.064,1.373,1.7,1.8.677.457,1.49.629,2.124,1.062.679.464,1.3.977,1.924,1.411.684.473,1.4.822,2.022,1.262.685.482,1.312.977,1.924,1.415.69.494,1.286,1.033,1.884,1.468.7.511,1.6.562,2.177.988.744.552,1.359,1.069,1.882,1.468,1.249.953,3.527,1.3,3.814,2.511a3.073,3.073,0,0,0,2.082,2.579,4.126,4.126,0,0,1,1.989,2.333H.23s.168-2.031.168-3.3.049-1.267.049-2.534-.1-1.269-.1-2.536.141-1.267.141-2.536S.442,256.7.442,255.428.321,254.161.321,252.9s.724-1.267.724-2.533S.358,249.1.358,247.828s.573-1.267.573-2.534.118-1.267.118-2.534.006-1.269.006-2.538.277-1.267.277-2.534-.614-1.267-.614-2.534.228-1.265.228-2.533-.632-1.267-.632-2.536.6-1.262.6-2.524.063-1.264.063-2.526-.07-1.264-.07-2.527S0,221.241,0,219.975s.486-1.266.486-2.533S.42,216.172.42,214.9s.1-1.267.1-2.534.594-1.265.594-2.533-.353-1.264-.353-2.529.52-1.266.52-2.531-.241-1.267-.241-2.533S.572,200.974.572,199.7s.36-1.269.36-2.538S.722,195.9.722,194.631s-.53-1.267-.53-2.535.756-1.267.756-2.534.227-1.271.227-2.54-.141-1.269-.141-2.54-.243-1.267-.243-2.536-.015-1.269-.015-2.538-.42-1.271-.42-2.542.756-1.269.756-2.538-.46-1.271-.46-2.541-.206-1.271-.206-2.541.2-1.271.2-2.542.614-1.267.614-2.536-.6-1.267-.6-2.534-.591-1.273-.591-2.543.219-1.271.219-2.54,1.029-1.273,1.029-2.543-.235-1.273-.235-2.547.246-1.271.246-2.541S.85,147.645.85,146.37s.491-1.336.386-2.607c-.109-1.3-.888-1.269-.622-2.512" transform="translate(996.614 8290.132)" fill="#45b035"/>
      <g id="グループ_2454" data-name="グループ 2454" transform="translate(628.029 8213.001)">
        <path id="パス_2663" data-name="パス 2663" d="M31.011,212.989c.673-1.067,1.234.1,2.838-.332.676-.182,1.42-.659,2.368-.91.733-.2,1.506-.571,2.4-.808.758-.2,1.607-.281,2.476-.51.769-.2,1.536-.588,2.391-.812.776-.205,1.6-.371,2.446-.593.784-.205,1.784.307,2.624.087.788-.205,1.523-.711,2.36-.929.79-.205,1.613-.376,2.447-.593.795-.205,1.452-1.018,2.285-1.234.8-.205,1.638-.3,2.47-.518.8-.205,1.569-.585,2.4-.8.8-.205,1.8.324,2.632.111.8-.205,1.676-.179,2.5-.39.8-.205,1.615-.424,2.443-.634.8-.205,1.471-1,2.3-1.209.806-.205,1.537-.746,2.364-.956.806-.2,1.751.1,2.577-.111.807-.2,1.605-.484,2.432-.692.807-.2,1.6-.5,2.428-.7.807-.2,1.694-.133,2.52-.34.809-.2,1.694-.133,2.52-.34.809-.2,1.417-1.247,2.242-1.452s1.732.011,2.556-.193,1.61-.477,2.435-.683,1.545-.738,2.37-.942,1.727,0,2.552-.205,1.531-.8,2.356-1,1.694-.141,2.517-.343,1.6-.514,2.425-.716,1.687-.171,2.511-.371,1.754.106,2.577-.093,1.517-.869,2.34-1.07,1.637-.376,2.46-.575,1.7-.095,2.528-.292,1.484-1.015,2.307-1.212,1.648-.332,2.471-.529,1.7-.133,2.518-.33,1.681-.2,2.5-.394,1.563-.694,2.384-.89,1.637-.381,2.46-.577,1.676-.213,2.5-.408,1.586-.6,2.409-.795,1.621-.444,2.444-.638,1.752.106,2.575-.087,1.506-.909,2.326-1.1,1.7-.071,2.523-.262,1.514-.887,2.334-1.078,1.736.071,2.556-.12,1.714-.022,2.534-.213,1.509-.918,2.329-1.108,1.781.262,2.6.073,1.589-.566,2.411-.755,1.635-.37,2.457-.558,1.667-.229,2.488-.417,1.515-.9,2.335-1.087,1.649-.319,2.469-.506,1.563-.7,2.384-.888,1.615-.466,2.438-.651,1.762.183,2.583,0,1.575-.65,2.4-.834,1.623-.436,2.446-.62,1.759.172,2.58-.011,1.564-.7,2.387-.887,1.681-.175,2.5-.359,1.684-.163,2.507-.345,1.57-.681,2.394-.861,1.657-.288,2.481-.468,1.713-.033,2.536-.213,1.509-.966,2.332-1.146,1.589-.605,2.413-.786,1.71-.047,2.534-.226,1.559-.746,2.383-.925,1.656-.3,2.481-.479,1.672-.221,2.5-.4,1.621-.463,2.446-.639,1.831.525,2.656.349,1.468-1.184,2.293-1.359,1.785.308,2.61.134,1.653-.314,2.477-.488,1.582-.664,2.406-.836,1.553-.793,2.378-.966,1.691-.142,2.515-.315,1.743.114,2.569-.058,1.635-.384,2.458-.555,1.6-.577,2.421-.748,1.755.2,2.58.027,1.607-.528,2.432-.7,1.563-.754,2.387-.921,1.771.278,2.6.111,1.477-1.179,2.3-1.347,1.631-.425,2.457-.591,1.744.149,2.571-.017,1.645-.351,2.471-.517,1.727.06,2.553-.1,1.668-.237,2.495-.4,1.534-.921,2.36-1.084,1.7-.049,2.531-.212,1.62-.493,2.447-.654,1.631-.436,2.457-.6,1.727.058,2.553-.1,1.7-.1,2.525-.256,1.657-.3,2.485-.457,1.555-.838,2.383-1,1.58-.713,2.408-.871,1.776.324,2.6.168,1.607-.577,2.435-.733,1.708-.041,2.536-.2,1.6-.615,2.43-.768,1.661-.286,2.49-.439,1.649-.349,2.479-.5,1.717.017,2.547-.134,1.634-.439,2.463-.591,1.71-.028,2.539-.179,1.586-.708,2.416-.858,1.608-.586,2.439-.736,1.8.512,2.634.365,1.523-1.075,2.354-1.222,1.792.449,2.623.3,1.657-.318,2.487-.463,1.593-.691,2.424-.834,1.654-.345,2.485-.487,1.615-.572,2.446-.714,1.648-.378,2.479-.518,1.781.4,2.612.254,1.619-.545,2.452-.684,1.591-.719,2.424-.858,1.77.349,2.6.212,1.668-.256,2.5-.392,1.725.093,2.558-.043,1.509-1.238,2.342-1.373,1.8.566,2.635.433,1.6-.708,2.428-.842,1.73.125,2.563-.006,1.694-.1,2.528-.229,1.593-.76,2.427-.89,1.725.093,2.561-.035,1.585-.828,2.419-.956,1.667-.3,2.5-.424,1.785.5,2.621.378,1.619-.612,2.455-.737,1.629-.547,2.465-.67,1.662-.33,2.5-.452,1.642-.468,2.479-.59,1.665-.308,2.5-.428,1.762.36,2.6.242,1.668-.291,2.5-.408,1.672-.266,2.509-.382,1.664-.315,2.5-.43,1.721.1,2.558-.014,1.638-.51,2.476-.623,1.635-.55,2.471-.661,1.785.594,2.623.485,1.608-.751,2.446-.858,1.624-.643,2.462-.749,1.784.62,2.621.515,1.7-.058,2.536-.161,1.563-1.162,2.4-1.264,1.757.441,2.6.341,1.7.019,2.542-.079,1.585-1.027,2.422-1.124,1.765.547,2.6.452,1.615-.768,2.454-.863,1.773.646,2.612.555,1.566-1.245,2.4-1.335,1.77.65,2.609.561,1.681-.171,2.52-.258,1.645-.534,2.484-.618,1.651-.474,2.49-.558,1.727.288,2.564.207,1.65-.52,2.487-.6,1.691-.079,2.53-.155,1.668-.322,2.507-.4,1.7.095,2.542.022,1.661-.417,2.5-.488,1.689-.063,2.528-.131,1.728.424,2.567.359,1.665-.359,2.5-.422,1.684-.117,2.523-.179,1.664-.389,2.5-.449,1.667-.367,2.506-.424,1.741.787,2.58.732,1.634-.9,2.471-.953,1.738.806,2.575.757,1.64-.86,2.477-.906,1.689,0,2.526-.046,1.711.485,2.55.444,1.675-.21,2.512-.247,1.665-.67,2.506-.7,1.691-.043,2.531-.073,1.7.43,2.545.4,1.689.028,2.528,0,1.686-.051,2.525-.071,1.676-.4,2.515-.422,1.676-.492,2.515-.506,1.686,0,2.523-.008,1.687.273,2.523.267,1.684.465,2.52.463,1.687.028,2.526.03,1.69-.724,2.528-.716,1.68.416,2.515.427,1.672.419,2.506.435,1.692-.61,2.525-.59,1.673.356,2.507.381,1.673.111,2.5.141,2.048-.122,2.879-.085c.39,1.209-.3,1.391-.3,2.66s.161,1.271.161,2.541.144,1.272.144,2.543-.409,1.274-.409,2.546-.258,1.272-.258,2.543.224,1.272.224,2.543-.27,1.271-.27,2.541.084,1.271.084,2.541.485,1.269.485,2.54-.433,1.269-.433,2.54-.131,1.269-.131,2.538.381,1.271.381,2.54.147,1.271.147,2.54.3,1.271.3,2.541-.716,1.271-.716,2.543.433,1.271.433,2.543.183,1.272.183,2.546-.507,1.272-.507,2.545.122,1.272.122,2.543.262,1.272.262,2.543-.744,1.271-.744,2.541.2,1.271.2,2.541.411,1.271.411,2.541-.54,1.272-.54,2.543.75,1.271.75,2.543-.065,1.272-.065,2.545-.548,1.272-.548,2.546.733,1.272.733,2.546-.359,1.271-.359,2.543-.445,1.272-.445,2.543.318,1.272.318,2.543.071,1.272.071,2.543-.079,1.272-.079,2.545.047,1.274.047,2.546.163,1.274.163,2.546.128,1.272.128,2.546-.763,1.271-.763,2.543.071,1.272.071,2.545.06,1.272.06,2.545.248,1.274.248,2.548.547,1.272.547,2.546-.521,1.272-.521,2.545.24,1.272.24,2.546-.308,1.271-.308,2.543.45,1.274.45,2.548.081,1.271.081,2.543-.558,1.271-.558,2.541-.07,1.269-.07,2.538-.03,1.271-.03,2.54.242,1.271.242,2.543-.093,1.272-.093,2.545.444,1.274.444,2.549-.736,1.272-.736,2.545.482,1.271.482,2.543.049,1.272.049,2.543-.232,1.275-.232,2.549.49,1.274.49,2.548a4.793,4.793,0,0,1-.589,2.25H10.623a8.978,8.978,0,0,1,.468-2.246c.417-1.2.777-1.079,1.194-2.284s.528-1.168.946-2.375.7-1.1,1.117-2.311-.465-1.508-.047-2.712,1.125-.959,1.542-2.164.209-1.279.626-2.484.156-1.3.574-2.5.8-1.073,1.217-2.277-.186-1.414.232-2.62.964-1.018,1.382-2.225-.141-1.4.276-2.6.75-1.092,1.169-2.3.333-1.236.75-2.442.589-1.149,1.008-2.356.126-1.305.542-2.51.33-1.234.747-2.439.722-1.1,1.139-2.311,0-1.351.417-2.557.526-1.171.943-2.38.476-1.189.893-2.4.555-1.16.973-2.368.381-1.223.8-2.434a9.117,9.117,0,0,0,.589-2.429,4.756,4.756,0,0,1,.89-2.6" transform="translate(-10.623 72.683)" fill="#45b035"/>
        <g id="グループ_2442" data-name="グループ 2442" transform="translate(312.613 0)">
          <path id="パス_2662" data-name="パス 2662" d="M236.075,68.334l8.339-3.155,6.666-5.241,5.626-6.052,2.563-7.684-.713-8.226-.014.362-8.518.675-7.29,4.683-4.884,7.133-1.917,8.429Z" transform="translate(-183.747 22.043)" fill="#a2cf82"/>
          <path id="パス_2688" data-name="パス 2688" d="M294.472,93.026l4.215-8.99.294-9.9-2.639-9.492-8.249-5.721-.248.43-4.726,6.491L281.764,73.7l1.675,7.785,4.839,6.423Z" transform="translate(-157.167 34.203)" fill="#45b035"/>
          <path id="パス_2689" data-name="パス 2689" d="M285.636,58.678c-.491.322-.019.509.095,1.087s.264.545.376,1.122.062.585.174,1.162.041.588.153,1.163.148.569.262,1.144.209.556.321,1.132.019.6.131,1.173.179.564.291,1.141-.035.605.077,1.182.139.571.251,1.146.171.566.283,1.143.092.575.2,1.147.221.552.332,1.124.028.591.142,1.165.014.6.128,1.171.31.541.423,1.119-.027.6.085,1.179.254.548.367,1.124.038.591.152,1.166.161.571.275,1.149.087.583.2,1.16.12.577.232,1.155,0,.6.111,1.182.221.558.335,1.136.168.567.28,1.146.019.6.131,1.173.016.6.128,1.181.156.572.27,1.154.115.583.231,1.165-.324,1.106.253,1.25c.529.131.193-.615.412-1.114s.218-.5.436-1,.291-.469.512-.972.264-.482.485-.985.226-.5.447-1.005.188-.517.423-1.013c.283-.6.163-.654.46-1.242s.435-.522.732-1.111.436-.553.592-1.195c.15-.608-.051-.639-.051-1.266s.069-.626.069-1.252-.054-.624-.054-1.25-.085-.627-.085-1.256-.013-.629-.013-1.258.077-.632.077-1.263a9.154,9.154,0,0,0,.036-1.264,7.282,7.282,0,0,0-.212-1.116c-.111-.555-.085-.561-.2-1.116s-.109-.558-.221-1.114-.267-.523-.4-1.076c-.137-.591.009-.627-.145-1.212s-.3-.553-.453-1.143-.09-.607-.246-1.2-.112-.6-.269-1.195-.021-.656-.371-1.158c-.333-.48-.42-.4-.905-.732s-.578-.191-1.063-.522-.382-.476-.864-.8-.55-.231-1.035-.559-.51-.289-.994-.618-.483-.333-.97-.664-.461-.367-.949-.7-.588-.229-.981-.669c-.412-.46-.4-.925-.9-.6" transform="translate(-155.048 33.997)" fill="#acce81"/>
          <path id="パス_2690" data-name="パス 2690" d="M277.621,88.292l5.478-8.68,1.5-9.819-5.768-7.675,0-.748-6,8.007.161,9.7Z" transform="translate(-162.345 35.622)" fill="#c6dda7"/>
          <path id="パス_2691" data-name="パス 2691" d="M310.526,2.7c-.509-1.021-1.153-.161-2.281-.327s-1.127-.18-2.256-.348-1.122-.242-2.259-.338c-1.179-.1-1.183-.036-2.365-.065S300.179,1.6,299,1.574a7.346,7.346,0,0,0-2.372-.055c-1.152.226-1.066.5-2.141.972s-1.082.455-2.158.928a21.379,21.379,0,0,0-4.127,2.2c-.976.646-.959.672-1.935,1.318s-1.236.378-1.947,1.309-.393,1.122-.769,2.246-.4,1.117-.776,2.244-.284,1.155-.67,2.279c-.022.068-.168.1-.1.126,1.111.425,1.13.373,2.264.732s1.16.284,2.3.643,1.07.656,2.251.8c1.161.144,1.169-.141,2.338-.215s1.169-.077,2.34-.152a10.794,10.794,0,0,0,2.34-.115,11.244,11.244,0,0,0,2.237-.827c1.122-.412,1.145-.349,2.267-.762s1.27-.155,2.255-.833.757-.958,1.548-1.865.8-.906,1.6-1.816a13.62,13.62,0,0,0,1.613-1.806,12.556,12.556,0,0,0,1.016-2.088c.529-1.034.337-1.162,1.092-2.044.831-.97,1.588-1.056,1.07-2.094" transform="translate(-157.04 0.826)" fill="#a2cf82"/>
          <path id="パス_2692" data-name="パス 2692" d="M282.111,15.081c.474.485.627-.294,1.25-.564s.656-.19,1.277-.458.6-.313,1.224-.582.643-.22,1.264-.488.605-.311,1.228-.582.616-.284,1.239-.555.592-.327,1.21-.6.659-.182,1.28-.452.575-.379,1.2-.65.694-.1,1.315-.371.6-.311,1.221-.58.619-.273,1.24-.544.615-.289,1.239-.559.634-.245,1.256-.515.558-.419,1.18-.689.679-.142,1.3-.414.615-.291,1.239-.561.578-.371,1.2-.642.692-.107,1.313-.378.585-.365,1.21-.635.607-.316,1.232-.588.646-.231,1.275-.5,1.185.152,1.237-.531c.058-.792-.325-.909-1.048-1.239-.537-.247-.654.027-1.245.054s-.586.131-1.179.16-.594,0-1.187.03-.591.068-1.185.076c-.694.009-.694.019-1.386.009s-.694.013-1.386,0-.7.041-1.392.032-.7-.073-1.394-.082-.7-.1-1.4-.112a4.355,4.355,0,0,0-1.387.122,4.75,4.75,0,0,0-1.381.458c-.676.291-.643.365-1.318.656s-.7.24-1.375.533-.664.324-1.341.615-.765.131-1.409.488c-.575.318-.441.536-.976.915s-.525.4-1.063.781-.621.266-1.161.648-.561.352-1.1.735-.648.3-1.038.831c-.416.569-.16.692-.385,1.359s-.251.662-.479,1.332-.224.673-.453,1.345-.065.765-.453,1.361c-.442.681-1.01.819-.513,1.328" transform="translate(-157.078 0.756)" fill="#f8fbf4"/>
          <path id="パス_2693" data-name="パス 2693" d="M271.412,3.126c-1.024.228-.373,1.026-.727,2.015s-.326,1-.678,1.99-.351,1-.7,1.988a9.563,9.563,0,0,0-.755,1.976,9.473,9.473,0,0,0-.059,2.1c-.046,1.048-.013,1.049-.058,2.1s-.044,1.049-.092,2.1a9.426,9.426,0,0,0-.156,2.1,9.2,9.2,0,0,0,.569,2c.264,1,.307.989.57,1.991s.229,1.015.495,2.018-.057,1.147.55,1.99.85.561,1.714,1.125.823.629,1.687,1.193.894.525,1.762,1.092,1.046.359,1.766,1.1c.258.266-.212,1.034.035.757.712-.8.464-.964.95-1.92s.485-.959.972-1.919.512-.948,1-1.911.758-.863,1.033-1.906a6.694,6.694,0,0,0,.1-2.127c.047-1.062.039-1.062.087-2.123s-.051-1.067,0-2.129.4-1.092.166-2.129-.5-.948-1-1.885-.526-.928-1.029-1.868-.51-.937-1.014-1.881a9.2,9.2,0,0,0-.989-1.9c-.643-.847-.807-.7-1.575-1.433s-.771-.735-1.541-1.471-.95-.6-1.522-1.5c-.64-1.005-.509-1.759-1.552-1.527" transform="translate(-165.062 1.789)" fill="#a2cf82"/>
          <path id="パス_2694" data-name="パス 2694" d="M308.363,17.875c-.31-1.06-1.041-.326-2.086-.684s-1.041-.379-2.087-.74-1.029-.419-2.078-.779A9.713,9.713,0,0,0,300,14.98a10.5,10.5,0,0,0-2.294-.009c-1.149-.036-1.145-.1-2.294-.133s-1.15.013-2.3-.024-1.179-.392-2.308-.174-1.051.495-2.1.956-1.041.493-2.1.956-1.07.433-2.127.9-1.264.155-2.13.917-.528,1.024-1.109,2-.627.951-1.209,1.93-.532,1.011-1.116,1.991a21.788,21.788,0,0,0-1.254,1.916c-.052.1.164-.107.269-.058a21.594,21.594,0,0,1,2.013,1.119c1,.571.981.607,1.983,1.177s1.01.564,2.013,1.136.877.921,2.007,1.163,1.155-.163,2.307-.275,1.158-.082,2.313-.193,1.158-.107,2.315-.22a6.726,6.726,0,0,0,2.305-.258c1.081-.37.949-.621,1.912-1.236s.975-.6,1.94-1.214.987-.583,1.954-1.2a9.07,9.07,0,0,0,1.909-1.268c.822-.744.67-.877,1.351-1.753s.672-.885,1.354-1.762.536-1.034,1.4-1.734c.939-.759,1.664-.683,1.352-1.753" transform="translate(-159.549 8.456)" fill="#a2cf82"/>
          <path id="パス_2695" data-name="パス 2695" d="M302.935,216.571c.777-.839-.185-1.29-.3-2.428s-.281-1.122-.393-2.262.239-1.173.128-2.312-.8-1.073-.91-2.213-.052-1.144-.164-2.284.186-1.168.076-2.306.058-1.155-.054-2.295-.246-1.125-.357-2.265.017-1.147-.093-2.282-.1-1.136-.21-2.271-.392-1.108-.5-2.243-.215-1.127-.326-2.265.041-1.154-.069-2.292.024-1.155-.088-2.295-.21-1.13-.322-2.268-.117-1.138-.228-2.276.356-1.182.245-2.32-.842-1.065-.954-2.2.555-1.2.442-2.342-.194-1.132-.307-2.271-.179-1.135-.289-2.276-.555-1.1-.665-2.235-.248-1.127-.359-2.265-.009-1.149-.12-2.288-.194-1.133-.307-2.274.623-1.212.51-2.353-.749-1.078-.86-2.217.1-1.162-.008-2.3.191-1.171.081-2.314-.269-1.125-.379-2.265-.517-1.1-.629-2.246.283-1.179.172-2.32-.387-1.116-.5-2.258.515-1.2.4-2.341-.221-1.128-.333-2.266-.354-1.121-.466-2.263-.025-1.149-.137-2.29-.572-1.1-.684-2.241.242-1.177.13-2.322.3-1.182.188-2.325-.945-1.064-1.057-2.209.472-1.2.36-2.35-.987-1.2-.82-2.339.992-.534,2.15-1.443c.506-.4.986-1.037,1.681-1.576.551-.428,1.228-.809,1.886-1.313.57-.436,1.161-.923,1.8-1.41.581-.441,1.49-.506,2.125-.983.591-.444.927-1.269,1.561-1.74.6-.443,1.076-1.084,1.708-1.549.6-.444,1.457-.574,2.089-1.034.608-.441,1.473-.55,2.1-1.005.613-.439,1.13-1.032,1.762-1.482.616-.436,1.236-.885,1.868-1.329s1.357-.716,1.991-1.157.9-1.38,1.539-1.816,1.259-.868,1.9-1.3,1.446-.591,2.087-1.018,1.382-.678,2.024-1.1,1.3-.816,1.94-1.231,1.247-.9,1.9-1.307.973-1.345,1.626-1.748,1.648-.258,2.3-.654,1.3-.814,1.962-1.2,1.217-.97,1.879-1.35,1.482-.506,2.147-.876,1.24-.937,1.91-1.294,1.2-1.043,1.874-1.389c.692-.356,1.364-.744,2.045-1.075.7-.341,1.534-.379,2.218-.694.713-.326,1.473-.5,2.165-.793.722-.305,1.444-.544,2.141-.811.735-.281,1.681-.757,2.384-.993-.161-1.054-.534-1.04-1.046-1.976s-1.16-.583-1.672-1.522.106-1.279-.408-2.221-.709-.778-1.495-1.508c-.828-.768-.555-.006-1.954.362-.615.161-1.4.171-2.233.4-.664.182-1.326.632-2.111.853-.684.191-1.522,0-2.285.223-.694.2-1.221,1.078-1.973,1.3-.7.207-1.634-.289-2.376-.063-.7.213-1.278.907-2.016,1.136-.7.22-1.362.637-2.093.872-.7.226-1.425.441-2.152.68-.706.234-1.479.3-2.2.541q-1.059.36-2.139.733c-.706.248-1.463.368-2.179.626s-1.55.149-2.261.412-1.213,1.048-1.92,1.318-1.6.055-2.3.333-1.4.588-2.1.876-1.289.847-1.981,1.144-1.419.539-2.1.846-1.28.844-1.959,1.163-1.468.446-2.138.778-1.334.735-2,1.081c-.678.356-1.517.408-2.166.771-.668.375-1.326.773-1.961,1.155-.66.4-.946,1.367-1.564,1.773-.646.424-1.229.88-1.823,1.312-.626.455-1.815.631-2.378,1.094.087-1.125.755-1.043,1.1-2.116s.1-1.155.446-2.23.945-.882,1.292-1.957.24-1.111.588-2.186.4-1.059.752-2.134.3-1.089.652-2.164-.022-1.195.325-2.27.21-1.116.556-2.187.69-.961,1.036-2.032.223-1.111.569-2.181.065-1.163.411-2.235.284-1.092.63-2.165.54-1.01.888-2.083.79-.932,1.138-2.007-.253-1.272.1-2.349,1-.866,1.343-1.941-.073-1.211.275-2.285.123-1.146.469-2.219.863-.907,1.209-1.98.245-1.108.592-2.183.469-1.037.817-2.113.16-1.14.507-2.216,0-1.188.348-2.265.591-1,.938-2.07.409-1.056.757-2.132.019-1.184.367-2.262.713-.959,1.06-2.036.668-.974,1.016-2.05.122-1.151.469-2.227.089-1.162.438-2.24.1-1.157.449-2.235.423-1.054.773-2.132.542-1.015.891-2.093.45-1.045.8-2.123.472-1.035.82-2.111.57-1,.918-2.08.011-1.189.359-2.268.333-1.083.681-2.159.513-1.026.863-2.105.446-1.049.795-2.129-.147-1.239.2-2.317.359-1.079.708-2.16.227-1.122.578-2.2,1.814-1.133,1.286-2.142c-.518-.986-1.206-.425-2.278-.721s-1.242-.932-2.27-.506c-1.048.436-.687,1.021-1.259,2s-.6.962-1.169,1.941-.243,1.166-.814,2.145-.676.914-1.245,1.89-.6.961-1.168,1.938-.678.915-1.248,1.892-.139,1.231-.711,2.211-1.046.7-1.616,1.683-.743.879-1.313,1.857-.017,1.3-.588,2.279-.577.975-1.147,1.953-.738.883-1.31,1.863-.882.8-1.454,1.778-.065,1.274-.637,2.254-.752.874-1.324,1.852-.713.9-1.285,1.879-.389,1.087-.961,2.067-.9.789-1.473,1.77-.185,1.2-.755,2.178-.51,1.016-1.082,2-.754.872-1.324,1.851-.777.858-1.349,1.838-.174,1.214-.747,2.2-1.164.634-1.736,1.614-.063,1.28-.635,2.262-.954.762-1.528,1.743-.521,1.011-1.095,1.993-.2,1.2-.771,2.186-.686.921-1.261,1.908-.193,1.367-1.307,1.612-.907-.281-1.831-.937-1.027-.512-1.951-1.17-.768-.882-1.692-1.539-.836-.787-1.763-1.446-1.092-.431-2.021-1.092-.942-.639-1.869-1.3-.7-.98-1.624-1.639-1.1-.411-2.027-1.068-1.01-.539-1.935-1.2-.912-.678-1.839-1.337-.692-.991-1.62-1.652-.943-.642-1.872-1.3-.866-.746-1.793-1.405-1.059-.473-1.986-1.132-.912-.681-1.839-1.34-.94-.645-1.869-1.3-1.13-.378-2.059-1.038-.562-1.174-1.492-1.833-.994-.567-1.923-1.226-1.071-.461-2-1.122-.938-.645-1.868-1.305-1.07-.454-2-1.109-.632-1.073-1.558-1.731-.964-.615-1.894-1.275-1.22-.25-2.147-.91-.972-.6-1.9-1.26-.654-1.054-1.585-1.715-1.142-.364-2.071-1.024-.962-.62-1.893-1.28-.945-.645-1.877-1.307-.667-1.035-1.6-1.7-1.175-.319-2.108-.981-.858-.773-1.793-1.438-.825-2.093-1.819-1.52.417,1.163.551,2.289-.352,1.185-.218,2.314.221,1.119.355,2.249-.152,1.256.349,2.279a4.647,4.647,0,0,0,1.46,1.764c.8.785.8.785,1.608,1.571s1.161.42,1.967,1.207.482,1.121,1.289,1.908.94.653,1.749,1.441,1.07.518,1.877,1.305.409,1.193,1.217,1.98.882.706,1.687,1.494.754.839,1.559,1.626,1.262.319,2.07,1.1.52,1.083,1.329,1.871.548,1.056,1.357,1.844,1.158.428,1.965,1.215.912.681,1.717,1.468.743.855,1.55,1.642.651.951,1.458,1.74.574,1.03,1.383,1.819,1.16.425,1.969,1.214.937.656,1.746,1.445.815.784,1.624,1.573.679.917,1.485,1.7.8.79,1.607,1.576.828.763,1.634,1.55.672.932,1.482,1.723,1.04.552,1.847,1.34.645.958,1.452,1.745.89.711,1.7,1.5.506,1.1,1.316,1.89.706.9,1.517,1.688,1.011.578,1.819,1.366.848.755,1.661,1.546.935.667,1.749,1.46.5,1.117,1.316,1.912,1.367.281,1.586,1.4c.228,1.158-.273.991-.717,2.085s-.344,1.132-.787,2.224-.649,1.01-1.092,2.1.13,1.323-.313,2.413-.815.939-1.258,2.029-.028,1.263-.472,2.356-.453,1.087-.9,2.179-.556,1.048-1,2.142-.592,1.035-1.036,2.129-.869.921-1.311,2.014.024,1.286-.422,2.383-.289,1.16-.735,2.258-1.179.808-1.6,1.912c-.408,1.054.193.921-.25,2.319-.191.6-.82,1.2-1.081,2.039-.205.654-.444,1.373-.686,2.16-.209.676-.046,1.519-.28,2.285-.21.691-.264,1.465-.491,2.224-.212.7-.583,1.377-.807,2.129-.21.7-.1,1.525-.324,2.274-.209.708-.567,1.391-.785,2.137-.207.71-.57,1.392-.787,2.137-.205.713-.12,1.525-.333,2.266-.2.716-.7,1.362-.905,2.1-.2.718-.662,1.375-.869,2.115-.2.719-.245,1.494-.45,2.232-.2.721-.212,1.5-.414,2.241s-.449,1.44-.649,2.178-.49,1.43-.687,2.168-.019,1.555-.213,2.293-1.082,1.277-1.275,2.015.2,1.612.006,2.35-.632,1.4-.82,2.137-.265,1.486-.449,2.221-.885,1.334-1.066,2.07.052,1.568-.126,2.3-.378,1.462-.555,2.2.04,1.563-.134,2.3-1.068,1.305-1.239,2.045-.179,1.514-.346,2.254-.044,1.543-.207,2.284-.662,1.407-.823,2.148.118,1.577-.038,2.319-.148,1.519-.3,2.262-.264,1.494-.412,2.235-.551,1.441-.7,2.187-.572,1.441-.713,2.187-.42,1.473-.558,2.219.363,1.614.232,2.36-.46,1.465-.585,2.213-.269,1.5-.389,2.246-.518,1.462-.632,2.208.316,1.585.209,2.333-.957,1.4-1.057,2.149.248,1.566.156,2.314-.545,1.467-.629,2.211.087,1.539.013,2.285c-.076.762.19,1.544.125,2.29-.065.765-.875,1.462-.929,2.211s.344,1.547.3,2.292c-.041.767-.4,1.511-.431,2.255-.027.767.588,1.535.577,2.277-.009.767-.374,1.59-.367,2.33,1.092.357,1.172.112,2.321.119s1.152-.163,2.3-.156,1.153-.422,2.305-.416,1.152.2,2.305.2,1.147.645,2.3.651,1.153-.468,2.3-.46,1.15.133,2.3.139,1.152.272,2.3.278,1.157-.414,2.308-.406,1.15.4,2.3.408,1.155-.4,2.307-.4,1.155-.1,2.308-.092,1.153.106,2.305.112,1.152.495,2.305.5,1.153-.054,2.307-.046,1.155.017,2.308.024,1.155-.509,2.307-.5,1.15.147,2.3.155,1.153.288,2.308.294,1.153-.1,2.307-.092,1.153.2,2.308.209,1.157-.032,2.313-.024,1.157-.462,2.31-.455,1.155.536,2.311.542,1.255-.828,2.378-.54c1.288.329,1.627,1.233,2.414.382" transform="translate(-192.142 0)" fill="#d4e8c4"/>
          <path id="パス_2696" data-name="パス 2696" d="M249.694,4.541c-1.065-.273-.841.727-1.68,1.437s-.853.7-1.7,1.408-.833.725-1.676,1.438-.984.574-1.7,1.421c-.736.879-.528,1.023-1.111,2.01s-.623.966-1.207,1.955-.559,1.008-1.145,2-.8.887-1.2,1.968a8.672,8.672,0,0,0-.4,2.263c-.205,1.135-.25,1.127-.455,2.26s-.2,1.138-.4,2.274-.569,1.132-.376,2.27.548,1,1.115,1.993.51,1.03,1.078,2.028.649.955,1.218,1.955.632.969,1.15,2c.125.247-.147.686.107.577,1.074-.461.905-.751,1.841-1.451s.934-.7,1.871-1.407.935-.706,1.875-1.411,1.206-.425,1.95-1.334c.716-.877.438-1.06.915-2.088s.526-1.008,1-2.039.39-1.072.867-2.1a7.636,7.636,0,0,0,.948-2.059,7.693,7.693,0,0,0,.166-2.263c.04-1.14.041-1.14.082-2.281s-.044-1.144,0-2.285.363-1.165.172-2.292c-.183-1.089-.5-1-.907-2.031s-.373-1.043-.781-2.072-.683-.961-.842-2.059c-.174-1.2.286-1.8-.788-2.078" transform="translate(-183.36 2.608)" fill="#a2cf82"/>
          <path id="パス_2697" data-name="パス 2697" d="M227.306,33.294c-.141,1.018.711.713,1.476,1.4s.8.646,1.566,1.334.738.722,1.5,1.411a9.608,9.608,0,0,0,1.555,1.359,10.3,10.3,0,0,0,1.931.917c.965.463.975.443,1.94.906s.939.526,1.905.991.9.664,1.954.883a5.852,5.852,0,0,0,2.122-.043l2.128-.084c1.067-.041,1.068-.021,2.133-.062s1.128.234,2.131-.128c.969-.351.8-.645,1.613-1.282s.793-.662,1.605-1.3.856-.586,1.67-1.226.659-.89,1.6-1.317c.228-.1.349.654.161.492a11.552,11.552,0,0,1-1.362-1.58l-1.4-1.547c-.7-.778-.735-.748-1.436-1.525s-.551-.945-1.4-1.55-.964-.4-1.929-.809-.942-.465-1.907-.872-.973-.4-1.942-.806-.907-.694-1.951-.806-1.049.18-2.086.373-1.027.258-2.067.45-1.049.149-2.09.341a10.249,10.249,0,0,0-2.059.463,9.742,9.742,0,0,0-1.849.877c-.92.458-.918.463-1.839.92a5.937,5.937,0,0,1-1.863.874c-1.087.253-1.672-.074-1.814.947" transform="translate(-188.76 16.266)" fill="#45b035"/>
          <path id="パス_2698" data-name="パス 2698" d="M236.336,67.663c.848.567.97-.4,1.92-.77s.956-.364,1.907-.74.956-.373,1.909-.751.984-.31,1.912-.749c.953-.45.918-.522,1.841-1.032s.923-.514,1.845-1.026.913-.537,1.839-1.049,1.062-.316,1.864-1.008.594-.865,1.228-1.7.711-.774,1.345-1.609.611-.855,1.247-1.691a14.1,14.1,0,0,0,1.258-1.685,13.677,13.677,0,0,0,.918-1.871c.452-.94.476-.929.927-1.87s.37-.981.823-1.925.818-.83.949-1.868-.186-1.042-.39-2.077-.284-1.023-.488-2.061-.117-1.057-.321-2.1-.281-1.026-.477-2.067c-.013-.073.107-.125.033-.115a20.316,20.316,0,0,0-2.079.413c-1.04.223-1.038.228-2.078.45s-1.057.155-2.1.378a7.881,7.881,0,0,0-2.092.452c-.967.4-.848.632-1.724,1.207s-.88.567-1.755,1.143-.894.552-1.773,1.128A9.1,9.1,0,0,0,243.1,44.27a9.4,9.4,0,0,0-1.373,1.622c-.671.827-.624.865-1.3,1.691s-.711.8-1.386,1.626-.923.678-1.378,1.644-.166,1.073-.379,2.127-.248,1.048-.461,2.1-.174,1.067-.389,2.124A12.179,12.179,0,0,0,236,59.32a11.253,11.253,0,0,0,.079,2.074c.046,1.04.006,1.042.052,2.081s.384,1.067.185,2.089c-.22,1.127-.844,1.519.022,2.1" transform="translate(-183.773 22.001)" fill="#a2cf82"/>
          <path id="パス_2699" data-name="パス 2699" d="M231.906.48c-1.059-.27-.692.823-1.419,1.637s-.735.812-1.463,1.628-.743.808-1.474,1.626a8.225,8.225,0,0,0-1.439,1.647,7.222,7.222,0,0,0-.779,1.9c-.362.969-.3.991-.662,1.96s-.419.95-.78,1.92-.664.914-.676,1.95c-.011,1.015.311.958.651,1.914s.37.948.711,1.906.346.959.687,1.92.288.98.619,1.944c.057.163-.033.394.115.307a9.2,9.2,0,0,0,1.67-1.351c.839-.675.83-.686,1.668-1.362s.85-.665,1.692-1.343,1.174-.389,1.73-1.317c.54-.9.134-1.057.319-2.094s.182-1.038.367-2.077.24-1.032.427-2.072a6.327,6.327,0,0,0,.3-2.085,6.97,6.97,0,0,0-.54-2.138c-.288-1.073-.3-1.068-.592-2.14s-.536-1.043-.558-2.154c-.024-1.222.506-1.854-.572-2.129" transform="translate(-191.125 0.254)" fill="#a2cf82"/>
          <path id="パス_2700" data-name="パス 2700" d="M211.485,18.591c-.15,1.035.823.629,1.623,1.3s.728.759,1.529,1.432.875.591,1.68,1.266.664.866,1.57,1.392a8.2,8.2,0,0,0,1.98.7c.987.364.964.425,1.95.79s.994.354,1.983.719a10.819,10.819,0,0,0,2,.672,10.67,10.67,0,0,0,2.068.259c1.041.1,1.046.062,2.087.16s1.04.134,2.082.234,1.081.45,2.089.163.837-.629,1.672-1.264.842-.627,1.678-1.264.825-.656,1.662-1.294a17.843,17.843,0,0,1,1.7-1.234c.085-.055.043.242-.028.169a19.462,19.462,0,0,1-1.346-1.62c-.69-.8-.732-.762-1.422-1.56s-.722-.774-1.416-1.574-.471-1.04-1.351-1.626-1-.3-1.984-.624-.989-.332-1.98-.653-.994-.327-1.988-.65-.943-.556-1.986-.639-1.021.15-2.043.313-1.018.21-2.041.373-1.036.106-2.062.27a10.356,10.356,0,0,0-2.049.341,10.508,10.508,0,0,0-1.9.876l-1.915.861a5.917,5.917,0,0,1-1.939.792c-1.133.212-1.747-.126-1.9.915" transform="translate(-197.936 8.028)" fill="#a2cf82"/>
          <g id="グループ_2426" data-name="グループ 2426" transform="translate(52.197 59.954)">
            <g id="グループ_2425" data-name="グループ 2425" clip-path="url(#clip-path)">
              <path id="パス_2701" data-name="パス 2701" d="M259.632,37.683c-.673-.123-.341.493-.76,1.034s-.525.46-.943,1-.286.643-.7,1.185-.474.5-.893,1.042-.528.46-.946,1-.346.6-.766,1.144-.457.515-.877,1.057-.332.61-.751,1.152-.48.49-.9,1.029-.327.608-.743,1.146-.412.544-.829,1.083-.495.482-.913,1.023-.455.515-.875,1.057-.374.582-.795,1.125-.46.512-.88,1.054-.335.607-.754,1.149-.521.465-.94,1.007-.333.615-.755,1.16-.455.517-.875,1.062-.479.5-.9,1.043-.378.58-.8,1.127-.408.555-.829,1.1-.43.539-.85,1.083-.493.488-.913,1.032-.3.639-.725,1.185-.518.474-.94,1.023-.324.626-.749,1.176-1.292.474-.863,1.018.591-.294,1.256-.537.675-.226,1.343-.471.676-.22,1.343-.465.7-.149,1.37-.394.649-.3,1.319-.541.667-.247,1.335-.492.689-.188,1.356-.433.618-.378,1.285-.623.709-.136,1.379-.382.635-.341,1.307-.588.692-.193,1.365-.439.811-.017,1.376-.457.289-.684.69-1.271.48-.534.882-1.124.384-.6.785-1.195.344-.629.746-1.219.392-.6.793-1.187.491-.531.894-1.124.444-.563.847-1.152.314-.65.716-1.241.512-.514.913-1.1.368-.618.771-1.211.357-.624.762-1.219.417-.586.822-1.182.692-.48.8-1.192c.1-.678-.21-.65-.423-1.3s-.231-.645-.444-1.3-.158-.667-.37-1.318-.242-.645-.455-1.3-.228-.651-.441-1.305a3.871,3.871,0,0,1-.37-1.323c-.057-.729.193-1.092-.487-1.215" transform="translate(-235.877 -38.091)" fill="#c1da9f"/>
            </g>
          </g>
          <path id="パス_2711" data-name="パス 2711" d="M291.5,58.347l-.465-8.174-1.548-8.313-4.762-6.908-5.994-5.818-8.4-1.057-.148-.038-.916,8.463,2.174,8.1,4.576,7.2,7.483,4.274Z" transform="translate(-164.417 16.274)" fill="#a2cf82"/>
          <path id="パス_2712" data-name="パス 2712" d="M269.939,28.147c-.306.539.389.539.744,1.048s.338.518.694,1.026.349.51.7,1.016.346.512.7,1.018.37.5.725,1,.36.5.714,1.01.392.482.747.989.332.525.687,1.032.417.465.773.972.229.591.583,1.1.392.477.746.98.374.488.728.993.33.518.684,1.023.322.528.676,1.034.471.427.828.934.3.552.653,1.06.335.522.69,1.029.46.433.815.939.243.586.6,1.094.446.449.8.958.362.506.717,1.015.316.537.672,1.046.363.507.72,1.018.269.571.626,1.081.36.506.717,1.015.436.454.792.961.348.52.7,1.03.321.537.679,1.049.425.468.784.981.092,1.214.7,1.076c.574-.126-.1-.616-.126-1.2s.043-.588.013-1.174.021-.591-.009-1.179-.109-.586-.139-1.176.024-.593-.006-1.184a10.941,10.941,0,0,0-.123-1.177,12.292,12.292,0,0,0-.212-1.223c-.117-.61-.1-.613-.22-1.223s-.057-.62-.174-1.23-.262-.58-.379-1.188-.09-.616-.207-1.226-.016-.632-.133-1.244-.092-.62-.209-1.234a4.093,4.093,0,0,0-.3-1.217c-.243-.577-.438-.46-.795-.974s-.324-.534-.681-1.046-.368-.5-.724-1.015-.314-.544-.671-1.057-.4-.487-.758-1-.352-.52-.713-1.035-.224-.623-.637-1.1c-.428-.493-.539-.39-1.014-.836s-.428-.5-.9-.944-.507-.417-.986-.865-.491-.436-.97-.885-.506-.424-.986-.872-.311-.7-.9-.988c-.54-.264-.626,0-1.221-.077s-.589-.136-1.185-.212l-1.191-.147c-.6-.076-.594-.109-1.191-.183s-.608,0-1.209-.079-.645.087-1.207-.138c-.653-.259-.94-.716-1.239-.19" transform="translate(-164.069 16.197)" fill="#5ca82d"/>
          <path id="パス_2713" data-name="パス 2713" d="M289.843,32.874l-2.215,7-2.111,7.188,1.052,7.4,3.38,6.507,5.944,4.586.5-.114,3.645-6.7,1.376-7.373L299.6,44.1l-3.722-6.684Z" transform="translate(-154.99 19.081)" fill="#a2cf82"/>
          <path id="パス_2714" data-name="パス 2714" d="M296.128,65.2c.444-.352-.126-.6-.234-1.157s-.085-.561-.193-1.117-.1-.558-.209-1.113-.1-.559-.2-1.114-.126-.553-.235-1.109-.114-.556-.221-1.114-.153-.548-.262-1.106-.076-.563-.183-1.121-.185-.542-.292-1.1.049-.588-.059-1.144-.156-.544-.264-1.1-.134-.548-.242-1.1-.079-.559-.186-1.116-.068-.564-.175-1.122-.254-.529-.363-1.089-.03-.572-.137-1.128-.082-.561-.19-1.117-.242-.531-.349-1.089.035-.586-.073-1.147-.221-.536-.329-1.1-.114-.556-.221-1.116-.055-.571-.164-1.13-.114-.558-.223-1.117,0-.582-.1-1.14-.112-.558-.22-1.116-.21-.542-.319-1.1-.093-.564-.2-1.125-.06-.574-.169-1.136.277-.94-.278-1.087c-.5-.133-.215.441-.4.926s-.093.522-.281,1.005-.261.458-.449.945-.237.469-.427.956-.111.52-.3,1.008a9.634,9.634,0,0,0-.433.959,10.9,10.9,0,0,0-.188,1.091c-.126.534-.149.529-.275,1.064s-.141.533-.267,1.067-.186.518-.313,1.053.028.574-.1,1.109-.155.531-.281,1.068-.234.514-.36,1.053-.273.536-.284,1.089.174.547.277,1.091.2.525.308,1.067.062.55.164,1.092.119.542.223,1.087.047.556.15,1.1.155.539.261,1.086a7.015,7.015,0,0,0,.2,1.091,7.791,7.791,0,0,0,.343,1.106c.224.533.3.5.529,1.03s.155.564.381,1.1.265.518.491,1.054.243.531.469,1.068.106.6.479,1.046a2.138,2.138,0,0,0,.836.635c.455.277.5.205.954.482s.42.332.875.608.458.275.915.552.439.308.9.586.585.106.959.492c.439.452.529.932.949.6" transform="translate(-155.018 19.045)" fill="#c6dda7"/>
          <path id="パス_2715" data-name="パス 2715" d="M263.97,14.158l-6.088,3.019-5.855,3.888-3.7,5.912-2.515,6.475,1.945,6.769.021.13,6.764-2.072,5.476-4.311,4.031-5.835.815-7.123Z" transform="translate(-178.02 8.218)" fill="#a2cf82"/>
          <path id="パス_2716" data-name="パス 2716" d="M308.776,75.759l.234-7.324-2.536-6.853L301.9,55.935,294.678,54.4l-.04.308-1.351,5.773,1.281,5.748,3.4,4.8,5.127,3Z" transform="translate(-150.484 31.576)" fill="#acce81"/>
          <path id="パス_2717" data-name="パス 2717" d="M292.928,53.383c-.387.476.327.444.744.895s.493.382.91.834a10.779,10.779,0,0,1,.811.928,8.9,8.9,0,0,1,.578.95c.308.461.33.447.638.907s.362.424.67.883.254.495.563.955.346.435.654.895.224.518.534.98.324.452.635.915.343.443.654.907.3.471.608.934.373.42.682.883.262.495.572.958.258.5.569.967.422.389.733.853.234.515.544.98.392.413.7.877.267.492.577.955.34.446.651.912.3.473.607.937.318.465.629.931.248.512.561.978.374.428.689.9.057,1.113.575.893c.558-.237.033-.544.043-1.149s.077-.607.089-1.212-.019-.61-.008-1.219-.006-.608.019-1.215c.019-.487.063-.484.1-.969s-.066-.495-.032-.981.152-.485.066-.966a3.263,3.263,0,0,0-.368-1.007c-.209-.5-.18-.509-.389-1.007s-.205-.5-.414-1-.223-.495-.433-1-.3-.463-.512-.964-.068-.569-.329-1.046a7.589,7.589,0,0,0-.63-.926c-.313-.463-.343-.443-.656-.906s-.262-.5-.589-.955-.373-.425-.716-.871-.39-.411-.733-.857-.351-.443-.7-.89-.163-.635-.648-.926c-.525-.316-.6-.144-1.2-.266s-.6-.13-1.207-.251-.6-.141-1.207-.262-.607-.125-1.213-.247-.665.079-1.247-.131-.5-.4-1.04-.691-.692-.089-1.144-.51c-.5-.463-.611-1.065-1-.585" transform="translate(-150.757 30.883)" fill="#5ca82d"/>
          <path id="パス_2718" data-name="パス 2718" d="M322.987,33.541,315.677,36.2l-6.254,4.158-5.721,4.8-2.42,7-.025,7.57.3-.487L299,62l-.025,1.383,3.958-3.415,8.586-2.821,7.227-5.712,2.757-8.73Z" transform="translate(-147.184 19.468)" fill="#a2cf82"/>
          <path id="パス_2719" data-name="パス 2719" d="M300.573,59.688l21.684-26.006-14.58,4.631L301.968,46.7l-2.038,8.141Z" transform="translate(-146.631 19.55)" fill="#c6dda7"/>
          <path id="パス_2720" data-name="パス 2720" d="M269.95,109.238c-.487-.362-.39-.492-.877-.853s-.422-.45-.91-.812-.594-.221-1.082-.585-.416-.461-.9-.825-.575-.25-1.065-.613-.461-.4-.95-.768-.471-.389-.959-.752-.409-.471-.9-.834-.687-.095-1.174-.458-.452-.411-.94-.773-.349-.548-.837-.91-.45-.409-.937-.773-.575-.243-1.062-.605-.615-.19-1.1-.552-.433-.435-.921-.8-.5-.338-.992-.7-.414-.46-.9-.822-.551-.275-1.04-.639-.479-.376-.967-.738-.348-.553-.837-.917-.6-.213-1.09-.578-.4-.49-.886-.855-.548-.288-1.038-.653-.514-.332-1-.7-.539-.3-1.029-.661-.348-.553-.837-.917-.594-.221-1.082-.583-.406-.476-.894-.839-.491-.359-.981-.722-.444-.424-.934-.787-.588-.232-1.078-.6-.51-.338-1-.7-.553-.283-1.044-.648-.344-.561-.836-.925-.585-.237-1.076-.6-.469-.39-.959-.754-.39-.5-.88-.865-.491-.36-.983-.725-.583-.24-1.074-.605-.5-.359-.987-.724-.495-.357-.984-.721-.355-.542-.844-.906-.507-.335-1-.7-.513-.327-1-.689-.464-.4-.953-.757-.629-.175-1.117-.539-.395-.495-.886-.86-.664-.138-1.157-.5-.409-.474-.9-.839-.5-.352-.991-.716-.39-.5-.88-.866-.638-.174-1.131-.541-.332-.582-.825-.948-.539-.3-1.03-.669-.422-.466-.915-.833-.594-.228-1.084-.591-.381-.52-.874-.887-.586-.239-1.079-.605-.6-.231-1.09-.6-.4-.495-.9-.863-.474-.4-.972-.768-1.12-.095-1.035-.708c.077-.558.58-.027,1.139-.1s.551-.12,1.109-.193.564-.043,1.125-.117.534-.286,1.095-.36.583.073,1.145,0,.589-.329,1.152-.245c.6.09.548.346,1.1.588s.572.2,1.127.443.5.371,1.052.613.564.217,1.119.458.6.131,1.157.371.531.292,1.084.533.468.441,1.021.681.675-.036,1.229.2.569.207,1.123.447.464.444,1.019.686.63.066,1.185.307.562.228,1.117.469.562.229,1.117.471.425.545.981.787.623.1,1.18.34.485.406,1.044.65.683-.047,1.239.2.566.221,1.122.463.442.5,1,.746.553.247,1.109.488.665-.008,1.22.234.434.522.991.763.681-.044,1.237.2.507.356,1.063.6.589.172,1.147.416.483.414,1.043.657.583.186,1.141.43.589.168,1.145.411.491.394,1.048.637.687-.057,1.245.185.545.269,1.1.512.5.371,1.06.615.528.318,1.085.561.585.183,1.142.427.532.3,1.09.542.556.248,1.114.49.607.12,1.161.36.574.2,1.128.438.528.31,1.082.552.532.3,1.092.544.578.2,1.138.444.559.242,1.117.484.469.446,1.025.689.7-.076,1.255.168.434.533,1,.778.575.207,1.134.45.572.215,1.131.458.646.051,1.207.3.586.185,1.147.428.54.289,1.1.533.575.207,1.133.45.423.564.986.809.683-.033,1.247.212.523.34,1.087.585.507.379,1.071.624" transform="translate(-199.222 36.531)" fill="#d4e8c4"/>
          <path id="パス_2721" data-name="パス 2721" d="M221.092,103.583l9.535-2.68L238.47,94.9l5.405-8.2-.932-9.938-.389.07-7.995.591-6.911,3.959-4.813,6.338-1.8,7.83Z" transform="translate(-192.39 44.557)" fill="#45b035"/>
          <path id="パス_2722" data-name="パス 2722" d="M243.2,76.393c-.562-.169-.395.345-.763.8s-.272.534-.64.991-.4.431-.768.888-.412.42-.779.877-.344.476-.711.932-.308.506-.675.962-.427.409-.795.868-.329.492-.7.95-.46.381-.828.838-.349.468-.716.923-.329.484-.694.939-.379.444-.744.9-.3.51-.664.966-.419.414-.785.869-.43.409-.8.866-.245.559-.615,1.019-.455.387-.823.846-.278.529-.646.986-.416.42-.784.879-.34.485-.709.945-.385.446-.755.9-.365.463-.733.921-.444.4-.815.863-.3.512-.667.969-.335.488-.7.948-.43.411-.8.871-.435.411-.8.872-.346.484-.717.945-.371.465-.744.929-1.043.449-.782.985c.239.49.578-.229,1.1-.382l1.046-.31c.525-.155.542-.1,1.067-.251s.537-.119,1.063-.273.529-.15,1.057-.305.517-.187,1.049-.326c.637-.168.612-.267,1.253-.42s.671-.033,1.313-.187.7-.021,1.294-.314c.558-.277.457-.439.934-.842s.515-.36.994-.765.45-.435.929-.838.436-.458.916-.863.476-.414.957-.819.523-.36,1-.768a8.875,8.875,0,0,0,.986-.793,7.25,7.25,0,0,0,.714-.882c.352-.443.368-.43.722-.872s.356-.443.709-.888.256-.518.6-.974c.362-.487.457-.417.8-.915s.256-.564.605-1.064.395-.469.746-.969.381-.48.732-.983.5-.433.659-1.024c.152-.564.017-.582-.044-1.163s-.193-.571-.253-1.154.081-.6.019-1.179-.153-.572-.215-1.155-.1-.577-.16-1.158-.057-.585-.117-1.168-.027-.59-.087-1.174-.205-.6-.122-1.179c.087-.621.446-.926-.12-1.1" transform="translate(-192.414 44.323)" fill="#acce81"/>
          <path id="パス_2723" data-name="パス 2723" d="M228.5,59.437l-2.688,5.14-.864,5.995,1.259,5.941,4.77,3.722.226.3,3.158-5.3.256-5.971-2.073-5.636Z" transform="translate(-190.118 34.5)" fill="#a2cf82"/>
          <path id="パス_2724" data-name="パス 2724" d="M202.9,69.312l8.034,6.717,10.392,3.229,9.731-4.537,5.013.205-4.228-1.34-1.185-1.712-7.944-6.82-10.458.011Z" transform="translate(-202.904 37.761)" fill="#45b035"/>
          <g id="グループ_2434" data-name="グループ 2434" transform="translate(68.117 22.153)">
            <g id="グループ_2433" data-name="グループ 2433" clip-path="url(#clip-path-2)">
              <path id="パス_2725" data-name="パス 2725" d="M247.976,40.3l16.305-26.28L251.4,20.023l-5.95,12.522Z" transform="translate(-246.344 -14.017)" fill="#c6dda7"/>
            </g>
          </g>
          <path id="パス_2729" data-name="パス 2729" d="M279.956,136.652l9.927,1.966,9.886-2.031,8.733-4.952,3.675-9.54-.45-.133-7.573-3.112-8.112.523-7.3,3.562-5.2,6.342Z" transform="translate(-158.216 68.987)" fill="#45b035"/>
          <path id="パス_2730" data-name="パス 2730" d="M312.62,120.678c-.438-.409-.512.115-1.057.367s-.483.382-1.027.634-.564.205-1.108.455-.572.188-1.114.438-.529.283-1.071.533-.506.335-1.049.585-.581.169-1.127.42-.518.308-1.063.559-.6.122-1.149.371-.532.273-1.076.525-.518.3-1.059.548-.548.231-1.089.48-.5.345-1.036.593-.577.177-1.119.427-.583.166-1.128.417-.466.424-1.013.675-.6.131-1.144.381-.487.375-1.03.626-.574.185-1.119.436-.526.294-1.074.547-.556.228-1.1.479-.543.258-1.089.509-.594.15-1.142.4-.5.346-1.049.6-.525.3-1.07.552-.583.169-1.13.42-.588.166-1.136.419-.531.289-1.081.542-.548.256-1.1.509-1.168-.057-1.171.55c0,.556.646.047,1.194.144s.548.1,1.095.193.537.169,1.089.267.542.142,1.093.24.551.1,1.1.2.558.063,1.106.177c.659.136.686.014,1.34.168s.624.294,1.281.446.651.3,1.326.3c.638,0,.621-.2,1.242-.352s.637-.087,1.256-.237.608-.2,1.228-.351.6-.231,1.226-.382.621-.163,1.245-.315.643-.081,1.269-.232a9.369,9.369,0,0,0,1.261-.273,7.339,7.339,0,0,0,1.054-.479c.525-.245.534-.221,1.059-.466s.526-.242,1.051-.487.46-.379.978-.642c.551-.278.616-.153,1.16-.449s.482-.417,1.027-.714.578-.24,1.126-.537.569-.261,1.119-.559.648-.175,1.062-.643c.395-.447.291-.518.5-1.076s.062-.616.27-1.177.368-.5.577-1.06.106-.6.314-1.158.166-.574.374-1.132.213-.561.423-1.122.25-.547.46-1.109.085-.637.427-1.133c.357-.523.822-.632.382-1.043" transform="translate(-158.247 69.96)" fill="#acce81"/>
          <path id="パス_2731" data-name="パス 2731" d="M324.409,140.561l-6.57-5.536-7.876-3.341-8.421-.831-6.791,5.015-.735-.188,5.955,6.458,7.98,3.385,8.627-1.166Z" transform="translate(-150.06 75.954)" fill="#a2cf82"/>
        </g>
      </g>
      <g id="グループ_2453" data-name="グループ 2453" transform="translate(-126.293 8213)">
        <g id="グループ_2457" data-name="グループ 2457" transform="translate(0)">
          <path id="パス_2794" data-name="パス 2794" d="M811.854,140.438c-.317-1.193-1.124.088-2.829-.647-.692-.3-.968-1.7-1.979-2.094-.766-.3-1.8-.3-2.759-.644-.8-.286-1.691-.57-2.636-.881-.826-.272-1.672-.657-2.611-.945-.842-.259-1.9-.1-2.831-.373-.853-.247-1.619-.845-2.552-1.1-.863-.233-1.909-.054-2.842-.294-.869-.225-1.7-.656-2.636-.884-.877-.215-1.925.032-2.86-.186-.883-.2-1.573-1.137-2.508-1.344-.887-.2-1.993.3-2.928.1-.89-.188-1.59-1.164-2.525-1.352-.894-.181-1.831-.3-2.768-.477-.9-.172-1.925.088-2.862-.083-.9-.166-1.913.069-2.85-.095-.906-.157-1.59-1.359-2.529-1.516-.908-.152-2.041.669-2.98.521-.91-.145-1.73-.784-2.669-.928-.912-.139-1.746-.762-2.685-.9-.914-.134-2.033.759-2.974.629-.916-.128-1.767-.671-2.708-.8-.916-.123-1.765-.715-2.706-.835-.918-.117-1.9.091-2.846-.024-.918-.112-1.93.3-2.871.188-.922-.107-1.8-.554-2.743-.659-.922-.1-1.94.426-2.883.324-.923-.1-1.829-.36-2.772-.456-.923-.093-1.8-.624-2.741-.715-.923-.09-1.926.4-2.871.314-.925-.085-1.8-.678-2.741-.759-.925-.081-1.849-.267-2.792-.345-.927-.078-1.919.387-2.864.313-.923-.073-1.765-1.041-2.706-1.11s-1.847-.3-2.788-.368-1.857-.223-2.8-.287c-.927-.061-1.932.683-2.877.624-.927-.059-1.884.152-2.829.1-.929-.056-1.8-1.006-2.743-1.058-.929-.051-1.915.559-2.86.51s-1.888.181-2.833.135-1.816-1-2.76-1.043-1.894.272-2.84.232-1.841-.723-2.788-.761-1.938,1.191-2.885,1.158-1.856-.463-2.8-.493-1.845-.783-2.792-.811c-.931-.027-1.884.333-2.827.308s-1.888.514-2.832.492-1.855-.607-2.8-.625-1.866-.406-2.811-.423-1.9.835-2.842.821-1.864-.784-2.813-.8-1.893.938-2.842.928-1.878-.085-2.825-.091-1.868-.762-2.813-.767-1.882.908-2.827.9-1.88-.578-2.828-.578-1.882.515-2.831.517-1.878.015-2.825.02-1.886-.007-2.836,0-1.891-.49-2.842-.482c-.921.008-1.843.394-2.774.4s-1.853-.167-2.784-.156-1.862-.59-2.794-.576-1.837.732-2.768.747-1.866-.593-2.8-.576-1.829.918-2.76.936-1.878-.923-2.809-.9-1.841.451-2.772.473-1.839.4-2.772.424-1.878-.737-2.811-.713-1.849.164-2.78.191-1.864-.247-2.8-.218-1.847.208-2.78.237-1.839.375-2.772.406-1.853.051-2.786.083-1.829.559-2.763.591-1.9-.862-2.829-.828-1.837.421-2.77.456-1.824.635-2.757.673-1.9-.984-2.829-.945-1.788,1.122-2.718,1.163-1.882-.556-2.811-.515-1.81.7-2.739.744-1.858-.113-2.788-.069-1.822.478-2.751.524-1.857-.039-2.786.007-1.909-.835-2.838-.789-1.792.943-2.722.992-1.839.257-2.768.306-1.845.169-2.774.22-1.891-.466-2.823-.416l-2.78.159c-.925.052-1.907-.617-2.838-.563s-1.794.848-2.725.9-1.827.412-2.759.468-1.9-.438-2.827-.38-1.82.532-2.749.59-1.839.279-2.77.338-1.851.157-2.782.218-1.921-.644-2.852-.583-1.755,1.141-2.683,1.2-1.952-1.022-2.879-.958-1.814.512-2.743.576-1.905-.48-2.834-.416-1.74,1.31-2.669,1.376-1.886-.226-2.815-.159-1.905-.412-2.836-.345-1.825.417-2.757.487-1.79.769-2.722.84-1.876-.088-2.807-.015-1.921-.485-2.852-.412-1.781.791-2.71.864-1.812.517-2.741.592-1.89-.2-2.819-.123-1.911-.36-2.842-.284-1.876-.032-2.807.046-1.783.857-2.714.935-1.878-.066-2.809.014-1.816.526-2.749.607-1.936-.5-2.871-.419-1.849.259-2.782.341-1.79.843-2.729.926-1.948-.563-2.877-.478-1.769.935-2.7,1.019-1.962-.63-2.891-.544-1.888-.035-2.817.054-1.734,1.175-2.661,1.266-1.989-.8-2.916-.7-1.812.559-2.739.654-1.855.226-2.782.323-1.913-.2-2.84-.106-1.835.374-2.763.473-1.82.475-2.747.575-1.8.592-2.727.693-1.923-.245-2.848-.142-1.812.509-2.737.613-1.985-.63-2.91-.524-1.884.049-2.809.157-1.684,1.308-2.609,1.418-1.827.387-2.753.5-1.958-.424-2.883-.311-1.789.617-2.714.732-2.02-.772-2.943-.656-1.691,1.2-2.615,1.315-1.849.252-2.772.372-1.806.5-2.727.622-1.823.392-2.747.515-1.853.223-2.774.348-1.948-.292-2.869-.164-1.806.483-2.727.613-2-.58-2.924-.448-1.666,1.23-2.586,1.362-1.917-.1-2.838.03-2-.522-2.92-.387-1.643,1.3-2.564,1.435-1.855.22-2.774.358-2.022-.612-2.941-.472-1.736.813-2.655.955-1.682,1.051-2.6,1.2-1.888.061-2.805.206-1.913-.052-2.831.1-1.95-.215-2.867-.066-1.684,1.016-2.6,1.168-2.02-.517-2.935-.365-1.773.6-2.689.757-1.851.255-2.764.412-1.74.739-2.656.9-1.864.186-2.778.345-1.892.083-2.805.243-1.816.4-2.729.566-1.934-.1-2.846.069-1.635,1.153-2.547,1.32-2.03-.475-2.941-.306-1.678.962-2.589,1.132-1.783.526-2.693.7-1.825.353-2.737.527-1.886.112-2.8.287-1.674.935-2.584,1.114-1.8.433-2.714.612-2.148-.875-3.056-.695-1.569,1.323-2.477,1.508-2.037-.436-2.945-.252-1.89.123-2.8.311-1.785.51-2.691.7-1.544,1.374-2.449,1.565-1.969-.161-2.873.032-1.967-.142-2.871.052-1.608,1.12-2.514,1.317-1.944-.061-2.848.137-1.687.831-2.591,1.031-1.67.879-2.572,1.082-2.177-.826-3.079-.622-1.752.607-2.654.811-1.477,1.506-2.378,1.712-1.932,0-2.832.213-1.812.4-2.712.61-2.037-.323-2.937-.11-1.781.507-2.679.722-1.664.869-2.56,1.085-1.621.994-2.519,1.212-2.094-.47-2.99-.25-1.666.872-2.564,1.1-1.975-.071-2.873.154-1.464,1.467-2.362,1.693-1.783.5-2.679.732-1.864.262-2.761.492-1.886.2-2.78.436-1.755.586-2.65.82-1.942.049-2.834.286-1.952.032-2.844.27-1.411,1.553-2.3,1.793-1.921.12-2.811.363-1.777.519-2.667.762-1.919.13-2.809.375-1.913.152-2.8.4-1.623.931-2.512,1.181-1.878.252-2.764.5-1.6,1-2.483,1.249-2.063-.23-2.947.025-1.676.789-2.558,1.046-1.841.357-2.726.615-1.534,1.141-2.414,1.4-1.853.326-2.733.592-1.464,1.3-2.345,1.567-1.771.521-2.652.789-2.263-.686-3.142-.417-1.429,1.369-2.306,1.641-1.651.821-2.527,1.1-1.927.152-2.8.429-1.736.61-2.611.887-1.761.553-2.634.833-1.668.771-2.541,1.053-1.635.842-2.506,1.126-2.133-.308-3-.02-1.767.541-2.636.83-1.561,1-2.43,1.295-2.043-.079-2.91.213-1.392,1.376-2.259,1.67-1.684.718-2.549,1.016-2.177-.362-3.042-.064-1.332,1.487-2.195,1.788-1.89.272-2.751.576-1.86.341-2.72.647-1.715.652-2.574.96-1.771.532-2.63.842-1.788.5-2.646.806-1.407,1.288-2.263,1.6-1.977.112-2.83.428-1.812.451-2.665.771-1.271,1.543-2.123,1.864-1.9.275-2.749.6-2.026.032-2.873.357-1.3,1.46-2.15,1.788-1.538.984-2.385,1.313-1.757.556-2.6.887-2.082-.061-2.926.272-1.74.6-2.582.935-1.314,1.4-2.154,1.739-1.816.455-2.654.794-1.672.723-2.51,1.066-1.767.548-2.6.892-1.685.7-2.52,1.046-1.878.35-2.71.7-1.561.924-2.391,1.276-1.74.6-2.57.958-1.4,1.207-2.224,1.563c-.842.362-2.175-.149-3,.211-.84.365-1.186,1.572-2.01,1.933s-1.682.708-2.5,1.073-2.072.051-2.893.417-1.711.668-2.529,1.038c-.838.377-1.316,1.337-2.136,1.71-.836.38-1.637.8-2.455,1.173s-1.582.886-2.4,1.264c-.832.385-1.958.275-2.77.656-.83.389-1.831.487-2.64.87-.828.39-.939,1.9-1.746,2.288-.826.394-2.164-.041-2.969.346-.822.4-1.182,1.5-1.981,1.888-.822.4-1.816.512-2.613.9-.822.406-1.74.635-2.535,1.031-.82.409-1.454,1.073-2.245,1.47-.82.412-1.606.847-2.4,1.249-.818.416-1.905.406-2.693.81-.816.421-1.878.456-2.659.864-.816.426-.993,1.741-1.771,2.151-.815.429-1.991.3-2.762.717-.815.434-1.277,1.32-2.043,1.734-.813.439-1.789.605-2.549,1.021-.814.446-1.555.94-2.309,1.357-.82.455-1.68.791-2.426,1.213-.822.463-1.575.94-2.309,1.36-.828.475-1.544.994-2.261,1.411-.842.492-1.925.541-2.613.95-.892.531-1.631,1.028-2.259,1.411-1.5.916-4.233,1.25-4.577,2.414a3.181,3.181,0,0,1-2.5,2.48A4.252,4.252,0,0,0,0,263.145H812.314s-.2-1.953-.2-3.171-.058-1.219-.058-2.437.122-1.22.122-2.439-.169-1.219-.169-2.439.052-1.217.052-2.435.146-1.219.146-2.435-.869-1.219-.869-2.435.824-1.219.824-2.437-.688-1.219-.688-2.437-.142-1.218-.142-2.437-.008-1.22-.008-2.44-.332-1.219-.332-2.437.737-1.219.737-2.437-.274-1.217-.274-2.435.758-1.218.758-2.439-.715-1.213-.715-2.427-.076-1.215-.076-2.429.084-1.215.084-2.43,1.087-1.217,1.087-2.434-.583-1.217-.583-2.435.08-1.222.08-2.442-.115-1.218-.115-2.437-.714-1.217-.714-2.435.424-1.215.424-2.432-.624-1.217-.624-2.434.29-1.218.29-2.435.556-1.22.556-2.44-.432-1.22-.432-2.44.251-1.22.251-2.439.636-1.218.636-2.437-.908-1.218-.908-2.437-.272-1.222-.272-2.442.169-1.22.169-2.442.292-1.219.292-2.439.018-1.22.018-2.44.5-1.222.5-2.444-.908-1.22-.908-2.44.552-1.222.552-2.444.247-1.222.247-2.444-.237-1.222-.237-2.444-.737-1.219-.737-2.439.723-1.219.723-2.437.71-1.224.71-2.445-.262-1.222-.262-2.442-1.234-1.224-1.234-2.445.282-1.224.282-2.449-.3-1.222-.3-2.444.57-1.225.57-2.451-.589-1.284-.463-2.506c.13-1.249,1.065-1.22.747-2.415" transform="translate(0 82.854)" fill="#a2cf82"/>
          <path id="パス_2615" data-name="パス 2615" d="M.64,140.438c.275-1.193.977.088,2.458-.647.6-.3.841-1.7,1.72-2.094.666-.3,1.561-.3,2.4-.644.7-.286,1.47-.57,2.291-.881.718-.272,1.453-.657,2.269-.945.732-.259,1.647-.1,2.46-.373.742-.247,1.407-.845,2.218-1.1.75-.233,1.659-.054,2.47-.294.755-.225,1.48-.656,2.291-.884.762-.215,1.673.032,2.485-.186.767-.2,1.367-1.137,2.179-1.344.77-.2,1.732.3,2.544.1.774-.188,1.382-1.164,2.195-1.352.777-.181,1.592-.3,2.406-.477.781-.172,1.673.088,2.487-.083.784-.166,1.662.069,2.477-.095.787-.157,1.382-1.359,2.2-1.516.789-.152,1.774.669,2.59.521.791-.145,1.5-.784,2.32-.928.792-.139,1.517-.762,2.333-.9.794-.134,1.767.759,2.585.629.8-.128,1.536-.671,2.354-.8.8-.123,1.534-.715,2.352-.835.8-.117,1.654.091,2.473-.024.8-.112,1.678.3,2.5.188.8-.106,1.564-.554,2.384-.659.8-.1,1.686.426,2.506.324.8-.1,1.59-.36,2.409-.456.8-.093,1.561-.624,2.382-.715.8-.09,1.674.4,2.5.314.8-.085,1.561-.678,2.382-.759.8-.081,1.607-.267,2.426-.345s1.668.387,2.489.313c.8-.073,1.534-1.041,2.352-1.11s1.605-.3,2.423-.368,1.613-.223,2.433-.287,1.679.683,2.5.624c.806-.059,1.637.152,2.458.1s1.563-1.006,2.384-1.058,1.664.559,2.485.51,1.641.181,2.462.135,1.578-1,2.4-1.043,1.646.272,2.468.232,1.6-.723,2.423-.761,1.684,1.191,2.507,1.158,1.613-.463,2.436-.493,1.6-.782,2.426-.811,1.637.333,2.457.308,1.641.514,2.462.492,1.612-.607,2.433-.625,1.622-.406,2.443-.423,1.649.835,2.47.821,1.62-.784,2.445-.8,1.646.938,2.47.928,1.632-.085,2.455-.091,1.624-.762,2.445-.767,1.635.908,2.457.9,1.634-.578,2.458-.578,1.635.515,2.46.517,1.632.015,2.455.02,1.639-.007,2.465,0,1.644-.49,2.47-.482c.8.008,1.6.394,2.411.4s1.61-.167,2.419-.155,1.619-.59,2.428-.576,1.6.732,2.406.747,1.622-.593,2.431-.576,1.59.918,2.4.936,1.632-.923,2.441-.9,1.6.451,2.409.473,1.6.4,2.409.424,1.632-.737,2.443-.713,1.607.164,2.416.191,1.62-.247,2.431-.218,1.605.208,2.416.237,1.6.375,2.409.406,1.61.051,2.421.083,1.59.559,2.4.592,1.649-.862,2.458-.828,1.6.421,2.408.456,1.585.635,2.4.673,1.652-.984,2.458-.945,1.554,1.122,2.362,1.163,1.635-.556,2.443-.515,1.573.7,2.381.744,1.615-.113,2.423-.069,1.583.478,2.391.524,1.613-.039,2.421.007,1.659-.835,2.467-.789,1.558.943,2.365.992,1.6.257,2.406.306,1.6.169,2.411.22,1.644-.466,2.453-.416l2.416.159c.8.052,1.657-.617,2.467-.563s1.559.848,2.369.9,1.588.412,2.4.468,1.647-.438,2.457-.38,1.581.532,2.389.59,1.6.279,2.408.338,1.608.157,2.418.218,1.669-.644,2.479-.583,1.526,1.141,2.332,1.2,1.7-1.022,2.5-.958,1.576.512,2.384.576,1.656-.48,2.463-.416,1.512,1.31,2.32,1.376,1.639-.226,2.446-.159,1.656-.412,2.465-.345,1.586.417,2.4.487,1.556.769,2.365.84,1.63-.088,2.44-.015,1.669-.485,2.478-.412,1.548.791,2.355.864,1.575.517,2.382.592,1.642-.2,2.45-.123,1.661-.36,2.47-.284,1.63-.032,2.44.046,1.549.857,2.359.935,1.632-.066,2.441.014,1.578.526,2.389.607,1.683-.5,2.5-.419,1.607.259,2.418.341,1.556.843,2.372.926,1.693-.563,2.5-.478,1.537.935,2.345,1.019,1.7-.63,2.512-.544,1.641-.035,2.448.054,1.507,1.175,2.313,1.266,1.728-.8,2.534-.7,1.575.559,2.381.654,1.612.226,2.418.323,1.663-.2,2.468-.106,1.595.374,2.4.473,1.581.475,2.387.575,1.564.592,2.37.693,1.671-.245,2.475-.142,1.575.509,2.379.613,1.725-.63,2.529-.524,1.637.049,2.441.157,1.463,1.308,2.267,1.418,1.588.387,2.392.5,1.7-.424,2.506-.311,1.554.617,2.359.732,1.755-.772,2.558-.656,1.47,1.2,2.272,1.315,1.607.252,2.409.372,1.57.5,2.37.622,1.585.392,2.387.515,1.61.223,2.411.348,1.693-.292,2.494-.164,1.57.483,2.37.613,1.74-.58,2.541-.448,1.448,1.23,2.247,1.362,1.666-.1,2.467.03,1.737-.522,2.538-.387,1.428,1.3,2.228,1.435,1.612.22,2.411.358,1.757-.612,2.556-.472,1.509.813,2.308.955,1.461,1.051,2.261,1.2,1.641.061,2.438.206,1.662-.052,2.46.1,1.695-.215,2.492-.066,1.463,1.016,2.259,1.168,1.755-.517,2.551-.365,1.541.6,2.337.757,1.608.255,2.4.412,1.512.739,2.308.9,1.62.186,2.414.345,1.644.083,2.438.243,1.578.4,2.372.566,1.681-.1,2.473.069,1.421,1.153,2.213,1.32,1.764-.475,2.556-.306,1.458.962,2.25,1.132,1.549.526,2.34.7,1.586.353,2.379.527,1.639.112,2.431.287,1.455.935,2.245,1.114,1.568.433,2.359.612,1.867-.875,2.656-.695,1.363,1.323,2.153,1.508,1.771-.436,2.56-.252,1.642.123,2.431.311,1.551.51,2.338.7,1.341,1.374,2.129,1.565,1.712-.161,2.5.032,1.71-.142,2.5.052,1.4,1.12,2.184,1.317,1.69-.061,2.475.137,1.466.831,2.252,1.031,1.451.879,2.235,1.082,1.892-.826,2.676-.622,1.522.607,2.306.811,1.284,1.506,2.066,1.712,1.679,0,2.462.213,1.575.4,2.357.61,1.771-.323,2.553-.11,1.548.507,2.328.722,1.446.869,2.225,1.085,1.409.994,2.19,1.212,1.82-.47,2.6-.25,1.448.872,2.228,1.1,1.717-.071,2.5.154,1.272,1.467,2.053,1.693,1.549.5,2.328.732,1.62.262,2.4.492,1.639.2,2.416.436,1.526.586,2.3.82,1.688.049,2.463.286,1.7.032,2.472.27,1.227,1.553,2,1.793,1.669.12,2.443.363,1.544.519,2.318.762,1.668.13,2.441.375,1.662.152,2.435.4,1.411.931,2.183,1.181,1.632.252,2.4.5,1.389,1,2.158,1.249,1.793-.23,2.561.025,1.456.789,2.223,1.046,1.6.357,2.369.615,1.333,1.141,2.1,1.4,1.61.326,2.375.592,1.272,1.3,2.038,1.567,1.539.521,2.3.789,1.967-.686,2.73-.417,1.242,1.369,2,1.641,1.435.821,2.2,1.1,1.674.152,2.435.429,1.509.61,2.269.887,1.531.553,2.289.833,1.45.771,2.208,1.053,1.421.842,2.178,1.126,1.853-.308,2.61-.02,1.536.541,2.291.83,1.357,1,2.112,1.295,1.776-.079,2.529.213,1.21,1.376,1.963,1.67,1.463.718,2.215,1.016,1.892-.362,2.644-.064,1.157,1.487,1.907,1.788,1.642.272,2.391.576,1.617.341,2.364.647,1.49.652,2.237.96,1.539.532,2.286.842,1.554.5,2.3.806,1.223,1.288,1.967,1.6,1.718.112,2.46.428,1.575.451,2.316.771,1.1,1.543,1.845,1.864,1.649.275,2.389.6,1.76.032,2.5.357,1.132,1.46,1.869,1.788,1.336.984,2.073,1.313,1.527.556,2.262.887,1.81-.061,2.543.272,1.512.6,2.244.935,1.142,1.4,1.872,1.739,1.578.455,2.306.794,1.453.723,2.181,1.066,1.536.548,2.26.892,1.465.7,2.19,1.046,1.632.35,2.355.7,1.357.924,2.078,1.276,1.512.6,2.234.958,1.215,1.207,1.933,1.563,1.891-.149,2.607.211,1.031,1.572,1.747,1.933,1.461.708,2.176,1.073,1.8.051,2.514.417,1.487.668,2.2,1.038c.728.377,1.144,1.337,1.857,1.71s1.423.8,2.134,1.173,1.375.886,2.083,1.264c.723.385,1.7.275,2.408.656.721.389,1.591.487,2.294.87.72.39.816,1.9,1.517,2.288.718.394,1.88-.041,2.58.346.715.4,1.027,1.5,1.722,1.888.715.4,1.578.512,2.271.9.715.406,1.512.635,2.2,1.031.713.409,1.264,1.073,1.951,1.47.713.412,1.4.847,2.082,1.249.711.416,1.656.406,2.34.81.71.421,1.632.456,2.311.864.71.426.863,1.741,1.539,2.151.708.429,1.73.3,2.4.717.708.434,1.11,1.32,1.776,1.734.706.439,1.554.605,2.215,1.021.708.446,1.352.94,2.007,1.357.713.455,1.46.791,2.109,1.213.715.463,1.369.94,2.007,1.36.72.475,1.341.994,1.965,1.411.732.492,1.673.541,2.271.95.776.531,1.417,1.028,1.963,1.411,1.3.916,3.679,1.25,3.978,2.414a3.015,3.015,0,0,0,2.171,2.48,4.039,4.039,0,0,1,2.075,2.244H.24s.176-1.953.176-3.171.051-1.219.051-2.437S.36,256.317.36,255.1s.147-1.219.147-2.439-.046-1.217-.046-2.435-.127-1.219-.127-2.435.755-1.219.755-2.435-.716-1.219-.716-2.437.6-1.219.6-2.437.123-1.218.123-2.437.007-1.22.007-2.44.289-1.219.289-2.437-.64-1.219-.64-2.437.238-1.217.238-2.435-.659-1.218-.659-2.439.622-1.213.622-2.427.066-1.215.066-2.429-.073-1.215-.073-2.43S0,217.351,0,216.135s.507-1.217.507-2.435-.069-1.222-.069-2.442.1-1.218.1-2.437.62-1.217.62-2.435-.368-1.215-.368-2.432.542-1.217.542-2.434-.252-1.218-.252-2.435S.6,197.864.6,196.643s.375-1.22.375-2.44-.218-1.22-.218-2.439S.2,190.546.2,189.327s.789-1.218.789-2.437.237-1.222.237-2.442-.147-1.22-.147-2.442-.253-1.219-.253-2.439-.015-1.22-.015-2.44S.373,175.9.373,174.683s.789-1.22.789-2.44-.48-1.222-.48-2.444-.215-1.222-.215-2.444.206-1.222.206-2.444.64-1.219.64-2.439-.629-1.219-.629-2.437-.617-1.224-.617-2.445S.3,156.368.3,155.148,1.37,153.924,1.37,152.7s-.245-1.224-.245-2.449.257-1.222.257-2.444-.5-1.225-.5-2.451.512-1.284.4-2.506c-.113-1.249-.926-1.22-.649-2.415" transform="translate(498.51 82.854)" fill="#a2cf82"/>
          <path id="パス_2625" data-name="パス 2625" d="M116.208.019l4.264,4.019,3,5.08.968,5.768-2.671,5.224-.017.039-4.886-3.4-2.8-5.21.056-5.959Z" transform="translate(577.159 0.013)" fill="#a2cf82"/>
          <g id="グループ_2402" data-name="グループ 2402" transform="translate(697.775 164.872)">
            <path id="パス_2632" data-name="パス 2632" d="M140.941,106.2c.534.591,1.044,1.136,1.461,1.7a19.891,19.891,0,0,1,1.233,1.866,18.375,18.375,0,0,1,1.007,2,20.683,20.683,0,0,1,.743,2.111c.242.789.444,1.5.625,2.128a22.651,22.651,0,0,0,.853,2.239c.28.662.625,1.4.938,2.207.28.722.542,1.491.787,2.27a22.37,22.37,0,0,1,.583,2.331,12.534,12.534,0,0,1,.265,2.385,6.2,6.2,0,0,1-.38,2.346,3.866,3.866,0,0,1-1.488,1.818,9.48,9.48,0,0,1-1.98,1.033,16.216,16.216,0,0,1-2.159.613,21.273,21.273,0,0,1-2.222.346c-.733.076-1.487.1-2.245.1a21.686,21.686,0,0,1-2.245-.1,18.769,18.769,0,0,1-2.22-.363,15.1,15.1,0,0,1-2.147-.659,11.463,11.463,0,0,1-2.005-1,3.991,3.991,0,0,1-1.706-2.6,21.321,21.321,0,0,1-.368-2.3,22.494,22.494,0,0,1-.111-2.329,21.574,21.574,0,0,1,.159-2.332,20.218,20.218,0,0,1,.434-2.3,19.237,19.237,0,0,1,.666-2.239c.284-.769.52-1.474.723-2.126.245-.789.411-1.511.588-2.168.213-.788.389-1.5.593-2.167a13.715,13.715,0,0,1,.8-2.082,11.449,11.449,0,0,1,1.227-1.859,17.46,17.46,0,0,1,1.485-1.665c.476-.477.987-1.016,1.612-1.558a1.632,1.632,0,0,1,2.6.086c.578.576,1.156,1.443,1.9,2.265" transform="translate(-110.898 -81.548)" fill="#d4e8c4"/>
            <path id="パス_2633" data-name="パス 2633" d="M169.372,117.543a5.588,5.588,0,0,0,1.926-.984,5.7,5.7,0,0,0,1.341-1.693,5.775,5.775,0,0,0,.747-2.031,5.469,5.469,0,0,0-.169-2.17,5.4,5.4,0,0,0-1.066-1.883c-.466-.57-.975-1.153-1.5-1.761-.49-.566-.985-1.163-1.521-1.751-.509-.559-1.056-1.107-1.6-1.677-.527-.553-1.073-1.105-1.627-1.66s-1.095-1.088-1.659-1.626-1.122-1.061-1.7-1.577S161.4,97.686,160.8,97.2s-1.188-1.006-1.8-1.465-1.252-.926-1.889-1.349c-.654-.434-1.318-.838-1.98-1.215-.684-.389-1.407-.678-2.1-1a22.491,22.491,0,0,0-2.117-.958,17.2,17.2,0,0,0-2.25-.59,13.4,13.4,0,0,0-2.308-.2,11.045,11.045,0,0,0-2.3.157,24.3,24.3,0,0,0-2.365.573c-.772.225-1.539.488-2.308.782-.752.287-1.507.59-2.25.935s-1.488.656-2.208,1.043-1.407.818-2.1,1.24-1.375.874-2.044,1.33-1.311.972-1.953,1.458-1.3,1-1.913,1.516c-.634.531-1.264,1.044-1.848,1.584-.613.564-1.184,1.144-1.735,1.705-.591.6-1.161,1.18-1.669,1.764-.564.649-1.091,1.269-1.541,1.881a18.435,18.435,0,0,0-1.338,2.03,7.083,7.083,0,0,0-.8,2.283,1.746,1.746,0,0,0,.873,2.062c.514.243,1.325.583,2.382,1,.7.272,1.5.583,2.409.9.752.264,1.578.526,2.46.8.777.247,1.6.524,2.467.774.8.23,1.654.374,2.521.6.808.21,1.627.482,2.489.688.818.2,1.659.38,2.521.564q1.239.266,2.531.5c.836.154,1.684.319,2.549.451q1.265.19,2.568.341c.846.1,1.71.117,2.577.183.852.066,1.706.215,2.575.248s1.718-.056,2.585-.051,1.718,0,2.585-.027,1.718-.051,2.582-.1,1.72-.059,2.58-.14,1.706-.225,2.563-.343,1.7-.272,2.546-.431,1.7-.264,2.541-.466,1.659-.458,2.487-.708" transform="translate(-117.942 -90.41)" fill="#bfdea7"/>
            <g id="グループ_2391" data-name="グループ 2391" transform="translate(0.006 0.019)" clip-path="url(#clip-path-3)">
              <path id="パス_2634" data-name="パス 2634" d="M133.941,95.422a4.034,4.034,0,1,1-8.056,0,4.037,4.037,0,1,1,8.056,0" transform="translate(-112.472 -89.939)" fill="#8fc76c"/>
              <path id="パス_2635" data-name="パス 2635" d="M151.461,107.545a5.4,5.4,0,1,1-5.395-5.788,5.615,5.615,0,0,1,5.395,5.788" transform="translate(-102.269 -82.599)" fill="#8fc76c"/>
              <path id="パス_2636" data-name="パス 2636" d="M147.589,96.353a4.828,4.828,0,1,1-4.8-5.136,4.986,4.986,0,0,1,4.8,5.136" transform="translate(-104.15 -89.872)" fill="#8fc76c"/>
              <path id="パス_2637" data-name="パス 2637" d="M131.161,106.073a6.406,6.406,0,0,1-.686,2.858,5.948,5.948,0,0,1-2.012,2.133,5.342,5.342,0,0,1-2.8.754c-.982,0-1.644-.838-2.43-1.34a4.541,4.541,0,0,1-1.686-1.913,5.414,5.414,0,0,1-1.083-2.491,5.981,5.981,0,0,1,.546-2.773,5.483,5.483,0,0,1,2.011-1.965,4.781,4.781,0,0,1,2.642-.74,5.072,5.072,0,0,1,2.759.558,5.769,5.769,0,0,1,1.977,2.1,6.3,6.3,0,0,1,.765,2.817" transform="translate(-116.212 -83.401)" fill="#8fc76c"/>
            </g>
            <path id="パス_2639" data-name="パス 2639" d="M141.755,102.525a5.561,5.561,0,0,1,.035,1.406,5.438,5.438,0,0,1-.656,1.244c-.236.392-.794.5-1.124.816s-.468.848-.87,1.071-.907.106-1.357.223c-.432.11-.828.483-1.3.483a5.422,5.422,0,0,1-1.331-.348,5.84,5.84,0,0,1-1.372-.269c-.4-.225-.558-.781-.885-1.1s-.873-.46-1.11-.852a5.541,5.541,0,0,1-.649-1.262c-.12-.433.193-.95.193-1.418a5.227,5.227,0,0,1-.01-1.367,5.363,5.363,0,0,1,.417-1.344,5.466,5.466,0,0,1,.911-1.083,5.616,5.616,0,0,1,1.124-.853,5.832,5.832,0,0,1,1.292-.6c.433-.112.953.24,1.421.24a5.843,5.843,0,0,1,1.38-.076,5.472,5.472,0,0,1,1.262.564c.4.225.573.718.9,1.033s.982.375,1.216.767.078.962.2,1.406a4.837,4.837,0,0,1,.306,1.31" transform="translate(-108.861 -85.684)" fill="#8fc76c"/>
          </g>
          <g id="グループ_2403" data-name="グループ 2403" transform="translate(562.142)">
            <path id="パス_2616" data-name="パス 2616" d="M92.919,213.216c-.546-.586.307-.837.377-1.636s.057-.8.128-1.6-.071-.811,0-1.611.1-.8.174-1.6-.047-.81.024-1.609.181-.789.252-1.589.042-.8.112-1.6.243-.784.314-1.585.063-.8.132-1.6-.258-.828-.188-1.627.047-.8.118-1.6.022-.8.091-1.6.27-.781.341-1.58-.059-.806.01-1.6.378-.769.448-1.563.014-.8.083-1.6.1-.793.169-1.589.047-.8.117-1.592-.12-.813-.051-1.609,0-.8.069-1.6.247-.781.318-1.578.005-.8.074-1.6-.074-.813-.005-1.612.039-.8.108-1.6.171-.793.24-1.594.3-.781.368-1.58-.24-.826-.169-1.626.4-.769.473-1.568-.147-.816-.078-1.616-.044-.808.025-1.606.335-.776.405-1.573.017-.8.086-1.6.132-.794.2-1.594-.029-.811.042-1.612-.11-.818-.039-1.621.2-.789.265-1.59.1-.8.172-1.6-.1-.815-.03-1.614.258-.784.328-1.584.235-.786.3-1.587-.046-.813.024-1.614-.063-.815.007-1.617-.057-.813.014-1.614.108-.8.179-1.6.169-.793.24-1.594.123-.8.193-1.6.135-.8.2-1.6.186-.791.255-1.594-.1-.818-.034-1.621.061-.8.132-1.606.155-.793.225-1.594.12-.794.189-1.594-.184-.823-.115-1.622.074-.8.145-1.609.007-.808.078-1.609.38-.776.449-1.578.081-.8.15-1.609.029-.808.1-1.611.095-.8.164-1.607.086-.8.157-1.6-.115-.821-.046-1.627.132-.8.2-1.607.088-.808.157-1.617.326-.826.2-1.629-.62-.206-1.436-.848c-.353-.279-.61-.823-1.1-1.2-.385-.3-.75-.708-1.213-1.066-.4-.306-1.012-.382-1.461-.725q-.606-.466-1.272-.975c-.411-.313-.781-.712-1.223-1.046-.416-.313-.738-.777-1.179-1.107-.419-.314-1.02-.4-1.461-.73-.422-.314-.792-.717-1.233-1.041-.424-.313-.809-.7-1.25-1.017s-.922-.544-1.363-.864-.755-.779-1.2-1.1-.99-.439-1.429-.754-.887-.588-1.328-.9-.811-.7-1.254-1.009-.808-.71-1.25-1.017-1.009-.421-1.455-.727-.693-.886-1.139-1.19-1.051-.36-1.5-.662-.769-.776-1.215-1.075-.911-.57-1.36-.865-1.017-.411-1.468-.7-.87-.637-1.323-.928-.8-.755-1.255-1.043-1.019-.409-1.477-.693-.963-.5-1.423-.776-.853-.679-1.314-.957-.89-.622-1.353-.9-1-.429-1.468-.7-.944-.527-1.411-.791-.85-.7-1.32-.958-1.02-.387-1.492-.641-.987-.443-1.46-.688-.955-.505-1.431-.744-.882-.661-1.362-.891-.987-.456-1.472-.679-.968-.493-1.453-.7c-.5-.216-1.044-.323-1.532-.521-.507-.2-1-.411-1.5-.595-.514-.189-.988-.3-1.485-.468a3.25,3.25,0,0,1,.607-1.462c.384-.7.657-.553,1.041-1.254s.333-.73.718-1.433.279-.762.664-1.467.181-.857.76-1.413.585.019,1.592.281c.439.113.9.493,1.5.654.471.125,1,.238,1.558.392.485.134,1.069.039,1.615.193.493.137,1.022.25,1.561.4.5.144.949.521,1.482.676.5.147,1.069.127,1.6.286.5.15,1.027.282,1.554.443.505.154,1.024.3,1.548.465.5.157.948.532,1.467.7s1.08.127,1.6.294,1,.4,1.514.566.98.446,1.5.62,1.068.2,1.581.373.936.581,1.448.762,1.029.321,1.537.507,1.022.335,1.529.522.966.487,1.472.679,1.007.385,1.51.583,1.1.162,1.6.365.917.619,1.418.825,1.036.331,1.532.543,1.073.259,1.566.477.879.7,1.368.921,1.009.4,1.5.634.963.5,1.445.739,1.117.2,1.595.441.87.681,1.341.935.865.679,1.33.943,1.068.328,1.526.6.97.505,1.418.793c.465.3.892.635,1.33.936.454.311.83.717,1.252,1.033.441.33,1.069.629,1.475.963-.057-.8-.492-.732-.738-1.5s-.335-.735-.581-1.5-.25-.762-.5-1.524-.162-.789-.409-1.551-.243-.762-.488-1.521-.26-.755-.507-1.516-.15-.789-.4-1.548-.4-.708-.645-1.467-.135-.794-.38-1.553-.3-.74-.542-1.5-.041-.825-.287-1.584-.174-.781-.421-1.54-.382-.715-.627-1.474-.27-.752-.515-1.513-.329-.733-.574-1.494-.035-.83-.282-1.59-.272-.754-.519-1.518-.324-.739-.571-1.5-.3-.747-.546-1.513-.142-.8-.389-1.558-.537-.669-.782-1.431-.059-.823-.3-1.584-.458-.695-.7-1.455-.242-.762-.487-1.524-.189-.779-.436-1.541-.171-.786-.417-1.548-.032-.831-.279-1.6-.485-.686-.732-1.45-.326-.74-.574-1.506.113-.881-.133-1.644-.468-.693-.715-1.455-.049-.828-.3-1.59-.24-.766-.487-1.528-.436-.7-.683-1.467-.329-.739-.576-1.5-.172-.791-.419-1.557-.405-.713-.652-1.477-.176-.788-.424-1.551-.172-.788-.419-1.553-.392-.718-.639-1.484-.11-.811-.356-1.577-.123-.8-.372-1.568-.324-.74-.571-1.506-.34-.737-.588-1.5-.221-.771-.468-1.535-.2-.777-.446-1.54-.426-.7-.672-1.469.09-.875-.159-1.643-.525-.674-.774-1.44-.123-.806-.37-1.57-.3-.752-.547-1.521,0-.847-.245-1.612-.446-.7-.694-1.469-.235-.767-.483-1.533-.436-.708-.684-1.477.1-.882-.149-1.651-.328-.747-.576-1.519-.961-.8-.637-1.54c.279-.635.75-.054,1.418-.238S75.5.71,76.17.526s.825-.739,1.45-.438c.735.352.512.769.921,1.472s.3.767.711,1.47.287.772.7,1.475.35.737.759,1.438.684.541,1.093,1.242.323.752.733,1.455.4.706.811,1.409.291.772.7,1.475.644.57,1.056,1.273.091.892.5,1.6.6.593,1.014,1.3.255.8.666,1.5.517.641.928,1.344.554.62.965,1.323.09.891.5,1.6.6.593,1.012,1.3.27.789.683,1.494.681.548,1.091,1.252.233.808.644,1.513.368.73.779,1.433.485.664.9,1.371.593.6,1.005,1.3.331.75.743,1.455.139.862.549,1.567.613.588,1.026,1.295.356.735.767,1.438.3.767.708,1.47.59.6,1,1.3.245.806.657,1.513.586.6,1,1.308.456.679.867,1.386.372.732.786,1.44.2.828.617,1.535.438.691.85,1.4.407.708.818,1.413.634.581,1.046,1.289.355.744.769,1.453.3.782.711,1.494.108,1.237.911,1.423c.779.181.752-.394,1.4-.859s.644-.478,1.3-.941.52-.652,1.174-1.117.8-.254,1.458-.718.5-.693,1.152-1.158.642-.485,1.3-.951.77-.3,1.426-.767.539-.625,1.193-1.092.846-.194,1.5-.659.485-.7,1.139-1.166.684-.419,1.338-.884.745-.336,1.4-.8.52-.652,1.174-1.117.613-.524,1.267-.989.865-.174,1.521-.639.664-.458,1.321-.924.556-.607,1.211-1.073.525-.649,1.179-1.115.787-.279,1.443-.744.568-.588,1.223-1.053.814-.242,1.47-.706.6-.549,1.255-1.016.542-.629,1.2-1.1.775-.3,1.431-.766.689-.419,1.345-.886.561-.6,1.216-1.066.806-.259,1.463-.725.463-.73,1.113-1.193.755-.321,1.407-.786.681-.433,1.336-.9.711-.39,1.37-.859.542-.625,1.2-1.09.774-.3,1.429-.762.654-.47,1.309-.936.471-.733,1.13-1.2.694-.414,1.352-.882.676-.441,1.333-.909.789-.286,1.448-.755.676-.444,1.333-.913.524-.657,1.183-1.126.634-.5,1.291-.965.688-.431,1.348-.9.776-.309,1.436-.779.666-.468,1.33-.94.534-1.535,1.215-1.09c.708.461.091.857-.01,1.7s-.147.837-.247,1.68-.375.813-.476,1.656-.032.855-.133,1.7.39,1.011.02,1.778c-.353.732-.634.6-1.215,1.166s-.826.316-1.407.884-.5.652-1.085,1.22-.4.754-.987,1.323-.632.519-1.216,1.09-.524.629-1.107,1.2-.7.446-1.282,1.014-.466.686-1.049,1.254-.791.353-1.372.921-.382.771-.963,1.339-.574.575-1.157,1.142-.738.406-1.321.973-.639.51-1.222,1.08-.412.745-1,1.315-.711.439-1.3,1.011-.625.527-1.208,1.1-.471.684-1.054,1.254-.536.617-1.118,1.185-.782.365-1.365.935-.453.7-1.036,1.271-.644.509-1.228,1.08-.569.585-1.156,1.156-.576.576-1.159,1.148-.463.693-1.048,1.262-.791.35-1.37.916-.446.7-1.027,1.268-.527.62-1.108,1.186-.794.35-1.377.918-.476.679-1.061,1.249-.674.482-1.26,1.053-.389.771-.971,1.342-.683.466-1.267,1.036-.64.512-1.223,1.082-.4.766-.988,1.337-.7.451-1.287,1.022-.519.641-1.1,1.212-.672.487-1.26,1.06-.574.585-1.161,1.158-.458.7-1.044,1.274-.792.36-1.377.931-.512.652-1.1,1.227-.666.5-1.255,1.07-.6.568-1.189,1.144-.828.475-1.037,1.274c-.2.782.384.706.622,1.479s.008.843.247,1.616.448.71.684,1.482-.042.862.2,1.636.177.794.416,1.57.22.782.458,1.558.505.695.743,1.47.318.75.556,1.524-.091.875.147,1.649.252.771.49,1.545.568.674.8,1.45.15.8.39,1.578.057.833.3,1.611.335.745.573,1.521.363.739.6,1.513-.068.87.171,1.646.282.764.522,1.541.306.755.544,1.533.2.789.438,1.565.331.747.571,1.524.429.718.667,1.5.044.835.282,1.609.069.826.306,1.6.252.772.49,1.546.282.766.52,1.543.355.742.593,1.518.068.83.306,1.607.39.732.63,1.513.1.821.336,1.6.4.728.639,1.506.4.727.634,1.5.3.762.536,1.543.2.793.443,1.573-.008.86.233,1.644.147.813.389,1.6c.238.764.348.478.654,1.472.13.428.5.879.674,1.472.14.463-.014,1.068.152,1.626.142.48.525.924.684,1.47.144.488.037,1.077.193,1.616.144.5.316,1,.468,1.538.142.5.262,1.021.411,1.553.142.5.323,1.006.47,1.535.139.5.258,1.026.4,1.553.139.505.541.95.683,1.477.137.507.258,1.029.4,1.555.135.509-.054,1.112.084,1.638.133.51.4.994.536,1.519.133.51.492.97.625,1.5s-.035,1.107.1,1.633.573.955.7,1.48.269,1.033.4,1.557-.084,1.119.042,1.644.275,1.031.4,1.557.378,1.007.5,1.533.38,1,.5,1.523.2,1.046.314,1.57.047,1.08.164,1.6.284,1.029.4,1.553.311,1.024.424,1.548.1,1.07.215,1.594.4,1.009.505,1.536.252,1.039.356,1.567-.132,1.117-.029,1.643.542.982.642,1.508.259,1.041.356,1.567.056,1.078.152,1.606.061,1.078.154,1.606.426,1.016.515,1.545-.061,1.1.027,1.628.436,1.017.52,1.548.162,1.063.245,1.594-.167,1.114-.088,1.644.4,1.029.471,1.562-.1,1.1-.027,1.631.223,1.056.292,1.589.015,1.082.079,1.614.378,1.038.441,1.572.182,1.063.238,1.6.046,1.078.1,1.612.086,1.071.135,1.606.066,1.078.11,1.614.078,1.077.117,1.611.157,1.07.191,1.6.11,1.073.139,1.607-.025,1.078,0,1.611-.049,1.082-.034,1.616-.041,1.075-.032,1.607-.052,1.077-.051,1.609.238,1.222.233,1.747c-.757.252-.85.039-1.647.044s-.8-.088-1.595-.083-.8-.179-1.6-.174-.8.005-1.6.01-.8-.085-1.6-.079-.8.267-1.6.272-.8.122-1.6.127-.8-.093-1.6-.088-.8-.262-1.6-.257-.8-.036-1.6-.03-.8.052-1.6.057-.8.108-1.6.113-.8.1-1.6.1-.8-.253-1.6-.248-.8.159-1.6.164-.8.046-1.6.051-.8.073-1.6.078-.8.088-1.6.093-.8-.064-1.6-.059-.8-.211-1.605-.206-.8.113-1.6.118-.8.233-1.6.237-.8-.2-1.6-.2-.8.179-1.6.184-.806-.34-1.608-.336-.8.117-1.6.122-.8.117-1.6.12-.8-.106-1.608-.1-.8-.056-1.605-.051-.8.259-1.607.264-.8-.176-1.6-.171-.8.22-1.608.225-.808-.333-1.614-.328a4.774,4.774,0,0,0-1.61.211c-.875.213-1.129.637-1.679.046" transform="translate(-30.749 0)" fill="#d4e8c4"/>
            <path id="パス_2617" data-name="パス 2617" d="M37.663,77.223l3.063-8.056,3.986-7.637,5.5-6.608,6.822-5.232,8.405-1.631,8.468,1.3.123.049-1.183,8.665L69.09,65.959l-6.17,6.153-7.905,3.656-8.606,1.349Z" transform="translate(-37.663 33.162)" fill="#a2cf82"/>
            <path id="パス_2618" data-name="パス 2618" d="M38.946,34.241l6.614,1.41,6.265,2.609,5.324,4.178,3.176,5.9.042,6.716.03-.064-6.8-.125-6.388-2.442-4.54-5.109-2.757-6.28Z" transform="translate(-36.778 23.627)" fill="#45b035"/>
            <path id="パス_2619" data-name="パス 2619" d="M58.451,32.045,63.2,36.315,67,41.377l2.411,5.81-.1,6.228L66.3,58.9l.015.162-5.412-3.414-3.921-4.989L55.42,44.487l.87-6.338Z" transform="translate(-25.419 22.112)" fill="#45b035"/>
            <path id="パス_2620" data-name="パス 2620" d="M87.65,16.219l6.082.232,5.9,1.264,5.293,2.827,3.852,4.556,1.206,5.9-.106.007-5.993.9-5.918-1.2L93.1,27.113l-3.264-5.121Z" transform="translate(-3.196 11.192)" fill="#a2cf82"/>
            <path id="パス_2621" data-name="パス 2621" d="M55.7,2.579l6.522,1.484L68.48,6.617l5.344,4.12L77.14,16.59l-.03,6.752-.019-.1-6.829.086L64,20.576l-4.778-4.889L56.666,9.3Z" transform="translate(-25.228 1.78)" fill="#a2cf82"/>
            <path id="パス_2622" data-name="パス 2622" d="M126.049,29.38l-4.972,4.1-5.52,3.138-6.163,1.369-6.221-.821-4.976-3.9.083.01,3.965-4.984,5.494-3.274,6.383-.456,6.206,1.627Z" transform="translate(4.076 16.95)" fill="#45b035"/>
            <path id="パス_2623" data-name="パス 2623" d="M78.821,81.72l-3.828-5.736L72.649,69.5l.612-6.772,4.1-5.445.017.156,4.8,4.969,1.9,6.628-1.455,6.806Z" transform="translate(-13.539 39.527)" fill="#45b035"/>
            <path id="パス_2624" data-name="パス 2624" d="M53.238,15.628l6.4-2.036L66.4,12.9l6.682,1.129L78.7,17.7l3.317,5.853-.032-.019L75.94,26.7l-6.782.837-6.522-2.109-5.324-4.355Z" transform="translate(-26.924 8.903)" fill="#a2cf82"/>
            <path id="パス_2626" data-name="パス 2626" d="M136.656,20.182l-5.023,3.975-5.454,3.218-6.13,1.612-6.238-1.017-4.859-4-.081.084,4.09-4.871,5.428-3.331,6.385-.595,6.126,1.894Z" transform="translate(11.437 10.528)" fill="#45b035"/>
            <path id="パス_2627" data-name="パス 2627" d="M94.075,75.53l44.14-17.661-2.889,6.262-38.2,28.1" transform="translate(1.234 39.932)" fill="#d4e8c4"/>
            <path id="パス_2628" data-name="パス 2628" d="M111.342,101.047l-5.092-7.766-3.158-8.641.759-9.072,5.655-7.095.017-.081,6.4,6.726,2.352,8.9-1.864,9.07Z" transform="translate(7.452 47.193)" fill="#45b035"/>
            <path id="パス_2629" data-name="パス 2629" d="M87.959,1.191,81.85,4.521,76.825,8.788l-4.371,4.888L70.719,20.03,72.4,26.407l-.03.125L78.8,24.681l5.42-3.914,2.751-6.011L88.29,8.264Z" transform="translate(-14.87 0.822)" fill="#a2cf82"/>
            <g id="グループ_2387" data-name="グループ 2387" transform="translate(55.949 2.402)" clip-path="url(#clip-path-4)">
              <path id="パス_2630" data-name="パス 2630" d="M72.666,26.267,88.081,1.42,75.906,7.1,70.28,18.937Z" transform="translate(-71.122 -1.422)" fill="#c6dda7"/>
            </g>
            <path id="パス_2647" data-name="パス 2647" d="M118.556,56.377l-3.409-9.55L110.291,38.1,101.7,33.062l-9.776,1.129-.027-.375.676,8L95.5,49.435l6.89,4.416,7.856,1.771Z" transform="translate(-0.268 22.814)" fill="#45b035"/>
            <path id="パス_2648" data-name="パス 2648" d="M91.41,33.459c-.169.593.385.4.855.8s.544.311,1.014.71.394.488.863.887.492.37.963.769.492.372.963.769.4.485.868.884.576.275,1.048.674.421.456.89.855.458.411.926.806.443.426.911.823.546.3,1.014.7.465.4.933.8.394.487.863.884.483.387.955.786.468.4.941.8.549.308,1.02.706.414.465.885.862.473.4.943.8.483.39.956.791.429.451.9.852.539.319,1.012.72.4.487.875.889.566.287,1.036.684.436.446.909.847.417.465.89.865.478.4.953.8.509.362.985.764.514.362.99.764.478,1.295.971.911c.524-.407-.174-.717-.345-1.359s-.2-.637-.373-1.281-.26-.622-.433-1.268-.108-.664-.282-1.311-.179-.646-.335-1.3-.137-.656-.275-1.31-.211-.641-.35-1.3.084-.725-.2-1.335c-.267-.573-.411-.487-.806-.982s-.346-.537-.745-1.034-.429-.472-.826-.967-.416-.485-.814-.984-.384-.514-.784-1.012-.358-.534-.759-1.036a9.211,9.211,0,0,0-.873-.943,7.4,7.4,0,0,0-.833-.794c-.441-.368-.517-.277-.958-.647s-.4-.417-.845-.789-.453-.357-.907-.713c-.483-.38-.47-.4-.965-.766s-.505-.357-1-.725-.517-.343-1.015-.712-.466-.416-.966-.786-.434-.492-1.031-.668c-.569-.169-.573.047-1.164.095s-.6-.068-1.2-.022-.59.1-1.183.145-.6-.005-1.189.041-.586.118-1.178.166-.591.074-1.186.122-.6-.039-1.2.008-.6.25-1.191.149c-.635-.108-.965-.466-1.129.11" transform="translate(-0.625 22.483)" fill="#acce81"/>
            <path id="パス_2649" data-name="パス 2649" d="M59.96,84.315l8.377-5.525,6.337-7.235,2.266-9.038-2.6-9.028.056.061-7.272,2.635L60.9,60.909l-2.963,7.338.052,7.919Z" transform="translate(-23.681 36.91)" fill="#45b035"/>
            <path id="パス_2650" data-name="パス 2650" d="M74.548,51.231c-.657-.308-.27.72-.581,1.376s-.444.595-.757,1.252-.473.624-.519,1.35c-.027.45.515.3.487.749-.047.737-.318.674-.632,1.342s-.389.632-.7,1.3-.336.657-.652,1.323-.3.676-.613,1.345-.176.733-.492,1.4-.377.634-.691,1.3-.292.676-.608,1.342-.269.691-.585,1.359-.323.662-.639,1.328-.453.6-.767,1.266-.2.722-.512,1.389-.28.686-.6,1.355-.314.668-.63,1.337-.387.634-.7,1.3-.39.637-.706,1.306-.193.728-.509,1.4-.4.629-.715,1.3-.382.635-.7,1.3-.216.72-.534,1.391-.358.652-.676,1.323-.314.676-.634,1.35-1.174.853-.571,1.289c.649.472.7-.25,1.392-.651s.627-.521,1.323-.921.728-.352,1.426-.754.684-.428,1.392-.815c.566-.308.561-.318,1.135-.61s.561-.324,1.137-.619.649-.157,1.137-.581a4.25,4.25,0,0,0,.887-1.105c.422-.575.36-.622.782-1.2s.529-.5.953-1.08.419-.583.845-1.163.35-.637.775-1.219.58-.478.948-1.1a10.327,10.327,0,0,0,.65-1.332c.313-.673.313-.673.627-1.344s.265-.695.558-1.376.216-.715.49-1.408.294-.686.566-1.381.309-.683.583-1.379.544-.644.571-1.393c.024-.678-.292-.625-.519-1.266s-.155-.662-.382-1.3-.3-.617-.525-1.259-.1-.69-.323-1.333-.252-.637-.48-1.281-.4-.595-.519-1.268a8.1,8.1,0,0,1-.166-1.628,4.366,4.366,0,0,1,.113-1.621c.189-.908.6-1.344-.145-1.692" transform="translate(-22.878 35.312)" fill="#acce81"/>
            <path id="パス_2651" data-name="パス 2651" d="M103.757,6.586l-2.84,5.976-.23,6.595,1.727,6.336,5.477,3.84.167-.286,3.171-4.31.931-5.229-1.09-5.193-3.2-4.3Z" transform="translate(5.794 4.545)" fill="#70b03e"/>
            <path id="パス_2652" data-name="パス 2652" d="M108.122,29.641c.5-.36-.024-.558-.139-1.161s-.216-.583-.331-1.185-.079-.612-.194-1.215-.068-.615-.182-1.222-.142-.6-.257-1.212-.179-.595-.294-1.2-.054-.619-.169-1.224-.159-.6-.274-1.2-.017-.629-.132-1.237-.133-.605-.25-1.213-.154-.6-.269-1.208-.1-.612-.218-1.222-.189-.595-.306-1.2-.059-.62-.176-1.229-.049-.62-.166-1.227-.248-.585-.363-1.2-.024-.629-.14-1.24-.211-.595-.328-1.208.419-1.024-.172-1.224c-.517-.174-.171.5-.394,1s-.238.493-.461.992-.22.5-.443,1-.28.475-.519.968c-.286.595-.233.622-.534,1.208a4.022,4.022,0,0,0-.561,1.18,3.11,3.11,0,0,0-.068,1.148c0,.585-.069.585-.073,1.171s.025.586.022,1.173l0,1.175a7.114,7.114,0,0,0-.037,1.183,11.641,11.641,0,0,0,.389,1.47c.144.742.123.745.291,1.482.149.661.12.668.291,1.322s.139.664.309,1.322-.029.764.345,1.328c.323.488.5.335.983.664s.537.248,1.019.58.426.416.909.749.487.328.97.661.6.194.992.637c.419.478.456.958.933.613" transform="translate(5.783 4.542)" fill="#acce81"/>
            <path id="パス_2654" data-name="パス 2654" d="M137.593,134.553l-9.662,1.874-9.88-.549-8.551-4.708-4.815-8.486.017-.152,9.394-3.424,9.819,1.371,8.144,5.756Z" transform="translate(8.549 82.188)" fill="#45b035"/>
            <path id="パス_2655" data-name="パス 2655" d="M101.1,31.408,39.732,9.563l4.107,6.591L98.148,45.73" transform="translate(-36.237 6.599)" fill="#d4e8c4"/>
            <path id="パス_2656" data-name="パス 2656" d="M51.571,31.229l5.687,3.85,6.348,3.284,7.093.161,7.011-.889,4.971-5.166.123-.1-5.258-4.906-6.557-2.63-7.177-.752-6.7,2.9Z" transform="translate(-28.073 16.617)" fill="#a2cf82"/>
            <g id="グループ_2399" data-name="グループ 2399" transform="translate(23.204 40.73)" clip-path="url(#clip-path-5)">
              <path id="パス_2657" data-name="パス 2657" d="M82.785,29.528,51.4,28.325l11.769,8.359L77.208,35.65Z" transform="translate(-51.397 -21.185)" fill="#c6dda7"/>
            </g>
          </g>
        </g>
      </g>
    </g>
  </g>
</svg>
