<svg xmlns="http://www.w3.org/2000/svg" width="358.831" height="113.693" viewBox="0 0 358.831 113.693">
  <g id="secret_item2_title" transform="translate(-3763.195 -4821.5)">
    <g id="グループ_3105" data-name="グループ 3105" transform="translate(3763.48 4828.646)">
      <path id="パス_5407" data-name="パス 5407" d="M34.485,21.2c-.652.173-2.084,2.779-1.319,3.139,1.322,1.245,6.679,5.131,7.917,6.295a7.35,7.35,0,0,0,4.288,2.553L47,31.556s.73-3.646-.476-3.311c-2.744-1.393-6.365-5.357-9.722-7.635-.554-1.005-1.566.391-2.32.589" transform="translate(82.234 41.3)" fill="#370402"/>
      <path id="パス_5408" data-name="パス 5408" d="M34.485,21.2c-.652.173-2.084,2.779-1.319,3.139,1.322,1.245,6.679,5.131,7.917,6.295a7.35,7.35,0,0,0,4.288,2.553L47,31.556s.73-3.646-.476-3.311c-2.744-1.393-6.365-5.357-9.722-7.635C36.252,19.605,35.24,21,34.485,21.2Z" transform="translate(82.234 41.3)" fill="#370402" stroke="#fff" stroke-linecap="round" stroke-linejoin="round" stroke-width="0.57"/>
      <path id="パス_5409" data-name="パス 5409" d="M38.623,42.512a38.113,38.113,0,0,0,3.727-.832c.078-.1,6.806-2.306,6.774-2.349.8-.966,1.661-1.985,2.521-2.983-.247-1.248-.564-1.848-.427-2.335.839-2.923,1.224-5.956,2.691-8.647a8.457,8.457,0,0,0,.628-2.5c.691-2.856-.113-5.635-1.682-8.682-.275-1.594-1.675-3.107-4.45-2.271-6.538,1.044-12.773,2.352-17.661,5.713C28.121,23.906,25.737,30.451,27,37.987a7.176,7.176,0,0,0,1.351.917,6.42,6.42,0,0,0,1.319.282c2.631-.677,1.262-2.938,2.035-3.71,1.728-.712,3.1-1.167,4.359-1.788,2.366-1.139,4.676-2.366,7.078-3.481a4.18,4.18,0,0,1,1.266-.085c.5.331,1.058.695,1.527,1.005.617,1.418.825,2.687-.37,3.738-1.513.589-3.033,1.171-4.521,1.8-1.661.716-3.167,1.862-4.944,2.134s-4.951,1.083-5.843,2.581c.183.624,1.361.98,1.548,1.619,1.143.645,5.949-.381,6.82-.49M35,17.823a49.878,49.878,0,0,0,5.089-1.59c1.344-.525,2.9-1.679,4.366-2.007,1.259-.275,3.625-1,4.274-.035a3.415,3.415,0,0,1,.839,3.981c-9.807,2.564-11.641,5.54-17.29,5.491-.384-2.86-.257-5.949,2.722-5.84M31.263,32.51c-1.978-.1-.444-2.2-.384-3.086a10.482,10.482,0,0,1,1.245-3.551c1.64-1.143,3.837-.413,5.54-1.178a26.665,26.665,0,0,1,4.651-1.675,25.247,25.247,0,0,0,7.578-2.162c1.569,1.358-1.019,4.9-1.58,5.942-3.181.942-5.956,1.739-10.107,3.086-.8.515-5.649,1.763-6.944,2.624" transform="translate(66.328 19.635)" fill="#370402"/>
      <path id="パス_5410" data-name="パス 5410" d="M38.623,42.512a38.113,38.113,0,0,0,3.727-.832c.078-.1,6.806-2.306,6.774-2.349.8-.966,1.661-1.985,2.521-2.983-.247-1.248-.564-1.848-.427-2.335.839-2.923,1.224-5.956,2.691-8.647a8.457,8.457,0,0,0,.628-2.5c.691-2.856-.113-5.635-1.682-8.682-.275-1.594-1.675-3.107-4.45-2.271-6.538,1.044-12.773,2.352-17.661,5.713C28.121,23.906,25.737,30.451,27,37.987a7.176,7.176,0,0,0,1.351.917,6.42,6.42,0,0,0,1.319.282c2.631-.677,1.262-2.938,2.035-3.71,1.728-.712,3.1-1.167,4.359-1.788,2.366-1.139,4.676-2.366,7.078-3.481a4.18,4.18,0,0,1,1.266-.085c.5.331,1.058.695,1.527,1.005.617,1.418.825,2.687-.37,3.738-1.513.589-3.033,1.171-4.521,1.8-1.661.716-3.167,1.862-4.944,2.134s-4.951,1.083-5.843,2.581c.183.624,1.361.98,1.548,1.619C32.945,43.647,37.752,42.621,38.623,42.512ZM35,17.823a49.878,49.878,0,0,0,5.089-1.59c1.344-.525,2.9-1.679,4.366-2.007,1.259-.275,3.625-1,4.274-.035a3.415,3.415,0,0,1,.839,3.981c-9.807,2.564-11.641,5.54-17.29,5.491C31.894,20.8,32.021,17.713,35,17.823ZM31.263,32.51c-1.978-.1-.444-2.2-.384-3.086a10.482,10.482,0,0,1,1.245-3.551c1.64-1.143,3.837-.413,5.54-1.178a26.665,26.665,0,0,1,4.651-1.675,25.247,25.247,0,0,0,7.578-2.162c1.569,1.358-1.019,4.9-1.58,5.942-3.181.942-5.956,1.739-10.107,3.086C37.4,30.4,32.557,31.65,31.263,32.51Z" transform="translate(66.328 19.635)" fill="#370402" stroke="#fff" stroke-linecap="round" stroke-linejoin="round" stroke-width="0.57"/>
      <path id="パス_5411" data-name="パス 5411" d="M31.312,32.415c1.347-1.626,1.876-2.846,7.635-7.388,1.612-1.27,2.733-1.248,3.851-2.807.159-.215-1.414-1.076-1.82-1.03a30.7,30.7,0,0,1-3.83.219c-.257,0-10.17,4.087-11.567,7.695-.931,4.122,2.923,2.909,3.357,3.752l2.373-.441" transform="translate(63.261 43.671)" fill="#370402"/>
      <path id="パス_5412" data-name="パス 5412" d="M31.312,32.415c1.347-1.626,1.876-2.846,7.635-7.388,1.612-1.27,2.733-1.248,3.851-2.807.159-.215-1.414-1.076-1.82-1.03a30.7,30.7,0,0,1-3.83.219c-.257,0-10.17,4.087-11.567,7.695-.931,4.122,2.923,2.909,3.357,3.752Z" transform="translate(63.261 43.671)" fill="#370402" stroke="#fff" stroke-linecap="round" stroke-linejoin="round" stroke-width="0.57"/>
      <path id="パス_5413" data-name="パス 5413" d="M39.462,19.786c3.04-1.09,5.515-2.373,8.111-2.807,3.421-.571,6.626-3.019,11.066-1.044a19.2,19.2,0,0,1,3.2,1.936c.875-2.521.635-4.189.818-6.9,2.962-2.5,6.14-5.187,9.278-7.836.938,0,1.277-.779,2.835.014s1.407,1.414,2.352,2.366c-2.3,3.1-6.386,3.777-7.885,7.511-.116,2.038,1.217,2.3,2.631,2.331,3.064.074,5.73-1.52,8.516-2.543,1.53-.561,2.9-1.64,4.412-2.26.963-.395,2.211-1.488,3.315-.578s.413,1.774.575,2.476c-1.911,2.338-3.615,4.584-6.69,4.912A6.127,6.127,0,0,0,79.219,19.1a16.346,16.346,0,0,0-1.862,2.444,14.25,14.25,0,0,1-2.885,9.3l-1.545-.321c-2.014-2.828.141-6.316-1.118-9.176-1.157-1.061-2.144-.511-2.92.3a43.262,43.262,0,0,0-3.234,3.911c-.677.9-1.044,2.479-1.855,2.775-2.229.8-2.906,3.4-4.877,4.33a7.257,7.257,0,0,1-2.084.166c-.723-.734-1.682-1.7-2.518-2.543-.155-3.752,3.417-3.579,4.591-5.618,4.517-5.413.233-4.919.247-7.162-3.036,2.119-6.9,2.028-9.666,5.064,0,4.919-2.141,9.264-4.472,13.528-.547.042-1.079.081-1.633.12-1.668-1.724-.868-3.869-.642-5.8a43.034,43.034,0,0,1,1.407-5.667c-3.033-.532-3.033-.532-5.582.839a82.58,82.58,0,0,1-2.987,7.868,66.734,66.734,0,0,1-4.274,6.647C29.284,41.668,27.087,43.353,24.94,45c-2.532-1.213-2.532-1.213-3.361-3.7,3.251-3.216,11.658-8.464,10.735-14.384-1.887-4.048-3.22-3.273-2.511-7.748C33.735,15.113,38.481,8.41,42.438,4.333a3.1,3.1,0,0,1,3.65,1.8c-.247,4.69-6.711,8.164-6.626,13.651" transform="translate(53.513 -2.796)" fill="#370402"/>
      <path id="パス_5414" data-name="パス 5414" d="M39.462,19.786c3.04-1.09,5.515-2.373,8.111-2.807,3.421-.571,6.626-3.019,11.066-1.044a19.2,19.2,0,0,1,3.2,1.936c.875-2.521.635-4.189.818-6.9,2.962-2.5,6.14-5.187,9.278-7.836.938,0,1.277-.779,2.835.014s1.407,1.414,2.352,2.366c-2.3,3.1-6.386,3.777-7.885,7.511-.116,2.038,1.217,2.3,2.631,2.331,3.064.074,5.73-1.52,8.516-2.543,1.53-.561,2.9-1.64,4.412-2.26.963-.395,2.211-1.488,3.315-.578s.413,1.774.575,2.476c-1.911,2.338-3.615,4.584-6.69,4.912A6.127,6.127,0,0,0,79.219,19.1a16.346,16.346,0,0,0-1.862,2.444,14.25,14.25,0,0,1-2.885,9.3l-1.545-.321c-2.014-2.828.141-6.316-1.118-9.176-1.157-1.061-2.144-.511-2.92.3a43.262,43.262,0,0,0-3.234,3.911c-.677.9-1.044,2.479-1.855,2.775-2.229.8-2.906,3.4-4.877,4.33a7.257,7.257,0,0,1-2.084.166c-.723-.734-1.682-1.7-2.518-2.543-.155-3.752,3.417-3.579,4.591-5.618,4.517-5.413.233-4.919.247-7.162-3.036,2.119-6.9,2.028-9.666,5.064,0,4.919-2.141,9.264-4.472,13.528-.547.042-1.079.081-1.633.12-1.668-1.724-.868-3.869-.642-5.8a43.034,43.034,0,0,1,1.407-5.667c-3.033-.532-3.033-.532-5.582.839a82.58,82.58,0,0,1-2.987,7.868,66.734,66.734,0,0,1-4.274,6.647C29.284,41.668,27.087,43.353,24.94,45c-2.532-1.213-2.532-1.213-3.361-3.7,3.251-3.216,11.658-8.464,10.735-14.384-1.887-4.048-3.22-3.273-2.511-7.748C33.735,15.113,38.481,8.41,42.438,4.333a3.1,3.1,0,0,1,3.65,1.8C45.841,10.825,39.377,14.3,39.462,19.786Z" transform="translate(53.513 -2.796)" fill="#370402" stroke="#fff" stroke-linecap="round" stroke-linejoin="round" stroke-width="0.57"/>
      <path id="パス_5415" data-name="パス 5415" d="M10.873,66.994c3.526-4.637,3.742-12.759,6.344-17.914,2.391-4.74,4.355-14.945,4.666-16.641a61.253,61.253,0,0,0,1.058-7.06c.011-1.545.465-3.378.564-5.138a66.7,66.7,0,0,1,12.8-4.574c1.27,2.93-.025,4.623-.769,6.517-3.823,1.64-6.069.695-9.306,4.147a6.8,6.8,0,0,0-1.633,2.43c-.254,1.749.924,2.747,1.7,2.673,2.412-.324,2-1.382,3.022-2.715,1.929-1.6,4.912-2.677,5.544-1.3a3.27,3.27,0,0,1-.388,2.99c-.624,1.5-2.3,2.169-3.657,3.033-3.329,2.13-5.776,3.428-9.014,5.7A3.178,3.178,0,0,0,20.26,42.27c.674.508,1.523,1.153,2.116,1.6,4.591-.942,7.131-6.672,10.6-8.432,1.439,2.373.681,3.872-.331,5.72-1.763,1.061-3.826,2.3-5.787,3.481-2.536,1.005-4.838,2.409-4.655,4.1,1.09,1.763,2.659.935,4.242.751.434-.652,3.643-1.89,4.126-2.613A106.3,106.3,0,0,0,44.438,41.05c1.664-.272,3.858-1.682,4.4-3.378-.384-1.59.18-1.421-1.545-2.084-.92-.437-.92-.437-2.349-.018-.226.067.434-1.277.113-1.53-.272-1.347-.423-1.231.335-1.982,2.433-.935,5.984-1.94,8.531-2.92,1.382-1.664.67-4.08-.081-3.953-2.292.141-5.364,1.788-7.776,1.936-.786-1.15,1.227-4.923.381-5.939s-3.392-1.093-6.767.138c.374-1.851.712-3.537.994-4.937-.79-1.227-2.634-.734-2.345-2.8.942-.483,9.849-2.1,10.893-2.634.536-1.626.875-3.128-.54-4.482C45.929,7.852,39.571,9.224,36.775,10.5a2.2,2.2,0,0,1-2.821-.55C33.3,8,34.239,5.344,33,3.169c-.6-.1-1.012-.169-2.035-.346A3.338,3.338,0,0,0,28.551,5.51c-.035,2.969-.06,4.983-.085,6.933-1.612,1.506-8.224,4.024-9.645,5.35.307,7.018-1.259,14.342-3.114,20.76-1,2.349-1.382,5.413-2.38,7.9-1.94,4.8-1.64,12.244-5.11,15.876a3.78,3.78,0,0,0-.5,1.2c.028,1.322-.356,2.782,1.224,3.59.656-.039,1.319-.081,1.933-.116M36.605,38.786c-.226-.437-.448-.674-.406-.818-.444-1.492-.141-1.841.342-3.389.931-.734,4.958-2.666,5.6-2.472.116,2.521,2.62,5.244-5.533,6.679m6.4-10.541c-.621.695-3.206,1.643-5.194,1.954-.127-4.02-.011-6.6,4.144-6.6,2.849-.808,1.911,3.685,1.051,4.644" transform="translate(18.435 -2.729)" fill="#370402"/>
      <path id="パス_5416" data-name="パス 5416" d="M10.873,66.994c3.526-4.637,3.742-12.759,6.344-17.914,2.391-4.74,4.355-14.945,4.666-16.641a61.253,61.253,0,0,0,1.058-7.06c.011-1.545.465-3.378.564-5.138a66.7,66.7,0,0,1,12.8-4.574c1.27,2.93-.025,4.623-.769,6.517-3.823,1.64-6.069.695-9.306,4.147a6.8,6.8,0,0,0-1.633,2.43c-.254,1.749.924,2.747,1.7,2.673,2.412-.324,2-1.382,3.022-2.715,1.929-1.6,4.912-2.677,5.544-1.3a3.27,3.27,0,0,1-.388,2.99c-.624,1.5-2.3,2.169-3.657,3.033-3.329,2.13-5.776,3.428-9.014,5.7A3.178,3.178,0,0,0,20.26,42.27c.674.508,1.523,1.153,2.116,1.6,4.591-.942,7.131-6.672,10.6-8.432,1.439,2.373.681,3.872-.331,5.72-1.763,1.061-3.826,2.3-5.787,3.481-2.536,1.005-4.838,2.409-4.655,4.1,1.09,1.763,2.659.935,4.242.751.434-.652,3.643-1.89,4.126-2.613A106.3,106.3,0,0,0,44.438,41.05c1.664-.272,3.858-1.682,4.4-3.378-.384-1.59.18-1.421-1.545-2.084-.92-.437-.92-.437-2.349-.018-.226.067.434-1.277.113-1.53-.272-1.347-.423-1.231.335-1.982,2.433-.935,5.984-1.94,8.531-2.92,1.382-1.664.67-4.08-.081-3.953-2.292.141-5.364,1.788-7.776,1.936-.786-1.15,1.227-4.923.381-5.939s-3.392-1.093-6.767.138c.374-1.851.712-3.537.994-4.937-.79-1.227-2.634-.734-2.345-2.8.942-.483,9.849-2.1,10.893-2.634.536-1.626.875-3.128-.54-4.482C45.929,7.852,39.571,9.224,36.775,10.5a2.2,2.2,0,0,1-2.821-.55C33.3,8,34.239,5.344,33,3.169c-.6-.1-1.012-.169-2.035-.346A3.338,3.338,0,0,0,28.551,5.51c-.035,2.969-.06,4.983-.085,6.933-1.612,1.506-8.224,4.024-9.645,5.35.307,7.018-1.259,14.342-3.114,20.76-1,2.349-1.382,5.413-2.38,7.9-1.94,4.8-1.64,12.244-5.11,15.876a3.78,3.78,0,0,0-.5,1.2c.028,1.322-.356,2.782,1.224,3.59C9.6,67.072,10.259,67.029,10.873,66.994ZM36.605,38.786c-.226-.437-.448-.674-.406-.818-.444-1.492-.141-1.841.342-3.389.931-.734,4.958-2.666,5.6-2.472C42.255,34.628,44.759,37.351,36.605,38.786Zm6.4-10.541c-.621.695-3.206,1.643-5.194,1.954-.127-4.02-.011-6.6,4.144-6.6C44.808,22.793,43.87,27.286,43.01,28.245Z" transform="translate(18.435 -2.729)" fill="#370402" stroke="#fff" stroke-linecap="round" stroke-linejoin="round" stroke-width="0.57"/>
      <path id="パス_5417" data-name="パス 5417" d="M17.053,75.232c-1.132-1.333-1.862-2.19-2.514-2.955-.018-1.7-.032-3.146-.046-4.867.571-.705.818-2.2,1.192-4,.063-.635.751-9.32.868-10.445.092-.868.13-1.749.3-2.6a29.67,29.67,0,0,0,.1-3.4,7.144,7.144,0,0,0,.233-2.137c-1.841-.853-2.557,2.017-3.981,2.377C11.15,53.848,7.084,57.829,3.06,62.269c-.631.007-1.414.018-2.412.032C.5,61,.373,59.931.285,59.18c1.019-4.147,4.408-4.807,5.378-7.846,1.255-3.936,4.179-5.29,5.438-8.7,1.2-3.266,4.045-4.33,5-8.344-2.331.116-8.072,4.683-11.415,2.119.25.384-.384-.592-.9-1.393a13.266,13.266,0,0,1,.54-2.088,4.385,4.385,0,0,1,2.627-2.285c.931-.353,7.138-1.446,8.312-2.377-.878-1.59-6.4-6.21-7.219-7.691.032-.857-1.118-1.844.134-3.4a1.815,1.815,0,0,1,2.592-1.058c1.344,1.566,5.963,5.487,7.328,7.078.49-.839.212-.871.607-1.545-.42-6.827-.257-11.782-.2-15.9,1.918-1.273,1.918-1.273,3.7-.346.032,3.29.187,11.133.222,14.578,1.4-3.16,2.285-3.537,3.093-4.768.857-1.3,1.717-2.592,2.7-4.08l2.141,1.333a6.6,6.6,0,0,1,.06,1.837c-.247.723-6.672,11.722-6.672,11.722l7.808-2.144c4.271-.832,2.045,4.443,2.045,4.443a99.334,99.334,0,0,1-10.971,2.959c-.1,3.727.187.063.448,3.678,1.724,1.379,7.649,3.622,7.247,5.861-2.5,2.158-1.217,2.49-4.648,3.664-.585-.173-2.088-2.3-3.117-2.6-.427.6-.455,6.817-.772,7.561-1.5,3.488-1.259,16.232-1.34,20.1-.987,1.65-1.954,3.273-3.392,5.678" transform="translate(-0.285 2.141)" fill="#370402"/>
      <path id="パス_5418" data-name="パス 5418" d="M17.053,75.232c-1.132-1.333-1.862-2.19-2.514-2.955-.018-1.7-.032-3.146-.046-4.867.571-.705.818-2.2,1.192-4,.063-.635.751-9.32.868-10.445.092-.868.13-1.749.3-2.6a29.67,29.67,0,0,0,.1-3.4,7.144,7.144,0,0,0,.233-2.137c-1.841-.853-2.557,2.017-3.981,2.377C11.15,53.848,7.084,57.829,3.06,62.269c-.631.007-1.414.018-2.412.032C.5,61,.373,59.931.285,59.18c1.019-4.147,4.408-4.807,5.378-7.846,1.255-3.936,4.179-5.29,5.438-8.7,1.2-3.266,4.045-4.33,5-8.344-2.331.116-8.072,4.683-11.415,2.119.25.384-.384-.592-.9-1.393a13.266,13.266,0,0,1,.54-2.088,4.385,4.385,0,0,1,2.627-2.285c.931-.353,7.138-1.446,8.312-2.377-.878-1.59-6.4-6.21-7.219-7.691.032-.857-1.118-1.844.134-3.4a1.815,1.815,0,0,1,2.592-1.058c1.344,1.566,5.963,5.487,7.328,7.078.49-.839.212-.871.607-1.545-.42-6.827-.257-11.782-.2-15.9,1.918-1.273,1.918-1.273,3.7-.346.032,3.29.187,11.133.222,14.578,1.4-3.16,2.285-3.537,3.093-4.768.857-1.3,1.717-2.592,2.7-4.08l2.141,1.333a6.6,6.6,0,0,1,.06,1.837c-.247.723-6.672,11.722-6.672,11.722l7.808-2.144c4.271-.832,2.045,4.443,2.045,4.443a99.334,99.334,0,0,1-10.971,2.959c-.1,3.727.187.063.448,3.678,1.724,1.379,7.649,3.622,7.247,5.861-2.5,2.158-1.217,2.49-4.648,3.664-.585-.173-2.088-2.3-3.117-2.6-.427.6-.455,6.817-.772,7.561-1.5,3.488-1.259,16.232-1.34,20.1C19.458,71.2,18.492,72.827,17.053,75.232Z" transform="translate(-0.285 2.141)" fill="#370402" stroke="#fff" stroke-linecap="round" stroke-linejoin="round" stroke-width="0.57"/>
      <path id="パス_5419" data-name="パス 5419" d="M22.979,40.214c.927-.79,1.566-1.329,2-1.693,4.3.2,6.961-2.052,10.269-4.468-2.447-3.985,1.206-8.174-.367-12.6-.959-1.248-1.961-2.56-3.124-4.077-2.86.374-5.445-1.9-8.689-.36-1.435,1.016-5.861,2.892-7.455,4.02-1.548,1.245-1.393,1.707-1.774,3.84-1.7,2.211-1.072,3.142-1.241,8.09a4.523,4.523,0,0,0,.145,4.052c.635,1.231,1.351,2.433,2.067,3.717a26.062,26.062,0,0,0,8.174-.522m-6.386-4.549c1.418-2.07-1.255-3.551.726-4.986a16.7,16.7,0,0,1,.229-4.489c.5-2.038,5.046-3.195,7.056-3.865,1.587-.36,3.294-.892,4.408-.2s.6,5.043.681,5.572c.056.37.483,2.1.621,2.846a7.848,7.848,0,0,1-5.656,3.978c-2.6.5-4.941,2.454-8.065,1.15" transform="translate(29.774 31.76)" fill="#370402"/>
      <path id="パス_5420" data-name="パス 5420" d="M22.979,40.214c.927-.79,1.566-1.329,2-1.693,4.3.2,6.961-2.052,10.269-4.468-2.447-3.985,1.206-8.174-.367-12.6-.959-1.248-1.961-2.56-3.124-4.077-2.86.374-5.445-1.9-8.689-.36-1.435,1.016-5.861,2.892-7.455,4.02-1.548,1.245-1.393,1.707-1.774,3.84-1.7,2.211-1.072,3.142-1.241,8.09a4.523,4.523,0,0,0,.145,4.052c.635,1.231,1.351,2.433,2.067,3.717A26.062,26.062,0,0,0,22.979,40.214Zm-6.386-4.549c1.418-2.07-1.255-3.551.726-4.986a16.7,16.7,0,0,1,.229-4.489c.5-2.038,5.046-3.195,7.056-3.865,1.587-.36,3.294-.892,4.408-.2s.6,5.043.681,5.572c.056.37.483,2.1.621,2.846a7.848,7.848,0,0,1-5.656,3.978C22.055,35.016,19.717,36.97,16.592,35.665Z" transform="translate(29.774 31.76)" fill="#370402" stroke="#fff" stroke-linecap="round" stroke-linejoin="round" stroke-width="0.57"/>
    </g>
    <g id="グループ_3106" data-name="グループ 3106" transform="translate(3905.744 4821.617)">
      <path id="パス_5421" data-name="パス 5421" d="M102.112,21.583c-1.3-.176-2.243,1.026-3.565.889-1.411-.145-2.5.61-3.71,1.171A11.764,11.764,0,0,1,90.9,24.3c-1.312.109-2.638.462-4.094-.194.236-.853.48-1.717.716-2.578a88.063,88.063,0,0,1,14.815-5.551q.529-1.455,1.16-3.177c-.212-1.682-.43-3.428-.705-5.6.289-.406.712-1.005,1.153-1.629.9.638,1.368.97,1.887,1.337-.081.744-.162,1.456-.254,2.282.536.935,1.118,1.94,1.77,3.075,1.53-.116,3.033-.233,4.542-.346.7.54,1.308,1.009,1.873,1.446-.92,3.516-4.464,3.911-6.439,5.833-.607,2.553-1.171,4.941-1.858,7.839.465,3.618-.772,7.388-1.985,11.211a8.014,8.014,0,0,1-2.828,4c-1.192.226-1.88-.473-2.6-1.34-.155-1.234-.324-2.56-.5-4l2.652-2.349c.113-.3.5-1.308.991-2.606-1.023-.014-1.76-.025-2.384-.035-5.445,4.923-5.445,4.923-12.219,8.093a5.481,5.481,0,0,1-1.555-.444,13.7,13.7,0,0,1-1.746-1.534c.31-.7.391-1.389.772-1.661a57.638,57.638,0,0,1,8.608-5.17,22.262,22.262,0,0,0,9.567-8.407c.152-.24-.067-.719-.127-1.206" transform="translate(74.142 13.446)" fill="#370402"/>
      <path id="パス_5422" data-name="パス 5422" d="M102.112,21.583c-1.3-.176-2.243,1.026-3.565.889-1.411-.145-2.5.61-3.71,1.171A11.764,11.764,0,0,1,90.9,24.3c-1.312.109-2.638.462-4.094-.194.236-.853.48-1.717.716-2.578a88.063,88.063,0,0,1,14.815-5.551q.529-1.455,1.16-3.177c-.212-1.682-.43-3.428-.705-5.6.289-.406.712-1.005,1.153-1.629.9.638,1.368.97,1.887,1.337-.081.744-.162,1.456-.254,2.282.536.935,1.118,1.94,1.77,3.075,1.53-.116,3.033-.233,4.542-.346.7.54,1.308,1.009,1.873,1.446-.92,3.516-4.464,3.911-6.439,5.833-.607,2.553-1.171,4.941-1.858,7.839.465,3.618-.772,7.388-1.985,11.211a8.014,8.014,0,0,1-2.828,4c-1.192.226-1.88-.473-2.6-1.34-.155-1.234-.324-2.56-.5-4l2.652-2.349c.113-.3.5-1.308.991-2.606-1.023-.014-1.76-.025-2.384-.035-5.445,4.923-5.445,4.923-12.219,8.093a5.481,5.481,0,0,1-1.555-.444,13.7,13.7,0,0,1-1.746-1.534c.31-.7.391-1.389.772-1.661a57.638,57.638,0,0,1,8.608-5.17,22.262,22.262,0,0,0,9.567-8.407C102.39,22.549,102.172,22.07,102.112,21.583Z" transform="translate(74.142 13.446)" fill="#370402" stroke="#fff" stroke-linecap="round" stroke-linejoin="round" stroke-width="0.57"/>
      <path id="パス_5423" data-name="パス 5423" d="M116.044,6.461c1.6,4.387.589,7.991.494,11.616-.018.695-.656,1.322-.9,2.024-.363,1.054-.631,2.148-1.185,4.094-1.217,1.509-2.913,3.784-4.789,5.9a21.664,21.664,0,0,1-6.743,4.859c-2.2,1.1-4.433.737-6.767,1.217-1.16-.871-2.25-1.693-2.832-2.126-.508-2.2.339-2.916,1.474-3.7.769.314,1.643.674,2.7,1.111,1.153-.148,2.476-.314,3.886-.494,1.012-1.076,2.038-2.169,3.1-3.3l2.141-.617c1.061-2.151,3.6-3.262,3.928-5.924,1.827-1.894,1.386-4.634,2.426-6.753-.437-.659-.748-1.132-1.012-1.53-1.555-.229-1.992,1.061-2.856,1.731q-2.883,1.005-5.79,2.021c-2.3-.927-3.689,1.294-6.9,1.051l-1.474-.5a2.29,2.29,0,0,1-.483-2.737c3.467-1.717,7.451-2.134,11.137-3.424,3.505-1.224,6.7-3.072,10.438-4.521" transform="translate(99.115 15.707)" fill="#370402"/>
      <path id="パス_5424" data-name="パス 5424" d="M116.044,6.461c1.6,4.387.589,7.991.494,11.616-.018.695-.656,1.322-.9,2.024-.363,1.054-.631,2.148-1.185,4.094-1.217,1.509-2.913,3.784-4.789,5.9a21.664,21.664,0,0,1-6.743,4.859c-2.2,1.1-4.433.737-6.767,1.217-1.16-.871-2.25-1.693-2.832-2.126-.508-2.2.339-2.916,1.474-3.7.769.314,1.643.674,2.7,1.111,1.153-.148,2.476-.314,3.886-.494,1.012-1.076,2.038-2.169,3.1-3.3l2.141-.617c1.061-2.151,3.6-3.262,3.928-5.924,1.827-1.894,1.386-4.634,2.426-6.753-.437-.659-.748-1.132-1.012-1.53-1.555-.229-1.992,1.061-2.856,1.731q-2.883,1.005-5.79,2.021c-2.3-.927-3.689,1.294-6.9,1.051l-1.474-.5a2.29,2.29,0,0,1-.483-2.737c3.467-1.717,7.451-2.134,11.137-3.424C109.11,9.758,112.3,7.91,116.044,6.461Z" transform="translate(99.115 15.707)" fill="#370402" stroke="#fff" stroke-linecap="round" stroke-linejoin="round" stroke-width="0.57"/>
      <path id="パス_5425" data-name="パス 5425" d="M47.991,42.132c.667-1.576,1.21-2.86,1.894-4.475,2.818-1.742,6.1-3.481,9.014-5.628,5.861-4.32,11.718-8.682,17.17-13.4,2.384-2.063,3.773-5.053,5.466-7.423C79.969,8.087,77.2,7.1,74.221,5.714c-2.737,1.231-5.364,2.416-7.85,3.537-.169,1.809-.293,3.142-.416,4.447-1.538,2.93-4.108,3.918-7.97,3.283-.793-.649-1.887-1.548-2.853-2.342.046-.906-.2-1.756.162-2.2C57.8,9.42,60.446,6.479,62.777,3.824,65.9,1.708,69.943.7,74.429.269a16.38,16.38,0,0,1,9.179,2.049c1.841,1.241,3.23,3.248,4.581,5.953a12.072,12.072,0,0,1,.4,5.667c-3.442,5.149-9.07,8.8-9.758,15.033,2.2,1.178,5.166,1.887,6.612,3.537.815,1.5.818,5.5.564,8.03-1.1,4.948-6.27,8.061-6.192,13.21-3.407,3.71-6.175,8.238-10.382,10.925-5.12,3.276-8.6,7.705-13.058,11.383-2.126,1.717-9.056,9.715-14.561,8.072-2-2.923-5.286-4.877-1.245-10.29C44.715,71.472,55.678,61.633,59,59.884c3.153-1.661,5.265-4.909,7.924-7.384,2.366-2.2,4.856-4.3,7.942-7.018,1.985-2.433,4.3-5.886,3.8-7.931-.532-1.552-1.407-2.938-3.047-2.631-6.718,2.007-13.08,4.119-17.9,9.158-2.134.511-8.717-.13-9.722-1.947" transform="translate(-38.648 0.053)" fill="#370402"/>
      <path id="パス_5426" data-name="パス 5426" d="M47.991,42.132c.667-1.576,1.21-2.86,1.894-4.475,2.818-1.742,6.1-3.481,9.014-5.628,5.861-4.32,11.718-8.682,17.17-13.4,2.384-2.063,3.773-5.053,5.466-7.423C79.969,8.087,77.2,7.1,74.221,5.714c-2.737,1.231-5.364,2.416-7.85,3.537-.169,1.809-.293,3.142-.416,4.447-1.538,2.93-4.108,3.918-7.97,3.283-.793-.649-1.887-1.548-2.853-2.342.046-.906-.2-1.756.162-2.2C57.8,9.42,60.446,6.479,62.777,3.824,65.9,1.708,69.943.7,74.429.269a16.38,16.38,0,0,1,9.179,2.049c1.841,1.241,3.23,3.248,4.581,5.953a12.072,12.072,0,0,1,.4,5.667c-3.442,5.149-9.07,8.8-9.758,15.033,2.2,1.178,5.166,1.887,6.612,3.537.815,1.5.818,5.5.564,8.03-1.1,4.948-6.27,8.061-6.192,13.21-3.407,3.71-6.175,8.238-10.382,10.925-5.12,3.276-8.6,7.705-13.058,11.383-2.126,1.717-9.056,9.715-14.561,8.072-2-2.923-5.286-4.877-1.245-10.29C44.715,71.472,55.678,61.633,59,59.884c3.153-1.661,5.265-4.909,7.924-7.384,2.366-2.2,4.856-4.3,7.942-7.018,1.985-2.433,4.3-5.886,3.8-7.931-.532-1.552-1.407-2.938-3.047-2.631-6.718,2.007-13.08,4.119-17.9,9.158C55.58,44.589,49,43.948,47.991,42.132Z" transform="translate(-38.648 0.053)" fill="#370402" stroke="#fff" stroke-linecap="round" stroke-linejoin="round" stroke-width="0.349"/>
      <path id="パス_5427" data-name="パス 5427" d="M73.035,71.833l-9.151,2.786c-1.442-.758-3.537-1.858-6.14-3.223-1.3-2.807-2.8-6.027-4.221-9.1.49-1.707.86-3,1.248-4.341-.49-1.132-1.023-2.359-1.562-3.611C55.2,41.96,58.1,30.09,63.979,19.751c-.212-3.064,3.452-5.572-.1-8.6,2.754-3.731,5.357-7.261,7.25-9.828C74.16-.8,79.615.726,83.23.472c7.691,1.467,11.637,7.652,14.85,16.056.236,6.654.007,13.989-3.95,20.157-.455,5.713-5.586,8.844-5.071,15.1-2.567,3.784-4.958,7.779-7.751,11.285-2.588,3.251-5.607,5.977-8.273,8.767m-5.967-5.6C76.97,58.094,82.979,45.8,88.1,32.982c1.88-4.708,3.615-10.389,2.708-16.6-1.2-.607-4.422-6.386-5.544-6.958-1.908,2.335-4.789-1.456-6.376.483-2.722.42-4.073,6.753-7.642,7.307C70.616,23.341,68.211,31.73,66.1,37.4c-2.172,5.836-1.019,12.35-3.008,18.161-.712,2.081.219,5.085.349,6.9a14.189,14.189,0,0,0,1.3,1.943c.691.628,1.446,1.15,2.32,1.83" transform="translate(-1.859 -0.175)" fill="#370402"/>
      <path id="パス_5428" data-name="パス 5428" d="M73.035,71.833l-9.151,2.786c-1.442-.758-3.537-1.858-6.14-3.223-1.3-2.807-2.8-6.027-4.221-9.1.49-1.707.86-3,1.248-4.341-.49-1.132-1.023-2.359-1.562-3.611C55.2,41.96,58.1,30.09,63.979,19.751c-.212-3.064,3.452-5.572-.1-8.6,2.754-3.731,5.357-7.261,7.25-9.828C74.16-.8,79.615.726,83.23.472c7.691,1.467,11.637,7.652,14.85,16.056.236,6.654.007,13.989-3.95,20.157-.455,5.713-5.586,8.844-5.071,15.1-2.567,3.784-4.958,7.779-7.751,11.285C78.719,66.318,75.7,69.044,73.035,71.833Zm-5.967-5.6C76.97,58.094,82.979,45.8,88.1,32.982c1.88-4.708,3.615-10.389,2.708-16.6-1.2-.607-4.422-6.386-5.544-6.958-1.908,2.335-4.789-1.456-6.376.483-2.722.42-4.073,6.753-7.642,7.307C70.616,23.341,68.211,31.73,66.1,37.4c-2.172,5.836-1.019,12.35-3.008,18.161-.712,2.081.219,5.085.349,6.9a14.189,14.189,0,0,0,1.3,1.943C65.439,65.034,66.193,65.556,67.068,66.237Z" transform="translate(-1.859 -0.175)" fill="#370402" stroke="#fff" stroke-linecap="round" stroke-linejoin="round" stroke-width="0.349"/>
      <path id="パス_5429" data-name="パス 5429" d="M88.979,38.493c-4.5,8.756-10.4,15.389-15.478,22.414-1.8-.289-3.424-.554-4.983-.808-.705-1.52.434-3.22-.935-4.8,1.957-2.62,3.784-5.445,5.991-7.942,2.952-3.333,5.6-6.912,8.682-10.121A17.033,17.033,0,0,1,84.62,35.5c1.093-2.525,1.823-5.339,4.281-7.134a5.516,5.516,0,0,0,1.59-1.411,41.341,41.341,0,0,0,2.938-5.635c.811-2.074,3.16-2.652,4.024-4.842,1.023-2.585,2.966-4.838,4.606-7.173a7.776,7.776,0,0,1,1.865-1.351c.36-.924.779-2.01,1.326-3.414,1.566-1.019,3.336-2.169,5.092-3.308a17.924,17.924,0,0,1,2.169.7,5.554,5.554,0,0,1,1.09.9,32.6,32.6,0,0,1-5.7,10.41c-3.417,4.246-5.7,9.345-10.181,12.829-1.213.942-1.689,2.8-2.521,4.228-1.784,3.072-3.34,6.316-6.217,8.192" transform="translate(34.459 2.488)" fill="#370402"/>
      <path id="パス_5430" data-name="パス 5430" d="M88.979,38.493c-4.5,8.756-10.4,15.389-15.478,22.414-1.8-.289-3.424-.554-4.983-.808-.705-1.52.434-3.22-.935-4.8,1.957-2.62,3.784-5.445,5.991-7.942,2.952-3.333,5.6-6.912,8.682-10.121A17.033,17.033,0,0,1,84.62,35.5c1.093-2.525,1.823-5.339,4.281-7.134a5.516,5.516,0,0,0,1.59-1.411,41.341,41.341,0,0,0,2.938-5.635c.811-2.074,3.16-2.652,4.024-4.842,1.023-2.585,2.966-4.838,4.606-7.173a7.776,7.776,0,0,1,1.865-1.351c.36-.924.779-2.01,1.326-3.414,1.566-1.019,3.336-2.169,5.092-3.308a17.924,17.924,0,0,1,2.169.7,5.554,5.554,0,0,1,1.09.9,32.6,32.6,0,0,1-5.7,10.41c-3.417,4.246-5.7,9.345-10.181,12.829-1.213.942-1.689,2.8-2.521,4.228C93.412,33.373,91.857,36.617,88.979,38.493Z" transform="translate(34.459 2.488)" fill="#370402" stroke="#fff" stroke-linecap="round" stroke-linejoin="round" stroke-width="0.334"/>
      <path id="パス_5431" data-name="パス 5431" d="M82.163,12.342c1.009-.6,1.841-1.093,2.758-1.64,1.09-.078,2.257-.159,3.572-.254.949.42,2,.889,3.117,1.379.966,1.6,1.957,3.237,2.927,4.842-.628,2.814-1.3,5.558-3.488,8.308-2.179,1.414-3.907,4.482-7.49,5.477-1.488-.3-3.177-.635-5.015-1-.585-.864-1.227-1.813-1.83-2.7-.554-2.814.324-5.392,1.368-7.793.973-2.236,2.567-4.214,4.08-6.612m4.278,12.008c1.714-2.789,3.191-5.2,4.708-7.67-.8-.6-1.4-1.065-2-1.516h-2.99a34.075,34.075,0,0,0-2.744,2.983,4.472,4.472,0,0,0-1.083,2.578c.127,1.7-1.488,3.1-.882,4.718,2.176,1.471,3.287-.659,4.99-1.093" transform="translate(57.095 25.78)" fill="#370402"/>
      <path id="パス_5432" data-name="パス 5432" d="M82.163,12.342c1.009-.6,1.841-1.093,2.758-1.64,1.09-.078,2.257-.159,3.572-.254.949.42,2,.889,3.117,1.379.966,1.6,1.957,3.237,2.927,4.842-.628,2.814-1.3,5.558-3.488,8.308-2.179,1.414-3.907,4.482-7.49,5.477-1.488-.3-3.177-.635-5.015-1-.585-.864-1.227-1.813-1.83-2.7-.554-2.814.324-5.392,1.368-7.793C79.056,16.718,80.65,14.74,82.163,12.342Zm4.278,12.008c1.714-2.789,3.191-5.2,4.708-7.67-.8-.6-1.4-1.065-2-1.516h-2.99a34.075,34.075,0,0,0-2.744,2.983,4.472,4.472,0,0,0-1.083,2.578c.127,1.7-1.488,3.1-.882,4.718C83.627,26.913,84.737,24.783,86.441,24.349Z" transform="translate(57.095 25.78)" fill="#370402" stroke="#fff" stroke-linecap="round" stroke-linejoin="round" stroke-width="0.334"/>
      <path id="パス_5433" data-name="パス 5433" d="M84.479,5.167c.822,2.363,1.425,4.1,2.049,5.889-1.661,5.166-5.124,8.883-10.086,11.606-2.384.363-5.008,1.3-7.236-.956-.141-.19-.391-.37-.409-.571-.145-1.633-.247-3.266-.381-5.131C69.9,12.551,71.473,8.9,73.06,5.2l6.217-2.384c1.6.723,3.315,1.5,5.2,2.349m-8.806,6.549-2.966,3.7c.063,1.714.092,1.71,1.174,3.167C78.763,17.2,81.415,14,82.13,8.943c-.758-.183-1.4-.339-2.007-.483-.525.924-.984,1.735-1.411,2.486-1.016.257-1.933.49-3.04.769" transform="translate(36.561 6.503)" fill="#370402"/>
      <path id="パス_5434" data-name="パス 5434" d="M84.479,5.167c.822,2.363,1.425,4.1,2.049,5.889-1.661,5.166-5.124,8.883-10.086,11.606-2.384.363-5.008,1.3-7.236-.956-.141-.19-.391-.37-.409-.571-.145-1.633-.247-3.266-.381-5.131C69.9,12.551,71.473,8.9,73.06,5.2l6.217-2.384C80.879,3.541,82.592,4.313,84.479,5.167Zm-8.806,6.549-2.966,3.7c.063,1.714.092,1.71,1.174,3.167C78.763,17.2,81.415,14,82.13,8.943c-.758-.183-1.4-.339-2.007-.483-.525.924-.984,1.735-1.411,2.486C77.7,11.2,76.781,11.437,75.673,11.715Z" transform="translate(36.561 6.503)" fill="#370402" stroke="#fff" stroke-linecap="round" stroke-linejoin="round" stroke-width="0.334"/>
    </g>
    <path id="パス_6268" data-name="パス 6268" d="M21,9.7,13.92,2.6l-.66.66,7.1,7.14-7.1,7.1.66.66L21,11.12l7.1,7.04.64-.66-7.1-7.1,7.1-7.14L28.1,2.6Zm.02-6.62A1.537,1.537,0,0,0,19.48,4.6a1.554,1.554,0,0,0,1.54,1.54,1.53,1.53,0,0,0,0-3.06ZM15.28,8.86a1.524,1.524,0,0,0-1.54,1.52,1.554,1.554,0,0,0,1.54,1.54,1.53,1.53,0,0,0,0-3.06Zm11.44.02a1.52,1.52,0,1,0,1.52,1.52A1.519,1.519,0,0,0,26.72,8.88ZM21,14.68l-.04.04c-.02,0-.02,0-.04-.02a.073.073,0,0,0-.06-.02A1.543,1.543,0,0,0,21,17.76a1.55,1.55,0,0,0,1.52-1.54A1.524,1.524,0,0,0,21,14.68ZM47.32,5.32l1.02-.4a13.374,13.374,0,0,0-1.78-3.16L45.1,2.3a13.027,13.027,0,0,1,1.56,2.76l.1.2.06.16a6.73,6.73,0,0,1-1.1.04l-4.44.02c.06-.7.06-.72.08-1.26l.06-1.08.02-.38c0-.14.02-.24.02-.36a5.584,5.584,0,0,1,.08-.64L38.86,1.7a4.086,4.086,0,0,1,.06.78v.5c0,.58-.04,1.76-.1,2.5l-3.5.02a11.957,11.957,0,0,1-2.22-.14l.02,2.44a13.563,13.563,0,0,1,2.16-.1H38.6a10.953,10.953,0,0,1-6.32,9.14,8.152,8.152,0,0,1,1.8,2.1,13.822,13.822,0,0,0,7-11.26h4.66a45.123,45.123,0,0,1-.44,6.4c-.32,1.74-.62,2.18-1.48,2.18a9.731,9.731,0,0,1-2.64-.48,6.106,6.106,0,0,1,.46,2.56,13.518,13.518,0,0,0,2.48.24c2.4,0,3.1-.82,3.62-4.28.2-1.32.42-4.42.48-6.68a3.021,3.021,0,0,1,.22-1.32Zm3.52-1.44A11.671,11.671,0,0,0,49.08.84l-1.42.56a14.326,14.326,0,0,1,1.72,3.1Zm1.58,7.84a21.956,21.956,0,0,1,3.26-.1H66.3a21.956,21.956,0,0,1,3.26.1V8.94a19.641,19.641,0,0,1-3.24.14H55.66a19.641,19.641,0,0,1-3.24-.14Zm30.4-5.1c0-.22,0-.22.02-1.54l.02-1.2a12.615,12.615,0,0,1,.1-1.92H80.2a12.589,12.589,0,0,1,.1,1.92V5.06c0,.36,0,.72-.02,1.56H75.24a14.456,14.456,0,0,1-2.6-.14V9a20.543,20.543,0,0,1,2.56-.1h4.96a8.647,8.647,0,0,1-.98,4.02,9.233,9.233,0,0,1-4.82,3.94,6.212,6.212,0,0,1,1.82,2.16,12.041,12.041,0,0,0,5.1-4.48c.92-1.54,1.26-2.86,1.44-5.64h4.1a20.543,20.543,0,0,1,2.56.1V6.48a14.326,14.326,0,0,1-2.6.14Zm12.62-2.3a52.759,52.759,0,0,1,10.92,2.3l.8-2.46A66.667,66.667,0,0,0,96.34,2Zm-.32,5.5a43.984,43.984,0,0,1,5.06.88,34.377,34.377,0,0,1,5.5,1.6l.78-2.46A62.849,62.849,0,0,0,96.04,7.52ZM93.5,15.44a55.644,55.644,0,0,1,6.28,1.16,36.692,36.692,0,0,1,7.08,2.24l.86-2.52a62.61,62.61,0,0,0-13.28-3.16ZM115.66,2.36a10.053,10.053,0,0,1,.08,1.82c0,5.6-.46,8.18-1.9,10.48a8.217,8.217,0,0,1-2.06,2.3,7.118,7.118,0,0,1,2.02,1.94,12.736,12.736,0,0,0,2.76-3.7c1.04-2.06,1.48-4.32,1.62-8.22a41.8,41.8,0,0,1,.2-4.48Zm5.3-.14a8.656,8.656,0,0,1,.08,1.32v.6l-.1,11.28a8.963,8.963,0,0,1-.18,2.12l1.28,1.36a8.7,8.7,0,0,1,.86-.36,13.209,13.209,0,0,0,4.26-2.4,12.412,12.412,0,0,0,3.18-4.66,8.383,8.383,0,0,1-1.88-1.88,9.773,9.773,0,0,1-1.96,3.66,8.041,8.041,0,0,1-3.06,2.28l.1-11.38a10.838,10.838,0,0,1,.14-1.9Zm26.26,1.72a3.543,3.543,0,0,1-1.46.2l-4.38.06c-.38,0-.7.02-.96.04a4.718,4.718,0,0,0,.32-.64l.26-.52a4.037,4.037,0,0,1,.26-.56,4.088,4.088,0,0,1,.34-.62l-2.74-.54A7.464,7.464,0,0,1,137.84,4a15.385,15.385,0,0,1-5.18,5.8,5.314,5.314,0,0,1,1.94,1.72,19.576,19.576,0,0,0,4.68-5.12l6.02-.1a15.838,15.838,0,0,1-5.84,8.44,18.011,18.011,0,0,1-4.38,2.36,6.162,6.162,0,0,1,1.7,2.1,20.2,20.2,0,0,0,7.12-5.08A20.744,20.744,0,0,0,148,6.4a3.762,3.762,0,0,1,.5-1.2Zm9.02,5.34H159a9.561,9.561,0,0,1,1.92.12V7.04a9.561,9.561,0,0,1-1.92.12h-2.76V3.82a13.331,13.331,0,0,1,.12-2.24h-2.5a16.493,16.493,0,0,1,.12,2.24V16.68a12.7,12.7,0,0,1-2.2.38l.48,2.48a8.377,8.377,0,0,1,1.1-.38c.16-.04.16-.04.42-.12,1.46-.4,1.46-.4,2.12-.6,2.42-.76,3.44-1.12,5-1.72l-.02-2.12c-1.78.62-2.76.94-4.64,1.48Zm7.64,1.28a34.921,34.921,0,0,0,5.54-3.6c.42-.34.42-.34.72-.56l-1.56-1.84a15.79,15.79,0,0,1-4.7,3.66V3.86A13.74,13.74,0,0,1,164,1.6h-2.46a15.446,15.446,0,0,1,.12,2.26V17.24c0,.9.2,1.38.74,1.66.52.28,1.18.36,3.06.36,2.38,0,3.24-.18,3.8-.8.58-.64.8-1.78.94-4.76a8.493,8.493,0,0,1-2.12-.88c-.02,2.48-.14,3.64-.42,4.02-.2.28-.68.36-2.08.36-1.44,0-1.7-.08-1.7-.52Z" transform="translate(3851.48 4915.652)" fill="#371606"/>
  </g>
</svg>
