<svg xmlns="http://www.w3.org/2000/svg" width="300.483" height="86.197" viewBox="0 0 300.483 86.197">
  <g id="secret_item1_title" transform="translate(-217.782 -6582.605)">
    <path id="パス_2796" data-name="パス 2796" d="M65.256,62.1c.971-1.211,3.014-1.471,3.108-3.457-1.133-2.3-3.16-.91-4.923-1.186-.967-6.146-8.579-22.988-10.879-28.7-2.031-.573-3.185.191-3.676,2.344l2.437,4.826c-.215.345-.447.719-.6.963.906,3.335,6.9,17.74,7.856,21.258-4.785,1.495-9.2,1.694-13.913-.435-.666-1.674-1.418-3.575-1.974-4.976l-7.479-6.325c-.691-2.165-1.186-3.81-2.567-5.265a20.646,20.646,0,0,1-4.716-6.751c-1.2-3.327-3.254-6.114-4.367-8.445-.723-3.079-1.243-5.313-1.735-7.418.183-1.06.341-1.974.374-2.169-1.369-5.476-2.413-9.644-3.481-13.925C17.764,1.706,16.692.89,15.522,0l-4.2,2.823c-1.909,3.27.479,5.947-.341,8.856a15.722,15.722,0,0,1,3.3,10.115A5.468,5.468,0,0,0,15.7,25.56C17.5,27.3,17.923,29.618,18.646,31.7c1.016,2.917,2.19,5.5,4.647,7.5.817.662,1.15,1.921,1.69,2.913,1.206,2.206,2.409,4.416,3.429,6.284l3.7,1.251A30.673,30.673,0,0,0,34.444,53a34.666,34.666,0,0,0,3.209,2.8c-.3.577-.6,1.125-.979,1.836-5.11-1.076-10.091-2.108-15.067-3.185A9.662,9.662,0,0,1,18.3,53.447c-4.2-2.815-9.063-3.311-13.609-4.375C3.043,49.884,1.6,50.6,0,51.387c.865,1.259,1.381,2.011,1.844,2.689,1.255.37,2.649.386,3.42,1.085,2.023,1.848,4.481,2.332,6.971,2.868,4.992,1.076,10.095,1.8,14.957,3.3,6.5,2,13.336,1.1,19.824,2.844a4.66,4.66,0,0,0,1.357-.053q5.752-.317,11.5-.63c.678.849,1.361,5.553,4.249,6.894,1.515.67,3.506.54,1.564-5.1-.28-.812-.938-2.551-.431-3.185" transform="translate(218.023 6668) rotate(-90)" fill="#5b1e16"/>
    <path id="パス_2797" data-name="パス 2797" d="M65.256,62.1c.971-1.211,3.014-1.471,3.108-3.457-1.133-2.3-3.16-.91-4.923-1.186-.967-6.146-8.579-22.988-10.879-28.7-2.031-.573-3.185.191-3.676,2.344l2.437,4.826c-.215.345-.447.719-.6.963.906,3.335,6.9,17.74,7.856,21.258-4.785,1.495-9.2,1.694-13.913-.435-.666-1.674-1.418-3.575-1.974-4.976l-7.479-6.325c-.691-2.165-1.186-3.81-2.567-5.265a20.646,20.646,0,0,1-4.716-6.751c-1.2-3.327-3.254-6.114-4.367-8.445-.723-3.079-1.243-5.313-1.735-7.418.183-1.06.341-1.974.374-2.169-1.369-5.476-2.413-9.644-3.481-13.925C17.764,1.706,16.692.89,15.522,0l-4.2,2.823c-1.909,3.27.479,5.947-.341,8.856a15.722,15.722,0,0,1,3.3,10.115A5.468,5.468,0,0,0,15.7,25.56C17.5,27.3,17.923,29.618,18.646,31.7c1.016,2.917,2.19,5.5,4.647,7.5.817.662,1.15,1.921,1.69,2.913,1.206,2.206,2.409,4.416,3.429,6.284l3.7,1.251A30.673,30.673,0,0,0,34.444,53a34.666,34.666,0,0,0,3.209,2.8c-.3.577-.6,1.125-.979,1.836-5.11-1.076-10.091-2.108-15.067-3.185A9.662,9.662,0,0,1,18.3,53.447c-4.2-2.815-9.063-3.311-13.609-4.375C3.043,49.884,1.6,50.6,0,51.387c.865,1.259,1.381,2.011,1.844,2.689,1.255.37,2.649.386,3.42,1.085,2.023,1.848,4.481,2.332,6.971,2.868,4.992,1.076,10.095,1.8,14.957,3.3,6.5,2,13.336,1.1,19.824,2.844a4.66,4.66,0,0,0,1.357-.053q5.752-.317,11.5-.63c.678.849,1.361,5.553,4.249,6.894,1.515.67,3.506.54,1.564-5.1C65.406,64.472,64.748,62.733,65.256,62.1Z" transform="translate(218.023 6668) rotate(-90)" fill="none" stroke="#5b1e16" stroke-linecap="round" stroke-linejoin="round" stroke-width="0.483"/>
    <path id="パス_2798" data-name="パス 2798" d="M47.049,41.93c-.329-1.6-.886-2.8-2.523-3.071-1.211.565-2.409,1.121-3.689,1.714-2.718-2.015-5.309-3.871-7.832-5.821-2.705-2.088-5.269-4.379-8.084-5-1.962-2.506-4.018-4.261-4.9-6.479-1.109-2.779-3.611-4.127-5.139-6.41-1.369-2.039-3.364-3.66-5.1-5.488C10.245,7.19,8.567,3.758,5.391,0,3.364,1.227,1.592,2.3,0,3.266.146,5.9.256,7.925.378,10.111c.89.918,1.84,1.889,2.779,2.856a11.746,11.746,0,0,0,3.274,5.915c1.755,1.783,2.941,4.123,4.7,5.9,1.576,1.592,3.587,2.75,6.1,4.615.561.764,1.645,2.25,2.584,3.538.906.357,1.552.613,2.3.906,1.219,1.568,2.49,3.2,3.713,4.769,1.869.617,3.611,1.194,5.171,1.714.9,1.04,1.649,1.913,2.571,2.986,2.283.512,4.757,1.068,7.678,1.726,1.3-.422,3.071-.89,4.745-1.588.512-.215.756-1.056,1.06-1.515" transform="translate(336.736 6656.858) rotate(-90)" fill="#5b1e16"/>
    <path id="パス_2799" data-name="パス 2799" d="M47.049,41.93c-.329-1.6-.886-2.8-2.523-3.071-1.211.565-2.409,1.121-3.689,1.714-2.718-2.015-5.309-3.871-7.832-5.821-2.705-2.088-5.269-4.379-8.084-5-1.962-2.506-4.018-4.261-4.9-6.479-1.109-2.779-3.611-4.127-5.139-6.41-1.369-2.039-3.364-3.66-5.1-5.488C10.245,7.19,8.567,3.758,5.391,0,3.364,1.227,1.592,2.3,0,3.266.146,5.9.256,7.925.378,10.111c.89.918,1.84,1.889,2.779,2.856a11.746,11.746,0,0,0,3.274,5.915c1.755,1.783,2.941,4.123,4.7,5.9,1.576,1.592,3.587,2.75,6.1,4.615.561.764,1.645,2.25,2.584,3.538.906.357,1.552.613,2.3.906,1.219,1.568,2.49,3.2,3.713,4.769,1.869.617,3.611,1.194,5.171,1.714.9,1.04,1.649,1.913,2.571,2.986,2.283.512,4.757,1.068,7.678,1.726,1.3-.422,3.071-.89,4.745-1.588C46.5,43.23,46.744,42.389,47.049,41.93Z" transform="translate(336.736 6656.858) rotate(-90)" fill="none" stroke="#5b1e16" stroke-linecap="round" stroke-linejoin="round" stroke-width="0.483"/>
    <path id="パス_2800" data-name="パス 2800" d="M10.241,20.234a32.642,32.642,0,0,0-2.949-9.022C7.934,7.872,6.024,5,5.553,1.868c-.061-.406-.483-.76-.747-1.146C3.01-.362,1.365-.232.081,1.153.053,3.371.02,5.39,0,7.182c1.475,3.778,3.335,7.2,3.408,11.561,1.129,1.584,2.445,3.433,3.847,5.4,1.032-.134,1.873-.248,2.969-.394a20.824,20.824,0,0,0,.016-3.518" transform="translate(292.94 6642.377) rotate(-90)" fill="#5b1e16"/>
    <path id="パス_2801" data-name="パス 2801" d="M10.241,20.234a32.642,32.642,0,0,0-2.949-9.022C7.934,7.872,6.024,5,5.553,1.868c-.061-.406-.483-.76-.747-1.146C3.01-.362,1.365-.232.081,1.153.053,3.371.02,5.39,0,7.182c1.475,3.778,3.335,7.2,3.408,11.561,1.129,1.584,2.445,3.433,3.847,5.4,1.032-.134,1.873-.248,2.969-.394A20.824,20.824,0,0,0,10.241,20.234Z" transform="translate(292.94 6642.377) rotate(-90)" fill="none" stroke="#5b1e16" stroke-linecap="round" stroke-linejoin="round" stroke-width="0.483"/>
    <path id="パス_2802" data-name="パス 2802" d="M0,3.8C.54,5.322,1,6.626,1.511,8.055a9.979,9.979,0,0,0,2.754.825c4.046-.045,8.088-.236,12.211-.378.223-1.848.4-3.3.622-5.131C12.406-1.751,7.954,1.223,3.461,0,2.433,1.129,1.288,2.385,0,3.8" transform="translate(328.145 6634.715) rotate(-90)" fill="#5b1e16"/>
    <path id="パス_2803" data-name="パス 2803" d="M0,3.8C.54,5.322,1,6.626,1.511,8.055a9.979,9.979,0,0,0,2.754.825c4.046-.045,8.088-.236,12.211-.378.223-1.848.4-3.3.622-5.131C12.406-1.751,7.954,1.223,3.461,0,2.433,1.129,1.288,2.385,0,3.8Z" transform="translate(328.145 6634.715) rotate(-90)" fill="none" stroke="#5b1e16" stroke-linecap="round" stroke-linejoin="round" stroke-width="0.483"/>
    <path id="パス_2804" data-name="パス 2804" d="M.374,6.443c3.445,1.466,7.129,3.4,10.931,4.135,1.328-.593,2.6-1.158,3.961-1.759.069-1.783.13-3.25.215-5.317C10.273-.069,5.472,2.088.914,0a8.7,8.7,0,0,0-.54,6.443" transform="translate(345.793 6631.161) rotate(-90)" fill="#5b1e16"/>
    <path id="パス_2805" data-name="パス 2805" d="M.374,6.443c3.445,1.466,7.129,3.4,10.931,4.135,1.328-.593,2.6-1.158,3.961-1.759.069-1.783.13-3.25.215-5.317C10.273-.069,5.472,2.088.914,0A8.7,8.7,0,0,0,.374,6.443Z" transform="translate(345.793 6631.161) rotate(-90)" fill="none" stroke="#5b1e16" stroke-linecap="round" stroke-linejoin="round" stroke-width="0.483"/>
    <path id="パス_2806" data-name="パス 2806" d="M11.106,4.156C9.807.825,8.324-1.165,5.322.744c-.463,2.811-.951,5.756-1.434,8.7C.784,13.564.918,19.207.017,24.354a6.415,6.415,0,0,0,.4,1.978l3.619,1.1L8.3,21.189c1.024-6.231,1.938-11.772,2.807-17.033" transform="translate(387.476 6654.38) rotate(-90)" fill="#5b1e16"/>
    <path id="パス_2807" data-name="パス 2807" d="M11.106,4.156C9.807.825,8.324-1.165,5.322.744c-.463,2.811-.951,5.756-1.434,8.7C.784,13.564.918,19.207.017,24.354a6.415,6.415,0,0,0,.4,1.978l3.619,1.1L8.3,21.189C9.323,14.958,10.237,9.417,11.106,4.156Z" transform="translate(387.476 6654.38) rotate(-90)" fill="none" stroke="#5b1e16" stroke-linecap="round" stroke-linejoin="round" stroke-width="0.483"/>
    <path id="パス_2808" data-name="パス 2808" d="M63.752,46.959c1.094-.483,2.334-1.032,3.878-1.71,2.893.983,6.005-.024,9.02-.236,2.067-1.373,4-2.657,5.924-3.94,1.074-1.763,2.14-3.5,3.14-5.143-1.455-3.1-2.472-6.26-4.275-8.868-1.925-2.775-4.6-5.033-6.84-7.414-1.564.463-2.832.841-3.987,1.182-.146,1.052-.239,1.739-.332,2.4,2.9,3.246,5.247,6.946,8.931,9.416.624.418.774,1.544,1.187,2.429-2.634,2.933-6.613,2.64-8.85,4.806-3.161.163-5.77-1.767-8.562-.5-.551-.439-1.021-1.1-1.625-1.259-3.116-.8-6.26-1.471-8.846-3.579-2.362-.195-4.162-1.8-6.265-2.539-2.293-.8-3.882-2.413-5.774-3.684a25.847,25.847,0,0,0-4.652-2.9c-1.552-.613-2.674-1.779-4.089-2.474a42.607,42.607,0,0,0-4.964-1.763,5.092,5.092,0,0,0-.409-1.6,12.781,12.781,0,0,0-1.864-2c-3.623-3.12,14.381,10.891,11.078,7.548-.9.15-1.576.26-2.257.374-.312-.821-.628-1.67-.916-2.429-1.183-.894-2.362-1.641-3.367-2.575a31.629,31.629,0,0,1-2.431-2.8c-.835.065-1.272.1-1.836.142l-2.893-4.322c-.94-.325-1.6-.548-2.229-.768-1.414-1.483-2.816-2.957-4.222-4.428.13-2.9-3.015-2.417-4.206-4.038C10.608,3.453,9.2,3.25,8.327,2.551A20.322,20.322,0,0,1,6.05,0C3.991,1.336,2.087,2.58,0,3.936c.357,1.978.677,3.753.956,5.3,1.973,2.279,4.636,3.424,6.09,5.931A4.882,4.882,0,0,0,9.7,17.3c2.723.715,4.749,2.714,7.351,3.619l3.274,4.387c2.152.114,3.1,2.99,5.523,2.149a16.516,16.516,0,0,0,2.172,2.677c7.091,5.777-8.023-4.826-.288.1A50.686,50.686,0,0,1,34.5,34.882c2.293,2.056,5.653,2.035,7.687,4.4,3.181.76,5.6,2.949,8.412,4.4,1.994,1.028,4.38,1.292,6.175,1.783,1.325-.349,2.2-.581,3.128-.825,1.244.747,2.4,1.446,3.854,2.32" transform="translate(471.064 6668.561) rotate(-90)" fill="#5b1e16"/>
    <path id="パス_2809" data-name="パス 2809" d="M63.752,46.959c1.094-.483,2.334-1.032,3.878-1.71,2.893.983,6.005-.024,9.02-.236,2.067-1.373,4-2.657,5.924-3.94,1.074-1.763,2.14-3.5,3.14-5.143-1.455-3.1-2.472-6.26-4.275-8.868-1.925-2.775-4.6-5.033-6.84-7.414-1.564.463-2.832.841-3.987,1.182-.146,1.052-.239,1.739-.332,2.4,2.9,3.246,5.247,6.946,8.931,9.416.624.418.774,1.544,1.187,2.429-2.634,2.933-6.613,2.64-8.85,4.806-3.161.163-5.77-1.767-8.562-.5-.551-.439-1.021-1.1-1.625-1.259-3.116-.8-6.26-1.471-8.846-3.579-2.362-.195-4.162-1.8-6.265-2.539-2.293-.8-3.882-2.413-5.774-3.684a25.847,25.847,0,0,0-4.652-2.9c-1.552-.613-2.674-1.779-4.089-2.474a42.607,42.607,0,0,0-4.964-1.763,5.092,5.092,0,0,0-.409-1.6,12.781,12.781,0,0,0-1.864-2c-3.623-3.12,14.381,10.891,11.078,7.548-.9.15-1.576.26-2.257.374-.312-.821-.628-1.67-.916-2.429-1.183-.894-2.362-1.641-3.367-2.575a31.629,31.629,0,0,1-2.431-2.8c-.835.065-1.272.1-1.836.142l-2.893-4.322c-.94-.325-1.6-.548-2.229-.768-1.414-1.483-2.816-2.957-4.222-4.428.13-2.9-3.015-2.417-4.206-4.038C10.608,3.453,9.2,3.25,8.327,2.551A20.322,20.322,0,0,1,6.05,0C3.991,1.336,2.087,2.58,0,3.936c.357,1.978.677,3.753.956,5.3,1.973,2.279,4.636,3.424,6.09,5.931A4.882,4.882,0,0,0,9.7,17.3c2.723.715,4.749,2.714,7.351,3.619l3.274,4.387c2.152.114,3.1,2.99,5.523,2.149a16.516,16.516,0,0,0,2.172,2.677c7.091,5.777-8.023-4.826-.288.1A50.686,50.686,0,0,1,34.5,34.882c2.293,2.056,5.653,2.035,7.687,4.4,3.181.76,5.6,2.949,8.412,4.4,1.994,1.028,4.38,1.292,6.175,1.783,1.325-.349,2.2-.581,3.128-.825C61.142,45.387,62.3,46.086,63.752,46.959Z" transform="translate(471.064 6668.561) rotate(-90)" fill="none" stroke="#5b1e16" stroke-linecap="round" stroke-linejoin="round" stroke-width="0.483"/>
    <path id="パス_2810" data-name="パス 2810" d="M2.5,14.12c0,1.052-.008,1.962-.012,2.62,1.475,2.08,2.77,3.9,4.156,5.858.666.309,1.495.691,2.181,1.007,1.556,2.234,3,4.306,4.241,6.089,1.739.577,3.051,1.06,4.44.394.146-.418.288-.837.422-1.219-1.239-3.843-5.622-5.435-6.467-9.693-.788-3.977-3.77-7.316-3.879-11.756.776-.366,1.584-.743,2.271-1.068,2.206,1.17,15.9,5.8,18.467,5.208a2.847,2.847,0,0,0,2.3-2.624c-.284-.577-.678-1.381-1.211-2.445C25.664,6.349,10.919.569,7.1,0,5.418.463,3.655.951,1.908,1.434.393,3.8.215,6.349.085,8.791c-.524,2.5,1.523,3.725,2.417,5.33" transform="translate(449.847 6634.768) rotate(-90)" fill="#5b1e16"/>
    <path id="パス_2811" data-name="パス 2811" d="M2.5,14.12c0,1.052-.008,1.962-.012,2.62,1.475,2.08,2.77,3.9,4.156,5.858.666.309,1.495.691,2.181,1.007,1.556,2.234,3,4.306,4.241,6.089,1.739.577,3.051,1.06,4.44.394.146-.418.288-.837.422-1.219-1.239-3.843-5.622-5.435-6.467-9.693-.788-3.977-3.77-7.316-3.879-11.756.776-.366,1.584-.743,2.271-1.068,2.206,1.17,15.9,5.8,18.467,5.208a2.847,2.847,0,0,0,2.3-2.624c-.284-.577-.678-1.381-1.211-2.445C25.664,6.349,10.919.569,7.1,0,5.418.463,3.655.951,1.908,1.434.393,3.8.215,6.349.085,8.791-.439,11.289,1.608,12.516,2.5,14.12Z" transform="translate(449.847 6634.768) rotate(-90)" fill="none" stroke="#5b1e16" stroke-linecap="round" stroke-linejoin="round" stroke-width="0.483"/>
    <path id="パス_2812" data-name="パス 2812" d="M16,10.509c-.873-.922-1.848-1.832-2.681-2.86-.861-1.064-1.58-2.242-2.06-2.937L3.274,0,0,3.823c3.575,4.083,8.145,6.443,10.907,10.217,3.863.179,3.879.187,5.09-3.53" transform="translate(428.487 6639.5) rotate(-90)" fill="#5b1e16"/>
    <path id="パス_2813" data-name="パス 2813" d="M16,10.509c-.873-.922-1.848-1.832-2.681-2.86-.861-1.064-1.58-2.242-2.06-2.937L3.274,0,0,3.823c3.575,4.083,8.145,6.443,10.907,10.217C14.77,14.218,14.787,14.226,16,10.509Z" transform="translate(428.487 6639.5) rotate(-90)" fill="none" stroke="#5b1e16" stroke-linecap="round" stroke-linejoin="round" stroke-width="0.483"/>
    <path id="パス_2814" data-name="パス 2814" d="M14.95,11.89c.081-3.258.154-6.187.232-9.319C14.686,1.82,14.118.955,13.492,0c-1.507.528-2.559.894-4.371,1.527-1.527,4.4-2.856,8.238-4.176,12.04C-.421,19.044-.421,19.044.391,20.128c1.271.232,2.783.5,4.582.825L10.7,17.768c1.629-2.255,3.071-4.249,4.249-5.878" transform="translate(392.879 6637.391) rotate(-90)" fill="#5b1e16"/>
    <path id="パス_2815" data-name="パス 2815" d="M14.95,11.89c.081-3.258.154-6.187.232-9.319C14.686,1.82,14.118.955,13.492,0c-1.507.528-2.559.894-4.371,1.527-1.527,4.4-2.856,8.238-4.176,12.04C-.421,19.044-.421,19.044.391,20.128c1.271.232,2.783.5,4.582.825L10.7,17.768C12.33,15.514,13.772,13.519,14.95,11.89Z" transform="translate(392.879 6637.391) rotate(-90)" fill="none" stroke="#5b1e16" stroke-linecap="round" stroke-linejoin="round" stroke-width="0.483"/>
    <path id="パス_2816" data-name="パス 2816" d="M16.668,0C14.1.609,11.749,1.17,9.929,1.6,4.741,8.705-.369,15.2.021,24.053A30.93,30.93,0,0,0,9.482,19.5C12.659,13.43,19.268,8.218,16.668,0" transform="translate(393.269 6618.072) rotate(-90)" fill="#5b1e16"/>
    <path id="パス_2817" data-name="パス 2817" d="M16.668,0C14.1.609,11.749,1.17,9.929,1.6,4.741,8.705-.369,15.2.021,24.053A30.93,30.93,0,0,0,9.482,19.5C12.659,13.43,19.268,8.218,16.668,0Z" transform="translate(393.269 6618.072) rotate(-90)" fill="none" stroke="#5b1e16" stroke-linecap="round" stroke-linejoin="round" stroke-width="0.483"/>
  </g>
</svg>
