<svg xmlns="http://www.w3.org/2000/svg" xmlns:xlink="http://www.w3.org/1999/xlink" width="694" height="50" viewBox="0 0 694 50">
  <defs>
    <clipPath id="clip-path">
      <rect id="長方形_1810" data-name="長方形 1810" width="694" height="50" transform="translate(-2 -1)" fill="#f4ffc4"/>
    </clipPath>
  </defs>
  <g id="campaign_hash_dt" transform="translate(2 1)">
    <g id="グループ_3600" data-name="グループ 3600" transform="translate(0 0)" clip-path="url(#clip-path)">
      <path id="パス_6496" data-name="パス 6496" d="M69.181,7.485A7.252,7.252,0,0,0,68.9,6.278q-.219-.728-.365-1.162a2.286,2.286,0,0,1-.129-.719c0-.253.016-.662.046-1.211a1.785,1.785,0,0,0-.475-1.554A1.843,1.843,0,0,0,66.768,1.2a.315.315,0,0,0-.082.006,2.423,2.423,0,0,0-1.437.663A1.51,1.51,0,0,0,64.991,3.1a13.059,13.059,0,0,0,.34,1.5,3.792,3.792,0,0,0,.375,1.016,3.1,3.1,0,0,0,.271,1.351,3.244,3.244,0,0,1,.29,1.115,2.5,2.5,0,0,0,.47,1.276,4.85,4.85,0,0,0,.429,1.487,1.5,1.5,0,0,0,.905.912,1.543,1.543,0,0,0,.37.045,2.073,2.073,0,0,0,.679-.124,2.76,2.76,0,0,0,.869-.463,1.155,1.155,0,0,0,.378-1,3.8,3.8,0,0,0-.608-1.575,3.07,3.07,0,0,1-.576-1.159" transform="translate(2.702 0.044)" fill="#f4ffc4" stroke="#f4ffc4" stroke-linejoin="round" stroke-width="0.6"/>
      <path id="パス_6497" data-name="パス 6497" d="M63.063,10.629a2.455,2.455,0,0,0-.347-1.022,5.351,5.351,0,0,0,.08-1.664q-.094-.737-.186-1.257c.173-.958.144-1.522-.1-1.827a1.394,1.394,0,0,0-.895-.522,2.343,2.343,0,0,0-1.283.236c-.579.247-.854.911-.816,2a15,15,0,0,0,.3,1.991,10.991,10.991,0,0,1,.135,2.284,4.248,4.248,0,0,0,.14,1.587,1.133,1.133,0,0,0,.883.751,2.426,2.426,0,0,0,.485.05,2.31,2.31,0,0,0,.6-.079,1.6,1.6,0,0,0,.861-.51,1.054,1.054,0,0,0,.043-1.132,2.786,2.786,0,0,0,.1-.885" transform="translate(2.475 0.158)" fill="#f4ffc4" stroke="#f4ffc4" stroke-linejoin="round" stroke-width="0.6"/>
      <path id="パス_6498" data-name="パス 6498" d="M59.313,12.374a2.724,2.724,0,0,0-.576-.811,3.043,3.043,0,0,0-.753-.484,10.425,10.425,0,0,0-1.028-.41,14.58,14.58,0,0,0-3.132-.146c-.953.064-1.976.179-3.04.339a20.5,20.5,0,0,0-2.894.633q-.627.193-1.245.433c.03-.031.06-.061.091-.093a2.979,2.979,0,0,1,.9-.893,2.464,2.464,0,0,0,.829-.66,2.125,2.125,0,0,1,.631-.521c.294-.164.521-.293.71-.408.249-.185.526-.4.834-.644a5.907,5.907,0,0,0,.71-.287q.294-.145.906-.487a.991.991,0,0,0,.448-1.383A2.55,2.55,0,0,0,51.8,5.435,1.438,1.438,0,0,0,50.546,5.2a5.719,5.719,0,0,0-1,.406,5.785,5.785,0,0,0-1.151.865.288.288,0,0,0-.065.081c-.291.542-.447.581-.45.581a1.227,1.227,0,0,0-.861.653,2.98,2.98,0,0,0-.472.5,2.748,2.748,0,0,1-.457.476q-.286.239-.83.639a37.916,37.916,0,0,0-3.332,3.6Q39.2,16.152,38.458,16.99L37.026,18.6l-.117.136c-.348.535-.707,1.037-1.069,1.489a7.5,7.5,0,0,0-.956,1.554,2.736,2.736,0,0,0-.082,1.986,1.817,1.817,0,0,0,1.179,1.125,1.454,1.454,0,0,0,1.512-.175,3.456,3.456,0,0,0,.69-.718.967.967,0,0,0-.091-1.044,1.04,1.04,0,0,1,.045-.906.286.286,0,0,0,.021-.088,1.546,1.546,0,0,1,.323-.8,1.788,1.788,0,0,0,.737-1.039.5.5,0,0,1,.175-.35,2.283,2.283,0,0,0,.471-.514l.7-.769a1.873,1.873,0,0,1,.419-.348,2.3,2.3,0,0,0,.859-1.084,2.334,2.334,0,0,0,.53-.654.328.328,0,0,1,.212-.2.958.958,0,0,0,.608-.521.9.9,0,0,1,.284-.341,2.994,2.994,0,0,0,.385-.333,1.427,1.427,0,0,0,.606.778,2.176,2.176,0,0,0,1.161.284,1.377,1.377,0,0,0,1.076-.592,11.468,11.468,0,0,0,1.107-.875,2.74,2.74,0,0,0,1.1-.2c.237-.11.594-.26,1.066-.448a9.07,9.07,0,0,1,2.687-.747,7.339,7.339,0,0,0,1.454-.139c.922.153,1.6.293,1.995.4.342.146.531.324.561.528a1.14,1.14,0,0,1-.07.663,1.982,1.982,0,0,0-.153,1q-.134.667-.269,1.251c-.345.619-.706,1.2-1.074,1.737a10.5,10.5,0,0,0-.828,1.374,7.251,7.251,0,0,0-.952,1.3c-.175.332-.405.735-.686,1.2-.219.341-.6.877-1.123,1.591-.2.277-1.126,1.455-2.195,2.822-1.779,2.272-3.993,5.1-4.843,6.252-1.372,1.858-2.562,3.4-3.538,4.6s-1.578,1.915-1.795,2.146a6.565,6.565,0,0,0-.66.833,2.4,2.4,0,0,1-.576.617l-.891.647a.359.359,0,0,0-.058.054,5.858,5.858,0,0,1-1.216,1.248,2.512,2.512,0,0,0-.743.631,2.012,2.012,0,0,0-.4.963,1.668,1.668,0,0,0,.616,1.367,1.4,1.4,0,0,0,1,.512,1.029,1.029,0,0,0,.522-.149,3.649,3.649,0,0,0,.872-.682A2.947,2.947,0,0,0,38.543,45q.231-.438.462-.809c.793-1.041,1.827-2.351,3.076-3.9,1.274-1.577,1.967-2.458,2.118-2.693a8.128,8.128,0,0,1,.534-.715c.227-.273.535-.67.926-1.187s1.107-1.439,2.162-2.774a4.638,4.638,0,0,0,.439-.619c.111-.189.292-.532.544-1.03.6-.633,4.862-5.891,4.9-5.942.186-.236.477-.675.866-1.3s.946-1.444,1.63-2.4a1.647,1.647,0,0,0,.58-1.015,1.842,1.842,0,0,1,.312-.475l.483-.528a1.274,1.274,0,0,0,.346-.763.3.3,0,0,1,.132-.249,1.566,1.566,0,0,0,.493-.983,3.084,3.084,0,0,0,.711-1.266q.269-.829.368-1.221a11.3,11.3,0,0,0,.2-1.488.31.31,0,0,0-.02-.141c-.166-.425-.331-.806-.495-1.132" transform="translate(1.439 0.189)" fill="#f4ffc4" stroke="#f4ffc4" stroke-linejoin="round" stroke-width="0.6"/>
      <path id="パス_6499" data-name="パス 6499" d="M79.121,7.522a1.8,1.8,0,0,0-1.395-.31,2.41,2.41,0,0,0-1.108.528.307.307,0,0,0-.073.094l-1.111,2.21a11.274,11.274,0,0,0-.723,2.177c-.236.944-.407,1.731-.505,2.341a4.014,4.014,0,0,0-.373,1.4,1.4,1.4,0,0,1-.085.553,1.175,1.175,0,0,0-.2.584,2.479,2.479,0,0,0,.062.718c-.219.812-.356,1.379-.42,1.729a4.067,4.067,0,0,0-.053,1.119c.032.331.056.695.072,1.087a2.255,2.255,0,0,0,.686,1.423,6.936,6.936,0,0,0,1.5,1.2,6.089,6.089,0,0,0,1.1.633c.277.115.556.22.835.318a1.47,1.47,0,0,0,.487.084,1.592,1.592,0,0,0,.573-.111,1.57,1.57,0,0,0,.842-1.143c.229-.815-.06-1.211-.379-1.419-.444-.221-.817-.417-1.118-.591a6.063,6.063,0,0,0-.817-.405.954.954,0,0,1-.4-.29,1.1,1.1,0,0,1-.2-.59,10.783,10.783,0,0,1-.095-1.447,5.451,5.451,0,0,1,.184-1.416c.194-.8.357-1.617.484-2.408a4.106,4.106,0,0,1,.2-.669,4.69,4.69,0,0,0,.231-1.084,3.775,3.775,0,0,0,.448-1.651,2.165,2.165,0,0,0,.486-.767c.074-.222.2-.533.369-.934q.394-.3.787-.562a1.157,1.157,0,0,0,.5-1.186,1.656,1.656,0,0,0-.788-1.206" transform="translate(3.041 0.263)" fill="#f4ffc4" stroke="#f4ffc4" stroke-linejoin="round" stroke-width="0.6"/>
      <path id="パス_6500" data-name="パス 6500" d="M94.46,7.007a2.073,2.073,0,0,0-1.528-.236.313.313,0,0,0-.092.033,1.456,1.456,0,0,0-.777.783,2.7,2.7,0,0,1-.347.662,1.994,1.994,0,0,0-.366.97,3.677,3.677,0,0,1-.185.841,4.3,4.3,0,0,0-.362.862,4.212,4.212,0,0,0-.079.649c-.014.193-.042.261-.034.261-.153.126-.232.375-.274.872a5.046,5.046,0,0,0-.532,1.378,1.784,1.784,0,0,1-.194.627.939.939,0,0,0-.079.776,2.1,2.1,0,0,0-.364,1.142,4.519,4.519,0,0,0-.28.933,1.632,1.632,0,0,1-.409.789.314.314,0,0,0-.075.157,9.936,9.936,0,0,0-.148,1.457,3.58,3.58,0,0,0-.481,1.474,3.606,3.606,0,0,0-.5,1.105,4.143,4.143,0,0,0-.128.937,4.824,4.824,0,0,1-.368,1.31c-.259.71-.522,1.542-.779,2.472s-.555,1.886-.888,2.866a11.834,11.834,0,0,1-.765,1.9c-.29.454-.374.788-.268,1.051a.433.433,0,0,1-.005.313,3.568,3.568,0,0,1-.381.708,10.825,10.825,0,0,0-.447,1.312,1.159,1.159,0,0,1-.243.513,1.058,1.058,0,0,0-.132,1.016q-.38.547-.643.941a.308.308,0,0,0-.053.172.729.729,0,0,1-.214.422,1.71,1.71,0,0,0-.411.962q-.05.465-.074.9a3.893,3.893,0,0,1-.248,1.019.316.316,0,0,0-.014.162,2.861,2.861,0,0,0,.486,1.4,1.8,1.8,0,0,0,.9.476,1.752,1.752,0,0,0,.46.066,1.317,1.317,0,0,0,.705-.2,2.288,2.288,0,0,0,.726-.724,1.643,1.643,0,0,0,.239-1.059,2.519,2.519,0,0,1,.268-1.148.313.313,0,0,0,.021-.076c.192-1.4.433-2.781.719-4.1.509-2.185,1.092-4.394,1.732-6.563.636-2.152,1.08-3.576,1.321-4.231a17.956,17.956,0,0,0,.566-1.785c.124-.494.381-1.284.762-2.347s.705-2.03.947-2.851a10.29,10.29,0,0,1,.556-1.576,8.587,8.587,0,0,0,.46-1.079,2.439,2.439,0,0,0,.412-.87,2.478,2.478,0,0,1,.367-.783,6.092,6.092,0,0,0,.38-1.088,4.868,4.868,0,0,1,.451-1.1c.156-.465.307-.87.45-1.2s.308-.685.524-1.134q.145-.628.268-1.259a1.159,1.159,0,0,0-.55-1.281" transform="translate(3.38 0.246)" fill="#f4ffc4" stroke="#f4ffc4" stroke-linejoin="round" stroke-width="0.6"/>
      <path id="パス_6501" data-name="パス 6501" d="M123.412,19.976a2.646,2.646,0,0,0-.783-.268,5.58,5.58,0,0,0-1.094,0,.323.323,0,0,0-.114.03,5.01,5.01,0,0,1-1.364.353c-.452.033-.828.066-1.128.1a9.742,9.742,0,0,1-1.041.046.3.3,0,0,0-.114.023,2.041,2.041,0,0,1-.624.146c-.231.018-.462.024-.654.027a2.689,2.689,0,0,0-.852.026q-.4.07-.787.117a3.758,3.758,0,0,1-.81,0,12.667,12.667,0,0,1-2.055.117,7.57,7.57,0,0,0-1.783.157,2.855,2.855,0,0,0-1.512-.038l-1.273-.093a5.4,5.4,0,0,0-1.28.048,6.86,6.86,0,0,1-1.233-.135,1.06,1.06,0,0,0-.834.079.34.34,0,0,1-.227.063c-.135-.032-.425-.1-.876-.193a.252.252,0,0,0-.1-.005,4.256,4.256,0,0,1-1.1-.07c-.506-.081-.981-.139-1.413-.171A2.628,2.628,0,0,0,99,20.59c-.377.124-.813.484-.813,1.479a1.637,1.637,0,0,0,.737,1.583,2.052,2.052,0,0,0,.952.29,1.177,1.177,0,0,0,.21-.019c.267-.051.736-.175,1.371-.362a3.127,3.127,0,0,1,.837-.065,2.277,2.277,0,0,1,.688.124,1.521,1.521,0,0,0,1.183-.229,3.862,3.862,0,0,0,1.423.075,4.821,4.821,0,0,0,.867-.262,3.183,3.183,0,0,0,1.163.147q.625-.023,5.368-.24,4.709-.213,6.229-.12,1.019-.095,1.659-.119.658-.025,1.362-.1a4.766,4.766,0,0,0,1.031-.185,1.06,1.06,0,0,0,.6-.588A2.08,2.08,0,0,0,124,20.963a1.118,1.118,0,0,0-.587-.987" transform="translate(4.083 0.721)" fill="#f4ffc4" stroke="#f4ffc4" stroke-linejoin="round" stroke-width="0.6"/>
      <path id="パス_6502" data-name="パス 6502" d="M159.717,18.38a1.673,1.673,0,0,0-.731-.724,1.321,1.321,0,0,0-1.285-.061,4.428,4.428,0,0,1-1.014.336,4.029,4.029,0,0,0-1.533.809,3.136,3.136,0,0,1-1.032.569,1.908,1.908,0,0,0-1.066.8.6.6,0,0,1-.4.174,1.225,1.225,0,0,0-.83.426,2.886,2.886,0,0,1-.857.37,1.788,1.788,0,0,0-.98.682,1.7,1.7,0,0,0-.973.379,2.855,2.855,0,0,1-.74.451q-1.066.484-2.375,1.133a20.868,20.868,0,0,0-1.955,1.072,1.779,1.779,0,0,0-1.036.759c-.008.019-.1.181-.708.332a.313.313,0,0,0-.184.129.375.375,0,0,1-.317.175,1.7,1.7,0,0,0-1.066.707c-.467.227-1.463.83-3.039,1.84-1.652,1.058-2.834,1.854-3.613,2.438s-1.524,1.116-2.26,1.626a.336.336,0,0,0-.079.079,3.968,3.968,0,0,0-.753,1.753,1.1,1.1,0,0,0,.846,1.242q.694.215,1.171.38a.589.589,0,0,0,.2.034c.454,0,.994-.5,1.739-1.6a13.332,13.332,0,0,1,2.781-2.435c1.284-.895,2.4-1.74,3.328-2.515a32.749,32.749,0,0,1,4.776-3.016c2.291-1.259,4.139-2.243,5.491-2.924s2.286-1.122,2.772-1.309a5.537,5.537,0,0,0,1.353-.732q.281-.138.8-.35t.991-.41a5.241,5.241,0,0,0,.942-.52,2.228,2.228,0,0,0,1.268-.539,1.71,1.71,0,0,0,.436-.765,1.271,1.271,0,0,0-.065-.791" transform="translate(5.443 0.639)" fill="#f4ffc4" stroke="#f4ffc4" stroke-linejoin="round" stroke-width="0.6"/>
      <path id="パス_6503" data-name="パス 6503" d="M132.218,14.877a7.86,7.86,0,0,1,1.589,1.287c.615.626,1.2,1.258,1.731,1.882a4.674,4.674,0,0,0,.861,1.583.286.286,0,0,0,.082.067.431.431,0,0,1,.231.346,1.258,1.258,0,0,0,.65.9,1.4,1.4,0,0,0,.752.214,1.962,1.962,0,0,0,.624-.11,1.337,1.337,0,0,0,.978-.97A1.577,1.577,0,0,0,139.644,19a5.3,5.3,0,0,0-.621-.889,1.448,1.448,0,0,0-.216-.7,1.522,1.522,0,0,0-.624-.519,2.435,2.435,0,0,0-.606-1,3.882,3.882,0,0,1-.563-.612,4.177,4.177,0,0,1-.627-.793,1.374,1.374,0,0,0-.842-.6,1.4,1.4,0,0,0-.781-.646c-.308-.274-.621-.53-.931-.761a3.882,3.882,0,0,0-1.452-.612c-.255-.032-.495-.063-.731-.1a2.853,2.853,0,0,0-1.068.1,1.582,1.582,0,0,0-1.206,1.5,4.908,4.908,0,0,0,.128,1.05,1.276,1.276,0,0,0,.849.971,1.6,1.6,0,0,0,1.08.073,2.112,2.112,0,0,0,.785-.594" transform="translate(5.38 0.431)" fill="#f4ffc4" stroke="#f4ffc4" stroke-linejoin="round" stroke-width="0.6"/>
      <path id="パス_6504" data-name="パス 6504" d="M193.634,17.319a6.369,6.369,0,0,0-1.464-1.081,8.519,8.519,0,0,1-.892-1.363,5.79,5.79,0,0,1-.505-1.276,5.269,5.269,0,0,1-.135-1.224,22.022,22.022,0,0,0-.244-2.513,2.869,2.869,0,0,0-.3-.916,1.145,1.145,0,0,0-.948-.65,1.452,1.452,0,0,0-1.071.307,2.95,2.95,0,0,0-.647.7,2.086,2.086,0,0,0,.026,1.6A26.3,26.3,0,0,0,188,13.941a8.945,8.945,0,0,0,.53,1.623,2.267,2.267,0,0,1,.235.695,2.7,2.7,0,0,0,.823,1.27,3.1,3.1,0,0,1,.612.663,2.791,2.791,0,0,0,.792.782,5.6,5.6,0,0,0,.794.586,1.448,1.448,0,0,0,.753.194,2.214,2.214,0,0,0,.378-.035,1.8,1.8,0,0,0,1.044-.527.967.967,0,0,0,.205-1.075,2.424,2.424,0,0,0-.527-.8" transform="translate(7.789 0.304)" fill="#f4ffc4" stroke="#f4ffc4" stroke-linejoin="round" stroke-width="0.6"/>
      <path id="パス_6505" data-name="パス 6505" d="M188.6,18.542a3.25,3.25,0,0,0-.407-.972,2.735,2.735,0,0,0-.682-.948,5.39,5.39,0,0,0-1.362-.747,8.542,8.542,0,0,0-1.811-.549,10.831,10.831,0,0,0-1.872-.172c-.367.018-.918.025-1.668.025q-.906.048-1.479.049a10.733,10.733,0,0,0-1.213.094c.408-.553.968-1.361,1.69-2.446a27.1,27.1,0,0,1,2.421-3.239q.637-.361.9-.5a.891.891,0,0,0,.452-.782,1.939,1.939,0,0,0-.333-1.092,1.283,1.283,0,0,0-1.137-.68,4.278,4.278,0,0,0-1.018.106,2.986,2.986,0,0,0-1.158.764,1.222,1.222,0,0,0-.513.7.882.882,0,0,1-.209.394.311.311,0,0,0-.078.129,2.119,2.119,0,0,1-.318.7,1.372,1.372,0,0,0-.555.8,1.119,1.119,0,0,1-.3.529.325.325,0,0,0-.067.1,10.191,10.191,0,0,1-.467.976c-.123.215-.419.669-.881,1.349s-.836,1.234-1.108,1.633a10.889,10.889,0,0,1-.966,1.187,4.224,4.224,0,0,0-1.267.232,4.871,4.871,0,0,1-1.271.247.3.3,0,0,0-.085.019,6.074,6.074,0,0,1-1.033.273,3.381,3.381,0,0,0-1.086.391c-.525.062-1.021.123-1.532.2a3.752,3.752,0,0,1-.753.155,1.762,1.762,0,0,0-.793.26,5,5,0,0,1-1.322.393,9.051,9.051,0,0,0-1.15.323,1.339,1.339,0,0,0-.885,1.334,1.443,1.443,0,0,0,.605,1.433,2.154,2.154,0,0,0,1.13.36,3.725,3.725,0,0,0,1.586-.574,10.665,10.665,0,0,1,1.689-.84,20.992,20.992,0,0,1,2.686-.852c.629-.153,1.225-.31,1.781-.468a3.23,3.23,0,0,1-.364.569,2.642,2.642,0,0,1-.321.279,1.326,1.326,0,0,0-.426.649,2.552,2.552,0,0,1-.5.753,3.628,3.628,0,0,1-.533.6,1.635,1.635,0,0,0-.5.888.968.968,0,0,0-.547.787,1.033,1.033,0,0,0-.563.689,2.692,2.692,0,0,0-1,1.217,2.323,2.323,0,0,0-.51.786.763.763,0,0,1-.345.417,1.707,1.707,0,0,0-.67.749c-1.626,2.064-3.1,3.886-4.389,5.425-.545.669-1.117,1.326-1.7,1.954a9.719,9.719,0,0,0-1.56,2.263,2.961,2.961,0,0,0-.4,1.418c-.022.6.153.989.516,1.158.244.114.454.209.631.29a.738.738,0,0,0,.3.061,1.806,1.806,0,0,0,.822-.264,1.221,1.221,0,0,0,.766-.951,2.657,2.657,0,0,1,.308-.916,14.736,14.736,0,0,0,.6-1.451A14.711,14.711,0,0,1,163.68,34.7c1.8-2.2,3.617-4.559,5.415-7,1.78-2.42,3.467-4.656,5.023-6.657q1.355-1.925,1.6-2.288c.142-.21.354-.487.631-.823a2.823,2.823,0,0,1,.813-.076,2.988,2.988,0,0,0,1.068-.089,2.233,2.233,0,0,0,1.225-.242,5.649,5.649,0,0,1,.758.045,3.545,3.545,0,0,0,.978-.04,3.228,3.228,0,0,0,1.046.088,2.359,2.359,0,0,1,.808.087c.438.125.909.285,1.4.471a3.25,3.25,0,0,1,1.009.562,1.246,1.246,0,0,1,.364.737,3.555,3.555,0,0,1-.185,1.449,3.648,3.648,0,0,1-.47,1.182,2.276,2.276,0,0,0-.411.812A1.577,1.577,0,0,0,184,23.948a3.132,3.132,0,0,0-.718.916c-.4.234-.612.48-.635.746,0,0-.041.129-.451.366a.3.3,0,0,0-.064.05q-.683.678-.974.994c-.2.213-.377.416-.542.612a2.72,2.72,0,0,1-.626.512,3.19,3.19,0,0,0-.835.748c-.253.221-.491.419-.711.591s-.534.428-.892.727q-.527.334-.932.571a.558.558,0,0,1-.279.1c-.033,0-.047-.007-.042,0a5.611,5.611,0,0,1-.662-.8c-.212-.307-.545-.754-.962-1.274a1.507,1.507,0,0,0-1.718-1.066,1.478,1.478,0,0,0-1.306,1.017,1.874,1.874,0,0,0,.146,1.4,7.875,7.875,0,0,0,.856,1.276,7.6,7.6,0,0,1,1.43,1.661.333.333,0,0,0,.061.065,2.5,2.5,0,0,0,1.95.572,3.93,3.93,0,0,0,1.621-.515q.764-.572,1-.739a6.237,6.237,0,0,1,.636-.367c.26-.195.53-.405.806-.632s.531-.426.786-.615a2.764,2.764,0,0,0,.733-.865,26.583,26.583,0,0,0,2.716-2.734c1.061-1.2,1.737-2,2.068-2.445s.6-.826.829-1.166a11.061,11.061,0,0,0,.8-1.514c.191-.445.342-.785.454-1.025a2.007,2.007,0,0,0,.2-.851c0-.245-.008-.515-.025-.81a5.673,5.673,0,0,0-.127-.915" transform="translate(6.588 0.241)" fill="#f4ffc4" stroke="#f4ffc4" stroke-linejoin="round" stroke-width="0.6"/>
      <path id="パス_6506" data-name="パス 6506" d="M198.473,15.183a4.966,4.966,0,0,1-.342-1.287,7.317,7.317,0,0,0-.2-1.13,10.474,10.474,0,0,1-.233-1.278,11.629,11.629,0,0,1-.069-2.017,10.383,10.383,0,0,0-.176-1.563,3.134,3.134,0,0,0-.353-.96c-.19-.306-.551-.473-1.183-.458a1.763,1.763,0,0,0-1.075.483,1.446,1.446,0,0,0-.371.936,5.813,5.813,0,0,0,.215,1.51,6.749,6.749,0,0,0,.1,1.64c.093.481.181,1.15.26,1.988a9.978,9.978,0,0,0,.524,2.428q.381,1.07.622,1.832c.261,1.007.656,1.527,1.2,1.591a2.911,2.911,0,0,0,.367.022,2.987,2.987,0,0,0,.952-.154c.373-.123.8-.472.695-1.433a.311.311,0,0,0-.024-.091c-.323-.739-.629-1.428-.913-2.058" transform="translate(8.087 0.238)" fill="#f4ffc4" stroke="#f4ffc4" stroke-linejoin="round" stroke-width="0.6"/>
      <path id="パス_6507" data-name="パス 6507" d="M227.917,19.976a2.592,2.592,0,0,0-.782-.268,5.6,5.6,0,0,0-1.1,0,.324.324,0,0,0-.111.03,5.019,5.019,0,0,1-1.366.353c-.451.033-.827.066-1.128.1a9.743,9.743,0,0,1-1.041.046.308.308,0,0,0-.114.023,2.034,2.034,0,0,1-.624.146c-.231.018-.462.024-.654.027a2.73,2.73,0,0,0-.853.026c-.261.047-.525.086-.786.117a3.749,3.749,0,0,1-.809,0,12.68,12.68,0,0,1-2.055.117,7.574,7.574,0,0,0-1.784.157,2.85,2.85,0,0,0-1.511-.038l-1.273-.093a5.407,5.407,0,0,0-1.281.048,6.86,6.86,0,0,1-1.233-.135,1.054,1.054,0,0,0-.834.079.328.328,0,0,1-.226.063c-.135-.032-.427-.1-.877-.193a.244.244,0,0,0-.095-.005,4.269,4.269,0,0,1-1.106-.07c-.505-.081-.98-.139-1.411-.171a2.616,2.616,0,0,0-1.364.261c-.377.124-.815.484-.815,1.479a1.635,1.635,0,0,0,.738,1.583,2.055,2.055,0,0,0,.953.29,1.156,1.156,0,0,0,.209-.019c.268-.052.736-.175,1.37-.362a3.132,3.132,0,0,1,.839-.065,2.285,2.285,0,0,1,.69.124,1.519,1.519,0,0,0,1.182-.229,3.775,3.775,0,0,0,1.423.075,4.824,4.824,0,0,0,.868-.262,3.2,3.2,0,0,0,1.162.147q.627-.023,5.368-.24,4.709-.213,6.23-.12,1.017-.095,1.659-.119.658-.025,1.361-.1a4.793,4.793,0,0,0,1.032-.185,1.054,1.054,0,0,0,.6-.588,2.078,2.078,0,0,0,.139-1.039,1.119,1.119,0,0,0-.589-.987" transform="translate(8.429 0.721)" fill="#f4ffc4" stroke="#f4ffc4" stroke-linejoin="round" stroke-width="0.6"/>
      <path id="パス_6508" data-name="パス 6508" d="M264.708,12.3a2.121,2.121,0,0,0-1.047-.338,2.079,2.079,0,0,0-.908.12,4.933,4.933,0,0,1-.769.224c-.353.08-.754.168-1.2.263-1.13.224-2.239.425-3.3.6-.965.158-2.269.324-3.882.5.093-.319.164-.6.21-.827.064-.321.152-.777.266-1.374a8.9,8.9,0,0,0,.174-1.561,3.2,3.2,0,0,0,.193-1.353,8.877,8.877,0,0,1,0-1.279,1.455,1.455,0,0,0-1.469-1.386,1.588,1.588,0,0,0-.987.3,2.8,2.8,0,0,0-.585.6.95.95,0,0,0-.328.846,2.97,2.97,0,0,0,.121.484,1.132,1.132,0,0,0-.028.7,1.757,1.757,0,0,1-.077.775.292.292,0,0,0-.02.108c0,.37-.032.893-.1,1.556a13.584,13.584,0,0,1-.275,1.756l-.277.827c-1.6.238-2.862.389-3.766.451q-1.423.093-3.762.238l-3.524.216c-.774.049-1.609.057-2.479.025a7.676,7.676,0,0,1-2.165-.355,1.984,1.984,0,0,0-1.141-.293,5.285,5.285,0,0,0-1.334.254,2.513,2.513,0,0,0-1.18.692,1.083,1.083,0,0,0-.2,1.184,3.261,3.261,0,0,0,.629.994,3.241,3.241,0,0,0,1.684.5,3.794,3.794,0,0,0,1.722-.148c.8-.063,1.42-.126,1.919-.194a1.471,1.471,0,0,1,.78-.04.816.816,0,0,0,.78-.081,2.651,2.651,0,0,0,1.436-.161,7.124,7.124,0,0,1,.809.047,2.838,2.838,0,0,0,1.282-.276,4.286,4.286,0,0,0,1.635-.06,5.9,5.9,0,0,1,1.348-.025,3.536,3.536,0,0,0,1.538-.252,3.734,3.734,0,0,0,1.651,0,12.287,12.287,0,0,1,1.717-.26,27.373,27.373,0,0,1-1.406,3.794,39.154,39.154,0,0,1-2.082,3.954c-.759,1.252-1.414,2.3-1.949,3.113q-.82,1.247-1.542,2.3a19.081,19.081,0,0,1-1.537,1.956,3.124,3.124,0,0,0-.7.9,2.755,2.755,0,0,1-.782.861.285.285,0,0,0-.07.072A11.487,11.487,0,0,1,238,35.314a4.82,4.82,0,0,0-1.157,1.47,1.738,1.738,0,0,0-.106,1.309,2.684,2.684,0,0,0,.653,1.006,1.2,1.2,0,0,0,.867.393,1.191,1.191,0,0,0,.337-.05,2.126,2.126,0,0,0,.9-.511,3.078,3.078,0,0,1,.5-.414,1.377,1.377,0,0,0,.534-.706c.09-.235.2-.6.35-1.112a1.4,1.4,0,0,0,.759-.59,1.482,1.482,0,0,0,.237-.879c-.011-.154.036-.187.055-.2a1.017,1.017,0,0,0,.421-.645.273.273,0,0,1,.176-.215c.286-.118.479-.429.6-.974a3.474,3.474,0,0,0,.724-.943,2.084,2.084,0,0,1,.4-.585,4.793,4.793,0,0,0,.673-.975,11.051,11.051,0,0,1,1.031-1.468,5.389,5.389,0,0,0,.953-1.618,1.039,1.039,0,0,0,.654-.751,2.162,2.162,0,0,1,.32-.732,4.643,4.643,0,0,0,.44-.854,4.014,4.014,0,0,0,.183-.68c.017-.1.056-.13.1-.145.339-.135.437-.537.475-.871a1.651,1.651,0,0,0,.491-.89.858.858,0,0,1,.234-.478,1.834,1.834,0,0,0,.387-1.1,6.3,6.3,0,0,0,.827-1.314q.266-.6.46-1.061a6.393,6.393,0,0,1,.507-.937,7.572,7.572,0,0,0,.695-1.651l4.835-.392a12.862,12.862,0,0,0,2.324-.383,1.235,1.235,0,0,0,1.385-.058,2.122,2.122,0,0,0,1.061-.149,3.223,3.223,0,0,0,1.035.008c.22-.048.495-.093.823-.141a1.091,1.091,0,0,0,.921-.67,2.7,2.7,0,0,0,.192-1.031,1.169,1.169,0,0,0-.553-1.029" transform="translate(9.597 0.216)" fill="#f4ffc4" stroke="#f4ffc4" stroke-linejoin="round" stroke-width="0.6"/>
      <path id="パス_6509" data-name="パス 6509" d="M289.081,31.664a1.654,1.654,0,0,0-1.516.111,6.99,6.99,0,0,1-.7.221.31.31,0,0,0-.118.057.624.624,0,0,1-.444.185,1.591,1.591,0,0,0-.991.39,20.4,20.4,0,0,1-2.3.811q-1.261.369-2.288.714a9.781,9.781,0,0,1-2.153.454,16.228,16.228,0,0,1-2.337.259c-.46-.025-.9-.051-1.327-.076a3.182,3.182,0,0,1-.82-.118,3.576,3.576,0,0,1-.567-.276c-.31-.247-.361-.359-.367-.372a.66.66,0,0,1-.019-.322,2.157,2.157,0,0,1,.187-.585,7.087,7.087,0,0,1,.375-.716,6.7,6.7,0,0,1,.626-.751q.361-.376.721-.7a1.81,1.81,0,0,0,.633-.655q.687-.468.965-.653a5.874,5.874,0,0,1,.694-.38,6.025,6.025,0,0,0,.781-.443,1.708,1.708,0,0,0,.769-.11c.123-.053.165-.026.179-.019a.957.957,0,0,0,.739.075,2.055,2.055,0,0,0,.591-.255,1.112,1.112,0,0,0,.866-.25.739.739,0,0,1,.339-.188,1.307,1.307,0,0,0,.749-.678,1.329,1.329,0,0,0,.212-.925,2.13,2.13,0,0,0-.38-.833,1.25,1.25,0,0,0-1.084-.515,3.263,3.263,0,0,0-1.118.192,2.432,2.432,0,0,0-1.287.356,8.377,8.377,0,0,1-1.156.589,4.48,4.48,0,0,0-.853-.1c-.126,0-.18-.022-.182-.013a.748.748,0,0,0-.515-.328,1.7,1.7,0,0,1-.373-.124,8.617,8.617,0,0,1-.746-.684,1.44,1.44,0,0,1-.3-.465,1.338,1.338,0,0,0-.311-.919V22.9a.307.307,0,0,0-.025-.122,1.289,1.289,0,0,1-.142-.469,1.311,1.311,0,0,0,.093-.691,1.561,1.561,0,0,0-.061-.872c.278-.307.342-.582.2-.787,0,0,.01-.091.2-.3a.307.307,0,0,0,.072-.285c-.077-.3-.035-.422-.012-.459a2.331,2.331,0,0,0,.247-.687,1.532,1.532,0,0,1,.241-.559,3.174,3.174,0,0,0,.362-.68,2,2,0,0,1,.375-.566,2.6,2.6,0,0,0,.8-1.015,1,1,0,0,0-.235-1.039,1.809,1.809,0,0,0-.905-.562,1.483,1.483,0,0,0-1,.2,2.051,2.051,0,0,0-.722.725,10.831,10.831,0,0,0-.5,1.066,6.565,6.565,0,0,0-.83,2.3c-.142.816-.253,1.664-.332,2.518a15.083,15.083,0,0,0,.04,2.861,6.115,6.115,0,0,0,.718,2.526,5.916,5.916,0,0,0,1,1.319,2.589,2.589,0,0,0,.882.562,1.4,1.4,0,0,1,.337.173c-.127.117-.27.261-.43.433a7.611,7.611,0,0,0-1.276.928,2.692,2.692,0,0,0-.587.594,1.1,1.1,0,0,1-.3.3,2.76,2.76,0,0,0-.7.865,1.462,1.462,0,0,1-.272.422c-.116.1-.254.3-.468,1.011a3.335,3.335,0,0,0-.158,1.778,2.041,2.041,0,0,0,1.053,1.6.978.978,0,0,0,.82.642.7.7,0,0,1,.381.106,1.078,1.078,0,0,0,.735.2c.221-.015.41-.026.566-.039a.268.268,0,0,1,.2.068.837.837,0,0,0,.846.025,1.3,1.3,0,0,0,.515.112,1.222,1.222,0,0,0,.2-.018,1.2,1.2,0,0,1,.478,0,1.818,1.818,0,0,0,.989-.167h.9a1.425,1.425,0,0,0,.815-.29,1.329,1.329,0,0,0,.723-.084c.146-.067.35-.143.61-.231a1.218,1.218,0,0,0,.862-.16,1.416,1.416,0,0,1,.41-.191,1.531,1.531,0,0,0,.832-.154,2.183,2.183,0,0,1,.436-.186c.143-.038.5-.157,1.078-.35a7.8,7.8,0,0,1,1.18-.333,6.422,6.422,0,0,0,1.016-.262c.3-.1.523-.168.669-.205a4.168,4.168,0,0,0,.887-.409,6.71,6.71,0,0,0,1.027-.294,1.4,1.4,0,0,0,.7-.68.768.768,0,0,0-.1-1.007,2.083,2.083,0,0,0-.634-.405" transform="translate(11.263 0.505)" fill="#f4ffc4" stroke="#f4ffc4" stroke-linejoin="round" stroke-width="0.6"/>
      <path id="パス_6510" data-name="パス 6510" d="M323.683,9.334a3.2,3.2,0,0,0-1.994-.251,4.47,4.47,0,0,1-1.105.076,2.941,2.941,0,0,0-.935.064,3.425,3.425,0,0,1-.906.073,15.046,15.046,0,0,1-1.929.21c-.384,0-1.293.036-2.7.108q-2.019.1-5.756.3c.188-.3.342-.546.46-.731a2.724,2.724,0,0,0,.351-.9.716.716,0,0,0,.488-.725.685.685,0,0,1,.449-.6.2.2,0,0,0,.1-.108,2.246,2.246,0,0,1,.465-.76c.195-.193.469-.45.822-.766a2.331,2.331,0,0,0,.93-1.282A1.57,1.57,0,0,0,312.152,3a1.817,1.817,0,0,0-1.058-.729,3.465,3.465,0,0,0-1.263-.14c-.387.044-.786.35-1.23.956-.569.954-1,1.711-1.295,2.255-.281.521-.617,1.189-1.026,2.041a23.119,23.119,0,0,1-1.6,2.725c-2.007.173-3.653.3-4.891.367-1.278.073-2.264.142-3.018.214s-1.475.135-2.173.187a12.043,12.043,0,0,0-1.933.3,16.646,16.646,0,0,0-1.686.433,1.505,1.505,0,0,0-1.007,1.642c0,1.124.48,1.417.884,1.464a3.142,3.142,0,0,0,1.353-.117c.4-.133.747-.267,1.066-.408a6.224,6.224,0,0,0,1-.566,1.984,1.984,0,0,0,1.188-.272,7.1,7.1,0,0,1,.974.05,1.46,1.46,0,0,0,.816-.12,6.687,6.687,0,0,1,.918-.291,1.054,1.054,0,0,0,.987.039c.193-.112.5-.265.909-.456a1.2,1.2,0,0,0,.839.157,5.589,5.589,0,0,1,.833-.126,19.824,19.824,0,0,0,2.08-.172,32.088,32.088,0,0,0-1.663,4.835,33.815,33.815,0,0,0-.84,3.99,4,4,0,0,0,.676,2.509c.54.866,1.037,1.318,1.52,1.38q.614.079,1.228.187a8.628,8.628,0,0,0,2.485-.22,11.107,11.107,0,0,1,2.137-.367,9.834,9.834,0,0,1,1.648-.055,8.5,8.5,0,0,0,1.048.056,9.178,9.178,0,0,1,1.023.051c.3.036.685.108,1.095.2a3.4,3.4,0,0,0,1.366.284,10.966,10.966,0,0,1,1,.724c.043.037.17.152.049.533a3.3,3.3,0,0,1-.429.881,3.725,3.725,0,0,1-.531.631,8.344,8.344,0,0,0-.972,1.252,3.389,3.389,0,0,0-1.074,1.016,2.529,2.529,0,0,0-.893.768,2,2,0,0,1-.584.582,6.5,6.5,0,0,1-.626.363,1.3,1.3,0,0,0-.546.644q-.436.193-.709.317a3.773,3.773,0,0,0-.917.733,6.161,6.161,0,0,0-1.182.593q-.48.319-1.594,1.11-.736.263-1.158.419a2.228,2.228,0,0,0-.71.417,1.5,1.5,0,0,0-1,.374,1.158,1.158,0,0,1-.641.321c-.264.035-.583.238-.608,1a2.807,2.807,0,0,0,.262,1.385.972.972,0,0,0,.953.525,2.076,2.076,0,0,0,.4-.04,6.725,6.725,0,0,0,1.774-.606,11.556,11.556,0,0,0,1.775-1.108,13.537,13.537,0,0,1,2.011-1.606c.823-.551,1.939-1.383,3.317-2.47a37.912,37.912,0,0,0,2.921-2.475l1.284-1.283a6.521,6.521,0,0,1,.779-.907,8.937,8.937,0,0,0,.721-.742c.145-.181.307-.4.49-.651a2.022,2.022,0,0,0,.358-.99,4.2,4.2,0,0,0,.029-1.295,1.362,1.362,0,0,0-.5-1.03,3.454,3.454,0,0,0-.812-1.143,7.165,7.165,0,0,0-.637-.441c-.184-.11-.385-.22-.605-.328a4.193,4.193,0,0,0-1.235-.287c-.541-.107-1.025-.189-1.437-.242a8.345,8.345,0,0,0-1.353-.057,11.934,11.934,0,0,1-1.373-.024,8.75,8.75,0,0,0-2,.154,5.348,5.348,0,0,0-.744-.13,2.67,2.67,0,0,0-1.166.335,1.8,1.8,0,0,0-1.018,0,9.206,9.206,0,0,1-1.058.277,2.8,2.8,0,0,1-1.109-.486,1.045,1.045,0,0,1-.458-.64,3.148,3.148,0,0,1,0-.8,2.406,2.406,0,0,1,.2-.738,2.407,2.407,0,0,0,.132-1.108,1.283,1.283,0,0,0,.376-.918,2.024,2.024,0,0,0,.343-1.156,1.865,1.865,0,0,1,.231-.959,2.973,2.973,0,0,0,.406-.863q.123-.418.271-1a.934.934,0,0,0,.705-.789,2.36,2.36,0,0,1,.617-1.087,7.679,7.679,0,0,0,1.117-.058,3.592,3.592,0,0,1,.955.055,5.819,5.819,0,0,0,1.918-.112,3.107,3.107,0,0,1,1.388-.215,2.16,2.16,0,0,0,1.074-.038,2.925,2.925,0,0,0,2.069.063,4.713,4.713,0,0,0,1.206.224,2.032,2.032,0,0,0,1.1-.265,2.059,2.059,0,0,0,1.088.237,2.235,2.235,0,0,1,.81.049,2.132,2.132,0,0,0,1.256-.19,3.008,3.008,0,0,0,1.418.249,2.341,2.341,0,0,0,1.15-.331c.3-.205.431-.614.412-1.247a1.614,1.614,0,0,0-.542-1.309" transform="translate(12.059 0.078)" fill="#f4ffc4" stroke="#f4ffc4" stroke-linejoin="round" stroke-width="0.6"/>
      <path id="パス_6511" data-name="パス 6511" d="M340.933,24a6.758,6.758,0,0,0-1.435-.121,5,5,0,0,0-1.012.1,41.96,41.96,0,0,1-4.272-.037q-1.173-.067-1.989-.133a1.536,1.536,0,0,0-.1-.727,2.177,2.177,0,0,1-.053-.606,2.432,2.432,0,0,0-.042-.642,2.348,2.348,0,0,0-.291-.674c-.147-.811-.411-1.237-.845-1.307a2.725,2.725,0,0,0-.905.145.959.959,0,0,0-.626.647,2.416,2.416,0,0,0-.122.664.929.929,0,0,0,.192.557.644.644,0,0,1,.132.3,1.676,1.676,0,0,0,.261.631,9.839,9.839,0,0,1,.309,1.379c.039.328.1.782.171,1.325a6.785,6.785,0,0,0,0,1.053c.024.272.036.546.037.834a2.975,2.975,0,0,1-.018.726c-.038.263-.076.509-.114.733a2.913,2.913,0,0,0-.025.728,1.745,1.745,0,0,0-.146.8,2.656,2.656,0,0,1-.244.873c-.4,0-.723.015-.976.037q-.42.037-.991.1c-.375.037-.752.055-1.17.061a6.13,6.13,0,0,1-.755.147,6.552,6.552,0,0,0-.962.215,3.9,3.9,0,0,0-1.226.6,2.363,2.363,0,0,0-.79.838,3.022,3.022,0,0,0-.229,1.091,4.567,4.567,0,0,0,.2,1.306,3.361,3.361,0,0,0,.568,1.15,4.218,4.218,0,0,0,.82.8,2.8,2.8,0,0,0,.916.456,1.746,1.746,0,0,0,1.037.434c.349.026.725.039,1.118.039a.215.215,0,0,0,.068-.011,4.554,4.554,0,0,0,2.486-1.943,12.041,12.041,0,0,0,1.031-1.908c.093-.348.29-.918.586-1.695.5.024.858.046,1.073.069a5.872,5.872,0,0,0,.848.019,1.2,1.2,0,0,1,.506.034.841.841,0,0,0,.556.037.522.522,0,0,1,.384.072,1.063,1.063,0,0,0,.791.07,8.867,8.867,0,0,0,1.511.242,5.591,5.591,0,0,1,1.238.225,1.589,1.589,0,0,0,.608.314c.711.217,1.071.32,1.2.345.2.038.435-.064.747-.329A1.3,1.3,0,0,0,341.443,33c0-.472-.147-.766-.44-.876a3.627,3.627,0,0,1-.541-.25,2.971,2.971,0,0,0-1.055-.252,6.368,6.368,0,0,0-1.072-.173c-.263-.011-.484-.023-.661-.036a3.786,3.786,0,0,0-.522-.019,6.545,6.545,0,0,1-.957,0q-.458-.039-1.79-.134c-.828-.057-1.709-.089-2.621-.093.042-.23.09-.447.145-.647a2.557,2.557,0,0,0,.087-.846,1.769,1.769,0,0,0,.123-1.036,1.007,1.007,0,0,0,.233-.72,1.738,1.738,0,0,1,.031-.521,1.79,1.79,0,0,0,.065-.47c0-.114.029-.482.091-1.125a3.539,3.539,0,0,0,.728.1,4.265,4.265,0,0,0,.681-.059,1.945,1.945,0,0,1,.764.059c.4,0,.781-.012,1.069-.041a4.8,4.8,0,0,0,.737.08c.169,0,.408-.012.7-.038a1.924,1.924,0,0,1,.6.084,1.564,1.564,0,0,0,.7.065c.207-.023.48-.06.819-.108a5.3,5.3,0,0,0,.987.2c.207.015.415.02.623.02.307,0,.528-.235.657-.7a1.2,1.2,0,0,0-.066-1,1.118,1.118,0,0,0-.628-.464M329.4,33.221a3.7,3.7,0,0,1-.285.911,3.772,3.772,0,0,0-.306.8,2.917,2.917,0,0,0-.592.895c-.166.235-.249.256-.246.257a.686.686,0,0,0-.62.293,1.191,1.191,0,0,1-.522.139c-.137-.013-.293-.032-.468-.057a2.506,2.506,0,0,1-.492-.122.381.381,0,0,1-.241-.193,1.826,1.826,0,0,0-.444-.54,2.114,2.114,0,0,0-.28-.594c-.058-.079-.048-.247.029-.475a.194.194,0,0,0,.009-.091.669.669,0,0,1,.087-.437c.046-.081.086-.137.12-.127a.806.806,0,0,0,.564-.119q.222-.127.5-.256a1.862,1.862,0,0,1,.527-.151,2.432,2.432,0,0,0,1.105-.145c.334.048.6.076.795.088a1.31,1.31,0,0,0,.585-.072.341.341,0,0,1,.175-.007" transform="translate(13.42 0.727)" fill="#f4ffc4" stroke="#f4ffc4" stroke-linejoin="round" stroke-width="0.6"/>
      <path id="パス_6512" data-name="パス 6512" d="M350.673,14.76c.3.24.529.417.715.54a.7.7,0,0,0,.631.1,2.5,2.5,0,0,0,.836-.685,9.4,9.4,0,0,0,1.453-.473h0a2.377,2.377,0,0,1,1.284-.115,5.753,5.753,0,0,0,1.6.331,2.934,2.934,0,0,1,1.1.228,3.111,3.111,0,0,0,.984.276,3.129,3.129,0,0,1,.842.2,3.3,3.3,0,0,0,.9.211,4.255,4.255,0,0,0,1.095.533,3.453,3.453,0,0,1,.947.46,4.756,4.756,0,0,0,.891.485c.232.086.466.183.7.292s.7.373,1.346.763a12.041,12.041,0,0,1,1.605,1.222,1.267,1.267,0,0,0,.854.513,1.5,1.5,0,0,0,.183.011,1.732,1.732,0,0,0,.83-.231,1.584,1.584,0,0,0,.7-1.166,1.778,1.778,0,0,0-.207-1.411,1.556,1.556,0,0,0-.826-.655c-.67-.325-1.257-.616-1.79-.888a8.937,8.937,0,0,0-1.21-.539c-.246-.075-.6-.21-1.057-.4a2.4,2.4,0,0,0-.859-.606,5.5,5.5,0,0,1-1.527-.458,1.91,1.91,0,0,0-1.05-.544,2.381,2.381,0,0,0-1.381-.539,10.91,10.91,0,0,0-1.992-.592,7.845,7.845,0,0,1-1.153-.235,12.613,12.613,0,0,0-1.495-.3h-1.369c-.376.041-.94.081-1.672.117a2.056,2.056,0,0,0-1.256.347,3.322,3.322,0,0,0-.785.856,1.923,1.923,0,0,0-.315,1.156,2.167,2.167,0,0,0,.426,1.179.117.117,0,0,0,.019.021" transform="translate(14.565 0.406)" fill="#f4ffc4" stroke="#f4ffc4" stroke-linejoin="round" stroke-width="0.6"/>
      <path id="パス_6513" data-name="パス 6513" d="M370.484,31.85a1.764,1.764,0,0,0-1.368-.153A6.113,6.113,0,0,1,368,32.1q-.327.061-.924.179t-1.669.351a2.31,2.31,0,0,0-.832.034c-.244.056-.628.161-1.176.32a2.991,2.991,0,0,0-1.381-.024,10.791,10.791,0,0,1-1.51.265,18.646,18.646,0,0,1-4.024.235c-1.164-.078-2.049-.158-2.628-.236a5.832,5.832,0,0,1-1.938-.708c-.595-.179-.881-.413-.851-.691q.053-.5.108-.885a1.96,1.96,0,0,0-.142-.939c-.142-.374-.518-.6-1.118-.657a1.914,1.914,0,0,0-1.525.477,10.247,10.247,0,0,0-.714.869,1.437,1.437,0,0,0-.234,1.142,4.749,4.749,0,0,0,.278,1.029,2.784,2.784,0,0,0,.534.8,7.1,7.1,0,0,0,.854.782,4.982,4.982,0,0,0,1.275.7h0a7.3,7.3,0,0,0,1.516.391c.429.055.84.115,1.219.176.359.059.707.11,1.036.149a4.547,4.547,0,0,0,1.369-.115,6.508,6.508,0,0,0,1.25.175,10.522,10.522,0,0,0,1.3-.117,1.885,1.885,0,0,0,1.369-.168,1.969,1.969,0,0,0,1.325.1,1.821,1.821,0,0,1,.894-.09.565.565,0,0,0,.587-.112.93.93,0,0,1,.631-.121c.342.02.622.04.839.06a1.572,1.572,0,0,0,.637-.063,1.986,1.986,0,0,1,.773-.027,2.712,2.712,0,0,0,1.223-.178c.461-.077.987-.137,1.572-.176q.867-.118,1.383-.179a3.567,3.567,0,0,0,1.118-.335,1.765,1.765,0,0,0,.862-.786,1.14,1.14,0,0,0,.029-1.038,1.919,1.919,0,0,0-.83-.844" transform="translate(14.448 1.074)" fill="#f4ffc4" stroke="#f4ffc4" stroke-linejoin="round" stroke-width="0.6"/>
      <path id="パス_6514" data-name="パス 6514" d="M393.656,26.048a4.284,4.284,0,0,0-.956-.812l-.018-.01a6.716,6.716,0,0,0-1.766-.584,16.543,16.543,0,0,0-2.8-.327h-1.237a17.957,17.957,0,0,0-2.81.409,22.135,22.135,0,0,0-3.452.856,6.67,6.67,0,0,0-1.489.71,5.219,5.219,0,0,0-.7.641,1.22,1.22,0,0,0-.3,1.016,1.034,1.034,0,0,0,.479.946,1.2,1.2,0,0,0,.987.13,2.3,2.3,0,0,0,.78-.363,1.618,1.618,0,0,0,.515-.843,1.6,1.6,0,0,1,.729-.41,3.343,3.343,0,0,0,.842-.314,1.181,1.181,0,0,0,.822-.293,1.338,1.338,0,0,0,.986-.327c1.113-.149,2.086-.248,2.9-.291a5.261,5.261,0,0,1,1.456.019,2.164,2.164,0,0,0,.777.1,4.672,4.672,0,0,1,.779.043c.272.125.473.22.6.285a1.415,1.415,0,0,0,.538.143.21.21,0,0,1,.119.031.854.854,0,0,0,.385.318s.116.061.385.483c.094.549.034.735,0,.791a4.118,4.118,0,0,0-.27.574.88.88,0,0,1-.236.344,1.45,1.45,0,0,0-.587.7,2.393,2.393,0,0,0-.579.564,1.168,1.168,0,0,1-.384.3,4.038,4.038,0,0,0-.8.635l-1.387.992c-.536.266-.906.446-1.108.535a2.366,2.366,0,0,0-.723.557q-.411.16-.612.258a3.408,3.408,0,0,0-.5.327,2.076,2.076,0,0,0-.918.4,9.559,9.559,0,0,0-1.094.216,1.868,1.868,0,0,0-.768.4c-.167.154-.3.284-.391.39a1.386,1.386,0,0,0-.274.516.8.8,0,0,0,.181.778,1.323,1.323,0,0,0,.813.447.862.862,0,0,0,.168.016,3.5,3.5,0,0,0,1.525-.561q.673-.334,1.993-1.061,1.425-.944,2.832-1.89a25.171,25.171,0,0,0,2.568-1.96,13.969,13.969,0,0,0,1.558-1.519,7.783,7.783,0,0,0,.638-.911,1.884,1.884,0,0,0,.347-.823c.024-.208.041-.431.053-.674a2.822,2.822,0,0,0-.126-.9,2.582,2.582,0,0,0-.474-.993" transform="translate(15.724 0.89)" fill="#f4ffc4" stroke="#f4ffc4" stroke-linejoin="round" stroke-width="0.6"/>
      <path id="パス_6515" data-name="パス 6515" d="M422.1,31.068a1.826,1.826,0,0,0-1.694.131c-.316.113-.587.2-.817.256a.285.285,0,0,0-.108.053.84.84,0,0,1-.561.227,1.794,1.794,0,0,0-1.109.443,23.434,23.434,0,0,1-2.657.94c-.958.279-1.845.556-2.635.823a11.22,11.22,0,0,1-2.489.523,18.9,18.9,0,0,1-2.718.3q-.8-.042-1.532-.088a3.816,3.816,0,0,1-.965-.138,4.254,4.254,0,0,1-.673-.333c-.357-.282-.431-.42-.446-.455a.821.821,0,0,1-.026-.41,2.547,2.547,0,0,1,.222-.695,8.484,8.484,0,0,1,.44-.839,7.542,7.542,0,0,1,.729-.873c.281-.294.565-.57.842-.819a1.989,1.989,0,0,0,.719-.748q.8-.544,1.125-.76a7.121,7.121,0,0,1,.808-.445,6.726,6.726,0,0,0,.913-.519,1.958,1.958,0,0,0,.878-.118c.175-.074.247-.032.272-.019a1.024,1.024,0,0,0,.8.079,2.271,2.271,0,0,0,.679-.3,1.249,1.249,0,0,0,.966-.265.915.915,0,0,1,.427-.235,1.826,1.826,0,0,0,1.055-1.765,2.4,2.4,0,0,0-.426-.933,1.383,1.383,0,0,0-1.193-.566,3.724,3.724,0,0,0-1.276.222,2.731,2.731,0,0,0-1.459.4,9.951,9.951,0,0,1-1.363.695,5.109,5.109,0,0,0-.992-.121.528.528,0,0,1-.268-.043h0a.788.788,0,0,0-.549-.351,2.293,2.293,0,0,1-.465-.157,10.606,10.606,0,0,1-.866-.8,1.718,1.718,0,0,1-.363-.575,1.448,1.448,0,0,0-.359-1.045V20.89a.291.291,0,0,0-.024-.114c-.2-.47-.163-.6-.161-.6a1.474,1.474,0,0,0,.1-.77,1.742,1.742,0,0,0-.081-1.017c.321-.342.4-.645.236-.893,0,0-.006-.111.255-.4a.286.286,0,0,0,.068-.263c-.093-.363-.046-.519-.008-.584a2.632,2.632,0,0,0,.277-.77,1.826,1.826,0,0,1,.288-.672,3.574,3.574,0,0,0,.411-.77,2.325,2.325,0,0,1,.451-.679,2.912,2.912,0,0,0,.906-1.141,1.08,1.08,0,0,0-.256-1.126,2,2,0,0,0-1-.625,1.663,1.663,0,0,0-1.108.221,2.307,2.307,0,0,0-.808.809,12.492,12.492,0,0,0-.574,1.234,7.549,7.549,0,0,0-.949,2.621c-.161.935-.291,1.912-.381,2.9a17.517,17.517,0,0,0,.045,3.285,7.026,7.026,0,0,0,.818,2.886,6.81,6.81,0,0,0,1.144,1.5,2.861,2.861,0,0,0,.992.632,1.827,1.827,0,0,1,.482.261c-.161.145-.35.333-.568.564a8.8,8.8,0,0,0-1.471,1.07,3,3,0,0,0-.664.669,1.289,1.289,0,0,1-.367.361,3.135,3.135,0,0,0-.781.97,1.745,1.745,0,0,1-.333.51c-.12.1-.275.327-.518,1.14a3.784,3.784,0,0,0-.179,2.012,2.3,2.3,0,0,0,1.2,1.808,1.078,1.078,0,0,0,.895.719.87.87,0,0,1,.481.137,1.144,1.144,0,0,0,.8.218q.383-.023.653-.045a.386.386,0,0,1,.284.093.917.917,0,0,0,.932.005,1.414,1.414,0,0,0,.593.138,1.214,1.214,0,0,0,.221-.02,1.554,1.554,0,0,1,.579,0,2.084,2.084,0,0,0,1.111-.194h1.057a1.58,1.58,0,0,0,.921-.338,1.5,1.5,0,0,0,.823-.086c.169-.078.406-.168.728-.277a1.334,1.334,0,0,0,.96-.169,1.691,1.691,0,0,1,.507-.233,1.691,1.691,0,0,0,.931-.168,2.606,2.606,0,0,1,.52-.221q.248-.068,1.241-.4a9.025,9.025,0,0,1,1.372-.387,7.132,7.132,0,0,0,1.159-.3c.347-.114.607-.195.779-.237a4.4,4.4,0,0,0,1.012-.473,7.507,7.507,0,0,0,1.186-.337,1.538,1.538,0,0,0,.767-.752.82.82,0,0,0-.1-1.074,2.357,2.357,0,0,0-.711-.454" transform="translate(16.683 0.383)" fill="#f4ffc4" stroke="#f4ffc4" stroke-linejoin="round" stroke-width="0.6"/>
      <path id="パス_6516" data-name="パス 6516" d="M437.767,16.144a1.367,1.367,0,0,0,.678.192,1.257,1.257,0,0,0,.617-.166,7.766,7.766,0,0,0,1.087-.732,8.171,8.171,0,0,1,2.012-.55,3.869,3.869,0,0,1,1.018.008.881.881,0,0,0,.78-.155.415.415,0,0,1,.369-.056,1.509,1.509,0,0,0,.792.015,5.327,5.327,0,0,0,1.055-.005c.2-.032.457-.076.782-.134a2.3,2.3,0,0,0,1.153.079.752.752,0,0,1,.392-.035,1.487,1.487,0,0,0,1.008-.181,3.219,3.219,0,0,0,.936.1c.2-.015.5-.051.885-.111a1.206,1.206,0,0,0,.748.051c.3-.085.786-.048,1.169-.111a.545.545,0,0,1,.353.061,1.454,1.454,0,0,0,.884.133,2.094,2.094,0,0,1,.815.091q.845.187,1.689.419a2,2,0,0,0,1.42.133,2.339,2.339,0,0,0,1.113-.515c.262-.261.312-.7.155-1.35s-.371-1-.679-1.145a2.681,2.681,0,0,0-1.156-.167,28.091,28.091,0,0,0-4.066-.247c-1.626,0-3.709.065-6.2.193q-4.2.241-5.8.361c-1.063.081-1.983.187-2.775.327a3.32,3.32,0,0,0-1.628.856,3.031,3.031,0,0,0-.458.963,1.21,1.21,0,0,0,.06,1.021,2.194,2.194,0,0,0,.784.655" transform="translate(18.167 0.431)" fill="#f4ffc4" stroke="#f4ffc4" stroke-linejoin="round" stroke-width="0.6"/>
      <path id="パス_6517" data-name="パス 6517" d="M471.178,27.725a2.555,2.555,0,0,0-1.074-.06,3.35,3.35,0,0,0-1.2.421,2.552,2.552,0,0,1-.744.035,2,2,0,0,0-1.079.249,2.3,2.3,0,0,1-.722.041,2.221,2.221,0,0,0-1.107.255,2.611,2.611,0,0,0-1.487.04,3.518,3.518,0,0,1-1.237.181,15.932,15.932,0,0,0-2.848.266c-1.516.206-3.224.392-5.064.549-.7.033-1.235.074-1.638.122a6.684,6.684,0,0,0-.99.177,3.154,3.154,0,0,1-.705.109c-.283.017-.551.024-.8.024a14.894,14.894,0,0,0-1.686.1c.034-.385.086-.788.15-1.185a13.005,13.005,0,0,0,.346-1.28,6.5,6.5,0,0,1,.321-1.047c.165-.395.4-1.083.69-2.059q.431-1.431.6-1.979c.115-.373.268-.946.447-1.675a4.225,4.225,0,0,0,.262-.957,3.366,3.366,0,0,1,.24-.834c.112-.238.3-.613.553-1.121a.342.342,0,0,0,.03-.106,3.914,3.914,0,0,0-.083-1.542,1.824,1.824,0,0,0-.81-1.039,1.3,1.3,0,0,0-1.115-.219,2.8,2.8,0,0,0-.875.564,1.338,1.338,0,0,0-.35,1.4,2.789,2.789,0,0,1-.173.771.938.938,0,0,0-.107.666,2.715,2.715,0,0,1-.041.766q-.239.809-.333,1.093a2.571,2.571,0,0,0-.071.957,3.374,3.374,0,0,0-.28.9,1.236,1.236,0,0,1-.172.5,2.654,2.654,0,0,0-.3,1c-.244.395-.411.677-.506.848a1.361,1.361,0,0,0-.182.653,3.5,3.5,0,0,1-.164.766,3.339,3.339,0,0,0-.645,1.536A11.554,11.554,0,0,0,445.5,29.2a1.889,1.889,0,0,0,.147,1.355c-.343.022-.631.045-.871.066q-.489.047-1,.138a1.758,1.758,0,0,0-.837.016,1.2,1.2,0,0,1-.553.022,2.429,2.429,0,0,0-.719-.055l-.822.073h-.04a47.984,47.984,0,0,0-5.373,1.031,12.289,12.289,0,0,0-2.128,0,5.169,5.169,0,0,0-2.088-.046,7.756,7.756,0,0,0-1.847.08,2.062,2.062,0,0,0-.993.538,1.188,1.188,0,0,0-.4.937,2.452,2.452,0,0,0,.433,1.082,1.64,1.64,0,0,0,1.074.813,1.48,1.48,0,0,0,.264.022,4.307,4.307,0,0,0,1.481-.36c.835-.186,1.438-.309,1.742-.358l.747-.115c.492,0,.875-.008,1.153-.025l.843-.049c.348-.018,5-1.154,5.041-1.164a3.491,3.491,0,0,1,1.57.008,3.388,3.388,0,0,0,1.332-.245,3.623,3.623,0,0,1,.8,0,1.643,1.643,0,0,0,.859-.116,2.267,2.267,0,0,1,.95-.074.34.34,0,0,0,.207-.062.536.536,0,0,1,.356-.149,2.545,2.545,0,0,0,.69.139,3.81,3.81,0,0,0,.763-.026,6.523,6.523,0,0,0,.981-.233,2.387,2.387,0,0,0,.994-.119.653.653,0,0,1,.233-.055h.009a.855.855,0,0,0,.712.166c.191-.032.467-.072.832-.118s.729-.1,1.1-.164a1.913,1.913,0,0,0,.756-.04,9.039,9.039,0,0,1,1.151-.1,2.509,2.509,0,0,0,1.429-.148,5.714,5.714,0,0,0,1.384-.192h.966c.331,0,.663-.016,1-.049a29.648,29.648,0,0,1,3.575-.242c.82-.093,1.625-.158,2.4-.19.486-.032.893-.075,1.211-.124a5.3,5.3,0,0,1,.8-.068,11.2,11.2,0,0,0,1.292-.108,1.624,1.624,0,0,1,.81-.1,3.225,3.225,0,0,0,1.4-.041c.3-.072,1.218-.288,1.322-.95a1.664,1.664,0,0,0-.449-1.276,2.219,2.219,0,0,0-1-.8" transform="translate(17.798 0.555)" fill="#f4ffc4" stroke="#f4ffc4" stroke-linejoin="round" stroke-width="0.6"/>
      <path id="パス_6518" data-name="パス 6518" d="M477.64,11.166a2.065,2.065,0,0,1,.794-.084.806.806,0,0,1,.441.148,2.083,2.083,0,0,0,.888.437,3.058,3.058,0,0,1,.893.635,1.8,1.8,0,0,0,.806.555,2.552,2.552,0,0,1,.314.554,3.87,3.87,0,0,0,.592.959.653.653,0,0,1,.229.532,1.866,1.866,0,0,0,.4,1.122,1.387,1.387,0,0,0,1.081.606c.039,0,.077,0,.115,0a2.345,2.345,0,0,0,1-.224c.585-.276.589-1.169.541-1.817a.3.3,0,0,0-.023-.1c-.481-1.149-.85-1.966-1.1-2.431a5.906,5.906,0,0,0-1.019-1.346,15.255,15.255,0,0,0-2.3-1.7.456.456,0,0,0-.078-.038c-.409-.124-.887-.3-1.421-.518a4.258,4.258,0,0,0-3.843.194,1.6,1.6,0,0,0-.493.976,1.674,1.674,0,0,0,.4,1.352c.269.341.8.649,1.783.177" transform="translate(19.772 0.297)" fill="#f4ffc4" stroke="#f4ffc4" stroke-linejoin="round" stroke-width="0.6"/>
      <path id="パス_6519" data-name="パス 6519" d="M503.309,21.146a1.619,1.619,0,0,0-.9-.075c-.174.048-.468.118-.917.225-1.215.444-2.16.81-2.813,1.084s-1.216.5-1.726.691-1.125.418-1.83.672-1.562.613-2.51,1.044a15.944,15.944,0,0,1-1.939.786,11.46,11.46,0,0,0-1.538.716,8.647,8.647,0,0,1-1.305.6,10.3,10.3,0,0,0-1.782.91,13.52,13.52,0,0,1-1.991.925,1.037,1.037,0,0,0-.822.433c0,.005-.093.144-.721.352a17.227,17.227,0,0,0-2.24,1.2q-1.381.844-2.11,1.328t-1.387.968a4.71,4.71,0,0,0-1.33,1.9c-.66,1.5-.2,2.094.3,2.326a9.778,9.778,0,0,0,1.276.522.975.975,0,0,0,.273.037,2.382,2.382,0,0,0,1.157-.4c.811-.481.866-.969.767-1.295a4.384,4.384,0,0,0-.334-.8c.095-.086.184-.177.27-.271a5.727,5.727,0,0,1,.636-.564q.481-.383,1.131-.886a5.747,5.747,0,0,1,1.442-.8.314.314,0,0,0,.129-.093,1.789,1.789,0,0,1,.8-.6,3.46,3.46,0,0,0,.954-.477,2.5,2.5,0,0,1,.62-.342,1.107,1.107,0,0,0,.581-.464,1.741,1.741,0,0,0,.68-.395,5.834,5.834,0,0,0,1.627-.751,5.521,5.521,0,0,1,1.048-.611c.41-.19.749-.364,1.01-.518.353.016.8-.012,1-.312a1.011,1.011,0,0,1,.332-.288.876.876,0,0,1,.446-.125,1.4,1.4,0,0,0,.92-.474c.59-.218,1.168-.435,1.744-.659a7.257,7.257,0,0,1,1.109-.391,4.125,4.125,0,0,0,1.247-.566,3.666,3.666,0,0,1,1.385-.41,1.345,1.345,0,0,0,.872-.161,6.181,6.181,0,0,0,.622-.423,1.207,1.207,0,0,0,.872-.019,2.769,2.769,0,0,1,.587-.195,5.221,5.221,0,0,0,.977-.359A7.161,7.161,0,0,0,503,24a2.071,2.071,0,0,0,.971-.588,1.528,1.528,0,0,0,.525-.942,1.065,1.065,0,0,0-.332-.842,2.069,2.069,0,0,0-.851-.485" transform="translate(19.758 0.77)" fill="#f4ffc4" stroke="#f4ffc4" stroke-linejoin="round" stroke-width="0.6"/>
      <path id="パス_6520" data-name="パス 6520" d="M476.288,21.486c.645.289,1.491.608,2.514.947a25.37,25.37,0,0,1,3.234,1.361,3.751,3.751,0,0,0,1.474.312,1.623,1.623,0,0,0,1.3-.566,1.187,1.187,0,0,0,.3-1.187,2.068,2.068,0,0,0-.676-.933,1.754,1.754,0,0,0-.79-.455c-.118-.015-.344-.064-.682-.148a4.634,4.634,0,0,0-1.2-.611,3.2,3.2,0,0,0-.988-.091,3.659,3.659,0,0,0-.7-.4.3.3,0,0,0-.111-.028,1.522,1.522,0,0,1-.917-.279,1.925,1.925,0,0,0-.7-.453c-.157-.046-.4-.115-.733-.206a2,2,0,0,0-1.327-.333,1.361,1.361,0,0,0-1.047.6,2.217,2.217,0,0,0-.335.9,1.177,1.177,0,0,0,.288.935,2.4,2.4,0,0,0,1.1.634" transform="translate(19.749 0.674)" fill="#f4ffc4" stroke="#f4ffc4" stroke-linejoin="round" stroke-width="0.6"/>
      <path id="パス_6521" data-name="パス 6521" d="M537.7,21.49a6.736,6.736,0,0,0,.429-.9,4.179,4.179,0,0,0,.164-1.361,2.078,2.078,0,0,0,.094-.885,4.55,4.55,0,0,0-.481-1.206.916.916,0,0,0-.367-.77,3.148,3.148,0,0,0-1.494-1.305,4.266,4.266,0,0,0-.652-.259,6.528,6.528,0,0,0-.76-.177,2.433,2.433,0,0,1-.6-.17,4.808,4.808,0,0,0-1.378-.24,18.185,18.185,0,0,0-2.925.047c-.98.077-1.92.164-2.8.261.135-.206.255-.389.361-.547l.57-.85c.394-.523.787-1.086,1.171-1.674a16.145,16.145,0,0,1,.991-1.389,5.431,5.431,0,0,1,.657-.7,1.372,1.372,0,0,0,.438-.664q.262-.222.525-.484a1.275,1.275,0,0,0,.4-.822,3.285,3.285,0,0,0-.1-.957,1.033,1.033,0,0,0-.678-.855,2.286,2.286,0,0,0-1.741.154.315.315,0,0,0-.1.059,4.105,4.105,0,0,0-.915,1.251,1.346,1.346,0,0,1-.232.27.708.708,0,0,0-.421.557,2.612,2.612,0,0,1-.334.666,1.014,1.014,0,0,0-.523.887,1.814,1.814,0,0,1-.353.578,1.157,1.157,0,0,0-.4.583.816.816,0,0,1-.321.374.306.306,0,0,0-.113.154,7.976,7.976,0,0,1-1.138,2q-.822,1.126-1.217,1.706c-1.752.372-3.621.717-5.555,1.028-1.981.316-3.727.657-5.167,1.008-.958.166-1.593.294-1.939.393a2.191,2.191,0,0,0-.793.35,1.065,1.065,0,0,1-.428.175,3.723,3.723,0,0,0-1.269.768,1.6,1.6,0,0,0-.464,1.72,1.63,1.63,0,0,0,.9.963,1.593,1.593,0,0,0,1.046.054,2.561,2.561,0,0,0,.772-.385,2.928,2.928,0,0,0,.625-.686,1.9,1.9,0,0,1,.661-.341l1.545-.385c.505-.126,1.043-.266,1.61-.424a1.618,1.618,0,0,0,.848-.266.483.483,0,0,1,.422-.081.313.313,0,0,0,.175,0,2.576,2.576,0,0,1,.858-.107c.479.026.765-.1.846-.348a.185.185,0,0,1,.087-.012h.58a2.876,2.876,0,0,0,.921-.22,1.761,1.761,0,0,0,.979-.057,4.363,4.363,0,0,1,.658-.136,6.369,6.369,0,0,0-.643.974,1.272,1.272,0,0,0-.417.7.352.352,0,0,1-.15.2,1.514,1.514,0,0,0-.421.487.418.418,0,0,1-.2.174,1.53,1.53,0,0,0-.623.837c-.166.329-.3.4-.352.42-.3.1-.5.392-.625.89A13.544,13.544,0,0,1,516.89,23.9c-.447.526-.895,1.025-1.355,1.521a5.9,5.9,0,0,0-.382.531,3.745,3.745,0,0,1-.356.464,1.763,1.763,0,0,1-.386.325,1.3,1.3,0,0,0-.512.624,4.828,4.828,0,0,1-.316.608,1.312,1.312,0,0,1-.348.388,1.18,1.18,0,0,0-.445.668c-.327.423-.493.5-.538.517a.675.675,0,0,0-.5.655.354.354,0,0,0,0,.06.938.938,0,0,0-.441.579,3.4,3.4,0,0,1-.453.754,1.584,1.584,0,0,0-.823.678q-.256.418-.466.7a3.717,3.717,0,0,1-.467.509,5.426,5.426,0,0,0-.7.818l-.6.84a1.869,1.869,0,0,0-.346.865,2.675,2.675,0,0,0,.054.921,1.227,1.227,0,0,0,.815.87,2.138,2.138,0,0,0,.806.173,1.583,1.583,0,0,0,.345-.038,1.61,1.61,0,0,0,.8-.395,3.09,3.09,0,0,0,.486-.669.884.884,0,0,0,.072-.819c.5-.773.956-1.53,1.334-2.228,1.468-2.065,2.447-3.4,2.907-3.97.442-.546.805-.991,1.126-1.383a9.96,9.96,0,0,0,.9-1.124c.117-.19.448-.619,1.013-1.311S519.51,24.33,520.6,23s2.019-2.552,2.745-3.626a23.934,23.934,0,0,1,1.462-2.014,10.338,10.338,0,0,0,1.757-.3.818.818,0,0,0,.707-.088.6.6,0,0,1,.433-.06,3.28,3.28,0,0,0,.827.054c.26-.017.8-.074,1.537-.17a8.051,8.051,0,0,0,2.063.012.973.973,0,0,0,.922.034c.019-.013.072-.048.227.023a4.593,4.593,0,0,0,.884.284,3.921,3.921,0,0,1,.913.667,1.5,1.5,0,0,1,.486.717,2.9,2.9,0,0,1,0,.867,7.134,7.134,0,0,1-.16.872,1.635,1.635,0,0,1-.219.5c-.117.164-.322.489-.6.96a1.774,1.774,0,0,1-.451.508,1.2,1.2,0,0,0-.5.6,2.38,2.38,0,0,1-.357.562,1.144,1.144,0,0,0-.481.881,2.474,2.474,0,0,0-.737.735.75.75,0,0,1-.318.328,1.314,1.314,0,0,0-.569.5,1.843,1.843,0,0,1-.331.392c-.15.134-.283.257-.4.371a1.407,1.407,0,0,1-.321.237,1.217,1.217,0,0,0-.5.636c-.029.072-.056.1-.068.1h0a.6.6,0,0,0-.755.386.424.424,0,0,1-.16.227,8.189,8.189,0,0,0-.693.516c-.228.163-.471.339-.73.532a4.216,4.216,0,0,1-.627.4l-1.078.536c-.231.132-.493.3-.789.491a4.063,4.063,0,0,1-.965.455c-.275.115-.434.116-.485.085s-.093-.144-.093-.377a.3.3,0,0,0-.024-.12,2.159,2.159,0,0,1-.17-1.031c.032-.408.05-.809.05-1.2a5.34,5.34,0,0,1,.114-1.089,5.088,5.088,0,0,0,.127-1,5.865,5.865,0,0,1,.145-1.032,1.869,1.869,0,0,0-.365-1.259,1.477,1.477,0,0,0-.828-.511,2.257,2.257,0,0,0-.867,0c-.371.069-.676.4-.929,1a4.172,4.172,0,0,0-.243,1.984c.032.7.049,1.383.05,2.021a11.217,11.217,0,0,0,0,2.1A7.1,7.1,0,0,0,520.9,33a.335.335,0,0,0,.069.1,2.679,2.679,0,0,0,1.784.853,7.977,7.977,0,0,0,1.456-.125,6.808,6.808,0,0,0,2.009-.9,18.256,18.256,0,0,0,2-1.336,37.9,37.9,0,0,0,4.8-3.9,28.983,28.983,0,0,0,2.463-2.841c.637-.856,1.195-1.653,1.659-2.378q.291-.487.559-.971" transform="translate(21.103 0.2)" fill="#f4ffc4" stroke="#f4ffc4" stroke-linejoin="round" stroke-width="0.6"/>
      <path id="パス_6522" data-name="パス 6522" d="M551.209,11.332a2.524,2.524,0,0,0-1.156.109,1.015,1.015,0,0,0-.744.953c-.017.338-.041.889-.061,1.589-.27.954-.458,1.683-.562,2.171a1.43,1.43,0,0,0-.555.873,5.949,5.949,0,0,1-.115.615.466.466,0,0,1-.19.277c-.246.171-.367.513-.375,1.073-.274.572-.634,1.272-1.1,2.132s-.905,1.626-1.317,2.289q-.6.966-.979,1.533a1.417,1.417,0,0,0-.484.8,1.683,1.683,0,0,0-.551.729,1.279,1.279,0,0,0-.72.9,1.832,1.832,0,0,1-.378.329,1.764,1.764,0,0,0-.593.765,2.517,2.517,0,0,0-.411.422,2.248,2.248,0,0,0-.266.634,1.159,1.159,0,0,0-.647.5c-.093.17-.178.316-.256.441a2.658,2.658,0,0,1-.43.465,5.166,5.166,0,0,0-.721.844,2.087,2.087,0,0,1-.562.587,1.855,1.855,0,0,0-.635.756,1.464,1.464,0,0,0-.849.849,1.844,1.844,0,0,0-.928,1.058,1.49,1.49,0,0,0-.721,1.211c-.1.847.268,1.192.6,1.332a2.613,2.613,0,0,0,1.035.221q.058,0,.116,0a3.416,3.416,0,0,0,1.585-.7.344.344,0,0,0,.084-.085c.313-.47.607-.873.875-1.2a10.737,10.737,0,0,0,.853-1.235c1.291-1.736,2.373-3.252,3.218-4.5s1.562-2.288,2.141-3.088,1.136-1.649,1.655-2.521c.508-.851.895-1.477,1.154-1.866q.339-.53.825-1.327a16.529,16.529,0,0,0,1.027-2.067,13.136,13.136,0,0,1,1.083-1.877.307.307,0,0,0,.056-.158c.024-.338.111-.555.26-.643a1.137,1.137,0,0,0,.559-.882,1.732,1.732,0,0,1,.46-.843.305.305,0,0,0,.072-.172q.094-1.09.167-1.566A1.316,1.316,0,0,0,552.3,11.9a1.929,1.929,0,0,0-1.095-.568" transform="translate(22.244 0.414)" fill="#f4ffc4" stroke="#f4ffc4" stroke-linejoin="round" stroke-width="0.6"/>
      <path id="パス_6523" data-name="パス 6523" d="M578.3,21.672l-.941.287a4.492,4.492,0,0,0-1.685.881,6.266,6.266,0,0,1-.89.684c-.223.125-.5.278-.835.451a1.061,1.061,0,0,0-.612.717c-.253.058-.5.123-.735.2a1.708,1.708,0,0,0-.91.759c-.249.084-.439.155-.572.215a1.568,1.568,0,0,0-.55.448.429.429,0,0,1-.246.175c-.17.017-.447.12-1.282.735-1.147.653-1.838,1.056-2.115,1.235a2.657,2.657,0,0,1-.779.344,2.058,2.058,0,0,0-.859.463c-.535.082-.841.217-.975.421-.005,0-.125.1-.784.146a4.069,4.069,0,0,0-.991.385,9.031,9.031,0,0,0-1.441.317,6.861,6.861,0,0,1-2.947.161,1.847,1.847,0,0,1-.785-.328.944.944,0,0,1-.37-.461.744.744,0,0,1,.039-.5.991.991,0,0,0,.011-.771,3.3,3.3,0,0,0,.3-1.2.811.811,0,0,0,.259-.789,1.894,1.894,0,0,1,.087-.77.7.7,0,0,0,.355-.671,2.594,2.594,0,0,1,.119-.746.8.8,0,0,0,.436-.763,1.93,1.93,0,0,1,.1-.666,2.562,2.562,0,0,1,.257-.536.7.7,0,0,0,.067-.65,1.931,1.931,0,0,0,.684-1.5c.247-.551.5-1.094.762-1.631.274-.561.643-1.415,1.076-2.5.362-.622.58-1.017.665-1.2.075-.164.273-.518.563-1.015a4.085,4.085,0,0,0,.806-1.485,1.363,1.363,0,0,0-.347-1.379,2.111,2.111,0,0,0-1.408-.571.46.46,0,0,0-.113.015,2.046,2.046,0,0,0-1.35.984,7.628,7.628,0,0,0-.424,1.181,2.114,2.114,0,0,0-.328.941.871.871,0,0,1-.226.462,1.474,1.474,0,0,0-.352.883,2.587,2.587,0,0,1-.415.969q-.919,2.4-1.835,4.927c-.612,1.686-1.077,3.014-1.379,3.951a23.448,23.448,0,0,0-.759,3.091,5.917,5.917,0,0,0,.289,3.25,3.256,3.256,0,0,0,1.856,1.574c.559.128.956.222,1.2.286a7.161,7.161,0,0,0,1.312.153,7.292,7.292,0,0,0,1.361-.124c.422-.081.9-.2,1.426-.342s1.187-.346,2.011-.6a13.714,13.714,0,0,0,2.377-1,1.623,1.623,0,0,0,.9-.321,1.988,1.988,0,0,1,.6-.313,1.017,1.017,0,0,0,.606-.456,2.13,2.13,0,0,0,.914-.352,1.619,1.619,0,0,1,.58-.248,1.789,1.789,0,0,0,.886-.549,3.058,3.058,0,0,0,.885-.328,6.515,6.515,0,0,1,.756-.387c.357-.163.8-.371,1.313-.63l.773-.384c.266-.132.506-.265.724-.4a4.118,4.118,0,0,1,.628-.312,1.814,1.814,0,0,0,.673-.46q.689-.277,1.063-.463a6.722,6.722,0,0,0,.946-.592c.826-.522,1.2-1.037,1.131-1.572a2.418,2.418,0,0,0-.525-1.239c-.344-.426-.691-.591-1.033-.487" transform="translate(23.062 0.387)" fill="#f4ffc4" stroke="#f4ffc4" stroke-linejoin="round" stroke-width="0.6"/>
      <path id="パス_6524" data-name="パス 6524" d="M618.768,38.382a1.183,1.183,0,0,0-.748-.676c-.262-.082-.76-.2-1.554-.373-3.175-.351-6.11-.618-8.724-.794s-5.971-.2-9.949-.073a52.532,52.532,0,0,0-8.093.656,12.1,12.1,0,0,0-3,.968.259.259,0,0,0-.069.053,1.445,1.445,0,0,0-.354,1.975,1.721,1.721,0,0,0,1.524.782,2.762,2.762,0,0,0,.388-.029,2.43,2.43,0,0,0,.884-.394,3.639,3.639,0,0,1,.706-.39q.52-.236,1.039-.424a.3.3,0,0,0,.113-.073l.416-.413a2.815,2.815,0,0,0,1.715-.268c.579-.031.988-.063,1.216-.1a.758.758,0,0,1,.429.047c.267.122.636.062,1.2-.194q1.455-.138,2.4-.211c.637-.047,1.636-.07,2.93-.073a12.194,12.194,0,0,0,1.487.1h2.021a5.676,5.676,0,0,0,1.513.237,3.6,3.6,0,0,0,1.462-.087,3.464,3.464,0,0,1,.833.205,1.644,1.644,0,0,0,1.067.005c.531.331.921.422,1.222.283a.2.2,0,0,1,.249.029,1.2,1.2,0,0,0,1.076.122,2.012,2.012,0,0,0,.925.357c.3.03.682.047,1.136.049a2.508,2.508,0,0,0,.952.313.558.558,0,0,1,.407.225,1.5,1.5,0,0,0,1.216.417,1.574,1.574,0,0,0,1.236-.1,5.946,5.946,0,0,0,.64-.56.93.93,0,0,0,.345-.9,5.032,5.032,0,0,0-.257-.691" transform="translate(24.371 1.332)" fill="#f4ffc4" stroke="#f4ffc4" stroke-linejoin="round" stroke-width="0.6"/>
      <path id="パス_6525" data-name="パス 6525" d="M611.753,16.676a1.239,1.239,0,0,0-.216-.955,2.2,2.2,0,0,0-.813-.7,3.851,3.851,0,0,0-1.236-.368q-.7-.1-1.684-.147c-.7,0-1.846.025-3.411.073s-2.6.087-3.05.122q-.692.092-1.165.183a2.651,2.651,0,0,0-1.48.157c-.493.061-.885.108-1.182.14a14.008,14.008,0,0,0-1.649.334,6.267,6.267,0,0,0-1.8.355,2.071,2.071,0,0,0-1.288,1.206,1.673,1.673,0,0,0,.167,1.177,2.114,2.114,0,0,0,1.1.724,2.017,2.017,0,0,0,.685.141.867.867,0,0,0,.667-.27,3.369,3.369,0,0,1,.854-.6,8.18,8.18,0,0,1,2.446-.653c1.326-.235,2.709-.436,4.107-.6a18.3,18.3,0,0,1,4.274.062c.073.743.445.989.761,1.061a2.974,2.974,0,0,0,1.244,0,9.715,9.715,0,0,1,1.051-.164,2.3,2.3,0,0,0,1.084-.378,1.823,1.823,0,0,0,.544-.9" transform="translate(24.65 0.531)" fill="#f4ffc4" stroke="#f4ffc4" stroke-linejoin="round" stroke-width="0.6"/>
      <path id="パス_6526" data-name="パス 6526" d="M593.044,33.328a7.1,7.1,0,0,0,1.058,1.923,1.911,1.911,0,0,0,1.208.452,1.692,1.692,0,0,0,1.147-.438,1.294,1.294,0,0,0,.468-1.127.991.991,0,0,0-.605-.907,1.876,1.876,0,0,1-.557-.365,3.054,3.054,0,0,1-.366-.685,3.854,3.854,0,0,1-.346-1.215,3.04,3.04,0,0,0,0-1.481,13.408,13.408,0,0,0,.283-1.8,2.992,2.992,0,0,1,.313-.908.283.283,0,0,0,.025-.091,2.188,2.188,0,0,1,.188-.695,3.189,3.189,0,0,0,.239-1.137,8.184,8.184,0,0,1,.441-1.248,15.949,15.949,0,0,1,.809-1.567A2.637,2.637,0,0,0,598,20.845a1.259,1.259,0,0,0-.25-1.283,1.8,1.8,0,0,0-1.307-.426,1.305,1.305,0,0,0-1.3.814c-.18.42-.353.88-.516,1.367h0a29.47,29.47,0,0,0-1.074,3.959c-.159.937-.329,1.8-.5,2.578-.178.789-.327,1.655-.44,2.576a5.582,5.582,0,0,0,.432,2.9" transform="translate(24.643 0.701)" fill="#f4ffc4" stroke="#f4ffc4" stroke-linejoin="round" stroke-width="0.6"/>
      <path id="パス_6527" data-name="パス 6527" d="M587.811,21.919a2.329,2.329,0,0,0,.346.026,1.122,1.122,0,0,0,1.085-.572,1.353,1.353,0,0,0,.109-1.178,1.2,1.2,0,0,0-.627-.695c-.02-.009-.2-.115-.589-.865a2.654,2.654,0,0,1,.024-1.185,2.469,2.469,0,0,0,.228-1.255,8.331,8.331,0,0,0,.228-1.138,8.392,8.392,0,0,0,.761-1.8c.154-.251.287-.484.4-.7a2.567,2.567,0,0,0,.217-.629.913.913,0,0,0,.429-.57,2.776,2.776,0,0,1,.262-.61,12.86,12.86,0,0,1,.95-1.234,2.124,2.124,0,0,0,.669-.391,1.118,1.118,0,0,0,.272-1.2,1.693,1.693,0,0,0-.741-1.106,1.46,1.46,0,0,0-1.219-.179,2.177,2.177,0,0,0-1.115.846,26.29,26.29,0,0,0-2.057,3.9,29.121,29.121,0,0,0-1.656,5.1,8.9,8.9,0,0,0-.2,2.564,3.881,3.881,0,0,0,.775,2.043,1.98,1.98,0,0,0,1.447.83" transform="translate(24.352 0.241)" fill="#f4ffc4" stroke="#f4ffc4" stroke-linejoin="round" stroke-width="0.6"/>
      <path id="パス_6528" data-name="パス 6528" d="M609.693,24.983a2.612,2.612,0,0,0,.116-.953,1.709,1.709,0,0,0,.133-1.171,3.217,3.217,0,0,0-.671-1.791,3.153,3.153,0,0,0-1.47-.96,5.392,5.392,0,0,0-2.061-.183,12.923,12.923,0,0,0-2.524.172,15.465,15.465,0,0,0-2.463.564,8.208,8.208,0,0,0-1.571.66,2,2,0,0,0-.71.745,2.346,2.346,0,0,0-.225.939c-.017.319.108.76.793,1.047a1.557,1.557,0,0,0,1.21.119,4.481,4.481,0,0,0,.648-.335,7.6,7.6,0,0,1,.814-.417,1.476,1.476,0,0,0,1.04-.532,1.013,1.013,0,0,0,.9-.247.641.641,0,0,1,.479-.173c.3,0,.57-.008.818-.025a8.37,8.37,0,0,1,1.751.041.78.78,0,0,1,.433.24,1.632,1.632,0,0,1,.307.7,17.852,17.852,0,0,1-.408,3.115l-.006.034a1.211,1.211,0,0,0-.045-.139,2.218,2.218,0,0,0-.675-.947,3.278,3.278,0,0,0-1.171-.561.307.307,0,0,0-.087-.012c-.57,0-.981-.007-1.237-.025a13.537,13.537,0,0,0-1.742.123,10.914,10.914,0,0,0-1.968.348,13.859,13.859,0,0,1-1.37.352,5.306,5.306,0,0,0-1.367.464,1.346,1.346,0,0,0-1.1,1.378,1.379,1.379,0,0,0,1.245,1.52,1.173,1.173,0,0,0,1.095.027,1.275,1.275,0,0,0,.632-.7.681.681,0,0,1,.43-.345,3.532,3.532,0,0,1,1.54-.436,2.992,2.992,0,0,0,1.37-.207c.184.016.369.033.554.055-.074.066-.154.137-.241.208a8.414,8.414,0,0,1-.838.625,1.685,1.685,0,0,0-.617.66,2.125,2.125,0,0,1-.637.131,1.516,1.516,0,0,0-.992.523,3.445,3.445,0,0,0-1.213.733c-.315.22-.55.375-.7.469s-.424.234-.8.421a.324.324,0,0,0-.081.059,1.44,1.44,0,0,0-.494,1.365,2.79,2.79,0,0,0,.567,1.162,2.443,2.443,0,0,0,1.432.781.369.369,0,0,0,.082.007,14.611,14.611,0,0,0,1.533-.123,5.552,5.552,0,0,1,1.143-.022,11.805,11.805,0,0,0,1.385-.234,4.24,4.24,0,0,0,1.385-.015c.114-.03.249-.064.4-.1-.033.1-.064.2-.088.3-.1.38.1.777.584,1.179a1.63,1.63,0,0,0,.987.458.829.829,0,0,0,.253-.04,3.151,3.151,0,0,0,.942-.557.33.33,0,0,0,.066-.072,3.55,3.55,0,0,0,.423-.794c.054-.163.142-.406.268-.731l.479-.076c.739-.193,1.143-.479,1.238-.878a1.151,1.151,0,0,0-.228-1.008,1.591,1.591,0,0,0-.669-.533,1.474,1.474,0,0,0-.265-.065,2.242,2.242,0,0,0,.122-.868,1.272,1.272,0,0,0,.192-.984,1.035,1.035,0,0,1,.219-.462c.288-.251.19-.677.1-.937a2.458,2.458,0,0,0,.345-.872c.1-.86.193-1.608.279-2.2m-3.866,6.5q-1.858.227-3.235.433c-.462.068-.892.113-1.284.134.55-.328,1.037-.632,1.457-.913.638-.43,1.317-.865,2.016-1.29a2.788,2.788,0,0,0,1.267-1.212,2.41,2.41,0,0,0,.761-.9,38.6,38.6,0,0,1-.981,3.753" transform="translate(24.796 0.729)" fill="#f4ffc4" stroke="#f4ffc4" stroke-linejoin="round" stroke-width="0.6"/>
      <path id="パス_6529" data-name="パス 6529" d="M617.565,9.659a19.447,19.447,0,0,0-2.772-.781,17.517,17.517,0,0,0-2.77-.318c-.569-.032-1.55-.048-2.914-.048-1.237,0-2.509.052-3.788.155a2.279,2.279,0,0,1,.2-.432,3.594,3.594,0,0,0,.368-.816A2.843,2.843,0,0,0,606,6.637a4.892,4.892,0,0,1,.09-.832c.064-.343.119-.61.167-.8a2.115,2.115,0,0,0,.036-.732,2.309,2.309,0,0,0-.09-1.092c-.112-.364-.215-.728-.31-1.093a1.611,1.611,0,0,0-1.014-1.067,3.852,3.852,0,0,0-1.112.045.294.294,0,0,0-.117.039,2.141,2.141,0,0,0-.678.617,1.594,1.594,0,0,0-.322.805,1.7,1.7,0,0,0,.335,1,2.282,2.282,0,0,1,.221,1.289,8.365,8.365,0,0,1,0,1.733,3.608,3.608,0,0,1-.473,1.12,10.632,10.632,0,0,0-.768,1.282l-.958.077a1.208,1.208,0,0,0-1.17.151,1.823,1.823,0,0,0-.96.194s-.123.065-.6-.044a.311.311,0,0,0-.192.017,10.575,10.575,0,0,1-1.451.513q-.578.145-1.374.336c-.532.129-1.105.273-1.731.437a5.638,5.638,0,0,0-1.252.56,1.57,1.57,0,0,0-.775,1.241,1.634,1.634,0,0,0,.661,1.471c.195.165.786.663,1.307.4a3.456,3.456,0,0,0,.687-.447q.275-.227.771-.587c.32-.115.571-.195.746-.239a5.905,5.905,0,0,0,.587-.177,6.155,6.155,0,0,0,.857-.434,5.308,5.308,0,0,0,.931-.37,3.333,3.333,0,0,0,1.306-.391,34.882,34.882,0,0,1,5.66-.853,34.242,34.242,0,0,1,6.658-.1,37.176,37.176,0,0,1,3.753.664,5.407,5.407,0,0,1,1.984,1.047.313.313,0,0,0,.067.041,1.181,1.181,0,0,1,.615.632.542.542,0,0,1-.081.659,9.444,9.444,0,0,1-2.259,2.068c-1.326,1.01-2.206,1.668-2.694,2.011s-1.035.7-1.6,1.044a.344.344,0,0,0-.106.106,2.081,2.081,0,0,0-.376,1.443,1.388,1.388,0,0,0,.706.98,1.387,1.387,0,0,0,1.2.12,2.052,2.052,0,0,0,.906-.6,4.558,4.558,0,0,1,.451-.461,9.742,9.742,0,0,0,.9-.573,2.468,2.468,0,0,0,.633-.784,4.676,4.676,0,0,1,.732-.479,1.245,1.245,0,0,0,.581-.569.415.415,0,0,1,.3-.227,1.24,1.24,0,0,0,.728-.477,2.753,2.753,0,0,0,1-.916,4.975,4.975,0,0,1,.727-.814,3.408,3.408,0,0,0,.823-1.272,3.373,3.373,0,0,0-.64-2.95,5.459,5.459,0,0,0-2.455-1.756" transform="translate(24.598 0.037)" fill="#f4ffc4" stroke="#f4ffc4" stroke-linejoin="round" stroke-width="0.6"/>
      <path id="パス_6530" data-name="パス 6530" d="M640.7,38.189a2.271,2.271,0,0,0-1.11-.655.569.569,0,0,1-.338-.136,1.121,1.121,0,0,0-.835-.3.762.762,0,0,1-.126-.357,1.712,1.712,0,0,0-.372-.825,5.5,5.5,0,0,0-.142-1.676,3.337,3.337,0,0,1-.021-1.582,6.081,6.081,0,0,0,.1-1.088v-.947a2.291,2.291,0,0,0,.268-.764,1.742,1.742,0,0,0,.839-1.143,1.484,1.484,0,0,0-.172-1.115,1.35,1.35,0,0,0-.869-.537,2.345,2.345,0,0,0-1.005,0,1.858,1.858,0,0,0-.984.707,3.238,3.238,0,0,0-.509,1.538,14.846,14.846,0,0,1-.218,1.546c-.065,1.016-.1,2.137-.1,3.334a11.159,11.159,0,0,0,.5,3.384,3.615,3.615,0,0,0,2.282,2.322,6.753,6.753,0,0,0,1.393.688,1.571,1.571,0,0,0,.5.089.861.861,0,0,0,.686-.3c.183-.217.334-.407.452-.574.182-.26.144-.7-.13-1.481a.319.319,0,0,0-.084-.127" transform="translate(26.412 0.989)" fill="#f4ffc4" stroke="#f4ffc4" stroke-linejoin="round" stroke-width="0.6"/>
      <path id="パス_6531" data-name="パス 6531" d="M663.829,14.654a.147.147,0,0,0-.01-.025,3.967,3.967,0,0,0-1.464-1.817,6.438,6.438,0,0,0-1.421-.532c-.472-.112-1.132-.247-2.02-.412a25.275,25.275,0,0,0-2.646-.341c-2.962-.16-5.6-.191-7.849-.1-.187.007-.375.017-.571.027a1.874,1.874,0,0,0,.783-.769,1.951,1.951,0,0,0,.666-1.111,4.237,4.237,0,0,0-.01-1.139,1.516,1.516,0,0,0,.182-.683,1.085,1.085,0,0,1,.074-.414.887.887,0,0,0,.027-.657,1.405,1.405,0,0,1,.026-.557,4.548,4.548,0,0,0,.331-1.606A8.085,8.085,0,0,1,650,3.229a.322.322,0,0,0,0-.084A4,4,0,0,0,649.655,2a4.522,4.522,0,0,0-.421-.7,3.173,3.173,0,0,0-.575-.532,2.087,2.087,0,0,0-1.043-.747.307.307,0,0,0-.1-.017,4.641,4.641,0,0,0-1.208.113A1.38,1.38,0,0,0,645.37,1.2a1.325,1.325,0,0,0,.732,1.4,2.869,2.869,0,0,1,.759.468c.046.046.154.206.174.7a13.089,13.089,0,0,1-.095,1.734c-.078.715-.231,1.626-.443,2.664a5.759,5.759,0,0,1-.435.935,1.647,1.647,0,0,0-.21,1.14,1.2,1.2,0,0,0,.74,1.283c-1.935.136-4.241.367-6.883.689a67.466,67.466,0,0,0-8.926,1.609,5.57,5.57,0,0,0-2.178.86c-.921.56-1.316,1.105-1.207,1.668a2.694,2.694,0,0,0,.417,1.083.307.307,0,0,0,.112.1,4.581,4.581,0,0,0,1.173.437,2.819,2.819,0,0,0,.466.034,5.6,5.6,0,0,0,.761-.057,2.276,2.276,0,0,0,.981-.412,1.957,1.957,0,0,0,.733-1.1,1.71,1.71,0,0,0,.829-.615,1.2,1.2,0,0,0,1.042-.2c.005-.005.136-.124.894-.125.976-.092,1.225-.2,1.314-.346a2.947,2.947,0,0,1,.776-.277,6.535,6.535,0,0,0,1.324-.151.3.3,0,0,0,.09-.033.742.742,0,0,1,.549-.063,1.156,1.156,0,0,0,.959-.192,13.932,13.932,0,0,0,2.123-.408.936.936,0,0,0,.906-.1c.059-.04.254-.119.831.023a.279.279,0,0,0,.146,0c.426-.1.793-.2,1.091-.3a1.347,1.347,0,0,1,.784.005.287.287,0,0,0,.148,0,8.324,8.324,0,0,1,2.117-.186,3.725,3.725,0,0,0,1.56-.12,1.186,1.186,0,0,1,.781.1.889.889,0,0,0,.873-.039,1.789,1.789,0,0,1,.735-.084,3.993,3.993,0,0,0,1.619.26,6.839,6.839,0,0,1,1.557.052,13.859,13.859,0,0,1,1.766.255.3.3,0,0,0,.105.008c.21-.026.313.015.329.043a1.08,1.08,0,0,0,.895.44c.319,0,.425.072.456.1a1.134,1.134,0,0,0,.736.274,6.871,6.871,0,0,0,.253.912,2.026,2.026,0,0,0,.457.737.338.338,0,0,0,.109.069,2.776,2.776,0,0,0,1.252.21,5.387,5.387,0,0,0,1-.2,2.25,2.25,0,0,0,1.042-.606,1.077,1.077,0,0,0,.34-1.253" transform="translate(26.091 0)" fill="#f4ffc4" stroke="#f4ffc4" stroke-linejoin="round" stroke-width="0.6"/>
      <path id="パス_6532" data-name="パス 6532" d="M654.887,37.559a4.257,4.257,0,0,0-1.185-.053c-.491-.064-1.068-.114-1.713-.146-.521-.026-1.178-.074-1.959-.142a3.192,3.192,0,0,1,.3-.348c.244-.053.451-.27.686-.723a2.426,2.426,0,0,0,.774-.928,9.028,9.028,0,0,1,.6-.7,2.605,2.605,0,0,0,.866-1.145,8.02,8.02,0,0,0,.975-1.514.3.3,0,0,0,.034-.119,6.009,6.009,0,0,0-.025-1.239,2.137,2.137,0,0,0-.323-1.01,4.953,4.953,0,0,0-.956-.858,4.728,4.728,0,0,0-2.325-.758,10.153,10.153,0,0,0-2.3-.072,3.839,3.839,0,0,1-1.157,0,2.543,2.543,0,0,0-1.284.136,4.307,4.307,0,0,0-1.615.3,10.207,10.207,0,0,0-1.673.3,4.649,4.649,0,0,0-.9.412,4.665,4.665,0,0,1-.678.338,2.438,2.438,0,0,0-.854.631,2.675,2.675,0,0,0-.408,1.518,1.251,1.251,0,0,0,1.005,1.221,1.191,1.191,0,0,0,1.13.059,1.5,1.5,0,0,0,.762-.868.933.933,0,0,1,.705-.506.323.323,0,0,0,.142-.081.708.708,0,0,1,.581-.27,1.857,1.857,0,0,0,.95-.189,3.388,3.388,0,0,1,1.215-.22,4.49,4.49,0,0,0,1.507-.28,1.933,1.933,0,0,0,.984-.034.465.465,0,0,1,.3-.007,1.48,1.48,0,0,0,.731,0c.048-.007.185-.018.5.187a1.064,1.064,0,0,0,.938.129.984.984,0,0,1,.148.233,3.834,3.834,0,0,1-.911,2.074l-1.676,2.036a1.255,1.255,0,0,0-.819.53,2.207,2.207,0,0,0-.956.785,1.7,1.7,0,0,0-.755.406,4.455,4.455,0,0,0-1.077.228A2.82,2.82,0,0,1,644,37a2.811,2.811,0,0,0-1.8.6.36.36,0,0,0-.07.062,1.667,1.667,0,0,0-.352,1.576,1.464,1.464,0,0,0,1.262,1.092.309.309,0,0,0,.054,0,.37.37,0,0,0,.058-.005c.83-.159,1.477-.3,1.926-.414a5.357,5.357,0,0,1,1.613-.087,14.5,14.5,0,0,0,2.5-.072,2.406,2.406,0,0,1,.792.211,1.261,1.261,0,0,0,1.132-.036,1.013,1.013,0,0,1,.224-.06c.191.418.863.3,1.2.232a3.155,3.155,0,0,0,1.273.089,4.391,4.391,0,0,0,.931-.01,1.4,1.4,0,0,0,.9-.671,1.29,1.29,0,0,0,.094-1.19,1.176,1.176,0,0,0-.85-.764" transform="translate(26.605 1.017)" fill="#f4ffc4" stroke="#f4ffc4" stroke-linejoin="round" stroke-width="0.6"/>
      <path id="パス_6533" data-name="パス 6533" d="M639.183,20.477a1.848,1.848,0,0,0,1.391.022c.46-.19.72-.457.769-.8.005-.031.1-.14.48-.219a.312.312,0,0,0,.127-.06,2.141,2.141,0,0,1,.821-.4,2.4,2.4,0,0,1,.9-.044,2.648,2.648,0,0,0,.853.021q.236-.045,1.123-.231a7.875,7.875,0,0,0,1.469-.03,1.318,1.318,0,0,1,.585.038,3.075,3.075,0,0,0,.3,1.08,1.573,1.573,0,0,0,.875.661,1.506,1.506,0,0,0,.582.124,1.275,1.275,0,0,0,.761-.256,3.305,3.305,0,0,0,.852-.928,11.4,11.4,0,0,0,.59-1.063,1.2,1.2,0,0,0-.065-.865,3.553,3.553,0,0,0-.633-.867,3.7,3.7,0,0,0-1.2-.626,3.788,3.788,0,0,0-1.133-.055c-.418.032-1.108.08-2.067.143q-1,.048-2.13.093a1.852,1.852,0,0,0-.975.067,10.387,10.387,0,0,1-1.686.228c-.372.064-1.018.207-1.956.432a1.957,1.957,0,0,0-1.349.754,1.931,1.931,0,0,0-.21,1.512,1.439,1.439,0,0,0,.922,1.261" transform="translate(26.54 0.585)" fill="#f4ffc4" stroke="#f4ffc4" stroke-linejoin="round" stroke-width="0.6"/>
      <path id="パス_6534" data-name="パス 6534" d="M637.118,22.972a1.729,1.729,0,0,0-.568,1.624,1.333,1.333,0,0,0,.915,1.126,3.46,3.46,0,0,0,1,.162c.048,0,.1,0,.143,0a2.827,2.827,0,0,0,1.284-.47,3.634,3.634,0,0,1,1.169-.2,4.314,4.314,0,0,0,1.6-.366,2.287,2.287,0,0,1,1.056-.007.263.263,0,0,0,.124.011c.579-.064,1.143-.128,1.712-.195,1.083-.2,1.3-.1,1.312-.09a.787.787,0,0,0,1.023-.064.884.884,0,0,1,.571.058.727.727,0,0,0,.854.049,1.475,1.475,0,0,1,.448-.172c.187.085.39.187.6.3a.885.885,0,0,0,.923.007,1.822,1.822,0,0,0,1.28.029,1.025,1.025,0,0,0,.935.262,1.259,1.259,0,0,0,.891-.695,2.137,2.137,0,0,0-.054-1.576.317.317,0,0,0-.064-.114,2.32,2.32,0,0,0-2.111-.824c-1.646-.034-2.961-.025-4.026.024s-1.913.1-2.544.145l-2.438.192c-.988.079-1.842.119-2.564.12-1.225.129-1.98.21-2.271.242a3.378,3.378,0,0,0-1.119.366.309.309,0,0,0-.081.059" transform="translate(26.47 0.798)" fill="#f4ffc4" stroke="#f4ffc4" stroke-linejoin="round" stroke-width="0.6"/>
      <path id="パス_6535" data-name="パス 6535" d="M28.006,28.273a1.174,1.174,0,0,0-.787-.751,6.662,6.662,0,0,0-1.489-.222,8.9,8.9,0,0,0-1.343.034c-.287.022-.6.038-.927.05s-.748.028-1.223.051-1.139.066-1.989.136q-.761.059-1.295.1a4.4,4.4,0,0,0,.133-.726,4.638,4.638,0,0,0,.267-.834,9.681,9.681,0,0,0,.171-1.183l.365-.868a1.718,1.718,0,0,0,.045-.941,1.3,1.3,0,0,0,.3-1.01.536.536,0,0,1,.043-.366,2.406,2.406,0,0,0,.176-.426c.694.019,1.189.038,1.522.057a6.087,6.087,0,0,1,1.214.063c.431.066.808.132,1.127.2s.551.122.72.175.366.131.691.263c.356.068.642.122.851.167a1.866,1.866,0,0,0,.688.037,1.007,1.007,0,0,0,.706-.555,1.454,1.454,0,0,0-.061-1.327.383.383,0,0,0-.075-.116,2.088,2.088,0,0,0-1.094-.6c-.305-.043-.642-.108-1.107-.206-.486,0-1.157-.033-1.994-.1q-1.308-.1-1.773-.1c-.187,0-.418-.015-.687-.041a2.791,2.791,0,0,1,.17-.546,1.885,1.885,0,0,0,.22-.664,8.337,8.337,0,0,1,.195-.823,2.254,2.254,0,0,0,.311-1.2,1.419,1.419,0,0,0,.371-.848c.141-.395.245-.733.316-1.012a1.83,1.83,0,0,1,.246-.576,4.331,4.331,0,0,0,.48-1.434,3.234,3.234,0,0,1,.368-.425,1.648,1.648,0,0,0,.378-.474,1.18,1.18,0,0,0-.047-.926,1.63,1.63,0,0,0-.645-.862,1.708,1.708,0,0,0-.847-.19.4.4,0,0,0-.11.016,2.326,2.326,0,0,0-.718.311,1.37,1.37,0,0,0-.5.736c-.079.252-.223.786-.431,1.616l-.2.907q-.067.3-.451,1.677-.372,1.334-1.405,4.706-.439-.02-.85-.033c-.376-.013-.932-.006-1.613.018a12.159,12.159,0,0,0-1.514-.085c-.2.011-.44.023-.718.034a8.484,8.484,0,0,1-.871-.018,5.931,5.931,0,0,1-1.058-.032c-.137-.011-.281-.018-.429-.019a30.7,30.7,0,0,1,1.005-3.1,21.734,21.734,0,0,1,1.059-2.307c.342-.624.725-1.239,1.076-1.754a4.081,4.081,0,0,0,.563-.6c.127-.168.232-.3.318-.395.337-.383.012-.907-.094-1.08a1.321,1.321,0,0,0-1.182-.634,1.316,1.316,0,0,0-1.129.489c-.15.2-.322.409-.567.695a2.753,2.753,0,0,0-.336,1.043.905.905,0,0,0-.386.469,3.833,3.833,0,0,1-.29.57.424.424,0,0,0-.052.15,2.583,2.583,0,0,1-.171.663,3.06,3.06,0,0,1-.311.531,1.836,1.836,0,0,0-.3,1.064c-.107.255-.242.563-.4.928a.691.691,0,0,0-.034.237.739.739,0,0,0-.321.567,2.937,2.937,0,0,1-.115.5,11.521,11.521,0,0,0-.5,1.295c-.055.25-.111.468-.167.654-.34.006-.683.022-1.029.049a9.463,9.463,0,0,1-.98.033c-.262-.012-.51-.012-.749,0a1.819,1.819,0,0,0-.767.2.283.283,0,0,1-.183.046,1.49,1.49,0,0,0-.683.019q-.261.065-.716.145a7.537,7.537,0,0,0-1.082.284,2.521,2.521,0,0,0-.805.547.976.976,0,0,0-.189,1.046,1.656,1.656,0,0,0,.521.754,2.6,2.6,0,0,0,.641.379,1.332,1.332,0,0,0,1.15-.169.437.437,0,0,0,.119-.094,2.058,2.058,0,0,1,1.028-.6A7.937,7.937,0,0,1,7.4,21.455q.637-.034,1.363-.046a1.026,1.026,0,0,0-.029.237,3.083,3.083,0,0,1-.082.6l-.339.768a1.157,1.157,0,0,0-.095.73,1.2,1.2,0,0,1-.156.45,4,4,0,0,0-.607,1.61,6.973,6.973,0,0,1-.316,1.3,15.3,15.3,0,0,0-.45,1.537q-1.842.146-2.106.161a4.2,4.2,0,0,0-.657.093,5.666,5.666,0,0,1-.741.1q-.926.2-1.392.264a4.2,4.2,0,0,0-1.049.3A1.071,1.071,0,0,0,0,30.5a1.354,1.354,0,0,0,.164.811,1.249,1.249,0,0,0,.457.429,3.053,3.053,0,0,0,.669.238,1.168,1.168,0,0,0,1.034-.19,2.125,2.125,0,0,1,.434-.267,6.343,6.343,0,0,1,.828-.237c.416-.047.9-.126,1.456-.243.321-.065.638-.12.948-.162Q5.7,31.933,5.2,33.347a15.655,15.655,0,0,1-.843,2.276c-.153.476-.284.933-.4,1.368A4.279,4.279,0,0,0,3.51,38.17a1.4,1.4,0,0,1-.157.435,2.113,2.113,0,0,0-.283.824,5.49,5.49,0,0,0-.276.643,3.064,3.064,0,0,0-.449.856.692.692,0,0,1-.118.242,1.54,1.54,0,0,0-.242.818,2.265,2.265,0,0,0-.02.8,1.165,1.165,0,0,0,.693.841,1.657,1.657,0,0,0,.779.193,2.1,2.1,0,0,0,.449-.052A1.458,1.458,0,0,0,4.715,42.4a4.554,4.554,0,0,0,.2-.9c.028-.228.06-.452.095-.674A2.081,2.081,0,0,0,5.4,39.405,25.433,25.433,0,0,1,6.247,36.4c.283-.766.474-1.326.569-1.663s.312-1.046.671-2.17c.275-.866.484-1.491.625-1.869a4.349,4.349,0,0,0,.8-.033q.3-.048.754-.1a4.109,4.109,0,0,0,1-.251.986.986,0,0,0,.579.038c.146-.035.292-.077.436-.125a.746.746,0,0,1,.294-.03,4,4,0,0,0,.807-.051c.548-.021.9-.038,1.045-.051a3.02,3.02,0,0,1,.543.032,1.49,1.49,0,0,0,1.049-.3,6.215,6.215,0,0,0,.767.029c-.045.2-.084.368-.119.5a.991.991,0,0,0-.222.872.724.724,0,0,1,.006.291,1.293,1.293,0,0,0-.258.738.422.422,0,0,1-.079.253,1.6,1.6,0,0,0-.254.853c.02.131.007.187.016.189a.89.89,0,0,0-.317.86.877.877,0,0,0-.156.712.9.9,0,0,0-.262.691c-.051.181-.109.364-.174.545a1.266,1.266,0,0,0-.393.759,7,7,0,0,1-.14.729l-.355.857a2.571,2.571,0,0,0-.18.641.605.605,0,0,1-.137.246,1.554,1.554,0,0,0-.859.175,2.487,2.487,0,0,0-.569.446,1.155,1.155,0,0,0-.167,1.095,2.628,2.628,0,0,0,.636,1.178,1.523,1.523,0,0,0,1.267.574,1.331,1.331,0,0,0,1.053-.539,4.384,4.384,0,0,0,.568-1.248c.157-.507.339-1.109.54-1.8q.437-1.376.743-2.318c.209-.648.334-1.081.383-1.323a4.439,4.439,0,0,1,.17-.616q.125-.355.215-.71.084-.336.573-2.18.431-1.631.72-2.633a1,1,0,0,1,.337-.006,1.6,1.6,0,0,0,.919-.182,1.994,1.994,0,0,0,.966-.011,1.942,1.942,0,0,0,.973.058,1.725,1.725,0,0,1,.732.028,1.659,1.659,0,0,0,.955-.027,1.277,1.277,0,0,0,.863.089.925.925,0,0,0,.816.31c.126-.032.284-.064.474-.1a1.808,1.808,0,0,1,1.114.077,1.414,1.414,0,0,0,1.069-.142.838.838,0,0,0,.527-.857,4.072,4.072,0,0,0-.17-.659m-9.681-7.06c-.125.707-.324,1.619-.595,2.722q-.511,2.084-.629,2.692a8.833,8.833,0,0,1-.352,1.212c-.857.1-1.983.195-3.354.286q-2.287.152-3.388.253c-.436.039-.82.068-1.146.083q.6-2.1,1.023-3.411.477-1.487.748-2.469a8.639,8.639,0,0,1,.5-1.384q2.1-.061,3.645-.076c.968-.016,2.158.021,3.547.092" transform="translate(0 0.338)" fill="#f4ffc4" stroke="#f4ffc4" stroke-linejoin="round" stroke-width="0.6"/>
    </g>
  </g>
</svg>
