<svg xmlns="http://www.w3.org/2000/svg" xmlns:xlink="http://www.w3.org/1999/xlink" width="430" height="104" viewBox="0 0 430 104">
  <defs>
    <clipPath id="clip-path">
      <rect id="長方形_1812" data-name="長方形 1812" width="430" height="104" transform="translate(-6290.5 11360.171)" fill="#fff" stroke="#707070" stroke-width="1"/>
    </clipPath>
  </defs>
  <g id="campaign_hash_mb" transform="translate(6290.5 -11361.171)">
    <g id="マスクグループ_889" data-name="マスクグループ 889" transform="translate(0 1)" clip-path="url(#clip-path)">
      <g id="グループ_3610" data-name="グループ 3610" transform="translate(0 2)">
        <g id="グループ_3607" data-name="グループ 3607" transform="translate(-6285 11414.332)">
          <path id="パス_6510" data-name="パス 6510" d="M326.466,9.926a3.464,3.464,0,0,0-2.158-.271,4.841,4.841,0,0,1-1.2.082,3.186,3.186,0,0,0-1.013.07,3.71,3.71,0,0,1-.981.079,16.3,16.3,0,0,1-2.088.228c-.416,0-1.4.039-2.922.117q-2.185.111-6.231.325c.2-.328.37-.591.5-.791a2.946,2.946,0,0,0,.38-.976A.775.775,0,0,0,311.284,8a.742.742,0,0,1,.486-.649.22.22,0,0,0,.108-.117,2.43,2.43,0,0,1,.5-.822c.211-.209.507-.487.89-.829A2.522,2.522,0,0,0,314.278,4.2a1.7,1.7,0,0,0-.3-1.132,1.967,1.967,0,0,0-1.146-.789,3.753,3.753,0,0,0-1.368-.151c-.419.047-.851.379-1.332,1.034-.616,1.032-1.087,1.852-1.4,2.44-.3.564-.668,1.287-1.111,2.209a25.026,25.026,0,0,1-1.729,2.949c-2.173.187-3.954.32-5.3.4-1.384.079-2.451.154-3.268.231s-1.6.146-2.352.2a13.043,13.043,0,0,0-2.093.323,18.027,18.027,0,0,0-1.826.469,1.629,1.629,0,0,0-1.09,1.777c0,1.216.52,1.533.957,1.584a3.4,3.4,0,0,0,1.465-.127c.432-.144.809-.289,1.154-.442a6.737,6.737,0,0,0,1.079-.612,2.148,2.148,0,0,0,1.286-.294,7.7,7.7,0,0,1,1.054.054,1.581,1.581,0,0,0,.883-.13,7.246,7.246,0,0,1,.993-.315,1.142,1.142,0,0,0,1.069.043c.209-.121.54-.287.984-.494a1.3,1.3,0,0,0,.909.169,6.051,6.051,0,0,1,.9-.137,21.472,21.472,0,0,0,2.252-.186,34.705,34.705,0,0,0-1.8,5.231,36.582,36.582,0,0,0-.909,4.317,4.325,4.325,0,0,0,.732,2.714c.584.937,1.123,1.426,1.645,1.493q.665.086,1.329.2a9.344,9.344,0,0,0,2.69-.238,12.029,12.029,0,0,1,2.314-.4,10.652,10.652,0,0,1,1.784-.059,9.205,9.205,0,0,0,1.134.061,9.942,9.942,0,0,1,1.107.055c.329.039.742.117,1.185.214a3.681,3.681,0,0,0,1.478.307,11.863,11.863,0,0,1,1.081.783c.046.04.184.165.053.577a3.567,3.567,0,0,1-.465.953,4.031,4.031,0,0,1-.575.683,9.024,9.024,0,0,0-1.052,1.355,3.668,3.668,0,0,0-1.163,1.1,2.738,2.738,0,0,0-.966.831,2.16,2.16,0,0,1-.633.629,7.043,7.043,0,0,1-.678.393,1.408,1.408,0,0,0-.591.7q-.472.209-.768.343a4.084,4.084,0,0,0-.992.793,6.669,6.669,0,0,0-1.28.642q-.519.345-1.725,1.2-.8.284-1.254.453a2.413,2.413,0,0,0-.769.451,1.627,1.627,0,0,0-1.079.4,1.254,1.254,0,0,1-.693.348c-.285.038-.632.258-.659,1.082a3.035,3.035,0,0,0,.284,1.5,1.053,1.053,0,0,0,1.032.568,2.25,2.25,0,0,0,.434-.044,7.283,7.283,0,0,0,1.92-.656,12.511,12.511,0,0,0,1.921-1.2,14.652,14.652,0,0,1,2.177-1.737c.891-.6,2.1-1.5,3.591-2.673a41.052,41.052,0,0,0,3.162-2.678l1.39-1.389a7.059,7.059,0,0,1,.843-.981,9.679,9.679,0,0,0,.78-.8q.235-.294.53-.7a2.187,2.187,0,0,0,.388-1.071,4.539,4.539,0,0,0,.032-1.4,1.473,1.473,0,0,0-.546-1.115,3.737,3.737,0,0,0-.879-1.237,7.761,7.761,0,0,0-.69-.477c-.2-.119-.417-.238-.655-.354a4.541,4.541,0,0,0-1.337-.311c-.585-.116-1.11-.2-1.556-.261A9.038,9.038,0,0,0,314.8,23.8a12.927,12.927,0,0,1-1.486-.026,9.476,9.476,0,0,0-2.16.167,5.793,5.793,0,0,0-.805-.14,2.892,2.892,0,0,0-1.262.362,1.944,1.944,0,0,0-1.1,0,9.967,9.967,0,0,1-1.146.3,3.035,3.035,0,0,1-1.2-.526,1.131,1.131,0,0,1-.5-.692,3.407,3.407,0,0,1,0-.87,2.6,2.6,0,0,1,.214-.8,2.6,2.6,0,0,0,.143-1.2,1.389,1.389,0,0,0,.407-.994,2.189,2.189,0,0,0,.371-1.251,2.017,2.017,0,0,1,.25-1.038,3.215,3.215,0,0,0,.44-.934q.134-.453.293-1.077a1.01,1.01,0,0,0,.763-.854,2.553,2.553,0,0,1,.667-1.177,8.318,8.318,0,0,0,1.209-.063,3.89,3.89,0,0,1,1.034.059,6.3,6.3,0,0,0,2.076-.121,3.365,3.365,0,0,1,1.5-.232,2.34,2.34,0,0,0,1.163-.042,3.169,3.169,0,0,0,2.239.068,5.1,5.1,0,0,0,1.306.242,2.2,2.2,0,0,0,1.188-.287,2.231,2.231,0,0,0,1.178.257,2.42,2.42,0,0,1,.877.053,2.309,2.309,0,0,0,1.36-.205,3.258,3.258,0,0,0,1.535.269,2.535,2.535,0,0,0,1.245-.358c.321-.222.467-.664.447-1.349a1.747,1.747,0,0,0-.586-1.417" transform="translate(-289.973 0.258)" fill="#f4ffc4" stroke="#f4ffc4" stroke-linejoin="round" stroke-width="0.4"/>
          <path id="パス_6511" data-name="パス 6511" d="M342.438,24.341a7.319,7.319,0,0,0-1.554-.131,5.418,5.418,0,0,0-1.1.1,45.448,45.448,0,0,1-4.624-.04q-1.27-.072-2.154-.144a1.661,1.661,0,0,0-.109-.786,2.356,2.356,0,0,1-.058-.656,2.628,2.628,0,0,0-.045-.694,2.539,2.539,0,0,0-.315-.729c-.159-.877-.445-1.338-.914-1.414a2.951,2.951,0,0,0-.98.157,1.038,1.038,0,0,0-.678.7,2.612,2.612,0,0,0-.132.719,1,1,0,0,0,.207.6.7.7,0,0,1,.143.321,1.812,1.812,0,0,0,.283.683,10.649,10.649,0,0,1,.335,1.492c.042.354.1.846.185,1.433a7.332,7.332,0,0,0,0,1.14c.026.294.039.591.04.9a3.216,3.216,0,0,1-.019.785c-.041.285-.082.551-.123.793a3.152,3.152,0,0,0-.027.787,1.887,1.887,0,0,0-.158.867,2.871,2.871,0,0,1-.264.944c-.435,0-.783.016-1.057.04q-.455.04-1.072.1c-.406.04-.814.059-1.266.066a6.639,6.639,0,0,1-.818.159,7.1,7.1,0,0,0-1.042.232,4.221,4.221,0,0,0-1.327.647,2.557,2.557,0,0,0-.855.906,3.269,3.269,0,0,0-.248,1.18,4.938,4.938,0,0,0,.216,1.413,3.636,3.636,0,0,0,.615,1.244,4.567,4.567,0,0,0,.887.861,3.026,3.026,0,0,0,.991.494,1.891,1.891,0,0,0,1.123.47c.378.028.785.043,1.21.043a.234.234,0,0,0,.073-.012,4.93,4.93,0,0,0,2.692-2.1,13.032,13.032,0,0,0,1.116-2.065c.1-.377.313-.994.635-1.834.539.026.929.049,1.161.075a6.359,6.359,0,0,0,.918.02,1.3,1.3,0,0,1,.548.037.91.91,0,0,0,.6.04.565.565,0,0,1,.416.077,1.152,1.152,0,0,0,.856.076,9.6,9.6,0,0,0,1.636.261,6.056,6.056,0,0,1,1.341.243,1.721,1.721,0,0,0,.658.34c.77.234,1.159.347,1.3.374.218.042.471-.07.809-.356a1.408,1.408,0,0,0,.49-1.134c0-.51-.159-.829-.476-.948a3.929,3.929,0,0,1-.585-.27,3.218,3.218,0,0,0-1.142-.273,6.9,6.9,0,0,0-1.16-.187c-.285-.012-.524-.025-.716-.039a4.1,4.1,0,0,0-.565-.02,7.089,7.089,0,0,1-1.036,0q-.5-.042-1.937-.145c-.9-.062-1.85-.1-2.837-.1.045-.249.1-.483.157-.7a2.766,2.766,0,0,0,.095-.915,1.913,1.913,0,0,0,.133-1.121,1.089,1.089,0,0,0,.253-.78,1.879,1.879,0,0,1,.034-.564,1.937,1.937,0,0,0,.07-.508c0-.123.032-.522.1-1.217a3.832,3.832,0,0,0,.788.11,4.619,4.619,0,0,0,.737-.064,2.106,2.106,0,0,1,.827.064c.438,0,.846-.013,1.157-.045a5.2,5.2,0,0,0,.8.086c.183,0,.442-.013.762-.042a2.084,2.084,0,0,1,.647.091,1.693,1.693,0,0,0,.757.071c.224-.025.52-.065.886-.117a5.742,5.742,0,0,0,1.069.22c.224.016.449.021.674.021.333,0,.572-.255.711-.758a1.294,1.294,0,0,0-.071-1.084,1.211,1.211,0,0,0-.68-.5m-12.489,9.977a4.007,4.007,0,0,1-.309.986,4.08,4.08,0,0,0-.331.87,3.156,3.156,0,0,0-.64.968c-.179.255-.27.277-.266.278a.743.743,0,0,0-.671.317,1.29,1.29,0,0,1-.565.15c-.149-.015-.317-.035-.506-.062a2.715,2.715,0,0,1-.532-.132.412.412,0,0,1-.26-.209,1.976,1.976,0,0,0-.48-.584,2.287,2.287,0,0,0-.3-.643c-.063-.085-.052-.267.032-.514a.21.21,0,0,0,.01-.1.723.723,0,0,1,.095-.473c.05-.087.094-.148.13-.138a.873.873,0,0,0,.61-.129q.24-.138.539-.277a2.017,2.017,0,0,1,.571-.164,2.635,2.635,0,0,0,1.2-.157c.362.052.648.082.86.1a1.418,1.418,0,0,0,.634-.077.369.369,0,0,1,.189-.008" transform="translate(-285.798 2.414)" fill="#f4ffc4" stroke="#f4ffc4" stroke-linejoin="round" stroke-width="0.4"/>
          <path id="パス_6512" data-name="パス 6512" d="M350.71,15.061c.32.26.573.451.774.584a.76.76,0,0,0,.683.108,2.709,2.709,0,0,0,.905-.741,10.181,10.181,0,0,0,1.573-.511h0a2.574,2.574,0,0,1,1.39-.125,6.231,6.231,0,0,0,1.735.358,3.177,3.177,0,0,1,1.191.247,3.369,3.369,0,0,0,1.066.3,3.389,3.389,0,0,1,.911.218,3.573,3.573,0,0,0,.974.229,4.606,4.606,0,0,0,1.185.577,3.741,3.741,0,0,1,1.025.5,5.149,5.149,0,0,0,.964.525c.251.093.5.2.755.316.267.126.759.4,1.457.826a13.033,13.033,0,0,1,1.738,1.322,1.372,1.372,0,0,0,.925.555,1.625,1.625,0,0,0,.2.012,1.875,1.875,0,0,0,.9-.25,1.714,1.714,0,0,0,.76-1.262,1.923,1.923,0,0,0-.224-1.527,1.684,1.684,0,0,0-.894-.709c-.725-.352-1.361-.666-1.938-.961a9.682,9.682,0,0,0-1.31-.583c-.266-.081-.651-.228-1.144-.437a2.6,2.6,0,0,0-.93-.656,5.956,5.956,0,0,1-1.653-.5,2.068,2.068,0,0,0-1.137-.589,2.578,2.578,0,0,0-1.5-.583,11.816,11.816,0,0,0-2.156-.64,8.5,8.5,0,0,1-1.248-.255,13.657,13.657,0,0,0-1.618-.324h-1.482c-.407.045-1.017.087-1.81.127a2.227,2.227,0,0,0-1.36.376,3.6,3.6,0,0,0-.85.926,2.08,2.08,0,0,0-.34,1.251,2.343,2.343,0,0,0,.461,1.275.127.127,0,0,0,.02.022" transform="translate(-282.286 1.349)" fill="#f4ffc4" stroke="#f4ffc4" stroke-linejoin="round" stroke-width="0.4"/>
          <path id="パス_6513" data-name="パス 6513" d="M372.389,32.056a1.911,1.911,0,0,0-1.48-.166,6.62,6.62,0,0,1-1.211.44q-.354.066-1,.194t-1.806.38a2.5,2.5,0,0,0-.9.037c-.264.061-.68.174-1.273.347a3.239,3.239,0,0,0-1.5-.026,11.688,11.688,0,0,1-1.635.287,20.2,20.2,0,0,1-4.356.255c-1.261-.084-2.218-.17-2.845-.256a6.316,6.316,0,0,1-2.1-.766c-.644-.194-.954-.446-.921-.748q.057-.542.117-.958a2.121,2.121,0,0,0-.153-1.016c-.153-.4-.56-.644-1.21-.711a2.073,2.073,0,0,0-1.651.516,11.086,11.086,0,0,0-.772.94,1.554,1.554,0,0,0-.254,1.236,5.139,5.139,0,0,0,.3,1.114,3.013,3.013,0,0,0,.578.866,7.691,7.691,0,0,0,.925.846,5.393,5.393,0,0,0,1.38.755h0a7.9,7.9,0,0,0,1.641.423c.465.059.909.125,1.319.191.389.064.766.119,1.122.162a4.924,4.924,0,0,0,1.482-.125,7.048,7.048,0,0,0,1.353.19,11.4,11.4,0,0,0,1.406-.127,2.042,2.042,0,0,0,1.482-.182,2.133,2.133,0,0,0,1.434.112,1.972,1.972,0,0,1,.967-.1.612.612,0,0,0,.636-.121,1.007,1.007,0,0,1,.683-.131c.37.021.673.044.908.065a1.7,1.7,0,0,0,.69-.068,2.151,2.151,0,0,1,.837-.029,2.937,2.937,0,0,0,1.324-.193c.5-.083,1.069-.148,1.7-.191q.939-.128,1.5-.194a3.863,3.863,0,0,0,1.21-.362,1.911,1.911,0,0,0,.934-.85,1.232,1.232,0,0,0,.032-1.123,2.077,2.077,0,0,0-.9-.913" transform="translate(-282.645 3.568)" fill="#f4ffc4" stroke="#f4ffc4" stroke-linejoin="round" stroke-width="0.4"/>
          <path id="パス_6514" data-name="パス 6514" d="M394.939,26.19a4.636,4.636,0,0,0-1.035-.878l-.019-.011a7.273,7.273,0,0,0-1.911-.631,17.917,17.917,0,0,0-3.033-.353H387.6a19.449,19.449,0,0,0-3.042.443,23.973,23.973,0,0,0-3.737.926,7.223,7.223,0,0,0-1.612.768,5.647,5.647,0,0,0-.753.693,1.319,1.319,0,0,0-.329,1.1,1.119,1.119,0,0,0,.519,1.024,1.3,1.3,0,0,0,1.069.14,2.494,2.494,0,0,0,.845-.393,1.75,1.75,0,0,0,.557-.912,1.733,1.733,0,0,1,.789-.444,3.62,3.62,0,0,0,.911-.34,1.279,1.279,0,0,0,.89-.317,1.449,1.449,0,0,0,1.068-.353c1.205-.162,2.259-.268,3.137-.315a5.7,5.7,0,0,1,1.576.02,2.344,2.344,0,0,0,.841.109,5.06,5.06,0,0,1,.843.046c.294.136.512.238.652.308a1.533,1.533,0,0,0,.583.155.228.228,0,0,1,.129.034.924.924,0,0,0,.417.344s.125.066.417.523c.1.594.037.8,0,.856a4.453,4.453,0,0,0-.292.621.952.952,0,0,1-.256.372,1.569,1.569,0,0,0-.636.76,2.59,2.59,0,0,0-.627.61,1.263,1.263,0,0,1-.416.323,4.372,4.372,0,0,0-.866.688l-1.5,1.073c-.581.288-.981.482-1.2.579a2.56,2.56,0,0,0-.782.6q-.445.173-.663.279a3.691,3.691,0,0,0-.54.353,2.248,2.248,0,0,0-.993.433,10.35,10.35,0,0,0-1.184.233,2.022,2.022,0,0,0-.831.43c-.181.167-.32.307-.423.422a1.5,1.5,0,0,0-.3.559.867.867,0,0,0,.2.842,1.432,1.432,0,0,0,.881.483.935.935,0,0,0,.182.017,3.794,3.794,0,0,0,1.651-.607q.729-.362,2.157-1.149,1.543-1.021,3.066-2.045a27.253,27.253,0,0,0,2.781-2.121,15.117,15.117,0,0,0,1.687-1.643,8.412,8.412,0,0,0,.691-.986,2.038,2.038,0,0,0,.376-.891c.026-.225.044-.467.057-.729a3.053,3.053,0,0,0-.136-.977,2.793,2.793,0,0,0-.513-1.075" transform="translate(-278.728 2.958)" fill="#f4ffc4" stroke="#f4ffc4" stroke-linejoin="round" stroke-width="0.4"/>
          <path id="パス_6515" data-name="パス 6515" d="M423.832,32.758A1.977,1.977,0,0,0,422,32.9c-.342.122-.636.215-.884.277a.308.308,0,0,0-.117.057.909.909,0,0,1-.608.246,1.943,1.943,0,0,0-1.2.479,25.378,25.378,0,0,1-2.877,1.017c-1.037.3-2,.6-2.853.891a12.152,12.152,0,0,1-2.695.566,20.469,20.469,0,0,1-2.942.326q-.864-.045-1.659-.1a4.134,4.134,0,0,1-1.045-.149,4.61,4.61,0,0,1-.728-.36c-.387-.305-.467-.454-.483-.492a.887.887,0,0,1-.028-.444,2.755,2.755,0,0,1,.24-.751,9.171,9.171,0,0,1,.476-.907,8.163,8.163,0,0,1,.789-.944c.3-.319.611-.617.911-.886a2.153,2.153,0,0,0,.778-.81q.869-.589,1.218-.822a7.707,7.707,0,0,1,.875-.481,7.277,7.277,0,0,0,.989-.562,2.121,2.121,0,0,0,.951-.128c.189-.08.267-.035.294-.02a1.109,1.109,0,0,0,.863.085A2.46,2.46,0,0,0,413,28.67a1.353,1.353,0,0,0,1.045-.287.99.99,0,0,1,.462-.255,1.975,1.975,0,0,0,1.142-1.91,2.593,2.593,0,0,0-.461-1.009A1.5,1.5,0,0,0,413.9,24.6a4.033,4.033,0,0,0-1.381.24,2.957,2.957,0,0,0-1.58.432,10.774,10.774,0,0,1-1.476.751,5.534,5.534,0,0,0-1.074-.131.573.573,0,0,1-.29-.046h0a.853.853,0,0,0-.594-.38,2.484,2.484,0,0,1-.5-.169,11.48,11.48,0,0,1-.937-.861,1.859,1.859,0,0,1-.393-.623,1.566,1.566,0,0,0-.389-1.131v-.932a.315.315,0,0,0-.026-.123c-.219-.508-.176-.646-.175-.649a1.594,1.594,0,0,0,.108-.833,1.884,1.884,0,0,0-.088-1.1c.347-.37.433-.7.256-.966,0,0-.007-.12.276-.428a.31.31,0,0,0,.073-.285c-.1-.393-.05-.562-.009-.631a2.848,2.848,0,0,0,.3-.833,1.975,1.975,0,0,1,.312-.727,3.867,3.867,0,0,0,.445-.833,2.517,2.517,0,0,1,.488-.735,3.15,3.15,0,0,0,.981-1.235,1.168,1.168,0,0,0-.277-1.218,2.166,2.166,0,0,0-1.078-.676,1.8,1.8,0,0,0-1.2.239,2.5,2.5,0,0,0-.875.875,13.517,13.517,0,0,0-.621,1.335,8.167,8.167,0,0,0-1.027,2.836c-.175,1.012-.315,2.068-.413,3.137a18.948,18.948,0,0,0,.049,3.554,7.6,7.6,0,0,0,.885,3.123A7.37,7.37,0,0,0,404.9,27.2a3.1,3.1,0,0,0,1.073.684,1.979,1.979,0,0,1,.522.283c-.175.157-.379.36-.615.61a9.531,9.531,0,0,0-1.592,1.158,3.251,3.251,0,0,0-.718.723,1.4,1.4,0,0,1-.4.39,3.392,3.392,0,0,0-.846,1.05,1.889,1.889,0,0,1-.361.552c-.13.113-.3.353-.56,1.234a4.093,4.093,0,0,0-.194,2.177,2.485,2.485,0,0,0,1.3,1.956,1.167,1.167,0,0,0,.969.778.942.942,0,0,1,.521.148,1.239,1.239,0,0,0,.863.236q.414-.025.707-.048a.418.418,0,0,1,.308.1.993.993,0,0,0,1.009.006,1.531,1.531,0,0,0,.642.149,1.314,1.314,0,0,0,.239-.021,1.683,1.683,0,0,1,.627,0,2.257,2.257,0,0,0,1.2-.21h1.145a1.711,1.711,0,0,0,1-.366,1.619,1.619,0,0,0,.891-.093c.183-.084.44-.182.788-.3a1.445,1.445,0,0,0,1.04-.183,1.83,1.83,0,0,1,.549-.252,1.832,1.832,0,0,0,1.008-.182,2.822,2.822,0,0,1,.563-.239q.269-.074,1.343-.436a9.772,9.772,0,0,1,1.485-.418,7.723,7.723,0,0,0,1.255-.324c.375-.123.657-.211.843-.257a4.767,4.767,0,0,0,1.1-.511,8.129,8.129,0,0,0,1.284-.365,1.665,1.665,0,0,0,.83-.813.887.887,0,0,0-.113-1.162,2.551,2.551,0,0,0-.77-.491" transform="translate(-275.788 1.273)" fill="#f4ffc4" stroke="#f4ffc4" stroke-linejoin="round" stroke-width="0.4"/>
          <path id="パス_6516" data-name="パス 6516" d="M437.843,16.5a1.481,1.481,0,0,0,.734.208,1.362,1.362,0,0,0,.667-.179,8.406,8.406,0,0,0,1.177-.792,8.849,8.849,0,0,1,2.178-.6,4.191,4.191,0,0,1,1.1.009.954.954,0,0,0,.845-.168.449.449,0,0,1,.4-.061,1.634,1.634,0,0,0,.857.016,5.77,5.77,0,0,0,1.142-.006c.213-.035.495-.082.847-.145a2.49,2.49,0,0,0,1.248.085.815.815,0,0,1,.424-.038,1.611,1.611,0,0,0,1.091-.2,3.486,3.486,0,0,0,1.014.113c.218-.016.537-.055.958-.12a1.307,1.307,0,0,0,.81.055c.321-.092.851-.052,1.265-.12a.591.591,0,0,1,.382.066,1.575,1.575,0,0,0,.957.144,2.268,2.268,0,0,1,.882.1q.915.2,1.829.453a2.165,2.165,0,0,0,1.537.144,2.533,2.533,0,0,0,1.205-.557c.284-.283.338-.76.168-1.46s-.4-1.087-.735-1.239a2.9,2.9,0,0,0-1.252-.181,30.424,30.424,0,0,0-4.4-.267c-1.76,0-4.015.071-6.707.209q-4.55.261-6.276.39c-1.151.087-2.147.2-3,.353a3.6,3.6,0,0,0-1.762.926,3.277,3.277,0,0,0-.5,1.042,1.309,1.309,0,0,0,.065,1.1,2.374,2.374,0,0,0,.849.709" transform="translate(-271.235 1.431)" fill="#f4ffc4" stroke="#f4ffc4" stroke-linejoin="round" stroke-width="0.4"/>
          <path id="パス_6517" data-name="パス 6517" d="M474.745,28.758a2.767,2.767,0,0,0-1.163-.065,3.627,3.627,0,0,0-1.3.455,2.764,2.764,0,0,1-.805.038,2.16,2.16,0,0,0-1.168.269,2.489,2.489,0,0,1-.781.045,2.4,2.4,0,0,0-1.2.276,2.827,2.827,0,0,0-1.61.044,3.81,3.81,0,0,1-1.34.2,17.256,17.256,0,0,0-3.083.288c-1.641.223-3.49.424-5.482.594-.757.036-1.337.08-1.774.132a7.237,7.237,0,0,0-1.071.192,3.417,3.417,0,0,1-.763.118c-.307.018-.6.026-.868.026a16.133,16.133,0,0,0-1.826.108c.037-.416.094-.852.162-1.282a14.058,14.058,0,0,0,.374-1.385,7.03,7.03,0,0,1,.347-1.133c.178-.427.429-1.172.746-2.228q.467-1.548.648-2.141c.124-.4.29-1.024.484-1.813a4.57,4.57,0,0,0,.284-1.035,3.641,3.641,0,0,1,.259-.9c.122-.258.32-.663.6-1.212a.37.37,0,0,0,.033-.114,4.232,4.232,0,0,0-.09-1.669,1.974,1.974,0,0,0-.877-1.124,1.407,1.407,0,0,0-1.207-.237,3.027,3.027,0,0,0-.947.61,1.448,1.448,0,0,0-.379,1.515,3.018,3.018,0,0,1-.187.834,1.015,1.015,0,0,0-.116.72,2.939,2.939,0,0,1-.044.829q-.259.875-.361,1.182a2.782,2.782,0,0,0-.077,1.035,3.647,3.647,0,0,0-.3.976,1.339,1.339,0,0,1-.186.541,2.87,2.87,0,0,0-.327,1.077c-.264.427-.445.732-.548.918a1.473,1.473,0,0,0-.2.707,3.787,3.787,0,0,1-.177.829,3.613,3.613,0,0,0-.7,1.662,12.5,12.5,0,0,0-.778,1.716,2.043,2.043,0,0,0,.159,1.466c-.371.024-.683.048-.943.072q-.529.05-1.083.149a1.9,1.9,0,0,0-.907.017,1.3,1.3,0,0,1-.6.024,2.631,2.631,0,0,0-.778-.059l-.89.079h-.043a51.97,51.97,0,0,0-5.816,1.116,13.309,13.309,0,0,0-2.3,0,5.6,5.6,0,0,0-2.261-.049,8.4,8.4,0,0,0-2,.086,2.232,2.232,0,0,0-1.075.582,1.285,1.285,0,0,0-.438,1.014,2.653,2.653,0,0,0,.469,1.171,1.775,1.775,0,0,0,1.163.879,1.6,1.6,0,0,0,.285.024,4.665,4.665,0,0,0,1.6-.389c.9-.2,1.557-.334,1.885-.387l.809-.125c.532,0,.947-.009,1.248-.027l.912-.053c.377-.019,5.415-1.248,5.457-1.26a3.781,3.781,0,0,1,1.7.009,3.67,3.67,0,0,0,1.442-.265,3.923,3.923,0,0,1,.861,0,1.78,1.78,0,0,0,.93-.126,2.455,2.455,0,0,1,1.028-.08.368.368,0,0,0,.224-.067.581.581,0,0,1,.386-.162,2.758,2.758,0,0,0,.746.15,4.127,4.127,0,0,0,.827-.028,7.064,7.064,0,0,0,1.062-.252,2.586,2.586,0,0,0,1.076-.129.707.707,0,0,1,.253-.059h.01a.926.926,0,0,0,.771.179c.206-.035.505-.077.9-.128s.789-.109,1.2-.177a2.072,2.072,0,0,0,.819-.044,9.791,9.791,0,0,1,1.246-.111,2.717,2.717,0,0,0,1.547-.16,6.189,6.189,0,0,0,1.5-.208h1.045c.359,0,.718-.017,1.079-.053a32.11,32.11,0,0,1,3.87-.261c.887-.1,1.759-.17,2.6-.205.527-.035.966-.081,1.311-.135a5.747,5.747,0,0,1,.862-.074,12.126,12.126,0,0,0,1.4-.117,1.758,1.758,0,0,1,.877-.107,3.492,3.492,0,0,0,1.512-.045c.326-.077,1.318-.312,1.431-1.027a1.8,1.8,0,0,0-.486-1.381,2.4,2.4,0,0,0-1.079-.865" transform="translate(-272.367 1.842)" fill="#f4ffc4" stroke="#f4ffc4" stroke-linejoin="round" stroke-width="0.4"/>
          <path id="パス_6518" data-name="パス 6518" d="M477.822,11.418a2.237,2.237,0,0,1,.859-.091.873.873,0,0,1,.477.16,2.256,2.256,0,0,0,.962.473,3.31,3.31,0,0,1,.966.688,1.955,1.955,0,0,0,.873.6,2.76,2.76,0,0,1,.339.6,4.188,4.188,0,0,0,.641,1.038.707.707,0,0,1,.248.575,2.018,2.018,0,0,0,.431,1.214,1.5,1.5,0,0,0,1.17.656c.042,0,.083,0,.124,0a2.54,2.54,0,0,0,1.081-.242c.634-.3.637-1.265.585-1.966a.327.327,0,0,0-.025-.1c-.521-1.243-.92-2.128-1.191-2.63a6.391,6.391,0,0,0-1.1-1.456A16.506,16.506,0,0,0,481.775,9.1a.5.5,0,0,0-.085-.042c-.443-.135-.961-.322-1.538-.561a4.612,4.612,0,0,0-4.161.21,1.727,1.727,0,0,0-.533,1.057,1.81,1.81,0,0,0,.433,1.463c.291.369.87.7,1.93.192" transform="translate(-266.311 0.986)" fill="#f4ffc4" stroke="#f4ffc4" stroke-linejoin="round" stroke-width="0.4"/>
          <path id="パス_6519" data-name="パス 6519" d="M505.636,21.155a1.753,1.753,0,0,0-.975-.081c-.188.052-.506.128-.992.243-1.315.48-2.339.876-3.046,1.173s-1.316.543-1.868.748-1.218.452-1.981.727-1.691.663-2.717,1.129a17.266,17.266,0,0,1-2.1.85,12.406,12.406,0,0,0-1.665.775,9.364,9.364,0,0,1-1.413.652,11.155,11.155,0,0,0-1.929.985,14.639,14.639,0,0,1-2.156,1,1.122,1.122,0,0,0-.89.469c0,.006-.1.156-.78.381a18.654,18.654,0,0,0-2.425,1.3q-1.5.914-2.284,1.437t-1.5,1.048a5.1,5.1,0,0,0-1.44,2.059c-.715,1.624-.219,2.266.322,2.517a10.587,10.587,0,0,0,1.381.565,1.056,1.056,0,0,0,.3.04,2.579,2.579,0,0,0,1.253-.437c.878-.52.937-1.049.83-1.4a4.743,4.743,0,0,0-.362-.867c.1-.093.2-.192.292-.293a6.2,6.2,0,0,1,.689-.61q.521-.414,1.225-.959a6.222,6.222,0,0,1,1.561-.861.34.34,0,0,0,.14-.1A1.937,1.937,0,0,1,483.96,33a3.747,3.747,0,0,0,1.033-.516,2.7,2.7,0,0,1,.671-.37,1.2,1.2,0,0,0,.629-.5,1.885,1.885,0,0,0,.736-.427,6.319,6.319,0,0,0,1.761-.812,5.977,5.977,0,0,1,1.134-.661c.444-.205.811-.394,1.094-.561.382.017.867-.013,1.082-.338a1.094,1.094,0,0,1,.36-.312.949.949,0,0,1,.483-.136,1.512,1.512,0,0,0,1-.513c.638-.236,1.264-.471,1.888-.713a7.858,7.858,0,0,1,1.2-.423,4.466,4.466,0,0,0,1.35-.612,3.97,3.97,0,0,1,1.5-.444,1.456,1.456,0,0,0,.944-.174,6.688,6.688,0,0,0,.673-.458,1.307,1.307,0,0,0,.944-.02,3,3,0,0,1,.636-.211,5.653,5.653,0,0,0,1.058-.388,7.756,7.756,0,0,0,1.167-.159,2.242,2.242,0,0,0,1.051-.636,1.654,1.654,0,0,0,.568-1.02,1.153,1.153,0,0,0-.36-.911,2.24,2.24,0,0,0-.921-.525" transform="translate(-266.352 2.559)" fill="#f4ffc4" stroke="#f4ffc4" stroke-linejoin="round" stroke-width="0.4"/>
          <path id="パス_6520" data-name="パス 6520" d="M476.4,21.738c.7.313,1.614.658,2.722,1.025a27.472,27.472,0,0,1,3.5,1.473,4.063,4.063,0,0,0,1.6.338,1.758,1.758,0,0,0,1.408-.612,1.283,1.283,0,0,0,.322-1.284,2.237,2.237,0,0,0-.732-1.009,1.9,1.9,0,0,0-.855-.492c-.127-.016-.372-.07-.739-.16a5.019,5.019,0,0,0-1.3-.661,3.47,3.47,0,0,0-1.07-.1,3.963,3.963,0,0,0-.759-.428.325.325,0,0,0-.121-.03,1.648,1.648,0,0,1-.992-.3,2.083,2.083,0,0,0-.758-.49c-.17-.049-.434-.125-.794-.223a2.162,2.162,0,0,0-1.437-.36,1.473,1.473,0,0,0-1.133.648,2.4,2.4,0,0,0-.363.97,1.273,1.273,0,0,0,.312,1.012,2.6,2.6,0,0,0,1.192.686" transform="translate(-266.381 2.239)" fill="#f4ffc4" stroke="#f4ffc4" stroke-linejoin="round" stroke-width="0.4"/>
          <path id="パス_6521" data-name="パス 6521" d="M540.194,22.8a7.3,7.3,0,0,0,.465-.979,4.522,4.522,0,0,0,.178-1.473,2.249,2.249,0,0,0,.1-.958,4.926,4.926,0,0,0-.521-1.3.991.991,0,0,0-.4-.833,3.407,3.407,0,0,0-1.617-1.412,4.623,4.623,0,0,0-.706-.28,7.065,7.065,0,0,0-.823-.192,2.637,2.637,0,0,1-.652-.184,5.2,5.2,0,0,0-1.492-.26,19.7,19.7,0,0,0-3.166.05c-1.061.083-2.078.177-3.035.283.147-.223.276-.421.391-.592l.617-.92c.426-.566.852-1.175,1.268-1.811a17.453,17.453,0,0,1,1.073-1.5,5.862,5.862,0,0,1,.712-.759,1.484,1.484,0,0,0,.475-.719q.284-.241.568-.524a1.38,1.38,0,0,0,.436-.889,3.554,3.554,0,0,0-.11-1.035,1.118,1.118,0,0,0-.734-.925,2.475,2.475,0,0,0-1.885.167.34.34,0,0,0-.1.064,4.443,4.443,0,0,0-.99,1.354,1.457,1.457,0,0,1-.251.292.766.766,0,0,0-.455.6,2.83,2.83,0,0,1-.362.72,1.1,1.1,0,0,0-.566.96,1.967,1.967,0,0,1-.382.626,1.251,1.251,0,0,0-.432.63.883.883,0,0,1-.347.4.33.33,0,0,0-.123.167,8.631,8.631,0,0,1-1.232,2.169q-.89,1.218-1.317,1.846c-1.9.4-3.92.776-6.013,1.113-2.145.342-4.035.711-5.594,1.09-1.037.179-1.724.319-2.1.425a2.372,2.372,0,0,0-.858.379,1.153,1.153,0,0,1-.463.19,4.031,4.031,0,0,0-1.373.831,1.726,1.726,0,0,0-.5,1.861,1.764,1.764,0,0,0,.978,1.042,1.725,1.725,0,0,0,1.132.058,2.773,2.773,0,0,0,.836-.416,3.168,3.168,0,0,0,.677-.743,2.053,2.053,0,0,1,.716-.369l1.672-.416c.547-.137,1.129-.288,1.743-.459a1.753,1.753,0,0,0,.918-.288A.523.523,0,0,1,517,19.8a.34.34,0,0,0,.189,0,2.79,2.79,0,0,1,.929-.116c.519.028.828-.108.916-.377a.2.2,0,0,1,.095-.013h.628a3.115,3.115,0,0,0,1-.238,1.907,1.907,0,0,0,1.06-.062,4.725,4.725,0,0,1,.713-.147,6.889,6.889,0,0,0-.7,1.054,1.376,1.376,0,0,0-.451.76.38.38,0,0,1-.162.215,1.637,1.637,0,0,0-.456.527.453.453,0,0,1-.215.188,1.656,1.656,0,0,0-.674.905c-.179.356-.325.435-.381.454-.32.108-.541.424-.677.963a14.646,14.646,0,0,1-1.144,1.5c-.484.569-.969,1.109-1.467,1.645a6.384,6.384,0,0,0-.414.574,4.053,4.053,0,0,1-.386.5,1.908,1.908,0,0,1-.418.352,1.41,1.41,0,0,0-.555.675,5.237,5.237,0,0,1-.342.658,1.421,1.421,0,0,1-.376.419,1.277,1.277,0,0,0-.482.722c-.354.458-.533.544-.583.56a.73.73,0,0,0-.544.709.384.384,0,0,0,0,.065,1.015,1.015,0,0,0-.477.627,3.679,3.679,0,0,1-.49.815,1.714,1.714,0,0,0-.891.734q-.277.453-.5.754a4.024,4.024,0,0,1-.505.551,5.869,5.869,0,0,0-.753.885l-.653.909a2.022,2.022,0,0,0-.374.935,2.892,2.892,0,0,0,.059,1,1.328,1.328,0,0,0,.882.941,2.315,2.315,0,0,0,.873.187,1.715,1.715,0,0,0,.373-.042,1.743,1.743,0,0,0,.87-.427,3.344,3.344,0,0,0,.527-.723.956.956,0,0,0,.078-.886c.544-.837,1.035-1.656,1.444-2.41,1.589-2.234,2.649-3.68,3.147-4.3.478-.591.872-1.072,1.219-1.5a10.771,10.771,0,0,0,.974-1.216c.126-.205.485-.67,1.1-1.419s1.506-1.836,2.692-3.273,2.185-2.761,2.971-3.923a25.909,25.909,0,0,1,1.583-2.179,11.2,11.2,0,0,0,1.9-.324.886.886,0,0,0,.766-.1.645.645,0,0,1,.469-.065,3.552,3.552,0,0,0,.9.058c.282-.018.864-.08,1.664-.184a8.72,8.72,0,0,0,2.234.013,1.053,1.053,0,0,0,1,.037c.02-.015.078-.052.246.025a4.975,4.975,0,0,0,.957.307,4.246,4.246,0,0,1,.989.721,1.622,1.622,0,0,1,.527.776,3.144,3.144,0,0,1,0,.938,7.715,7.715,0,0,1-.174.943,1.77,1.77,0,0,1-.237.545c-.126.177-.348.529-.654,1.039a1.918,1.918,0,0,1-.488.55,1.3,1.3,0,0,0-.538.654,2.578,2.578,0,0,1-.387.608,1.237,1.237,0,0,0-.521.953,2.678,2.678,0,0,0-.8.8.812.812,0,0,1-.344.354,1.421,1.421,0,0,0-.616.542,2,2,0,0,1-.359.424c-.162.145-.307.278-.43.4a1.523,1.523,0,0,1-.347.257,1.317,1.317,0,0,0-.539.689c-.032.077-.061.111-.073.111h0a.646.646,0,0,0-.818.417.459.459,0,0,1-.174.246,8.857,8.857,0,0,0-.75.559c-.247.176-.51.367-.79.575a4.569,4.569,0,0,1-.679.436l-1.167.58c-.25.142-.533.321-.855.532a4.4,4.4,0,0,1-1.044.492c-.3.125-.47.126-.526.092s-.1-.156-.1-.408a.325.325,0,0,0-.026-.13,2.334,2.334,0,0,1-.184-1.116c.035-.442.054-.875.054-1.3a5.777,5.777,0,0,1,.123-1.179,5.5,5.5,0,0,0,.138-1.082,6.342,6.342,0,0,1,.157-1.117,2.022,2.022,0,0,0-.395-1.363,1.6,1.6,0,0,0-.9-.553,2.444,2.444,0,0,0-.938,0c-.4.075-.732.431-1.006,1.085a4.511,4.511,0,0,0-.263,2.147c.035.757.053,1.5.054,2.187a12.118,12.118,0,0,0,0,2.271,7.676,7.676,0,0,0,.708,2.474.363.363,0,0,0,.074.1,2.9,2.9,0,0,0,1.932.923,8.641,8.641,0,0,0,1.576-.136,7.372,7.372,0,0,0,2.175-.977,19.761,19.761,0,0,0,2.167-1.446,41.027,41.027,0,0,0,5.191-4.222,31.361,31.361,0,0,0,2.667-3.074c.69-.926,1.293-1.789,1.8-2.573q.315-.527.605-1.051" transform="translate(-262.228 0.665)" fill="#f4ffc4" stroke="#f4ffc4" stroke-linejoin="round" stroke-width="0.4"/>
          <path id="パス_6522" data-name="パス 6522" d="M552.556,11.334a2.733,2.733,0,0,0-1.252.118,1.1,1.1,0,0,0-.805,1.031c-.018.366-.044.962-.066,1.719-.292,1.032-.5,1.822-.609,2.349a1.546,1.546,0,0,0-.6.944,6.422,6.422,0,0,1-.124.665.5.5,0,0,1-.205.3c-.266.185-.4.555-.406,1.161-.3.619-.687,1.376-1.188,2.307s-.98,1.76-1.425,2.477q-.651,1.045-1.06,1.659a1.533,1.533,0,0,0-.524.868,1.821,1.821,0,0,0-.6.789,1.384,1.384,0,0,0-.779.978,1.98,1.98,0,0,1-.409.356,1.909,1.909,0,0,0-.642.828,2.724,2.724,0,0,0-.445.457,2.431,2.431,0,0,0-.288.686,1.254,1.254,0,0,0-.7.543c-.1.184-.193.342-.277.477a2.875,2.875,0,0,1-.466.5,5.592,5.592,0,0,0-.78.913,2.258,2.258,0,0,1-.609.635,2.008,2.008,0,0,0-.688.818,1.585,1.585,0,0,0-.919.919,2,2,0,0,0-1,1.145,1.612,1.612,0,0,0-.78,1.31c-.112.916.29,1.29.647,1.441a2.83,2.83,0,0,0,1.121.239c.042,0,.083,0,.125,0a3.7,3.7,0,0,0,1.716-.759.372.372,0,0,0,.091-.092c.338-.508.657-.944.947-1.3a11.621,11.621,0,0,0,.924-1.336c1.4-1.879,2.569-3.519,3.483-4.872s1.691-2.475,2.318-3.341,1.23-1.785,1.792-2.728c.55-.921.969-1.6,1.249-2.019q.367-.574.893-1.436a17.9,17.9,0,0,0,1.112-2.237,14.2,14.2,0,0,1,1.173-2.031.332.332,0,0,0,.061-.17c.026-.366.121-.6.282-.7a1.23,1.23,0,0,0,.605-.955,1.874,1.874,0,0,1,.5-.912.331.331,0,0,0,.078-.186q.1-1.179.18-1.695a1.423,1.423,0,0,0-.461-1.25,2.088,2.088,0,0,0-1.185-.615" transform="translate(-258.726 1.376)" fill="#f4ffc4" stroke="#f4ffc4" stroke-linejoin="round" stroke-width="0.4"/>
          <path id="パス_6523" data-name="パス 6523" d="M580.258,22.584l-1.018.311a4.865,4.865,0,0,0-1.825.953,6.78,6.78,0,0,1-.963.74c-.241.136-.541.3-.9.488a1.148,1.148,0,0,0-.663.776c-.274.063-.54.133-.8.214a1.848,1.848,0,0,0-.985.821c-.27.091-.475.168-.619.232a1.7,1.7,0,0,0-.6.485.464.464,0,0,1-.266.19c-.184.018-.484.13-1.388.8-1.242.707-1.99,1.143-2.289,1.336a2.876,2.876,0,0,1-.843.372,2.229,2.229,0,0,0-.93.5c-.58.089-.91.234-1.055.455-.006,0-.135.112-.849.158a4.409,4.409,0,0,0-1.072.416,9.781,9.781,0,0,0-1.559.343,7.431,7.431,0,0,1-3.19.174,2,2,0,0,1-.85-.354,1.021,1.021,0,0,1-.4-.5.805.805,0,0,1,.042-.536,1.072,1.072,0,0,0,.012-.834,3.569,3.569,0,0,0,.323-1.3.877.877,0,0,0,.281-.854,2.052,2.052,0,0,1,.095-.833.753.753,0,0,0,.384-.726,2.806,2.806,0,0,1,.129-.808.861.861,0,0,0,.473-.826,2.088,2.088,0,0,1,.113-.72,2.775,2.775,0,0,1,.279-.58.755.755,0,0,0,.072-.7,2.09,2.09,0,0,0,.741-1.621c.267-.6.542-1.183.825-1.764.3-.607.7-1.531,1.165-2.707.392-.673.628-1.1.719-1.3.081-.177.3-.561.61-1.1a4.418,4.418,0,0,0,.873-1.607,1.474,1.474,0,0,0-.375-1.492,2.286,2.286,0,0,0-1.525-.618.5.5,0,0,0-.122.016,2.215,2.215,0,0,0-1.461,1.064,8.257,8.257,0,0,0-.459,1.278,2.287,2.287,0,0,0-.355,1.018.943.943,0,0,1-.245.5,1.594,1.594,0,0,0-.381.956,2.8,2.8,0,0,1-.449,1.049q-.995,2.6-1.987,5.331c-.663,1.824-1.166,3.262-1.493,4.275a25.349,25.349,0,0,0-.822,3.345,6.4,6.4,0,0,0,.312,3.516,3.525,3.525,0,0,0,2.009,1.7c.605.138,1.035.24,1.295.31a7.756,7.756,0,0,0,1.421.166,7.9,7.9,0,0,0,1.474-.135c.457-.087.975-.212,1.544-.37s1.285-.375,2.177-.653a14.853,14.853,0,0,0,2.573-1.079,1.758,1.758,0,0,0,.973-.348,2.154,2.154,0,0,1,.651-.339,1.1,1.1,0,0,0,.656-.494,2.306,2.306,0,0,0,.989-.381,1.755,1.755,0,0,1,.628-.268,1.937,1.937,0,0,0,.96-.594,3.313,3.313,0,0,0,.958-.354,7.063,7.063,0,0,1,.819-.418c.387-.176.861-.4,1.422-.682l.837-.415c.288-.142.548-.287.784-.431a4.463,4.463,0,0,1,.68-.338,1.966,1.966,0,0,0,.728-.5q.746-.3,1.151-.5a7.267,7.267,0,0,0,1.024-.64c.894-.565,1.3-1.122,1.225-1.7a2.616,2.616,0,0,0-.568-1.34c-.372-.461-.748-.639-1.119-.527" transform="translate(-256.218 1.285)" fill="#f4ffc4" stroke="#f4ffc4" stroke-linejoin="round" stroke-width="0.4"/>
          <path id="パス_6524" data-name="パス 6524" d="M621.471,38.546a1.28,1.28,0,0,0-.81-.731c-.284-.089-.823-.219-1.682-.4-3.437-.38-6.614-.668-9.445-.859s-6.464-.218-10.771-.079a56.894,56.894,0,0,0-8.761.71,13.1,13.1,0,0,0-3.252,1.048.28.28,0,0,0-.074.057,1.563,1.563,0,0,0-.383,2.137,1.864,1.864,0,0,0,1.65.846,2.99,2.99,0,0,0,.421-.031,2.632,2.632,0,0,0,.957-.426,3.939,3.939,0,0,1,.765-.422q.563-.256,1.125-.459a.324.324,0,0,0,.123-.079l.45-.446a3.049,3.049,0,0,0,1.857-.291c.627-.034,1.07-.068,1.316-.1a.82.82,0,0,1,.465.05c.289.132.689.067,1.3-.21q1.575-.15,2.6-.229c.69-.05,1.771-.076,3.172-.079a13.207,13.207,0,0,0,1.61.107h2.188a6.146,6.146,0,0,0,1.638.257,3.9,3.9,0,0,0,1.583-.094,3.751,3.751,0,0,1,.9.222,1.781,1.781,0,0,0,1.155.006c.575.358,1,.457,1.323.306a.222.222,0,0,1,.27.031,1.3,1.3,0,0,0,1.165.132,2.179,2.179,0,0,0,1,.386c.326.033.739.05,1.23.053a2.716,2.716,0,0,0,1.031.339.6.6,0,0,1,.441.243,1.63,1.63,0,0,0,1.316.451,1.705,1.705,0,0,0,1.338-.11,6.431,6.431,0,0,0,.692-.606,1.006,1.006,0,0,0,.373-.976,5.446,5.446,0,0,0-.279-.748" transform="translate(-252.202 4.425)" fill="#f4ffc4" stroke="#f4ffc4" stroke-linejoin="round" stroke-width="0.4"/>
          <path id="パス_6525" data-name="パス 6525" d="M613.323,16.854a1.34,1.34,0,0,0-.234-1.033,2.376,2.376,0,0,0-.881-.76,4.17,4.17,0,0,0-1.338-.4q-.754-.108-1.823-.159c-.757,0-2,.027-3.693.079s-2.811.094-3.3.132q-.749.1-1.262.2a2.871,2.871,0,0,0-1.6.169c-.533.066-.958.117-1.28.151a15.166,15.166,0,0,0-1.785.361,6.787,6.787,0,0,0-1.952.384,2.242,2.242,0,0,0-1.395,1.3,1.81,1.81,0,0,0,.18,1.273,2.289,2.289,0,0,0,1.186.783,2.184,2.184,0,0,0,.742.153.938.938,0,0,0,.722-.292,3.645,3.645,0,0,1,.925-.646,8.858,8.858,0,0,1,2.648-.707c1.435-.255,2.933-.472,4.446-.646a19.82,19.82,0,0,1,4.627.067c.079.8.481,1.07.824,1.149a3.22,3.22,0,0,0,1.346,0,10.526,10.526,0,0,1,1.138-.177,2.493,2.493,0,0,0,1.174-.409,1.973,1.973,0,0,0,.589-.977" transform="translate(-251.345 1.765)" fill="#f4ffc4" stroke="#f4ffc4" stroke-linejoin="round" stroke-width="0.4"/>
          <path id="パス_6526" data-name="パス 6526" d="M593.083,34.492a7.674,7.674,0,0,0,1.146,2.081,2.069,2.069,0,0,0,1.308.489,1.832,1.832,0,0,0,1.242-.474,1.4,1.4,0,0,0,.506-1.219,1.073,1.073,0,0,0-.655-.981,2.031,2.031,0,0,1-.6-.395,3.3,3.3,0,0,1-.4-.741,4.168,4.168,0,0,1-.374-1.315,3.288,3.288,0,0,0,0-1.6,14.519,14.519,0,0,0,.307-1.948,3.231,3.231,0,0,1,.338-.983.308.308,0,0,0,.027-.1,2.367,2.367,0,0,1,.2-.751,3.45,3.45,0,0,0,.258-1.23,8.853,8.853,0,0,1,.477-1.35,17.258,17.258,0,0,1,.876-1.7,2.853,2.853,0,0,0,.709-1.29,1.362,1.362,0,0,0-.271-1.389,1.946,1.946,0,0,0-1.415-.461,1.413,1.413,0,0,0-1.408.88c-.2.454-.382.952-.558,1.479h0a31.9,31.9,0,0,0-1.163,4.284c-.172,1.014-.356,1.953-.545,2.79-.193.854-.354,1.791-.476,2.787a6.037,6.037,0,0,0,.468,3.135" transform="translate(-251.366 2.328)" fill="#f4ffc4" stroke="#f4ffc4" stroke-linejoin="round" stroke-width="0.4"/>
          <path id="パス_6527" data-name="パス 6527" d="M588,23.177a2.523,2.523,0,0,0,.374.028,1.215,1.215,0,0,0,1.175-.619,1.463,1.463,0,0,0,.118-1.274,1.3,1.3,0,0,0-.679-.752c-.021-.01-.22-.124-.637-.935a2.87,2.87,0,0,1,.026-1.282,2.671,2.671,0,0,0,.247-1.358,9.007,9.007,0,0,0,.247-1.232,9.079,9.079,0,0,0,.824-1.947c.167-.271.311-.524.432-.762a2.774,2.774,0,0,0,.235-.681.988.988,0,0,0,.465-.617,3.005,3.005,0,0,1,.284-.66,13.893,13.893,0,0,1,1.028-1.335,2.3,2.3,0,0,0,.724-.423,1.209,1.209,0,0,0,.294-1.293,1.832,1.832,0,0,0-.8-1.2,1.581,1.581,0,0,0-1.319-.194,2.357,2.357,0,0,0-1.207.915,28.443,28.443,0,0,0-2.227,4.217,31.49,31.49,0,0,0-1.793,5.516,9.628,9.628,0,0,0-.215,2.774,4.2,4.2,0,0,0,.839,2.211,2.144,2.144,0,0,0,1.566.9" transform="translate(-252.26 0.801)" fill="#f4ffc4" stroke="#f4ffc4" stroke-linejoin="round" stroke-width="0.4"/>
          <path id="パス_6528" data-name="パス 6528" d="M610.8,25.4a2.821,2.821,0,0,0,.125-1.031,1.849,1.849,0,0,0,.144-1.267,3.481,3.481,0,0,0-.726-1.938,3.413,3.413,0,0,0-1.591-1.039,5.839,5.839,0,0,0-2.231-.2,14,14,0,0,0-2.732.186,16.748,16.748,0,0,0-2.667.61,8.886,8.886,0,0,0-1.7.714,2.169,2.169,0,0,0-.769.806,2.538,2.538,0,0,0-.244,1.016c-.018.345.117.822.858,1.133a1.687,1.687,0,0,0,1.31.129,4.853,4.853,0,0,0,.7-.362,8.23,8.23,0,0,1,.881-.451,1.6,1.6,0,0,0,1.126-.575,1.1,1.1,0,0,0,.976-.267.7.7,0,0,1,.519-.187c.323,0,.617-.009.885-.027a9.065,9.065,0,0,1,1.9.045.845.845,0,0,1,.469.26,1.765,1.765,0,0,1,.333.763,19.315,19.315,0,0,1-.442,3.371l-.007.037a1.3,1.3,0,0,0-.049-.15,2.4,2.4,0,0,0-.731-1.025,3.55,3.55,0,0,0-1.267-.607.333.333,0,0,0-.094-.013c-.617,0-1.062-.008-1.339-.027a14.661,14.661,0,0,0-1.885.133,11.823,11.823,0,0,0-2.13.377,15.013,15.013,0,0,1-1.483.381,5.744,5.744,0,0,0-1.479.5,1.457,1.457,0,0,0-1.19,1.491,1.493,1.493,0,0,0,1.347,1.644,1.271,1.271,0,0,0,1.185.029,1.381,1.381,0,0,0,.684-.757.737.737,0,0,1,.466-.374,3.825,3.825,0,0,1,1.668-.472,3.241,3.241,0,0,0,1.483-.224c.2.017.4.036.6.059-.08.072-.167.148-.26.225a9.1,9.1,0,0,1-.907.676,1.824,1.824,0,0,0-.667.714,2.3,2.3,0,0,1-.69.141,1.641,1.641,0,0,0-1.074.566,3.731,3.731,0,0,0-1.313.793c-.341.238-.6.406-.762.507s-.459.253-.868.455a.347.347,0,0,0-.088.064,1.557,1.557,0,0,0-.534,1.477,3.015,3.015,0,0,0,.613,1.257,2.645,2.645,0,0,0,1.55.845.4.4,0,0,0,.089.008,15.824,15.824,0,0,0,1.66-.133,6.015,6.015,0,0,1,1.237-.024,12.789,12.789,0,0,0,1.5-.253,4.592,4.592,0,0,0,1.5-.016c.123-.033.269-.07.438-.11-.036.111-.069.22-.095.326-.1.412.108.841.633,1.275a1.765,1.765,0,0,0,1.069.5.9.9,0,0,0,.274-.044,3.411,3.411,0,0,0,1.019-.6.356.356,0,0,0,.071-.077,3.833,3.833,0,0,0,.458-.859c.059-.176.153-.44.29-.791l.519-.082c.8-.209,1.237-.518,1.341-.95a1.244,1.244,0,0,0-.247-1.09,1.722,1.722,0,0,0-.724-.577,1.6,1.6,0,0,0-.287-.071,2.426,2.426,0,0,0,.132-.939,1.376,1.376,0,0,0,.208-1.064,1.118,1.118,0,0,1,.237-.5c.312-.271.205-.732.1-1.014a2.661,2.661,0,0,0,.373-.943c.1-.931.209-1.74.3-2.383m-4.185,7.028q-2.011.246-3.5.469c-.5.074-.965.122-1.39.145.6-.354,1.123-.684,1.578-.988.691-.465,1.425-.935,2.182-1.4a3.018,3.018,0,0,0,1.371-1.311,2.608,2.608,0,0,0,.824-.979,41.753,41.753,0,0,1-1.062,4.06" transform="translate(-250.895 2.421)" fill="#f4ffc4" stroke="#f4ffc4" stroke-linejoin="round" stroke-width="0.4"/>
          <path id="パス_6529" data-name="パス 6529" d="M619.718,10.369a21.055,21.055,0,0,0-3-.845,18.974,18.974,0,0,0-3-.344c-.616-.035-1.678-.052-3.155-.052-1.339,0-2.716.056-4.1.168a2.459,2.459,0,0,1,.214-.468,3.887,3.887,0,0,0,.4-.883,3.075,3.075,0,0,0,.118-.847,5.293,5.293,0,0,1,.1-.9c.069-.371.129-.66.18-.863a2.289,2.289,0,0,0,.039-.792,2.5,2.5,0,0,0-.1-1.181c-.122-.394-.232-.787-.336-1.182a1.744,1.744,0,0,0-1.1-1.154,4.172,4.172,0,0,0-1.2.048.318.318,0,0,0-.126.043,2.318,2.318,0,0,0-.734.667,1.726,1.726,0,0,0-.348.872,1.841,1.841,0,0,0,.363,1.086,2.468,2.468,0,0,1,.239,1.394,9.051,9.051,0,0,1,0,1.875,3.9,3.9,0,0,1-.512,1.211,11.5,11.5,0,0,0-.831,1.387l-1.037.083a1.308,1.308,0,0,0-1.266.164,1.974,1.974,0,0,0-1.04.21s-.133.071-.652-.047a.337.337,0,0,0-.208.018,11.453,11.453,0,0,1-1.571.555q-.626.156-1.487.363c-.576.139-1.2.295-1.874.473a6.1,6.1,0,0,0-1.355.606,1.7,1.7,0,0,0-.839,1.343,1.767,1.767,0,0,0,.716,1.592c.211.178.851.718,1.415.434a3.741,3.741,0,0,0,.744-.483c.2-.164.476-.375.834-.635.346-.125.618-.211.807-.259a6.391,6.391,0,0,0,.636-.192,6.664,6.664,0,0,0,.928-.47,5.748,5.748,0,0,0,1.008-.4A3.611,3.611,0,0,0,600,12.541a37.777,37.777,0,0,1,6.127-.923,37.087,37.087,0,0,1,7.207-.105,40.268,40.268,0,0,1,4.063.719,5.855,5.855,0,0,1,2.148,1.133.34.34,0,0,0,.072.045,1.279,1.279,0,0,1,.665.684.587.587,0,0,1-.088.713,10.22,10.22,0,0,1-2.446,2.238c-1.435,1.092-2.388,1.8-2.916,2.176s-1.121.759-1.731,1.129a.372.372,0,0,0-.115.114,2.251,2.251,0,0,0-.407,1.561,1.5,1.5,0,0,0,.765,1.06,1.5,1.5,0,0,0,1.3.13,2.223,2.223,0,0,0,.981-.644,4.934,4.934,0,0,1,.488-.5,10.553,10.553,0,0,0,.973-.62,2.671,2.671,0,0,0,.686-.848,5.061,5.061,0,0,1,.793-.518,1.347,1.347,0,0,0,.629-.616.449.449,0,0,1,.321-.246,1.342,1.342,0,0,0,.788-.516,2.981,2.981,0,0,0,1.085-.992,5.377,5.377,0,0,1,.787-.88,3.688,3.688,0,0,0,.891-1.376,3.648,3.648,0,0,0-.692-3.192,5.91,5.91,0,0,0-2.658-1.9" transform="translate(-251.504 0.122)" fill="#f4ffc4" stroke="#f4ffc4" stroke-linejoin="round" stroke-width="0.4"/>
          <path id="パス_6530" data-name="パス 6530" d="M641.159,39.105a2.459,2.459,0,0,0-1.2-.709.617.617,0,0,1-.365-.147,1.213,1.213,0,0,0-.9-.32.824.824,0,0,1-.136-.386,1.854,1.854,0,0,0-.4-.893,5.948,5.948,0,0,0-.153-1.814,3.61,3.61,0,0,1-.023-1.712,6.574,6.574,0,0,0,.109-1.178V30.923a2.476,2.476,0,0,0,.29-.827,1.885,1.885,0,0,0,.908-1.237,1.6,1.6,0,0,0-.186-1.207,1.461,1.461,0,0,0-.94-.581,2.541,2.541,0,0,0-1.088,0,2.01,2.01,0,0,0-1.065.765,3.5,3.5,0,0,0-.552,1.665,16.031,16.031,0,0,1-.236,1.672c-.07,1.1-.1,2.313-.1,3.607a12.069,12.069,0,0,0,.537,3.661,3.912,3.912,0,0,0,2.471,2.512,7.314,7.314,0,0,0,1.508.745,1.7,1.7,0,0,0,.537.1.933.933,0,0,0,.743-.329c.2-.234.362-.441.489-.621.2-.282.156-.762-.141-1.6a.344.344,0,0,0-.091-.138" transform="translate(-245.94 3.286)" fill="#f4ffc4" stroke="#f4ffc4" stroke-linejoin="round" stroke-width="0.4"/>
          <path id="パス_6531" data-name="パス 6531" d="M666.839,15.856a.161.161,0,0,0-.011-.027,4.292,4.292,0,0,0-1.584-1.966,6.972,6.972,0,0,0-1.538-.575c-.511-.121-1.226-.267-2.186-.445a27.379,27.379,0,0,0-2.864-.369c-3.207-.173-6.066-.206-8.5-.1-.2.008-.406.018-.618.029a2.027,2.027,0,0,0,.848-.832,2.111,2.111,0,0,0,.72-1.2,4.577,4.577,0,0,0-.011-1.233,1.64,1.64,0,0,0,.2-.739,1.172,1.172,0,0,1,.08-.448.959.959,0,0,0,.029-.711,1.523,1.523,0,0,1,.028-.6,4.917,4.917,0,0,0,.359-1.737,8.754,8.754,0,0,1,.077-1.4.359.359,0,0,0,0-.091,4.331,4.331,0,0,0-.371-1.243,4.876,4.876,0,0,0-.456-.758,3.432,3.432,0,0,0-.622-.575,2.26,2.26,0,0,0-1.129-.809A.332.332,0,0,0,649.18,0a5.025,5.025,0,0,0-1.308.122A1.493,1.493,0,0,0,646.856,1.3a1.434,1.434,0,0,0,.793,1.52,3.1,3.1,0,0,1,.822.506c.05.049.167.223.188.76a14.1,14.1,0,0,1-.1,1.877c-.084.774-.25,1.76-.479,2.883a6.234,6.234,0,0,1-.471,1.012,1.78,1.78,0,0,0-.228,1.234,1.3,1.3,0,0,0,.8,1.389c-2.1.147-4.592.4-7.451.746a73.072,73.072,0,0,0-9.663,1.741,6.031,6.031,0,0,0-2.358.931c-1,.606-1.424,1.2-1.307,1.8a2.916,2.916,0,0,0,.451,1.172.332.332,0,0,0,.122.105,4.959,4.959,0,0,0,1.27.473,3.054,3.054,0,0,0,.5.037,6.061,6.061,0,0,0,.824-.062,2.465,2.465,0,0,0,1.062-.445,2.117,2.117,0,0,0,.794-1.191,1.851,1.851,0,0,0,.9-.665,1.3,1.3,0,0,0,1.128-.212c.006-.006.148-.135.967-.136,1.056-.1,1.326-.221,1.422-.375a3.192,3.192,0,0,1,.84-.3,7.078,7.078,0,0,0,1.433-.164.327.327,0,0,0,.1-.036.8.8,0,0,1,.594-.068,1.252,1.252,0,0,0,1.039-.208,15.085,15.085,0,0,0,2.3-.442,1.014,1.014,0,0,0,.981-.1c.064-.044.275-.129.9.025a.3.3,0,0,0,.158,0c.461-.105.858-.214,1.18-.321a1.459,1.459,0,0,1,.849.006.311.311,0,0,0,.16,0,9.015,9.015,0,0,1,2.291-.2,4.034,4.034,0,0,0,1.689-.13,1.285,1.285,0,0,1,.846.108.963.963,0,0,0,.945-.043,1.939,1.939,0,0,1,.8-.091,4.325,4.325,0,0,0,1.752.282,7.406,7.406,0,0,1,1.686.056,15.006,15.006,0,0,1,1.911.276.327.327,0,0,0,.114.009c.228-.028.338.016.356.046a1.17,1.17,0,0,0,.969.476c.345,0,.46.077.494.109a1.227,1.227,0,0,0,.8.3,7.445,7.445,0,0,0,.274.987,2.193,2.193,0,0,0,.495.8.366.366,0,0,0,.118.075,3.008,3.008,0,0,0,1.355.228,5.833,5.833,0,0,0,1.085-.213,2.436,2.436,0,0,0,1.128-.656,1.165,1.165,0,0,0,.368-1.356" transform="translate(-246.925 0)" fill="#f4ffc4" stroke="#f4ffc4" stroke-linejoin="round" stroke-width="0.4"/>
          <path id="パス_6532" data-name="パス 6532" d="M656.136,38.362a4.611,4.611,0,0,0-1.283-.057c-.531-.07-1.156-.123-1.855-.158-.564-.028-1.275-.08-2.121-.154a3.458,3.458,0,0,1,.32-.377c.264-.057.488-.292.743-.782a2.626,2.626,0,0,0,.838-1,9.782,9.782,0,0,1,.652-.757,2.819,2.819,0,0,0,.937-1.239,8.679,8.679,0,0,0,1.055-1.639.327.327,0,0,0,.037-.129,6.5,6.5,0,0,0-.027-1.34,2.313,2.313,0,0,0-.35-1.092,5.364,5.364,0,0,0-1.035-.929,5.12,5.12,0,0,0-2.517-.82,11,11,0,0,0-2.485-.077,4.158,4.158,0,0,1-1.253,0,2.754,2.754,0,0,0-1.39.147,4.665,4.665,0,0,0-1.749.32,11.058,11.058,0,0,0-1.811.324,5.039,5.039,0,0,0-.979.445,5.049,5.049,0,0,1-.734.366,2.641,2.641,0,0,0-.925.683,2.894,2.894,0,0,0-.442,1.642,1.354,1.354,0,0,0,1.088,1.321,1.29,1.29,0,0,0,1.223.064,1.623,1.623,0,0,0,.825-.939,1.011,1.011,0,0,1,.763-.547.349.349,0,0,0,.153-.087.766.766,0,0,1,.629-.292,2.011,2.011,0,0,0,1.028-.2,3.669,3.669,0,0,1,1.315-.238,4.862,4.862,0,0,0,1.631-.3,2.094,2.094,0,0,0,1.066-.037.5.5,0,0,1,.329-.008,1.6,1.6,0,0,0,.792,0c.052-.008.2-.019.538.2a1.152,1.152,0,0,0,1.016.139,1.062,1.062,0,0,1,.16.252,4.148,4.148,0,0,1-.987,2.244l-1.814,2.2a1.359,1.359,0,0,0-.886.573,2.388,2.388,0,0,0-1.035.849,1.841,1.841,0,0,0-.817.44,4.823,4.823,0,0,0-1.166.247,3.055,3.055,0,0,1-1.267.142,3.045,3.045,0,0,0-1.948.648.391.391,0,0,0-.076.067,1.8,1.8,0,0,0-.381,1.7,1.585,1.585,0,0,0,1.367,1.181.335.335,0,0,0,.059,0,.4.4,0,0,0,.063-.006c.9-.172,1.6-.322,2.085-.448a5.8,5.8,0,0,1,1.747-.094,15.7,15.7,0,0,0,2.706-.077,2.605,2.605,0,0,1,.857.229,1.366,1.366,0,0,0,1.226-.039,1.1,1.1,0,0,1,.242-.065c.206.452.935.33,1.3.251a3.417,3.417,0,0,0,1.378.1,4.755,4.755,0,0,0,1.008-.011,1.51,1.51,0,0,0,.973-.726,1.4,1.4,0,0,0,.1-1.288,1.273,1.273,0,0,0-.92-.827" transform="translate(-245.346 3.378)" fill="#f4ffc4" stroke="#f4ffc4" stroke-linejoin="round" stroke-width="0.4"/>
          <path id="パス_6533" data-name="パス 6533" d="M639.264,20.847a2,2,0,0,0,1.505.024c.5-.205.779-.495.832-.863.006-.034.112-.151.52-.237a.338.338,0,0,0,.137-.065,2.318,2.318,0,0,1,.889-.431,2.6,2.6,0,0,1,.971-.047,2.868,2.868,0,0,0,.924.022q.255-.049,1.216-.25a8.529,8.529,0,0,0,1.59-.033,1.428,1.428,0,0,1,.634.042,3.327,3.327,0,0,0,.329,1.169,1.7,1.7,0,0,0,.947.716,1.632,1.632,0,0,0,.63.135,1.381,1.381,0,0,0,.824-.277,3.576,3.576,0,0,0,.922-1,12.315,12.315,0,0,0,.638-1.15,1.3,1.3,0,0,0-.07-.935,3.844,3.844,0,0,0-.686-.938,4,4,0,0,0-1.294-.677,4.1,4.1,0,0,0-1.227-.059c-.452.035-1.2.086-2.237.155q-1.077.052-2.306.1a2.006,2.006,0,0,0-1.055.073,11.249,11.249,0,0,1-1.826.247c-.4.07-1.1.224-2.117.468a2.119,2.119,0,0,0-1.46.815,2.089,2.089,0,0,0-.228,1.636,1.557,1.557,0,0,0,1,1.364" transform="translate(-245.544 1.943)" fill="#f4ffc4" stroke="#f4ffc4" stroke-linejoin="round" stroke-width="0.4"/>
          <path id="パス_6534" data-name="パス 6534" d="M637.168,23.068a1.87,1.87,0,0,0-.615,1.758,1.443,1.443,0,0,0,.99,1.218,3.748,3.748,0,0,0,1.085.175c.052,0,.1,0,.154,0a3.062,3.062,0,0,0,1.39-.508,3.936,3.936,0,0,1,1.265-.22,4.672,4.672,0,0,0,1.73-.4,2.477,2.477,0,0,1,1.143-.008.285.285,0,0,0,.134.012c.627-.07,1.237-.138,1.854-.211,1.173-.214,1.407-.1,1.421-.1a.852.852,0,0,0,1.107-.07.957.957,0,0,1,.618.063.787.787,0,0,0,.925.053,1.6,1.6,0,0,1,.485-.186c.2.092.422.2.65.329a.958.958,0,0,0,1,.008,1.973,1.973,0,0,0,1.386.031,1.11,1.11,0,0,0,1.013.284,1.362,1.362,0,0,0,.964-.751,2.311,2.311,0,0,0-.059-1.7.341.341,0,0,0-.069-.123,2.512,2.512,0,0,0-2.286-.892c-1.782-.037-3.206-.027-4.358.026s-2.071.105-2.754.157l-2.64.208c-1.07.085-1.994.129-2.776.13-1.326.139-2.143.228-2.458.261a3.659,3.659,0,0,0-1.211.4.333.333,0,0,0-.088.064" transform="translate(-245.759 2.653)" fill="#f4ffc4" stroke="#f4ffc4" stroke-linejoin="round" stroke-width="0.4"/>
        </g>
        <g id="グループ_3608" data-name="グループ 3608" transform="translate(-6238.38 11360.028)">
          <path id="パス_6496" data-name="パス 6496" d="M69.53,8a7.843,7.843,0,0,0-.3-1.306q-.237-.787-.395-1.257a2.473,2.473,0,0,1-.14-.778c0-.274.017-.717.05-1.31a1.93,1.93,0,0,0-.514-1.681A2,2,0,0,0,66.917,1.2a.341.341,0,0,0-.089.007,2.624,2.624,0,0,0-1.556.718,1.633,1.633,0,0,0-.279,1.328,14.123,14.123,0,0,0,.368,1.625,4.1,4.1,0,0,0,.406,1.1,3.35,3.35,0,0,0,.293,1.461,3.509,3.509,0,0,1,.313,1.207,2.706,2.706,0,0,0,.509,1.381,5.246,5.246,0,0,0,.465,1.608,1.618,1.618,0,0,0,.98.987,1.672,1.672,0,0,0,.4.048,2.245,2.245,0,0,0,.735-.135,2.988,2.988,0,0,0,.94-.5,1.25,1.25,0,0,0,.409-1.08,4.112,4.112,0,0,0-.659-1.7A3.321,3.321,0,0,1,69.53,8" transform="translate(8.288 -1.204)" fill="#f4ffc4" stroke="#f4ffc4" stroke-linejoin="round" stroke-width="0.4"/>
          <path id="パス_6497" data-name="パス 6497" d="M63.355,11.147a2.656,2.656,0,0,0-.375-1.106,5.787,5.787,0,0,0,.087-1.8q-.1-.8-.2-1.361c.187-1.036.156-1.647-.1-1.976a1.509,1.509,0,0,0-.969-.565,2.538,2.538,0,0,0-1.389.256c-.627.267-.925.986-.883,2.164a16.219,16.219,0,0,0,.322,2.155,11.886,11.886,0,0,1,.147,2.471,4.594,4.594,0,0,0,.151,1.717,1.227,1.227,0,0,0,.956.812,2.628,2.628,0,0,0,.525.054,2.5,2.5,0,0,0,.645-.085,1.733,1.733,0,0,0,.933-.552,1.14,1.14,0,0,0,.046-1.225,3.013,3.013,0,0,0,.109-.958" transform="translate(7.593 -0.824)" fill="#f4ffc4" stroke="#f4ffc4" stroke-linejoin="round" stroke-width="0.4"/>
          <path id="パス_6498" data-name="パス 6498" d="M61.354,12.967a2.948,2.948,0,0,0-.624-.877,3.3,3.3,0,0,0-.815-.524,11.289,11.289,0,0,0-1.113-.444,15.791,15.791,0,0,0-3.391-.158c-1.032.07-2.139.194-3.291.367a22.2,22.2,0,0,0-3.132.685q-.678.209-1.347.469c.033-.034.065-.066.1-.1a3.224,3.224,0,0,1,.978-.966,2.667,2.667,0,0,0,.9-.714,2.3,2.3,0,0,1,.683-.564c.318-.177.564-.317.769-.442.269-.2.569-.432.9-.7a6.4,6.4,0,0,0,.769-.311q.318-.156.981-.527a1.072,1.072,0,0,0,.485-1.5,2.759,2.759,0,0,0-.984-1.208,1.558,1.558,0,0,0-1.356-.25,6.193,6.193,0,0,0-1.079.44,6.263,6.263,0,0,0-1.246.935.311.311,0,0,0-.07.087c-.315.587-.484.628-.487.628a1.328,1.328,0,0,0-.933.707,3.225,3.225,0,0,0-.511.544,2.973,2.973,0,0,1-.5.515q-.31.259-.9.691a41.036,41.036,0,0,0-3.607,3.9q-2.951,3.4-3.759,4.31L37.227,19.7l-.126.147c-.377.579-.766,1.122-1.157,1.611a8.113,8.113,0,0,0-1.035,1.681,2.96,2.96,0,0,0-.089,2.149A1.967,1.967,0,0,0,36.1,26.505a1.574,1.574,0,0,0,1.637-.19,3.74,3.74,0,0,0,.746-.777,1.046,1.046,0,0,0-.1-1.129,1.125,1.125,0,0,1,.048-.98.31.31,0,0,0,.023-.1,1.672,1.672,0,0,1,.35-.861,1.934,1.934,0,0,0,.8-1.124.543.543,0,0,1,.189-.379,2.471,2.471,0,0,0,.51-.556l.759-.832a2.027,2.027,0,0,1,.453-.377,2.491,2.491,0,0,0,.93-1.173,2.526,2.526,0,0,0,.574-.708.355.355,0,0,1,.23-.215,1.037,1.037,0,0,0,.659-.564.972.972,0,0,1,.308-.369,3.241,3.241,0,0,0,.417-.36,1.544,1.544,0,0,0,.656.842,2.356,2.356,0,0,0,1.257.307,1.491,1.491,0,0,0,1.165-.64,12.415,12.415,0,0,0,1.2-.947,2.968,2.968,0,0,0,1.186-.212c.257-.119.643-.282,1.154-.485a9.823,9.823,0,0,1,2.909-.809,7.949,7.949,0,0,0,1.574-.15c1,.166,1.736.317,2.159.434.37.158.575.351.608.571a1.233,1.233,0,0,1-.076.718,2.144,2.144,0,0,0-.166,1.085q-.145.722-.291,1.354c-.373.67-.765,1.3-1.163,1.88a11.362,11.362,0,0,0-.9,1.486,7.846,7.846,0,0,0-1.031,1.407c-.189.359-.439.8-.743,1.3-.237.369-.646.949-1.216,1.722-.22.3-1.219,1.575-2.376,3.053-1.926,2.459-4.323,5.52-5.243,6.765-1.485,2.01-2.774,3.683-3.83,4.976s-1.708,2.072-1.943,2.322a7.1,7.1,0,0,0-.715.9,2.592,2.592,0,0,1-.624.667l-.964.7a.389.389,0,0,0-.063.058,6.34,6.34,0,0,1-1.316,1.35,2.719,2.719,0,0,0-.8.683A2.177,2.177,0,0,0,34.6,48.2a1.8,1.8,0,0,0,.666,1.479,1.52,1.52,0,0,0,1.078.554,1.114,1.114,0,0,0,.565-.162,3.95,3.95,0,0,0,.944-.738,3.189,3.189,0,0,0,1.013-1.057q.25-.474.5-.875c.858-1.126,1.978-2.544,3.33-4.216,1.379-1.706,2.129-2.659,2.292-2.914a8.793,8.793,0,0,1,.578-.774c.246-.295.58-.725,1-1.284s1.2-1.557,2.341-3a5.018,5.018,0,0,0,.475-.67c.121-.2.316-.575.589-1.115.652-.685,5.264-6.374,5.306-6.429.2-.256.516-.73.937-1.409s1.024-1.562,1.765-2.6a1.782,1.782,0,0,0,.628-1.1,1.994,1.994,0,0,1,.338-.514l.523-.571a1.378,1.378,0,0,0,.374-.826.325.325,0,0,1,.143-.269,1.694,1.694,0,0,0,.533-1.063,3.337,3.337,0,0,0,.77-1.37q.291-.9.4-1.321a12.219,12.219,0,0,0,.218-1.61.335.335,0,0,0-.021-.153c-.179-.46-.359-.873-.536-1.225" transform="translate(4.413 -0.724)" fill="#f4ffc4" stroke="#f4ffc4" stroke-linejoin="round" stroke-width="0.4"/>
          <path id="パス_6499" data-name="パス 6499" d="M79.616,7.551a1.951,1.951,0,0,0-1.51-.335,2.61,2.61,0,0,0-1.2.571.332.332,0,0,0-.079.1l-1.2,2.391a12.2,12.2,0,0,0-.783,2.355c-.256,1.022-.441,1.873-.547,2.533a4.342,4.342,0,0,0-.4,1.51,1.515,1.515,0,0,1-.092.6,1.271,1.271,0,0,0-.22.631,2.681,2.681,0,0,0,.068.777c-.237.878-.386,1.492-.454,1.871a4.4,4.4,0,0,0-.057,1.21c.035.358.061.752.078,1.177a2.44,2.44,0,0,0,.743,1.54,7.508,7.508,0,0,0,1.623,1.294,6.592,6.592,0,0,0,1.187.685c.3.125.6.238.9.344a1.592,1.592,0,0,0,.528.091,1.724,1.724,0,0,0,.62-.12,1.7,1.7,0,0,0,.911-1.237c.248-.882-.065-1.31-.41-1.536-.48-.239-.884-.451-1.21-.639a6.566,6.566,0,0,0-.884-.439,1.033,1.033,0,0,1-.434-.314,1.189,1.189,0,0,1-.213-.638,11.663,11.663,0,0,1-.1-1.566,5.9,5.9,0,0,1,.2-1.532c.21-.867.387-1.75.524-2.606a4.443,4.443,0,0,1,.218-.723,5.072,5.072,0,0,0,.25-1.173,4.083,4.083,0,0,0,.485-1.787,2.343,2.343,0,0,0,.527-.83c.08-.24.214-.577.4-1.011q.426-.326.852-.608a1.251,1.251,0,0,0,.54-1.283,1.791,1.791,0,0,0-.854-1.3" transform="translate(9.328 -0.477)" fill="#f4ffc4" stroke="#f4ffc4" stroke-linejoin="round" stroke-width="0.4"/>
          <path id="パス_6500" data-name="パス 6500" d="M95.548,7.03a2.245,2.245,0,0,0-1.654-.256.339.339,0,0,0-.1.036,1.576,1.576,0,0,0-.841.847,2.926,2.926,0,0,1-.375.717,2.157,2.157,0,0,0-.4,1.05,3.976,3.976,0,0,1-.2.91,4.647,4.647,0,0,0-.392.933,4.555,4.555,0,0,0-.086.7c-.015.209-.045.283-.037.283-.166.137-.251.406-.3.943a5.458,5.458,0,0,0-.576,1.491,1.929,1.929,0,0,1-.21.679,1.015,1.015,0,0,0-.086.84A2.274,2.274,0,0,0,89.9,17.44a4.888,4.888,0,0,0-.3,1.009,1.766,1.766,0,0,1-.443.854.34.34,0,0,0-.081.169,10.747,10.747,0,0,0-.16,1.577,3.872,3.872,0,0,0-.521,1.595,3.9,3.9,0,0,0-.542,1.2,4.481,4.481,0,0,0-.139,1.014,5.217,5.217,0,0,1-.4,1.418c-.281.768-.565,1.669-.843,2.675s-.6,2.04-.962,3.1a12.8,12.8,0,0,1-.828,2.057c-.313.491-.4.852-.29,1.137a.469.469,0,0,1-.006.339,3.86,3.86,0,0,1-.413.766,11.707,11.707,0,0,0-.484,1.42,1.254,1.254,0,0,1-.263.555,1.144,1.144,0,0,0-.143,1.1q-.411.592-.7,1.018a.333.333,0,0,0-.058.186.789.789,0,0,1-.231.457,1.85,1.85,0,0,0-.445,1.041q-.054.5-.08.978a4.21,4.21,0,0,1-.268,1.1.341.341,0,0,0-.015.175,3.1,3.1,0,0,0,.527,1.513,1.95,1.95,0,0,0,.972.515,1.9,1.9,0,0,0,.5.072,1.427,1.427,0,0,0,.763-.215,2.476,2.476,0,0,0,.786-.783,1.778,1.778,0,0,0,.258-1.146,2.725,2.725,0,0,1,.29-1.242.339.339,0,0,0,.023-.082c.207-1.514.469-3.009.778-4.439.551-2.364,1.182-4.755,1.875-7.1.689-2.329,1.169-3.87,1.43-4.579a19.415,19.415,0,0,0,.612-1.931c.134-.535.413-1.39.825-2.539s.763-2.2,1.025-3.085a11.129,11.129,0,0,1,.6-1.7,9.288,9.288,0,0,0,.5-1.168,2.639,2.639,0,0,0,.447-.941,2.681,2.681,0,0,1,.4-.847,6.59,6.59,0,0,0,.412-1.178,5.266,5.266,0,0,1,.488-1.193c.169-.5.333-.941.487-1.3s.334-.741.567-1.227q.157-.68.29-1.363a1.254,1.254,0,0,0-.6-1.386" transform="translate(10.371 -0.532)" fill="#f4ffc4" stroke="#f4ffc4" stroke-linejoin="round" stroke-width="0.4"/>
          <path id="パス_6501" data-name="パス 6501" d="M125.5,20a2.865,2.865,0,0,0-.848-.291,6.044,6.044,0,0,0-1.184,0,.35.35,0,0,0-.123.033,5.426,5.426,0,0,1-1.477.382c-.489.036-.9.072-1.221.105a10.553,10.553,0,0,1-1.126.049.329.329,0,0,0-.123.025,2.21,2.21,0,0,1-.675.158c-.25.019-.5.026-.708.029a2.913,2.913,0,0,0-.922.028q-.428.076-.852.127a4.071,4.071,0,0,1-.877,0,13.72,13.72,0,0,1-2.225.127,8.2,8.2,0,0,0-1.93.169,3.092,3.092,0,0,0-1.637-.042l-1.378-.1a5.849,5.849,0,0,0-1.386.052,7.43,7.43,0,0,1-1.335-.146,1.148,1.148,0,0,0-.9.085.368.368,0,0,1-.246.068c-.147-.035-.46-.105-.948-.209a.272.272,0,0,0-.1-.006,4.61,4.61,0,0,1-1.2-.076c-.548-.087-1.062-.15-1.53-.185a2.846,2.846,0,0,0-1.476.283c-.408.135-.881.524-.881,1.6a1.771,1.771,0,0,0,.8,1.713,2.222,2.222,0,0,0,1.031.314,1.274,1.274,0,0,0,.228-.02c.289-.055.8-.19,1.484-.391a3.387,3.387,0,0,1,.907-.071,2.467,2.467,0,0,1,.745.135,1.647,1.647,0,0,0,1.281-.248,4.183,4.183,0,0,0,1.54.081,5.222,5.222,0,0,0,.938-.284,3.447,3.447,0,0,0,1.259.159q.677-.025,5.812-.26,5.1-.23,6.743-.13,1.1-.1,1.8-.129.712-.027,1.475-.105a5.162,5.162,0,0,0,1.116-.2,1.148,1.148,0,0,0,.647-.636,2.25,2.25,0,0,0,.148-1.124A1.21,1.21,0,0,0,125.5,20" transform="translate(12.526 1.044)" fill="#f4ffc4" stroke="#f4ffc4" stroke-linejoin="round" stroke-width="0.4"/>
          <path id="パス_6502" data-name="パス 6502" d="M162.1,18.455a1.811,1.811,0,0,0-.792-.783,1.43,1.43,0,0,0-1.391-.066,4.8,4.8,0,0,1-1.1.363,4.362,4.362,0,0,0-1.66.875,3.4,3.4,0,0,1-1.117.616,2.066,2.066,0,0,0-1.154.861.651.651,0,0,1-.438.188,1.327,1.327,0,0,0-.9.461,3.125,3.125,0,0,1-.928.4,1.935,1.935,0,0,0-1.061.738,1.835,1.835,0,0,0-1.053.411,3.091,3.091,0,0,1-.8.488q-1.154.523-2.571,1.226a22.592,22.592,0,0,0-2.117,1.16,1.925,1.925,0,0,0-1.122.821c-.009.02-.107.2-.767.359a.339.339,0,0,0-.2.139.406.406,0,0,1-.343.19,1.84,1.84,0,0,0-1.154.765c-.505.246-1.584.9-3.29,1.991-1.788,1.145-3.068,2.007-3.912,2.638s-1.65,1.208-2.447,1.76a.363.363,0,0,0-.086.085,4.292,4.292,0,0,0-.815,1.9,1.184,1.184,0,0,0,.916,1.344q.751.232,1.267.412a.638.638,0,0,0,.22.037c.492,0,1.076-.543,1.883-1.731a14.43,14.43,0,0,1,3.011-2.635c1.39-.968,2.6-1.883,3.6-2.721a35.456,35.456,0,0,1,5.17-3.263c2.481-1.363,4.481-2.427,5.945-3.164s2.475-1.214,3-1.417a6,6,0,0,0,1.465-.792q.3-.15.867-.379t1.072-.444a5.674,5.674,0,0,0,1.019-.563,2.413,2.413,0,0,0,1.372-.583,1.849,1.849,0,0,0,.472-.828,1.375,1.375,0,0,0-.07-.856" transform="translate(16.698 0.774)" fill="#f4ffc4" stroke="#f4ffc4" stroke-linejoin="round" stroke-width="0.4"/>
          <path id="パス_6503" data-name="パス 6503" d="M132.453,15.133a8.51,8.51,0,0,1,1.721,1.393c.665.677,1.3,1.362,1.874,2.037a5.057,5.057,0,0,0,.933,1.713.31.31,0,0,0,.089.073.466.466,0,0,1,.25.375,1.361,1.361,0,0,0,.7.971,1.511,1.511,0,0,0,.814.231,2.125,2.125,0,0,0,.675-.119,1.447,1.447,0,0,0,1.059-1.05,1.705,1.705,0,0,0-.08-1.161,5.728,5.728,0,0,0-.672-.962,1.566,1.566,0,0,0-.233-.757,1.648,1.648,0,0,0-.675-.562,2.634,2.634,0,0,0-.656-1.083,4.2,4.2,0,0,1-.61-.662,4.52,4.52,0,0,1-.679-.858,1.488,1.488,0,0,0-.911-.651,1.52,1.52,0,0,0-.846-.7c-.334-.3-.672-.573-1.008-.823a4.2,4.2,0,0,0-1.572-.662c-.276-.035-.536-.068-.792-.105a3.09,3.09,0,0,0-1.156.112,1.712,1.712,0,0,0-1.306,1.626,5.308,5.308,0,0,0,.139,1.136,1.38,1.38,0,0,0,.919,1.051,1.728,1.728,0,0,0,1.169.079,2.286,2.286,0,0,0,.85-.643" transform="translate(16.506 0.081)" fill="#f4ffc4" stroke="#f4ffc4" stroke-linejoin="round" stroke-width="0.4"/>
          <path id="パス_6504" data-name="パス 6504" d="M194.158,18.06a6.894,6.894,0,0,0-1.585-1.17,9.219,9.219,0,0,1-.965-1.475,6.266,6.266,0,0,1-.547-1.381,5.7,5.7,0,0,1-.147-1.325,23.82,23.82,0,0,0-.264-2.719A3.1,3.1,0,0,0,190.329,9a1.24,1.24,0,0,0-1.026-.7,1.572,1.572,0,0,0-1.159.332,3.192,3.192,0,0,0-.7.757,2.256,2.256,0,0,0,.028,1.732,28.442,28.442,0,0,0,.582,3.288,9.674,9.674,0,0,0,.574,1.756,2.453,2.453,0,0,1,.255.751,2.925,2.925,0,0,0,.891,1.374,3.358,3.358,0,0,1,.663.718,3.02,3.02,0,0,0,.857.846,6.056,6.056,0,0,0,.859.634,1.568,1.568,0,0,0,.815.21,2.4,2.4,0,0,0,.409-.038,1.954,1.954,0,0,0,1.13-.57,1.046,1.046,0,0,0,.222-1.163,2.622,2.622,0,0,0-.571-.863" transform="translate(23.895 -0.342)" fill="#f4ffc4" stroke="#f4ffc4" stroke-linejoin="round" stroke-width="0.4"/>
          <path id="パス_6505" data-name="パス 6505" d="M191.089,19.523a3.517,3.517,0,0,0-.441-1.052,2.959,2.959,0,0,0-.739-1.026,5.836,5.836,0,0,0-1.475-.809,9.25,9.25,0,0,0-1.961-.594,11.731,11.731,0,0,0-2.026-.186c-.4.019-.993.027-1.805.027q-.981.052-1.6.053a11.625,11.625,0,0,0-1.314.1c.442-.6,1.048-1.473,1.83-2.647a29.321,29.321,0,0,1,2.621-3.505q.69-.39.97-.543a.964.964,0,0,0,.489-.846,2.1,2.1,0,0,0-.361-1.181,1.389,1.389,0,0,0-1.231-.736,4.633,4.633,0,0,0-1.1.114,3.233,3.233,0,0,0-1.254.827,1.322,1.322,0,0,0-.556.758.954.954,0,0,1-.227.426.336.336,0,0,0-.085.139,2.293,2.293,0,0,1-.344.76,1.485,1.485,0,0,0-.6.867,1.211,1.211,0,0,1-.329.572.351.351,0,0,0-.072.105,11.022,11.022,0,0,1-.505,1.057c-.133.232-.453.723-.954,1.459s-.905,1.335-1.2,1.767a11.789,11.789,0,0,1-1.045,1.284,4.575,4.575,0,0,0-1.371.251,5.275,5.275,0,0,1-1.376.267.325.325,0,0,0-.092.02,6.578,6.578,0,0,1-1.119.295,3.661,3.661,0,0,0-1.176.423c-.568.067-1.105.133-1.659.212a4.064,4.064,0,0,1-.815.168,1.908,1.908,0,0,0-.858.282,5.411,5.411,0,0,1-1.431.425,9.8,9.8,0,0,0-1.245.35,1.449,1.449,0,0,0-.958,1.444,1.561,1.561,0,0,0,.655,1.55,2.332,2.332,0,0,0,1.223.389,4.034,4.034,0,0,0,1.717-.621,11.547,11.547,0,0,1,1.829-.909A22.733,22.733,0,0,1,172,20.339c.681-.166,1.326-.335,1.928-.506a3.5,3.5,0,0,1-.394.616,2.858,2.858,0,0,1-.347.3,1.435,1.435,0,0,0-.461.7,2.761,2.761,0,0,1-.539.814,3.927,3.927,0,0,1-.577.644,1.768,1.768,0,0,0-.545.961,1.047,1.047,0,0,0-.592.851,1.118,1.118,0,0,0-.61.746,2.913,2.913,0,0,0-1.078,1.317,2.513,2.513,0,0,0-.553.85.825.825,0,0,1-.373.451,1.848,1.848,0,0,0-.725.811c-1.76,2.233-3.358,4.205-4.752,5.87-.59.723-1.209,1.435-1.84,2.114a10.516,10.516,0,0,0-1.689,2.449,3.2,3.2,0,0,0-.438,1.534c-.024.648.166,1.07.558,1.253.264.123.492.227.683.314a.8.8,0,0,0,.327.066,1.956,1.956,0,0,0,.89-.286,1.321,1.321,0,0,0,.829-1.029,2.874,2.874,0,0,1,.334-.992,15.934,15.934,0,0,0,.649-1.57,15.921,15.921,0,0,1,1.424-1.611c1.944-2.383,3.916-4.933,5.862-7.577,1.927-2.619,3.754-5.038,5.437-7.2q1.466-2.083,1.729-2.475c.153-.228.383-.527.683-.891a3.058,3.058,0,0,1,.881-.082,3.236,3.236,0,0,0,1.156-.1,2.419,2.419,0,0,0,1.326-.261,6.118,6.118,0,0,1,.821.048,3.84,3.84,0,0,0,1.059-.044,3.5,3.5,0,0,0,1.132.1,2.555,2.555,0,0,1,.875.094c.475.136.984.308,1.512.509a3.52,3.52,0,0,1,1.093.608,1.348,1.348,0,0,1,.394.8,3.845,3.845,0,0,1-.2,1.568,3.945,3.945,0,0,1-.509,1.279,2.463,2.463,0,0,0-.445.878,1.707,1.707,0,0,0-.8,1.114,3.39,3.39,0,0,0-.777.992c-.436.253-.663.519-.688.808,0,0-.044.139-.488.4a.322.322,0,0,0-.069.054q-.739.734-1.054,1.076c-.213.23-.408.45-.586.662a2.945,2.945,0,0,1-.678.554,3.453,3.453,0,0,0-.9.81c-.274.239-.531.453-.77.639s-.578.463-.965.786q-.57.362-1.009.618a.6.6,0,0,1-.3.1c-.036,0-.051-.008-.045,0a6.071,6.071,0,0,1-.717-.861c-.23-.332-.59-.815-1.042-1.379a1.632,1.632,0,0,0-1.859-1.153,1.6,1.6,0,0,0-1.414,1.1A2.027,2.027,0,0,0,172.9,32.1a8.52,8.52,0,0,0,.927,1.381,8.224,8.224,0,0,1,1.548,1.8.36.36,0,0,0,.067.071,2.7,2.7,0,0,0,2.111.619,4.256,4.256,0,0,0,1.755-.557q.827-.619,1.087-.8a6.751,6.751,0,0,1,.689-.4c.282-.211.574-.439.873-.684s.575-.461.851-.665a2.991,2.991,0,0,0,.794-.935,28.771,28.771,0,0,0,2.941-2.958c1.149-1.3,1.881-2.168,2.238-2.646s.651-.894.9-1.262a11.966,11.966,0,0,0,.866-1.639c.206-.481.37-.849.492-1.109a2.17,2.17,0,0,0,.214-.921c0-.265-.009-.557-.027-.876a6.131,6.131,0,0,0-.138-.99" transform="translate(20.211 -0.549)" fill="#f4ffc4" stroke="#f4ffc4" stroke-linejoin="round" stroke-width="0.4"/>
          <path id="パス_6506" data-name="パス 6506" d="M198.8,15.9a5.371,5.371,0,0,1-.37-1.393,7.917,7.917,0,0,0-.219-1.223,11.335,11.335,0,0,1-.253-1.383,12.581,12.581,0,0,1-.074-2.183,11.232,11.232,0,0,0-.191-1.691,3.391,3.391,0,0,0-.382-1.039c-.205-.331-.6-.511-1.281-.5a1.909,1.909,0,0,0-1.164.523,1.564,1.564,0,0,0-.4,1.013,6.287,6.287,0,0,0,.232,1.634,7.3,7.3,0,0,0,.113,1.774c.1.52.2,1.244.282,2.151a10.792,10.792,0,0,0,.567,2.627q.413,1.158.673,1.982c.283,1.089.71,1.652,1.3,1.722a3.152,3.152,0,0,0,.4.024,3.235,3.235,0,0,0,1.031-.167c.4-.133.863-.51.752-1.55a.336.336,0,0,0-.026-.1c-.35-.8-.681-1.546-.989-2.226" transform="translate(24.81 -0.561)" fill="#f4ffc4" stroke="#f4ffc4" stroke-linejoin="round" stroke-width="0.4"/>
          <path id="パス_6507" data-name="パス 6507" d="M230,20a2.807,2.807,0,0,0-.847-.291,6.066,6.066,0,0,0-1.186,0,.351.351,0,0,0-.121.033,5.435,5.435,0,0,1-1.478.382c-.488.036-.9.072-1.221.105a10.554,10.554,0,0,1-1.126.049.334.334,0,0,0-.123.025,2.2,2.2,0,0,1-.675.158c-.25.019-.5.026-.708.029a2.957,2.957,0,0,0-.924.028c-.283.05-.568.093-.851.127a4.06,4.06,0,0,1-.876,0,13.735,13.735,0,0,1-2.225.127,8.2,8.2,0,0,0-1.932.169,3.087,3.087,0,0,0-1.636-.042l-1.378-.1a5.856,5.856,0,0,0-1.387.052,7.43,7.43,0,0,1-1.335-.146,1.142,1.142,0,0,0-.9.085.355.355,0,0,1-.245.068c-.147-.035-.462-.105-.949-.209a.264.264,0,0,0-.1-.006,4.624,4.624,0,0,1-1.2-.076c-.547-.087-1.061-.15-1.528-.185a2.833,2.833,0,0,0-1.477.283c-.408.135-.882.524-.882,1.6a1.769,1.769,0,0,0,.8,1.713,2.226,2.226,0,0,0,1.032.314,1.252,1.252,0,0,0,.227-.02c.29-.056.8-.19,1.483-.391a3.392,3.392,0,0,1,.908-.071,2.474,2.474,0,0,1,.746.135,1.645,1.645,0,0,0,1.28-.248,4.089,4.089,0,0,0,1.54.081,5.225,5.225,0,0,0,.939-.284,3.464,3.464,0,0,0,1.258.159q.678-.025,5.812-.26,5.1-.23,6.744-.13,1.1-.1,1.8-.129.712-.027,1.474-.105a5.191,5.191,0,0,0,1.117-.2,1.141,1.141,0,0,0,.645-.636,2.248,2.248,0,0,0,.15-1.124A1.211,1.211,0,0,0,230,20" transform="translate(25.86 1.044)" fill="#f4ffc4" stroke="#f4ffc4" stroke-linejoin="round" stroke-width="0.4"/>
          <path id="パス_6508" data-name="パス 6508" d="M267.508,12.824a2.3,2.3,0,0,0-1.133-.366,2.251,2.251,0,0,0-.983.13,5.344,5.344,0,0,1-.832.242c-.382.086-.816.182-1.3.285-1.223.242-2.424.46-3.569.647-1.044.17-2.456.351-4.2.54.1-.345.177-.645.228-.9.069-.348.165-.841.288-1.486a9.621,9.621,0,0,0,.188-1.689,3.463,3.463,0,0,0,.209-1.464,9.61,9.61,0,0,1,0-1.384,1.575,1.575,0,0,0-1.59-1.5,1.719,1.719,0,0,0-1.069.329,3.034,3.034,0,0,0-.634.653,1.027,1.027,0,0,0-.355.915,3.214,3.214,0,0,0,.131.524,1.225,1.225,0,0,0-.03.754,1.9,1.9,0,0,1-.083.839.316.316,0,0,0-.021.117c0,.4-.035.966-.1,1.684a14.692,14.692,0,0,1-.3,1.9l-.3.9c-1.727.258-3.1.421-4.077.488q-1.541.1-4.073.258l-3.815.233c-.838.053-1.742.062-2.684.027a8.314,8.314,0,0,1-2.344-.384,2.149,2.149,0,0,0-1.235-.317,5.724,5.724,0,0,0-1.444.275,2.721,2.721,0,0,0-1.278.749,1.171,1.171,0,0,0-.216,1.281,3.527,3.527,0,0,0,.681,1.076,3.51,3.51,0,0,0,1.823.538,4.109,4.109,0,0,0,1.864-.16c.865-.068,1.537-.137,2.077-.21a1.593,1.593,0,0,1,.845-.044.884.884,0,0,0,.845-.087,2.871,2.871,0,0,0,1.555-.174,7.717,7.717,0,0,1,.876.05,3.074,3.074,0,0,0,1.388-.3,4.642,4.642,0,0,0,1.77-.065,6.386,6.386,0,0,1,1.459-.027,3.83,3.83,0,0,0,1.665-.273,4.044,4.044,0,0,0,1.787,0,13.308,13.308,0,0,1,1.858-.282,29.618,29.618,0,0,1-1.522,4.105,42.365,42.365,0,0,1-2.254,4.278c-.822,1.355-1.531,2.489-2.11,3.368q-.888,1.349-1.669,2.489a20.645,20.645,0,0,1-1.664,2.117,3.38,3.38,0,0,0-.755.978,2.981,2.981,0,0,1-.847.932.308.308,0,0,0-.076.077,12.432,12.432,0,0,1-1.886,2.232,5.215,5.215,0,0,0-1.253,1.59,1.88,1.88,0,0,0-.115,1.417,2.9,2.9,0,0,0,.707,1.088,1.3,1.3,0,0,0,.938.425,1.29,1.29,0,0,0,.365-.054,2.3,2.3,0,0,0,.978-.553,3.333,3.333,0,0,1,.543-.448,1.49,1.49,0,0,0,.578-.764c.1-.255.22-.649.379-1.2a1.514,1.514,0,0,0,.822-.638,1.6,1.6,0,0,0,.257-.951c-.012-.167.04-.2.06-.215a1.1,1.1,0,0,0,.456-.7.3.3,0,0,1,.191-.232c.31-.128.519-.464.652-1.054a3.761,3.761,0,0,0,.784-1.021,2.254,2.254,0,0,1,.434-.633,5.187,5.187,0,0,0,.728-1.055,11.953,11.953,0,0,1,1.116-1.588,5.831,5.831,0,0,0,1.032-1.751,1.124,1.124,0,0,0,.708-.812,2.339,2.339,0,0,1,.346-.792,5.022,5.022,0,0,0,.476-.924,4.344,4.344,0,0,0,.2-.736c.018-.113.061-.14.1-.157.366-.146.474-.581.514-.942a1.786,1.786,0,0,0,.531-.963.927.927,0,0,1,.254-.517,1.984,1.984,0,0,0,.42-1.191,6.816,6.816,0,0,0,.9-1.422q.287-.651.5-1.149a6.916,6.916,0,0,1,.549-1.014,8.191,8.191,0,0,0,.752-1.787l5.234-.424a13.931,13.931,0,0,0,2.516-.414,1.337,1.337,0,0,0,1.5-.063,2.3,2.3,0,0,0,1.149-.162,3.491,3.491,0,0,0,1.121.009c.238-.052.536-.1.891-.153a1.18,1.18,0,0,0,1-.725,2.924,2.924,0,0,0,.207-1.116,1.264,1.264,0,0,0-.6-1.114" transform="translate(29.444 -0.634)" fill="#f4ffc4" stroke="#f4ffc4" stroke-linejoin="round" stroke-width="0.4"/>
          <path id="パス_6509" data-name="パス 6509" d="M290.587,33.13a1.791,1.791,0,0,0-1.641.12,7.573,7.573,0,0,1-.758.239.336.336,0,0,0-.127.062.676.676,0,0,1-.48.2,1.723,1.723,0,0,0-1.072.422,22.094,22.094,0,0,1-2.486.877q-1.365.4-2.477.773a10.6,10.6,0,0,1-2.331.491,17.575,17.575,0,0,1-2.53.28c-.5-.027-.979-.055-1.437-.082a3.446,3.446,0,0,1-.887-.128,3.872,3.872,0,0,1-.613-.3c-.336-.267-.391-.388-.4-.4a.714.714,0,0,1-.02-.349,2.334,2.334,0,0,1,.2-.633,7.683,7.683,0,0,1,.406-.775,7.251,7.251,0,0,1,.678-.812q.391-.407.78-.758a1.96,1.96,0,0,0,.686-.709q.744-.506,1.044-.707a6.361,6.361,0,0,1,.751-.412,6.52,6.52,0,0,0,.846-.479,1.85,1.85,0,0,0,.832-.119c.133-.057.178-.028.194-.02a1.036,1.036,0,0,0,.8.081,2.225,2.225,0,0,0,.639-.276,1.2,1.2,0,0,0,.937-.27.8.8,0,0,1,.366-.2,1.415,1.415,0,0,0,.811-.734,1.438,1.438,0,0,0,.23-1,2.3,2.3,0,0,0-.412-.9,1.353,1.353,0,0,0-1.174-.557,3.534,3.534,0,0,0-1.21.208,2.633,2.633,0,0,0-1.394.385,9.072,9.072,0,0,1-1.252.637,4.853,4.853,0,0,0-.923-.109c-.136,0-.2-.024-.2-.015a.81.81,0,0,0-.557-.354,1.842,1.842,0,0,1-.4-.135,9.323,9.323,0,0,1-.807-.74,1.558,1.558,0,0,1-.322-.5,1.447,1.447,0,0,0-.337-.995v-.783a.331.331,0,0,0-.027-.132,1.394,1.394,0,0,1-.153-.507,1.418,1.418,0,0,0,.1-.748,1.688,1.688,0,0,0-.066-.943c.3-.332.37-.629.213-.851,0,0,.011-.1.221-.328a.332.332,0,0,0,.078-.308c-.083-.329-.038-.457-.014-.5a2.524,2.524,0,0,0,.267-.744,1.657,1.657,0,0,1,.26-.6,3.435,3.435,0,0,0,.392-.736,2.157,2.157,0,0,1,.406-.612,2.811,2.811,0,0,0,.871-1.1,1.078,1.078,0,0,0-.255-1.124,1.959,1.959,0,0,0-.98-.608,1.606,1.606,0,0,0-1.081.216,2.22,2.22,0,0,0-.781.784,11.713,11.713,0,0,0-.538,1.153,7.1,7.1,0,0,0-.9,2.483c-.153.883-.274,1.8-.36,2.724a16.315,16.315,0,0,0,.043,3.1,6.614,6.614,0,0,0,.777,2.733A6.4,6.4,0,0,0,274.1,28.42a2.8,2.8,0,0,0,.955.608,1.51,1.51,0,0,1,.365.187c-.138.127-.292.283-.466.469a8.236,8.236,0,0,0-1.381,1,2.912,2.912,0,0,0-.636.643,1.2,1.2,0,0,1-.326.321,2.987,2.987,0,0,0-.757.935,1.584,1.584,0,0,1-.294.457c-.125.108-.275.32-.506,1.094a3.607,3.607,0,0,0-.171,1.924,2.209,2.209,0,0,0,1.14,1.735,1.059,1.059,0,0,0,.887.694.76.76,0,0,1,.413.114,1.167,1.167,0,0,0,.8.219c.239-.016.444-.028.612-.043a.291.291,0,0,1,.221.074.907.907,0,0,0,.916.027,1.407,1.407,0,0,0,.557.121,1.323,1.323,0,0,0,.22-.019,1.3,1.3,0,0,1,.518,0,1.968,1.968,0,0,0,1.07-.181h.979a1.543,1.543,0,0,0,.883-.314,1.44,1.44,0,0,0,.783-.091c.158-.073.379-.155.661-.25a1.319,1.319,0,0,0,.934-.173,1.534,1.534,0,0,1,.444-.206,1.659,1.659,0,0,0,.9-.167,2.363,2.363,0,0,1,.472-.2c.154-.042.544-.169,1.167-.379a8.45,8.45,0,0,1,1.278-.36,6.955,6.955,0,0,0,1.1-.284c.324-.108.566-.182.724-.222a4.51,4.51,0,0,0,.961-.443,7.267,7.267,0,0,0,1.112-.319,1.514,1.514,0,0,0,.756-.736.83.83,0,0,0-.113-1.089,2.255,2.255,0,0,0-.687-.439" transform="translate(34.554 0.328)" fill="#f4ffc4" stroke="#f4ffc4" stroke-linejoin="round" stroke-width="0.4"/>
          <path id="パス_6535" data-name="パス 6535" d="M30.318,29.837a1.271,1.271,0,0,0-.852-.812,7.215,7.215,0,0,0-1.612-.24,9.635,9.635,0,0,0-1.453.037c-.311.024-.645.042-1,.054s-.81.03-1.324.055-1.234.072-2.154.147q-.824.064-1.4.1a4.759,4.759,0,0,0,.144-.785,5.017,5.017,0,0,0,.289-.9,10.471,10.471,0,0,0,.185-1.28l.395-.939a1.858,1.858,0,0,0,.048-1.018,1.4,1.4,0,0,0,.326-1.092.58.58,0,0,1,.046-.4,2.6,2.6,0,0,0,.191-.461c.751.02,1.288.042,1.647.062a6.593,6.593,0,0,1,1.315.068c.467.072.875.142,1.22.213s.6.132.779.19.4.141.748.285c.386.074.695.132.921.181a2.021,2.021,0,0,0,.745.04,1.09,1.09,0,0,0,.765-.6,1.573,1.573,0,0,0-.067-1.436.415.415,0,0,0-.081-.126,2.261,2.261,0,0,0-1.184-.654c-.33-.046-.695-.117-1.2-.223-.527,0-1.253-.036-2.158-.107q-1.416-.113-1.919-.111c-.2,0-.452-.016-.744-.045a3.02,3.02,0,0,1,.184-.591,2.039,2.039,0,0,0,.238-.719,9.017,9.017,0,0,1,.211-.891,2.438,2.438,0,0,0,.337-1.3,1.535,1.535,0,0,0,.4-.918c.152-.427.265-.793.342-1.095a1.98,1.98,0,0,1,.266-.624,4.685,4.685,0,0,0,.52-1.551,3.5,3.5,0,0,1,.4-.46,1.784,1.784,0,0,0,.409-.513,1.276,1.276,0,0,0-.051-1,1.764,1.764,0,0,0-.7-.933,1.849,1.849,0,0,0-.917-.205.433.433,0,0,0-.12.017,2.519,2.519,0,0,0-.777.336,1.483,1.483,0,0,0-.54.8c-.086.273-.241.85-.467,1.749l-.219.981q-.073.321-.488,1.815-.4,1.444-1.521,5.092-.475-.022-.92-.036c-.407-.015-1.009-.007-1.747.019a13.168,13.168,0,0,0-1.64-.092c-.218.012-.476.025-.777.037a9.189,9.189,0,0,1-.943-.019,6.424,6.424,0,0,1-1.146-.035c-.149-.012-.3-.019-.465-.02a33.2,33.2,0,0,1,1.088-3.351,23.511,23.511,0,0,1,1.147-2.5c.37-.675.785-1.34,1.165-1.9a4.416,4.416,0,0,0,.61-.648c.138-.182.251-.324.344-.427.365-.414.014-.981-.1-1.169a1.43,1.43,0,0,0-1.28-.686,1.425,1.425,0,0,0-1.222.529c-.162.219-.348.443-.613.751a2.978,2.978,0,0,0-.364,1.128.98.98,0,0,0-.418.507,4.147,4.147,0,0,1-.313.617.458.458,0,0,0-.056.163,2.794,2.794,0,0,1-.185.718,3.31,3.31,0,0,1-.337.574,1.986,1.986,0,0,0-.322,1.151c-.116.276-.262.609-.438,1a.748.748,0,0,0-.037.257.8.8,0,0,0-.347.614,3.176,3.176,0,0,1-.124.541,12.462,12.462,0,0,0-.543,1.4c-.06.27-.121.506-.18.708-.368.007-.74.024-1.114.053a10.25,10.25,0,0,1-1.061.036c-.284-.013-.553-.013-.811,0a1.97,1.97,0,0,0-.83.215.307.307,0,0,1-.2.049,1.614,1.614,0,0,0-.74.02q-.282.071-.775.157a8.163,8.163,0,0,0-1.172.307,2.729,2.729,0,0,0-.872.592,1.055,1.055,0,0,0-.2,1.132,1.792,1.792,0,0,0,.564.815,2.814,2.814,0,0,0,.693.411A1.443,1.443,0,0,0,5,23.48a.473.473,0,0,0,.129-.1,2.228,2.228,0,0,1,1.113-.644,8.6,8.6,0,0,1,1.77-.275q.69-.037,1.476-.049a1.109,1.109,0,0,0-.032.257,3.334,3.334,0,0,1-.089.644L9,24.142a1.251,1.251,0,0,0-.1.79,1.3,1.3,0,0,1-.169.487A4.325,4.325,0,0,0,8.07,27.16a7.542,7.542,0,0,1-.342,1.405,16.544,16.544,0,0,0-.487,1.663q-1.994.158-2.28.174a4.545,4.545,0,0,0-.712.1,6.137,6.137,0,0,1-.8.109q-1,.214-1.506.286a4.548,4.548,0,0,0-1.135.322A1.158,1.158,0,0,0,0,32.25a1.464,1.464,0,0,0,.177.877,1.352,1.352,0,0,0,.5.464,3.306,3.306,0,0,0,.724.258,1.265,1.265,0,0,0,1.12-.205,2.3,2.3,0,0,1,.47-.289,6.869,6.869,0,0,1,.9-.257c.45-.05.978-.137,1.576-.262.347-.071.691-.13,1.026-.175q-.315,1.136-.854,2.666a16.934,16.934,0,0,1-.912,2.463c-.166.515-.308,1.009-.428,1.481A4.629,4.629,0,0,0,3.8,40.545a1.513,1.513,0,0,1-.17.471,2.286,2.286,0,0,0-.307.892,5.938,5.938,0,0,0-.3.7,3.315,3.315,0,0,0-.486.926.748.748,0,0,1-.127.261,1.666,1.666,0,0,0-.262.885,2.45,2.45,0,0,0-.021.868,1.261,1.261,0,0,0,.75.91,1.8,1.8,0,0,0,.843.209,2.278,2.278,0,0,0,.486-.056,1.577,1.577,0,0,0,.9-1.482,4.925,4.925,0,0,0,.22-.979c.03-.247.065-.489.1-.729a2.251,2.251,0,0,0,.421-1.534,27.508,27.508,0,0,1,.916-3.256c.307-.829.513-1.435.616-1.8q.144-.523.726-2.348c.3-.937.524-1.613.677-2.022a4.711,4.711,0,0,0,.868-.036q.32-.052.816-.105a4.45,4.45,0,0,0,1.079-.271,1.068,1.068,0,0,0,.627.041c.158-.038.316-.083.472-.136a.808.808,0,0,1,.318-.033,4.33,4.33,0,0,0,.874-.055c.593-.022.971-.041,1.131-.055a3.271,3.271,0,0,1,.587.035,1.614,1.614,0,0,0,1.135-.329,6.732,6.732,0,0,0,.83.031c-.048.218-.091.4-.129.541a1.072,1.072,0,0,0-.24.943.783.783,0,0,1,.007.315,1.4,1.4,0,0,0-.28.8.456.456,0,0,1-.086.274,1.736,1.736,0,0,0-.275.923c.021.141.008.2.017.2a.963.963,0,0,0-.343.931.948.948,0,0,0-.169.771.968.968,0,0,0-.284.748c-.055.2-.118.394-.188.59a1.369,1.369,0,0,0-.425.821,7.567,7.567,0,0,1-.151.789l-.385.928a2.781,2.781,0,0,0-.2.693.655.655,0,0,1-.149.266,1.682,1.682,0,0,0-.93.19,2.691,2.691,0,0,0-.616.482,1.249,1.249,0,0,0-.18,1.184,2.843,2.843,0,0,0,.689,1.274,1.649,1.649,0,0,0,1.371.621,1.441,1.441,0,0,0,1.14-.583,4.743,4.743,0,0,0,.615-1.35c.17-.548.366-1.2.584-1.944q.474-1.489.8-2.508c.227-.7.362-1.17.415-1.431a4.8,4.8,0,0,1,.184-.666q.135-.384.232-.768.091-.363.62-2.359.467-1.765.779-2.849a1.088,1.088,0,0,1,.365-.007,1.729,1.729,0,0,0,.995-.2,2.159,2.159,0,0,0,1.045-.012,2.1,2.1,0,0,0,1.053.063,1.869,1.869,0,0,1,.793.03,1.8,1.8,0,0,0,1.034-.029,1.383,1.383,0,0,0,.935.1,1,1,0,0,0,.883.335c.136-.035.308-.07.513-.1a1.958,1.958,0,0,1,1.207.083,1.531,1.531,0,0,0,1.157-.154.906.906,0,0,0,.571-.928,4.4,4.4,0,0,0-.184-.713M19.839,22.2c-.135.765-.351,1.752-.644,2.945q-.553,2.254-.681,2.913a9.554,9.554,0,0,1-.381,1.311c-.928.107-2.147.211-3.631.31q-2.476.165-3.668.274c-.472.043-.887.074-1.24.09q.655-2.273,1.107-3.691.516-1.608.81-2.672a9.345,9.345,0,0,1,.543-1.5Q14.327,22.114,16,22.1c1.048-.017,2.336.022,3.839.1" transform="translate(0 -0.229)" fill="#f4ffc4" stroke="#f4ffc4" stroke-linejoin="round" stroke-width="0.4"/>
        </g>
      </g>
    </g>
  </g>
</svg>
