<svg xmlns="http://www.w3.org/2000/svg" width="84" height="78" viewBox="0 0 84 78">
  <path id="campaign_bird" d="M57.917,48.285a9.644,9.644,0,0,1,2.243,2.1A5.878,5.878,0,0,1,61.392,53.2a3.019,3.019,0,0,1-1.437,2.662,7.915,7.915,0,0,1,2.224,1.589c.75.625,1.807.939,2.172,1.689a5.78,5.78,0,0,1,.263,2.756,4.005,4.005,0,0,1-.842,2.465,7.59,7.59,0,0,1,2.568.552,9.3,9.3,0,0,1,1.98,1.812,6.012,6.012,0,0,1,1.711,2.1,3.753,3.753,0,0,1-.449,2.7,5.833,5.833,0,0,1-1.76,2.02,14.867,14.867,0,0,1-2.711,1.186c-.815.327-1.865.263-2.887.567-.885.261-1.73.871-2.731,1.1-.919.21-1.884.389-2.876.561-.943.164-1.941.072-2.927.193-.96.119-1.89.7-2.87.775s-1.969.06-2.944.072-1.969-.215-2.934-.27c-.992-.057-1.946-.3-2.895-.44a27.485,27.485,0,0,1-2.916-.334,18.714,18.714,0,0,1-2.778-.96,18.6,18.6,0,0,1-2.506-1.5A21.507,21.507,0,0,1,31.4,72.885a25.962,25.962,0,0,1-2.153-2c-.663-.708-.994-1.708-1.593-2.482s-1.5-1.324-2.034-2.14-.842-1.787-1.326-2.632-1.307-1.53-1.747-2.392c-.453-.886-.564-1.933-.967-2.8-.423-.911-.56-1.917-.936-2.785-.406-.935-1.123-1.61-1.482-2.463a15.88,15.88,0,0,1-2.895-.469,18.481,18.481,0,0,1-2.919-.3,24.386,24.386,0,0,1-2.822-.875c-.99-.365-1.858-.856-2.72-1.192a16.188,16.188,0,0,0-2.266-.314,6.339,6.339,0,0,0-2.2-.242c-1.369.072-1.584.875-2.85.346-1.251-.523.229-1.407.7-2.907a9,9,0,0,1,1.157-2.18,8.5,8.5,0,0,1,1.195-2.131,8.409,8.409,0,0,1,1.89-1.593,12.307,12.307,0,0,1,3.2-.744c1.056-.257,2.1-.7,3.154-.888a23.652,23.652,0,0,0,3.267-.631c.105-.943.379-1.938.464-2.892s-.085-1.923,0-2.875.222-1.9.314-2.843.453-1.87.571-2.809c.122-.954-.214-1.967-.051-2.9.167-.948.175-1.94.4-2.856.233-.933.744-1.8,1.06-2.684a24.519,24.519,0,0,1,.845-2.779,17.621,17.621,0,0,1,1.507-2.358A26.1,26.1,0,0,1,22,12c.6-.663,1.206-1.392,1.882-2.021S25.7,9.28,26.407,8.7s1.05-1.664,1.783-2.186c.765-.546,1.818-.622,2.566-1.086.817-.506,1.614-.929,2.373-1.321.937-.482,1.738-1.137,2.622-1.523.973-.423,1.8-1.124,2.707-1.438C39.467.8,40.5.661,41.421.433A23.11,23.11,0,0,1,44.457.214,18.936,18.936,0,0,1,47.449,0a10.776,10.776,0,0,1,2.987.287,3.954,3.954,0,0,1,2.057,2.125,4.147,4.147,0,0,1,.6,2.813,7.813,7.813,0,0,1-.738,3,13.864,13.864,0,0,1-2.39,2.39,5.831,5.831,0,0,1,2.925.571,6.784,6.784,0,0,1,1.849,1.989,7.324,7.324,0,0,1,.481,2.635,6.221,6.221,0,0,1-.212,2.571,8.159,8.159,0,0,1-1.514,2.371,3,3,0,0,1,1.924,2.369,4.806,4.806,0,0,1-.019,3.183,5.485,5.485,0,0,1-2.442,2.241,3.109,3.109,0,0,0,2.562,1.173,5.516,5.516,0,0,0,2.653-.8,17.327,17.327,0,0,0,2.75-1.525c.838-.676,1.773-1.288,2.483-1.97.941-.907,1.74-1.734,2.211-2.242.661-.71.992-1.649,1.593-2.252.688-.691,1.137-1.551,1.768-2.116A24.206,24.206,0,0,1,71.4,17.467a21.277,21.277,0,0,1,2.162-1.645,17.221,17.221,0,0,1,2.549-.922c.828-.3,1.734-.642,2.393-.289a2.277,2.277,0,0,1,.934,2.244A9.234,9.234,0,0,1,79,19.239c.821.028,1.221.765,1.524,1.73a4.836,4.836,0,0,1,.169,2.49,8.189,8.189,0,0,1-1.09,2.59c1.309-.325,2.375.019,2.822,1.031a5.638,5.638,0,0,1,.434,3.274,8,8,0,0,1-2,2.947c1.1.281,2.5.7,2.951,1.534.462.86-.006,1.9-.53,2.94a5.069,5.069,0,0,1-1.989,2.071,13.223,13.223,0,0,1-2.222,1.487c-.74.312-1.569.661-2.51.96-.787.249-1.6.712-2.53.943-.819.2-1.694.474-2.628.657-1.031.2-2.13-.181-3.1-.072-1.061.117-2.055.4-3.011.487a26.414,26.414,0,0,0-2.953.707c-1.129.21-2.222.06-2.955.6a4.057,4.057,0,0,0-1.462,2.667" transform="translate(0)" fill="#f4ffc4"/>
</svg>
