<svg xmlns="http://www.w3.org/2000/svg" width="112.696" height="90.473" viewBox="0 0 112.696 90.473">
  <g id="campaign_step1" transform="translate(-312.822 -11090.598)">
    <g id="グループ_2682" data-name="グループ 2682" transform="translate(36.398 19)">
      <path id="パス_6074" data-name="パス 6074" d="M-13.9-22.781q.773,1.055.686,1.441t-.141.7a.725.725,0,0,1-.3.492q-.387.7-.826.738a.94.94,0,0,1-.791-.352.9.9,0,0,1-.281-.773q.141-.246.281-.475a1.014,1.014,0,0,0,0-.756,6.774,6.774,0,0,0-1.406-1.2,6.926,6.926,0,0,0-1.055-.492,10.393,10.393,0,0,0-1.2-.334,5.345,5.345,0,0,0-1.09-.158,3.4,3.4,0,0,1-.844-.035,1.116,1.116,0,0,1-.738-.035,1.316,1.316,0,0,0-.65.158.913.913,0,0,1-.51.141.684.684,0,0,0-.492.176,1.536,1.536,0,0,1-.7.3.788.788,0,0,1-.369.053.3.3,0,0,0-.3.141,1.026,1.026,0,0,1-.51.3,1.788,1.788,0,0,0-.545.264,1.042,1.042,0,0,1-.334.193.625.625,0,0,0-.316.264.636.636,0,0,1-.51.229.826.826,0,0,1-.7.422q-.457.492-.615.686a1.216,1.216,0,0,1-.4.316.52.52,0,0,0-.3.352,1.557,1.557,0,0,1-.316.563,1.621,1.621,0,0,0-.334.686l-.035.633q-.035.035.035.4a1.369,1.369,0,0,0,.563.756,18.6,18.6,0,0,0,3.34,2.18q1.793.914,3.621,2,.949.563,1.934,1.2a18.357,18.357,0,0,1,1.828,1.336A6.132,6.132,0,0,1-16.8-8.525a3.276,3.276,0,0,1,.387,2.2,3.97,3.97,0,0,1-.492,1.564,4.355,4.355,0,0,0-.439.7.751.751,0,0,1-.492.4,2.172,2.172,0,0,0-.51.457,1.665,1.665,0,0,1-.51.422,1.981,1.981,0,0,1-.615.229,1.037,1.037,0,0,0-.475.193q-.176.141-.316.264t-.6.018q-.035.316-.562.281-.984.316-1.582.457-1.3.176-2.566.387a10.09,10.09,0,0,0-1.2,0,.428.428,0,0,1-.475.053.479.479,0,0,0-.439-.035,1.5,1.5,0,0,1-.7.018,4.442,4.442,0,0,1-.844-.211,2.73,2.73,0,0,1-1.3-.387,2.7,2.7,0,0,1-1.037-.932,3.267,3.267,0,0,1-.439-1.107,3.2,3.2,0,0,1-.176-.9,4.979,4.979,0,0,1,.035-.615.864.864,0,0,1,.264-.51.689.689,0,0,1,.492-.229,2.683,2.683,0,0,1,.527.053.749.749,0,0,1,.439.264.7.7,0,0,1,.105.6,3.666,3.666,0,0,0-.07.721,2.554,2.554,0,0,0,.088.686,1.45,1.45,0,0,0,.51.668,4.708,4.708,0,0,0,2.813.6A16.756,16.756,0,0,0-23.586-2.5a12.524,12.524,0,0,0,2.619-.879,8.058,8.058,0,0,0,2.039-1.266,3.234,3.234,0,0,0,.949-1.494A2.17,2.17,0,0,0-18-7.506a6.134,6.134,0,0,0-.545-1.072q-.352-.281-.686-.6t-.58-.6a1.246,1.246,0,0,0-.439-.4,1.071,1.071,0,0,1-.316-.176.559.559,0,0,0-.352-.123.372.372,0,0,1-.316-.176,1.589,1.589,0,0,0-.4-.369q-.281-.193-1.266-.756a.8.8,0,0,1-.492-.281.8.8,0,0,0-.492-.281q-.422,0-.439-.141t-.264-.264a1.262,1.262,0,0,0-.439-.141q-.193-.018-.369-.3a.633.633,0,0,1-.562-.211,5.2,5.2,0,0,1-.773-.422,1.5,1.5,0,0,1-.773-.457,6.367,6.367,0,0,1-2.127-1.248,4.373,4.373,0,0,1-1.3-2.039A2.73,2.73,0,0,1-30.6-19.9a9.312,9.312,0,0,1,2-2.285,13.52,13.52,0,0,1,2.619-1.687,12.762,12.762,0,0,1,2.813-1.02,14.6,14.6,0,0,1,1.934-.352,9.287,9.287,0,0,1,1.143,0,11.616,11.616,0,0,1,1.9.141,8.5,8.5,0,0,1,1.318.369q.369.158,1.336.686A6.151,6.151,0,0,1-13.9-22.781Zm8.916,7.84q-.7,2.039-1.2,3.832t-.7,2.689q-.211.9-.334,1.424T-7.552-5.52a4.062,4.062,0,0,0,.018.9,2.866,2.866,0,0,1,.053.563,1.011,1.011,0,0,0,.246.615.69.69,0,0,0,.9.387,7.473,7.473,0,0,0,1.072-.387,9.987,9.987,0,0,0,.984-.58,1,1,0,0,1,.932-.211,3.2,3.2,0,0,1,.545.281.6.6,0,0,1,.229.4.589.589,0,0,1-.088.475,1.211,1.211,0,0,1-.387.334q-.492.246-1.072.492t-1.318.615a3.27,3.27,0,0,1-1.723.3,4.233,4.233,0,0,1-.879-.58,3.37,3.37,0,0,1-.668-.791.556.556,0,0,1-.105-.439A.826.826,0,0,0-8.87-3.6a1.5,1.5,0,0,1-.018-.721.4.4,0,0,1-.105-.457,1.5,1.5,0,0,0,.141-.475,3.038,3.038,0,0,1,.105-.492,3.533,3.533,0,0,0,.105-.721q.105-.668.809-3.393T-6.462-14.8a18.792,18.792,0,0,0-1.951.053,2.611,2.611,0,0,1-.791-.018,1.8,1.8,0,0,1-.844.211.771.771,0,0,0-.527.123,2.257,2.257,0,0,1-1.055.158,1.769,1.769,0,0,1-1.107.563,4.168,4.168,0,0,1-.861-.176,1.429,1.429,0,0,1-.264-.861.834.834,0,0,1,.316-.668,2.08,2.08,0,0,1,.9-.334q.844-.176,2.936-.369t3.6-.229a3.808,3.808,0,0,0,.176-.51q.035-.158.105-.58a1.374,1.374,0,0,1,.352-.949,2.547,2.547,0,0,1,0-.6,1.187,1.187,0,0,1,.246-.562,1.138,1.138,0,0,1,.141-.65,4.783,4.783,0,0,0,.281-.439,3.577,3.577,0,0,1,.246-1.371,4.984,4.984,0,0,1,.246-1.02q.141-.352.281-.738a.945.945,0,0,1,.457-.387l.457-.07a.68.68,0,0,1,.6.4q.176.369.264.58t-.369.844q-.176.387-.281.58a7.024,7.024,0,0,0-.316.756A4.892,4.892,0,0,1-3.526-20q-.193.457-.967,3.516,1.3.035,1.775.035T-.2-16.488a9.853,9.853,0,0,1,1.2,0,1.187,1.187,0,0,1,.65.246.694.694,0,0,1,.211.668.633.633,0,0,1-.369.58,4.821,4.821,0,0,1-.721.211,1.986,1.986,0,0,1-.932-.053,4.064,4.064,0,0,0-1.09-.07,12.876,12.876,0,0,0-1.705-.088Q-3.72-14.977-4.985-14.941ZM16.868-4.359a6.036,6.036,0,0,0-.738.211,2.566,2.566,0,0,0-.475.229,1.489,1.489,0,0,1-.65.158.771.771,0,0,0-.475.193q-.158.158-.65.053a2.028,2.028,0,0,1-1.02.281,1.038,1.038,0,0,1-.668.422q-.281,0-.633.035a1.6,1.6,0,0,0-.826.176q-.158.141-.58-.035a1.35,1.35,0,0,1-1.125.176,1.461,1.461,0,0,1-.809.193,1,1,0,0,0-.527.035,1.639,1.639,0,0,1-.738.018q-.668.035-.844-.141-.422-.035-.7-.035a1.058,1.058,0,0,1-.51-.123l-.791-.422a3.439,3.439,0,0,1-1.02-.844,3.124,3.124,0,0,1-.633-1.178,3.37,3.37,0,0,1-.123-1.371,4.666,4.666,0,0,1,.545-1.9,2.882,2.882,0,0,0-.861-.3,1.543,1.543,0,0,1-.826-.439A1.37,1.37,0,0,1,.8-9.773a.926.926,0,0,1,.3-.756.931.931,0,0,1,.967-.158,2.8,2.8,0,0,0,.51.334q.193.088.334.158a4.823,4.823,0,0,0,.6.211,10.561,10.561,0,0,1,.809-1.441,9.19,9.19,0,0,1,1.23-1.635,21.057,21.057,0,0,1,1.775-1.67,10.8,10.8,0,0,1,2.215-1.459,7.8,7.8,0,0,1,1.74-.686q.387-.035.844-.035.422.035.809.053a2.234,2.234,0,0,1,.791.193,1.662,1.662,0,0,1,.563.352q.158.176.65.633a3.038,3.038,0,0,1,.51,1.688,2.2,2.2,0,0,1-.3,1.23,3.2,3.2,0,0,1-.492.563q-.211.176-.545.51a2.072,2.072,0,0,1-.686.475,3.011,3.011,0,0,1-.932.738.627.627,0,0,0-.387.264.558.558,0,0,1-.439.229,3.175,3.175,0,0,0-.6.123.916.916,0,0,0-.422.246,1.24,1.24,0,0,1-.633.264.586.586,0,0,1-.457.264.616.616,0,0,0-.439.193q-.158.176-.475.035a.79.79,0,0,1-.7.369.9.9,0,0,0-.633.123q-1.266.105-2.883.246a4.822,4.822,0,0,0-.6,1.828,4.56,4.56,0,0,0,.088.984,1.437,1.437,0,0,0,.615.773,5.769,5.769,0,0,0,1.055.563,3.442,3.442,0,0,0,1.441.158q.914-.053,1.406-.053.457-.07.949-.141t1.793-.281a12.233,12.233,0,0,0,2.215-.545q.914-.334,1.863-.65.914-.387,1.389-.615a1.223,1.223,0,0,1,.861-.123.655.655,0,0,1,.492.475,1.257,1.257,0,0,1,.035.65.89.89,0,0,1-.439.51A1.367,1.367,0,0,1,16.868-4.359Zm-5.8-10.863-.984.369a7.231,7.231,0,0,0-.668.281,11.924,11.924,0,0,0-1.125.756,2.689,2.689,0,0,0-.527.615,1.223,1.223,0,0,1-.7.475,1.1,1.1,0,0,1-.439.563.447.447,0,0,0-.246.422.406.406,0,0,1-.281.4,1.064,1.064,0,0,0-.51.58,4.721,4.721,0,0,1-.6.914,2.035,2.035,0,0,0,1.143.088q.545-.123,2.18-.58a12.352,12.352,0,0,0,2.672-1.037,11,11,0,0,0,1.424-.9,9.954,9.954,0,0,0,.914-.879,1.08,1.08,0,0,0,.4-.615,1.327,1.327,0,0,0-.088-.809.957.957,0,0,0-.668-.58,3.29,3.29,0,0,0-.9-.141A8.832,8.832,0,0,0,11.067-15.223ZM21.213,3.586a.58.58,0,0,1,.211.844.885.885,0,0,1-.809.492A2.115,2.115,0,0,1,19.1,4.078a2.685,2.685,0,0,1-.562-1.67A15.189,15.189,0,0,1,18.647.6q.141-.949.229-1.582t.316-1.758q.229-1.125.334-2.039a4.7,4.7,0,0,1-1.037-.229,1.57,1.57,0,0,1-.756-.615,1.162,1.162,0,0,1-.387-.686,3.235,3.235,0,0,1-.035-.826.677.677,0,0,1,.422-.6,1.932,1.932,0,0,1,.809-.176q.422,0,.492.984a.562.562,0,0,0,.264.439,5.371,5.371,0,0,0,.721.229q1.09-4.535,1.389-5.73a19.991,19.991,0,0,0,.439-2.285,4.582,4.582,0,0,1-1-.246.76.76,0,0,1-.4-.668,1.2,1.2,0,0,1,.176-.879,1.9,1.9,0,0,1,.668-.58,5.361,5.361,0,0,0,.738-.475q.105-.422.211-.809a1.392,1.392,0,0,1,.352-.633,1.392,1.392,0,0,1,.633-.352,1.805,1.805,0,0,1,.879.211,2.775,2.775,0,0,1,.773.7,19.937,19.937,0,0,1,2.865.123,9.138,9.138,0,0,1,2.479.668,4.048,4.048,0,0,1,1.846,1.494,4.037,4.037,0,0,1,.668,2.215,5.342,5.342,0,0,1-.686,2.566,9.3,9.3,0,0,1-2.355,2.707,15.288,15.288,0,0,1-3.8,2.285,17.87,17.87,0,0,1-5.1,1.23q-.211,1.266-.527,2.76a18.767,18.767,0,0,0-.387,3.041,5.47,5.47,0,0,0,.053.738,4.6,4.6,0,0,0,.176.773,1.066,1.066,0,0,0,.457.6Q20.9,3.41,21.213,3.586Zm.07-9.914a9.233,9.233,0,0,0,2.461-.281,10.3,10.3,0,0,0,2.145-.738,12.282,12.282,0,0,0,1.336-.721q.457-.3,1.02-.65a5.528,5.528,0,0,0,.984-.844,1.2,1.2,0,0,1,.7-.562q.316-.422.563-.773a3.312,3.312,0,0,1,.527-.6,4.228,4.228,0,0,1,.211-.773.845.845,0,0,0,.053-.51,2.62,2.62,0,0,1,.053-.861,1.353,1.353,0,0,1-.281-.668.7.7,0,0,0-.176-.457,2.089,2.089,0,0,0-.475-.4,1.6,1.6,0,0,1-.457-.422,2.116,2.116,0,0,0-.773-.527,6.463,6.463,0,0,0-2.021-.439,8.01,8.01,0,0,0-3.129.387,9.65,9.65,0,0,0-.633,1.617,4.212,4.212,0,0,0-.229,1.107,1.811,1.811,0,0,1-.193.756,1.862,1.862,0,0,1-.316.914,1.366,1.366,0,0,1-.316,1.2,2.534,2.534,0,0,0-.07.615,1.586,1.586,0,0,1-.141.65A.5.5,0,0,1,22-8.895a1.2,1.2,0,0,0-.229.6,9.054,9.054,0,0,1-.264.967A5.432,5.432,0,0,0,21.284-6.328Z" transform="matrix(0.998, -0.07, 0.07, 0.998, 322.348, 11120.091)" fill="#006a12"/>
      <path id="パス_6074_-_アウトライン" data-name="パス 6074 - アウトライン" d="M-20.673-26.26c.2,0,.406.006.614.018a12.62,12.62,0,0,1,2.034.154l.053.01a9.086,9.086,0,0,1,1.5.426c.278.119.742.357,1.421.727a7.175,7.175,0,0,1,1.9,1.473l.034.038.03.041c.741,1.011.989,1.664.854,2.254-.054.238-.1.455-.129.646a1.726,1.726,0,0,1-.507.978A2,2,0,0,1-14.4-18.409c-.051,0-.1.006-.152.006a1.934,1.934,0,0,1-1.458-.682,1.856,1.856,0,0,1-.525-1.625l.031-.169.085-.149c.058-.1.116-.2.175-.3a4.766,4.766,0,0,0-.922-.759,5.965,5.965,0,0,0-.9-.422,9.461,9.461,0,0,0-1.079-.3,4.711,4.711,0,0,0-.838-.133,4.4,4.4,0,0,1-.847-.021,2.119,2.119,0,0,1-.878-.032l-.031.005a1.9,1.9,0,0,1-.928.273,2.585,2.585,0,0,1-.988.434,1.776,1.776,0,0,1-.406.091,2.385,2.385,0,0,1-.741.39,1.957,1.957,0,0,0-.248.1,2.022,2.022,0,0,1-.495.3,1.464,1.464,0,0,1-.751.51,1.789,1.789,0,0,1-.737.44c-.2.22-.3.333-.347.392a2.179,2.179,0,0,1-.574.492,2.8,2.8,0,0,1-.435.725.748.748,0,0,0-.126.215l-.032.58c0,.021.008.047.014.08a1.065,1.065,0,0,0,.206.2l.015.012a17.68,17.68,0,0,0,3.161,2.063c1.209.616,2.447,1.3,3.679,2.036.638.378,1.3.787,1.962,1.213a19.445,19.445,0,0,1,1.928,1.409,7.156,7.156,0,0,1,1.656,2.02,4.267,4.267,0,0,1,.5,2.85A4.7,4.7,0,0,1-16.1-4.169a3.347,3.347,0,0,0-.339.535,1.715,1.715,0,0,1-.931.874,1.039,1.039,0,0,0-.189.18,2.665,2.665,0,0,1-.81.678,2.984,2.984,0,0,1-.927.339.475.475,0,0,0-.051.012c-.094.076-.18.148-.255.213a1.314,1.314,0,0,1-.83.312,1.571,1.571,0,0,1-.843.237c-.613.194-1.1.335-1.5.427l-.047.011-.048.006c-.853.115-1.706.244-2.536.382l-.106.018L-25.623.05c-.336-.017-.633-.021-.884-.011a1.457,1.457,0,0,1-.562.116,1.323,1.323,0,0,1-.473-.087,2.143,2.143,0,0,1-.479.05,3.381,3.381,0,0,1-.517-.043,5.594,5.594,0,0,1-.876-.205,3.85,3.85,0,0,1-1.6-.5,3.7,3.7,0,0,1-1.408-1.285,4.3,4.3,0,0,1-.558-1.386,4,4,0,0,1-.2-1.141,6,6,0,0,1,.043-.739,1.869,1.869,0,0,1,.549-1.093,1.669,1.669,0,0,1,1.2-.521,3.7,3.7,0,0,1,.723.072,1.752,1.752,0,0,1,1.012.6,1.658,1.658,0,0,1,.321,1.417l0,.017a2.68,2.68,0,0,0-.051.525,1.605,1.605,0,0,0,.044.39,1.051,1.051,0,0,0,.187.19,3.823,3.823,0,0,0,2.179.371,15.876,15.876,0,0,0,3.184-.259,11.582,11.582,0,0,0,2.41-.81,7.164,7.164,0,0,0,1.776-1.09,2.267,2.267,0,0,0,.663-1.019,1.231,1.231,0,0,0,.018-.747,5.256,5.256,0,0,0-.376-.769c-.208-.172-.414-.354-.612-.542-.244-.231-.461-.455-.645-.665l-.028-.034c-.052-.065-.089-.107-.114-.133a2.079,2.079,0,0,1-.367-.2,1.379,1.379,0,0,1-.976-.587A.967.967,0,0,0-22.2-10.2c-.088-.061-.348-.226-1.1-.655a1.765,1.765,0,0,1-.811-.5,1.286,1.286,0,0,1-1.037-.542,1.349,1.349,0,0,1-.757-.348,1.5,1.5,0,0,1-.656-.333,6.306,6.306,0,0,1-.618-.338,2.6,2.6,0,0,1-.895-.506A7.373,7.373,0,0,1-30.3-14.773a5.378,5.378,0,0,1-1.594-2.5,3.751,3.751,0,0,1,.443-3.159,10.349,10.349,0,0,1,2.216-2.527,14.584,14.584,0,0,1,2.812-1.812,13.82,13.82,0,0,1,3.033-1.1A14.969,14.969,0,0,1-21.3-26.24C-21.093-26.253-20.884-26.26-20.673-26.26Zm17.516,1.031.118.01a1.686,1.686,0,0,1,1.417.971c.125.264.218.468.284.625a1.819,1.819,0,0,1-.422,1.731c-.11.239-.2.421-.273.557a5.344,5.344,0,0,0-.227.546,5.811,5.811,0,0,1-.345,1.175c-.032.075-.162.442-.607,2.156.208,0,.374.005.495.005.308,0,1.144-.012,2.483-.035.277-.012.524-.018.733-.018.232,0,.422.007.583.022a2.174,2.174,0,0,1,1.185.461,1.659,1.659,0,0,1,.58,1.563,1.623,1.623,0,0,1-1,1.4,5.84,5.84,0,0,1-.871.256A2.961,2.961,0,0,1-.4-13.862a3.125,3.125,0,0,0-.8-.046l-.085,0-.084-.009a11.922,11.922,0,0,0-1.571-.082l-1.322.034c-.366,1.094-.686,2.14-.954,3.116-.323,1.178-.557,2.071-.694,2.654s-.252,1.071-.334,1.422c-.077.331-.183.8-.313,1.385a3.016,3.016,0,0,0,0,.566,3.85,3.85,0,0,1,.072.708.483.483,0,0,0,.029.043A6.173,6.173,0,0,0-5.7-4.347a9.167,9.167,0,0,0,.869-.515,2.25,2.25,0,0,1,1.241-.422,1.6,1.6,0,0,1,.633.128,4.04,4.04,0,0,1,.724.381,1.577,1.577,0,0,1,.638,1.039,1.569,1.569,0,0,1-.262,1.247,2.206,2.206,0,0,1-.7.614l-.049.026c-.345.173-.725.347-1.129.518-.366.155-.79.353-1.262.589a4.27,4.27,0,0,1-2.241.4l-.2-.014-.178-.089A5.253,5.253,0,0,1-8.7-1.159a4.374,4.374,0,0,1-.84-.981,1.544,1.544,0,0,1-.274-1.121,1.987,1.987,0,0,1-.1-.835,1.321,1.321,0,0,1,.026-1.132.513.513,0,0,0,.044-.16A4.054,4.054,0,0,1-9.7-6.042a2.643,2.643,0,0,0,.064-.5l0-.043.007-.042c.076-.481.347-1.622.828-3.486.337-1.306.671-2.537,1-3.675-.313.009-.414.02-.441.024a3.151,3.151,0,0,1-.822.02,2.408,2.408,0,0,1-1.028.188,2.558,2.558,0,0,1-1.177.273,2.4,2.4,0,0,1-1.421.572c-.044,0-.089,0-.132-.006a5.186,5.186,0,0,1-1.069-.216l-.34-.1-.2-.3a2.413,2.413,0,0,1-.431-1.456,1.81,1.81,0,0,1,.708-1.422,2.992,2.992,0,0,1,1.315-.522c.607-.125,1.6-.25,3.033-.383,1.091-.1,2.077-.17,2.943-.208.009-.05.019-.11.031-.18a2.228,2.228,0,0,1,.337-1.167,3.355,3.355,0,0,1,.025-.439,2.065,2.065,0,0,1,.253-.754,1.829,1.829,0,0,1,.317-.923q.048-.066.1-.143a4.5,4.5,0,0,1,.269-1.345A5.576,5.576,0,0,1-5.246-23.4c.089-.223.18-.462.27-.709l.029-.08.042-.074a1.925,1.925,0,0,1,.919-.8l.122-.054Zm26.24,5.315h.134a2.8,2.8,0,0,1,1.358.333l.045.026a3.816,3.816,0,0,1,.7.549h.118a19.959,19.959,0,0,1,2.422.137,10.181,10.181,0,0,1,2.748.741,5.048,5.048,0,0,1,2.288,1.863,5.04,5.04,0,0,1,.834,2.752,6.349,6.349,0,0,1-.8,3.046,10.317,10.317,0,0,1-2.6,3.011,16.358,16.358,0,0,1-4.043,2.436,18.155,18.155,0,0,1-4.632,1.213c-.117.649-.254,1.34-.407,2.064a17.85,17.85,0,0,0-.365,2.856,4.529,4.529,0,0,0,.044.581,3.615,3.615,0,0,0,.138.605c.012.039.02.044.038.055.206.13.408.25.6.358l.05.028.046.033a1.57,1.57,0,0,1,.5,2.154,1.875,1.875,0,0,1-1.677,1H20.56l-.055-.006a3.13,3.13,0,0,1-2.2-1.232,3.675,3.675,0,0,1-.767-2.276,16.264,16.264,0,0,1,.113-1.93l0-.027c.093-.626.169-1.156.227-1.573.062-.447.169-1.042.327-1.819q.106-.521.185-1a2.539,2.539,0,0,1-.281.2A2.4,2.4,0,0,1,17-3.364a4.6,4.6,0,0,0-.522.152,1.575,1.575,0,0,0-.289.136,2.3,2.3,0,0,1-1.058.307,1.425,1.425,0,0,1-.914.3c-.057,0-.116,0-.177-.007a3.008,3.008,0,0,1-.747.214,1.69,1.69,0,0,1-1.1.454c-.154,0-.333.01-.533.03l-.047,0a2.92,2.92,0,0,0-.361.036,1.282,1.282,0,0,1-.711.2,1.632,1.632,0,0,1-.311-.031,2.3,2.3,0,0,1-1.107.153,2.042,2.042,0,0,1-1.087.133l-.017,0a2.417,2.417,0,0,1-1.109.075l-.165,0A2.308,2.308,0,0,1,5.8-1.376c-.154-.01-.286-.015-.4-.015a2.052,2.052,0,0,1-.984-.243l-.786-.419A4.448,4.448,0,0,1,2.321-3.137a4.141,4.141,0,0,1-.815-1.5,4.326,4.326,0,0,1-.173-1.748A5.315,5.315,0,0,1,1.55-7.611,2.539,2.539,0,0,1,.481-8.258L.448-8.292a2.349,2.349,0,0,1-.643-1.4,1.912,1.912,0,0,1,.588-1.546,1.758,1.758,0,0,1,1.273-.512,2.509,2.509,0,0,1,.669.1l.19.053.156.121a1.96,1.96,0,0,0,.31.213l.042.019q.194-.339.433-.707a10.251,10.251,0,0,1,1.35-1.791,22.15,22.15,0,0,1,1.86-1.75A11.85,11.85,0,0,1,9.1-17.087a8.434,8.434,0,0,1,2-.771l.047-.009.047,0c.287-.026.6-.039.934-.039h.042l.041,0c.267.022.527.039.771.05a3.238,3.238,0,0,1,1.144.275,2.54,2.54,0,0,1,.907.6c.048.053.188.2.588.569l.1.09.07.113a4.032,4.032,0,0,1,.662,2.238,3.1,3.1,0,0,1-.49,1.8,4.106,4.106,0,0,1-.661.743c-.08.067-.228.2-.478.449a3.2,3.2,0,0,1-.816.6,3.4,3.4,0,0,1-1.149.837,1.566,1.566,0,0,1-1.075.551,2.19,2.19,0,0,0-.41.084l-.02.007a1.826,1.826,0,0,1-.812.448,1.561,1.561,0,0,1-.8.352,1.282,1.282,0,0,1-.769.3,1.622,1.622,0,0,1-.945.314A1.531,1.531,0,0,1,7.8-7.5l-.174.109-.241.02c-.684.057-1.455.123-2.3.2a2.659,2.659,0,0,0-.265.882,3.735,3.735,0,0,0,.057.733,1.018,1.018,0,0,0,.221.206,4.777,4.777,0,0,0,.852.453,2,2,0,0,0,.72.1c.092,0,.19,0,.293-.009.589-.034,1.043-.052,1.386-.054.284-.043.582-.087.886-.131.32-.046.917-.139,1.774-.278a11.309,11.309,0,0,0,2.032-.5c.6-.22,1.226-.438,1.853-.647.574-.243,1.014-.438,1.309-.58l.1-.045q0-.087.011-.174a1.681,1.681,0,0,1,1-1.425,2.935,2.935,0,0,1,1.222-.265,1.321,1.321,0,0,1,.981.438c.456-1.892.763-3.153.914-3.758.108-.434.2-.859.277-1.273q-.14-.045-.257-.094a1.71,1.71,0,0,1-1.007-1.457A2.188,2.188,0,0,1,19.8-16.64a2.9,2.9,0,0,1,1.011-.886q.18-.1.336-.2c.042-.16.083-.317.125-.469a2.384,2.384,0,0,1,.609-1.077,2.384,2.384,0,0,1,1.077-.609Zm.514,2.078a.736.736,0,0,0-.235-.069.283.283,0,0,0-.071.05.425.425,0,0,0-.094.189c-.068.25-.137.515-.206.788l-.084.335-.272.212a6.384,6.384,0,0,1-.876.565.914.914,0,0,0-.325.274.258.258,0,0,0-.01.115,5.567,5.567,0,0,0,.577.117l.537.085a10.658,10.658,0,0,1,.593-1.443L23.323-17l.41-.125q.224-.069.445-.127L24.07-17.4A1.762,1.762,0,0,0,23.6-17.836Zm5.561,2.856a2.432,2.432,0,0,0-.418-.24,5.406,5.406,0,0,0-1.684-.344,6.661,6.661,0,0,0-2.318.229,8.759,8.759,0,0,0-.384,1.06,4.935,4.935,0,0,0-.189.789,2.518,2.518,0,0,1-.213,1.042,2.829,2.829,0,0,1-.251.847,2.516,2.516,0,0,1-.417,1.393,1.779,1.779,0,0,0-.015.238,2.565,2.565,0,0,1-.137.827,1.48,1.48,0,0,1-.335.859,1.1,1.1,0,0,0-.034.149l-.009.045c-.049.23-.107.459-.172.685q.453-.064.927-.179a9.378,9.378,0,0,0,1.934-.661l.014-.007a11.427,11.427,0,0,0,1.221-.656c.305-.2.65-.419,1.024-.653a4.521,4.521,0,0,0,.732-.618,2.194,2.194,0,0,1,.862-.767c.139-.188.266-.365.38-.528A4.574,4.574,0,0,1,30.109-12a4.222,4.222,0,0,1,.188-.62,2.8,2.8,0,0,1,0-.813,1.981,1.981,0,0,1-.234-.741,1.393,1.393,0,0,0-.2-.152A2.632,2.632,0,0,1,29.158-14.98Zm-16.446.8-.021-.007a2.321,2.321,0,0,0-.622-.1,7.349,7.349,0,0,0-.767.05l-.869.326a6.173,6.173,0,0,0-.572.239,10.651,10.651,0,0,0-.941.639,1.611,1.611,0,0,0-.3.344,1.967,1.967,0,0,1-.856.756,1.975,1.975,0,0,1-.427.494,1.477,1.477,0,0,1-.13.374l.827-.229a11.438,11.438,0,0,0,2.453-.947,9.751,9.751,0,0,0,1.279-.8,9.042,9.042,0,0,0,.818-.789l.054-.057.062-.048c.039-.03.042-.043.045-.058A.4.4,0,0,0,12.712-14.184Z" transform="matrix(0.998, -0.07, 0.07, 0.998, 322.348, 11120.091)" fill="#006a12"/>
      <path id="パス_6075" data-name="パス 6075" d="M-2.492-11.382a2.228,2.228,0,0,1-.246,1.6,2.9,2.9,0,0,1-.154,1.477A1.976,1.976,0,0,0-3.076-7.26a.859.859,0,0,1-.092.646,2.255,2.255,0,0,0-.154,1.046,3.378,3.378,0,0,1-.215,1.323,1.867,1.867,0,0,1,0,.954q-.123.4.215.523t.892.338q.554.215.492,1.015A2.969,2.969,0,0,1-2.4,0,2.714,2.714,0,0,1-3.722.984a5.192,5.192,0,0,1-1.6-.431A1.769,1.769,0,0,1-6.4-.738a5.254,5.254,0,0,1-.154-1.63,6.292,6.292,0,0,1,.308-1.446,1.654,1.654,0,0,1,.369-1.538,5.275,5.275,0,0,1,.062-1.354,5.967,5.967,0,0,0,.492-1.723q.369-1.354.615-2.246t.677-2.276Q-3.6-14.335-2.646-18t2.215-7.567q1.261-3.907,2.307-7.26T3.784-39.19Q1.692-37.529.615-36.606t-2.492,2.338a11.136,11.136,0,0,1-1.292,1.046,7.313,7.313,0,0,1-.954.554,1.88,1.88,0,0,1-1.354-.215,1.188,1.188,0,0,1-.769-1.446,1.792,1.792,0,0,1,.677-1.323q.492-.277,1.354-.831a7.5,7.5,0,0,1,1.046-.984A4.5,4.5,0,0,1-2-38.083a18.632,18.632,0,0,1,3.63-2.953q.861-.677,1.323-1.077a6.423,6.423,0,0,0,.954-1.077,8.8,8.8,0,0,1,1.784-1.046q.615-.062.984-.062A6.27,6.27,0,0,1,7.6-43.8a1.633,1.633,0,0,1,.554,1.015,2.074,2.074,0,0,1-.369,1.63q-.431,1.169-.615,1.538a3.4,3.4,0,0,0-.277,1.015,1.415,1.415,0,0,1-.338.861,6.11,6.11,0,0,0-.738.892A1.267,1.267,0,0,1,5.26-35.5a1.075,1.075,0,0,1-.338.923.548.548,0,0,0-.246.615,1.138,1.138,0,0,1-.092.769q-.185.4-.615,1.138a1.429,1.429,0,0,1-.092,1.015,3.844,3.844,0,0,0-.4,1.015,7.1,7.1,0,0,1-.584,1.446,2.053,2.053,0,0,0-.308.923,2.955,2.955,0,0,1-.308,1.046q-.277.584-.523,1.2a3.04,3.04,0,0,1-.308,1.323,2.157,2.157,0,0,0-.308.769q-.062.369-.246,1.169a4.555,4.555,0,0,0-.8,2.215,2.556,2.556,0,0,0-.615,1.415,2.882,2.882,0,0,1-.215,1.107,1.707,1.707,0,0,0-.215.646,2.48,2.48,0,0,1-.277.8,1.309,1.309,0,0,0-.031,1.015A5.087,5.087,0,0,0-1.692-13.1a1.621,1.621,0,0,0-.338.984Q-2.061-11.5-2.492-11.382Z" transform="matrix(0.998, -0.07, 0.07, 0.998, 375.344, 11117.426)" fill="#006a12"/>
      <path id="パス_6075_-_アウトライン" data-name="パス 6075 - アウトライン" d="M-3.57,2l-.235-.02a6.2,6.2,0,0,1-1.91-.508A2.764,2.764,0,0,1-7.372-.511a6.263,6.263,0,0,1-.176-1.944,7.177,7.177,0,0,1,.266-1.389,2.586,2.586,0,0,1,.388-1.774A7,7,0,0,1-6.8-6.858L-6.781-7l.059-.128a5,5,0,0,0,.409-1.436l.009-.066.018-.065c.246-.9.453-1.659.616-2.248s.4-1.378.686-2.307c.281-.9.743-2.586,1.371-5,.638-2.447,1.388-5.012,2.231-7.623.836-2.589,1.611-5.029,2.3-7.25.349-1.118.684-2.214,1-3.282q-.369.306-.659.555c-.7.6-1.514,1.365-2.435,2.286l-.031.03a11.989,11.989,0,0,1-1.413,1.141,8.2,8.2,0,0,1-1.089.63,1.722,1.722,0,0,1-.727.15,3.8,3.8,0,0,1-1.433-.351A2.169,2.169,0,0,1-7.229-34.5a2.663,2.663,0,0,1,1.171-2.021c.289-.162.69-.408,1.193-.73a8.284,8.284,0,0,1,1.1-1.014,5.347,5.347,0,0,1,1.179-.659,20.815,20.815,0,0,1,3.63-2.918c.545-.429.968-.773,1.257-1.024a5.476,5.476,0,0,0,.8-.909l.1-.14.143-.1A8.023,8.023,0,0,1,5.416-45.2l.086-.025.089-.009c.447-.045.8-.066,1.084-.066h.212l.194.086a7.184,7.184,0,0,1,1.071.574,2.531,2.531,0,0,1,.971,1.614,3,3,0,0,1-.439,2.306,16.285,16.285,0,0,1-.623,1.543,2.41,2.41,0,0,0-.181.709,2.3,2.3,0,0,1-.67,1.472,3.476,3.476,0,0,0-.378.446A2.2,2.2,0,0,1,6.221-35,1.9,1.9,0,0,1,5.7-33.924a2.2,2.2,0,0,1-.2,1.152c-.11.239-.271.544-.488.926A2.116,2.116,0,0,1,4.72-30.5a2.864,2.864,0,0,0-.279.741l-.01.035a7.933,7.933,0,0,1-.681,1.662,1.066,1.066,0,0,0-.167.475,3.893,3.893,0,0,1-.4,1.407c-.154.325-.3.661-.441,1A3.647,3.647,0,0,1,2.3-23.562a1.21,1.21,0,0,0-.173.409c-.045.269-.129.671-.258,1.229l-.049.212-.133.173a3.623,3.623,0,0,0-.6,1.734l-.037.283L.866-19.3a1.576,1.576,0,0,0-.392.86A3.384,3.384,0,0,1,.11-16.881a.77.77,0,0,0-.075.268A3.483,3.483,0,0,1-.345-15.5a.706.706,0,0,0,.041.263l.109.363-.159.344a4.122,4.122,0,0,0-.34,1.485l-.019.329-.211.253a.706.706,0,0,0-.108.394,1.877,1.877,0,0,1-.4,1.145A3.22,3.22,0,0,1-1.71-9.613a4.068,4.068,0,0,1-.237,1.634,3.4,3.4,0,0,0-.146.516,1.875,1.875,0,0,1-.168,1.268,1.3,1.3,0,0,0-.063.579,4.3,4.3,0,0,1-.185,1.443,3.02,3.02,0,0,1,.024.65l.416.161A1.831,1.831,0,0,1-.941-1.338,3.97,3.97,0,0,1-1.561.545a3.694,3.694,0,0,1-1.79,1.368ZM-4.844-6.425a4.055,4.055,0,0,0-.037.962l.042.38-.222.311c-.191.267-.284.5-.243.615l.119.327L-5.3-3.5a5.323,5.323,0,0,0-.26,1.216A4.3,4.3,0,0,0-5.425-.965a.775.775,0,0,0,.5.6,4.621,4.621,0,0,0,1.055.324,1.541,1.541,0,0,0,.635-.5,1.968,1.968,0,0,0,.3-.947c0-.023,0-.043,0-.061-.3-.115-.543-.208-.732-.277a1.361,1.361,0,0,1-.829-1.757.909.909,0,0,0-.02-.443l-.063-.285.1-.274a2.369,2.369,0,0,0,.156-.933,3.191,3.191,0,0,1,.245-1.513l.015-.035a2.873,2.873,0,0,1,.224-1.565A1.94,1.94,0,0,0-3.722-9.6l-.063-.345.166-.308a1.236,1.236,0,0,0,.152-.9l-.028-.119q-.143.483-.249.868C-3.9-9.834-4.1-9.1-4.34-8.228A7.013,7.013,0,0,1-4.844-6.425Zm2.508-8.83c-.312,1.155-.559,2.026-.738,2.6l-.135.437.187-.054a2.693,2.693,0,0,1,.355-1.181,6.16,6.16,0,0,1,.359-1.586Q-2.327-15.147-2.337-15.254Zm.779-2.945-.1.384q.022-.041.045-.081A2.1,2.1,0,0,0-1.558-18.2ZM5.6-41.91l-.856,2.995c-.574,2.008-1.218,4.158-1.914,6.391S1.359-27.851.521-25.256c-.573,1.773-1.1,3.525-1.581,5.231q.091-.157.2-.31a5.553,5.553,0,0,1,.822-2.234c.093-.412.157-.719.19-.914a3.156,3.156,0,0,1,.442-1.129,2.19,2.19,0,0,0,.162-.865l.011-.158.059-.147c.171-.427.355-.85.548-1.256a1.969,1.969,0,0,0,.214-.684,3.05,3.05,0,0,1,.448-1.371A5.971,5.971,0,0,0,2.516-30.3a4.826,4.826,0,0,1,.493-1.234,1.158,1.158,0,0,0-.025-.336l-.066-.364.186-.319c.27-.462.462-.817.571-1.053a.228.228,0,0,0,.03-.107,1.537,1.537,0,0,1,.542-1.6A1.052,1.052,0,0,0,4.26-35.5v-.549l.463-.295c.071-.045.138-.088.1-.378l-.053-.4.235-.324a7.353,7.353,0,0,1,.827-1,1.53,1.53,0,0,0,.069-.306,4.315,4.315,0,0,1,.372-1.321c.06-.119.213-.465.571-1.437l.038-.1.059-.092c.323-.5.259-.769.238-.856a1.329,1.329,0,0,0-.161-.433,4.837,4.837,0,0,0-.552-.3c-.156.007-.341.02-.555.04a10.144,10.144,0,0,0-1.3.795,7.047,7.047,0,0,1-1,1.1c-.318.276-.776.648-1.36,1.107l-.029.022-.03.02a17.877,17.877,0,0,0-3.424,2.768l-.172.2-.251.091a3.523,3.523,0,0,0-.911.475,6.557,6.557,0,0,0-.9.853l-.09.1-.113.073c-.582.374-1.033.651-1.379.847a1.579,1.579,0,0,0-.207.639c-.046.259,0,.276.171.35a2.379,2.379,0,0,0,.623.194,6.936,6.936,0,0,0,.743-.442,10.148,10.148,0,0,0,1.155-.937c.951-.95,1.8-1.749,2.532-2.374s1.8-1.5,3.2-2.608Z" transform="matrix(0.998, -0.07, 0.07, 0.998, 375.344, 11117.426)" fill="#006a12"/>
    </g>
    <path id="パス_3419" data-name="パス 3419" d="M3778.838,8048.7c-.1,0-.2,0-.3,0a4.658,4.658,0,0,1-1.1-.139,1.833,1.833,0,0,1-1.407-1.367c-.294-1.332,1.008-2.187,1.563-2.553a32.951,32.951,0,0,1,3.839-2.033c3.89-1.828,10.388-4.5,19.312-7.942,13.975-5.391,28.5-10.585,43.178-15.438,12.021-3.975,24.015-7.692,36.666-11.362a1.5,1.5,0,1,1,.836,2.881c-12.615,3.66-24.574,7.366-36.561,11.329-14.63,4.838-29.111,10.015-43.04,15.389-7.845,3.026-13.8,5.452-17.7,7.208-1.061.478-1.912.881-2.6,1.22a1.5,1.5,0,0,1-.763,2.724l-.036,0C3780.122,8048.656,3779.442,8048.7,3778.838,8048.7Z" transform="matrix(0.978, 0.208, -0.208, 0.978, -1707.233, 2501.034)" fill="#006a12"/>
  </g>
</svg>
