<svg xmlns="http://www.w3.org/2000/svg" width="193.651" height="189.252" viewBox="0 0 193.651 189.252">
  <g id="concept_item1_text_dt" transform="translate(-271.41 -1297.655)">
    <g id="グループ_3087" data-name="グループ 3087" transform="translate(-15 -7.596)">
      <path id="パス_6221" data-name="パス 6221" d="M5.22-8.985c-.135-.5-.195-.69-.315-1.065a9.91,9.91,0,0,1-.525-1.77L2.52-11.3A16.4,16.4,0,0,1,3.54-8.5c-.72.225-.84.255-1.455.465A8.553,8.553,0,0,1,.72-7.65L1.3-5.895A17.356,17.356,0,0,1,3.24-6.66a7.018,7.018,0,0,0,.75-.27A56.453,56.453,0,0,1,5.82,1.05L7.8.6a4.008,4.008,0,0,1-.225-.72c-.9-3.75-.975-4.035-1.9-7.29a15.114,15.114,0,0,1,4.5-.93c1.26,0,1.995.555,1.995,1.5a1.551,1.551,0,0,1-.615,1.275,3.008,3.008,0,0,1-1.695.495,5.668,5.668,0,0,1-2.4-.585,6.611,6.611,0,0,1,.27,1.845,7.335,7.335,0,0,0,2.325.42,4.216,4.216,0,0,0,2.775-.885,3.4,3.4,0,0,0,1.215-2.61c0-1.845-1.4-3.06-3.51-3.06-.3,0-.51.015-.87.045a16.725,16.725,0,0,1,.075-2.4H7.845a8.8,8.8,0,0,1,.09,1.8c.015.525.015.525.015.825-.6.12-.855.18-1.275.285ZM16.98-7.71a5.636,5.636,0,0,1,.66-.045,52.273,52.273,0,0,0,5.325-.36,16.587,16.587,0,0,0,1.62,2.73,6.969,6.969,0,0,0-2.595-.45,5.734,5.734,0,0,0-3.825,1.08,2.918,2.918,0,0,0-1.08,2.235A2.8,2.8,0,0,0,17.97-.5,6.189,6.189,0,0,0,22.14.645,15.485,15.485,0,0,0,26.9-.165l-.24-1.92A10.422,10.422,0,0,1,22.14-1.08c-2.04,0-3.15-.54-3.15-1.515,0-1.065,1.2-1.68,3.24-1.68a7.518,7.518,0,0,1,2.37.345,2.65,2.65,0,0,1,1.035.645l1.74-.8c-.525-.7-1.185-1.68-1.59-2.37-.15-.27-.495-.9-1.035-1.9q1.867-.36,2.2-.45c.51-.1.675-.15,1.065-.21L27.81-10.8a22.824,22.824,0,0,1-3.675.885,12.568,12.568,0,0,1-.825-2.4l-1.935.255c.075.12.72,1.71.975,2.37-.93.12-2.925.255-4.05.255a10.283,10.283,0,0,1-1.455-.075Zm16.08-4.275a7.46,7.46,0,0,1,.06,1.02c0,.21,0,.525-.015.975-.09,3.765-.12,5.265-.12,6.045,0,2.01.435,3.165,1.47,3.855A4.89,4.89,0,0,0,37.08.57a5.677,5.677,0,0,0,4.5-1.905A9.24,9.24,0,0,0,43.365-5.16,6.478,6.478,0,0,1,41.55-6.315a10.056,10.056,0,0,1-.69,2.52A3.859,3.859,0,0,1,37.23-1.23a2.375,2.375,0,0,1-2.01-.78,4.169,4.169,0,0,1-.39-2.415c0-1.065.09-4.11.15-5.505a13.712,13.712,0,0,1,.18-2.025Zm13.545.96a7.167,7.167,0,0,1,.06.96c.06,4.155.33,6.33.945,7.83C48.21-.8,49.02-.06,50.025-.06,51.3-.06,52.17-1.275,52.95-4.2a7.4,7.4,0,0,1-1.5-1.365,11.058,11.058,0,0,1-.8,2.715c-.18.42-.39.645-.615.645-.48,0-.96-.96-1.215-2.52a28.07,28.07,0,0,1-.285-4.02,17.438,17.438,0,0,1,.12-2.28ZM54.18-9.6a13.093,13.093,0,0,1,2.13,3.69,15.206,15.206,0,0,1,.96,4.335l1.86-.705a14.955,14.955,0,0,0-3.375-8.07Zm15.87-.51H64.86v-.645a14.37,14.37,0,0,1,.09-1.71H63.075a14.118,14.118,0,0,1,.1,1.71v.645h-.615a12.728,12.728,0,0,1-1.815-.1v1.8a12.869,12.869,0,0,1,1.815-.105h.615V-.8a13.961,13.961,0,0,1-.1,1.905H64.86V.27h5.19v.84h1.8a14.96,14.96,0,0,1-.1-1.92V-8.52h.615a13.935,13.935,0,0,1,1.875.105v-1.8a12.935,12.935,0,0,1-1.875.1h-.615v-.615a12.324,12.324,0,0,1,.1-1.74H69.96a14.2,14.2,0,0,1,.09,1.74Zm0,1.59v2.655H64.86V-8.52Zm0,4.185V-1.32H64.86V-4.335ZM77.7-9.9a11.665,11.665,0,0,1,1.185-.09c1.47-.06,1.83-.075,2.6-.135-.375,1.38-.555,1.95-.945,3.135a5.342,5.342,0,0,0-2.835.72,3.774,3.774,0,0,0-1.86,3.285,2.582,2.582,0,0,0,2.4,2.85A2.37,2.37,0,0,0,80.295-1.56,19.983,19.983,0,0,0,81.78-5.25a11.454,11.454,0,0,1,3.375,1.035A6.106,6.106,0,0,1,83.82-2,7.053,7.053,0,0,1,81.5-.42,5.452,5.452,0,0,1,82.86.93,8.692,8.692,0,0,0,85.125-.765,7.084,7.084,0,0,0,86.76-3.4,15.317,15.317,0,0,1,88.83-2.01L89.5-3.99a5.3,5.3,0,0,1-.69-.36c-.465-.27-1.125-.615-1.605-.855a24.99,24.99,0,0,0,.27-3.18,4.863,4.863,0,0,1,.09-1l-1.89-.075a4.5,4.5,0,0,1,.06.8,16.293,16.293,0,0,1-.15,2.775,12.224,12.224,0,0,0-3.315-.945c.135-.465,1.05-3.225,1.125-3.405a2.239,2.239,0,0,1,.315-.63l-1.185-1.02a1.137,1.137,0,0,1-.6.18c-.555.075-1.89.135-2.79.135a8.9,8.9,0,0,1-1.515-.075Zm2.37,4.485a19.567,19.567,0,0,1-.975,2.5c-.345.675-.57.945-.855.945-.4,0-.735-.5-.735-1.11a2.109,2.109,0,0,1,.57-1.44A2.968,2.968,0,0,1,80.07-5.415Zm18.6-4.2a3.278,3.278,0,0,1,1.515.45,3.716,3.716,0,0,1,1.845,3.33,4.2,4.2,0,0,1-2.085,3.75,7.972,7.972,0,0,1-2.985.825A4.785,4.785,0,0,1,97.875.5a9.807,9.807,0,0,0,2.355-.63,5.779,5.779,0,0,0,3.645-5.6c0-3.375-2.34-5.565-5.94-5.565a6.733,6.733,0,0,0-5.16,2.1,6.443,6.443,0,0,0-1.65,4.365c0,2.415,1.23,4.155,2.94,4.155,1.23,0,2.19-.885,3.045-2.82A21.7,21.7,0,0,0,98.67-9.615ZM96.84-9.6A19.769,19.769,0,0,1,95.6-4.53c-.54,1.29-1.05,1.92-1.545,1.92-.66,0-1.185-.975-1.185-2.205a5.022,5.022,0,0,1,2.04-4.05A3.818,3.818,0,0,1,96.84-9.6Z" transform="translate(328 1464.991)" fill="#371606"/>
      <path id="パス_6220" data-name="パス 6220" d="M11.5-7.2l.06,5.98v.36a12.734,12.734,0,0,1-.12,1.92h2.72c-.06-.56-.1-1.32-.12-2.3l-.1-9.28H16a20.565,20.565,0,0,1,2.3.08v-2.42a11.372,11.372,0,0,1-2.36.14H13.92l-.04-1.62v-.12a12.832,12.832,0,0,1,.08-1.7H11.32a14.419,14.419,0,0,1,.1,1.84l.02,1.6H4.52A11.622,11.622,0,0,1,2-12.86v2.44a20.835,20.835,0,0,1,2.46-.1H9.94a19.027,19.027,0,0,1-2.68,3.3A21.285,21.285,0,0,1,.96-2.88,5.794,5.794,0,0,1,2.62-.8,28.97,28.97,0,0,0,5.58-2.64,27.535,27.535,0,0,0,9.52-6.12a12.116,12.116,0,0,0,2.04-2.8c-.02.32-.06,1.34-.06,1.44Zm9.92.92a21.956,21.956,0,0,1,3.26-.1H35.3a21.956,21.956,0,0,1,3.26.1V-9.06a19.641,19.641,0,0,1-3.24.14H24.66a19.641,19.641,0,0,1-3.24-.14ZM41.7-13.7a24.2,24.2,0,0,1,2.28,5.96l2.46-.76a25.507,25.507,0,0,0-2.42-5.88Zm5.26-1A25.234,25.234,0,0,1,49.2-8.9l2.44-.78a25.624,25.624,0,0,0-2.4-5.66Zm8.54-.2a15.764,15.764,0,0,1-1,4.7A13.149,13.149,0,0,1,51-4.7a15.587,15.587,0,0,1-5.62,3.48,7.66,7.66,0,0,1,1.76,2.24c6-2.92,9.18-6.94,10.6-13.36a8.923,8.923,0,0,1,.5-1.94Zm8.94,1.22a52.759,52.759,0,0,1,10.92,2.3l.8-2.46A66.667,66.667,0,0,0,65.34-16Zm-.32,5.5a43.984,43.984,0,0,1,5.06.88,34.377,34.377,0,0,1,5.5,1.6l.78-2.46a62.849,62.849,0,0,0-10.42-2.32ZM62.5-2.56A55.644,55.644,0,0,1,68.78-1.4,36.692,36.692,0,0,1,75.86.84l.86-2.52A62.61,62.61,0,0,0,63.44-4.84ZM84.66-15.64a10.053,10.053,0,0,1,.08,1.82c0,5.6-.46,8.18-1.9,10.48a8.217,8.217,0,0,1-2.06,2.3A7.118,7.118,0,0,1,82.8.9a12.736,12.736,0,0,0,2.76-3.7c1.04-2.06,1.48-4.32,1.62-8.22a41.8,41.8,0,0,1,.2-4.48Zm5.3-.14a8.656,8.656,0,0,1,.08,1.32v.6l-.1,11.28a8.963,8.963,0,0,1-.18,2.12L91.04.9A8.7,8.7,0,0,1,91.9.54a13.209,13.209,0,0,0,4.26-2.4,12.412,12.412,0,0,0,3.18-4.66A8.383,8.383,0,0,1,97.46-8.4,9.773,9.773,0,0,1,95.5-4.74a8.041,8.041,0,0,1-3.06,2.28l.1-11.38a10.838,10.838,0,0,1,.14-1.9Zm26.26,1.72a3.543,3.543,0,0,1-1.46.2l-4.38.06c-.38,0-.7.02-.96.04a4.715,4.715,0,0,0,.32-.64l.26-.52a4.035,4.035,0,0,1,.26-.56,4.089,4.089,0,0,1,.34-.62l-2.74-.54A7.464,7.464,0,0,1,106.84-14a15.385,15.385,0,0,1-5.18,5.8,5.314,5.314,0,0,1,1.94,1.72,19.576,19.576,0,0,0,4.68-5.12l6.02-.1a15.838,15.838,0,0,1-5.84,8.44A18.011,18.011,0,0,1,104.08-.9a6.162,6.162,0,0,1,1.7,2.1,20.2,20.2,0,0,0,7.12-5.08A20.744,20.744,0,0,0,117-11.6a3.762,3.762,0,0,1,.5-1.2Z" transform="translate(320.04 1493.304)" fill="#371606"/>
    </g>
    <g id="グループ_2828" data-name="グループ 2828" transform="translate(177.314 -2153.737)">
      <path id="パス_4805" data-name="パス 4805" d="M0,0S48.916.651,74.075,45.461" transform="matrix(0.259, -0.966, 0.966, 0.259, 190.922, 3524.521)" fill="none" stroke="#009f3a" stroke-linecap="round" stroke-width="2"/>
    </g>
    <g id="グループ_3306" data-name="グループ 3306" transform="matrix(0.966, 0.259, -0.259, 0.966, 617.579, -1556.993)">
      <path id="合体_75" data-name="合体 75" d="M23.22,61.62a1.939,1.939,0,0,1-.436-.578,1.784,1.784,0,0,1-.149-.734A1.238,1.238,0,0,1,23,59.4c.141-.268.27-.5.387-.692a2.359,2.359,0,0,1,.434-.53,1.684,1.684,0,0,1,.364-.555c.183-.255.378-.552.58-.886a7.229,7.229,0,0,1,.494-.949,11.659,11.659,0,0,0,.574-1.086c.28-.572.728-1.422,1.334-2.529.591-1.08,1.149-2.178,1.659-3.263.118-.291.247-.6.384-.931s.274-.647.4-.924.22-.5.3-.688a4.513,4.513,0,0,0,.184-.509l.169-.574c.03-.1.088-.349.192-.93-.015-.136-.028-.239-.039-.317-.081-.028-.172-.062-.276-.1a3.556,3.556,0,0,1-.974.043.7.7,0,0,0-.283.018,3.043,3.043,0,0,0-.441.149,4.2,4.2,0,0,1-.624.2,1.608,1.608,0,0,1-.623.355,2.377,2.377,0,0,1-.58.6,1.2,1.2,0,0,1-1.3.1c-.242-.124-.4-.211-.5-.274a1.089,1.089,0,0,1-.436-.587q-.241.316-.478.636c-.454.614-.781,1.064-.97,1.336-.17.244-.349.488-.535.728a1.238,1.238,0,0,1-.407.662,2.178,2.178,0,0,1-.262.51,2.706,2.706,0,0,1-.426.623,2.431,2.431,0,0,1-.122.34c0,.006,0,.013,0,.021a1.624,1.624,0,0,1,.45.757,1.282,1.282,0,0,1-.413,1.249,1.594,1.594,0,0,1-.878.509,1.085,1.085,0,0,1-.172.014,1.385,1.385,0,0,1-.834-.261,2.826,2.826,0,0,1-.4-.345,1.612,1.612,0,0,1-.53-1.368,5,5,0,0,1,.2-1.029l.009-.03.012-.029a5.834,5.834,0,0,1,.5-.945,2.255,2.255,0,0,0,.246-.437,3.169,3.169,0,0,1,.414-.749c.173-.249.452-.639.829-1.158l.018-.024.02-.022a.927.927,0,0,0,.139-.223,3.263,3.263,0,0,1,.3-.52,4.554,4.554,0,0,1,.7-1.024,4.339,4.339,0,0,0,.612-.93l.066-.14.122-.1c.136-.107.278-.224.42-.349a.227.227,0,0,0,.07-.153l.043-.259.209-.159a1.558,1.558,0,0,0,.422-.489,1.41,1.41,0,0,1,.47-.551.425.425,0,0,0,.028-.043,3.419,3.419,0,0,1,.485-.6l.015-.015a3.493,3.493,0,0,0,.308-.326,1.743,1.743,0,0,1,.765-.5l.065-.025.069-.011a1.843,1.843,0,0,1,1.117.136l.02.01a1.653,1.653,0,0,1,.726.633,1.213,1.213,0,0,1,.07.951,1.267,1.267,0,0,1-.588.775,4.668,4.668,0,0,1-.474.235.973.973,0,0,0-.153.095c.09-.045.172-.086.243-.124a2.677,2.677,0,0,1,.813-.272c.209-.034.5-.076.875-.125s.618-.084.764-.107a4.212,4.212,0,0,1,.87-.013l.053,0,.052.012a.977.977,0,0,0,.316.027,1.731,1.731,0,0,1,.743.084,2.206,2.206,0,0,1,.7.43,3.245,3.245,0,0,1,.563.619,2.1,2.1,0,0,1,.33.968,1.723,1.723,0,0,1,.028.974,1.9,1.9,0,0,0-.055.476.992.992,0,0,1-.263.737c-.024.122-.058.26-.1.418a2.147,2.147,0,0,1-.334.646,1.8,1.8,0,0,1-.3.776,1.31,1.31,0,0,1-.291.848l-.021.03-.024.027a1.809,1.809,0,0,0-.146.175,1.3,1.3,0,0,1-.216.368l.008.234-.194.2a.561.561,0,0,0-.091.113,2.712,2.712,0,0,1-.209.48l-.847,1.574c-.6,1.111-.793,1.53-.853,1.685a3.163,3.163,0,0,1-.36.685,1.052,1.052,0,0,1-.38.672,2.042,2.042,0,0,0-.146.257,2.711,2.711,0,0,0-.148.361,1.1,1.1,0,0,1-.334.551.9.9,0,0,0-.042.189,1.515,1.515,0,0,1-.472.9.632.632,0,0,0-.165.279,1.948,1.948,0,0,1-.3.77,1.893,1.893,0,0,0-.143.258,1.249,1.249,0,0,1-.214.689,2.69,2.69,0,0,1-.164.222.9.9,0,0,1-.334.709q-.006.021-.012.049l-.029.137-.082.112a1.647,1.647,0,0,0-.149.266,1.061,1.061,0,0,0-.068.354l-.009.12-.05.109c-.051.11-.111.251-.181.418a1.075,1.075,0,0,1-.849.656,1.423,1.423,0,0,1-.222.017h-.01A1.428,1.428,0,0,1,23.22,61.62ZM1.228,60.014l-.186-.489a1.166,1.166,0,0,1,.078-.962,1.458,1.458,0,0,1,.784-.7,2.268,2.268,0,0,1,.722-.2c.162-.017.317-.037.461-.06a7.261,7.261,0,0,1,.764-.134.928.928,0,0,0,.239-.052A5.352,5.352,0,0,1,4.8,57.22a4.012,4.012,0,0,1,.4-.088,2.414,2.414,0,0,1,.349-.032,1.793,1.793,0,0,1,.557-.177,1.543,1.543,0,0,1,.451-.107c.1-.008.248-.015.445-.021a2.211,2.211,0,0,1,.964-.253c.057-.021.112-.043.164-.066a5.7,5.7,0,0,1,.434-.675,1.8,1.8,0,0,1,.189-.592l.006-.011a2.691,2.691,0,0,1,.34-.482l.05-.37a1.869,1.869,0,0,1,.3-.691,1.014,1.014,0,0,0,.127-.281,1.152,1.152,0,0,1,.195-.668,3.071,3.071,0,0,0,.162-.289,1,1,0,0,0,0-.182,1.107,1.107,0,0,1,.06-.559,1.671,1.671,0,0,1,.1-.669,2.934,2.934,0,0,0,.034-.683,1.985,1.985,0,0,0-.093-.368.816.816,0,0,0-.2-.128l-.005,0c-.212-.108-.374-.195-.494-.263a1.716,1.716,0,0,0-.349-.018,4.254,4.254,0,0,0-.509.03l-.017,0a1.86,1.86,0,0,1-.628.019c-.2.063-.272.095-.3.106a1.1,1.1,0,0,1-.611.089,1.679,1.679,0,0,1-.553.136,1.8,1.8,0,0,1-.485.063H5.876a.5.5,0,0,0-.093.026,1.639,1.639,0,0,1-.509.1.961.961,0,0,1-.5.226,1.41,1.41,0,0,1-.336.01c-.042,0-.074,0-.1.007a1.311,1.311,0,0,1-.654.264l-.027,0a1.025,1.025,0,0,1-.413.139,2.026,2.026,0,0,1-.465.221,2.365,2.365,0,0,0-.38.256.982.982,0,0,1-.678.4,1.635,1.635,0,0,1-.372.013,1.36,1.36,0,0,1-.9-.343,1.7,1.7,0,0,1-.345-.568,1.394,1.394,0,0,1-.073-.833,2.287,2.287,0,0,1,.234-.6c.17-.3.518-.527,1.242-.8l.033-.012.034-.009a1.374,1.374,0,0,0,.217-.068.989.989,0,0,1,.378-.134,1.864,1.864,0,0,1,.282-.021,2.385,2.385,0,0,1,.592-.226,4.357,4.357,0,0,1,1.009-.276c.366-.113.827-.226,1.406-.345s1.121-.228,1.617-.325l.012,0H7.1A9.545,9.545,0,0,1,8.316,47a8.219,8.219,0,0,1,1.5.062l.041.007c.315.064.539.113.684.15a2.246,2.246,0,0,1,.651.3,3.927,3.927,0,0,1,.582.451,2.733,2.733,0,0,1,.468.562,2.168,2.168,0,0,1,.257.843,1.133,1.133,0,0,1,.125.522.488.488,0,0,0,.024.151,1.732,1.732,0,0,1,.072.6,4.451,4.451,0,0,1-.138,1.532,10.223,10.223,0,0,1-.309,1.057c-.056.141-.112.28-.169.415a2.5,2.5,0,0,1-.293.88,1.39,1.39,0,0,0-.1.329,3.173,3.173,0,0,1-.176.636c-.053.136-.12.287-.2.452a1.656,1.656,0,0,1,.172-.02,1.121,1.121,0,0,1,.791.31,1.336,1.336,0,0,1,.438,1,1.09,1.09,0,0,1-.541,1.093,3.077,3.077,0,0,1-.78.27l-.043.008c-.18.029-.378.05-.588.063-.119.007-.281.026-.483.054a1.52,1.52,0,0,1-.477.4,1.934,1.934,0,0,1-.7.212,2.844,2.844,0,0,1-.519.009.884.884,0,0,1-.518-.236,7.732,7.732,0,0,0-.932.166c-.349.089-.655.164-.911.223a2.288,2.288,0,0,1-.6.189c-.059.009-.118.015-.176.018a.686.686,0,0,0-.263.072l-.015.007a3.355,3.355,0,0,1-.536.2,2,2,0,0,1-.456.057.446.446,0,0,0-.074.041,1.7,1.7,0,0,1-.611.241,1.488,1.488,0,0,1-.536.23c-.162.035-.353.074-.568.118l-.052.009a1.173,1.173,0,0,1-.184.015A.992.992,0,0,1,1.228,60.014Zm47.464-4.752a1.454,1.454,0,0,1-.539-.688,1.414,1.414,0,0,1-.064-.749,1.608,1.608,0,0,1,.432-.776c.126-.139.253-.286.378-.437a3.111,3.111,0,0,1,.393-.679,4.954,4.954,0,0,0,.289-.411,1.865,1.865,0,0,1,.407-.5c.149-.337.316-.682.5-1.029a5.919,5.919,0,0,0,.445-1.136c.059-.241.129-.483.208-.718a2.076,2.076,0,0,0,.1-.547l0-.034c.061-.569.072-.818.072-.926a1.813,1.813,0,0,0-.037-.364c-.03-.139-.071-.317-.122-.529a7.648,7.648,0,0,0-.561-1.224,3.126,3.126,0,0,0-.673-.817,6.228,6.228,0,0,0-.647-.4L49.2,43.26l-.062-.056a.4.4,0,0,0-.182-.107,1.316,1.316,0,0,1-.493-.163l-.033.012a1.011,1.011,0,0,1-.391.071,1.013,1.013,0,0,1,.283.335,3.1,3.1,0,0,1,.249.839,4.618,4.618,0,0,1,.035,1.272,3.141,3.141,0,0,1-.115.829c-.046.144-.1.343-.168.59A4.731,4.731,0,0,1,47.816,48c-.226.388-.446.753-.654,1.082a13.582,13.582,0,0,1-1.026,1.364,19.35,19.35,0,0,1-1.469,1.584,5.438,5.438,0,0,1-1.916,1.2,1.949,1.949,0,0,1-.723.184,5.42,5.42,0,0,1-.566,0,2.122,2.122,0,0,1-.784-.22,3.536,3.536,0,0,1-1-.693,2.554,2.554,0,0,1-.724-1.3,7.824,7.824,0,0,1-.185-1.261v-.019c-.014-.414-.011-.554-.009-.624a4.127,4.127,0,0,1,.045-.432c.024-.165.064-.374.12-.636a10.344,10.344,0,0,1,.42-1.3,1.909,1.909,0,0,1,.387-.8.941.941,0,0,0,.047-.13,1.092,1.092,0,0,1,.236-.526,1.049,1.049,0,0,1,.416-.578.251.251,0,0,0,.06-.071,1.5,1.5,0,0,1,.334-.359,1.079,1.079,0,0,1,.5-.522,1.082,1.082,0,0,1,.49-.575,1.361,1.361,0,0,0,.216-.253l.056-.076.075-.058.757-.586a4.512,4.512,0,0,1,1.07-.626,2.15,2.15,0,0,1,.618-.334,7.839,7.839,0,0,1,2.011-.641l.008,0c.313-.068.6-.124.864-.166a4.858,4.858,0,0,1,1.587-.048l.013,0c.468.1.766.161.911.2a2.566,2.566,0,0,1,.8.431,2.487,2.487,0,0,1,.6.367,7.908,7.908,0,0,1,.7.73c.1.1.217.216.346.339a1.38,1.38,0,0,1,.424.621c.016.057.037.141.066.257a1.465,1.465,0,0,1,.367.723,2.774,2.774,0,0,0,.073.292,1.126,1.126,0,0,1,.239.743,2.037,2.037,0,0,1,.191.785c.01.2.029.4.058.6a1.119,1.119,0,0,1-.059.953.819.819,0,0,0-.026.114,2.246,2.246,0,0,1-.162.539c0,.157-.005.266-.01.342a1.377,1.377,0,0,1-.312.719l-.032.045a1.483,1.483,0,0,1-.154.539,2.309,2.309,0,0,1-.278.641,3.486,3.486,0,0,1-.539,1.247,2.929,2.929,0,0,1-.5,1.061l-.015.02-.016.019a.447.447,0,0,0-.066.1c-.025.1-.057.255-.094.449l-.036.182-.124.136a.914.914,0,0,0-.117.162,1.815,1.815,0,0,1-.232.317,2.762,2.762,0,0,1-.236.511,1.2,1.2,0,0,1-.7.468,2,2,0,0,1-.427.222,1.08,1.08,0,0,1-.191.05.991.991,0,0,1-.155.012A1.174,1.174,0,0,1,48.692,55.262ZM44.732,44.1a10.373,10.373,0,0,0-1.648,1.422,7.157,7.157,0,0,0-1.516,2.352,1.814,1.814,0,0,1-.166.664,1.063,1.063,0,0,1-.17.521,2.021,2.021,0,0,1-.034.409,1.084,1.084,0,0,1,.148.462c.008.1.011.23.009.389.028.063.048.1.063.13a.86.86,0,0,1,.253.28c.07.015.137.032.2.051l.063-.009a.984.984,0,0,0,.139-.03,1.961,1.961,0,0,1,.385-.172,2.051,2.051,0,0,1,.518-.314c.172-.205.252-.308.289-.359a1.225,1.225,0,0,1,.466-.391,1.674,1.674,0,0,1,.573-.561,6.968,6.968,0,0,0,.628-.884c.276-.443.47-.768.576-.965a5.553,5.553,0,0,0,.342-1.051c.032-.212.07-.422.116-.625a2.628,2.628,0,0,0-.045-.324.647.647,0,0,0-.078-.176,1.753,1.753,0,0,1-.226-.791,1.322,1.322,0,0,1,.068-.523A7.525,7.525,0,0,0,44.732,44.1Zm25.087,11.3a1.361,1.361,0,0,1-.846-.567,1.474,1.474,0,0,1-.095-1.185,1.772,1.772,0,0,1,1.278-1.18,8.357,8.357,0,0,0,.954-.593c.347-.249.672-.472.965-.663a30.013,30.013,0,0,0,2.867-3.135,8.849,8.849,0,0,0,1.519-2.309,3.185,3.185,0,0,0,.19-.817,1.316,1.316,0,0,1,.132-.695,2.534,2.534,0,0,0-.07-.522c-.129-.19-.284-.416-.462-.671a2.536,2.536,0,0,0-.6-.6,1.113,1.113,0,0,1-.351-.221,1.43,1.43,0,0,1-.491-.2c-.34-.031-.674-.073-1-.127a2.8,2.8,0,0,0-.9,0l-.153.024-.148-.047a.6.6,0,0,0-.325-.018c-.112.028-.222.052-.33.074-.166.347-.288.591-.373.744-.106.193-.289.489-.559.9-.516.928-1.022,1.757-1.5,2.463a15.9,15.9,0,0,1-1.2,1.6l-.1.108.089.014a1.709,1.709,0,0,1,.953.443l.033.03.028.034a1.813,1.813,0,0,1,.4.8,1.1,1.1,0,0,1-.153.866,1.02,1.02,0,0,1-.833.711,1.4,1.4,0,0,1-.4,0l-.063-.009-.061-.02a4.4,4.4,0,0,1-1.135-.5,2.741,2.741,0,0,0-.39-.236c-.095-.047-.2-.105-.322-.178a3,3,0,0,1-.383.269,1.572,1.572,0,0,0-.353.278l-.038.04-.043.034a5.555,5.555,0,0,0-.5.422l-.1.1-.136.048a1.34,1.34,0,0,0-.343.173,1.921,1.921,0,0,1-.824.324l-.138.022-.012,0-.043.046-.138.055a1.412,1.412,0,0,1-.762.077,1.834,1.834,0,0,1-.784-.1,1.94,1.94,0,0,1-1.164-.452,3.714,3.714,0,0,1-.568-.472l-.151-.151-.034-.211a.075.075,0,0,0-.018-.046,1.213,1.213,0,0,1-.28-.587,2.278,2.278,0,0,1-.234-1.07c.01-.289.024-.587.041-.887a2.617,2.617,0,0,1,.251-.978,1.141,1.141,0,0,1,.412-.745.761.761,0,0,0,.029-.1,4.827,4.827,0,0,1,.587-.99l.2-.185a1.836,1.836,0,0,1,.721-.731,2.39,2.39,0,0,1,.534-.586,4.569,4.569,0,0,1,.6-.372l.542-.359a7.185,7.185,0,0,1,.623-.371,5.317,5.317,0,0,1,.58-.357c.02-.827.036-1.586.047-2.261.009-.6.057-1.368.142-2.3a4.942,4.942,0,0,1-.7.218,2.484,2.484,0,0,1-.673.23,1.072,1.072,0,0,1-.573-.052,3.8,3.8,0,0,1-.451-.213l-.116-.066-.081-.107a1.34,1.34,0,0,1-.266-1.209,1.7,1.7,0,0,1,.426-.774l.025-.025.028-.022a1.823,1.823,0,0,1,1.133-.449c.072,0,.12,0,.149,0a1.028,1.028,0,0,1,.263-.074,2.383,2.383,0,0,1,.3-.025,3.585,3.585,0,0,1,.456-.117,3.832,3.832,0,0,1,.367-.163,3.172,3.172,0,0,1,.262-.66,4.541,4.541,0,0,0,.229-.457l.03-.069.044-.061a1.533,1.533,0,0,1,1.016-.633q.054-.009.111-.014a1.647,1.647,0,0,1,.847.086,1.6,1.6,0,0,1,.636.658l.1.157v.032l.075-.023a9.2,9.2,0,0,0,.99-.375l.027-.011c.225-.087.478-.2.751-.326a2.108,2.108,0,0,1,.569-.189,1.038,1.038,0,0,1,.626.078,1.409,1.409,0,0,1,.63.649,1.425,1.425,0,0,1-.118,1.357l-.022.041-.028.038a1.321,1.321,0,0,1-.456.412,2.76,2.76,0,0,0-.282.187l-.105.076-.127.03c-.463.109-.93.232-1.388.367s-.889.282-1.3.443c-.282.111-.534.2-.759.268-.08.363-.163.78-.246,1.244a13.375,13.375,0,0,0-.2,1.772c-.015.359-.024.777-.026,1.249.481-.159.924-.291,1.323-.4.608-.159,1.08-.285,1.405-.373.189-.051.366-.095.529-.13a1.284,1.284,0,0,0,.053-.2l.008-.038a5.878,5.878,0,0,1,.288-.9,3.767,3.767,0,0,1,.085-.558l.012-.051.019-.049a4.4,4.4,0,0,0,.182-.578,1.517,1.517,0,0,1,.883-1.013l.086-.041.094-.015a1.915,1.915,0,0,1,.991.1,1.2,1.2,0,0,1,.771,1.016,1.9,1.9,0,0,1-.08.9,1.623,1.623,0,0,1-.391.592c-.06.145-.121.278-.182.4a3.053,3.053,0,0,1,.661.033,5.534,5.534,0,0,0,.611.034,1.359,1.359,0,0,1,.687.143c.019,0,.045,0,.077-.01l.03,0,.03,0a1.807,1.807,0,0,1,.907.176,5.838,5.838,0,0,0,.541.223l.089.032.077.056c.312.226.618.453.911.674a3.728,3.728,0,0,1,.943,1.082,8.423,8.423,0,0,1,.616,1.259l.026.066.011.07c.051.323.086.639.1.94a2.644,2.644,0,0,1-.159,1.072,4.284,4.284,0,0,0-.109.586,1.742,1.742,0,0,1-.374.9,2.426,2.426,0,0,1-.485.818,18.974,18.974,0,0,1-3.29,4.1,8.619,8.619,0,0,1-1.341,1.475,2.622,2.622,0,0,1-.636.548,2.4,2.4,0,0,1-.409.466,1.529,1.529,0,0,1-.533.308,1.683,1.683,0,0,1-.457.478c-.172.117-.349.227-.525.326a1.316,1.316,0,0,1-.649.165A1.63,1.63,0,0,1,69.819,55.393ZM64.211,44.874l0,0c-.418.339-.76.618-1.015.83a6.921,6.921,0,0,0-.792.82c-.078.147-.156.284-.232.408-.089.147-.174.275-.251.383a.207.207,0,0,0-.036.079c-.025.1-.057.22-.1.348,0,.123-.009.274-.021.455a1.111,1.111,0,0,0,.12.491.674.674,0,0,0,.241.232,1.639,1.639,0,0,0,.827.061,2.56,2.56,0,0,0,.612-.195,1.189,1.189,0,0,0,.277-.212l.066-.068.082-.047a6.484,6.484,0,0,0,.644-.412,5.009,5.009,0,0,0,.493-.444,3.377,3.377,0,0,1-.116-.322,4.219,4.219,0,0,0-.22-.559l-.054-.116-.007-.128a11.577,11.577,0,0,0-.11-1.189c-.028-.176-.052-.4-.072-.672A3.793,3.793,0,0,0,64.211,44.874Zm4.549-2.222c-.153.058-.306.109-.455.151a.649.649,0,0,0-.216.12l-.153.12-.193.018a1.24,1.24,0,0,0-.485.138c-.13.069-.275.143-.434.22.017.668.051,1.207.1,1.6.018.153.045.315.08.487.034-.033.071-.065.109-.1.257-.3.5-.579.726-.835a1.458,1.458,0,0,1,.4-.673.975.975,0,0,1,.266-.492,2.786,2.786,0,0,0,.206-.232.237.237,0,0,0,.017-.075,1.207,1.207,0,0,1,.163-.481C68.85,42.634,68.805,42.643,68.76,42.652Zm17.465,7.03a2.978,2.978,0,0,1-1.073-1.3l-.017-.038-.012-.04a2.869,2.869,0,0,1-.161-1.14,4.666,4.666,0,0,1,.166-.763,2.32,2.32,0,0,1,.786-1.071,6.007,6.007,0,0,1,1.831-1.1,11.52,11.52,0,0,1,2.268-.665c.5-.091.99-.2,1.47-.31-.025-.1-.052-.2-.082-.3a2.431,2.431,0,0,0-.354-.734,1.848,1.848,0,0,0-.463-.474,2.841,2.841,0,0,0-.661-.3,4.386,4.386,0,0,0-.781-.187c-.253-.034-.516-.064-.784-.088L87.8,41.2a2.076,2.076,0,0,1-.866-.14,1.8,1.8,0,0,1-.738-.493,1.322,1.322,0,0,1-.261-1.12,1.857,1.857,0,0,1,.343-.889,2.036,2.036,0,0,1,.461-.436c.1-.066.248-.172.443-.317a4.814,4.814,0,0,1,.633-.4,1.192,1.192,0,0,1,.716-.386.914.914,0,0,0,.111-.054c.115-.134.244-.276.386-.424a3.438,3.438,0,0,1,.52-.445,1.9,1.9,0,0,1,.475-.474,1.387,1.387,0,0,0,.345-.362c.124-.191.222-.352.293-.48a.717.717,0,0,0,.078-.255.954.954,0,0,0,.008-.159.956.956,0,0,0-.127-.05l-.563-.153a1.842,1.842,0,0,0-.476-.066c-.212,0-.588,0-1.117.015a2.842,2.842,0,0,0-1.174.266A1.137,1.137,0,0,0,87,34.6a2.384,2.384,0,0,1-.426.607,1.2,1.2,0,0,1-.685.382,1.052,1.052,0,0,1-.269.007,2.2,2.2,0,0,1-.659-.186,1.1,1.1,0,0,1-.653-1.019,1.747,1.747,0,0,1,.341-1.062,3.445,3.445,0,0,1,.651-.713l0,0a4.221,4.221,0,0,1,1.061-.6,3.828,3.828,0,0,1,.822-.245,1.843,1.843,0,0,1,.315-.025,1,1,0,0,0,.148-.014,4.274,4.274,0,0,0,.626-.164l.081-.026.085-.005a1.887,1.887,0,0,1,.734.114c.12-.01.228-.023.324-.038a1.5,1.5,0,0,1,.719.075,1.583,1.583,0,0,1,.931.115c.156.077.293.139.407.188a5.227,5.227,0,0,1,.585.3,2.169,2.169,0,0,1,.789.832l.016.028.013.03c.114.258.2.459.263.6a1.982,1.982,0,0,1,.108.928,2.789,2.789,0,0,1-.2.909,3.208,3.208,0,0,1-.642.887c-.5.562-.832.922-1,1.1s-.415.411-.72.681l-.666.589a1.342,1.342,0,0,1,.428.245,1.531,1.531,0,0,1,.685.246c.088.064.191.132.307.2a3.772,3.772,0,0,1,.528.4,3.214,3.214,0,0,1,.422.439,1.719,1.719,0,0,1,.616.717.84.84,0,0,0,.063.059l.071.059.052.077a6.473,6.473,0,0,1,.477.8,2.581,2.581,0,0,1,.239.719c0,.02.006.04.009.061.153-.01.284-.014.394-.012a1.957,1.957,0,0,0,.31-.031c.16-.026.359-.066.589-.119l.044-.011.045,0a4.458,4.458,0,0,1,.937.013,1.845,1.845,0,0,1,1.051.489,1.024,1.024,0,0,1,.245,1.346,2.517,2.517,0,0,1-.472.558,1.1,1.1,0,0,1-.559.262,1.254,1.254,0,0,1-.526-.034,2.182,2.182,0,0,0-.282-.064c-.037,0-.155-.007-.5-.013-.413.064-.7.106-.889.126l-.445.051a1.867,1.867,0,0,1-.112.389,3.229,3.229,0,0,1-.356.582c-.12.166-.246.332-.374.493a1.071,1.071,0,0,1-.512.7,2.827,2.827,0,0,1-.368.518,2.5,2.5,0,0,1-.811.588,3.586,3.586,0,0,1-.909.591,1.232,1.232,0,0,1-.764.316,1.9,1.9,0,0,1-.459.286,1.648,1.648,0,0,1-.755.128c-.178-.009-.329-.022-.462-.039a.867.867,0,0,0-.135.059l-.128.067-.145.007-.09,0A2.411,2.411,0,0,1,86.225,49.682Zm2.834-3.525c-.126.043-.244.086-.351.126a1.162,1.162,0,0,1-.557.384c-.033.03-.084.08-.157.159l-.011.011c-.18.185-.353.371-.514.553a.368.368,0,0,0,.02.086c.014.041.034.1.16.142a4.34,4.34,0,0,0,.859-.042,2.468,2.468,0,0,0,1.1-.432,8.253,8.253,0,0,0,1.508-1.435c.007-.019.015-.038.022-.056-.036,0-.073,0-.11,0a.65.65,0,0,0-.114.009,1.748,1.748,0,0,0-.27.07,1.344,1.344,0,0,1-.663.195,1.082,1.082,0,0,1-.676.176h0A.837.837,0,0,0,89.06,46.157Zm23.863,1.252a1.258,1.258,0,0,1-.507-1.328,1.308,1.308,0,0,1,.932-1.105,2.238,2.238,0,0,0,.516-.216c.186-.113.393-.236.614-.363a5.072,5.072,0,0,0,.73-.515,5.841,5.841,0,0,0,.577-.559c.168-.19.4-.486.7-.878a4.558,4.558,0,0,0,.624-1.069c.2-.49.278-.722.313-.83a3.058,3.058,0,0,1,.179-.455c0-.017-.007-.04-.014-.07l-.061-.249.092-.167a.9.9,0,0,1-.045-.544l-.1-.143.037-.261c.007-.047.01-.083.012-.108a2.762,2.762,0,0,1-.17-.377,1.986,1.986,0,0,1-.48-.4.245.245,0,0,0-.107-.053,2.714,2.714,0,0,1-.588-.254,2.9,2.9,0,0,1-.728-.212l-.105.019a1.278,1.278,0,0,1-.649-.038,1.507,1.507,0,0,1-.162.036,1.727,1.727,0,0,1-.517,0c-.419.048-.806.078-1.155.087a5.1,5.1,0,0,1-1.018.3l-.083.012-.082.011a.917.917,0,0,0-.277.076c-.155.084-.3.157-.43.218s-.253.113-.358.152a1.364,1.364,0,0,1-.512.07,2.973,2.973,0,0,1-.58.25,1.423,1.423,0,0,1-.431.3c-.039.017-.1.044-.177.087-.057.448-.066.618-.067.681a1.265,1.265,0,0,1-.2.691,1.541,1.541,0,0,1-.078.607.933.933,0,0,1-.091.6,1.161,1.161,0,0,1-.111.616c-.051.1-.131.268-.236.5l-.016.033c-.065.124-.136.271-.21.437a1.281,1.281,0,0,1-.367.871c-.011.011-.049.05-.141.16a1.372,1.372,0,0,1-.658.692c-.178.135-.359.263-.538.382s-.377.247-.57.37a2.17,2.17,0,0,1-.833.285c-.118.019-.249.034-.386.043h-.028a2.926,2.926,0,0,1-1.524-.375,2.136,2.136,0,0,1-1.026-1.128,2.8,2.8,0,0,1-.178-1.157,6.938,6.938,0,0,1,.178-1.077,3.6,3.6,0,0,1,.672-1.354c.286-.37.522-.668.7-.886a6.339,6.339,0,0,1,.8-.773c.28-.233.528-.432.736-.592a2.014,2.014,0,0,1,.753-.505,1.836,1.836,0,0,0,.3-.227,1.919,1.919,0,0,1,.529-.374,1.459,1.459,0,0,0,.16-.093c0-.03-.007-.054-.01-.072a1.45,1.45,0,0,1,.014-.539,1.072,1.072,0,0,1,.042-.689,1.217,1.217,0,0,1-.069-.5l-.123-.195L106.4,35a1.492,1.492,0,0,0,.032-.234,1.037,1.037,0,0,1-.02-.839.03.03,0,0,1,0,0,2.083,2.083,0,0,1-.073-.662,8.139,8.139,0,0,0-.063-.843,2.239,2.239,0,0,1-.4.154,1.587,1.587,0,0,0-.314.18,2.491,2.491,0,0,1-.362.612,1.062,1.062,0,0,1-.655.349,1.737,1.737,0,0,1-.473,0,1.492,1.492,0,0,1-1.137-.761,1.42,1.42,0,0,1-.039-1.443,1.585,1.585,0,0,1,.794-.829c.237-.113.517-.239.833-.373.288-.122.543-.244.759-.362l.036-.02.038-.015c.163-.064.325-.124.481-.178l.017-.006c-.014-.1-.024-.19-.032-.265a1.62,1.62,0,0,1,.269-.993,1.553,1.553,0,0,1,1.151-.74l.153-.024.148.047c.241.076.447.146.611.207a1.117,1.117,0,0,1,.688.647c.009.024.017.048.025.074l.085-.04a4.6,4.6,0,0,1,1.141-.387l.045-.008a1.251,1.251,0,0,1,1.349.664A1.59,1.59,0,0,1,111.742,30l-.007.03a1.23,1.23,0,0,1-.647.768,1.655,1.655,0,0,1-.538.2,1.044,1.044,0,0,1-.336,0,.447.447,0,0,0-.113.008l-.064.012a.6.6,0,0,0-.207.082,1.432,1.432,0,0,1-.582.216,2.284,2.284,0,0,1-.264.026,1.489,1.489,0,0,0-.18.062,2.21,2.21,0,0,1-.046.288c0,.074,0,.355.082,1.316.078.9.131,1.643.156,2.214.012.264.02.538.025.821l.033-.005a3.047,3.047,0,0,0,.426-.086c.082-.027.19-.072.322-.132a2.613,2.613,0,0,1,.682-.2.467.467,0,0,0,.2-.071l.088-.062.1-.032a14.225,14.225,0,0,1,1.92-.442c.162-.026.326-.049.489-.069a10.8,10.8,0,0,1,2.5-.016,5.779,5.779,0,0,1,2.206.67,1.416,1.416,0,0,1,.644.439,1.119,1.119,0,0,1,.576.536,1.093,1.093,0,0,0,.146.225,2.287,2.287,0,0,1,.345.564,6.19,6.19,0,0,1,.259.746l.009.037a5.674,5.674,0,0,1,.106,1.232,5.356,5.356,0,0,1-.3,1.676,10.346,10.346,0,0,1-.732,1.671l-.018.03c-.262.426-.524.848-.781,1.255a5.43,5.43,0,0,1-1.01,1.174,2.016,2.016,0,0,1-.507.684,5.34,5.34,0,0,1-.491.36.433.433,0,0,0-.062.047.966.966,0,0,1-.517.484,2.3,2.3,0,0,1-.666.511c-.149.068-.266.122-.346.161a3.661,3.661,0,0,1-.545.192,1.461,1.461,0,0,1-.166.037,1.314,1.314,0,0,1-.2.016A1.421,1.421,0,0,1,112.922,47.409Zm-7.046-6.73a3.157,3.157,0,0,1-.561.487.646.646,0,0,0-.139.125.744.744,0,0,0-.118.178,3.9,3.9,0,0,1-.474.711c-.107.245-.207.475-.3.686a.8.8,0,0,0-.057.222.357.357,0,0,0,.071-.014c.149-.047.373-.126.666-.233a2.343,2.343,0,0,0,.538-.5,5.362,5.362,0,0,0,.391-.685,3.517,3.517,0,0,0,.272-.943l.053-.322A2.727,2.727,0,0,0,105.876,40.678Zm24.876.169-.168-.028-.133-.106a1.77,1.77,0,0,0-.5-.293,1.79,1.79,0,0,1-.836-.6c-.274-.263-.519-.512-.73-.744a2.936,2.936,0,0,1-.553-.87,1.255,1.255,0,0,0-.151-.157,1.023,1.023,0,0,1-.532-.928.385.385,0,0,0-.039-.055,1.872,1.872,0,0,1-.311-.541,1.2,1.2,0,0,1-.322-.659.6.6,0,0,0-.052-.076l-.105-.134-.026-.168a3.569,3.569,0,0,0-.086-.4,2.437,2.437,0,0,1-.09-.434l-.014-.02a1.957,1.957,0,0,1-.253-.457,3.021,3.021,0,0,1-.127-.549,3.244,3.244,0,0,1-.246-.7,5.324,5.324,0,0,1-.121-.674c-.012-.129-.028-.255-.047-.376-.049-.193-.1-.439-.146-.749a3.129,3.129,0,0,1-.044-.881,2.815,2.815,0,0,1,.128-.561,1.413,1.413,0,0,1,.621-.709,1.655,1.655,0,0,1,.633-.241,1.707,1.707,0,0,1,.407-.015,1.112,1.112,0,0,1,1.013.733,1.857,1.857,0,0,1,0,1.106,3.435,3.435,0,0,0,.01.8,5.674,5.674,0,0,0,.207,1.159l.024.079,0,.083a2.144,2.144,0,0,0,.145.816,1.933,1.933,0,0,1,.246.78,2.583,2.583,0,0,0,.133.337,10.436,10.436,0,0,1,.5.989,11.42,11.42,0,0,0,.631,1.2,6.593,6.593,0,0,0,.7.959,6.641,6.641,0,0,1,.595.569,2.1,2.1,0,0,0,.215.134,1.578,1.578,0,0,0,.139-.095,3.653,3.653,0,0,1,.567-.719,3.154,3.154,0,0,1,.145-.406,2.265,2.265,0,0,1,.347-.5,1.649,1.649,0,0,1,.343-.655,3.931,3.931,0,0,1,.323-.487s0-.007.007-.024a.99.99,0,0,1,.384-.694c.1-.19.2-.393.309-.606l.012-.024.015-.023c.155-.257.291-.486.4-.681a3.439,3.439,0,0,1,.475-.652,1.2,1.2,0,0,1,.685-.377,1.144,1.144,0,0,1,.4.009,1.472,1.472,0,0,1,.86.543,1.216,1.216,0,0,1,.243,1.126,2.351,2.351,0,0,1-.285.636c-.082.123-.234.349-.453.672-.3.472-.679,1.05-1.141,1.718s-.812,1.2-1.067,1.612c-.266.433-.539.854-.812,1.252l-.051.074-.069.057a3.635,3.635,0,0,1-.87.555,1.61,1.61,0,0,1-.387.109,2.415,2.415,0,0,1-.378.028A4.394,4.394,0,0,1,130.753,40.847Zm21.88-2.177a2.872,2.872,0,0,1-2.1-1.793,12.8,12.8,0,0,1-.558-1.7c-.076-.365-.144-.73-.2-1.087-.059-.374-.111-.966-.16-1.812-.045-.791-.1-1.362-.149-1.7l0-.033,0-.032c-.022-.387-.016-1.05.017-2.028s.126-2.047.274-3.219a3.128,3.128,0,0,0,.044-.518,1.811,1.811,0,0,1,.3-.974,1.682,1.682,0,0,1,.986-.866l.045-.012c.04-.009.081-.017.121-.024a2.032,2.032,0,0,1,1.086.145l.037.016c.858.409.824,1.011.769,1.251a2.169,2.169,0,0,1-.317.738c-.074.111-.144.224-.207.338-.076.327-.2.9-.375,1.694a1.672,1.672,0,0,1-.164.8c-.03.317-.061.686-.089,1.1-.04.576-.048.832-.047.945a4.894,4.894,0,0,0,.032.5,1.575,1.575,0,0,1-.086.724,3.9,3.9,0,0,1,.034.924c.1.548.174,1.038.213,1.457a8.632,8.632,0,0,0,.372,1.6,3.086,3.086,0,0,0,.3.764,3.9,3.9,0,0,0,.4.463c.022.022.065.065.226.044a1.925,1.925,0,0,0,.668-.212,10.405,10.405,0,0,0,1.24-.924c.393-.341.73-.639,1-.889a2.477,2.477,0,0,1,.608-.619,1.2,1.2,0,0,1,.578-.652l.125-.171a2.124,2.124,0,0,1,.423-.405,1.145,1.145,0,0,1,.545-.726.589.589,0,0,0,.088-.058l0-.007a5.746,5.746,0,0,1,.419-.577c.132-.159.309-.369.526-.625a7.286,7.286,0,0,1,.559-.6,2.6,2.6,0,0,0,.345-.447l.028-.038a1.7,1.7,0,0,1,1.023-.754,2.326,2.326,0,0,1,.709,0,1.123,1.123,0,0,1,.9.813,1.091,1.091,0,0,1-.122,1.086c-.059.072-.182.214-.58.611a1.646,1.646,0,0,0-.214.266,1.1,1.1,0,0,1-.415.4,2.029,2.029,0,0,1-.461.625c-.18.166-.369.353-.562.557l-.009.01a4.554,4.554,0,0,0-.6.728,2.313,2.313,0,0,1-.625.678c-.079.1-.171.2-.28.314a2.526,2.526,0,0,0-.23.262c-.051.07-.159.21-.518.627a11.438,11.438,0,0,1-1.485,1.32,1.553,1.553,0,0,1-.655.757c-.177.1-.365.191-.558.276a3.259,3.259,0,0,1-.668.442,2.994,2.994,0,0,1-.619.2c-.157.034-.359.084-.6.148a1.414,1.414,0,0,1-.154.032,1.765,1.765,0,0,1-.276.021A2.918,2.918,0,0,1,152.633,38.671ZM141.2,36.737a1.225,1.225,0,0,1-.812-.917,1.778,1.778,0,0,1,0-.8,2.369,2.369,0,0,0,.041-.443,3.473,3.473,0,0,1,.03-1c-.131-.692-.157-.889-.165-.984a1.735,1.735,0,0,1,.056-.57,2.222,2.222,0,0,1-.174-.688,3.4,3.4,0,0,0-.168-.685l-.028-.084-.006-.087a1.861,1.861,0,0,0-.18-.565c-.145-.331-.274-.637-.383-.91a1.725,1.725,0,0,0-.2-.4l-.07-.088-.037-.106a1.617,1.617,0,0,1-.077-.863,1.578,1.578,0,0,1,.352-.712l.052-.062.066-.047a1.556,1.556,0,0,1,.664-.286,1.873,1.873,0,0,1,.712-.011,1.148,1.148,0,0,1,.718.653,3.773,3.773,0,0,1,.518,1.167,15.987,15.987,0,0,1,.41,1.943l.362,2.287a6.816,6.816,0,0,1,.138,1.161c.011.322.031.628.057.911a2.719,2.719,0,0,1,.236.961,1.259,1.259,0,0,1-.261.817,1.475,1.475,0,0,1-.775.454,1.691,1.691,0,0,1-.461.064A1.747,1.747,0,0,1,141.2,36.737Zm35.67-.7a2.7,2.7,0,0,1-1.236-.434l-.051-.029-.045-.037c-.157-.131-.334-.289-.526-.47a11.794,11.794,0,0,0-1.112-.837c-.616-.432-1.257-.913-1.9-1.432a10.743,10.743,0,0,1-1.182-1.011c-.078-.091-.187-.206-.326-.342a2.707,2.707,0,0,1-.513-.715,1.526,1.526,0,0,1-.15-1.045,1.361,1.361,0,0,1,.809-1.022,2.9,2.9,0,0,1,.786-.211c.184-.02.374-.037.566-.05a6.358,6.358,0,0,0,1.052-.308c.339-.17.6-.311.763-.418a5.157,5.157,0,0,0,.687-.582,6.732,6.732,0,0,0,.526-.53,5.166,5.166,0,0,0,.275-.5,1.957,1.957,0,0,1,.242-.624,1.35,1.35,0,0,0,.081-.449,2.846,2.846,0,0,1,0-.678.879.879,0,0,0-.059-.327l-.021-.067-.006-.07a.964.964,0,0,0-.093-.377,3.76,3.76,0,0,1-.263-.611c-.006-.018-.013-.039-.022-.064-.515.153-.882.267-1.1.341a2.549,2.549,0,0,0-.524.228,1.358,1.358,0,0,1-.7.212.947.947,0,0,1-.416.182.791.791,0,0,1-.226,0,1.991,1.991,0,0,1-.4.231,1.538,1.538,0,0,1-.38.108,2.174,2.174,0,0,1-.35.026,1.406,1.406,0,0,1-.662.207,1.6,1.6,0,0,1-.745.418c-.045.007-.163.029-.456.1-.322.122-.566.209-.747.266a4.555,4.555,0,0,1-.651.151,6.541,6.541,0,0,0-.727.18,2.374,2.374,0,0,1-1.118.328,1.628,1.628,0,0,1-1.274-.436,1.369,1.369,0,0,1-.451-1.09,1.335,1.335,0,0,1,.381-.894,1.449,1.449,0,0,1,.807-.389A5.136,5.136,0,0,1,166,22.9c.162-.007.308-.01.434-.011a.679.679,0,0,0,.1-.009,1.681,1.681,0,0,0,.165-.036,3.214,3.214,0,0,1,.574-.1c.514-.152.886-.25,1.137-.3.223-.044.67-.155,1.33-.33,1.268-.4,2.247-.716,2.992-.952.535-.17,1.092-.351,1.664-.541l-.041-.078a7.892,7.892,0,0,1-.392-.853,2.652,2.652,0,0,1-.326-1.02,1.877,1.877,0,0,1-.043-.928,1.135,1.135,0,0,1,.495-.779c.1-.061.243-.134.432-.225l.163-.079.18.016a2.973,2.973,0,0,1,.562.1,2.326,2.326,0,0,1,.511.209,1.018,1.018,0,0,1,.487.935c0,.17,0,.394-.011.683.049.087.1.18.143.278a1.47,1.47,0,0,1,.138.687l.092.241c.068-.015.134-.028.2-.038s.136-.019.2-.024l.035,0h0a.071.071,0,0,0,.023-.013,1.636,1.636,0,0,1,.634-.284,1.588,1.588,0,0,1,.536-.2.5.5,0,0,0,.155-.064,1.68,1.68,0,0,1,.621-.2,3.619,3.619,0,0,1,.753-.246,1.318,1.318,0,0,1,.608-.261,1.628,1.628,0,0,1,.523-.264c.032-.008.136-.039.423-.149a1.834,1.834,0,0,1,1.038-.1,1.687,1.687,0,0,1,.968.519,1.2,1.2,0,0,1,.336,1.093,1.094,1.094,0,0,1-.762.826c-.186.059-.407.118-.676.18a2.534,2.534,0,0,1-.6.138.787.787,0,0,0-.216.06,1.625,1.625,0,0,1-.488.118,2.324,2.324,0,0,1-.916.316,1.822,1.822,0,0,0-.2.083,1.605,1.605,0,0,1-.546.149,6.042,6.042,0,0,1-.612.21c-.2.056-.412.128-.634.214l-.039.013c-.18.057-.375.116-.584.178.035.118.07.251.1.4a3.732,3.732,0,0,0,.109.393,3.465,3.465,0,0,1,.14.568c.022.141.074.4.151.784l.015.07v.072c-.007.439-.018.755-.034.965a4.176,4.176,0,0,1-.107.67c-.045.184-.1.389-.154.609a1.606,1.606,0,0,1-.423.788l0,0a1.028,1.028,0,0,1-.309.461,1.025,1.025,0,0,1-.413.643.531.531,0,0,0-.112.11,6.62,6.62,0,0,1-.54.564,3.026,3.026,0,0,1-.786.572,2.63,2.63,0,0,1-.58.366l-.5.2c-.236.14-.4.234-.491.286a1.965,1.965,0,0,1-.239.111,3.511,3.511,0,0,0,.322.25,7.046,7.046,0,0,1,.9.683.982.982,0,0,0,.326.185l.211.082.116.195a.376.376,0,0,0,.041.057,1.416,1.416,0,0,1,.587.478c.226.077.52.182.89.318l.106.039.088.073a2.2,2.2,0,0,0,.484.344,1.047,1.047,0,0,1,.691.757,2.7,2.7,0,0,1,.055.663,1.179,1.179,0,0,1-.423.938,1.366,1.366,0,0,1-.877.277Zm-57.441-1.812a6.8,6.8,0,0,1-.6-.535,14.762,14.762,0,0,1-1.409-1.534,4.489,4.489,0,0,0-.884-.885,1.142,1.142,0,0,1-.723-1.07,1.673,1.673,0,0,1,.213-.9,1.2,1.2,0,0,1,.887-.555,1.553,1.553,0,0,1,1,.174,1.82,1.82,0,0,1,.67.671c.176.17.38.364.606.577a3.129,3.129,0,0,1,.563.676,1.493,1.493,0,0,1,.432.491,1.193,1.193,0,0,0,.271.3,1.923,1.923,0,0,1,.633.626,1.212,1.212,0,0,1,.191,1.041,1.969,1.969,0,0,0-.064.239,1,1,0,0,1-.774.747,1.915,1.915,0,0,1-.306.078,1.245,1.245,0,0,1-.194.016A.856.856,0,0,1,119.432,34.226ZM51.216,29.677l-.047-.01-.045-.016c-.328-.122-.678-.271-1.04-.443A4.974,4.974,0,0,1,48.472,27.6l-.045-.062-.03-.07a12.745,12.745,0,0,1-.877-3.163,22.492,22.492,0,0,1-.218-3.044q-.954,1.063-2.305,2.6l-.081.093L44.807,24c-.028.014-.049.026-.066.036a.989.989,0,0,1-.4.436,3.513,3.513,0,0,0-.312.259,1.6,1.6,0,0,1-1,.659c-.032.005-.065.009-.1.011a2.171,2.171,0,0,1-.835-.073,1.1,1.1,0,0,1-.745-.9,1.478,1.478,0,0,1,.028-.854,2.47,2.47,0,0,1,.23-.43,1.683,1.683,0,0,1,.886-.593,2.57,2.57,0,0,0,.611-.322c.219-.233.443-.453.667-.653s.413-.384.6-.585l0,0c1.073-1.111,1.891-1.987,2.432-2.6a8.48,8.48,0,0,1,1.11-1.166.917.917,0,0,0,.19-.236c.118-.183.2-.321.255-.411a1.214,1.214,0,0,1,.6-.511.52.52,0,0,0,.03-.057,1.655,1.655,0,0,1,.648-.726l.1-.121c-.252.091-.37.128-.441.148a.6.6,0,0,0-.192.088,1.166,1.166,0,0,1-.756.231l-.4.207-.039.014c-.237.088-.46.159-.664.214-.145.095-.26.168-.349.223a1.224,1.224,0,0,1-.438.159,1.262,1.262,0,0,1-.523.341,2.186,2.186,0,0,1-.39.43,1.514,1.514,0,0,1-.735.307,2.862,2.862,0,0,1-.316.03,1.275,1.275,0,0,1-1.168-.481,1.9,1.9,0,0,1-.321-.889c-.1-.832.9-1.309,1.27-1.488a45.187,45.187,0,0,1,5.181-1.857l.016,0c.807-.232,1.458-.416,1.943-.551-.011-.189-.022-.336-.034-.438-.021-.187-.052-.412-.093-.669l-.009-.054v-.055a.337.337,0,0,0-.069-.213,2.888,2.888,0,0,1-.4-.843,1.161,1.161,0,0,1-.042-.218l-.212.168a12.921,12.921,0,0,0-1.707,1.522,9.281,9.281,0,0,0-.732,1.038l-.051.083L48,12.658a2.262,2.262,0,0,1-1.147.591,1.131,1.131,0,0,1-1.272-.726,1.491,1.491,0,0,1,.518-1.87,2.705,2.705,0,0,1,.569-.523,1.474,1.474,0,0,1,.585-.468,1.06,1.06,0,0,1,.354-.324,1.136,1.136,0,0,1,.464-.431,1.287,1.287,0,0,1,.5-.427l.075-.162.222-.1a2.672,2.672,0,0,0,.582-.339,4.886,4.886,0,0,1,.524-.382,4.3,4.3,0,0,1,.4-.378.985.985,0,0,1,.35-.176.943.943,0,0,1,.547-.349.983.983,0,0,1,.6-.347,5.955,5.955,0,0,1,1.222-.77l.007,0a1.9,1.9,0,0,0,.319-.136,2.629,2.629,0,0,1,1.093-.453l.035-.009.036-.006a1.644,1.644,0,0,1,.715.045,3.279,3.279,0,0,1,.513.195,1.188,1.188,0,0,1,.618.749c.061.194.114.393.155.59a1.007,1.007,0,0,1-.634,1.146,2.011,2.011,0,0,1-.847.2,2.83,2.83,0,0,1-.636-.09,6.09,6.09,0,0,0-1.606.634c-.066.036-.132.074-.2.114a1.2,1.2,0,0,1,.507.38,3.866,3.866,0,0,1,.6,1.162l.039.114,0,.12c-.012.374-.015.785-.008,1.22,0,.07,0,.134,0,.195,1.011-.226,1.7-.384,2.055-.469l.04-.008,1.508-.266c.213-.034.419-.075.612-.122a3.029,3.029,0,0,1,.846-.082,5.075,5.075,0,0,0,.653-.018,1.494,1.494,0,0,1,1.57,1.615,1.213,1.213,0,0,1-.605.861,2,2,0,0,1-.659.261,5.228,5.228,0,0,1-.805.168,3.158,3.158,0,0,1-.551.016,1.255,1.255,0,0,1-.687-.3c-.151.006-.324.011-.519.013a2.209,2.209,0,0,1-.416.114,1.124,1.124,0,0,1-.463-.014c-.019,0-.046,0-.085.011a6.811,6.811,0,0,0-.7.164l-.034.009c-.307.068-.655.135-1.036.2.076.009.153.02.235.034l.263.047.156.217a4.439,4.439,0,0,1,.516.939,1.188,1.188,0,0,1,.465.449,1.494,1.494,0,0,1,.413.4.38.38,0,0,0,.136.1,2.8,2.8,0,0,1,.686.545.756.756,0,0,0,.084.065,1.418,1.418,0,0,1,.772.374,7.373,7.373,0,0,0,1.313.6,14.658,14.658,0,0,0,2.576.748,16.043,16.043,0,0,0,2.589.3,1.626,1.626,0,0,1,.706.027,1.261,1.261,0,0,1,.755.471,1.8,1.8,0,0,1,.251.5,1.124,1.124,0,0,1-.072.849,1.251,1.251,0,0,1-.754.629,3.524,3.524,0,0,1-.616.163l-.093.015-.094-.013a2.709,2.709,0,0,1-.855-.212h0a1.221,1.221,0,0,1-.661-.189,1.376,1.376,0,0,1-.776-.14l-.034,0a1.1,1.1,0,0,1-.894-.265.939.939,0,0,1-.5-.135A.6.6,0,0,0,61,20.3l-.1-.006-.093-.036-.868-.332a2.346,2.346,0,0,1,.327,1.03l0,.036a7.633,7.633,0,0,1-.018,1.024,5.132,5.132,0,0,1-.2,1.026c-.093.309-.188.595-.282.849a5.334,5.334,0,0,0-.18.565c-.036.145-.1.4-.194.774a1.61,1.61,0,0,1,.247.621,1.4,1.4,0,0,1-.217.984,1.855,1.855,0,0,1-.722.624,2.322,2.322,0,0,1-.76.767,1.387,1.387,0,0,1-.473.168,1.582,1.582,0,0,1-.866-.122,2.768,2.768,0,0,1-.532-.289,3.479,3.479,0,0,1-.7.049,2.69,2.69,0,0,1-.512.141,1.558,1.558,0,0,1-.331.018h-.011a1.648,1.648,0,0,1-.519.2c-.18.039-.389.072-.626.1-.034,0-.068.009-.091.014a1.17,1.17,0,0,1-.328.174,1.381,1.381,0,0,1-.073.232,1.328,1.328,0,0,1-.606.647,1.367,1.367,0,0,1-.675.168A1.878,1.878,0,0,1,51.216,29.677Zm-.6-3.411a.854.854,0,0,1,.291.349l.055.009a.963.963,0,0,1,.186.05,1.028,1.028,0,0,1,.637-.366l.042-.006a3.9,3.9,0,0,0,.58-.116c.245-.067.508-.133.781-.2l.027-.005c.678-.125,1.224-.239,1.624-.337.419-.1.8-.193,1.147-.265.243-.052.526-.115.845-.188.021-.064.041-.124.061-.18l-.018,0c-.074.018-.147.034-.216.045a1.228,1.228,0,0,1-.989-.2,3.577,3.577,0,0,1-.294-.263c-.141.018-.261.038-.357.058a4.517,4.517,0,0,0-.517.142,3.273,3.273,0,0,1-.7.16,1.205,1.205,0,0,0-.355.18l-.077.05-.794.238a1.2,1.2,0,0,0-.063.152.918.918,0,0,1-.793.616,2.229,2.229,0,0,1-.457.018,1.476,1.476,0,0,1-.759-.237A1.14,1.14,0,0,1,50.616,26.266Zm.133-8.684c-.409.443-.941,1-1.582,1.65-.082.084-.179.184-.288.3l.043,0a1.611,1.611,0,0,1,1.048.5,1.153,1.153,0,0,1,.127,1.314,1.926,1.926,0,0,0-.17.549l-.016.114-.053.1a.963.963,0,0,0-.073.166,1.18,1.18,0,0,1-.038.534,1.018,1.018,0,0,1,0,.582,1.739,1.739,0,0,1,.141.683.213.213,0,0,0,.006.078,1.169,1.169,0,0,1,.066.22,1.327,1.327,0,0,1,.145-.343,2.148,2.148,0,0,1,.982-.78,2.749,2.749,0,0,1,.87-.311l.151-.052a2.476,2.476,0,0,1-.437.011,1.509,1.509,0,0,1-1.226-.879l-.07-.122-.015-.139a1.5,1.5,0,0,1,.476-1.324A2.8,2.8,0,0,1,51.518,20c-.027-.032-.053-.066-.08-.1a1.342,1.342,0,0,1-.184-1.168c.017-.324.035-.62.054-.881.02-.278.041-.555.063-.825,0-.022,0-.047.005-.074Q51,17.307,50.749,17.582Zm2.507,4.449c-.058.118-.106.205-.147.27a1.275,1.275,0,0,1-.459.42q.443-.134.946-.267c.351-.092.659-.159.918-.2a4.048,4.048,0,0,1,.457-.049,2.023,2.023,0,0,1,.857-.136,4.765,4.765,0,0,1,.764.074,3.745,3.745,0,0,1,.558.161,1.119,1.119,0,0,1,.526.4,5.388,5.388,0,0,0,.173-.636A2.244,2.244,0,0,0,57.9,21.5a.748.748,0,0,0-.055-.235.764.764,0,0,0-.33-.078,3.914,3.914,0,0,0-.643.019,3.047,3.047,0,0,1-.632.016,9.124,9.124,0,0,1-.941.224,1.3,1.3,0,0,1-.5,0,.534.534,0,0,0-.076.026,1.538,1.538,0,0,0-.319.161,1,1,0,0,1-.686.176A1.839,1.839,0,0,1,53.256,22.031Zm.633-5.206c-.013.237-.027.576-.041,1.007a2.57,2.57,0,0,1,.07.641.589.589,0,0,0,.047.212,1.2,1.2,0,0,1,.077.5l.018,0c.259-.059.539-.126.833-.2.146-.037.313-.07.493-.1.232-.036.5-.068.793-.092a9.14,9.14,0,0,1,1.033-.036l-1.03-.555a27.3,27.3,0,0,1-2.29-1.518C53.892,16.729,53.891,16.777,53.889,16.825ZM71.8,24.441a3.8,3.8,0,0,1-.414-.2l-.032-.018-.03-.022a3.019,3.019,0,0,1-.611-.536,2.04,2.04,0,0,1-.176-.276A1.048,1.048,0,0,1,70.11,23c-.071-.113-.142-.24-.216-.388a2.607,2.607,0,0,1-.356-.488,3.039,3.039,0,0,1-.281-.6A3.819,3.819,0,0,1,69,20.672a1.952,1.952,0,0,1-.086-.886,1.318,1.318,0,0,1-.051-.615A1.477,1.477,0,0,1,68.8,18.4a1.762,1.762,0,0,1,.012-.689,1.731,1.731,0,0,1-.064-.57c.009-.105.022-.282.036-.524a6.844,6.844,0,0,1,.073-.7c.018-.112.084-.559.286-2.059.165-1.222.449-2.8.844-4.693a7.426,7.426,0,0,1,.268-1.1,4.338,4.338,0,0,1,.4-.962l.016-.028.019-.026a2.479,2.479,0,0,1,.6-.611,2.155,2.155,0,0,1,.626-.3,1.952,1.952,0,0,1,.23-.05,2.422,2.422,0,0,1,.474-.026,1.184,1.184,0,0,1,.98.6,2.139,2.139,0,0,1,.295.768,1.173,1.173,0,0,1-.439,1.085,1.448,1.448,0,0,1-.795.378,4.163,4.163,0,0,1-.111.462c-.027.086-.087.292-.218.789-.106.4-.267,1.075-.479,2.007l-.283,1.484-.034.073a.274.274,0,0,0-.025.072,2.7,2.7,0,0,1-.034.368,2.827,2.827,0,0,1-.113.413,1.34,1.34,0,0,1-.146.77,1.2,1.2,0,0,1-.147.807s0,0,0,.005A3.931,3.931,0,0,1,71,17.32c.043.614.064,1.124.062,1.517a2.878,2.878,0,0,0,.068.753,5.556,5.556,0,0,0,.186.559,1,1,0,0,0,.081.168,1.173,1.173,0,0,1,.322.558.667.667,0,0,0,.059.1,1.24,1.24,0,0,1,.452.53,2.7,2.7,0,0,0,.331.223l.033.021c.31.207.467.3.544.342a1.331,1.331,0,0,1,.612.936,1.106,1.106,0,0,1-.463,1.265,1.625,1.625,0,0,1-.81.273h-.058A1.616,1.616,0,0,1,71.8,24.441Zm9.409-3a.809.809,0,0,0-.212-.008,1.46,1.46,0,0,1-.9-.216,6.578,6.578,0,0,1-.846-.414A1.9,1.9,0,0,1,78.5,20a1.774,1.774,0,0,1-.368-1.234A2.287,2.287,0,0,1,78.6,17.51a4.921,4.921,0,0,1,.917-.909l.063-.049.073-.032c.253-.112.469-.21.643-.291a1.751,1.751,0,0,1,.782-.18.1.1,0,0,0,.02-.012l.1-.068.113-.031a3.143,3.143,0,0,1,1-.117c.059-.014.118-.027.179-.038.01-.151.02-.282.03-.388l0-.025,0-.025a5.428,5.428,0,0,0,.047-.836c0-.382-.02-.821-.062-1.306s-.083-.862-.123-1.114a3.832,3.832,0,0,1-.057-.691,2.8,2.8,0,0,0-.045-.474c-.018-.112-.061-.322-.162-.717a1.125,1.125,0,0,1-.44.116.619.619,0,0,0-.159.042,3.215,3.215,0,0,1-.582.146,1.93,1.93,0,0,1-.4.089,1.013,1.013,0,0,1-.452.2.914.914,0,0,1-.251.005,1.223,1.223,0,0,0-.241.073l-.065.025-.069.011a.727.727,0,0,0-.232.061l-.388.225a2.379,2.379,0,0,1-.718.268,1.537,1.537,0,0,1-.966-.109,1.4,1.4,0,0,1-.732-.835,1.321,1.321,0,0,1,.189-1.258,1.458,1.458,0,0,1,.858-.618l1.055-.234a3.33,3.33,0,0,1,1.022-.168c.657-.138,1.211-.253,1.649-.339q.219-.044.4-.085c0-.018-.005-.036-.009-.054l-.008-.051V7.663a1.514,1.514,0,0,1,.741-1.343,1.224,1.224,0,0,1,.451-.169,1.353,1.353,0,0,1,1.461.974c.12-.035.284-.078.509-.134a4.881,4.881,0,0,1,.838-.289l.062-.012a1.15,1.15,0,0,1,.838.191c-.139-.214-.291-.454-.452-.716L86,6.112l-.022-.058q-.188-.492-.306-.8a1.14,1.14,0,0,1,.453-1.35A1.933,1.933,0,0,1,87,3.442a1.3,1.3,0,0,1,.782.118,1.364,1.364,0,0,1,.64.718,2.462,2.462,0,0,1,.189.836,3.8,3.8,0,0,0,.285.609,3.13,3.13,0,0,0,.373.486,4.628,4.628,0,0,0,.467.442,2.079,2.079,0,0,1,.525.5,2.287,2.287,0,0,0,.264.2l.048.032.041.039a1.349,1.349,0,0,1,.477,1.2,1.281,1.281,0,0,1-.511.909,1.465,1.465,0,0,1-.724.28,1.646,1.646,0,0,1-.724-.107,1.8,1.8,0,0,1-.618-.378,2.017,2.017,0,0,1-.34-.427l-.34-.275a3.613,3.613,0,0,1-.541-.59q-.1-.133-.209-.276a1.219,1.219,0,0,1,.02.13,1.692,1.692,0,0,1-.055.7.952.952,0,0,1-.793.659,2.441,2.441,0,0,0-.4.118,1.039,1.039,0,0,1-.639.145,1.286,1.286,0,0,1-.54.164s-.028,0-.11.015l-.034.005c.034.232.051.33.06.372a2.655,2.655,0,0,1,.054.666.925.925,0,0,0,.055.338l.038.109v.114a8.182,8.182,0,0,0,.041.9,14.855,14.855,0,0,1,.135,2.124c-.006.464-.015.972-.028,1.518.444.022.782.038,1.01.046.318.011,1.066.014,2.225.009.309-.03.532-.047.682-.051a3.226,3.226,0,0,1,.845.136l.074.019.067.036a1.687,1.687,0,0,1,.768.741,1.082,1.082,0,0,1,.049.978,2.169,2.169,0,0,1-.267.416,1.085,1.085,0,0,1-.693.382c-.051.008-.1.013-.158.016a2.387,2.387,0,0,1-.757-.1,2.947,2.947,0,0,1-.976-.105,1.278,1.278,0,0,0-.3-.031,1.256,1.256,0,0,1-.663-.051,1.121,1.121,0,0,1-.139.031,1.313,1.313,0,0,1-.7-.09,1.813,1.813,0,0,1-.564-.018.62.62,0,0,0-.212.009,1.952,1.952,0,0,1-.62.014h-.023a1.287,1.287,0,0,1-.213.483.878.878,0,0,1-.237.7.958.958,0,0,1-.431.641c-.01.028-.022.065-.036.113l-.032.111-.068.094a2.426,2.426,0,0,1-1.28.956,4.4,4.4,0,0,1-.534.124,2.078,2.078,0,0,1-.323.028A1.319,1.319,0,0,1,81.2,21.443Zm.1-2.951a1.846,1.846,0,0,1-.437.346l.049.076a1.128,1.128,0,0,0,.465.112.866.866,0,0,0,.351-.22c.084-.205.161-.376.232-.517h0C81.741,18.351,81.521,18.419,81.3,18.492Zm19.254.3A2.87,2.87,0,0,1,98.452,17a12.72,12.72,0,0,1-.558-1.7c-.077-.365-.144-.73-.2-1.088-.059-.373-.112-.966-.161-1.812-.045-.791-.1-1.361-.148-1.7l-.005-.032,0-.033c-.022-.386-.017-1.049.018-2.027s.125-2.047.273-3.219a3.366,3.366,0,0,0,.045-.518,1.806,1.806,0,0,1,.295-.975,1.677,1.677,0,0,1,.986-.866l.045-.012A1.228,1.228,0,0,1,99.16,3a2.031,2.031,0,0,1,1.085.145l.037.016c.857.409.823,1.011.768,1.251a2.182,2.182,0,0,1-.316.737c-.075.111-.145.224-.208.339-.076.326-.2.894-.374,1.694a1.671,1.671,0,0,1-.165.8c-.03.316-.06.686-.089,1.1-.04.576-.047.832-.047.945a4.821,4.821,0,0,0,.032.5,1.57,1.57,0,0,1-.086.724,3.86,3.86,0,0,1,.034.923c.1.549.174,1.038.213,1.457a8.69,8.69,0,0,0,.372,1.6,3.158,3.158,0,0,0,.3.764,3.949,3.949,0,0,0,.4.462c.022.023.065.066.226.045a1.94,1.94,0,0,0,.668-.212,10.355,10.355,0,0,0,1.24-.923c.393-.341.73-.639,1-.889a2.455,2.455,0,0,1,.608-.619,1.2,1.2,0,0,1,.578-.652l.124-.171a2.108,2.108,0,0,1,.423-.405,1.147,1.147,0,0,1,.545-.726.505.505,0,0,0,.088-.059l0-.007a6.016,6.016,0,0,1,.419-.576c.132-.16.309-.37.526-.625a7.339,7.339,0,0,1,.559-.6,2.632,2.632,0,0,0,.345-.447l.028-.039a1.7,1.7,0,0,1,1.022-.754,2.331,2.331,0,0,1,.709,0,1.124,1.124,0,0,1,.9.812,1.094,1.094,0,0,1-.123,1.087,8.374,8.374,0,0,1-.58.61,1.66,1.66,0,0,0-.213.266,1.1,1.1,0,0,1-.415.4,2.009,2.009,0,0,1-.461.624c-.18.166-.368.353-.562.557l-.009.01a4.624,4.624,0,0,0-.6.727,2.286,2.286,0,0,1-.625.678c-.078.1-.171.2-.28.314a2.573,2.573,0,0,0-.23.263c-.05.069-.159.21-.518.627a11.462,11.462,0,0,1-1.484,1.32,1.552,1.552,0,0,1-.655.757c-.178.1-.364.191-.559.276a3.239,3.239,0,0,1-.668.441,2.982,2.982,0,0,1-.619.2c-.157.034-.359.083-.6.148-.05.013-.1.024-.155.032a1.758,1.758,0,0,1-.276.021A2.908,2.908,0,0,1,100.557,18.794Zm19.326-4.349-.168-.028-.133-.106a1.8,1.8,0,0,0-.5-.293,1.789,1.789,0,0,1-.836-.6c-.274-.262-.519-.512-.729-.744a2.953,2.953,0,0,1-.553-.87,1.309,1.309,0,0,0-.151-.157,1.023,1.023,0,0,1-.532-.928.4.4,0,0,0-.039-.055,1.861,1.861,0,0,1-.31-.541,1.2,1.2,0,0,1-.322-.659.559.559,0,0,0-.052-.076l-.1-.134-.027-.168a3.28,3.28,0,0,0-.085-.4,2.391,2.391,0,0,1-.089-.434c0-.006-.008-.012-.014-.021a1.96,1.96,0,0,1-.253-.457,2.9,2.9,0,0,1-.127-.549,3.236,3.236,0,0,1-.247-.7,5.21,5.21,0,0,1-.12-.673c-.013-.129-.029-.255-.047-.376-.049-.194-.1-.439-.146-.749a3.177,3.177,0,0,1-.044-.882,2.751,2.751,0,0,1,.129-.56,1.408,1.408,0,0,1,.62-.709,1.646,1.646,0,0,1,.633-.241,1.706,1.706,0,0,1,.407-.015,1.114,1.114,0,0,1,1.014.733,1.863,1.863,0,0,1,0,1.106,3.367,3.367,0,0,0,.009.8,5.674,5.674,0,0,0,.207,1.159l.024.079,0,.083a2.113,2.113,0,0,0,.145.816,1.947,1.947,0,0,1,.246.78,2.513,2.513,0,0,0,.132.337,10.079,10.079,0,0,1,.5.99,11.376,11.376,0,0,0,.632,1.2,6.6,6.6,0,0,0,.7.96,6.533,6.533,0,0,1,.595.568,2.018,2.018,0,0,0,.216.134,1.532,1.532,0,0,0,.139-.095,3.655,3.655,0,0,1,.567-.719,3.347,3.347,0,0,1,.145-.406,2.3,2.3,0,0,1,.347-.5,1.644,1.644,0,0,1,.343-.655,4.1,4.1,0,0,1,.323-.487s.005-.007.007-.023a.987.987,0,0,1,.383-.695c.1-.19.2-.393.309-.606l.012-.024.014-.023c.156-.257.291-.486.4-.682a3.456,3.456,0,0,1,.475-.652,1.2,1.2,0,0,1,.685-.377,1.16,1.16,0,0,1,.4.009,1.474,1.474,0,0,1,.86.543A1.217,1.217,0,0,1,126.11,7.8a2.323,2.323,0,0,1-.285.636c-.082.123-.234.349-.453.672-.295.472-.679,1.05-1.141,1.718s-.812,1.2-1.067,1.612c-.266.433-.539.854-.812,1.252l-.051.074-.069.058a3.631,3.631,0,0,1-.87.555,1.6,1.6,0,0,1-.386.109,2.423,2.423,0,0,1-.378.028A4.4,4.4,0,0,1,119.883,14.445Zm10.451-4.11a1.225,1.225,0,0,1-.813-.916,1.787,1.787,0,0,1,0-.8,2.393,2.393,0,0,0,.041-.444,3.478,3.478,0,0,1,.03-1c-.13-.688-.156-.884-.164-.984a1.737,1.737,0,0,1,.057-.57,2.236,2.236,0,0,1-.175-.687,3.4,3.4,0,0,0-.167-.686l-.029-.083-.006-.088a1.838,1.838,0,0,0-.18-.566c-.145-.331-.274-.637-.383-.91a1.761,1.761,0,0,0-.2-.4l-.071-.088-.037-.106a1.611,1.611,0,0,1-.078-.863,1.577,1.577,0,0,1,.352-.712l.053-.062.066-.047a1.559,1.559,0,0,1,.664-.286A1.9,1.9,0,0,1,130,.029a1.146,1.146,0,0,1,.718.653,3.757,3.757,0,0,1,.519,1.167,16.063,16.063,0,0,1,.409,1.943l.362,2.287a6.882,6.882,0,0,1,.137,1.161c.012.322.031.628.058.911a2.719,2.719,0,0,1,.236.961,1.266,1.266,0,0,1-.261.817,1.475,1.475,0,0,1-.775.454,1.692,1.692,0,0,1-.461.064A1.748,1.748,0,0,1,130.334,10.335ZM91.652,7.889a1.148,1.148,0,0,1-.766-.824c-.193-.553-.355-.982-.48-1.275a2.841,2.841,0,0,0-.293-.561,3.842,3.842,0,0,0-.423-.455l-.066-.063-.047-.078a3.636,3.636,0,0,1-.306-.657,1.054,1.054,0,0,1,.312-1.189,2.149,2.149,0,0,1,.955-.426l.083-.018.085,0a1.575,1.575,0,0,1,1.275.848L92,3.22l.014.028c.208.412.563,1.114,1.085,2.144a1.676,1.676,0,0,1,.365.929,1.8,1.8,0,0,1-.147.926,1.187,1.187,0,0,1-.853.657l-.1.018a1.84,1.84,0,0,1-.288.023A1.531,1.531,0,0,1,91.652,7.889Z" transform="translate(434.288 2896.279)" fill="#009f39"/>
    </g>
  </g>
</svg>
