<svg xmlns="http://www.w3.org/2000/svg" width="286.809" height="322.593" viewBox="0 0 286.809 322.593">
  <g id="concept_item2_text_mb" transform="translate(-86.574 -3278.465)">
    <path id="パス_4801_-_アウトライン" data-name="パス 4801 - アウトライン" d="M81.518-26.9h.045l.045,0A1.848,1.848,0,0,1,83.4-25.156l.008.085-.007.085a5.477,5.477,0,0,0,0,.827,3.191,3.191,0,0,1-.149,1.227,7.943,7.943,0,0,1-.144,1.2c-.049.258-.093.485-.13.678.742-.089,1.37-.175,1.878-.258.81-.132,1.65-.285,2.5-.453.338-.072.644-.139.909-.2a3.075,3.075,0,0,0,.467-.133,2.337,2.337,0,0,1,1.027-.149,2.37,2.37,0,0,1,1.178.379,1.64,1.64,0,0,1,.771,1.423,2.8,2.8,0,0,1-.2,1.078,1.605,1.605,0,0,1-1.3.973c-.236.033-.431.067-.581.1a2.825,2.825,0,0,1-.866.025,2.43,2.43,0,0,1-.709.11,1.7,1.7,0,0,1-1.315.074,11.193,11.193,0,0,1-1.664.251q-1.1.092-1.783.148l-1.437.114a5.006,5.006,0,0,1-.451.958,4.18,4.18,0,0,0-.33.608c-.1.238-.221.516-.358.825a5.2,5.2,0,0,1-.6,1,1.967,1.967,0,0,1-.458,1.049,1.865,1.865,0,0,1-.411.881,1.458,1.458,0,0,1-.46.837c-.032.125-.071.254-.118.385a4.117,4.117,0,0,1-.411.8.935.935,0,0,0-.141.3,1.486,1.486,0,0,1-.636.956,5.4,5.4,0,0,1-.75,1.193A7.547,7.547,0,0,0,76-6.757a4.372,4.372,0,0,1-.628.9.858.858,0,0,0-.166.232,2.892,2.892,0,0,1-.567.8,1.7,1.7,0,0,1-.615.935,1.528,1.528,0,0,1-.28.468,1.949,1.949,0,0,1-.286.842,1.76,1.76,0,0,1-.6.594c-.074.248-.138.442-.193.589a1.792,1.792,0,0,1-.714.913,1.568,1.568,0,0,0-.256.214,2.374,2.374,0,0,1-1.012.581,1.668,1.668,0,0,1-.477.071,1.679,1.679,0,0,1-1.2-.522,2.8,2.8,0,0,1-.681-1.056,2.07,2.07,0,0,1,.1-1.557,4.407,4.407,0,0,1,1.064-1.373l.024-.021a8.1,8.1,0,0,0,1.21-1.44l.093-.133.13-.1a1.36,1.36,0,0,0,.39-.418,3.218,3.218,0,0,1,.653-.856,13.713,13.713,0,0,0,1.1-1.4c.366-.533.761-1.123,1.175-1.753s.91-1.421,1.482-2.364a28.935,28.935,0,0,0,1.559-2.956c.253-.553.48-1.114.68-1.678l-.03.008a2.97,2.97,0,0,1-.766.094,4.383,4.383,0,0,1-.642-.051,3.138,3.138,0,0,1-1.346.165,1.821,1.821,0,0,0-.25-.014c-.149,0-.329.01-.535.03a4.03,4.03,0,0,1-1.305.073,2.543,2.543,0,0,1-1.172.189c-.11-.014-.24-.023-.387-.027a2.728,2.728,0,0,1-1.1.137,1.389,1.389,0,0,1-.5.093,1.376,1.376,0,0,1-.438-.072,1.69,1.69,0,0,0-.243.037l-.038.008-.039.005c-.356.047-.823.095-1.389.141a3.175,3.175,0,0,1-1.025.147c-.164,0-.343-.008-.53-.025a3.149,3.149,0,0,1-1.692-.537l-.075-.058-.063-.072a3.291,3.291,0,0,1-.583-.948,1.581,1.581,0,0,1,.287-1.686,2.682,2.682,0,0,1,1.252-.755,4.895,4.895,0,0,1,1.216-.228l.108,0a2.227,2.227,0,0,1,1.119.291,5.281,5.281,0,0,0,1.372.208c.644.023,1.26.017,1.83-.017l2.705-.166c1.189-.073,2.16-.135,2.885-.184.584-.039,1.38-.13,2.372-.271l.05-.15a9.593,9.593,0,0,0,.19-1.225c.046-.482.07-.86.07-1.122v-.18l.064-.169a.514.514,0,0,0,.019-.189,1.639,1.639,0,0,1-.012-.652q-.034-.131-.057-.269a1.449,1.449,0,0,1,.4-1.243,3.073,3.073,0,0,1,.585-.591A1.96,1.96,0,0,1,81.518-26.9Zm-.143,3.29a1.2,1.2,0,0,0,.037-.4q-.008-.113-.013-.225l-.044.118.01.11A3.034,3.034,0,0,1,81.375-23.612ZM67.32-18.37q-.129-.038-.252-.081l-.119-.041-.1-.07A.229.229,0,0,0,66.7-18.6h-.022a2.918,2.918,0,0,0-.711.141c-.057.017-.105.035-.147.053l.015.022a2.44,2.44,0,0,0,.592.107c.129.011.248.017.353.017a1.132,1.132,0,0,0,.387-.043ZM70.8-2.1c.041-.11.111-.322.227-.728q-.09.086-.179.165a2.523,2.523,0,0,0-.594.717.48.48,0,0,0-.039.119.7.7,0,0,0,.081.148A3.614,3.614,0,0,1,70.8-2.1ZM27.181-26.423h.076a1.641,1.641,0,0,1,1.518.712,3.078,3.078,0,0,1,.366.973,8.309,8.309,0,0,1,.151,1.322l0,.045,0,.045a8.013,8.013,0,0,0,.047,1.392,7.1,7.1,0,0,0,.158.88,6.26,6.26,0,0,1,.179.985,3.036,3.036,0,0,0,.205.773c.221.488.456,1.018.7,1.575l.061.14.016.152a1.624,1.624,0,0,1-1.048,1.893,3.09,3.09,0,0,1-1.343.136c-.751-.09-1.277-.682-1.564-1.762-.119-.376-.274-.833-.463-1.36a8.448,8.448,0,0,1-.442-2.045c-.058-.616-.122-1.1-.19-1.452a5.91,5.91,0,0,1-.1-1.331,4.82,4.82,0,0,1-.16-1.268,1.874,1.874,0,0,1,.483-1.19,2.1,2.1,0,0,1,1.27-.605Zm-11.728.074a1.73,1.73,0,0,1,1.527.893,2.191,2.191,0,0,1,.359,1.267,1.444,1.444,0,0,1-.741,1.215c-.113.061-.305.169-.572.32a21.357,21.357,0,0,0-1.705,2.3q-.221.331-.417.62.236-.009.514-.023h.053c.551,0,.967-.006,1.235-.017.045,0,.093,0,.145,0a10.137,10.137,0,0,1,1.44.143l.022,0a7.317,7.317,0,0,1,1.548.468,4.7,4.7,0,0,1,1.249.7,2.815,2.815,0,0,1,.694.932,3.324,3.324,0,0,1,.387.948,5.089,5.089,0,0,1,.115.823c.013.238.02.461.02.663a2.277,2.277,0,0,1-.223.972c-.082.174-.2.43-.339.763l-.007.016a8.959,8.959,0,0,1-.673,1.267c-.181.271-.4.582-.659.924s-.8.987-1.627,1.925a21.557,21.557,0,0,1-2.068,2.093,2.8,2.8,0,0,1-.7.773c-.185.138-.378.289-.576.451-.221.181-.438.351-.647.507l-.072.054-.08.04a2.886,2.886,0,0,0-.356.2c-.079.055-.273.195-.752.552l-.031.023-.032.02a3.715,3.715,0,0,1-1.54.5,2.832,2.832,0,0,1-.357.023,2.677,2.677,0,0,1-1.716-.624L8.76-4.709l-.082-.12a4.963,4.963,0,0,0-.94-1.1l-.1-.077-.076-.1a7.239,7.239,0,0,1-.687-1.049A2.194,2.194,0,0,1,6.7-8.777,1.853,1.853,0,0,1,8.3-10.1a2,2,0,0,1,.368-.035,1.9,1.9,0,0,1,1.728,1.167c.328.42.567.741.73.978q.039.057.08.111l.3-.189c.279-.231.506-.415.677-.548.14-.109.291-.234.45-.371a3.375,3.375,0,0,1,.8-.7,1.317,1.317,0,0,0,.3-.238c.134-.16.282-.327.441-.5s.41-.427.769-.784l.091-.091.112-.065L15.2-11.4a1.59,1.59,0,0,1,.605-.71,3.333,3.333,0,0,1,.445-.582,1.968,1.968,0,0,1,.6-.842,2.33,2.33,0,0,1,.352-.611,3.489,3.489,0,0,0,.233-.654,2.01,2.01,0,0,0,.123-.78.281.281,0,0,0-.048-.137,1.73,1.73,0,0,0-.532-.279c-.344-.132-.674-.244-.982-.332a1.716,1.716,0,0,0-.338-.052,1.917,1.917,0,0,1-.274.018,3.638,3.638,0,0,1-.651-.069,3.064,3.064,0,0,1-.845.011,2.6,2.6,0,0,0-.3-.022,2.45,2.45,0,0,1-.974.186h-.081a2.944,2.944,0,0,1-.969.06c-.02,0-.06,0-.127.011-.109.137-.2.254-.259.348-.129.192-.533.771-1.236,1.769l-.029.038c-1.175,1.509-2.467,3.218-3.838,5.081C4.7-7.062,3.29-5.245,1.9-3.546l-.033.04-.037.036a10.378,10.378,0,0,0-.856.957c-.144.392-.3.752-.451,1.074a1.612,1.612,0,0,0-.163.427A1.634,1.634,0,0,1-.621.33a2.078,2.078,0,0,1-.992.293A1.315,1.315,0,0,1-2.159.509L-2.65.283a1.538,1.538,0,0,1-.835-1.6,3.026,3.026,0,0,1,.4-1.413,8.273,8.273,0,0,1,1.314-1.9C-1.334-5.1-.906-5.59-.5-6.086L-.493-6.1c.963-1.149,2.072-2.518,3.3-4.07a2.122,2.122,0,0,1,.737-.8,2.5,2.5,0,0,1,.446-.72,2.813,2.813,0,0,1,.773-.988,1.523,1.523,0,0,1,.406-.519,1.478,1.478,0,0,1,.431-.612,2.032,2.032,0,0,1,.516-.759,2.02,2.02,0,0,0,.3-.324l.028-.042c-.441.129-.881.279-1.315.448a7.468,7.468,0,0,0-1.179.586l-.039.023a3.4,3.4,0,0,1-1.575.528,2.409,2.409,0,0,1-1.267-.388,1.831,1.831,0,0,1-.824-1.785A1.786,1.786,0,0,1,1.43-17.213a7.6,7.6,0,0,1,.975-.273,4.6,4.6,0,0,0,.789-.214,2.094,2.094,0,0,1,.938-.3,2.039,2.039,0,0,0,.414-.09l.076-.023.079-.01c.316-.042.654-.084,1.007-.126a3.322,3.322,0,0,1,.937-.31,3.925,3.925,0,0,0,.664-.176l.133-.048.142-.009a3,3,0,0,0,.778-.15,4.042,4.042,0,0,1,.859-.194,6.626,6.626,0,0,0,.476-.605q.314-.459.85-1.25c.427-.63.587-.885.647-.988a7,7,0,0,0,.32-.672l.076-.176.136-.135a.1.1,0,0,0,.034-.055,1.8,1.8,0,0,1,.585-.939,1.677,1.677,0,0,0,.1-.254l.073-.236.14-.14,0-.011a1.7,1.7,0,0,1,.626-.905,2.9,2.9,0,0,1,1.2-.743A3.99,3.99,0,0,1,15.452-26.35ZM2.316-15.335a2.344,2.344,0,0,0,.485-.2,5.2,5.2,0,0,0-.566.153q0,.013,0,.025A.379.379,0,0,0,2.316-15.335ZM-44.332-26.242c.048,0,.1,0,.146.007a2.195,2.195,0,0,1,1.344.642,2.111,2.111,0,0,1,.755,1.947,2.1,2.1,0,0,1-.649,1.324.984.984,0,0,0-.182.2,5.133,5.133,0,0,0-.336.63l.077.011a3.779,3.779,0,0,1,1.531.713l.121.08.093.111a4.017,4.017,0,0,1,.633.945,3.022,3.022,0,0,1,.192,1.2,2.784,2.784,0,0,1-.557,1.645l-.029.04-.032.037a6.148,6.148,0,0,1-.62.616,3.741,3.741,0,0,1-.635.449c-.065.035-.244.138-.7.428a6.756,6.756,0,0,1-1.047.544,1.986,1.986,0,0,1-.842.479,3.059,3.059,0,0,0-.431.153c-.151.066-.357.162-.612.287a2.476,2.476,0,0,1-.777.452q-.1.285-.188.51.285-.036.6-.083c.865-.13,1.53-.253,1.976-.367.488-.124.877-.219,1.157-.283a7.441,7.441,0,0,0,1.035-.368,2.191,2.191,0,0,1,1.219-.415,1.67,1.67,0,0,1,.569.1,1.948,1.948,0,0,1,1.144,1.041A1.75,1.75,0,0,1-39.34-11.7a2.091,2.091,0,0,1-1.17,1.03l-.038.015a12.518,12.518,0,0,1-2.157.564c-.783.144-1.384.264-1.787.359a7.094,7.094,0,0,1-1.362.192,12.861,12.861,0,0,0-1.52.19l-.047.007c-.214.025-.438.05-.673.075q-.019.1-.032.18c-.04.251-.1.585-.194,1.022-.08.385-.179.972-.294,1.747a5.605,5.605,0,0,0,.175,1.225,2.7,2.7,0,0,0,.5,1.058.87.87,0,0,0,.587.351l.076.011.074.023a.731.731,0,0,0,.215.028,1.959,1.959,0,0,0,.6-.115,15.2,15.2,0,0,0,2.059-.932,19.846,19.846,0,0,0,2.3-1.681c.753-.64,1.529-1.326,2.307-2.039.76-.7,1.295-1.221,1.59-1.56l.038-.043.042-.039a4.143,4.143,0,0,1,1.081-.745,1.78,1.78,0,0,1,.732-.155,2.193,2.193,0,0,1,.977.246,1.688,1.688,0,0,1,1.015,1.611,1.982,1.982,0,0,1-.57,1.361,5.853,5.853,0,0,1-.719.592,1.73,1.73,0,0,1-.861.581,2.011,2.011,0,0,1-.779.711,5.467,5.467,0,0,1-.787.732c-.271.2-.534.381-.783.532a1.542,1.542,0,0,0-.362.3,3.731,3.731,0,0,1-.877.705,2.909,2.909,0,0,1-1.15.8,6.224,6.224,0,0,1-.882.678,13.444,13.444,0,0,1-1.316.754,3.238,3.238,0,0,1-.841.406c-.122.033-.3.077-.546.134a2.8,2.8,0,0,1-1.183.35,4.293,4.293,0,0,1-1.33.176,4.105,4.105,0,0,1-1.313-.264,5.161,5.161,0,0,1-1.573-.852,4.418,4.418,0,0,1-1-1.21,8.784,8.784,0,0,1-.564-1.165l-.028-.072-.016-.076a10.386,10.386,0,0,1-.245-2.179,11.592,11.592,0,0,1,.2-2.115q.075-.4.151-.814c-.231,0-.585.016-1.056.034-.714.025-1.223.038-1.56.038A1.78,1.78,0,0,1-55.782-9.7a2.7,2.7,0,0,1-.436-1.129,2.29,2.29,0,0,1,.139-1.219,2.171,2.171,0,0,1,1.187-1.093l.06-.026a10.559,10.559,0,0,0,1.2-.555c.516-.279.743-.41.843-.47a3.386,3.386,0,0,1,.763-.342,4.85,4.85,0,0,0,.46-.168l.274-.117a2.035,2.035,0,0,1,1.108-.649,2.143,2.143,0,0,1,.312-.18c.442-1.206.759-2.033.965-2.523q.133-.316.284-.671c-.116-.02-.24-.047-.372-.082a1.594,1.594,0,0,1-.521.092,1.252,1.252,0,0,1-.48-.093c-.018,0-.044,0-.077.005-.279.028-.568.042-.859.042-.233,0-.535.011-.9.034a2.653,2.653,0,0,0-.749.155,1.8,1.8,0,0,1-.74.162,1.773,1.773,0,0,1-.893-.245,1.7,1.7,0,0,1-.876-1.042,5.153,5.153,0,0,1-.117-.708,1.762,1.762,0,0,1,.485-1.408,2.386,2.386,0,0,1,1.405-.671,7.951,7.951,0,0,1,1.252-.1h.052l.052.005c.508.053.887.107,1.157.163a1,1,0,0,0,.319.023,2.392,2.392,0,0,1,.939.077c.354.027.851.074,1.512.142l.038,0,.8.115q.085-.2.17-.413a10.1,10.1,0,0,1,.552-1.191,5.52,5.52,0,0,1,.627-1.538A1.771,1.771,0,0,1-44.332-26.242Zm.273,2.281a.66.66,0,0,0-.156-.19,4.1,4.1,0,0,0-.32.866,3,3,0,0,1,.435-.488A1.558,1.558,0,0,0-44.059-23.961Zm-8.183,12.993L-52.636-12l-.041.022a12.576,12.576,0,0,1-1.4.647,1.277,1.277,0,0,0-.172.1.511.511,0,0,0,0,.122.705.705,0,0,0,.058.2c.311,0,.788-.014,1.42-.036ZM103.22-24.993c.076,0,.156,0,.237.009l.11.008.106.032a2.438,2.438,0,0,1,1.127.733,1.654,1.654,0,0,1,.363,1.688,3.059,3.059,0,0,1-.922,1.225,1.18,1.18,0,0,0-.215.307,3.743,3.743,0,0,1-.427.8.778.778,0,0,0-.124.287,3.035,3.035,0,0,1-.244.729c0,.016.007.036.013.06l.13.516-.315.345a1.294,1.294,0,0,1-.19.768,2.179,2.179,0,0,1,0,.739,2.074,2.074,0,0,1-.066.668c.012.033.028.076.052.13l.081.187v.675a1.931,1.931,0,0,1,.3.949.774.774,0,0,0,.1.131,7.351,7.351,0,0,0,.559.518.761.761,0,0,0,.132.048,1.463,1.463,0,0,1,.69.319,4.85,4.85,0,0,1,.588.066,6.776,6.776,0,0,0,.821-.429,2.99,2.99,0,0,1,1.485-.447,3.864,3.864,0,0,1,1.2-.189,1.908,1.908,0,0,1,1.615.792,2.686,2.686,0,0,1,.48,1.078,1.939,1.939,0,0,1-.291,1.36,1.935,1.935,0,0,1-1.14.969l-.02.007a1.651,1.651,0,0,1-1.131.436,2.607,2.607,0,0,1-.587.224,1.7,1.7,0,0,1-.96-.02,2.317,2.317,0,0,1-.627.1,6.756,6.756,0,0,1-.653.355,4.858,4.858,0,0,0-.581.317c-.159.105-.43.288-.808.545a2.31,2.31,0,0,1-.7.7c-.2.181-.4.378-.6.585a5.691,5.691,0,0,0-.515.612,6.08,6.08,0,0,0-.316.6,1.774,1.774,0,0,0-.114.314l.055.047a2.5,2.5,0,0,0,.393.195,2.851,2.851,0,0,0,.6.073l1.214.07a14.107,14.107,0,0,0,2.1-.227l.071-.018.072-.007a8.487,8.487,0,0,0,1.872-.394c.666-.225,1.415-.458,2.228-.694a19.114,19.114,0,0,0,2.037-.713,2.284,2.284,0,0,1,1.277-.47l.041-.029.166-.129.2-.051c.145-.036.321-.091.525-.162a2.254,2.254,0,0,1,1.088-.309,2.547,2.547,0,0,1,.945.182,2.693,2.693,0,0,1,.825.524,1.433,1.433,0,0,1,.244,1.8,2.022,2.022,0,0,1-1.023.973,6.764,6.764,0,0,1-1,.295,3.948,3.948,0,0,1-.934.413c-.084.021-.256.069-.593.181a6.671,6.671,0,0,1-1.094.279,6.722,6.722,0,0,0-1.012.289c-.757.257-.978.322-1.079.35a1.442,1.442,0,0,0-.275.121,2.112,2.112,0,0,1-1.024.235.592.592,0,0,0-.1.056,1.728,1.728,0,0,1-1,.291q-.069,0-.141,0c-.2.069-.313.118-.38.148a1.841,1.841,0,0,1-.808.157,1.953,1.953,0,0,1-.964.266h-.745a2.29,2.29,0,0,1-1.211.147.508.508,0,0,0-.195,0,1.818,1.818,0,0,1-.823-.04,1.4,1.4,0,0,1-1.1-.119l-.4.026c-.043,0-.085,0-.127,0a1.683,1.683,0,0,1-.984-.3l-.037,0A1.566,1.566,0,0,1,99.483-2.5,2.661,2.661,0,0,1,98.3-4.445a3.868,3.868,0,0,1,.179-2.017,2.707,2.707,0,0,1,.626-1.25,1.649,1.649,0,0,0,.126-.219l.017-.034L99.268-8a3.188,3.188,0,0,1,.862-1.024.363.363,0,0,0,.1-.085,3.139,3.139,0,0,1,.705-.729c.311-.265.588-.482.835-.655a4.344,4.344,0,0,1-.388-.314,6.309,6.309,0,0,1-1.093-1.421,6.454,6.454,0,0,1-.786-2.715,15.182,15.182,0,0,1-.038-2.878c.076-.833.186-1.665.325-2.473a7.041,7.041,0,0,1,.85-2.38,11.746,11.746,0,0,1,.5-1.066,2.668,2.668,0,0,1,.911-.933A2.035,2.035,0,0,1,103.22-24.993Zm5.612,12.861h-.016a1.818,1.818,0,0,0-.661.118l-.173.066H107.8a1.1,1.1,0,0,0-.592.138,9.21,9.21,0,0,1-1.249.643c.045,0,.087.005.124.005a.606.606,0,0,0,.113-.008,1.5,1.5,0,0,1,1.139-.032.673.673,0,0,0,.144-.079l.293-.208.359.025.08,0a2,2,0,0,1,.629-.339,1.118,1.118,0,0,0,.062-.1l.006-.01c.011-.018.019-.034.025-.046A1,1,0,0,0,108.832-12.132Zm-3.491,1.11-.126-.027a3.247,3.247,0,0,0-.643-.089q-.087,0-.167-.006l.464.415a4.513,4.513,0,0,0,.428-.263ZM21.668-24.992c.067,0,.135,0,.2.01a1.624,1.624,0,0,1,1.332.912,2.937,2.937,0,0,1,.3.942A17.193,17.193,0,0,1,23.7-21.1a3.267,3.267,0,0,0,.084.763,3.717,3.717,0,0,0,.324.808,5.666,5.666,0,0,0,.517.809,5.586,5.586,0,0,1,1.155.878,2.608,2.608,0,0,1,.569.858,1.491,1.491,0,0,1-.3,1.625,2.128,2.128,0,0,1-1.228.634,1.993,1.993,0,0,1-1.389-.219,5,5,0,0,1-.69-.5,2.806,2.806,0,0,1-.8-.817,2.575,2.575,0,0,0-.322-.326l-.03-.027-.028-.03a2.6,2.6,0,0,1-.816-1.375.989.989,0,0,0-.107-.3,7.4,7.4,0,0,1-.464-1.4,20.285,20.285,0,0,1-.422-2.356,2.267,2.267,0,0,1,.086-1.8,3.014,3.014,0,0,1,.661-.717A1.859,1.859,0,0,1,21.668-24.992Zm-36.775,3.321a6.774,6.774,0,0,1,2.186.278l.018.007c.613.229,1,.379,1.192.459a3.56,3.56,0,0,1,1.015.762,3.48,3.48,0,0,1,.744.633A10.884,10.884,0,0,1-9.164-18.4c.113.157.245.333.392.524a1.957,1.957,0,0,1,.459.973c.009.076.019.187.032.335a2.08,2.08,0,0,1,.343,1.078,3.655,3.655,0,0,0,.033.377,1.615,1.615,0,0,1,.17,1.076,2.868,2.868,0,0,1,.088,1.111,7.892,7.892,0,0,0-.049.8A1.626,1.626,0,0,1-8-10.8a1.164,1.164,0,0,0-.048.123,3.146,3.146,0,0,1-.333.694c-.035.2-.062.343-.084.442a1.961,1.961,0,0,1-.6.947l-.034.033a2.134,2.134,0,0,1-.327.691,3.284,3.284,0,0,1-.507.8,1.872,1.872,0,0,1-.377.755,1.873,1.873,0,0,1-.628.822,4.094,4.094,0,0,1-.908,1.322l-.027.027-.029.025a.61.61,0,0,0-.087.086c-.055.132-.128.323-.217.567l-.1.262-.219.174a1.123,1.123,0,0,0-.178.177,2.52,2.52,0,0,1-.38.379,3.722,3.722,0,0,1-.431.636,1.72,1.72,0,0,1-1.085.511,2.762,2.762,0,0,1-.633.209,1.484,1.484,0,0,1-.289.029,1.638,1.638,0,0,1-1.17-.521,2.077,2.077,0,0,1-.609-1.09,2.017,2.017,0,0,1,.078-1.07,2.287,2.287,0,0,1,.78-.994c.195-.155.393-.32.589-.493a4.289,4.289,0,0,1,.683-.835c.189-.178.347-.339.47-.48a2.629,2.629,0,0,1,.661-.6c.271-.416.568-.839.884-1.261a7.893,7.893,0,0,0,.832-1.409c.132-.314.279-.626.437-.926a2.71,2.71,0,0,0,.242-.688l.012-.05c.213-.786.274-1.1.292-1.216A2.316,2.316,0,0,0-11.3-13.2c-.011-.191-.028-.436-.051-.729a10.311,10.311,0,0,0-.489-1.735,4.163,4.163,0,0,0-.71-1.206,8.583,8.583,0,0,0-.78-.66l-.1-.076-.079-.1a.443.443,0,0,0-.174-.148,1.953,1.953,0,0,1-.628-.313,1.516,1.516,0,0,1-.338.036,1.418,1.418,0,0,1,.18.357,4.3,4.3,0,0,1,.162,1.207,6.228,6.228,0,0,1-.227,1.737,4.333,4.333,0,0,1-.341,1.111c-.092.183-.21.436-.351.751a6.53,6.53,0,0,1-.936,1.422c-.388.473-.764.916-1.116,1.316A18.8,18.8,0,0,1-18.969-8.6,26.645,26.645,0,0,1-21.3-6.784a7.547,7.547,0,0,1-2.877,1.221,2.763,2.763,0,0,1-1.048.094A7.345,7.345,0,0,1-26-5.6a3,3,0,0,1-1.045-.477,4.917,4.917,0,0,1-1.221-1.164,3.561,3.561,0,0,1-.719-1.95,10.691,10.691,0,0,1,.021-1.746l0-.029c.07-.56.1-.75.123-.845a5.788,5.788,0,0,1,.156-.581c.069-.219.167-.492.3-.834a14.183,14.183,0,0,1,.848-1.663,2.7,2.7,0,0,1,.707-1.018,1.2,1.2,0,0,0,.074-.134,1.579,1.579,0,0,1,.444-.682,1.518,1.518,0,0,1,.725-.717.388.388,0,0,0,.064-.059,2.12,2.12,0,0,1,.533-.42,1.575,1.575,0,0,1,.783-.6,1.577,1.577,0,0,1,.808-.674,1.871,1.871,0,0,0,.318-.272l.1-.1.126-.069,1.146-.625a6.319,6.319,0,0,1,1.59-.618,3.049,3.049,0,0,1,.915-.32,10.983,10.983,0,0,1,2.872-.435h.012C-15.877-21.658-15.471-21.671-15.107-21.671Zm-3.172,6.181a3.265,3.265,0,0,0,.008-.415.787.787,0,0,0-.061-.223,2.5,2.5,0,0,1-.142-1.155,1.886,1.886,0,0,1,.124-.527,9.574,9.574,0,0,0-1.181.4,14.1,14.1,0,0,0-2.509,1.546,9.632,9.632,0,0,0-2.514,2.793,2.584,2.584,0,0,1-.365.857,1.526,1.526,0,0,1-.34.664,2.814,2.814,0,0,1-.121.5,1.539,1.539,0,0,1,.094.66c-.011.137-.034.305-.068.511.017.061.031.106.041.138a1.267,1.267,0,0,1,.273.408q.107.043.208.088h.064a1.422,1.422,0,0,0,.168-.008,2.813,2.813,0,0,1,.548-.148,2.925,2.925,0,0,1,.754-.307c.261-.226.385-.341.444-.4a1.781,1.781,0,0,1,.726-.442,2.435,2.435,0,0,1,.9-.63,9.546,9.546,0,0,0,1.015-1.032c.466-.534.8-.927.98-1.167a7.407,7.407,0,0,0,.673-1.312C-18.478-14.962-18.383-15.23-18.279-15.489ZM-16.344-17c-.031-.017-.072-.036-.124-.059l-.019-.008a.615.615,0,0,0,.01.2,2.917,2.917,0,0,1,.166.563q0-.106,0-.2A4.875,4.875,0,0,0-16.344-17Zm1.432,13.713c.04-.065.1-.158.167-.289q-.185.157-.369.305l.153-.012ZM-72.107-21.221c.367,0,.723.011,1.059.031.386.024.745.042,1.068.054a3.519,3.519,0,0,1,.929.148,2.565,2.565,0,0,1,1.147.125l.028.01a1.568,1.568,0,0,1,1.026.2,1.14,1.14,0,0,0,.139.021l.2.02.178.1a2.2,2.2,0,0,0,.558.217,2.414,2.414,0,0,1,1.132.6c.284.212.55.417.79.608a4.1,4.1,0,0,1,.964,1.183,3.778,3.778,0,0,1,.428,2.136,4.962,4.962,0,0,1-.329,1.736,5.433,5.433,0,0,1-.534.9,2.1,2.1,0,0,1-1,1.291,2.649,2.649,0,0,1-.447.566l-.167.166-.208.069a1.7,1.7,0,0,1-.792.584,2.415,2.415,0,0,1-.487.439,1.409,1.409,0,0,1-.77.63,1.558,1.558,0,0,1-.781.514l-6.663,4.284c-1.362.9-2.349,1.527-3.015,1.91l-.039.021-1.217.627h-.244c-1.344,0-1.837-.576-2.013-1.059a2.5,2.5,0,0,1-.095-1.389,1.911,1.911,0,0,1,.632-1.162,2.345,2.345,0,0,1,.725-.372,2.419,2.419,0,0,1,.81-.465,1.364,1.364,0,0,0,.3-.151l.016-.01a2.849,2.849,0,0,1,.977-.37c.338-.151.714-.338,1.12-.555.484-.259.993-.527,1.511-.8.5-.259,1.14-.627,1.908-1.092s1.78-1.113,3.006-1.926q.727-.578,1.525-1.209c.521-.412,1.032-.848,1.518-1.3a3.686,3.686,0,0,0,.851-1.059,1.975,1.975,0,0,0,.219-.829A1.41,1.41,0,0,0-66.2-16.3l-.006-.013a1.8,1.8,0,0,1-.576-.6c-.054-.011-.1-.018-.129-.022a1.676,1.676,0,0,1-.732-.3,1.652,1.652,0,0,1-.64-.227,1.5,1.5,0,0,1-.6-.143,2.452,2.452,0,0,1-.766-.186,2.791,2.791,0,0,1-.447.039,1.865,1.865,0,0,1-.458-.054,2.276,2.276,0,0,1-.574.066A1.63,1.63,0,0,1-71.6-17.8a1.748,1.748,0,0,1-.759.056l-.03,0-.621-.107-.416.121a3.553,3.553,0,0,1-.673.127,1.591,1.591,0,0,1-.553-.054,1.648,1.648,0,0,1-.66.15c-.057,0-.205,0-.584.024a2.1,2.1,0,0,1-.959.215h0a1.929,1.929,0,0,1-.646.167,1.771,1.771,0,0,1-.962.349,1.571,1.571,0,0,1-1,.295,2,2,0,0,1-.816.47,1.278,1.278,0,0,1-.693.341q-.073.077-.162.176a2.257,2.257,0,0,1-1.015,1.184,1.9,1.9,0,0,1-.88.225,1.753,1.753,0,0,1-.752-.17,2.153,2.153,0,0,1-.983-.913l-.051-.091-.031-.1A3.037,3.037,0,0,1-85-16.563a2.75,2.75,0,0,1,.447-1.184l.059-.092.077-.077a9.71,9.71,0,0,1,1.034-.866,5.707,5.707,0,0,1,1.462-.8c.422-.152.967-.331,1.623-.532l.034-.01c.679-.182,1.624-.375,2.889-.591,1.248-.213,2.433-.36,3.523-.435h0C-73.239-21.2-72.651-21.221-72.107-21.221Zm-10.9,5.033c.018-.038.037-.084.057-.141l.064-.18.126-.144c.114-.129.215-.241.306-.337-.186.146-.343.279-.47.4a.675.675,0,0,0-.092.237A.675.675,0,0,0-83.007-16.188Zm4.374,11.771q.287-.165.673-.4a3.025,3.025,0,0,1-.525.227,1.592,1.592,0,0,0-.261.2l-.087.078ZM-95.461-21.007a2.685,2.685,0,0,1,1,.145,1.643,1.643,0,0,1,.884,1.081,5.13,5.13,0,0,1,.458,1.7,21.758,21.758,0,0,1,.138,2.707v3.144a9.375,9.375,0,0,1-.063,1.6c-.052.427-.091.835-.116,1.215a3.742,3.742,0,0,1,.111,1.362,1.8,1.8,0,0,1-.559,1.1,2.113,2.113,0,0,1-1.2.469,2.472,2.472,0,0,1-.291.017,2.443,2.443,0,0,1-1.209-.323,1.758,1.758,0,0,1-.951-1.484,2.5,2.5,0,0,1,.172-1.116,3.148,3.148,0,0,0,.143-.558,4.8,4.8,0,0,1,.253-1.335c-.028-.941-.021-1.21-.011-1.347a2.417,2.417,0,0,1,.191-.753,3.193,3.193,0,0,1-.082-.957,4.5,4.5,0,0,0-.078-.934l-.023-.13.012-.132A2.445,2.445,0,0,0-96.8-16.3c-.126-.475-.235-.915-.323-1.305a2.306,2.306,0,0,0-.171-.555l-.085-.148-.031-.167a2.276,2.276,0,0,1,.085-1.226,2.241,2.241,0,0,1,.656-.921l.093-.08.11-.055A2.25,2.25,0,0,1-95.461-21.007Zm.032,1.986h-.015l-.008.019h0a.255.255,0,0,0,0,.059,4.778,4.778,0,0,1,.283.9q.045.2.1.414-.011-.1-.023-.2a3.085,3.085,0,0,0-.261-1.064l-.058-.1Zm.407,10.564A3.686,3.686,0,0,0-95.112-9a3.176,3.176,0,0,1-.133.388.549.549,0,0,0-.015.124.4.4,0,0,0,.165.036.45.45,0,0,0,.053,0Zm-19.369-12.37a2.485,2.485,0,0,1,.575.069,1.613,1.613,0,0,1,1.285,1.277,2.6,2.6,0,0,1-.242,1.539,4.58,4.58,0,0,0-.151,1.043,7.53,7.53,0,0,0,.031,1.578l.017.124-.014.124a2.792,2.792,0,0,0,.017,1.084,2.735,2.735,0,0,1,.171,1.128,3.489,3.489,0,0,0,.1.449,14.054,14.054,0,0,1,.461,1.439,15.281,15.281,0,0,0,.592,1.73,8.9,8.9,0,0,0,.726,1.413,9.167,9.167,0,0,1,.678.885c.083.079.149.136.2.176.035-.016.078-.036.13-.063a5.111,5.111,0,0,1,.9-.832,4.436,4.436,0,0,1,.277-.5,3.312,3.312,0,0,1,.576-.6,2.341,2.341,0,0,1,.614-.815,5.615,5.615,0,0,1,.531-.576,1.441,1.441,0,0,1,.694-.9c.17-.229.349-.473.532-.728l.024-.033.027-.031c.264-.311.5-.589.687-.826a4.8,4.8,0,0,1,.8-.79,1.739,1.739,0,0,1,1.066-.381,1.677,1.677,0,0,1,.578.1,2.1,2.1,0,0,1,1.1.955,1.739,1.739,0,0,1,.091,1.654,3.282,3.282,0,0,1-.537.817c-.136.147-.382.41-.755.805-.5.571-1.142,1.266-1.909,2.065-.75.782-1.349,1.432-1.781,1.932-.453.526-.913,1.034-1.368,1.51l-.094.1-.117.07a5.079,5.079,0,0,1-1.32.57,2.289,2.289,0,0,1-.57.068,4.849,4.849,0,0,1-1.5-.29l-.245-.081-.175-.19a2.328,2.328,0,0,0-.592-.479,2.533,2.533,0,0,1-1.036-1.019c-.313-.41-.591-.8-.825-1.153a4.091,4.091,0,0,1-.57-1.3,1.739,1.739,0,0,0-.144-.206,1.471,1.471,0,0,1-.554-1.417.432.432,0,0,0-.025-.046,2.6,2.6,0,0,1-.311-.805,1.715,1.715,0,0,1-.3-.975.766.766,0,0,0-.04-.082l-.126-.225v-.257a4.4,4.4,0,0,0-.029-.54,3.411,3.411,0,0,1-.029-.595l0-.006a2.762,2.762,0,0,1-.253-.691,4.058,4.058,0,0,1-.056-.768,4.463,4.463,0,0,1-.183-.993,7.2,7.2,0,0,1-.02-.942c.01-.172.016-.341.017-.5-.025-.273-.037-.614-.037-1.041a4.353,4.353,0,0,1,.133-1.22,3.867,3.867,0,0,1,.3-.743,2.019,2.019,0,0,1,1.037-.863A2.371,2.371,0,0,1-114.391-20.828Zm-.417,2.847a3.475,3.475,0,0,1,.184-.708l.012-.029q.017-.039.031-.073c-.031.014-.053.027-.07.036a2.087,2.087,0,0,0-.108.291A2.1,2.1,0,0,0-114.808-17.981ZM55.861-15.941a3.473,3.473,0,0,1,.484.028,3.019,3.019,0,0,1,.858.269,1.629,1.629,0,0,1,.922,1.383,2.235,2.235,0,0,1-.194,1.212,1.592,1.592,0,0,1-.93.83,4.834,4.834,0,0,1-1.017.175c-.4.039-.8.065-1.174.078-.339.012-.789.042-1.338.089l-.073.006-.074,0c-.23-.014-.549-.021-.948-.021-.93,0-2.31.038-4.1.114-2.648.112-4.1.172-4.454.184a3.856,3.856,0,0,1-.956-.082,5.142,5.142,0,0,1-.616.157,3.669,3.669,0,0,1-1.221-.019,2.242,2.242,0,0,1-.843.187,1.425,1.425,0,0,1-.478-.08,1.317,1.317,0,0,0-.36-.054,2.14,2.14,0,0,0-.486.031c-.566.153-.942.244-1.183.286a1.726,1.726,0,0,1-.3.025,2.511,2.511,0,0,1-1.12-.3,1.953,1.953,0,0,1-1.034-1.9A1.762,1.762,0,0,1,36.387-15.2a3.078,3.078,0,0,1,1.446-.246c.384.026.8.073,1.23.138a4.2,4.2,0,0,0,.6.055c.05,0,.095,0,.132-.006l.149-.015.146.029.553.111a1.706,1.706,0,0,1,1.087-.064,5,5,0,0,0,.791.078,6.083,6.083,0,0,1,1.167-.031l.954.064a3.3,3.3,0,0,1,1.321.017,7.164,7.164,0,0,1,1.269-.1l.208,0a11.054,11.054,0,0,0,1.6-.085l.117-.015.117.013a2.037,2.037,0,0,0,.447,0c.2-.022.41-.051.613-.085a3.237,3.237,0,0,1,.848-.032c.158,0,.319-.007.477-.016a1.049,1.049,0,0,0,.3-.068l.17-.063h.181c.311,0,.577-.011.79-.032.249-.025.56-.05.924-.074a3.551,3.551,0,0,0,.912-.21l.167-.076.184-.011C55.509-15.935,55.7-15.941,55.861-15.941ZM38.4-13.391c-.247-.031-.484-.055-.707-.07a1.066,1.066,0,0,0-.47.069c0,.014,0,.029,0,.046a.967.967,0,0,0,.012.163.836.836,0,0,0,.137.048c.141-.027.426-.093,1-.249ZM-121.758,9.455a1.678,1.678,0,0,1,1.537,1.056l.039.085.023.09a1.55,1.55,0,0,0,.11.313,2,2,0,0,1,.217.9,3.815,3.815,0,0,0,.03.437,4.371,4.371,0,0,1,.023.786,3.117,3.117,0,0,1-.226.926,5.622,5.622,0,0,1-.648,1.817c-.1.189-.185.351-.255.49.53-.022,1.107-.039,1.727-.05h.018c1.337,0,2.693.037,4.03.111.527,0,.73-.01.8-.015a2.873,2.873,0,0,1,.943.112,14.493,14.493,0,0,0,1.459.2,1.747,1.747,0,0,1,1.631,1.427l.013.064a2.969,2.969,0,0,1,.013,1.076,1.706,1.706,0,0,1-1.129,1.187,2.665,2.665,0,0,1-1.215.457q-.3.019-.658.037a2.122,2.122,0,0,0-.425.06,1.382,1.382,0,0,1-.354.046,1.93,1.93,0,0,1-1.263-.551,1.843,1.843,0,0,1-.566-.825c-.437,0-.907-.015-1.4-.037l-.093,0-.09-.021a2.68,2.68,0,0,0-.629-.072,2.908,2.908,0,0,1,.1.611,4.517,4.517,0,0,1-.093,1.05,1.887,1.887,0,0,1-.05,1.032,2.922,2.922,0,0,1-.092.955c-.069.263-.121.479-.154.644a2.788,2.788,0,0,0-.036.524,4.011,4.011,0,0,1-.144,1.253,5.962,5.962,0,0,0-.157.6c-.064.292-.135.593-.211.9a8.7,8.7,0,0,1-.273.894c-.092.249-.18.469-.26.656a3.517,3.517,0,0,1-.371.646,7.135,7.135,0,0,1,1.39.194,2.749,2.749,0,0,1,1.359.827,3.6,3.6,0,0,1,.77,1.366,2.366,2.366,0,0,1-.141,1.84,3.256,3.256,0,0,1-.663.944,3.685,3.685,0,0,0-.318.332,4.786,4.786,0,0,1-.557.553c-.874.744-1.611,1.344-2.191,1.783-.371.281-.8.6-1.294.965a4.977,4.977,0,0,0,.478.5c.3.265.66.571,1.061.909a11.059,11.059,0,0,0,1.812,1.136A12.189,12.189,0,0,0-115,41.753a22.023,22.023,0,0,0,3.916.493l.081,0,.079.016a6.187,6.187,0,0,1,.959.249,1.478,1.478,0,0,1,.884.834,3.466,3.466,0,0,1,.19.774,1.541,1.541,0,0,1-.464,1.435,2.247,2.247,0,0,1-.738.456,1.516,1.516,0,0,1-.962.012,2.025,2.025,0,0,1-.825-.076,3.743,3.743,0,0,1-.569-.256,2.4,2.4,0,0,1-.986-.124l-.127-.047-.11-.079a.854.854,0,0,0-.417-.167,4.014,4.014,0,0,1-1.092-.28,18.306,18.306,0,0,1-3.44-1.188,22.018,22.018,0,0,1-2.817-1.527,15.808,15.808,0,0,1-1.707-1.247c-.25-.221-.565-.534-.955-.949-.8.537-1.527,1.011-2.163,1.413-.8.5-1.59,1.038-2.362,1.59l-.069.049-.076.037c-1.049.509-1.839.9-2.347,1.166a12.559,12.559,0,0,1-1.938.791,1.957,1.957,0,0,1-1.482.04,2.834,2.834,0,0,0-.493-.149,1.709,1.709,0,0,1-1.231-1.041,1.832,1.832,0,0,1,.015-1.553,1.555,1.555,0,0,1,1.326-.935,2.336,2.336,0,0,1,.972.138h.006l.024,0a8.391,8.391,0,0,0,.86-.2l.021-.005a7.288,7.288,0,0,0,1.739-.7c.684-.37,1.452-.818,2.284-1.334s1.532-.954,2.045-1.282c.276-.176.566-.379.869-.607q-.1-.137-.182-.24a7.715,7.715,0,0,1-.639-.931l-.031-.056a5.6,5.6,0,0,1-.36-.9,2.892,2.892,0,0,1-.068-1.284,1.678,1.678,0,0,1,1.2-1.407,2.468,2.468,0,0,1,.559-.1,2.383,2.383,0,0,1-.035-.343,16.117,16.117,0,0,0-1.6.878c-.874.535-1.642,1.046-2.283,1.519s-1.164.866-1.512,1.141a3.961,3.961,0,0,0-.6.542,2.933,2.933,0,0,0-.338.66,1.9,1.9,0,0,1-1.813,1.241,2.017,2.017,0,0,1-1.707-.766,2.2,2.2,0,0,1-.438-1.519,2.311,2.311,0,0,1,.853-1.57,6.185,6.185,0,0,1,.955-.706c.4-.373.76-.685,1.066-.928.333-.265.747-.557,1.229-.868.441-.284.882-.585,1.311-.893a12.269,12.269,0,0,1,1.235-.789,3.778,3.778,0,0,1,1.409-.8l.036-.024a2.018,2.018,0,0,1-.244-.1,1.9,1.9,0,0,1-.976-1.218,3.255,3.255,0,0,1-.129-1.215l.01-.115.037-.109c.082-.245.254-.682.524-1.335a14.637,14.637,0,0,1,.625-1.375,6.867,6.867,0,0,0,.4-1.073l.013-.037a8.794,8.794,0,0,0,.264-.908,3.81,3.81,0,0,0,.12-.89,3.016,3.016,0,0,1,.119-.853,2.688,2.688,0,0,1-.4-.024.555.555,0,0,0-.08-.006,1.712,1.712,0,0,1-.93.187,2.321,2.321,0,0,1-1.024.252h-.564a1.547,1.547,0,0,1-.866.318c-.143.074-.283.154-.416.241a5.825,5.825,0,0,1-.547.312,1.792,1.792,0,0,1-.366.534,2.873,2.873,0,0,1-.952.583,1.782,1.782,0,0,1-.685.138,2.014,2.014,0,0,1-1.235-.452,1.884,1.884,0,0,1-.789-1.8,3.134,3.134,0,0,1,.292-.941,2.137,2.137,0,0,1,.834-.942,5.943,5.943,0,0,1,1.392-.523c.493-.154,1.091-.309,1.778-.461.7-.156,1.928-.342,3.743-.569,1.141-.143,1.9-.226,2.406-.275v-.045l.26-.284a1.046,1.046,0,0,0,.257-.4l.047-.171.1-.145c.227-.316.4-.581.523-.786a4.344,4.344,0,0,0,.313-.7l.025-.069.035-.064a2.248,2.248,0,0,0,.224-.507,2.861,2.861,0,0,0-.005-.549c-.017-.217-.042-.439-.073-.664a1.6,1.6,0,0,1,.423-2.21A2.629,2.629,0,0,1-121.758,9.455Zm9.484,9.225c-.361-.033-.805-.1-1.349-.19l-.226.539a4.566,4.566,0,0,1,.47-.048l.608-.034a1.8,1.8,0,0,0,.368-.2l.08-.051Zm-9.493,2.046a1.663,1.663,0,0,1-.232-1h-.13a5.788,5.788,0,0,0-.742.047c-.117.015-.23.026-.34.033a1.593,1.593,0,0,1-.1,1.258,4.161,4.161,0,0,0-.235.636,8.931,8.931,0,0,1-.35,1.057c-.11.267-.239.572-.382.9-.169.479-.317.89-.44,1.219q-.134.359-.258.689a2.375,2.375,0,0,1,.443-.039,4.019,4.019,0,0,1,.728.074l.23.042.187.14a8.818,8.818,0,0,0,.945.628l.17.094c.069-.2.158-.475.269-.874a9.809,9.809,0,0,0,.28-2.018c.046-.844.081-1.546.106-2.091C-121.664,21.244-121.715,20.974-121.767,20.726Zm-11.957-.167c0-.015.01-.036.015-.063l.066-.327a1.245,1.245,0,0,0-.148.066h0a.332.332,0,0,0-.056.089,1.324,1.324,0,0,0-.109.3l.019.015.022.016A1.629,1.629,0,0,0-133.724,20.558Zm10.171,11.778c.035,0,.156-.082.312-.335l.078-.128q-.149.057-.314.125a.881.881,0,0,0-.183.153.471.471,0,0,0,.024.178c.02,0,.045.005.076.007Zm.29,3c.308-.21.568-.386.778-.528a9.3,9.3,0,0,0,1.134-.931c.354-.333.677-.635.965-.9-.1.005-.193.014-.286.027a6.762,6.762,0,0,0-.775.138,1.224,1.224,0,0,0-.231.11,2.257,2.257,0,0,1-1.854,1.072c.033.156.062.328.085.519C-123.373,35.057-123.311,35.218-123.263,35.336Zm-10.58.9,0-.011c.079-.191.156-.36.232-.512q-.081.067-.166.141c-.147.129-.183.214-.185.235a.249.249,0,0,0,.019.136A.623.623,0,0,0-133.843,36.239Zm46.294-25.274h.136l.131.036a2.621,2.621,0,0,1,1.463.9,2.191,2.191,0,0,1,.454,1.326,1.962,1.962,0,0,1-.489,1.267c-.074.217-.137.39-.189.526a4.753,4.753,0,0,1-.275.569,2.355,2.355,0,0,1-.117.715,4.219,4.219,0,0,1-.292.649,1.564,1.564,0,0,1-.331,1.035l-.008.026c-.041.153-.072.289-.091.4a2.232,2.232,0,0,1-.295.743,1.559,1.559,0,0,1-.3,1.039l-.031.247-.162.184a2.006,2.006,0,0,1-.034.507,6.523,6.523,0,0,1-.254.826,4.43,4.43,0,0,1-.135.8c-.04.138-.087.291-.141.457a3.871,3.871,0,0,1-.193,1.167c-.085.321-.183.761-.29,1.309q0,.085,0,.169l.559-.256a16.477,16.477,0,0,1,1.936-.642c1.015-.3,1.926-.534,2.707-.686a19.042,19.042,0,0,1,2.274-.31,11.047,11.047,0,0,1,1.11-.059,8.363,8.363,0,0,1,1.048.063c.61.077,1.154.17,1.616.275a16.5,16.5,0,0,1,1.8.549l.058.022a3.023,3.023,0,0,1,1.026.643,1.44,1.44,0,0,1,.79.5,1.387,1.387,0,0,1,.714.742,4.705,4.705,0,0,1,.49.591,2.606,2.606,0,0,1,.447,1.082,2.079,2.079,0,0,1,.278,1.241,1.1,1.1,0,0,0,0,.286,2.978,2.978,0,0,1-.2,1.286,3.934,3.934,0,0,1-.574,1.512c-.244.389-.468.746-.663,1.063l-.038.061-.046.055a26.963,26.963,0,0,1-3.6,3.521c-1.317,1.077-2.4,1.926-3.228,2.523a3.219,3.219,0,0,1-1.341.663,2.086,2.086,0,0,1-.448.051,1.517,1.517,0,0,1-1.325-.724,6.653,6.653,0,0,1-.37-.673,1.7,1.7,0,0,1,.044-1.433A2.385,2.385,0,0,1-83.1,36.79a2.181,2.181,0,0,1,.853-.365,2.534,2.534,0,0,1,.7-.4c.067-.024.18-.069.361-.154a1.674,1.674,0,0,1,.905-.567c.192-.137.369-.254.535-.353a2.86,2.86,0,0,1,.3-.3,5.623,5.623,0,0,1,.466-.334,2.229,2.229,0,0,0,.18-.18,1.519,1.519,0,0,1,.747-.7c.067-.03.2-.1.466-.236.055-.065.085-.106.1-.127a1.534,1.534,0,0,1,.556-.66,1.862,1.862,0,0,1,.563-.727,4.25,4.25,0,0,0,.434-.8,1.793,1.793,0,0,0,.115-.838,3.9,3.9,0,0,0-.11-.693,1.77,1.77,0,0,1-.376-.579A6.277,6.277,0,0,1-77,28.24a5.476,5.476,0,0,1-1.118-.5,1.8,1.8,0,0,0-.47-.216.569.569,0,0,0-.155-.025,1.471,1.471,0,0,1-.3.03,1.762,1.762,0,0,1-.662-.136,1.87,1.87,0,0,1-.643.024,2.734,2.734,0,0,1-.4-.087,1.432,1.432,0,0,1-.718.123,1.707,1.707,0,0,1-.633.126,1.475,1.475,0,0,1-.208-.015,1.291,1.291,0,0,1-.712.089,1.463,1.463,0,0,1-.667.161,1.459,1.459,0,0,1-.283-.028,2.735,2.735,0,0,0-.385.118,2.723,2.723,0,0,1-1.181.238.568.568,0,0,0-.128.046,1.8,1.8,0,0,1-.908.374,1.723,1.723,0,0,1-1,.4,1.42,1.42,0,0,1-.913.4,1.669,1.669,0,0,1-.792.362,2.219,2.219,0,0,1-.494.376,2.981,2.981,0,0,0-.094.451,3.408,3.408,0,0,1-.2.915,1.725,1.725,0,0,0-.057.435,2.1,2.1,0,0,1-.214,1.018q-.029.585-.045.914a4.059,4.059,0,0,1-.259,1.156,2.077,2.077,0,0,0-.013.308,1.39,1.39,0,0,1-.074,1.066,1.8,1.8,0,0,1-.008.814,3.146,3.146,0,0,1,.01.913,2.708,2.708,0,0,0,.071.756,4.264,4.264,0,0,0,.224.492,3.139,3.139,0,0,1,.831.562,1.913,1.913,0,0,1,.564,1.139,1.979,1.979,0,0,1-.279,1.246,1.847,1.847,0,0,1-1.144.862,2.14,2.14,0,0,1-1.562-.252,4.362,4.362,0,0,1-.987-.7,2.8,2.8,0,0,1-.691-.944,6.4,6.4,0,0,1-.379-1.224l-.024-.106v-.109a3.3,3.3,0,0,0-.036-.6,2.036,2.036,0,0,1,0-.775,2.326,2.326,0,0,1,.028-1.051,18.374,18.374,0,0,0,.256-1.848c.11-1,.191-1.743.24-2.206.029-.273.1-.748.2-1.435a5.491,5.491,0,0,0-.559.377c-.181.154-.441.355-.8.615-.235.255-.4.439-.5.548a3.281,3.281,0,0,1-.6.5,1.92,1.92,0,0,1-.666.6q-.036.079-.071.164a1.523,1.523,0,0,1-.627.743c-.009.015-.02.033-.034.057l-.022.04-.026.037c-.439.64-.611.915-.678,1.033a2.893,2.893,0,0,1-.569.727,2.3,2.3,0,0,1-1.253.506,1.751,1.751,0,0,1-.246.018,1.816,1.816,0,0,1-1.636-1.117,2.15,2.15,0,0,1,.227-2.343l.047-.064.057-.056a1.538,1.538,0,0,0,.295-.405l.02-.039.023-.037a5.924,5.924,0,0,1,.716-.952,1.172,1.172,0,0,0,.245-.37l.1-.243.206-.164a2.083,2.083,0,0,0,.583-.7l.035-.07.046-.063c.335-.466.485-.65.568-.744a3.1,3.1,0,0,0,.207-.447l0-.006c.379-.926.511-1.2.583-1.33a1.957,1.957,0,0,0,.136-.3,7.327,7.327,0,0,1,.309-.731,2.108,2.108,0,0,1,.134-.826,1.835,1.835,0,0,0,.025-.347c-.019-.29-.034-.449-.044-.531l-.065-.019a3.607,3.607,0,0,0-.606.26,2.006,2.006,0,0,0-.476.4A2.209,2.209,0,0,1-99.7,27.754a2.22,2.22,0,0,1-.657.1,1.8,1.8,0,0,1-1.327-.57,2.113,2.113,0,0,1-.646-1.477,2.365,2.365,0,0,1,.323-1.222,2.149,2.149,0,0,1,.8-.794,6.817,6.817,0,0,1,1.691-.976c.47-.177.91-.331,1.307-.458a3.361,3.361,0,0,1,1.765-.061l.041.009.04.012c.411.128.719.228.943.306a2.067,2.067,0,0,1,1.087.993,5.094,5.094,0,0,1,.486.795,7.722,7.722,0,0,1,.368,1.042l.02.069.01.071a2.749,2.749,0,0,1-.05,1.217,1.478,1.478,0,0,0,.041.35l.061.3-.122.283c-.041.1-.072.173-.1.235q.172-.087.321-.158l.612-.29a52.7,52.7,0,0,1,1.1-5.547c.464-1.8.873-3.507,1.214-5.083l.022-.1.042-.094a.951.951,0,0,0,.082-.346,2.648,2.648,0,0,1,.242-1,2.666,2.666,0,0,0,.122-.405c.015-.089.045-.3.1-.831l.01-.085.024-.082c.226-.775.374-1.27.452-1.514a2.784,2.784,0,0,1,.571-1l.058-.066.069-.055A1.644,1.644,0,0,1-87.548,10.965ZM-100.3,25.857a.231.231,0,0,0,.182-.157l.06-.15.1-.123q.119-.14.242-.265-.171.117-.351.255l-.077.059-.087.043c-.008,0-.032.016-.068.076a.383.383,0,0,0-.047.2A.356.356,0,0,0-100.3,25.857Zm2.794,6.925c.017-.023.04-.055.068-.1l.119-.186.187-.118c.07-.044.128-.083.175-.116l-.713.443a4.008,4.008,0,0,1-.276.359A1.446,1.446,0,0,1-97.5,32.782Zm-.907,1.042c.054-.124.109-.242.164-.351a1.477,1.477,0,0,1,.154-.244q-.116.121-.243.234a3.225,3.225,0,0,1-.533.748,3.881,3.881,0,0,0-.449.6,3.538,3.538,0,0,1-.578.808c-.083.128-.062.168-.035.221l0,.008.049-.014a1.086,1.086,0,0,0,.134-.192c.126-.222.363-.586.744-1.143A1.982,1.982,0,0,1-98.409,33.824Zm39.5-20.491a1.932,1.932,0,0,1,.867.187,1.131,1.131,0,0,0,.287.1,5.23,5.23,0,0,1,.62.161,2.884,2.884,0,0,1,.683.337.425.425,0,0,0,.157.051,3,3,0,0,1,.89.3,2.159,2.159,0,0,0,.4.163,1.932,1.932,0,0,1,.822.481,1.182,1.182,0,0,0,.181.047,2.154,2.154,0,0,1,.8.312A2.6,2.6,0,0,1-52.132,16c.2.148.35.262.463.35a4.129,4.129,0,0,1,.737.851l.073.1.045.116a14.981,14.981,0,0,1,.476,1.421,2.188,2.188,0,0,1-.129,1.778,2.371,2.371,0,0,1-.863.845,1.7,1.7,0,0,1-.839.227,1.607,1.607,0,0,1-.6-.115,5.333,5.333,0,0,1-.662-.318,1.816,1.816,0,0,1-.823-1.027l-.016-.053a3.118,3.118,0,0,1-.126-1.023c0-.022,0-.049,0-.081a5.113,5.113,0,0,0-1.56-.88,12.588,12.588,0,0,1-1.62-.588,4.414,4.414,0,0,0-.972-.272,2.005,2.005,0,0,1-.69.148,2.531,2.531,0,0,1-.893-.212,1.867,1.867,0,0,1-1.136-1.262,1.955,1.955,0,0,1,.43-1.865,1.954,1.954,0,0,1,1.518-.782A3.063,3.063,0,0,1-58.911,13.333Zm6.7,6.309a1.271,1.271,0,0,0-.051-.27q-.062-.223-.134-.447a3.038,3.038,0,0,1,0,.354,1.068,1.068,0,0,0,.039.3q.07.038.143.072Zm181.425-4.734.266.066a4.215,4.215,0,0,1,.754.266,3.255,3.255,0,0,1,.665.4,1.476,1.476,0,0,1,.494,1.45c-.032.224-.084.517-.156.891.044.122.087.25.126.383a2.08,2.08,0,0,1,.046.978q.025.122.05.241a4.175,4.175,0,0,1,.481.005l.035,0a2.346,2.346,0,0,1,.941-.256,2.253,2.253,0,0,1,.788-.155.6.6,0,0,0,.187-.047,2.4,2.4,0,0,1,.9-.145,5.116,5.116,0,0,1,1.055-.168,1.915,1.915,0,0,1,.88-.222,2.312,2.312,0,0,1,.775-.242c.034,0,.174-.02.59-.108a2.623,2.623,0,0,1,1.476.085,2.4,2.4,0,0,1,1.246.94,1.721,1.721,0,0,1,.23,1.629,1.591,1.591,0,0,1-1.283,1.009c-.264.039-.576.071-.953.1a3.608,3.608,0,0,1-.86.059.99.99,0,0,0-.274.031,2.339,2.339,0,0,1-.691.058,3.3,3.3,0,0,1-1.313.229,2.256,2.256,0,0,0-.266.064,2.3,2.3,0,0,1-.789.09,8.473,8.473,0,0,1-.869.15c-.277.033-.578.084-.892.151l-.061.011c-.227.034-.471.068-.729.1.017.142.031.3.04.461a5.107,5.107,0,0,0,.062.54,4.9,4.9,0,0,1,.069.808c0,.193.012.556.036,1.079l0,.108-.019.107c-.1.591-.186,1.014-.253,1.294a5.694,5.694,0,0,1-.292.892c-.1.235-.213.5-.338.784a2.3,2.3,0,0,1-.758,1,1.483,1.483,0,0,1-.513.553,1.473,1.473,0,0,1-.733.8.623.623,0,0,0-.149.107,9.281,9.281,0,0,1-.859.65,4.265,4.265,0,0,1-1.2.612,3.672,3.672,0,0,1-.878.373c-.1.022-.339.077-.712.165-.346.137-.582.228-.72.278q-.092.033-.2.062.129.143.267.274A9.62,9.62,0,0,1,126,35.016a1.24,1.24,0,0,0,.371.291l.3.172.128.317a.5.5,0,0,0,.023.051,2.025,2.025,0,0,1,.69.765c.286.15.653.349,1.109.6l.15.084.113.129a3.064,3.064,0,0,0,.555.545,1.517,1.517,0,0,1,.82,1.241,3.761,3.761,0,0,1-.07.925,1.7,1.7,0,0,1-.821,1.237,1.994,1.994,0,0,1-1.352.19,3.783,3.783,0,0,1-1.62-.866l-.069-.055-.058-.066c-.186-.211-.392-.462-.613-.747a15.757,15.757,0,0,0-1.312-1.348c-.741-.711-1.5-1.5-2.268-2.33a13.907,13.907,0,0,1-1.391-1.622c-.084-.135-.205-.311-.361-.521a3.778,3.778,0,0,1-.555-1.1,2.157,2.157,0,0,1,.024-1.5,1.952,1.952,0,0,1,1.38-1.26,4.069,4.069,0,0,1,1.133-.118c.251.012.511.029.772.052a8.668,8.668,0,0,0,1.457-.185c.488-.155.86-.288,1.105-.393a6.865,6.865,0,0,0,1.035-.625,9.585,9.585,0,0,0,.809-.587,7.409,7.409,0,0,0,.462-.594,2.753,2.753,0,0,1,.463-.793,1.717,1.717,0,0,0,.19-.535,3.965,3.965,0,0,1,.151-.933,1.147,1.147,0,0,0-.012-.408l-.015-.105.008-.106a1.225,1.225,0,0,0-.039-.486,5.11,5.11,0,0,1-.229-.888c-.676.09-1.163.161-1.453.212a3.355,3.355,0,0,0-.732.187,1.962,1.962,0,0,1-1.019.146,1.389,1.389,0,0,1-.619.153,1.193,1.193,0,0,1-.295-.037,2.867,2.867,0,0,1-.572.215,2.219,2.219,0,0,1-.561.068,3.137,3.137,0,0,1-.465-.037,2.017,2.017,0,0,1-.926.136,2.235,2.235,0,0,1-1.118.4c-.06,0-.221,0-.624.03-.458.1-.807.16-1.063.2a6.3,6.3,0,0,1-.926.066,8.8,8.8,0,0,0-.994.085,3.355,3.355,0,0,1-1.615.2,2.326,2.326,0,0,1-1.7-.894,1.949,1.949,0,0,1-.393-1.639,1.918,1.918,0,0,1,.745-1.177,2.077,2.077,0,0,1,1.229-.369,7.13,7.13,0,0,1,.821.044c.22.026.419.052.591.078a.8.8,0,0,0,.117.007,2.145,2.145,0,0,0,.22-.013,4.534,4.534,0,0,1,.8-.011c.723-.094,1.247-.147,1.6-.159.308-.011.932-.065,1.856-.159,1.753-.266,3.179-.482,4.24-.641.72-.108,1.472-.226,2.244-.353v0a10.611,10.611,0,0,1-.349-1.23,3.683,3.683,0,0,1-.227-1.463,2.63,2.63,0,0,1,.148-1.3,1.569,1.569,0,0,1,.89-1c.152-.061.362-.13.64-.213Zm.167,2.128q-.059-.027-.121-.051a.951.951,0,0,0,0,.323l.014.1-.005.1q0,.077,0,.15C129.315,17.41,129.353,17.2,129.381,17.035Zm-13.105,6.414c-.1-.014-.212-.028-.331-.042a5.1,5.1,0,0,0-.577-.03l.014.02a.51.51,0,0,0,.3.1A1.4,1.4,0,0,0,116.276,23.449Zm6.333,8.591c-.137-.01-.273-.018-.406-.024a2.021,2.021,0,0,0-.526.055.56.56,0,0,0-.037.077.319.319,0,0,0,.024.158v0Zm4.882,6.825-.115-.064c.118.147.228.281.331.4a3.809,3.809,0,0,0,.5.337A5.167,5.167,0,0,1,127.492,38.865ZM35.837,15.423h.236l.211.1c.309.154.573.292.784.41a1.613,1.613,0,0,1,.839,1.08l.015,0a6.442,6.442,0,0,1,1.648-.281,1.809,1.809,0,0,1,1.838,1.243,2.238,2.238,0,0,1,.108,1.59l-.017.043a1.772,1.772,0,0,1-1.1.947,2.357,2.357,0,0,1-.8.158,1.54,1.54,0,0,1-.481-.074.632.632,0,0,0-.127-.009l-.083,0a.714.714,0,0,0-.26.056,2.065,2.065,0,0,1-.874.175,3.317,3.317,0,0,1-.362-.021q-.087.01-.176.029a3.065,3.065,0,0,1-.107.322c-.02.105-.077.491-.168,1.761-.087,1.224-.176,2.236-.263,3.007q-.055.483-.126,1a3.784,3.784,0,0,0,.508-.023,4.585,4.585,0,0,0,.453-.106,3.722,3.722,0,0,1,.99-.128.549.549,0,0,0,.239-.043l.146-.073.162-.022a19.724,19.724,0,0,1,2.7-.186c.225,0,.453,0,.678.012a14.9,14.9,0,0,1,3.4.514,8.017,8.017,0,0,1,2.863,1.381,2.062,2.062,0,0,1,.79.735,1.614,1.614,0,0,1,.687.885,1.369,1.369,0,0,0,.138.31,3.168,3.168,0,0,1,.356.857,8.34,8.34,0,0,1,.192,1.069l.005.057a7.721,7.721,0,0,1-.121,1.7,7.355,7.355,0,0,1-.767,2.216,14.13,14.13,0,0,1-1.355,2.1l-.033.041c-.443.514-.888,1.024-1.322,1.518a7.478,7.478,0,0,1-1.62,1.368,2.824,2.824,0,0,1-.849.823,7.467,7.467,0,0,1-.75.383.677.677,0,0,0-.064.032,1.422,1.422,0,0,1-.828.558,3.224,3.224,0,0,1-1.025.546c-.215.059-.383.107-.5.142a5.127,5.127,0,0,1-.793.145,1.952,1.952,0,0,1-1.627-.56,1.831,1.831,0,0,1-.426-1.992,1.9,1.9,0,0,1,1.575-1.352,2.97,2.97,0,0,0,.718-.174c.276-.112.581-.232.909-.358A6.771,6.771,0,0,0,43.08,38.8a7.812,7.812,0,0,0,.887-.619c.265-.218.647-.562,1.134-1.022a6.108,6.108,0,0,0,1.053-1.281c.367-.614.526-.905.6-1.042a4.37,4.37,0,0,1,.328-.558c0-.016,0-.035,0-.058l-.032-.386.155-.2a1.305,1.305,0,0,1,.054-.711l-.105-.21.118-.38c.014-.044.023-.079.03-.107a3.806,3.806,0,0,1-.135-.5,2.778,2.778,0,0,1-.556-.64.324.324,0,0,0-.09-.056,3.812,3.812,0,0,1-.745-.467,4.059,4.059,0,0,1-.917-.428l-.118,0a1.877,1.877,0,0,1-.889-.186,2.331,2.331,0,0,1-.92-.1c-.566-.024-1.088-.066-1.555-.126a7.047,7.047,0,0,1-1.444.189l-.118,0-.109,0a1.16,1.16,0,0,0-.357.038c-.227.08-.44.148-.632.2s-.372.1-.523.129a1.943,1.943,0,0,1-.716-.009,4.147,4.147,0,0,1-.807.2,2.052,2.052,0,0,1-.658.307c-.046.012-.112.031-.2.061-.166.571-.208.772-.219.838a1.819,1.819,0,0,1-.412.909,2.2,2.2,0,0,1-.232.778,1.357,1.357,0,0,1-.256.8,1.644,1.644,0,0,1-.3.821c-.091.124-.233.33-.421.611l-.032.045c-.112.148-.234.324-.365.524a1.812,1.812,0,0,1-.717,1.132c-.017.012-.074.055-.205.168a1.978,1.978,0,0,1-1.069.812c-.269.144-.54.277-.808.4s-.56.25-.849.375a3.062,3.062,0,0,1-1.225.214c-.167,0-.349-.008-.539-.025l-.043,0a4.115,4.115,0,0,1-2.025-.848,3,3,0,0,1-1.18-1.789,3.864,3.864,0,0,1,.008-1.631,9.495,9.495,0,0,1,.475-1.422,4.968,4.968,0,0,1,1.22-1.708c.465-.437.85-.788,1.143-1.041a8.632,8.632,0,0,1,1.257-.878c.426-.252.8-.465,1.114-.635a2.861,2.861,0,0,1,1.149-.53,2.414,2.414,0,0,0,.428-.226,2.708,2.708,0,0,1,.825-.4,1.631,1.631,0,0,0,.165-.062c0-.012,0-.023,0-.034a2.052,2.052,0,0,1,.132-.732,1.562,1.562,0,0,1,.2-.918,1.731,1.731,0,0,1,.013-.664l-.128-.3.141-.373a2.024,2.024,0,0,0,.085-.268,1.494,1.494,0,0,1,.152-1.155,2.9,2.9,0,0,1,.047-.9c.045-.336.074-.668.088-.994a3.156,3.156,0,0,1-.447.087,2.094,2.094,0,0,0-.41.154,3.4,3.4,0,0,1-.622.742,1.554,1.554,0,0,1-1.023.352,2.5,2.5,0,0,1-.666-.1,2.132,2.132,0,0,1-1.438-1.32,2.016,2.016,0,0,1,.265-2.038,2.265,2.265,0,0,1,1.3-.982c.346-.1.752-.211,1.209-.324.411-.1.779-.21,1.092-.322l.059-.021.061-.013c.216-.048.429-.09.635-.127,0-.107.007-.2.011-.285a2.289,2.289,0,0,1,.6-1.333A2.225,2.225,0,0,1,35.837,15.423Zm.107,2.166q-.135-.073-.3-.156a.123.123,0,0,0-.059.039,1.019,1.019,0,0,0-.145.213c-.01.2-.015.507-.015.905v.716l-.626.207h.691l.024-.119.256-.109-.068,0,.183-1.215C35.921,17.849,35.937,17.693,35.945,17.589Zm-5.169,3.468c.058-.078.138-.194.239-.362l.129-.214-.194.056a.269.269,0,0,0-.181.138l-.035.059-.043.054a.292.292,0,0,0-.043.067.224.224,0,0,0,.016.051C30.715,21.027,30.752,21.049,30.776,21.057ZM29.5,35.217a3.08,3.08,0,0,0,.793-.53,7.172,7.172,0,0,0,.665-.824,4.652,4.652,0,0,0,.556-1.181l.061-.183a2.779,2.779,0,0,0-.294.186,4.319,4.319,0,0,1-.882.546.773.773,0,0,0-.189.123.921.921,0,0,0-.179.193,5.3,5.3,0,0,1-.8.862c-.194.3-.375.584-.539.845a.873.873,0,0,0-.064.122C28.839,35.343,29.131,35.29,29.5,35.217ZM-26.888,15.6a1.555,1.555,0,0,1,.5.075,3.321,3.321,0,0,0,.406.068,4.313,4.313,0,0,1,1.039.265,1.869,1.869,0,0,1,1.1,1.2,2.522,2.522,0,0,1,.059,1.439l-.037.149-.081.131a3.643,3.643,0,0,1-.73.906,1.8,1.8,0,0,1-1.107.382,2.081,2.081,0,0,1-.632.238c-.067.012-.2.039-.445.1a2,2,0,0,1-1.108.324,1.724,1.724,0,0,1-.473.158,1.339,1.339,0,0,1-.868.29c-.051,0-.1,0-.156-.007l-.111.05a1.566,1.566,0,0,1-.672.61,1.419,1.419,0,0,1-.572.578,6.618,6.618,0,0,1-.66.8,14.8,14.8,0,0,0-1.006,1.208l-.041.05c-.433.5-.829.981-1.177,1.422s-.6.777-.765,1.007a2.524,2.524,0,0,1-.828.749,3.334,3.334,0,0,1-.514.565c-.048.137-.087.252-.115.343a1.4,1.4,0,0,1-.547.755,2.312,2.312,0,0,1-.784,1.129c-.2.283-.357.5-.461.659a4.308,4.308,0,0,0-.345.749,2.261,2.261,0,0,0-.091.284q.093.064.18.133a1.89,1.89,0,0,1,.9.581,1.631,1.631,0,0,1,.359,1.529,2.06,2.06,0,0,1-.713,1.094,2.117,2.117,0,0,1-.991.464,2.292,2.292,0,0,1-.99-.084,6.545,6.545,0,0,1-.854-.325l-.165-.075-.128-.127a3.246,3.246,0,0,0-.527-.45,1.772,1.772,0,0,1-.812-1.3,5.072,5.072,0,0,1-.032-.99,2.576,2.576,0,0,1,.04-.727,2.328,2.328,0,0,1,.411-.912,3.824,3.824,0,0,1,.167-.5,4.58,4.58,0,0,1,.353-.66c.13-.207.39-.6.794-1.2l.019-.028c1.073-1.488,2.206-2.935,3.366-4.3q.965-1.135,1.944-2.3c-.2.078-.375.14-.532.188a2.282,2.282,0,0,1-.8.108,2.257,2.257,0,0,0-.216.139l-.122.087-.142.047a2.129,2.129,0,0,0-.377.151,1.5,1.5,0,0,1-1.348.163,2.574,2.574,0,0,1-.848-.479,3.9,3.9,0,0,1-.573-.595,1.566,1.566,0,0,1-.259-1.438,3.188,3.188,0,0,1,.378-.828,2.219,2.219,0,0,1,1.6-.813l.042-.006.042,0c.739-.047,1.651-.144,2.709-.288l.052-.006,1.756-.145c.5-.064.978-.129,1.437-.194A2.093,2.093,0,0,1-31.219,18c.382-.379.737-.725,1.056-1.031a5.637,5.637,0,0,1,1.787-1.087,2.171,2.171,0,0,1,1.07-.246A2.605,2.605,0,0,1-26.888,15.6Zm1.14,2.229a2.35,2.35,0,0,0-.5-.118,5.157,5.157,0,0,1-.68-.123c-.026,0-.066.008-.125.02l-.146.029-.149-.015a.169.169,0,0,0-.12.027l-.053.029-.056.023a3.785,3.785,0,0,0-1.2.7c-.265.254-.555.537-.866.844l.2.049a1.352,1.352,0,0,1,.659-.221,1.566,1.566,0,0,1,.865-.193,2.026,2.026,0,0,0,.189-.1l.131-.08.15-.037c.3-.074.522-.125.68-.155a1.408,1.408,0,0,0,.195-.113l.284-.188.341.024c.037,0,.071,0,.1,0,.033-.041.079-.1.137-.188a.584.584,0,0,0-.033-.206Zm-11.627,3,.113-.073q-.266.023-.512.039a2.235,2.235,0,0,0-.252.053l0,0q.066.068.141.131.024.02.048.037A4.269,4.269,0,0,1-37.375,20.828ZM96.244,18.257a2.886,2.886,0,0,1,1.485.44l.052.033a1.573,1.573,0,0,1,.806,1.961,3.047,3.047,0,0,1-.6.953c-.119.127-.233.258-.338.392-.172.421-.46,1.149-.858,2.167a2.353,2.353,0,0,1-.4,1.06c-.107.414-.224.9-.35,1.435-.177.761-.241,1.1-.263,1.25a6.525,6.525,0,0,0-.064.672,2.218,2.218,0,0,1-.271.974,5.316,5.316,0,0,1-.15,1.231c.02.755.012,1.426-.024,2a11.621,11.621,0,0,0,.158,2.207,4.213,4.213,0,0,0,.238,1.062,5.257,5.257,0,0,0,.436.693c.014.02.045.062.218.067a2.575,2.575,0,0,0,.908-.136,14.1,14.1,0,0,0,1.854-.967c.6-.371,1.114-.7,1.532-.973a3.473,3.473,0,0,1,.95-.7,1.754,1.754,0,0,1,.935-.763l.185-.184a2.913,2.913,0,0,1,.65-.454,1.655,1.655,0,0,1,.934-.881.782.782,0,0,0,.1-.044,8.151,8.151,0,0,1,.695-.69c.213-.186.5-.431.845-.728a10.04,10.04,0,0,1,.893-.7,3.513,3.513,0,0,0,.543-.511l.024-.026.026-.025a2.416,2.416,0,0,1,1.61-.821,3.3,3.3,0,0,1,.986.157,1.624,1.624,0,0,1,1.112,1.361,1.572,1.572,0,0,1-.429,1.521c-.1.093-.3.256-.921.7a2.144,2.144,0,0,0-.327.3,1.6,1.6,0,0,1-.658.47,2.848,2.848,0,0,1-.765.741c-.276.183-.569.393-.872.624l-.016.012a6.136,6.136,0,0,0-.955.833,3.244,3.244,0,0,1-1.007.794c-.127.114-.272.232-.441.358a3.414,3.414,0,0,0-.356.295c-.084.083-.262.251-.838.737a15.7,15.7,0,0,1-2.28,1.455,2.2,2.2,0,0,1-1.082.9c-.259.094-.53.178-.808.251a4.5,4.5,0,0,1-1.008.454,4.215,4.215,0,0,1-.9.145c-.217.011-.5.035-.839.07a2.215,2.215,0,0,1-.226.011,3.572,3.572,0,0,1-1.66-.488A4,4,0,0,1,92.2,37.015a17.246,17.246,0,0,1-.391-2.419c-.026-.508-.038-1.014-.038-1.508,0-.517.056-1.326.172-2.475.107-1.068.162-1.84.162-2.3v-.05l0-.049c.053-.526.2-1.418.458-2.725.252-1.289.608-2.725,1.059-4.269a4.5,4.5,0,0,0,.167-.666,2.534,2.534,0,0,1,.626-1.3A2.4,2.4,0,0,1,96,18.27l.07-.007C96.127,18.259,96.186,18.257,96.244,18.257Zm.265,2.045a.725.725,0,0,0-.254-.06.688.688,0,0,0-.246.219,2.727,2.727,0,0,0-.236.348,6.346,6.346,0,0,1-.232.971q-.072.246-.14.489c.2-.5.344-.865.446-1.11l.048-.117.076-.1A7.978,7.978,0,0,1,96.509,20.3ZM48.68,18.85a2.225,2.225,0,0,1,1.373.467,2.558,2.558,0,0,1,.787,1.071c.2.263.43.563.686.892a4.365,4.365,0,0,1,.62,1.03,2.142,2.142,0,0,1,.487.772,1.487,1.487,0,0,0,.279.426,2.712,2.712,0,0,1,.742,1.005,1.73,1.73,0,0,1,.033,1.522,2.438,2.438,0,0,0-.131.294,1.456,1.456,0,0,1-1.284.9,2.722,2.722,0,0,1-.446.04,1.36,1.36,0,0,1-1-.373,9.334,9.334,0,0,1-.7-.854,20.21,20.21,0,0,1-1.582-2.37,6.017,6.017,0,0,0-.979-1.345,1.642,1.642,0,0,1-.784-1.681,2.366,2.366,0,0,1,.5-1.209A1.745,1.745,0,0,1,48.68,18.85ZM15.3,20.692a2.685,2.685,0,0,1,1,.145,1.642,1.642,0,0,1,.885,1.081,5.13,5.13,0,0,1,.458,1.7,21.442,21.442,0,0,1,.138,2.707v3.143a9.375,9.375,0,0,1-.063,1.6c-.052.428-.091.836-.116,1.215a3.743,3.743,0,0,1,.111,1.362,1.8,1.8,0,0,1-.559,1.1,2.114,2.114,0,0,1-1.2.469,2.472,2.472,0,0,1-.291.017,2.443,2.443,0,0,1-1.209-.323,1.759,1.759,0,0,1-.951-1.484,2.5,2.5,0,0,1,.172-1.116,3.152,3.152,0,0,0,.143-.558,4.8,4.8,0,0,1,.253-1.335c-.028-.941-.021-1.211-.011-1.347a2.414,2.414,0,0,1,.191-.753,3.192,3.192,0,0,1-.082-.957,4.5,4.5,0,0,0-.078-.934l-.023-.13.012-.132a2.445,2.445,0,0,0-.119-.763c-.126-.476-.235-.915-.323-1.305a2.31,2.31,0,0,0-.171-.555l-.085-.148-.031-.167A2.276,2.276,0,0,1,13.442,22a2.242,2.242,0,0,1,.656-.921L14.191,21l.11-.055A2.249,2.249,0,0,1,15.3,20.692Zm.032,1.986h-.015l-.008.019a.259.259,0,0,0,0,.059,4.779,4.779,0,0,1,.283.9q.045.2.1.414-.011-.1-.023-.2a3.085,3.085,0,0,0-.261-1.064l-.058-.1Zm.407,10.564a3.686,3.686,0,0,0-.09-.541,3.178,3.178,0,0,1-.133.388.551.551,0,0,0-.015.124.4.4,0,0,0,.165.036.45.45,0,0,0,.053,0Zm64.794-12.55a2.685,2.685,0,0,1,1,.145,1.642,1.642,0,0,1,.884,1.081,5.13,5.13,0,0,1,.458,1.7,21.442,21.442,0,0,1,.138,2.707v3.143a9.375,9.375,0,0,1-.063,1.6c-.052.427-.091.835-.116,1.215a3.742,3.742,0,0,1,.111,1.362,1.8,1.8,0,0,1-.559,1.1,2.113,2.113,0,0,1-1.2.469,2.472,2.472,0,0,1-.291.017,2.443,2.443,0,0,1-1.209-.323,1.759,1.759,0,0,1-.951-1.484,2.5,2.5,0,0,1,.172-1.116,3.15,3.15,0,0,0,.143-.558,4.8,4.8,0,0,1,.253-1.335c-.028-.941-.021-1.211-.011-1.347a2.414,2.414,0,0,1,.191-.753,3.192,3.192,0,0,1-.082-.957,4.5,4.5,0,0,0-.078-.934l-.023-.13.012-.132A2.445,2.445,0,0,0,79.2,25.4c-.126-.476-.235-.915-.323-1.305a2.31,2.31,0,0,0-.171-.555l-.085-.148-.031-.167A2.277,2.277,0,0,1,78.674,22a2.242,2.242,0,0,1,.656-.921l.093-.08.11-.055A2.25,2.25,0,0,1,80.536,20.692Zm.032,1.986h-.015l-.008.019h0a.257.257,0,0,0,0,.059,4.779,4.779,0,0,1,.283.9q.045.2.1.414-.011-.1-.023-.2a3.085,3.085,0,0,0-.261-1.064l-.058-.1Zm.407,10.564a3.685,3.685,0,0,0-.09-.541,3.178,3.178,0,0,1-.133.388.55.55,0,0,0-.015.124.4.4,0,0,0,.165.036.45.45,0,0,0,.053,0Zm-84.6-12.37a2.485,2.485,0,0,1,.575.069,1.613,1.613,0,0,1,1.285,1.277,2.6,2.6,0,0,1-.242,1.539A4.589,4.589,0,0,0-2.158,24.8a7.529,7.529,0,0,0,.031,1.578l.017.124-.014.124a2.792,2.792,0,0,0,.017,1.084,2.735,2.735,0,0,1,.171,1.128,3.489,3.489,0,0,0,.1.449,14.045,14.045,0,0,1,.461,1.439,15.28,15.28,0,0,0,.592,1.73,8.894,8.894,0,0,0,.726,1.413,9.165,9.165,0,0,1,.678.885c.083.079.149.136.2.176.035-.016.078-.036.13-.063a5.113,5.113,0,0,1,.9-.832,4.432,4.432,0,0,1,.278-.5,3.312,3.312,0,0,1,.576-.6,2.341,2.341,0,0,1,.614-.815,5.6,5.6,0,0,1,.531-.576,1.441,1.441,0,0,1,.694-.9c.17-.229.349-.473.532-.728L5.1,29.88l.026-.031c.265-.311.5-.589.687-.826a4.8,4.8,0,0,1,.8-.79,1.739,1.739,0,0,1,1.066-.381,1.677,1.677,0,0,1,.578.1,2.1,2.1,0,0,1,1.1.955,1.739,1.739,0,0,1,.091,1.654,3.285,3.285,0,0,1-.537.817c-.137.149-.384.412-.754.805-.5.571-1.142,1.266-1.909,2.065-.75.782-1.349,1.432-1.781,1.932-.453.526-.914,1.034-1.367,1.51l-.094.1-.117.07a5.078,5.078,0,0,1-1.32.57,2.289,2.289,0,0,1-.57.068,4.85,4.85,0,0,1-1.5-.29L-.75,38.13l-.175-.19a2.326,2.326,0,0,0-.592-.479,2.534,2.534,0,0,1-1.036-1.019c-.313-.41-.59-.8-.824-1.152a4.09,4.09,0,0,1-.57-1.3,1.738,1.738,0,0,0-.144-.206,1.471,1.471,0,0,1-.554-1.417.432.432,0,0,0-.025-.046,2.6,2.6,0,0,1-.311-.805,1.715,1.715,0,0,1-.3-.975.766.766,0,0,0-.04-.082l-.126-.225v-.257a4.4,4.4,0,0,0-.029-.54,3.412,3.412,0,0,1-.029-.595l0-.005a2.761,2.761,0,0,1-.253-.692,4.056,4.056,0,0,1-.056-.768A4.463,4.463,0,0,1-6,26.382a7.2,7.2,0,0,1-.02-.942c.01-.172.016-.341.017-.5-.025-.273-.037-.614-.037-1.04a4.353,4.353,0,0,1,.133-1.22,3.872,3.872,0,0,1,.3-.743,2.019,2.019,0,0,1,1.037-.864A2.371,2.371,0,0,1-3.626,20.872Zm-.417,2.847a3.478,3.478,0,0,1,.184-.708l.012-.029q.017-.039.031-.073c-.031.014-.053.027-.07.036a2.093,2.093,0,0,0-.108.291A2.1,2.1,0,0,0-4.043,23.719Zm65.65-2.847a2.485,2.485,0,0,1,.575.069,1.613,1.613,0,0,1,1.285,1.277,2.6,2.6,0,0,1-.242,1.539,4.59,4.59,0,0,0-.151,1.043,7.529,7.529,0,0,0,.031,1.578l.017.124-.014.124a2.792,2.792,0,0,0,.017,1.084,2.735,2.735,0,0,1,.171,1.128,3.489,3.489,0,0,0,.1.449,14.043,14.043,0,0,1,.461,1.439,15.283,15.283,0,0,0,.592,1.73,8.9,8.9,0,0,0,.726,1.413,9.164,9.164,0,0,1,.678.885c.083.079.149.136.2.176.035-.016.078-.036.13-.063a5.113,5.113,0,0,1,.9-.832,4.433,4.433,0,0,1,.278-.5,3.311,3.311,0,0,1,.576-.6,2.341,2.341,0,0,1,.614-.815,5.612,5.612,0,0,1,.531-.576,1.441,1.441,0,0,1,.694-.9c.17-.228.348-.472.532-.728l.024-.033.026-.031c.265-.311.5-.589.687-.826a4.8,4.8,0,0,1,.8-.79,1.739,1.739,0,0,1,1.066-.381,1.677,1.677,0,0,1,.578.1,2.1,2.1,0,0,1,1.1.955,1.739,1.739,0,0,1,.091,1.654,3.285,3.285,0,0,1-.537.817c-.137.149-.384.412-.754.805-.5.571-1.142,1.266-1.909,2.065-.75.782-1.349,1.432-1.781,1.932-.453.526-.914,1.034-1.368,1.51l-.094.1-.117.07a5.078,5.078,0,0,1-1.32.57,2.289,2.289,0,0,1-.57.068,4.85,4.85,0,0,1-1.5-.29l-.246-.081-.175-.19a2.326,2.326,0,0,0-.592-.479,2.534,2.534,0,0,1-1.036-1.019c-.313-.41-.59-.8-.824-1.152a4.09,4.09,0,0,1-.57-1.3,1.738,1.738,0,0,0-.144-.206,1.471,1.471,0,0,1-.554-1.417.432.432,0,0,0-.025-.046,2.6,2.6,0,0,1-.311-.805,1.715,1.715,0,0,1-.3-.975.765.765,0,0,0-.04-.082l-.126-.225v-.257a4.4,4.4,0,0,0-.029-.54,3.413,3.413,0,0,1-.029-.595l0-.005a2.761,2.761,0,0,1-.253-.692,4.056,4.056,0,0,1-.056-.768,4.463,4.463,0,0,1-.183-.993,7.2,7.2,0,0,1-.02-.942c.01-.172.016-.341.017-.5-.025-.273-.037-.614-.037-1.04a4.353,4.353,0,0,1,.133-1.22,3.872,3.872,0,0,1,.3-.743,2.019,2.019,0,0,1,1.037-.864A2.371,2.371,0,0,1,61.606,20.872Zm-.417,2.847a3.478,3.478,0,0,1,.184-.708l.012-.029q.017-.039.031-.073c-.031.014-.053.027-.07.036a1.583,1.583,0,0,0-.158.774Zm-122.127-2.83a2.051,2.051,0,0,1,1.506.8c.916,1.02.532,1.754.325,2.022a10.946,10.946,0,0,1-.894.955c-.2.328-.364.6-.477.816a6.419,6.419,0,0,0-.364.9l-.018.054-.024.052c-.158.337-.276.616-.352.829s-.144.436-.2.643-.1.4-.135.568-.087.473-.168.948c.066.313.105.457.124.518a.223.223,0,0,0,.012.03,2.8,2.8,0,0,0,.33.023c.5-.116,1-.216,1.5-.3a14.211,14.211,0,0,0,1.419-.31,9.119,9.119,0,0,1,1.419-.288,7.2,7.2,0,0,0,.812-.128c.285-.064.574-.123.858-.174a9.721,9.721,0,0,1,1.117-.125h.015a9.4,9.4,0,0,1,1.437.023A4.96,4.96,0,0,1-51.552,29a4.488,4.488,0,0,1,.954.475,2.737,2.737,0,0,1,.779.765,3.037,3.037,0,0,1,.665,1.718,2.9,2.9,0,0,1-.279,1.549,8.868,8.868,0,0,1-.967,1.347c-.508.68-1.072,1.362-1.679,2.028s-1.245,1.32-1.9,1.947c-.8.769-1.585,1.564-2.336,2.359-.7.744-1.2,1.264-1.519,1.583a8.085,8.085,0,0,1-.5.8,2.07,2.07,0,0,1-1.131.707,2.8,2.8,0,0,1-.786.122,1.982,1.982,0,0,1-.477-.056,2.087,2.087,0,0,1-1.065-.678,1.57,1.57,0,0,1-.4-1.481c.058-.215.13-.438.215-.664a1.827,1.827,0,0,1,.678-.873c.213-.208.422-.394.623-.555a1.9,1.9,0,0,1,.811-.576,2.286,2.286,0,0,1,.732-.634,3.223,3.223,0,0,1,1.039-.8,2.556,2.556,0,0,0,.19-.216,1.918,1.918,0,0,1,.618-.715,1.915,1.915,0,0,1,.716-.628,7.22,7.22,0,0,1,.92-1.087,4.156,4.156,0,0,1,.817-.787,1.748,1.748,0,0,1,.83-.835.4.4,0,0,0,.051-.063,4.872,4.872,0,0,1,.675-.767,6.355,6.355,0,0,0,.446-.466l.008-.036c-.08-.048-.244-.14-.561-.291a1.33,1.33,0,0,0-.318-.049.32.32,0,0,0-.049,0,3.786,3.786,0,0,1-.915.016,2.576,2.576,0,0,1-1.086.11c-.243.085-.45.165-.617.24a1.924,1.924,0,0,1-1.155.156,1.657,1.657,0,0,1-1.041.387h-.06a1.546,1.546,0,0,1-.629.134,1.584,1.584,0,0,1-.219-.015l-.232.173-.381-.03c-.046,0-.088-.006-.124-.006h-.041a3.5,3.5,0,0,1-1.029.257l-.066.009h-.066a3.977,3.977,0,0,1-1.224-.143c-.214-.071-.458-.165-.745-.287a3.109,3.109,0,0,1-1.037-.728,3,3,0,0,1-.7-1.256l-.019-.065-.01-.067a8.022,8.022,0,0,1-.084-1.135V28.888A6.009,6.009,0,0,1-65,27.368a6.356,6.356,0,0,1,.317-1.336c.167-.5.3-.871.4-1.145.1-.251.2-.521.323-.8a7.282,7.282,0,0,1,.328-.922,9.56,9.56,0,0,1,.538-.992l.063-.1.087-.086a8.282,8.282,0,0,1,.632-.566,2.36,2.36,0,0,1,1.149-.506A1.5,1.5,0,0,1-60.938,20.889ZM-59.9,42.331c.057-.084.168-.256.361-.6-.137.117-.282.25-.432.4l-.095.094-.062.035q-.028.075-.052.148a1.269,1.269,0,0,0,.15-.035A.985.985,0,0,0-59.9,42.331Zm-56.377-21.123a1.455,1.455,0,0,1,.785.23,3.579,3.579,0,0,1,1.105.623c.721.477,1.439.943,2.135,1.385a9.529,9.529,0,0,1,1.7,1.292,3.646,3.646,0,0,1,.767,1.1,3.2,3.2,0,0,1,.4,1,2.259,2.259,0,0,1-.082,1.326,1.877,1.877,0,0,1-1.056,1.05,1.589,1.589,0,0,1-.626.126,2.507,2.507,0,0,1-1.377-.488l-.258-.171-.115-.286a7.621,7.621,0,0,1-.329-.989,1.507,1.507,0,0,1-.49-.557h0a.626.626,0,0,0-.127-.132,1.907,1.907,0,0,0-.212-.164,4.122,4.122,0,0,1-.56-.364,3.08,3.08,0,0,1-1.324-.613,2.447,2.447,0,0,1-1.237-.724,2.051,2.051,0,0,1-.873-1.17,1.878,1.878,0,0,1,.2-1.516,2,2,0,0,1,1.039-.861A1.606,1.606,0,0,1-116.277,21.208Zm-14.322.228a2.445,2.445,0,0,1,.475.049,1.8,1.8,0,0,1,1.207.816,1.733,1.733,0,0,1,.18,1.47,5.971,5.971,0,0,1-.268.707,2.852,2.852,0,0,1-.577.789,9.144,9.144,0,0,1-1.329,1.2c-.546.422-1.143.9-1.774,1.418-.767.63-1.07.9-1.19,1.024l-.07.07-.572.379a5.113,5.113,0,0,0-.443.444l-.081.087-.028.019a1.6,1.6,0,0,1-1.326,1.025,1.98,1.98,0,0,1-.37.036,1.948,1.948,0,0,1-1.4-.6,2.061,2.061,0,0,1-.682-1.476,2.22,2.22,0,0,1,.559-1.421l.032-.038.035-.035a5.892,5.892,0,0,1,1.016-.771c.393-.314.572-.475.652-.555a3.438,3.438,0,0,1,.876-.6.91.91,0,0,0,.212-.193,1.833,1.833,0,0,1,.876-.6,4.064,4.064,0,0,1,.622-.54,1.409,1.409,0,0,1,.676-.672,2.466,2.466,0,0,0,.307-.244,1.928,1.928,0,0,0,.253-.384c.17-.858,1.083-1.163,1.445-1.273A1.906,1.906,0,0,1-130.6,21.436Zm-.439,2.468.011-.011a1.122,1.122,0,0,0,.207-.248q.035-.076.072-.172c-.04.013-.073.026-.1.036A2.533,2.533,0,0,1-131.037,23.9Zm109.571-2.261c.081,0,.163,0,.242.011a5.405,5.405,0,0,1,1.271.307l1.342.445.111.074a2.425,2.425,0,0,0,.328.182,5.635,5.635,0,0,1,.587.314c.141.087.31.181.5.281.218.115.421.225.6.329a10.562,10.562,0,0,0,1.166.553c.509.21.943.391,1.29.539l.053.024a4.686,4.686,0,0,1,1.086.695,2.083,2.083,0,0,1,.614.952,1.828,1.828,0,0,1-.205,1.378,2.27,2.27,0,0,1-.806.919,1.785,1.785,0,0,1-1.435.149,3.117,3.117,0,0,1-1.2-.69,1.919,1.919,0,0,1-.6-.418,1.467,1.467,0,0,1-.813-.331,2.76,2.76,0,0,1-1.017-.463,7,7,0,0,1-.631-.452,2.949,2.949,0,0,1-.592-.221c-.113-.056-.467-.216-1.493-.655l-.015,0a1.845,1.845,0,0,1-.437.209,2.593,2.593,0,0,1,.463.166,1.514,1.514,0,0,1,.869,1.5,3.111,3.111,0,0,1-.222,1.051,1.974,1.974,0,0,1-.466.685,2.875,2.875,0,0,1-.414.748q-.083.105-.165.231a2.285,2.285,0,0,1-.239.944,1.593,1.593,0,0,1-.211,1.213.638.638,0,0,0-.011.069,2.482,2.482,0,0,1-.241.837q-.013.1-.03.209a1.966,1.966,0,0,1,.669.1.675.675,0,0,0,.2.023c.211,0,.49.006.851.019a9.752,9.752,0,0,1,1.04.092,10.7,10.7,0,0,1,1.635.088,3.17,3.17,0,0,0,.478.059,3.125,3.125,0,0,1,.9.174c.3-.016.608-.019.929-.008a2.558,2.558,0,0,1,1.473.493A1.932,1.932,0,0,1-13.2,35.65a1.711,1.711,0,0,1-.224,1.237,1.948,1.948,0,0,1-.855.748,2.115,2.115,0,0,1-.9.175,4.209,4.209,0,0,1-.513-.034l-.05-.007c-.42-.074-.8-.142-1.139-.2-.283-.052-.734-.1-1.342-.146a2.5,2.5,0,0,1-.846-.074l-.021-.005a1.545,1.545,0,0,1-.339.037,2.218,2.218,0,0,1-.766-.152,2.517,2.517,0,0,0-.748-.068h-.162l-.154-.051a1.067,1.067,0,0,0-.333-.06,1.839,1.839,0,0,1-.8-.16,3.119,3.119,0,0,1-.673.029q-.089-.006-.188-.018c-.358.6-.689,1.146-.989,1.629a11.65,11.65,0,0,1-1.5,1.934l-.07.073-.084.058a7.14,7.14,0,0,1-1.272.687,3.488,3.488,0,0,1-1.688.277,2.849,2.849,0,0,1-1.307-.419,2.35,2.35,0,0,1-1.215-1.029,2.965,2.965,0,0,1-.648-1.091c-.053-.2-.123-.488-.213-.885a3.045,3.045,0,0,1-.079-1.261,5.1,5.1,0,0,1,.475-1.189l.009-.018a3.676,3.676,0,0,1,2.019-1.6,9,9,0,0,1,2.545-.6c.5-.04.985-.079,1.459-.114q.027-.124.051-.244c.059-.307.126-.693.2-1.146l.006-.037.009-.036c.094-.4.178-.8.248-1.2.076-.428.233-1.223.481-2.43a5.913,5.913,0,0,1,.285-1.142,1.949,1.949,0,0,1,1.295-1.221q.206-.063.394-.1a2.477,2.477,0,0,1-.287-.121,1.911,1.911,0,0,1-1.013-1.405,1.823,1.823,0,0,1,.416-1.709,2.832,2.832,0,0,1,1.191-.723A3.425,3.425,0,0,1-21.467,21.643Zm-.707,2.259a1.984,1.984,0,0,1,.644-.271,1.585,1.585,0,0,0-.378.082,1.2,1.2,0,0,0-.286.132l0,.014c0,.017.007.032.011.044Zm-.083,3.832q.007-.018.014-.038a2.535,2.535,0,0,0-.41.1l0,0a3.949,3.949,0,0,0-.19.774l-.01.058-.019.092.015-.02a1.344,1.344,0,0,0,.183-.415l.116-.375Zm-5.19,9.546.09-.147a1.908,1.908,0,0,1-.738.188l-.025,0c-.1.073-.234.154-.395.247a.7.7,0,0,0-.022.2.654.654,0,0,0,.021.093c.024,0,.05,0,.075,0a1.236,1.236,0,0,0,.417-.093A3.311,3.311,0,0,0-27.447,37.28Z" transform="translate(230 3431) rotate(7)" fill="#009f3a"/>
    <path id="パス_6215" data-name="パス 6215" d="M9.912-7.344a15.362,15.362,0,0,1,4.608-.792c2.568,0,4.248,1.344,4.248,3.408a2.466,2.466,0,0,1-2.424,2.664,1.66,1.66,0,0,1-1.512-.816A4.624,4.624,0,0,1,14.5-4.992a8.322,8.322,0,0,1,.048-1.056A10.125,10.125,0,0,1,11.88-4.992a8.018,8.018,0,0,0,.408,3.072A3.874,3.874,0,0,0,16.224.744a5.332,5.332,0,0,0,5.448-5.472c0-3.408-2.856-5.856-6.864-5.856a16.642,16.642,0,0,0-4.9.672v-3.12c.912-.1,1.392-.168,2.184-.312,1.656-.288,2.112-.36,2.544-.432l-.1-2.688a26.766,26.766,0,0,1-4.632.912v-1.536a14.735,14.735,0,0,1,.144-2.616h-3a16.444,16.444,0,0,1,.144,2.76v1.584c-.264,0-.384,0-.96.024-.336.024-.6.024-.84.024a14.719,14.719,0,0,1-2.9-.216L2.52-12.84a4.5,4.5,0,0,1,.5-.024c.072,0,.288,0,.6.024.288,0,.96.024,1.32.024.6,0,.936,0,1.3-.024.792-.048.792-.048.984-.048l.024,3.7a12.839,12.839,0,0,0-3.5,2.04A5.122,5.122,0,0,0,1.68-3.6,3.525,3.525,0,0,0,3-.888,7.476,7.476,0,0,0,7.536.816,2.109,2.109,0,0,0,9.744-.576a7.146,7.146,0,0,0,.192-2.04ZM7.224-2.976c0,.792-.12,1.008-.528,1.008A2.885,2.885,0,0,1,5.16-2.5c-.552-.336-.792-.7-.792-1.1,0-.864,1.056-1.92,2.856-2.88ZM22.728-13.1a20.356,20.356,0,0,0-4.752-4.92L15.72-16.512a20.5,20.5,0,0,1,4.8,5.184Zm3.84-4.536a11.468,11.468,0,0,1,.1,1.536c.1,6.648.528,10.128,1.512,12.528.96,2.3,2.256,3.48,3.864,3.48,2.04,0,3.432-1.944,4.68-6.624A11.847,11.847,0,0,1,34.32-8.9,17.693,17.693,0,0,1,33.048-4.56c-.288.672-.624,1.032-.984,1.032-.768,0-1.536-1.536-1.944-4.032a44.912,44.912,0,0,1-.456-6.432,27.9,27.9,0,0,1,.192-3.648Zm12.12,2.28a20.949,20.949,0,0,1,3.408,5.9A24.33,24.33,0,0,1,43.632-2.52l2.976-1.128a23.927,23.927,0,0,0-5.4-12.912ZM52.9-19.176a11.936,11.936,0,0,1,.1,1.632c0,.336,0,.84-.024,1.56-.144,6.024-.192,8.424-.192,9.672,0,3.216.7,5.064,2.352,6.168a7.825,7.825,0,0,0,4.2,1.056,9.084,9.084,0,0,0,7.2-3.048c1.176-1.32,1.9-2.88,2.856-6.12a10.365,10.365,0,0,1-2.9-1.848,16.089,16.089,0,0,1-1.1,4.032,6.175,6.175,0,0,1-5.808,4.1,3.8,3.8,0,0,1-3.216-1.248c-.48-.72-.624-1.584-.624-3.864,0-1.7.144-6.576.24-8.808a21.939,21.939,0,0,1,.288-3.24Zm22.272,6.84a9.019,9.019,0,0,1,1.056-.072,83.636,83.636,0,0,0,8.52-.576,26.54,26.54,0,0,0,2.592,4.368,11.15,11.15,0,0,0-4.152-.72c-2.736,0-4.728.552-6.12,1.728a4.669,4.669,0,0,0-1.728,3.576,4.477,4.477,0,0,0,1.416,3.24c1.224,1.176,3.6,1.824,6.672,1.824a24.776,24.776,0,0,0,7.608-1.3l-.384-3.072a16.675,16.675,0,0,1-7.224,1.608c-3.264,0-5.04-.864-5.04-2.424,0-1.7,1.92-2.688,5.184-2.688a12.028,12.028,0,0,1,3.792.552,4.241,4.241,0,0,1,1.656,1.032L91.8-6.528c-.84-1.128-1.9-2.688-2.544-3.792-.24-.432-.792-1.44-1.656-3.048q2.988-.576,3.528-.72c.816-.168,1.08-.24,1.7-.336L92.5-17.28a36.518,36.518,0,0,1-5.88,1.416A20.109,20.109,0,0,1,85.3-19.7l-3.1.408c.12.192,1.152,2.736,1.56,3.792-1.488.192-4.68.408-6.48.408a16.454,16.454,0,0,1-2.328-.12Zm26.256-3.384a13.418,13.418,0,0,1,1.536-.144,59.264,59.264,0,0,0,6.7-.528,46.215,46.215,0,0,1-7.368,5.9,12.513,12.513,0,0,1-1.368.192c-.48.072-.792.1-.912.12-.576.072-1.584.144-2.064.144a2.652,2.652,0,0,1-.384-.024l.288,2.928a8.191,8.191,0,0,1,1.1-.24c1.608-.24,2.9-.408,3.864-.528.672-.1,1.56-.192,2.64-.336,1.152-.144,1.92-.264,2.952-.456a8.227,8.227,0,0,0-2.568,1.824,4.589,4.589,0,0,0-1.3,3.12,4.5,4.5,0,0,0,3.384,4.2,15.666,15.666,0,0,0,4.464.672h.312c.672-.024,1.056-.024,1.224-.024.336,0,.624,0,.888.024L114.7-1.92a9.314,9.314,0,0,1-2.28.216c-3.1,0-4.824-.864-4.824-2.424,0-1.3,1.32-2.76,3.264-3.648a16.213,16.213,0,0,1,6.672-1.176h.72l-.168-2.808a3.975,3.975,0,0,1-.792.1c-.216.024-.84.072-1.7.168-.552.048-1.656.12-3.168.24-2.9.24-4.632.408-5.832.576a68.837,68.837,0,0,0,6.6-5.232,10.262,10.262,0,0,1,1.392-1.176l-1.56-1.992a8.267,8.267,0,0,1-2.256.384c-1.872.144-4.968.264-7.128.264a16.2,16.2,0,0,1-2.352-.12Zm32.448.336a5.246,5.246,0,0,1,2.424.72,5.946,5.946,0,0,1,2.952,5.328,6.719,6.719,0,0,1-3.336,6,12.755,12.755,0,0,1-4.776,1.32A7.656,7.656,0,0,1,132.6.792a15.691,15.691,0,0,0,3.768-1.008A9.246,9.246,0,0,0,142.2-9.168c0-5.4-3.744-8.9-9.5-8.9a10.774,10.774,0,0,0-8.256,3.36,10.309,10.309,0,0,0-2.64,6.984c0,3.864,1.968,6.648,4.7,6.648,1.968,0,3.5-1.416,4.872-4.512A34.72,34.72,0,0,0,133.872-15.384Zm-2.928.024a31.63,31.63,0,0,1-1.992,8.112c-.864,2.064-1.68,3.072-2.472,3.072-1.056,0-1.9-1.56-1.9-3.528a8.035,8.035,0,0,1,3.264-6.48A6.109,6.109,0,0,1,130.944-15.36ZM165.576-2.544c-.336-.192-.456-.288-.864-.552a21.467,21.467,0,0,0-6.576-3.384c-.024-.576-.024-.576-.1-2.9.936-.048,1.3-.072,1.632-.1,1.8-.168,2.88-.288,3.24-.336.552-.072,1.152-.144,1.56-.168l-.072-2.64a17.761,17.761,0,0,1-2.976.528c-2.208.24-2.208.24-3.408.312-.024-1.488-.024-1.776-.048-2.376,2.112-.12,3.048-.192,5.16-.48a15.012,15.012,0,0,1,1.9-.216l-.12-2.664a32.47,32.47,0,0,1-6.912.912,14.879,14.879,0,0,1,.168-2.928h-3.048a17.122,17.122,0,0,1,.12,3.024c-.6.024-1.416.048-1.8.048a31.558,31.558,0,0,1-6.456-.5l-.024,2.664h.384c.072,0,.264,0,.528.024,1.608.12,4.7.24,5.88.24.36,0,.744,0,1.512-.024.024,1.368.024,2.184.024,2.4-.672.024-1.488.048-1.968.048a30.947,30.947,0,0,1-5.592-.408l-.048,2.592c.36,0,.6,0,.912.024,1.992.144,2.88.168,4.344.168.5,0,1.248-.024,2.4-.048.024.96.024.96.048,1.3v.528a4.627,4.627,0,0,1,.024.576,12.539,12.539,0,0,0-1.608-.1c-4.032,0-6.408,1.536-6.408,4.152,0,2.376,2.016,3.744,5.52,3.744a6.39,6.39,0,0,0,3.96-1.032,3.744,3.744,0,0,0,1.344-3.24v-.264a10.68,10.68,0,0,1,1.3.6,16.194,16.194,0,0,1,4.44,3.288ZM155.448-4.392v.576a3.042,3.042,0,0,1-.288,1.536,2.492,2.492,0,0,1-2.088.768c-1.7,0-2.736-.552-2.736-1.44,0-1.032,1.176-1.656,3.12-1.656A8.423,8.423,0,0,1,155.448-4.392Zm34.128,1.848c-.336-.192-.456-.288-.864-.552a21.467,21.467,0,0,0-6.576-3.384c-.024-.576-.024-.576-.1-2.9.936-.048,1.3-.072,1.632-.1,1.8-.168,2.88-.288,3.24-.336.552-.072,1.152-.144,1.56-.168l-.072-2.64a17.761,17.761,0,0,1-2.976.528c-2.208.24-2.208.24-3.408.312-.024-1.488-.024-1.776-.048-2.376,2.112-.12,3.048-.192,5.16-.48a15.012,15.012,0,0,1,1.9-.216l-.12-2.664a32.47,32.47,0,0,1-6.912.912,14.879,14.879,0,0,1,.168-2.928h-3.048a17.122,17.122,0,0,1,.12,3.024c-.6.024-1.416.048-1.8.048a31.558,31.558,0,0,1-6.456-.5l-.024,2.664h.384c.072,0,.264,0,.528.024,1.608.12,4.7.24,5.88.24.36,0,.744,0,1.512-.024.024,1.368.024,2.184.024,2.4-.672.024-1.488.048-1.968.048a30.947,30.947,0,0,1-5.592-.408l-.048,2.592c.36,0,.6,0,.912.024,1.992.144,2.88.168,4.344.168.5,0,1.248-.024,2.4-.048.024.96.024.96.048,1.3v.528a4.627,4.627,0,0,1,.024.576,12.539,12.539,0,0,0-1.608-.1c-4.032,0-6.408,1.536-6.408,4.152,0,2.376,2.016,3.744,5.52,3.744a6.39,6.39,0,0,0,3.96-1.032,3.744,3.744,0,0,0,1.344-3.24v-.264a10.68,10.68,0,0,1,1.3.6,16.194,16.194,0,0,1,4.44,3.288ZM179.448-4.392v.576a3.042,3.042,0,0,1-.288,1.536,2.492,2.492,0,0,1-2.088.768c-1.7,0-2.736-.552-2.736-1.44,0-1.032,1.176-1.656,3.12-1.656A8.423,8.423,0,0,1,179.448-4.392Z" transform="translate(107.5 3522.387)" fill="#371606"/>
    <path id="パス_6214" data-name="パス 6214" d="M20.256-12.608v1.792H18.624a12.818,12.818,0,0,1-2.112-.128V-8.1a12.817,12.817,0,0,1,2.016-.128h8.288c.992,0,1.632.032,2.4.1a20.277,20.277,0,0,1-.1-2.208v-2.272a7.35,7.35,0,0,1,1.888.16V-15.52a7.054,7.054,0,0,1-1.888.16v-2.176a22.225,22.225,0,0,1,.1-2.24c-.672.064-1.408.1-2.5.1H23.2v-1.7h4.128a24.5,24.5,0,0,1,3.36.16V-24.48a24.091,24.091,0,0,1-3.36.192h-4.1v-.192a16.053,16.053,0,0,1,.16-2.336H19.776a12.96,12.96,0,0,1,.16,2.336v.192H15.872a27.462,27.462,0,0,1-3.1-.128c.032.256.032.352.064.576l-2.5-.672A30.077,30.077,0,0,1,8.9-18.336v-5.408a19.517,19.517,0,0,1,.16-3.168H5.632a20.72,20.72,0,0,1,.16,3.2v7.584H4.064a14.875,14.875,0,0,1-2.624-.16v3.424a13.4,13.4,0,0,1,2.624-.16H5.376A22.4,22.4,0,0,1,.768-4.512,7.956,7.956,0,0,1,2.656-1.728a20.822,20.822,0,0,0,3.36-6.624c-.1,1.056-.128,2.368-.192,3.936v3.9a24.387,24.387,0,0,1-.192,3.3H9.056A22.623,22.623,0,0,1,8.9-.544v-5.28c0-1.088-.064-2.5-.16-3.584a18.739,18.739,0,0,0,1.952,3.04c.128-.256.192-.448.256-.544a5.479,5.479,0,0,1,.416-.864,6.8,6.8,0,0,1,.8-1.248,15.045,15.045,0,0,1-3.2-4h.832a14.046,14.046,0,0,1,2.24.128v-3.36a14.046,14.046,0,0,1-2.24.128H8.9V-18.08l2.24.8a35.906,35.906,0,0,0,1.7-6.272c.032.96.064,1.856.064,3.04,0,1.728-.1,5.568-.16,7.968a56.215,56.215,0,0,1-.64,6.272A17.343,17.343,0,0,1,9.856.256,11.675,11.675,0,0,1,12.576,2.3c1.92-3.68,2.72-7.552,3.1-14.912Zm-4.48-2.752c.064-1.664.1-2.816.1-6.016h4.384v1.7H19.072a13.678,13.678,0,0,1-2.176-.128v2.816a14.367,14.367,0,0,1,2.048-.128h1.312v1.76ZM26.24-12.608v1.792H23.2v-1.792Zm0-2.752H23.2v-1.76h3.04ZM1.376-23.872A34.231,34.231,0,0,1,3.04-17.216l2.528-.832a47.716,47.716,0,0,0-1.6-6.688ZM15.872.1a16.85,16.85,0,0,1-.16,2.688H19.04V1.408h7.008V2.752h3.424a24.041,24.041,0,0,1-.16-2.912V-4.64a15.952,15.952,0,0,1,.128-2.336,16.911,16.911,0,0,1-2.4.128h-8.8a18.1,18.1,0,0,1-2.5-.128,14.834,14.834,0,0,1,.128,2.24Zm3.168-4.16h7.008V-1.44H19.04ZM51.9-22.432c.032-.256.032-.512.064-.992a48.989,48.989,0,0,0,9.376-1.216L59.3-27.328a23.536,23.536,0,0,1-4.48,1.056c-1.248.16-4.192.384-5.248.384a6.694,6.694,0,0,1-.992-.064,7,7,0,0,1,.1,1.152c0,3.1-.544,5.024-1.856,6.688A11.533,11.533,0,0,1,48.352-16.8H44.288v-2.784h.832a16.144,16.144,0,0,1,2.272.128v-3.1a15.138,15.138,0,0,1-2.336.128H38.688a8.408,8.408,0,0,0,.032-.96A33.973,33.973,0,0,0,47.552-24.7L45.6-27.392a14.473,14.473,0,0,1-3.2.96,39.128,39.128,0,0,1-5.92.544c-.064,0-.32,0-.64-.032H35.3a12.5,12.5,0,0,1,.128,1.472c0,4.16-.7,6.368-2.56,8.256a16.5,16.5,0,0,1,2.656,2.72,9.676,9.676,0,0,0,1.536-2.272c.064,1.12.064,1.568.064,3.1v6.432a28.439,28.439,0,0,1-.16,3.776,33.5,33.5,0,0,1,3.456-.128h1.856c-2.432,1.344-4.1,1.76-8.96,2.272A12.767,12.767,0,0,1,35.04,2.944,27.357,27.357,0,0,0,45.5-.544L42.912-2.56H52.928L50.336-.672C53.92,1.408,56.1,2.144,60.96,2.976A12.26,12.26,0,0,1,62.592-.288,22.966,22.966,0,0,1,53.376-2.56h2.3a32.045,32.045,0,0,1,3.424.128,23.84,23.84,0,0,1-.16-3.648v-6.528a32.592,32.592,0,0,1,.16-4.32c-.544.064-.64.064-1.312.1v-2.752H59.9a14.092,14.092,0,0,1,2.432.16V-22.56a18.5,18.5,0,0,1-2.464.128Zm2.656,2.848V-16.8H50.336a11.5,11.5,0,0,0,1.12-2.784ZM40.32-16.8c-1.152,0-1.7,0-2.752-.064a10.54,10.54,0,0,0,.832-2.72h2.688V-16.8Zm.192,2.656h15.04v1.376H40.512Zm0,3.744h15.04v1.344H40.512Zm0,3.744h15.04V-5.28H40.512Zm24.8.992A8.451,8.451,0,0,0,67.1-2.08C68.928,0,71.488.96,75.232.96c3.424,0,6.112-.9,7.872-2.592A6.776,6.776,0,0,0,85.024-6.3a6.147,6.147,0,0,0-1.536-4.416c-1.12-1.248-2.3-1.792-4.576-2.144a7.9,7.9,0,0,0,3.1-1.248,5.834,5.834,0,0,0,2.208-4.7c0-4.16-3.456-6.848-8.8-6.848a10.39,10.39,0,0,0-6.272,1.76c-1.5,1.088-2.24,2.208-3.04,4.576l4.576.768a4.7,4.7,0,0,1,1.344-2.464,5.335,5.335,0,0,1,3.488-.992c2.72,0,4.224,1.248,4.224,3.456,0,2.464-1.888,3.936-5.088,3.936a21.938,21.938,0,0,1-3.1-.16v3.968a27.324,27.324,0,0,1,3.424-.16,8.29,8.29,0,0,1,3.68.768,3.728,3.728,0,0,1,1.792,3.36c0,2.528-2.016,4.16-5.184,4.16a6.043,6.043,0,0,1-3.872-1.248,4.157,4.157,0,0,1-1.5-2.624ZM98.144.9A9.083,9.083,0,0,0,105.92-2.88c1.5-2.08,2.368-5.536,2.368-9.472a21.52,21.52,0,0,0-1.248-7.424,8.965,8.965,0,0,0-2.112-3.232A9.3,9.3,0,0,0,98.176-25.6a9.1,9.1,0,0,0-8.16,4.448c-1.184,1.952-1.952,5.472-1.952,8.864a21.416,21.416,0,0,0,1.248,7.36A8.965,8.965,0,0,0,91.424-1.7,9.219,9.219,0,0,0,98.144.9Zm.032-3.712a4.688,4.688,0,0,1-4.1-2.08c-1.024-1.472-1.632-4.256-1.632-7.616,0-3.488.7-6.112,2.112-7.776a4.3,4.3,0,0,1,3.584-1.632,4.625,4.625,0,0,1,3.488,1.344c1.44,1.568,2.24,4.48,2.24,8.192,0,3.744-.8,6.72-2.24,8.224A4.65,4.65,0,0,1,98.176-2.816ZM113.664-.1,115.3,1.216l20.16-25.792-1.664-1.28ZM132.1.9a5.89,5.89,0,0,0,4.32-1.632,7.553,7.553,0,0,0,1.856-5.536,7.522,7.522,0,0,0-1.856-5.5,5.969,5.969,0,0,0-4.32-1.632,6.1,6.1,0,0,0-4.352,1.632,7.574,7.574,0,0,0-1.856,5.5,7.553,7.553,0,0,0,1.856,5.536A5.915,5.915,0,0,0,132.1.9Zm0-11.584a2.3,2.3,0,0,1,2.048.992,5.65,5.65,0,0,1,.864,3.2c0,3.1-.992,4.7-2.912,4.7-1.888,0-2.912-1.6-2.912-4.544a5.565,5.565,0,0,1,.864-3.328A2.228,2.228,0,0,1,132.1-10.688Zm-15.072-.576a5.89,5.89,0,0,0,4.32-1.632,7.553,7.553,0,0,0,1.856-5.536,7.522,7.522,0,0,0-1.856-5.5,5.969,5.969,0,0,0-4.32-1.632c-3.9,0-6.208,2.656-6.208,7.136a7.6,7.6,0,0,0,1.856,5.536A5.915,5.915,0,0,0,117.024-11.264Zm0-11.584a2.463,2.463,0,0,1,2.336,1.44,7.025,7.025,0,0,1,.576,2.976c0,2.88-1.056,4.48-2.912,4.48-1.888,0-2.912-1.6-2.912-4.544C114.112-21.28,115.168-22.848,117.024-22.848ZM157.888-11.52l.1,9.568v.576a20.373,20.373,0,0,1-.192,3.072h4.352c-.1-.9-.16-2.112-.192-3.68l-.16-14.848h3.3a32.9,32.9,0,0,1,3.68.128v-3.872a18.2,18.2,0,0,1-3.776.224H161.76l-.064-2.592v-.192a20.532,20.532,0,0,1,.128-2.72H157.6a23.069,23.069,0,0,1,.16,2.944l.032,2.56H146.72a18.6,18.6,0,0,1-4.032-.224v3.9a33.336,33.336,0,0,1,3.936-.16h8.768a30.444,30.444,0,0,1-4.288,5.28,34.056,34.056,0,0,1-10.08,6.944A9.271,9.271,0,0,1,143.68-1.28a46.353,46.353,0,0,0,4.736-2.944,44.055,44.055,0,0,0,6.3-5.568,19.385,19.385,0,0,0,3.264-4.48c-.032.512-.1,2.144-.1,2.3Zm39.776-12.128a11.7,11.7,0,0,1-3.424.32H179.552a22.54,22.54,0,0,1-4.1-.224v4.16a25.4,25.4,0,0,1,4.032-.192H194.72a22.172,22.172,0,0,1-9.7,13.952,26.036,26.036,0,0,1-7.008,3.264,11.776,11.776,0,0,1,2.816,3.808c5.344-2.3,8.768-4.64,11.9-8.16,3.072-3.456,4.96-7.3,6.56-13.408a4.812,4.812,0,0,1,.544-1.44Z" transform="translate(102.232 3566.534)" fill="#371606"/>
    <path id="パス_2470" data-name="パス 2470" d="M3034.682,2890.236s80.631.868,122.1,60.614" transform="translate(-3796.871 4569.767) rotate(-60)" fill="none" stroke="#009f3a" stroke-linecap="round" stroke-width="3"/>
    <path id="パス_6256" data-name="パス 6256" d="M9,9.87,1.212,2.06l-.726.726L8.3,10.64.486,18.45l.726.726L9,11.432l7.81,7.744.7-.726L9.7,10.64l7.81-7.854-.7-.726Zm.022-7.282A1.69,1.69,0,0,0,7.328,4.26,1.709,1.709,0,0,0,9.022,5.954a1.683,1.683,0,0,0,0-3.366ZM2.708,8.946a1.676,1.676,0,0,0-1.694,1.672,1.709,1.709,0,0,0,1.694,1.694,1.683,1.683,0,0,0,0-3.366Zm12.584.022a1.672,1.672,0,1,0,1.672,1.672A1.671,1.671,0,0,0,15.292,8.968ZM9,15.348l-.044.044c-.022,0-.022,0-.044-.022a.081.081,0,0,0-.066-.022A1.7,1.7,0,0,0,9,18.736a1.7,1.7,0,0,0,1.672-1.694A1.676,1.676,0,0,0,9,15.348Zm28.952-10.3,1.122-.44a14.712,14.712,0,0,0-1.958-3.476L35.51,1.73a14.329,14.329,0,0,1,1.716,3.036l.11.22.066.176a7.4,7.4,0,0,1-1.21.044l-4.884.022c.066-.77.066-.792.088-1.386l.066-1.188.022-.418c0-.154.022-.264.022-.4a6.142,6.142,0,0,1,.088-.7L28.646,1.07a4.5,4.5,0,0,1,.066.858v.55c0,.638-.044,1.936-.11,2.75l-3.85.022A13.153,13.153,0,0,1,22.31,5.1l.022,2.684a14.919,14.919,0,0,1,2.376-.11H28.36a12.049,12.049,0,0,1-6.952,10.054,8.968,8.968,0,0,1,1.98,2.31c4.818-3.036,7.172-6.842,7.7-12.386h5.126a49.636,49.636,0,0,1-.484,7.04c-.352,1.914-.682,2.4-1.628,2.4a10.7,10.7,0,0,1-2.9-.528,6.717,6.717,0,0,1,.506,2.816,14.87,14.87,0,0,0,2.728.264c2.64,0,3.41-.9,3.982-4.708.22-1.452.462-4.862.528-7.348a3.324,3.324,0,0,1,.242-1.452Zm3.872-1.584A12.838,12.838,0,0,0,39.888.124L38.326.74a15.759,15.759,0,0,1,1.892,3.41Zm1.738,8.624a24.152,24.152,0,0,1,3.586-.11H58.83a24.152,24.152,0,0,1,3.586.11V9.034a21.6,21.6,0,0,1-3.564.154H47.126a21.6,21.6,0,0,1-3.564-.154ZM77,6.482c0-.242,0-.242.022-1.694l.022-1.32a13.878,13.878,0,0,1,.11-2.112H74.12a13.848,13.848,0,0,1,.11,2.112v1.3c0,.4,0,.792-.022,1.716H68.664a15.9,15.9,0,0,1-2.86-.154V9.1a22.6,22.6,0,0,1,2.816-.11h5.456A9.511,9.511,0,0,1,73,13.412a10.156,10.156,0,0,1-5.3,4.334,6.834,6.834,0,0,1,2,2.376c2.86-1.562,4.4-2.926,5.61-4.928,1.012-1.694,1.386-3.146,1.584-6.2H81.4a22.6,22.6,0,0,1,2.816.11V6.328a15.758,15.758,0,0,1-2.86.154Zm13.882-2.53A58.035,58.035,0,0,1,102.9,6.482l.88-2.706A73.334,73.334,0,0,0,91.874,1.4ZM90.532,10a48.382,48.382,0,0,1,5.566.968,37.815,37.815,0,0,1,6.05,1.76l.858-2.706A69.133,69.133,0,0,0,91.544,7.472ZM88.75,16.184a61.208,61.208,0,0,1,6.908,1.276,40.361,40.361,0,0,1,7.788,2.464l.946-2.772a68.871,68.871,0,0,0-14.608-3.476ZM113.126,1.8a11.058,11.058,0,0,1,.088,2c0,6.16-.506,9-2.09,11.528a9.039,9.039,0,0,1-2.266,2.53,7.83,7.83,0,0,1,2.222,2.134,14.01,14.01,0,0,0,3.036-4.07c1.144-2.266,1.628-4.752,1.782-9.042a45.977,45.977,0,0,1,.22-4.928Zm5.83-.154a9.522,9.522,0,0,1,.088,1.452v.66l-.11,12.408a9.858,9.858,0,0,1-.2,2.332l1.408,1.5a9.574,9.574,0,0,1,.946-.4,14.53,14.53,0,0,0,4.686-2.64,13.653,13.653,0,0,0,3.5-5.126,9.221,9.221,0,0,1-2.068-2.068,10.75,10.75,0,0,1-2.156,4.026,8.845,8.845,0,0,1-3.366,2.508l.11-12.518a11.922,11.922,0,0,1,.154-2.09Zm28.886,1.892a3.9,3.9,0,0,1-1.606.22l-4.818.066c-.418,0-.77.022-1.056.044a5.189,5.189,0,0,0,.352-.7L141,2.588a4.442,4.442,0,0,1,.286-.616,4.5,4.5,0,0,1,.374-.682L138.646.7a8.211,8.211,0,0,1-1.122,2.9,16.924,16.924,0,0,1-5.7,6.38,5.845,5.845,0,0,1,2.134,1.892,21.533,21.533,0,0,0,5.148-5.632l6.622-.11a17.421,17.421,0,0,1-6.424,9.284,19.812,19.812,0,0,1-4.818,2.6,6.779,6.779,0,0,1,1.87,2.31,22.225,22.225,0,0,0,7.832-5.588A22.819,22.819,0,0,0,148.7,6.24a4.138,4.138,0,0,1,.55-1.32Zm9.922,5.874H160.8a10.517,10.517,0,0,1,2.112.132v-2.6a10.517,10.517,0,0,1-2.112.132h-3.036V3.4A14.664,14.664,0,0,1,157.9.938h-2.75a18.143,18.143,0,0,1,.132,2.464V17.548a13.967,13.967,0,0,1-2.42.418l.528,2.728a9.214,9.214,0,0,1,1.21-.418c.176-.044.176-.044.462-.132,1.606-.44,1.606-.44,2.332-.66,2.662-.836,3.784-1.232,5.5-1.892l-.022-2.332c-1.958.682-3.036,1.034-5.1,1.628Zm8.4,1.408a38.413,38.413,0,0,0,6.094-3.96c.462-.374.462-.374.792-.616l-1.716-2.024a17.369,17.369,0,0,1-5.17,4.026v-4.8A15.114,15.114,0,0,1,166.3.96h-2.706a16.989,16.989,0,0,1,.132,2.486V18.164c0,.99.22,1.518.814,1.826.572.308,1.3.4,3.366.4,2.618,0,3.564-.2,4.18-.88.638-.7.88-1.958,1.034-5.236a9.343,9.343,0,0,1-2.332-.968c-.022,2.728-.154,4-.462,4.422-.22.308-.748.4-2.288.4-1.584,0-1.87-.088-1.87-.572Z" transform="translate(115.514 3580.363)" fill="#371606"/>
  </g>
</svg>
