<svg id="deliciousness_tab_tap" xmlns="http://www.w3.org/2000/svg" width="128" height="87" viewBox="0 0 128 87">
  <path id="パス_2534" data-name="パス 2534" d="M2188.89,5501.388c7.453,0,12.321-1.253,19.45-3.447s17.245-6.148,26.518-19.5c3.95-5.69,4.981-8.16,5.068-15.515.07-5.75,1.46-8.878,0-15.757-.793-3.749-5.291-14.158-8.363-16.231-7.55-5.095-5-6.23-14.153-9.211-3.118-1.017-6.966-4.367-12-5.342a116.729,116.729,0,0,0-20.658-1.966c-15.479-.192-18.706.687-28.167,2.081a100.98,100.98,0,0,0-21.75,5.228,30.639,30.639,0,0,0-10.4,7.348,40.663,40.663,0,0,0-8.828,13.868c-4.416,12.575-3.6,15.568,0,25.477,2.5,6.908,5.762,9.562,13.767,15.191,5.183,3.645,14.2,5.624,19.976,6s16.059,2.7,23.442,1.632c6.221-.9,12.079.056,15.652,0C2203.435,5491,2190.575,5498.7,2188.89,5501.388Z" transform="translate(-2112.591 -5414.388)" fill="#009f3a"/>
  <g id="グループ_2596" data-name="グループ 2596" transform="translate(0.409 -1.388)">
    <path id="パス_6069" data-name="パス 6069" d="M-23.9-17.719h-3.672a1.447,1.447,0,0,1-.922-.187,1.447,1.447,0,0,1-.187-.922v-1.391a1.447,1.447,0,0,1,.188-.922,1.447,1.447,0,0,1,.922-.187h11.516a1.4,1.4,0,0,1,.922.2,1.412,1.412,0,0,1,.188.906v1.391a1.447,1.447,0,0,1-.187.922,1.447,1.447,0,0,1-.922.188h-3.687V-1.109a1.447,1.447,0,0,1-.187.922A1.447,1.447,0,0,1-20.848,0h-1.937a1.447,1.447,0,0,1-.922-.187,1.447,1.447,0,0,1-.187-.922ZM2.242-4.5H-6.477L-8.055-.8a1.892,1.892,0,0,1-.422.7,1.847,1.847,0,0,1-.8.1h-2.109a2.313,2.313,0,0,1-.75-.078.542.542,0,0,1-.344-.531,2.424,2.424,0,0,1,.219-.719l8.344-19.641q.063-.156.109-.266a.8.8,0,0,1,.32-.461,2.241,2.241,0,0,1,.789-.086h1.359a1.78,1.78,0,0,1,.813.109,1.921,1.921,0,0,1,.406.719L7.992-1.328a2.424,2.424,0,0,1,.219.719.5.5,0,0,1-.242.477A1.925,1.925,0,0,1,7.117,0H4.961a1.838,1.838,0,0,1-.82-.109,1.74,1.74,0,0,1-.4-.719ZM.945-7.875l-3-7.672L-5.148-7.875ZM18.38-7.906v6.813a1.412,1.412,0,0,1-.187.906A1.412,1.412,0,0,1,17.286,0H15.333a1.447,1.447,0,0,1-.922-.187,1.412,1.412,0,0,1-.187-.906V-20.219a1.447,1.447,0,0,1,.188-.922,1.447,1.447,0,0,1,.922-.187h5.109a12.456,12.456,0,0,1,3.352.367A5.791,5.791,0,0,1,26.067-19.7a6.531,6.531,0,0,1,2.188,5.141A6.709,6.709,0,0,1,26.52-9.8q-1.766,1.891-5.437,1.891Zm0-3.609h1.7q3.891,0,3.891-3.062A2.85,2.85,0,0,0,22.9-17.031a5.267,5.267,0,0,0-3.078-.687H18.38Z" transform="translate(56.989 52.832)" fill="#fff"/>
    <g id="グループ_2595" data-name="グループ 2595" transform="translate(-2486.891 -8208.681)">
      <path id="線_15" data-name="線 15" d="M8,7.5a1.493,1.493,0,0,1-.9-.3l-8-6A1.5,1.5,0,0,1-1.2-.9,1.5,1.5,0,0,1,.9-1.2l8,6A1.5,1.5,0,0,1,8,7.5Z" transform="translate(2582.5 8245.5)" fill="#fff"/>
      <path id="線_16" data-name="線 16" d="M0,7.5a1.5,1.5,0,0,1-1.2-.6A1.5,1.5,0,0,1-.9,4.8l8-6a1.5,1.5,0,0,1,2.1.3,1.5,1.5,0,0,1-.3,2.1l-8,6A1.493,1.493,0,0,1,0,7.5Z" transform="translate(2582.5 8251.5)" fill="#fff"/>
    </g>
  </g>
</svg>
