<svg id="earth_item_tap" xmlns="http://www.w3.org/2000/svg" width="100.648" height="100" viewBox="0 0 100.648 100">
  <g id="グループ_2483" data-name="グループ 2483" transform="translate(-650 -6745.681)">
    <path id="パス_2983" data-name="パス 2983" d="M100.648,49.97c0,1.767-1.182,3.412-1.361,5.131-.181,1.754,1.279,3.743.921,5.438a50.763,50.763,0,0,1-1.41,5.129A50.648,50.648,0,0,1,96.609,70.5c-.715,1.6-2.219,2.8-3.092,4.308a49.382,49.382,0,0,1-2.739,4.43,49.629,49.629,0,0,1-3.3,4.037,49.674,49.674,0,0,1-3.812,3.543c-1.3,1.168-2.1,2.952-3.513,3.982a52.215,52.215,0,0,1-4.18,3.311c-1.508.871-3.907.015-5.508.73s-2.834,2.205-4.506,2.747c-1.649.536-3.524.122-5.243.486-1.7.358-3.275,1.17-5.028,1.353a49.885,49.885,0,0,1-5.2.57,49.84,49.84,0,0,1-5.2-.52c-1.755-.183-3.675.591-5.371.233-1.721-.364-3.13-1.956-4.78-2.491-1.672-.543-3.486-.665-5.074-1.372S26.5,95,25,94.126s-2.291-2.945-3.7-3.97a50.935,50.935,0,0,1-4.361-2.918c-1.3-1.17-3.067-1.94-4.237-3.238a52.388,52.388,0,0,1-3.2-4.247c-1.025-1.41-1.09-3.467-1.967-4.982s-2.848-2.487-3.562-4.088-.12-3.711-.661-5.381c-.537-1.651-2.186-3.038-2.55-4.759-.358-1.694.358-3.608.177-5.362C.755,53.459,0,51.736,0,49.97s.947-3.471,1.126-5.19a49.347,49.347,0,0,1,.682-5.161,50.976,50.976,0,0,1,.879-5.184,49.586,49.586,0,0,1,1.919-4.9,51.745,51.745,0,0,1,1.961-4.931,51.379,51.379,0,0,1,2.909-4.439A52.21,52.21,0,0,1,12.662,15.9,51.985,51.985,0,0,1,16.6,12.318a51.327,51.327,0,0,1,4.178-3.257c1.41-1.025,3.576-.877,5.091-1.754s2.487-2.758,4.088-3.471A50.511,50.511,0,0,1,34.941,2.1a50.285,50.285,0,0,1,5.1-1.3A50.939,50.939,0,0,1,45.283.41,49.942,49.942,0,0,1,50.492,0c1.767,0,3.438.734,5.158.913,1.755.181,3.578-.364,5.274-.006A50.58,50.58,0,0,1,66.06,2.066a50.6,50.6,0,0,1,4.969,1.786,49.863,49.863,0,0,1,4.5,2.75,51.042,51.042,0,0,1,8.2,6.452,49.621,49.621,0,0,1,3.408,3.921A49.226,49.226,0,0,1,90.5,20.9c1.025,1.41,3.29,2.047,4.167,3.562a51.582,51.582,0,0,1,2.352,4.788c.709,1.588-.038,3.762.5,5.434.536,1.651,2.135,3.031,2.5,4.752.358,1.694,0,3.549.185,5.3a50.265,50.265,0,0,1,.442,5.226" transform="translate(650 6745.681)" fill="#009f39"/>
  </g>
  <g id="グループ_2594" data-name="グループ 2594" transform="translate(-99.04 -8135.508)">
    <path id="パス_6125" data-name="パス 6125" d="M-18.108-15.5h-3.213a1.267,1.267,0,0,1-.807-.164,1.267,1.267,0,0,1-.164-.807v-1.217a1.267,1.267,0,0,1,.164-.807,1.267,1.267,0,0,1,.807-.164h10.076a1.224,1.224,0,0,1,.807.178,1.236,1.236,0,0,1,.164.793v1.217a1.267,1.267,0,0,1-.164.807,1.267,1.267,0,0,1-.807.164h-3.227V-.971a1.267,1.267,0,0,1-.164.807A1.267,1.267,0,0,1-15.442,0h-1.7a1.267,1.267,0,0,1-.807-.164,1.267,1.267,0,0,1-.164-.807ZM1.962-3.937H-5.667L-7.048-.7a1.655,1.655,0,0,1-.369.608,1.616,1.616,0,0,1-.7.089H-9.96a2.024,2.024,0,0,1-.656-.068.474.474,0,0,1-.3-.465,2.121,2.121,0,0,1,.191-.629l7.3-17.186q.055-.137.1-.232a.7.7,0,0,1,.28-.4,1.961,1.961,0,0,1,.69-.075h1.189a1.558,1.558,0,0,1,.711.1,1.681,1.681,0,0,1,.355.629l7.1,17.172a2.121,2.121,0,0,1,.191.629.434.434,0,0,1-.212.417A1.684,1.684,0,0,1,6.228,0H4.341a1.608,1.608,0,0,1-.718-.1,1.522,1.522,0,0,1-.349-.629ZM.827-6.891-1.8-13.6-4.5-6.891Zm12.455-.027V-.957a1.236,1.236,0,0,1-.164.793A1.236,1.236,0,0,1,12.325,0H10.616A1.267,1.267,0,0,1,9.81-.164a1.236,1.236,0,0,1-.164-.793V-17.691A1.267,1.267,0,0,1,9.81-18.5a1.267,1.267,0,0,1,.807-.164h4.471a10.9,10.9,0,0,1,2.933.321,5.067,5.067,0,0,1,1.989,1.1,5.714,5.714,0,0,1,1.914,4.5,5.87,5.87,0,0,1-1.518,4.17,6.218,6.218,0,0,1-4.758,1.654Zm0-3.158h1.49q3.4,0,3.4-2.68a2.494,2.494,0,0,0-.943-2.146,4.609,4.609,0,0,0-2.693-.6H13.282Z" transform="translate(141.04 8195.508)" fill="#fff"/>
    <g id="グループ_2594-2" data-name="グループ 2594" transform="translate(-2411.96 -63.992)">
      <path id="線_15" data-name="線 15" d="M8,7.5a1.493,1.493,0,0,1-.9-.3l-8-6A1.5,1.5,0,0,1-1.2-.9,1.5,1.5,0,0,1,.9-1.2l8,6A1.5,1.5,0,0,1,8,7.5Z" transform="translate(2582.5 8245.5)" fill="#fff"/>
      <path id="線_16" data-name="線 16" d="M0,7.5a1.5,1.5,0,0,1-1.2-.6A1.5,1.5,0,0,1-.9,4.8l8-6a1.5,1.5,0,0,1,2.1.3,1.5,1.5,0,0,1-.3,2.1l-8,6A1.493,1.493,0,0,1,0,7.5Z" transform="translate(2582.5 8251.5)" fill="#fff"/>
    </g>
  </g>
</svg>
