<svg xmlns="http://www.w3.org/2000/svg" width="249.066" height="304.757" viewBox="0 0 249.066 304.757">
  <g id="earth_item_text2_mb" transform="translate(-407.311 -7991)">
    <g id="グループ_2593" data-name="グループ 2593" transform="translate(0.338 43)">
      <path id="パス_6218" data-name="パス 6218" d="M-85.25-5.9a14.016,14.016,0,0,1-4.62,4.4A5.179,5.179,0,0,1-88.528.374a12.016,12.016,0,0,0,3.894-4.268,14.117,14.117,0,0,0-.088,1.518V-.2a10.083,10.083,0,0,1-.132,2h2.464A10.648,10.648,0,0,1-82.5-.154V-2.376a3.887,3.887,0,0,0-.022-.418v-.352a8.131,8.131,0,0,0-.066-.814A10.111,10.111,0,0,0-80.85-1.5,11.173,11.173,0,0,0-78.782.352a6.829,6.829,0,0,1,1.452-2.09,12.622,12.622,0,0,1-4.444-3.784c-.154-.22-.154-.22-.264-.374h1.958a11.828,11.828,0,0,1,2,.11V-8.074a11.491,11.491,0,0,1-2.024.11h-2.4v-.55a7.58,7.58,0,0,1,.088-1.43h-2.4a8.159,8.159,0,0,1,.088,1.452v.528H-85.91a14.219,14.219,0,0,1-2.024-.088v2.244A13.211,13.211,0,0,1-86.02-5.9Zm-1.738-10.78v-.132a8.391,8.391,0,0,1,.11-1.672H-89.5a9.056,9.056,0,0,1,.11,1.694v.11h-5.148a19.473,19.473,0,0,1-2.53-.132v2.354a19.71,19.71,0,0,1,2.53-.132h3.454a17.032,17.032,0,0,1-6.732,3.256,6.617,6.617,0,0,1,1.166,2A17.96,17.96,0,0,0-89.32-13.64c0,.088,0,.088-.022.4a4.807,4.807,0,0,0-.022.616v2a8.693,8.693,0,0,1-.11,1.65H-86.9a8.017,8.017,0,0,1-.11-1.65v-2.046c0-.154-.022-.572-.022-.682a2.782,2.782,0,0,1-.022-.352,14.152,14.152,0,0,0,3.366,2.574A20.783,20.783,0,0,0-79.31-9.24a8.073,8.073,0,0,1,1.232-2.178,16.71,16.71,0,0,1-7.106-3.168h3.762a20.193,20.193,0,0,1,2.53.132v-2.354a19.239,19.239,0,0,1-2.53.132ZM-94.468-5.9a12.743,12.743,0,0,1-4.026,4.4A6.188,6.188,0,0,1-97.13.374a11.874,11.874,0,0,0,3.322-4.048c-.044.506-.088,1.188-.088,1.562V-.044a10.934,10.934,0,0,1-.11,1.848h2.4a14.352,14.352,0,0,1-.11-1.936V-2.42a14.223,14.223,0,0,0-.11-1.672,10.188,10.188,0,0,0,1.914,2.464,10.612,10.612,0,0,1,1.342-1.826A8.03,8.03,0,0,1-91.234-5.9h.66a13.855,13.855,0,0,1,1.892.088V-8.074a11.253,11.253,0,0,1-1.958.11h-1.078v-.528a8,8,0,0,1,.088-1.452h-2.354A8.317,8.317,0,0,1-93.9-8.492v.528h-1.958a12.1,12.1,0,0,1-2.046-.11v2.288a11.988,11.988,0,0,1,2-.11Zm33.814-8.536v-1.8a13.089,13.089,0,0,1,.132-2.222H-63.1a17.006,17.006,0,0,1,.132,2.222v1.8h-1.32a21.135,21.135,0,0,1-2.178-.11v2.42c.682-.066,1.386-.11,2.156-.11h.946a18.856,18.856,0,0,1-1.5,3.586A15.183,15.183,0,0,1-68.64-3.564a6.612,6.612,0,0,1,1.584,1.98,18.088,18.088,0,0,0,4.18-7.062c-.066.77-.132,1.914-.132,2.6V-.726a22.327,22.327,0,0,1-.154,2.53h2.618A16.749,16.749,0,0,1-60.7-.726v-5.72c0-.572-.066-1.43-.176-2.442a22.775,22.775,0,0,0,1.782,3.806,26.689,26.689,0,0,0,2.024,2.9A8.361,8.361,0,0,1-55.352-4.29a15.135,15.135,0,0,1-3.08-3.872,23.733,23.733,0,0,1-1.892-4.07h1.716a19.2,19.2,0,0,1,2.486.132v-2.464a18.924,18.924,0,0,1-2.552.132Zm-8.448,2.2c.748,0,1.408.044,2.09.11v-2.42a19.175,19.175,0,0,1-2.112.11h-.77V-16.39a14.29,14.29,0,0,1,.11-2.068h-2.552a13.608,13.608,0,0,1,.132,2.112v1.914h-1.1a16.923,16.923,0,0,1-2.442-.132V-12.1a17.743,17.743,0,0,1,2.4-.132h.88A18.56,18.56,0,0,1-76.45-5.148,8.363,8.363,0,0,1-75-2.97,13.025,13.025,0,0,0-73.48-5.28a17.935,17.935,0,0,0,1.452-3.476c-.088.7-.154,2.222-.154,2.97V-.88A20.241,20.241,0,0,1-72.336,1.8h2.574A21.679,21.679,0,0,1-69.894-.88V-6.446A30.317,30.317,0,0,0-70-9.482,14.043,14.043,0,0,0-68-5.9a5.371,5.371,0,0,1,1.54-1.76,9.064,9.064,0,0,1-1.8-2.068,14.6,14.6,0,0,1-1.474-2.508ZM-42.57-8.624H-46.2c-.99,0-1.694-.044-2.4-.11v2.442a19.933,19.933,0,0,1,2.4-.132h2.618a13.955,13.955,0,0,1-2.112,2.332,17.194,17.194,0,0,1-3.784,2.64,7.4,7.4,0,0,1,1.5,2.178,15.7,15.7,0,0,0,2.64-1.958,12.672,12.672,0,0,0,2.816-3.41c-.022,1.364-.044,2.156-.044,2.332V-.242A15.718,15.718,0,0,1-42.7,1.8h2.6A15.382,15.382,0,0,1-40.238-.22V-2.266c0-.594-.022-1.628-.066-2.354A12.8,12.8,0,0,0-37.664-1.5,22.446,22.446,0,0,0-34.87.594,12.559,12.559,0,0,1-33.4-1.76,15.171,15.171,0,0,1-36.916-4a14.554,14.554,0,0,1-2.354-2.42h2.948a22.591,22.591,0,0,1,2.332.132V-8.756a20.743,20.743,0,0,1-2.4.132h-3.85v-1.8h2.794c.286,0,.638,0,1.056.022a4.692,4.692,0,0,0,.484.022,4.821,4.821,0,0,1,.638.022,17.864,17.864,0,0,1-.088-2.068v-3.124a18.88,18.88,0,0,1,.088-2.134,18.022,18.022,0,0,1-2.42.11H-44.7a17.207,17.207,0,0,1-2.442-.11,17.855,17.855,0,0,1,.088,2v3.212a19.642,19.642,0,0,1-.088,2.134,20.551,20.551,0,0,1,2.244-.088h2.332Zm-2.178-6.8h7.04v2.838h-7.04ZM-51.92-.792a23.1,23.1,0,0,1-.132,2.574h2.53a23.972,23.972,0,0,1-.11-2.552V-12.848a23.106,23.106,0,0,0,1.694-4.092,6.059,6.059,0,0,1,.33-.99l-2.464-.792a15.374,15.374,0,0,1-.836,2.992A15.712,15.712,0,0,1-54.626-9.9,12.191,12.191,0,0,1-53.57-7.238,11.231,11.231,0,0,0-51.876-9.46c-.044,1.188-.044,1.694-.044,2.42Zm28.556-8.14v2.486H-26.6a18.384,18.384,0,0,1-2.442-.11v2.464A21.939,21.939,0,0,1-26.6-4.2h3.234v2.97H-28.82a22.353,22.353,0,0,1-2.816-.132V1.21a18.972,18.972,0,0,1,2.75-.154h13.728a19.3,19.3,0,0,1,2.772.154V-1.364a23.182,23.182,0,0,1-2.794.132H-20.9V-4.2h3.564a21.777,21.777,0,0,1,2.42.11V-6.556a20.644,20.644,0,0,1-2.42.11H-20.9V-8.932h3.1a21.453,21.453,0,0,1,2.332.11v-1.606c.99.572,1.628.924,2.618,1.386a10.4,10.4,0,0,1,1.408-2.53,19.935,19.935,0,0,1-5.39-2.794,16.052,16.052,0,0,1-3.916-3.894H-23.54a9.241,9.241,0,0,1-1.188,1.584,19.707,19.707,0,0,1-2.42,2.31,21.341,21.341,0,0,1-5.324,2.9A13.867,13.867,0,0,1-31.02-9.13a19.578,19.578,0,0,0,2.4-1.254v1.562a21.617,21.617,0,0,1,2.4-.11ZM-26.4-11.154c-.33,0-.528,0-.968-.022a17.661,17.661,0,0,0,5.3-4.994,19.726,19.726,0,0,0,5.412,4.994c-.418.022-.572.022-1.034.022ZM-5.192.528c-.022-.286-.022-.462-.022-.594A18.061,18.061,0,0,1-3.256-6.732l-1.76-.792A22.437,22.437,0,0,0-6.16-4.62c.022-.55.044-.726.044-1.21a36.732,36.732,0,0,1,.33-4.862A30.331,30.331,0,0,1-4.4-17.27l-2.9-.308a14.4,14.4,0,0,1-.33,2.046,42.235,42.235,0,0,0-.9,8.6A38.374,38.374,0,0,0-7.964-.352c.066.506.088.638.11,1.034ZM-2.156-12.65a26.116,26.116,0,0,0,3.96.242,39.407,39.407,0,0,0,4.708-.264c1.056-.132,1.386-.176,1.562-.2l-.132-2.662a24.26,24.26,0,0,1-5.984.594,15.863,15.863,0,0,1-4.07-.352ZM-.638-9.02A7.187,7.187,0,0,0-2.662-4.488,3.685,3.685,0,0,0-2-2.332C-1.034-1.034.726-.418,3.454-.418A27.13,27.13,0,0,0,8.008-.836a7.353,7.353,0,0,1,.9-.132L8.69-3.762a15.461,15.461,0,0,1-5.236.836c-2.288,0-3.5-.66-3.5-1.914A4.977,4.977,0,0,1,1.518-8.008Zm13.75-1.32a8.026,8.026,0,0,1,1.76-.616,31.349,31.349,0,0,1,8.668-1.562,5.733,5.733,0,0,1,2.838.594,3.222,3.222,0,0,1,1.672,2.86A4.851,4.851,0,0,1,27.808-7.5a6.1,6.1,0,0,1-3.322,3.256c-1.87.814-3.718,1.144-7.238,1.3A9.535,9.535,0,0,1,18.37-.11c4.026-.44,5.742-.836,7.744-1.826C29.238-3.454,31-5.984,31-8.976c0-3.74-2.838-6.182-7.194-6.182-2.552,0-3.74.176-8.756,1.254a15.726,15.726,0,0,1-2.574.44Zm26.6-7.9a22.475,22.475,0,0,1-.66,3.828c-.484.022-.858.022-1.122.022a15.275,15.275,0,0,1-2.97-.2v2.508l1.166.022c.462.022.594.022.88.022.264,0,.4,0,1.386-.022a33.845,33.845,0,0,1-2.068,5.192,20.025,20.025,0,0,1-2.134,3.52l2.53,1.408c.132-.264.132-.264.418-.792.836-1.54,1.034-1.936,1.54-3.014a42.228,42.228,0,0,0,2.42-6.38c1.364-.11,2.706-.264,3.5-.4a4.29,4.29,0,0,1,.7-.11l-.066-2.53a18.87,18.87,0,0,1-3.52.616c.242-.968.352-1.408.462-1.936a11.013,11.013,0,0,1,.352-1.474Zm14.08,5.72a34.729,34.729,0,0,0-6.2-2.948l-1.32,2.134a26.926,26.926,0,0,1,6.336,3.08ZM53.7-2.6a3.939,3.939,0,0,1-.33-.308A8.112,8.112,0,0,0,52.6-3.5a13.745,13.745,0,0,0-3.476-2.024,23.358,23.358,0,0,1-.2-3.014,7.333,7.333,0,0,1,.264-2.222L46.64-10.89a11.669,11.669,0,0,0-.176,2.222c0,.66.044,1.518.11,2.53a10.927,10.927,0,0,0-2.046-.2c-2.794,0-4.752,1.562-4.752,3.784,0,2.244,1.892,3.7,4.8,3.7A5.079,5.079,0,0,0,48.224-.088,3.516,3.516,0,0,0,49.17-2.42c0-.088-.022-.242-.044-.44A13.305,13.305,0,0,1,52.492-.132Zm-7.04-1.21s.044.528.044.748c0,1.232-.726,1.848-2.222,1.848-1.364,0-2.156-.528-2.156-1.43,0-.924.924-1.518,2.354-1.518A5.546,5.546,0,0,1,46.662-3.806ZM70.686-12.1A20.577,20.577,0,0,1,73.7-4.95L76.208-6.2a20.461,20.461,0,0,0-3.3-7Zm-6.468-4.84a5.119,5.119,0,0,1,.176-.682l-2.86-.286v.4a30.946,30.946,0,0,1-.572,4.444,45.185,45.185,0,0,1-4.686.462l.264,2.6a9.033,9.033,0,0,1,.9-.22l2-.33c.7-.132.7-.132,1.034-.176A32.359,32.359,0,0,1,56.056-.374l2.552,1.408A47.233,47.233,0,0,0,63.1-10.934c.506-.044.858-.066,1.32-.066,1.694,0,2.2.594,2.2,2.618a19.548,19.548,0,0,1-.572,5.016c-.33,1.078-.682,1.5-1.32,1.5a9.21,9.21,0,0,1-3.212-.88,8.263,8.263,0,0,1,.22,1.87c0,.22-.022.55-.044.968a10.2,10.2,0,0,0,3.388.66,2.786,2.786,0,0,0,2.442-.99c1.056-1.21,1.694-4.224,1.694-8.008,0-2-.286-3.058-1.034-3.894a4.262,4.262,0,0,0-3.256-1.166c-.4,0-.7.022-1.364.044.066-.286.066-.286.132-.66.22-1.188.374-2.09.484-2.728Zm5.1.154a14.848,14.848,0,0,1,2.31,3.278l1.54-.814a14.257,14.257,0,0,0-2.31-3.234Zm6.468,1.034a12.723,12.723,0,0,0-2.288-3.1l-1.474.77a16.209,16.209,0,0,1,2.244,3.19ZM85.668-9.13a8.635,8.635,0,0,0,.9-.572c.44-.286,2.024-1.474,2.42-1.8.748-.638,2.354-2.068,3.454-3.08a4.716,4.716,0,0,1,1.144-.9l-1.364-1.936a3.242,3.242,0,0,1-1.364.286c-2.134.154-4.818.264-6.688.264a19.9,19.9,0,0,1-2.6-.132l.11,2.64a7.421,7.421,0,0,1,1.056-.11c3.982-.176,5.39-.264,6.226-.374l.022.022-.4.4a73.46,73.46,0,0,1-6.578,5.72,19.786,19.786,0,0,1-3.1,2.068l1.5,2.376a13.555,13.555,0,0,1,9.064-3.7c2.662,0,4.356,1.122,4.356,2.838,0,1.562-.792,2.508-2.618,3.19A5.916,5.916,0,0,0,90.2-3.916a4.735,4.735,0,0,0-3.806-1.8c-2.2,0-3.784,1.32-3.784,3.146a3.14,3.14,0,0,0,1.32,2.53A7.443,7.443,0,0,0,88.2.968,10.885,10.885,0,0,0,93.522-.286a5.376,5.376,0,0,0,2.992-4.862c0-3.014-2.42-4.95-6.182-4.95a10.739,10.739,0,0,0-4.62,1.012ZM88.836-1.3a5.955,5.955,0,0,1-1.144.088c-1.628,0-2.618-.506-2.618-1.386,0-.616.506-1.012,1.3-1.012C87.6-3.608,88.44-2.816,88.836-1.3Z" transform="translate(538.162 8009)" fill="#371606"/>
      <g id="グループ_3243" data-name="グループ 3243" transform="translate(7 -26)">
        <g id="グループ_3217" data-name="グループ 3217">
          <path id="合体_61" data-name="合体 61" d="M1008.469-167.537a4.7,4.7,0,0,1-1.273-.113l-.692-.216a3.766,3.766,0,0,1-.947-.46l-.063-.041-.05-.056a4.9,4.9,0,0,0-.766-.69,3.375,3.375,0,0,1-.939-1.042l-.017-.028-.014-.031a7.677,7.677,0,0,0-.379-.738,4.178,4.178,0,0,1-.427-1.079l0-.015a1.97,1.97,0,0,0-.249-.59,2.17,2.17,0,0,1-.309-.874,1.619,1.619,0,0,1-.364-1.058,7.642,7.642,0,0,1-.376-1.539,11.515,11.515,0,0,0-.272-1.339,1.407,1.407,0,0,1-.477-.834,1.93,1.93,0,0,1,.086-1,1.189,1.189,0,0,1,.788-.788,2.454,2.454,0,0,1,.769-.139,2.272,2.272,0,0,1,.76.143,1.692,1.692,0,0,1,.9.979,6.579,6.579,0,0,1,.437,1.97,6.681,6.681,0,0,1,.134,1.16c0,.155.021.513.114,1.339a2.273,2.273,0,0,1,.186.917.628.628,0,0,0,.138.391l.069.092.03.111a5.225,5.225,0,0,0,.752,1.6,3.756,3.756,0,0,0,1.262,1.15,1.411,1.411,0,0,0,1.189.144,3.665,3.665,0,0,1,.749-.526,4.235,4.235,0,0,0,.573-.555l.015-.016a2.183,2.183,0,0,0,.415-.49,1.533,1.533,0,0,1,.519-.626,1.491,1.491,0,0,0,.251-.441c.164-.373.4-.831.69-1.361l.01-.017c.257-.428.5-.835.734-1.209a1.468,1.468,0,0,1,1.283-.787,1.536,1.536,0,0,1,.181.011,1.448,1.448,0,0,1,1.189.745,1.286,1.286,0,0,1,.11,1.134c-.073.176-.212.5-.412.956l-.023.051-.032.047c-.368.538-.661.976-.873,1.3s-.508.75-.855,1.228a11.593,11.593,0,0,1-1.179,1.382,8.313,8.313,0,0,1-1.458,1.157,4.75,4.75,0,0,1-1.795.687l-.046.007ZM991.38-168.71a1.872,1.872,0,0,1-.825-.62,1.536,1.536,0,0,1-.366-1.078,2.6,2.6,0,0,1,.057-.4,3.49,3.49,0,0,1-.953.178c-2.242.387-2.779.445-2.988.454a3.03,3.03,0,0,0-.77.144c-.324.1-.63.193-.91.266a2.2,2.2,0,0,1-1.073-.011,4.658,4.658,0,0,1-.776.253,6.111,6.111,0,0,1-.672.119c-.03,0-.06,0-.091,0a1.153,1.153,0,0,1-.878-.472c-.023-.028-.047-.057-.068-.086a1.742,1.742,0,0,1-.13.239,1.76,1.76,0,0,1-.937.737,1.763,1.763,0,0,1-1.361-.161l-.071-.035-.059-.053a10.458,10.458,0,0,1-1.05-1.01,4.14,4.14,0,0,1-.632-1.53,9.808,9.808,0,0,1-.3-2.773c.014-1.036.051-2.029.109-2.95l0-.036.006-.034c.115-.634.218-1.16.305-1.565a2.574,2.574,0,0,1,.418-1.066,1.583,1.583,0,0,1,1.106-.5,2.6,2.6,0,0,1,.3-.019,1.439,1.439,0,0,1,.947.3,1.378,1.378,0,0,1,.508.835,3,3,0,0,1-.238,1.319l-.02.05c-.177.4-.346.77-.5,1.09a7.076,7.076,0,0,1-.013,1.134c-.028.212-.07.5-.126.864-.03.524-.058.878-.09,1.082a1.4,1.4,0,0,0,.019.449,7.234,7.234,0,0,0,.338,1.078l.014.042a.825.825,0,0,0,.464.531,2.8,2.8,0,0,1,.624.409c0-.057.009-.113.015-.171a1.2,1.2,0,0,1,.928-1.046c.318-.115.625-.218.914-.3l1.485-.442c.346-.264.612-.455.812-.584.175-.112.449-.3.817-.573a3.414,3.414,0,0,1,.834-1.021,3.348,3.348,0,0,0,.645-.843,2.666,2.666,0,0,0,.226-.532.706.706,0,0,0-.171-.1.374.374,0,0,0-.14-.036.045.045,0,0,0-.024,0,1.41,1.41,0,0,1-1,.075,1.378,1.378,0,0,0-.362-.062.26.26,0,0,0-.083.009,1.541,1.541,0,0,1-.92.184,1.807,1.807,0,0,1-.889.214,2.724,2.724,0,0,0-.688.254,7.231,7.231,0,0,1-.617.668,1.827,1.827,0,0,1-1.008.406,2.375,2.375,0,0,1-.32.023,1.282,1.282,0,0,1-.823-.257,1.752,1.752,0,0,1-.535-.806,1.63,1.63,0,0,1,.056-1.206,2.228,2.228,0,0,1,1.087-1.048,8.948,8.948,0,0,1,2.208-.785,15.47,15.47,0,0,1,2.114-.378c.685-.073,1.248-.117,1.676-.131a3.722,3.722,0,0,1,1.511.278,3.817,3.817,0,0,1,1.3.842,2.372,2.372,0,0,1,.7,1.292,2.811,2.811,0,0,1-.156,1.417l-.017.048-.024.045c-.263.467-.559.955-.879,1.449-.245.38-.455.695-.625.941a6.365,6.365,0,0,1,.779-.063,1.523,1.523,0,0,1,.406.045,2.011,2.011,0,0,1,.978.635l.068.076.038.1a2.983,2.983,0,0,1,.153.478,6.633,6.633,0,0,1,.677-.595,1.836,1.836,0,0,0,.5-.537,3.272,3.272,0,0,1,.447-.71,3.021,3.021,0,0,1,.715-.587,1.969,1.969,0,0,1,.957-1,1.009,1.009,0,0,0,.228-.453l.04-.161.118-.118a2.184,2.184,0,0,0,.39-.483,1.478,1.478,0,0,1,.6-.608,1.092,1.092,0,0,0,.225-.38,2.207,2.207,0,0,1,.55-.922,3.247,3.247,0,0,1,.845-.657,3.507,3.507,0,0,1,.958-.338,1.393,1.393,0,0,1,.277-.028,1.362,1.362,0,0,1,1.042.5,1.738,1.738,0,0,1,.472,1.17,1.2,1.2,0,0,1-.411,1.018,2.493,2.493,0,0,0-.28.245,2.52,2.52,0,0,1-.678.442,29.892,29.892,0,0,1-2.037,2.4c-.8.857-1.475,1.638-2.005,2.322a5.919,5.919,0,0,0-.851,1.261l-.015.041a5.926,5.926,0,0,1-.527,1,2.259,2.259,0,0,1-.875.784,1.644,1.644,0,0,1-.733.187A1.261,1.261,0,0,1,991.38-168.71Zm-114.687-.051a2.96,2.96,0,0,1-.945-.193,3.257,3.257,0,0,1-1.111-.936,3.856,3.856,0,0,1-.632-.965,5.067,5.067,0,0,1-.343-1.121,9.2,9.2,0,0,1-.1-1.8,15.355,15.355,0,0,1,.113-1.792c.056-.393.113-.85.169-1.356l0-.032.007-.031c.515-2.318.965-4.2,1.338-5.59s.693-2.638.963-3.746.519-2.175.745-3.192a6.046,6.046,0,0,1,.284-1.125l.014-.035a2.88,2.88,0,0,0,.193-.535,1.193,1.193,0,0,1,.121-.825l.343-.688a8.035,8.035,0,0,1,.247-1.232c.068-.2.122-.381.162-.527a2.69,2.69,0,0,0,0-.683l-.011-.163.073-.146a4.751,4.751,0,0,0,.382-.922.627.627,0,0,1,.018-.066c-.875.08-1.459.139-1.742.175-.438.056-.947.128-1.513.212l-.043.005c-.081.006-.16.014-.236.023a1.339,1.339,0,0,1,.373.386,2.1,2.1,0,0,1,.326.868,1.369,1.369,0,0,1-.471,1.17,3.364,3.364,0,0,1-.763.6,1.4,1.4,0,0,1-.672.153,2.787,2.787,0,0,1-.6-.074,6.019,6.019,0,0,1-1.586-.673,2.77,2.77,0,0,1-.961-.5,1.8,1.8,0,0,1-.641-1.111,1.886,1.886,0,0,1,.111-1.156c.1-.219.228-.477.373-.767a1.52,1.52,0,0,1,1.112-.829,11.936,11.936,0,0,0,1.3-.556l.1-.051.113-.01c.3-.027.841-.1,1.611-.23.8-.131,1.828-.249,3.056-.35s2.416-.174,3.55-.216,2.776-.079,4.891-.108h5.36c1.156.046,1.953.068,2.37.068.12,0,.186,0,.221,0a5.6,5.6,0,0,1,1.008.053,4.071,4.071,0,0,1,.884-.086c.122,0,.252,0,.384.012l.032,0,.031.005a3.307,3.307,0,0,0,.835.037,1.651,1.651,0,0,1,1.337.517,1.518,1.518,0,0,1,.391,1.526,1.642,1.642,0,0,1-.944,1.147,2.247,2.247,0,0,1-1.14.2,4.75,4.75,0,0,1-.91-.2,7.955,7.955,0,0,0-.9-.22,9.41,9.41,0,0,0-1.211-.14c-.967-.058-1.607-.094-1.905-.107s-.848-.058-1.638-.131c-.532-.049-1.428-.074-2.666-.074-.5,0-1.063,0-1.675.013-1.714.022-3.337.086-4.837.192a1.89,1.89,0,0,1,.546,1.143,1.807,1.807,0,0,1-.261,1.363,6.522,6.522,0,0,0-.429.688,3.688,3.688,0,0,1-.535.99,4.344,4.344,0,0,1-.206.932c-.072.19-.161.411-.263.658a6.006,6.006,0,0,0-.234.684c-.077.276-.209.665-.4,1.187-.178.48-.4,1.219-.648,2.2-.166.645-.309,1.229-.427,1.743.994-.057,2.254-.136,3.759-.235,1.973-.131,3.153-.2,3.608-.216.43-.014,1.437-.093,2.994-.234.408-.039.771-.059,1.079-.059a3.585,3.585,0,0,1,1.07.127,1.378,1.378,0,0,1,.976,1.346,1.48,1.48,0,0,1-.53,1.346,2.234,2.234,0,0,1-.824.378,5.04,5.04,0,0,1-.709.1c-.086.006-.194.009-.334.009-.255,0-.62-.01-1.084-.03l-.093,0-.087-.031a1.263,1.263,0,0,0-.537-.1,4.5,4.5,0,0,1-1.2-.068,2,2,0,0,0-.293-.026.645.645,0,0,0-.141.013,1.033,1.033,0,0,1-.725.263,2.076,2.076,0,0,1-.617-.107,1.449,1.449,0,0,0-.226.081.947.947,0,0,1-.852-.021,1.8,1.8,0,0,0-.479.048,1.819,1.819,0,0,1-.766.1.786.786,0,0,0-.276.02,1.892,1.892,0,0,1-.738.049,1.316,1.316,0,0,0-.457.1,1.6,1.6,0,0,1-.886.18,4.184,4.184,0,0,0-.572.009,2.451,2.451,0,0,1-.882.31,5.558,5.558,0,0,1-.676.048,1.117,1.117,0,0,1-.328-.051c-.306,1.052-.577,2.088-.806,3.088a14.5,14.5,0,0,0-.415,3.195v.038l0,.037a2.112,2.112,0,0,0-.022.715,2.365,2.365,0,0,1,0,1.088,5.372,5.372,0,0,0,.346,1.016,4.739,4.739,0,0,0,.562.421,1.517,1.517,0,0,1,.691.892,3.906,3.906,0,0,1,.126.685,1.943,1.943,0,0,1-.308,1.067,1.314,1.314,0,0,1-1.177.764Zm193.415-.212a1.5,1.5,0,0,1-1.3-1.246,9.583,9.583,0,0,0-.222-1.07,2,2,0,0,1,.181-1.516,1.56,1.56,0,0,1,1.319-.777,22.522,22.522,0,0,0,.933-4.108,35.589,35.589,0,0,0,.3-3.569,16.018,16.018,0,0,1-1.61.412,9.037,9.037,0,0,1-1.763.174c-.268,0-.542-.012-.814-.036a4.76,4.76,0,0,1-2.576-1.051l-.034-.027-.031-.032a2.4,2.4,0,0,1-.828-1.662,7.216,7.216,0,0,1,.117-1.031,1.374,1.374,0,0,1,.825-1.012,2.379,2.379,0,0,1,.932-.683,1.636,1.636,0,0,1,.576-.572,1.621,1.621,0,0,1,.8-.487,1.36,1.36,0,0,1,.681-.541,9.164,9.164,0,0,0,.878-.562l-.006,0c-.407-.2-1.034-.549-1.918-1.078a8.556,8.556,0,0,1-.951-.631c-.154-.125-.294-.238-.419-.334a3.919,3.919,0,0,1-.378-.329,1.869,1.869,0,0,1-.406-.882,2.485,2.485,0,0,1,.04-1.921,3.251,3.251,0,0,1,.768-1.238,9.182,9.182,0,0,1,.8-.589,8.252,8.252,0,0,1,1.4-1.052c.559-.349,1.249-.819,2.051-1.4.82-.589,2.048-1.426,3.651-2.484l.009-.006a3.609,3.609,0,0,1,1.826-.695h.04l.04.005a1.589,1.589,0,0,1,1.345,1.08,1.541,1.541,0,0,1-.268,1.612,3.765,3.765,0,0,1-1,.793c-.311.169-.669.37-1.064.595l-.042.022a11.127,11.127,0,0,0-1.822.985c-.329.254-.817.6-1.493,1.054a21.041,21.041,0,0,0-1.713,1.274l-.009.007-1.1.879-.028.018a1.526,1.526,0,0,0-.278.218,2.8,2.8,0,0,0,.39.333l.734.5a2.1,2.1,0,0,1,.757.4.738.738,0,0,0,.284.066l.039.005a2.369,2.369,0,0,1,.651.227,1.515,1.515,0,0,1,.837.122,2.461,2.461,0,0,0,.568.04c.09,0,.189,0,.3-.005,1.839-1.07,3.028-1.755,3.532-2.036l.011-.005a16.065,16.065,0,0,1,1.607-.737,2.789,2.789,0,0,1,2.175.071l.183.078.1.171a2.575,2.575,0,0,1,.4,1,1.592,1.592,0,0,1-.219.9,1.316,1.316,0,0,1-.962.695,4.781,4.781,0,0,1-.623.07c-.529.263-.93.453-1.222.578-.243.1-.7.331-1.35.677a1.921,1.921,0,0,1-.317.776,2.331,2.331,0,0,1-.858.853,2.149,2.149,0,0,1-.976.194l-.155,0c-.313-.013-.655-.041-1.02-.085-.859.542-1.823,1.184-2.867,1.911a22.34,22.34,0,0,0-2.48,1.994,5.861,5.861,0,0,0,.953.094,6.147,6.147,0,0,0,1.133-.058,3.944,3.944,0,0,0,.663-.143,8.8,8.8,0,0,1,1.012-.264,4.617,4.617,0,0,1,1.15-.429,6.29,6.29,0,0,0,1.193-.452,12.938,12.938,0,0,0,1.9-1.085,4.672,4.672,0,0,1,.189-.889,1.3,1.3,0,0,1,.9-.8,1.787,1.787,0,0,1,.536-.076,3.581,3.581,0,0,1,.97.157,1.876,1.876,0,0,1,1.292,1.736,5.087,5.087,0,0,0,.848.923,8.945,8.945,0,0,1,.927.886,1.63,1.63,0,0,0,.33.3,2.081,2.081,0,0,1,.64.564,2.993,2.993,0,0,1,.378.806c.005-.021.01-.041.015-.06.227-.909.45-1.838.663-2.761a16.634,16.634,0,0,0,.391-2.707c-.026-.226-.058-.449-.1-.663a1.869,1.869,0,0,1,.149-1.1l.045-.1.079-.079a2.008,2.008,0,0,1,1.184-.579q.081-.011.162-.014a1.554,1.554,0,0,1-.528-.481,2.051,2.051,0,0,1-.216-2.087l.059-.143.122-.1a4.765,4.765,0,0,0,.761-.7,4.625,4.625,0,0,1,.618-.642c.193-.164.348-.289.473-.382a.73.73,0,0,0,.105-.208l.064-.17,1.135-.817a2.8,2.8,0,0,1,1.082-.87c.431-.3.793-.556,1.075-.772.306-.233.608-.454.9-.659s1.039-.741,2.254-1.617a2.7,2.7,0,0,1,1.427-.746,5.39,5.39,0,0,1,.725,0,4.359,4.359,0,0,1,.648.1,1.663,1.663,0,0,1,.8.462,2.175,2.175,0,0,1,.507.826,1.159,1.159,0,0,1-.27,1.247,2.758,2.758,0,0,1-.715.521,2.28,2.28,0,0,1-1.021.213,3.11,3.11,0,0,0-.751.112,13.438,13.438,0,0,1-1.681,1.173,14.578,14.578,0,0,0-2.27,1.733,17.636,17.636,0,0,1-1.483,1.3,2.655,2.655,0,0,0-.525.49c-.184.226-.39.468-.612.719-.168.251-.319.465-.447.637a3.3,3.3,0,0,1-.657.636l-.009.006a1.788,1.788,0,0,1-.857.356,1.81,1.81,0,0,1,.488.332,1.948,1.948,0,0,1,.6,1.4,5.154,5.154,0,0,1-.122,1.337,7.383,7.383,0,0,1-.4,1.217,3.062,3.062,0,0,0-.233.968l-.01.137-.068.119a2.823,2.823,0,0,0-.355,1.047,6.587,6.587,0,0,1-.147.8,56.032,56.032,0,0,0,5.452-2.723c-.229-.71-.469-1.4-.715-2.05a3.433,3.433,0,0,1-.631-1.154,3.246,3.246,0,0,1-.082-1.107,2.056,2.056,0,0,1,.4-1.113,1.5,1.5,0,0,1,1.054-.57,1.5,1.5,0,0,1,1.2.416,2.644,2.644,0,0,1,.608.807,1.672,1.672,0,0,1,.138,1,.5.5,0,0,0,.094.091l.077.06.054.081a1.263,1.263,0,0,1,.193,1,.491.491,0,0,0,.066.255c.118.249.2.437.264.57a1.014,1.014,0,0,1,.068.229c.3-.16.563-.311.78-.448.436-.276.99-.59,1.648-.934.242-.162.487-.332.728-.507a1.732,1.732,0,0,1,1.022-.355c.056,0,.112,0,.169.009a1.67,1.67,0,0,1,1.1.643,1.323,1.323,0,0,1,.242,1.411,2.19,2.19,0,0,1-.592.846,3.31,3.31,0,0,1-1.183.742,2.548,2.548,0,0,1-1.067.473,2.525,2.525,0,0,1-.808.523,2.841,2.841,0,0,0-.531.266,6.749,6.749,0,0,1-1.015.487,56.153,56.153,0,0,0,1.563,6.023,18.415,18.415,0,0,0,2.659,5.307c.294-.642.572-1.289.833-1.932a13.621,13.621,0,0,0,.679-1.943l.032-.152.1-.117a.621.621,0,0,0,.175-.389,1.9,1.9,0,0,1,.293-.967,2.331,2.331,0,0,0,.246-.608,7.524,7.524,0,0,0,.219-1.035l.011-.076.03-.071a1.605,1.605,0,0,1,1.5-1.143c.035,0,.07,0,.1,0a1.855,1.855,0,0,1,1.306.494,1.43,1.43,0,0,1,.325,1.217,2.831,2.831,0,0,1-.357,1.061,4.1,4.1,0,0,0-.334.767l-.01.027-.012.027c-.117.265-.229.5-.334.712s-.218.421-.337.631a5.284,5.284,0,0,0-.343.806c-.148.416-.314.824-.493,1.21l-.045.1-.075.076a1.506,1.506,0,0,0-.3.367,2.793,2.793,0,0,1-.211.9c-.113.3-.248.667-.4,1.1a5.73,5.73,0,0,1-.791,1.465,1.847,1.847,0,0,1-1.867.753l-.069-.011-.065-.027a3.456,3.456,0,0,1-1.454-1.116,14.832,14.832,0,0,1-.9-1.321,12.46,12.46,0,0,1-.721-1.4,63.965,63.965,0,0,1-3.449-9.416c-.043.028-.083.051-.121.071a1.625,1.625,0,0,1-.564.188,6.612,6.612,0,0,1-.894.553l-.031.015-.032.012a6.44,6.44,0,0,0-1.11.589c-.5.315-1.143.69-1.907,1.116a4.852,4.852,0,0,1-.961.609,2.4,2.4,0,0,1-.888.129,1.211,1.211,0,0,1-.546-.13c-.043.157-.081.312-.113.467-.1.47-.167.868-.208,1.181-.045.345-.105.694-.18,1.039a4.834,4.834,0,0,0-.094,1.011v.043l-.006.042a8.623,8.623,0,0,1-.261,1.329.327.327,0,0,0-.027.164,1.672,1.672,0,0,1,.081.763q.017.3.033.607a3.757,3.757,0,0,0,.509-.429c.441-.44.894-.9,1.347-1.368a19,19,0,0,0,1.374-1.6c.461-.6.822-1.068,1.076-1.406a2.255,2.255,0,0,1,.839-.882,1.919,1.919,0,0,1,1.031-.328,1.635,1.635,0,0,1,.31.031,1.53,1.53,0,0,1,1,.612,1.252,1.252,0,0,1,.162,1.133,5.765,5.765,0,0,1-.312.744l-.061.122-.107.084a5.44,5.44,0,0,0-.77.773,15.345,15.345,0,0,1-1.208,1.253l-.015.014a2.4,2.4,0,0,0-.411.439,6.378,6.378,0,0,1-.762.865,6.4,6.4,0,0,0-.767.923,4.125,4.125,0,0,1-1.021,1.039,3.318,3.318,0,0,1-.87.7,11.4,11.4,0,0,1-1.068.478,2.289,2.289,0,0,1-1.735,0,2.047,2.047,0,0,1-1.214-1.427l0-.006a8.347,8.347,0,0,1-.233-2.916l.043-.518a6.427,6.427,0,0,1-1.3-.791,2.657,2.657,0,0,1-1.048-.68,6.331,6.331,0,0,0-.629-.242,1.6,1.6,0,0,1-.812-.613,2.375,2.375,0,0,1-.67-.373,2.428,2.428,0,0,1-.913-.673,2.6,2.6,0,0,1-.472-.894,1.253,1.253,0,0,1,.246-1.2,2.051,2.051,0,0,1,.76-.572,1.59,1.59,0,0,1,1.026-.074l.139.035.109.094c.641.557,1.254,1.043,1.822,1.445a11.8,11.8,0,0,0,1.49.92c.246.122.464.223.653.3.106-.584.22-1.177.338-1.772l0-.007q.119-.566.247-1.129a1.787,1.787,0,0,1-.8.283,2.706,2.706,0,0,1-.886-.1c-.442-.116-.833-.511-1.26-1.277-.65-.695-1.191-1.316-1.616-1.854a2.684,2.684,0,0,1-.595.288.335.335,0,0,0-.167.093,1.441,1.441,0,0,1-.789.591,2.82,2.82,0,0,1-.686.13,2.441,2.441,0,0,1-.458.321.979.979,0,0,1-.112.583,2.751,2.751,0,0,0-.076.583,3.965,3.965,0,0,1-.213,1.13,3.614,3.614,0,0,0,.031.582,2.581,2.581,0,0,1,.032.677,1.766,1.766,0,0,1-.228.708,1.143,1.143,0,0,1-.013.86,3.41,3.41,0,0,0-.137.378,1.672,1.672,0,0,1-.066,1.051,1.136,1.136,0,0,0-.1.51,1.575,1.575,0,0,1-.291,1.051,1.386,1.386,0,0,1-.187.666,1.927,1.927,0,0,1-.107.941,1.5,1.5,0,0,1-.13.677,5.826,5.826,0,0,0-.238.966,2.836,2.836,0,0,1-.84,1.75,1.535,1.535,0,0,1-.976.322A2.479,2.479,0,0,1,1070.108-168.973Zm-47.17-.346-.071-.035-.059-.053a6.784,6.784,0,0,1-1.061-1.074,5.25,5.25,0,0,1-.578-1.508,9.378,9.378,0,0,1-.281-2.782c.029-1.039.087-2.035.175-2.961l.007-.051c.115-.634.218-1.16.3-1.565a2.306,2.306,0,0,1,.439-1.067,1.638,1.638,0,0,1,1.085-.455,1.588,1.588,0,0,1,1.251.285,1.375,1.375,0,0,1,.508.835,2.982,2.982,0,0,1-.238,1.319l-.009.026-.011.024c-.179.41-.362.783-.544,1.109a7.073,7.073,0,0,1-.013,1.115c-.028.212-.071.5-.126.864a7.491,7.491,0,0,1-.121,1.125,1.05,1.05,0,0,0,.006.406,7.223,7.223,0,0,0,.337,1.078l.013.042a.829.829,0,0,0,.465.531,2.826,2.826,0,0,1,.624.409c0-.057.009-.113.015-.171a1.136,1.136,0,0,1,.949-1.011c.31-.112.609-.212.893-.3s.769-.229,1.485-.442a8.175,8.175,0,0,1,.839-.579c.17-.1.452-.28.838-.544a3.388,3.388,0,0,1,.83-1.012,3.369,3.369,0,0,0,.645-.843,2.858,2.858,0,0,0,.236-.553.651.651,0,0,0-.138-.074.381.381,0,0,0-.14-.036.047.047,0,0,0-.024,0,1.419,1.419,0,0,1-1,.075,1.361,1.361,0,0,0-.367-.063.277.277,0,0,0-.11.015,1.429,1.429,0,0,1-.928.147,1.911,1.911,0,0,1-.892.2,2.727,2.727,0,0,0-.688.254,7.2,7.2,0,0,1-.617.667,1.721,1.721,0,0,1-1.035.388c-.08.008-.159.012-.233.012a1.379,1.379,0,0,1-.883-.269,1.76,1.76,0,0,1-.536-.806,1.593,1.593,0,0,1,.088-1.229,2.371,2.371,0,0,1,1.1-1.025l.024-.012a10.3,10.3,0,0,1,2.183-.73,13.608,13.608,0,0,1,2.128-.358c.679-.058,1.239-.095,1.663-.109a3.537,3.537,0,0,1,1.526.307,4.124,4.124,0,0,1,1.282.857,2.25,2.25,0,0,1,.687,1.317,3.026,3.026,0,0,1-.181,1.393l-.017.049-.025.044c-.264.469-.561.952-.883,1.435-.256.383-.472.694-.654.941a6.876,6.876,0,0,1,.738-.05,1.626,1.626,0,0,1,.436.047,2.01,2.01,0,0,1,.979.634l.068.077.038.094c.022.055.054.136.086.234a1.291,1.291,0,0,1,.629-.356c.284-.071.672-.165,1.152-.278.314-.092.625-.179.929-.26a7.441,7.441,0,0,1,.08-2.176c.13-.546.34-1.374.626-2.461.287-1.149.528-2.04.716-2.649.18-.582.328-1.075.44-1.465a15.324,15.324,0,0,1,.572-1.852,1.967,1.967,0,0,1,1.223-1.345,2.462,2.462,0,0,1,1.587-.075,1.809,1.809,0,0,1,1.128.875,1.454,1.454,0,0,1-.13,1.521,2.14,2.14,0,0,1-1.156.924.406.406,0,0,0-.064.044,1.832,1.832,0,0,1-.2.87,5.137,5.137,0,0,1-.481.681,6.355,6.355,0,0,0-.134.922,2.145,2.145,0,0,1-.148.774c-.06.157-.128.373-.2.643a3.362,3.362,0,0,1-.425,1.3,2.564,2.564,0,0,1-.169,1.138.341.341,0,0,0,.009.151,2.6,2.6,0,0,1-.021,1,2.012,2.012,0,0,0-.037.607.569.569,0,0,0,.143.222c.459-.043.922-.078,1.378-.1.436-.023.932-.056,1.482-.1a27.43,27.43,0,0,0,.841-3.182c.242-1.2.448-2.442.614-3.7a5.285,5.285,0,0,1-.372-1.038c-.156-.625.15-1.2.912-1.711.246-1.613.309-2.192.317-2.392a4.058,4.058,0,0,1,.2-1.109c.086-.258.179-.572.277-.934a1.642,1.642,0,0,1,.164-.97,1.56,1.56,0,0,0,.157-.477,3.622,3.622,0,0,1,.279-.931,2.1,2.1,0,0,1,.866-.987l.021-.013a1.693,1.693,0,0,1,.736-.212c-.329-.009-.768,0-1.3.028a18.975,18.975,0,0,0-2.727.376,33.09,33.09,0,0,0-3.413.905,3.524,3.524,0,0,1-1.4.2,1.239,1.239,0,0,1-1.147-1.206,1.99,1.99,0,0,1,.539-1.645l.075-.082.1-.049a5.2,5.2,0,0,1,1.508-.528c.389-.06,1.055-.132,2.036-.22.947-.085,1.857-.185,2.7-.3.871-.116,1.725-.2,2.54-.241.49-.026,1.1-.04,1.8-.04.467,0,.989.006,1.552.018,1.412.029,2.416.07,3.066.129a3.562,3.562,0,0,1,1.265.191,1.9,1.9,0,0,1,1,1.293l.023.072.005.075a8.493,8.493,0,0,1,.022,1.045,1.511,1.511,0,0,1-.755,1.148,3.944,3.944,0,0,1-1.068.53,1.283,1.283,0,0,1-.364.055,1.229,1.229,0,0,1-1.031-.587,2.8,2.8,0,0,1-.411-.9,6.627,6.627,0,0,0-1.246-.26c-.408-.03-.813-.067-1.205-.11a2.7,2.7,0,0,0-.292-.018.9.9,0,0,0-.322.043,2.016,2.016,0,0,1-.757.129,3.789,3.789,0,0,1-.415-.025l-.085-.009a1.7,1.7,0,0,1,.445.134,1.418,1.418,0,0,1,.865,1.2,1.594,1.594,0,0,1-.333,1.213,1.715,1.715,0,0,0-.285.5,2.519,2.519,0,0,1-.424.722,8.606,8.606,0,0,0-.247,1.239,5.722,5.722,0,0,1-.237,1.168,9.035,9.035,0,0,0-.2.937c-.006.04-.012.077-.017.114.976-.106,1.688-.2,2.121-.29a2.805,2.805,0,0,1,1.216-.218,4.56,4.56,0,0,0,.931-.057,5.012,5.012,0,0,1,1.174-.052,2.128,2.128,0,0,1,.951.065,1.163,1.163,0,0,0,.141.006c.049,0,.1,0,.166,0l.08,0a1.258,1.258,0,0,1,1.1.606,1.914,1.914,0,0,1,.306,1.027,1.367,1.367,0,0,1-.547,1.092,3.861,3.861,0,0,1-.841.509l-.021.009a1.56,1.56,0,0,1-1.308-.042,1.727,1.727,0,0,0-.543-.163,3.134,3.134,0,0,1-.938.1,5.412,5.412,0,0,0-1.075.1,10.358,10.358,0,0,0-1.068.22,4.974,4.974,0,0,1-.9.172,2.816,2.816,0,0,0-.69.159,4.684,4.684,0,0,1-.786.206c-.2.715-.329,1.272-.4,1.659-.087.476-.232,1.2-.433,2.164a19.137,19.137,0,0,0-.339,2.348,1.63,1.63,0,0,1,.708.431,3.272,3.272,0,0,1,.35.453c.858.057,2.1.136,3.694.237,1.822.114,3.358.246,4.567.39h.008a2.5,2.5,0,0,1,1.238.445,4.151,4.151,0,0,1,.785.877,1.263,1.263,0,0,1,.272.965,1,1,0,0,1-.45.654c-.272.182-.513.329-.715.437a1.105,1.105,0,0,1-.53.122,3.1,3.1,0,0,1-1.005-.219c-.65-.113-1.083-.2-1.322-.258a1.355,1.355,0,0,0-.309-.05h-.017c-.029,0-.058,0-.086,0a1.012,1.012,0,0,1-.743-.385c-.384-.026-.729-.057-1.028-.093l-1.956-.237c-.9-.109-2.17-.179-3.778-.209a4.335,4.335,0,0,1-1.4.315,1.618,1.618,0,0,1-.3-.026,9.86,9.86,0,0,1-.985-.247,11.5,11.5,0,0,0-1.521.079c-.39.058-.821.116-1.281.174-.438.055-.78.11-1.019.162l-.052.01c-.655.086-1.1.143-1.336.172a3.5,3.5,0,0,0-.807.278,1.8,1.8,0,0,1-1.459.629,1.923,1.923,0,0,1-1.589-.724,2.075,2.075,0,0,1-.346-.627,1.694,1.694,0,0,1-.455.309,3.132,3.132,0,0,1-1.065.223c-2.242.347-2.776.4-2.983.411a3.692,3.692,0,0,0-.795.13c-.318.086-.625.167-.914.239a2.306,2.306,0,0,1-1.087-.013,4.743,4.743,0,0,1-.776.253,6.109,6.109,0,0,1-.672.119c-.029,0-.059,0-.088,0a1.088,1.088,0,0,1-.889-.532l-.037-.054a1.718,1.718,0,0,1-.145.244,1.866,1.866,0,0,1-.945.717,1.451,1.451,0,0,1-.46.073A2.022,2.022,0,0,1,1022.938-169.319Zm-115.223-.43-.026.007a1.806,1.806,0,0,1-.616.094,3.6,3.6,0,0,1-.536-.045,6.078,6.078,0,0,1-1.048-.253,4.025,4.025,0,0,1-1.77-.544,3.9,3.9,0,0,1-1.49-1.351,4.63,4.63,0,0,1-.608-1.521,4.377,4.377,0,0,1-.232-1.242,6.723,6.723,0,0,1,.048-.826,1.649,1.649,0,0,1,.493-.973,1.432,1.432,0,0,1,1.026-.455,3.9,3.9,0,0,1,.762.077,1.5,1.5,0,0,1,.88.526,1.426,1.426,0,0,1,.258,1.222l0,.01a3.885,3.885,0,0,0-.075.763,2.507,2.507,0,0,0,.086.678,1.2,1.2,0,0,0,.425.512c.338.272,1.142.595,3.057.595a19.982,19.982,0,0,0,4.021-.33,14.734,14.734,0,0,0,3.076-1.033,9.325,9.325,0,0,0,2.334-1.441,3.377,3.377,0,0,0,.989-1.541,2.1,2.1,0,0,0,0-1.3,6.948,6.948,0,0,0-.562-1.126c-.272-.221-.539-.455-.8-.7-.284-.27-.536-.529-.748-.771l-.017-.021a1.9,1.9,0,0,0-.29-.311,1.925,1.925,0,0,1-.534-.3.089.089,0,0,0-.061-.023,1.052,1.052,0,0,1-.878-.471,1.372,1.372,0,0,0-.343-.3c-.144-.1-.511-.329-1.442-.862a1.478,1.478,0,0,1-.863-.562.77.77,0,0,0-.2-.083c-.658-.022-.916-.277-1.006-.54l-.031-.016a.945.945,0,0,0-.323-.111,1.075,1.075,0,0,1-.711-.384,1.255,1.255,0,0,1-.749-.35,7.128,7.128,0,0,1-.838-.458,2.512,2.512,0,0,1-1.028-.591,8.4,8.4,0,0,1-2.647-1.588,5.961,5.961,0,0,1-1.766-2.767,3.929,3.929,0,0,1,.473-3.35,12.022,12.022,0,0,1,2.577-2.939,17.264,17.264,0,0,1,3.317-2.137,16.276,16.276,0,0,1,3.57-1.292,17.915,17.915,0,0,1,2.458-.444c.234-.015.476-.023.721-.023s.484.007.732.021a14.926,14.926,0,0,1,2.4.18l.031.006a10.761,10.761,0,0,1,1.718.486c.32.138.871.419,1.683.862a8.162,8.162,0,0,1,2.156,1.671l.021.023.018.025c.776,1.058,1.057,1.731.939,2.249-.068.3-.124.581-.165.825a1.5,1.5,0,0,1-.492.9,1.912,1.912,0,0,1-1.427,1.1c-.046,0-.092.005-.137.005a1.756,1.756,0,0,1-1.322-.63,1.67,1.67,0,0,1-.491-1.456l.019-.1.051-.089c.114-.2.23-.4.345-.583a.893.893,0,0,0-.025-.324,7.423,7.423,0,0,0-1.468-1.238,7.987,7.987,0,0,0-1.2-.559,11.939,11.939,0,0,0-1.391-.388,6.078,6.078,0,0,0-1.178-.179,4.726,4.726,0,0,1-1.033-.032,1.969,1.969,0,0,1-1.008-.044,1.366,1.366,0,0,0-.356.069,1.683,1.683,0,0,1-.947.286.634.634,0,0,0-.2.032,2.224,2.224,0,0,1-1.11.521,1.553,1.553,0,0,1-.574.1,1.934,1.934,0,0,1-.85.5,1.862,1.862,0,0,0-.469.207,1.87,1.87,0,0,1-.6.348c-.013,0-.045.016-.086.08a1.205,1.205,0,0,1-.8.513,1.556,1.556,0,0,1-.9.534c-.278.3-.471.519-.574.644a2.088,2.088,0,0,1-.689.544.224.224,0,0,0-.05.032,2.447,2.447,0,0,1-.5.921,1.437,1.437,0,0,0-.283.547l-.047.838c.006.048.018.122.04.237.013.068.086.263.469.563l.009.008a22.256,22.256,0,0,0,3.975,2.594c1.465.747,2.966,1.578,4.46,2.469.774.458,1.576.954,2.38,1.471a23.086,23.086,0,0,1,2.294,1.677,8.114,8.114,0,0,1,1.879,2.294,4.606,4.606,0,0,1,.541,3.077,5.215,5.215,0,0,1-.711,2.171,4.76,4.76,0,0,0-.476.758,1.5,1.5,0,0,1-.875.781,1.992,1.992,0,0,0-.421.387,2.64,2.64,0,0,1-.8.67,3.053,3.053,0,0,1-.939.346.727.727,0,0,0-.31.113c-.135.109-.258.212-.366.306a1.019,1.019,0,0,1-.692.23c-.041,0-.085,0-.129-.005a1.247,1.247,0,0,1-.911.293c-.768.245-1.4.426-1.878.538l-.028.007-.029,0c-1.049.141-2.1.3-3.119.47l-.064.011-.065,0a12.389,12.389,0,0,0-1.258-.008,1.217,1.217,0,0,1-.54.136A1,1,0,0,1,907.716-169.749Zm28.452-1.1a7.242,7.242,0,0,0-.793-.04,2.487,2.487,0,0,1-1.207-.351,1.562,1.562,0,0,1-.961-.427,1.168,1.168,0,0,1-.932-.539,1.578,1.578,0,0,1-.782-.383,3.687,3.687,0,0,1-.518-.691c-.157-.257-.424-.689-.794-1.286a6.6,6.6,0,0,1-.812-2.785,3.535,3.535,0,0,1-.137-.883,3.3,3.3,0,0,1,.1-.79,2.739,2.739,0,0,0,.068-.622,2.159,2.159,0,0,1,.114-1.384c.1-.2.2-.41.3-.634a3.868,3.868,0,0,0,.185-.567,1.687,1.687,0,0,1,.436-1.392,4.039,4.039,0,0,1,.466-1.268l.028-.049.038-.043a.539.539,0,0,0,.055-.075,1.039,1.039,0,0,1,.211-.9v0a1,1,0,0,1,.5-.907,1.548,1.548,0,0,1,.189-.595,1.973,1.973,0,0,1,.431-.951,1.167,1.167,0,0,1,.719-1.084.8.8,0,0,0,.106-.226l.027-.083.05-.072a1.232,1.232,0,0,0,.24-.487,1.722,1.722,0,0,1,.391-.885,6.834,6.834,0,0,0,.508-.747l.02-.03c.409-.584.838-1.147,1.276-1.673a23.018,23.018,0,0,1,1.722-1.811c.7-.67,1.394-1.275,2.065-1.8a10.668,10.668,0,0,1,2.1-1.343,16.214,16.214,0,0,1,1.875-.692l.01,0a4.688,4.688,0,0,1,1.282-.2,4.884,4.884,0,0,1,.687.049l.045.009a8.365,8.365,0,0,1,1.344.4,3.624,3.624,0,0,1,.953.577,2.3,2.3,0,0,1,.853.653,1.013,1.013,0,0,0,.3.283,1.39,1.39,0,0,1,.667.939,3.668,3.668,0,0,1,.68,1.451,6.873,6.873,0,0,1,.143,1.837,5.858,5.858,0,0,1-.293,1.7,1.692,1.692,0,0,1-1.372,1.114,1.75,1.75,0,0,1-1.3-.161,1.607,1.607,0,0,1-.859-.994,1.535,1.535,0,0,1,.113-1.152,6.753,6.753,0,0,0,.38-1.014,1.522,1.522,0,0,0-.1-.992,2.913,2.913,0,0,0-.9-1.041l-.03-.023-.026-.026a1.543,1.543,0,0,0-1.29-.428,4.237,4.237,0,0,0-1.789.566,17.229,17.229,0,0,0-1.8,1.2,20.994,20.994,0,0,0-4.465,4.84l-.031.043a7.263,7.263,0,0,0-.833,1.241,7.557,7.557,0,0,1-.588,1.022c-.751,1.39-1.228,2.33-1.418,2.793s-.464,1.219-.8,2.219a16.129,16.129,0,0,0-.7,3.441,7.61,7.61,0,0,0,.08,2.22,3.881,3.881,0,0,0,.586,1.07c.383.353.9.785,1.534,1.284a4.631,4.631,0,0,0,2.846.645,12.17,12.17,0,0,0,4.034-.716,25.871,25.871,0,0,0,3.905-1.805c.765-.425,1.435-.817,2-1.168a15.1,15.1,0,0,0,1.32-.907c.357-.283.669-.51.927-.678a9.7,9.7,0,0,0,1.025-.827c.478-.421.969-.878,1.462-1.355.6-.585.834-.835.923-.942a2.914,2.914,0,0,1,.851-.652,2.018,2.018,0,0,1,1.235-.291,1.27,1.27,0,0,1,1.117.931,3,3,0,0,1,.133,1.182,1.58,1.58,0,0,1-.533,1.112c-.2.166-.462.375-.815.64-.415.331-.692.561-.825.68-.1.09-.35.3-1.368,1.083l-.006,0a6.682,6.682,0,0,1-.994.636,1.708,1.708,0,0,0-.495.365,2.19,2.19,0,0,1-.884.588.869.869,0,0,0-.313.159,2.4,2.4,0,0,1-.717.458,5.629,5.629,0,0,0-.754.47,2.264,2.264,0,0,1-.95.417,22.312,22.312,0,0,1-3.054,1.7,24.068,24.068,0,0,1-2.982,1.235,10.743,10.743,0,0,1-1.8.4,1.889,1.889,0,0,1-.833.227,1.1,1.1,0,0,1-.44-.087.291.291,0,0,0-.065-.021,3.015,3.015,0,0,1-1.159.156A10.753,10.753,0,0,1,936.167-170.849Zm125.174-1.25a1.754,1.754,0,0,1-.791-1.45,2.246,2.246,0,0,1,.443-1.43,6.341,6.341,0,0,1,1.138-1.26c.413-.358.95-.88,1.592-1.552l.03-.031.033-.026a8.088,8.088,0,0,0,1.039-.979,3.894,3.894,0,0,1,1.52-1.041l.027-.01a2.573,2.573,0,0,1,.816-.137,2.7,2.7,0,0,1,1.73.671l.057.046.044.059a1.874,1.874,0,0,1-.2,2.685l-.022.021-.024.019a1.376,1.376,0,0,1-.851.318,1.224,1.224,0,0,1-.524-.12c-.128-.06-.258-.125-.391-.193-1.342,1.321-2.367,2.362-3.049,3.1a2.089,2.089,0,0,0-.273.438,2.217,2.217,0,0,1-.78.86,1.349,1.349,0,0,1-.784.259A1.454,1.454,0,0,1,1061.341-172.1Zm-53.663-3.521c-.39-.244-.666-.81-.951-1.954l-.013-.049,0-.05a2.579,2.579,0,0,0-.19-.82,4.9,4.9,0,0,1-.318-1.052,2.046,2.046,0,0,1,.337-1.454l.01-.015c-.16.1-.361.244-.6.423l-.028.021-.03.018a2.05,2.05,0,0,1-1.336.311,2.44,2.44,0,0,1-1-.373,2.365,2.365,0,0,1-.788-1.012c-.378-.756-.619-1.254-.738-1.521s-.274-.618-.474-1.077c-.036-.083-.073-.17-.11-.263a1.653,1.653,0,0,1-.356.511,1.853,1.853,0,0,1-1.3.624,1.5,1.5,0,0,1-.3-.031,1.465,1.465,0,0,1-1.111-.833c-.042-.093-.091-.188-.146-.285-.592.6-1.119,1.107-1.571,1.514-.557.5-1.036.967-1.423,1.382l-.035.035q-.474.431-.9.818a1.781,1.781,0,0,1-1.218.486,2.074,2.074,0,0,1-.222-.014,1.344,1.344,0,0,1-1.188-.951,1.438,1.438,0,0,1,.2-1.358,4.573,4.573,0,0,1,.74-.767,5.233,5.233,0,0,1,1.116-.685,8.071,8.071,0,0,0,1.057-.825c.247-.247.49-.483.724-.7s.449-.436.683-.683c.148-.158.311-.322.486-.49a3.467,3.467,0,0,0-.232-.28,4.872,4.872,0,0,1-.546-.723c-.181-.133-.363-.279-.543-.433l-.04-.034-.033-.041a1.753,1.753,0,0,1-.281-1.719A1.349,1.349,0,0,1,996.333-191c.041,0,.082,0,.124,0a2.658,2.658,0,0,1,.414-.035,1.291,1.291,0,0,1,.995.383l.516.559a4.677,4.677,0,0,1,.583.889q.163-.176.313-.327a7.633,7.633,0,0,0,.7-.809,4.553,4.553,0,0,1,.726-.963,4.209,4.209,0,0,1,.577-1.018,2.519,2.519,0,0,0,.38-.678,10.225,10.225,0,0,0,.345-1.075l.006-.022a1.445,1.445,0,0,1,.683-.868,1.944,1.944,0,0,1-.4,0,2.314,2.314,0,0,1-1.067.266,1.715,1.715,0,0,0-.719.161l-.046.019c-.4.141-.969.356-1.706.64s-1.255.5-1.58.664a1.624,1.624,0,0,0-.68.507,1.96,1.96,0,0,1-.78.76,1.605,1.605,0,0,1-1.086.113,3.771,3.771,0,0,1-.868-.307,1.512,1.512,0,0,1-.772-1.154,1.792,1.792,0,0,1,.512-1.593l.018-.018a5.105,5.105,0,0,1,2.192-1.076c.931-.268,1.686-.5,2.245-.7l.031-.009c.7-.2,1.346-.366,1.93-.483a32.168,32.168,0,0,1,6.143-.786,3.436,3.436,0,0,1,.916.028.557.557,0,0,0,.363-.052l.1-.051.115-.01c.074-.006.149-.009.226-.009a3.618,3.618,0,0,1,1.025.163,4.475,4.475,0,0,1,.679-.049,7.184,7.184,0,0,1,.951.07,8.621,8.621,0,0,1,1.43.323,5.49,5.49,0,0,1,1.421.675,3.84,3.84,0,0,1,1.066,1.021,2.456,2.456,0,0,1,.427,1.412c0,.409-.007.772-.023,1.081a4.691,4.691,0,0,1-.362,1.414,13.332,13.332,0,0,1-.855,1.756l-.018.032-.022.03a5.851,5.851,0,0,0-.37.544c-.09.154-.233.4-.426.739a1.434,1.434,0,0,1-.586,1.131.466.466,0,0,0-.151.237,1.862,1.862,0,0,1-.607.842.731.731,0,0,0-.213.307,3.645,3.645,0,0,1-.814,1.094,7.4,7.4,0,0,0-.573.8,2.269,2.269,0,0,1-.7.717c-.077.147-.168.306-.27.476a4.615,4.615,0,0,1-.592.768c-.218.232-.455.476-.7.723a4.928,4.928,0,0,1-.441.4,1.863,1.863,0,0,1,1.366-.049,1.917,1.917,0,0,1,.947.626,1.294,1.294,0,0,1,.21.944,3.786,3.786,0,0,0,0,.752,2.522,2.522,0,0,0,.353,1.014,1.8,1.8,0,0,1,.278,1.316,2.264,2.264,0,0,1-.383.846,1.4,1.4,0,0,1-1.019.537,1.876,1.876,0,0,1-.2.011A1.749,1.749,0,0,1,1007.678-175.62Zm-4.821-12.392a1.253,1.253,0,0,1,.888.8,3.639,3.639,0,0,1,.2.909,22.658,22.658,0,0,0,1.087,2.893,1.058,1.058,0,0,0,.309-.137,6.977,6.977,0,0,0,1-.907,19.354,19.354,0,0,0,1.479-1.75c.538-.709,1.07-1.427,1.58-2.136a18,18,0,0,0,1.413-2.349,8.828,8.828,0,0,0,.847-2.352l.011-.054.02-.052a2.71,2.71,0,0,0,.2-.8.528.528,0,0,0-.172-.388l-.023-.026-.02-.028a.912.912,0,0,0-.425-.361l-.816-.3a2.023,2.023,0,0,0-.695-.113,2.489,2.489,0,0,1-.892-.136c-.439-.023-.883-.036-1.321-.036-.466,0-.889-.013-1.257-.039a6.7,6.7,0,0,1-1.468.084,3.341,3.341,0,0,0-.533.121,1.875,1.875,0,0,1-.2.049,1.132,1.132,0,0,1,.644.463c.148.223.278.429.384.611a1.641,1.641,0,0,1-.1,1.443,8.273,8.273,0,0,1-1.031,1.66c-.368.538-.628.913-.771,1.115-.156.217-.566.715-1.257,1.523-.559.654-1.019,1.161-1.4,1.538a.406.406,0,0,0,.021.041,3.811,3.811,0,0,1,.3.356,1.542,1.542,0,0,1,.753-1.407,1.861,1.861,0,0,1,.917-.272A1.325,1.325,0,0,1,1002.857-188.012Zm10.831,11.273a8.939,8.939,0,0,1-1.286-.848,6.9,6.9,0,0,1-1.385-1.445,2.229,2.229,0,0,1-.732-.8,1.738,1.738,0,0,1-.185-1.293,1.283,1.283,0,0,1,.973-.974,2.334,2.334,0,0,1,.565-.072,2.08,2.08,0,0,1,.558.076,1.825,1.825,0,0,1,.952.633,4.747,4.747,0,0,1,.554.924,3.558,3.558,0,0,0,.693.671c.189.108.41.226.658.349a1.579,1.579,0,0,1,.81,1.028,1.222,1.222,0,0,1-.19,1.445,1.694,1.694,0,0,1-1,.572,1.378,1.378,0,0,1-.181.012A1.328,1.328,0,0,1,1013.687-176.738Zm-34.816-4.189a2.14,2.14,0,0,1-.692-1.093,1.389,1.389,0,0,1,.8-1.622l.083-.052.095-.023c.7-.168,1.164-.287,1.38-.355a2.991,2.991,0,0,1,1.024-.1,5.2,5.2,0,0,1,1.76-.358c.553-.013,1.077-.049,1.559-.1a9.063,9.063,0,0,1,1.36-.067,9.323,9.323,0,0,0,1.049-.021l.12-.008.113.038a2.005,2.005,0,0,1,1.121.908,1.534,1.534,0,0,1-.119,1.7l-.082.127-.131.074a2.53,2.53,0,0,1-1.124.311,4.361,4.361,0,0,1-.977-.062c-.875.029-1.693.078-2.433.147a15.5,15.5,0,0,0-3.253.85l-.061.021-.065.008a3.374,3.374,0,0,1-.392.024A1.743,1.743,0,0,1,978.872-180.927Zm44.473-.172a2.14,2.14,0,0,1-.692-1.093,1.389,1.389,0,0,1,.8-1.622l.083-.052.095-.022c.7-.168,1.164-.287,1.38-.355a2.565,2.565,0,0,1,1.044-.064,5.192,5.192,0,0,1,1.741-.35c.559-.014,1.088-.042,1.575-.084a10.876,10.876,0,0,1,1.344-.045,9.543,9.543,0,0,0,1.05-.02l.119-.009.113.038a2.007,2.007,0,0,1,1.121.909,1.534,1.534,0,0,1-.119,1.7l-.082.127-.131.073a2.532,2.532,0,0,1-1.124.311,4.38,4.38,0,0,1-.985-.064c-.873,0-1.688.037-2.424.1a16.72,16.72,0,0,0-3.263.811l-.057.019-.059.007a3.372,3.372,0,0,1-.392.024A1.743,1.743,0,0,1,1023.344-181.1Zm-43.087-4.017a2.006,2.006,0,0,1-1-.6,1.482,1.482,0,0,1-.284-1.2,1.663,1.663,0,0,1,.809-1.2l.026-.016.028-.014a5.027,5.027,0,0,1,1.537-.466c.486-.069,1.074-.176,1.745-.315a6.866,6.866,0,0,1,1.277-.178,1.451,1.451,0,0,1,.3.028.657.657,0,0,0,.1,0,8.042,8.042,0,0,0,1.1-.118l.045-.007H986a3.894,3.894,0,0,1,1.328.3,1.34,1.34,0,0,1,1.009,1.447,1.424,1.424,0,0,1-.7,1.191,2.529,2.529,0,0,1-.874.281l-.154.02-.144-.058a3.544,3.544,0,0,0-1.251-.151c-.209,0-.438.007-.684.021a8.011,8.011,0,0,0-2.725.649,1.818,1.818,0,0,1-1.127.441A1.429,1.429,0,0,1,980.257-185.116Zm44.516-.172a2.006,2.006,0,0,1-1-.6,1.482,1.482,0,0,1-.284-1.2,1.663,1.663,0,0,1,.809-1.2l.026-.016.028-.014a4.664,4.664,0,0,1,1.577-.446c.494-.055,1.083-.154,1.749-.292a6.829,6.829,0,0,1,1.276-.177,1.459,1.459,0,0,1,.3.028,1.081,1.081,0,0,0,.166.008,10.335,10.335,0,0,0,1.057-.082l.034,0h.034a3.729,3.729,0,0,1,1.313.3,1.34,1.34,0,0,1,.981,1.445,1.43,1.43,0,0,1-.7,1.192,2.516,2.516,0,0,1-.874.281l-.153.019-.144-.058a3.983,3.983,0,0,0-1.386-.163c-.173,0-.361,0-.557.012a7.691,7.691,0,0,0-2.73.632,1.863,1.863,0,0,1-1.1.4A1.487,1.487,0,0,1,1024.772-185.288Zm-51.526-3.3a1.534,1.534,0,0,1-.369-1.875,3.475,3.475,0,0,1,1.643-1.33l.041-.02.044-.014c.667-.2,1.372-.394,2.1-.568a11.244,11.244,0,0,1,1.976-.317,15.007,15.007,0,0,0,1.551-.166l.029,0,.029,0c1.412-.085,2.3-.148,2.625-.19a6.59,6.59,0,0,1,1.255-.024c.2.014.58.019,1.117.014l-.039-.014a1.389,1.389,0,0,1-.867-.766,1.258,1.258,0,0,1,.092-1.052c.247-.5.427-.889.535-1.17.112-.3.306-.827.575-1.579a18.1,18.1,0,0,0,.688-3.146c-.211-.29-.391-.519-.533-.684a1.2,1.2,0,0,1-.142-1.4,2.149,2.149,0,0,1,1.167-.943l.072-.029.076-.01a3.237,3.237,0,0,1,.393-.026,1.5,1.5,0,0,1,1.055.353,3.477,3.477,0,0,1,.652.852,4,4,0,0,1,.42,1.594l.009.1-.022.094a5.419,5.419,0,0,0-.136,1.026,2.437,2.437,0,0,1-.209.943,1.126,1.126,0,0,1-.151,1.076,2.215,2.215,0,0,0-.255.464,1.043,1.043,0,0,1-.253,1.038.856.856,0,0,0-.2.436,10.9,10.9,0,0,1-.536,1.624,1.276,1.276,0,0,1-.645,1.148l-.068.043.128,0c.528-.014,1-.022,1.4-.022a10.008,10.008,0,0,1,1.626.083,2.746,2.746,0,0,1,1.231.16,3.65,3.65,0,0,1,.8.49,2.372,2.372,0,0,1,.719,1.278,1.691,1.691,0,0,1-.412,1.742,1.979,1.979,0,0,1-1.434.627,1.525,1.525,0,0,1-1.2-.413,2.448,2.448,0,0,1-.472-.936.393.393,0,0,0-.031-.078,1.161,1.161,0,0,1-.287.035,1.565,1.565,0,0,1-.679-.169,8.742,8.742,0,0,0-1.265-.033,1.358,1.358,0,0,1-.361.048,1.966,1.966,0,0,1-.706-.144,2.99,2.99,0,0,1-.913.055.677.677,0,0,0-.348.034,1.036,1.036,0,0,1-.436.094,1.387,1.387,0,0,1-.545-.121,1.715,1.715,0,0,1-.806.227,1.221,1.221,0,0,1-.276-.031,2.043,2.043,0,0,0-.581-.049,4.254,4.254,0,0,0-.676.094,3.287,3.287,0,0,1-1.025.055c-.041,0-.088-.006-.14-.006a5.389,5.389,0,0,0-1,.126,10.6,10.6,0,0,1-1.219.169,1.514,1.514,0,0,1-1,.336h-.019a.331.331,0,0,0-.217.089,3.66,3.66,0,0,1-.855.475,3.206,3.206,0,0,1-.918.778,1.227,1.227,0,0,1-.609.165A1.659,1.659,0,0,1,973.247-188.59Zm44.558-.257a1.532,1.532,0,0,1-.368-1.875,3.273,3.273,0,0,1,1.661-1.3l.032-.014.034-.011c.672-.2,1.39-.389,2.133-.55a13.066,13.066,0,0,1,1.984-.292,15.022,15.022,0,0,0,1.55-.166l.035-.005h.034c1.409-.057,2.289-.106,2.614-.147a6.519,6.519,0,0,1,1.255-.024c.205.014.571.023,1.091.026l-.025-.01a1.41,1.41,0,0,1-.865-.794,1.213,1.213,0,0,1,.11-1.012l0-.009a9.771,9.771,0,0,0,.566-1.148c.113-.3.306-.827.575-1.579a19.937,19.937,0,0,0,.727-3.151c-.21-.288-.388-.516-.529-.679a1.172,1.172,0,0,1-.109-1.424,2.276,2.276,0,0,1,1.177-.923l.056-.023.059-.011a2.271,2.271,0,0,1,.4-.038,1.364,1.364,0,0,1,.772.215,3.088,3.088,0,0,1,.792.9,3.8,3.8,0,0,1,.546,1.732l.01.1-.022.095a5.5,5.5,0,0,0-.135,1.026,2.412,2.412,0,0,1-.22.968,1.129,1.129,0,0,1-.2,1.049,1.861,1.861,0,0,0-.239.425,1.043,1.043,0,0,1-.254,1.037.858.858,0,0,0-.2.437,9.353,9.353,0,0,1-.578,1.633,1.278,1.278,0,0,1-.645,1.138l-.065.04h.134l.645,0a15.056,15.056,0,0,1,2.367.107,2.727,2.727,0,0,1,1.23.161,2.9,2.9,0,0,1,.812.539,2.633,2.633,0,0,1,.665,1.271,1.646,1.646,0,0,1-.423,1.731,2.017,2.017,0,0,1-1.424.595,1.528,1.528,0,0,1-1.2-.413,2.461,2.461,0,0,1-.472-.936.42.42,0,0,0-.03-.078,1.167,1.167,0,0,1-.287.035,1.563,1.563,0,0,1-.695-.177,6.473,6.473,0,0,0-1.25-.068,1.355,1.355,0,0,1-.361.048,1.968,1.968,0,0,1-.706-.145,2.66,2.66,0,0,1-.944.029.565.565,0,0,0-.316.018,1.036,1.036,0,0,1-.437.094,1.384,1.384,0,0,1-.545-.121,1.718,1.718,0,0,1-.806.227,1.221,1.221,0,0,1-.276-.031,2.016,2.016,0,0,0-.581-.049,6.527,6.527,0,0,0-.708.078,3.853,3.853,0,0,1-.994.027c-.041,0-.088-.006-.14-.006a5.478,5.478,0,0,0-1,.126,7.3,7.3,0,0,1-1.235.138,1.5,1.5,0,0,1-.983.324h-.02a.334.334,0,0,0-.217.088,3.611,3.611,0,0,1-.855.475,2.977,2.977,0,0,1-.935.767,1.239,1.239,0,0,1-.574.143A1.69,1.69,0,0,1,1017.8-188.847Z" transform="translate(-454.94 8254.168)" fill="#009f39"/>
        </g>
        <path id="合体_67" data-name="合体 67" d="M891.566,15.8l-.041-.012a11.92,11.92,0,0,1-2.569-1.2,7.261,7.261,0,0,1-2.113-1.987l-.014-.021a8.363,8.363,0,0,1-1.27-3.514,8.148,8.148,0,0,1,.4-3.669l.007-.02a10.154,10.154,0,0,1,1.528-2.625A6.746,6.746,0,0,1,889.972.842l.04-.018.041-.011a3.771,3.771,0,0,0,.785-.31,2.174,2.174,0,0,1,1.1-.252A3.8,3.8,0,0,1,892.9,0l.032,0h.337A3.58,3.58,0,0,1,894,.075a1.1,1.1,0,0,1,.584,0,.359.359,0,0,0,.19,0,1.175,1.175,0,0,1,.294-.04.786.786,0,0,1,.358.081,1.2,1.2,0,0,1,.724.077,7.2,7.2,0,0,1,2.3.842,7.952,7.952,0,0,1,2.962,2.473l.017.023.013.023a6.937,6.937,0,0,1,.946,3.381,8.238,8.238,0,0,1-.405,2.984,9.767,9.767,0,0,1-.917,1.916,10.93,10.93,0,0,1-1.192,1.5,9.412,9.412,0,0,1-2.117,1.59,8.035,8.035,0,0,1-3.01,1.037,8.818,8.818,0,0,1-1.15.076A8.92,8.92,0,0,1,891.566,15.8Zm1.276-6.564a7.413,7.413,0,0,1-.9.161c-.059.5-.117,1.039-.172,1.616a4.413,4.413,0,0,0,.02,1.45c.23.818,0,1.2-.244,1.377q.409.143.853.264a1.732,1.732,0,0,0,.41.072,1.124,1.124,0,0,1,.675-.055.32.32,0,0,0,.173-.008,1.012,1.012,0,0,1,.716.008.186.186,0,0,0,.034-.008,1.511,1.511,0,0,1,.571-.065,1.233,1.233,0,0,1,.64-.231l.043,0a1.084,1.084,0,0,0,.244-.072,7.025,7.025,0,0,0,.927-.456,1.053,1.053,0,0,1-.472-.356,2.966,2.966,0,0,1-.368-.7,5.884,5.884,0,0,0-.344-.491,8.443,8.443,0,0,1-.511-.747c-.174-.28-.418-.643-.723-1.078-.231-.329-.465-.637-.7-.919C893.422,9.085,893.129,9.166,892.842,9.236Zm.913-7.339a7.4,7.4,0,0,0-1.362.127,6.721,6.721,0,0,0-2.5,1.006,1.881,1.881,0,0,1-.455.393.908.908,0,0,0-.241.22l-.053.068-.073.046a.8.8,0,0,0-.179.139,1.667,1.667,0,0,1-.314.382.066.066,0,0,0-.023.034.9.9,0,0,1-.223.447.82.82,0,0,1-.213.5.756.756,0,0,0-.123.225,2.554,2.554,0,0,1-.239.482,6.638,6.638,0,0,0-.286,3.128,5.589,5.589,0,0,0,.756,2.338A7.4,7.4,0,0,0,889.2,12.6a3.859,3.859,0,0,0,.516.38c0-.013,0-.025,0-.039a5.274,5.274,0,0,1,.026-.75,5.039,5.039,0,0,0,.032-.533,1.907,1.907,0,0,1,.064-.491,1.132,1.132,0,0,0,.03-.282v-.061l.015-.06a3.768,3.768,0,0,0,.1-.692c.013-.233.032-.511.057-.829a1.173,1.173,0,0,1-.139-1.1,2.067,2.067,0,0,1,.384-.629c.072-.319.134-.663.186-1.025a1.438,1.438,0,0,1,.045-.5c.029-.1.05-.18.063-.24a.533.533,0,0,0,0-.14,1.329,1.329,0,0,1,.124-.624.732.732,0,0,0,.031-.238,1.956,1.956,0,0,1-.161-.143,1.3,1.3,0,0,1-.315-.725,1.059,1.059,0,0,1,.561-1.1,5.067,5.067,0,0,1,1.728-.541l.012,0a17.462,17.462,0,0,1,2.227-.252h.076A7.17,7.17,0,0,0,893.8,1.9Zm1.673,6.333c.131.2.292.436.48.7.381.534.869,1.169,1.45,1.888.14.156.275.311.4.459a2.858,2.858,0,0,1,.4.64,1.076,1.076,0,0,1,.087.282c.077-.076.154-.155.229-.235a2.856,2.856,0,0,1,.5-.483,1.838,1.838,0,0,0,.331-.322l.009-.011a11.948,11.948,0,0,0,.828-1.246,7.588,7.588,0,0,0,.337-1.021,5.474,5.474,0,0,0,.135-1.565,6.9,6.9,0,0,0-.239-1.661,2.664,2.664,0,0,0-.356-.868,4.213,4.213,0,0,1-.455-.579,1.913,1.913,0,0,1-.276-.269c-.073-.087-.15-.176-.23-.264s-.135-.14-.16-.163-.126-.081-.489-.271l-.068-.036-.054-.054a3.636,3.636,0,0,0-1.173-.676l-.073-.03a3.084,3.084,0,0,1,.328.2,2.958,2.958,0,0,1,.893,1.053,2.217,2.217,0,0,1,.107,1.727l-.009.026a4.809,4.809,0,0,1-.261.588,5.423,5.423,0,0,1-.324.544,1.275,1.275,0,0,1-.513.437c-.056.085-.105.166-.15.24a1.083,1.083,0,0,1-.625.441.754.754,0,0,1-.616.331.7.7,0,0,1-.086-.005A1.589,1.589,0,0,1,895.428,8.23Zm-1.5-4.375a.78.78,0,0,0-.221.075,1.773,1.773,0,0,1-.538.16,1.311,1.311,0,0,0-.265.112,12.192,12.192,0,0,0-.487,1.981c-.074.448-.139.844-.2,1.184.169-.032.3-.056.4-.071a2.073,2.073,0,0,0,.429-.13.965.965,0,0,1,.449-.422,1.6,1.6,0,0,1,.756-.072,6.5,6.5,0,0,0,1.287-.7l.019-.013a1.9,1.9,0,0,0,.787-.91c.138-.357.133-.566.083-.644a.963.963,0,0,0-.307-.336,2.045,2.045,0,0,0-.588-.16,3.541,3.541,0,0,0-.67-.064c-.1,0-.2.006-.3.006s-.2,0-.294-.006c-.052,0-.1,0-.146,0A1.327,1.327,0,0,0,893.93,3.855Z" transform="translate(-385.351 8050.168)" fill="#009f39"/>
      </g>
    </g>
    <path id="パス_3011" data-name="パス 3011" d="M3188.146,8234.864s-71.492,28.2-121.542,157.1" transform="matrix(0.978, -0.208, 0.208, 0.978, -4302.102, 722.453)" fill="none" stroke="#009f39" stroke-linecap="round" stroke-width="3"/>
    <g id="グループ_2900" data-name="グループ 2900" transform="translate(1247.5 -384)">
      <g id="コンポーネント_25_13" data-name="コンポーネント 25 – 13" transform="translate(-830 8375)">
        <g id="長方形_1591" data-name="長方形 1591" fill="none" stroke="#009f39" stroke-width="2">
          <rect width="66" height="34" rx="17" stroke="none"/>
          <rect x="1" y="1" width="64" height="32" rx="16" fill="none"/>
        </g>
        <text id="外箱" transform="translate(32.5 25.363)" fill="#009f39" font-size="22" font-family="HiraKakuProN-W6, Hiragino Kaku Gothic ProN"><tspan x="-22" y="0">外箱</tspan></text>
      </g>
    </g>
  </g>
</svg>
