<svg xmlns="http://www.w3.org/2000/svg" width="332.614" height="120.199" viewBox="0 0 332.614 120.199">
  <g id="earth_title" transform="translate(-460.3 -7466.316)">
    <g id="グループ_2921" data-name="グループ 2921">
      <g id="グループ_2919" data-name="グループ 2919" transform="translate(-57 2908)">
        <path id="パス_6084" data-name="パス 6084" d="M-129.489-29.427c-1.122-.918-3.213-2.652-3.825-2.652-.816,0-3.06,2.55-3.06,3.315,0,.561.561.969.918,1.224a73.018,73.018,0,0,1,6.783,5.712,2.047,2.047,0,0,0,1.122.612c1.02,0,3.213-2.5,3.213-3.468,0-.561-2.55-2.7-3.927-3.774C-128.673-28.764-129.081-29.121-129.489-29.427Zm-23.97,20.2c0,.2.051.459.051.714,0,.1.1,2.193.1,2.244,0,.2-.051.408-.357.408a1.007,1.007,0,0,1-.612-.306,12.243,12.243,0,0,0-2.6-1.581A1.153,1.153,0,0,0-158-6.732c0,.408.357.714.612.969a10.32,10.32,0,0,1,3.111,3.978c.408.867.765,1.938,1.887,1.938,1.377,0,4.488-1.224,4.488-3.723,0-.51-.357-5.1-.459-6.171-.051-.714-.153-2.754-.153-3.366a1.717,1.717,0,0,1,.816-1.581,19.883,19.883,0,0,1,8.976-2.448c2.856,0,6.12,1.581,6.12,4.794,0,3.723-4.335,4.692-7.293,4.692a40.278,40.278,0,0,1-4.182-.459c-.765,0-.918.663-.918,1.326a9.89,9.89,0,0,0,.816,3.672c.255.51,1.326.561,2.142.561h.612c3.06,0,7.65-.51,10.251-2.295a8.978,8.978,0,0,0,4.08-7.6c0-6.12-5.457-9.639-11.118-9.639a23.846,23.846,0,0,0-8.466,1.683,4.841,4.841,0,0,1-1.275.459c-.663,0-.765-1.122-.765-1.989v-.714c0-2.346.1-2.7,1.989-3.06,3.876-.663,4.743-.663,4.743-1.989,0-.867-.153-4.182-1.326-4.182a2.8,2.8,0,0,0-.867.255c-.51.153-2.856.867-3.213.867a.894.894,0,0,1-.867-.867c0-.2.051-.51.051-.714.051-.459.1-.867.153-1.173.153-1.581.2-2.193.969-2.805.2-.2.51-.51.51-.816,0-.459-.714-.612-1.02-.663-1.02-.2-4.437-.918-5.2-.918-.51,0-.663.357-.663.765,0,.2.1,1.377.1,2.4,0,1.428-.051,2.856-.1,4.284a2.066,2.066,0,0,1-.408,1.53,2.719,2.719,0,0,1-1.887.612c-1.581.2-3.366.306-4.947.357-.969.051-1.071.255-1.071,1.632,0,3.723.816,3.774,1.479,3.774.765,0,4.233-.612,5.2-.816.1,0,.2-.051.306-.051a1.113,1.113,0,0,1,1.122,1.173v.51c0,.765-.051,1.53-.051,2.295v1.734c0,1.581-.2,1.632-2.142,2.805-2.805,1.734-5.508,3.57-8.364,5.2-.612.357-1.173.51-1.173,1.071,0,1.02,2.04,4.845,3.06,4.845A1.6,1.6,0,0,0-161.568-5c.867-.765,6.936-5.661,7.548-5.661C-153.51-10.659-153.51-10.149-153.459-9.231Zm72.573-20.655a.841.841,0,0,0,.459.765c4.845,3.723,6.936,8.568,7.548,14.535.1,1.224.051,1.938,1.683,1.938a10.782,10.782,0,0,0,2.856-.459c.867-.255,1.377-.51,1.377-1.479,0-3.06-1.581-7.905-3.009-10.608-2.448-4.692-6.732-7.9-7.854-7.9C-78.846-33.1-80.886-30.855-80.886-29.886Zm-23-3.315a.635.635,0,0,0-.714.561c-.1.459-.255,6.936-.255,7.752,0,5.406.408,11.832,2.958,16.626,1.683,3.111,4.641,6.528,8.415,6.528,2.4,0,3.978-1.53,5.457-3.213.714-.816,3.009-3.468,3.009-4.437,0-.918-2.6-3.009-3.672-3.009-.663,0-1.071.765-1.377,1.275-.612,1.122-2.091,3.366-3.519,3.366-1.785,0-3.468-3.009-4.08-4.437C-98.991-15.4-99.3-19.431-99.3-22.848a38,38,0,0,1,.408-5.406c.153-.867.2-1.887.918-2.448.306-.255.51-.357.51-.663,0-.51-.714-.612-1.122-.714C-99.45-32.232-103.224-33.2-103.887-33.2Zm61.557-5.406c-.714,0-.765.51-.765,1.275v.561c0,2.091-.459,6.987-.612,9.333q-.459,6.043-.459,12.087c0,3.723.255,8.67,2.55,11.73A11.27,11.27,0,0,0-32.64.306a17.854,17.854,0,0,0,15.5-9.741c.714-1.326,2.091-4.539,2.091-5.967,0-1.53-3.111-4.131-4.233-4.131-.765,0-.867.867-1.02,1.683A16.215,16.215,0,0,1-23.409-10.3,12.918,12.918,0,0,1-33-5.355c-5.508,0-5.406-6.171-5.406-10.149,0-2.907.459-19.074,2.244-20.4.306-.255.612-.408.612-.765,0-.459-.663-.663-1.02-.714A43.265,43.265,0,0,0-42.33-38.607Zm71.6,8.721a.841.841,0,0,0,.459.765c4.845,3.723,6.936,8.568,7.548,14.535.1,1.224.051,1.938,1.683,1.938a10.782,10.782,0,0,0,2.856-.459c.867-.255,1.377-.51,1.377-1.479,0-3.06-1.581-7.905-3.009-10.608-2.448-4.692-6.732-7.9-7.854-7.9C31.314-33.1,29.274-30.855,29.274-29.886Zm-23-3.315a.635.635,0,0,0-.714.561c-.1.459-.255,6.936-.255,7.752,0,5.406.408,11.832,2.958,16.626C9.945-5.151,12.9-1.734,16.677-1.734c2.4,0,3.978-1.53,5.457-3.213.714-.816,3.009-3.468,3.009-4.437,0-.918-2.6-3.009-3.672-3.009-.663,0-1.071.765-1.377,1.275C19.482-10,18-7.752,16.575-7.752c-1.785,0-3.468-3.009-4.08-4.437-1.326-3.213-1.632-7.242-1.632-10.659a38,38,0,0,1,.408-5.406c.153-.867.2-1.887.918-2.448.306-.255.51-.357.51-.663,0-.51-.714-.612-1.122-.714C10.71-32.232,6.936-33.2,6.273-33.2Zm79.356,9.537c0-.51-.918-.663-1.275-.714-.51-.1-3.009-.612-3.366-.612-.714,0-.714.663-.714,1.173a46.96,46.96,0,0,1-1.836,11.934A5.873,5.873,0,0,0,78.03-10.4c0,.867,2.55,1.581,3.264,1.581.816,0,.969-.765,1.173-1.428A80.177,80.177,0,0,0,84.4-21.879c.051-.765.1-.816.816-1.275A.606.606,0,0,0,85.629-23.664ZM97.308-34.119c0-1.02-3.723-4.182-4.59-4.947-.714-.663-3.264-2.907-4.08-2.907-.969,0-2.6,2.448-2.6,3.009,0,.51.612.918.969,1.173a59.88,59.88,0,0,1,5.559,4.845c.867.867,1.581,1.836,2.142,1.836C95.523-31.11,97.308-33.4,97.308-34.119Zm4.386,8.925a.524.524,0,0,1-.561-.51c0-.153.051-.153.1-.306a72.354,72.354,0,0,0,3.162-9.741c.2-.714.255-.969.867-1.326.306-.153.765-.357.765-.714,0-.51-1.122-.867-1.581-1.02a19.909,19.909,0,0,0-3.57-1.02c-.612,0-.663.459-.765,1.071A61.134,61.134,0,0,1,91.9-17.85a.516.516,0,0,1-.357.2c-.255,0-.357-.255-.357-.459v-9.537c0-1.938.051-2.805.714-3.315.255-.2.459-.357.459-.714,0-.612-.612-.612-1.071-.663-1.071-.1-3.315-.2-4.335-.2-.459,0-.765.1-.765.663v.51a24.426,24.426,0,0,1,.153,3.417v16.116a2.738,2.738,0,0,1-.867,2.346A42.136,42.136,0,0,1,76.5-2.3c-.51.306-1.632.867-1.632,1.53,0,.714,1.734,3.315,2.6,3.315,1.326,0,6.681-4.335,7.854-5.406a.76.76,0,0,1,.459-.2c.408,0,.51.306.561.612a14.331,14.331,0,0,0-.051,1.479c0,3.315,2.4,3.519,5.1,3.519h6.834c1.938,0,3.315-.153,4.437-1.938a27.376,27.376,0,0,0,2.193-7.395c0-1.53-3.06-2.091-3.825-2.091s-.867.306-1.071,1.632C99.3-2.907,99.144-2.448,96.8-2.448H93.432c-2.04,0-2.244-.255-2.244-2.856V-7.752A3.3,3.3,0,0,1,91.9-10.1a73.219,73.219,0,0,0,7.293-11.526.692.692,0,0,1,.561-.357.549.549,0,0,1,.51.408,57.94,57.94,0,0,1,2.754,10.506c.153.663.2,1.173.969,1.173.561,0,3.57-.663,3.57-1.785a40.854,40.854,0,0,0-1.581-7.14c-.51-1.683-1.275-3.927-1.938-5.559-.2-.51-.459-1.02-1.122-1.02a3.293,3.293,0,0,0-.969.2Zm-28.05,8.619c.408.714,2.04,3.57,2.907,3.57.663,0,2.5-2.04,2.5-2.805a1.225,1.225,0,0,0-.459-.867A36.74,36.74,0,0,1,74.052-23a.984.984,0,0,1-.153-.51c0-.459.306-.663.765-.663.969,0,1.989.051,3.009.051,1.275,0,1.224-.612,1.224-2.448,0-1.938.051-2.55-1.224-2.55-1.122,0-2.244.153-3.315.1-1.02,0-1.428-.408-1.428-1.377V-34.68A1.756,1.756,0,0,1,74.2-36.567c.1-.051.408-.153.714-.306a19.416,19.416,0,0,1,2.244-.867,3.562,3.562,0,0,1,.612.153,1.218,1.218,0,0,0,.459.1.5.5,0,0,0,.459-.51c0-.459-2.448-4.437-3.06-4.437a1.512,1.512,0,0,0-.765.357A35.485,35.485,0,0,1,63.9-38.505c-1.53.2-1.989.306-1.989,1.02s.969,3.876,2.193,3.876a16.8,16.8,0,0,0,2.7-.51.756.756,0,0,1,.357-.051c.663,0,.918.51.918,1.122V-30.4c0,.969-.408,1.377-1.377,1.377-1.173.051-2.346-.1-3.519-.1-1.275,0-1.224.612-1.224,2.55,0,1.836-.051,2.448,1.173,2.448,1.02,0,2.04-.051,3.06-.051a.857.857,0,0,1,.969.867c0,.153-.051.255-.051.408a61.793,61.793,0,0,1-5.661,13.26,4.894,4.894,0,0,0-.816,1.734c0,.867,2.193,2.856,2.907,2.856.612,0,.918-.663,1.173-1.122A48.566,48.566,0,0,0,67.626-12.6a.236.236,0,0,1,.255-.153c.051,0,.2.051.2.306V-5c0,2.244-.1,4.488-.1,6.732,0,1.53.459,1.581,2.55,1.581s2.55-.051,2.55-1.581c0-2.244-.153-4.488-.153-6.732V-16.371c.051-.2.1-.408.357-.408A.516.516,0,0,1,73.644-16.575Zm93.177-3.315c0-.714-2.04-4.131-2.55-4.9a33.594,33.594,0,0,0-2.6-3.825c-.255-.306-.408-.51-.816-.51-.765,0-3.417,1.326-3.417,2.142A2.342,2.342,0,0,0,158-25.857a41.768,41.768,0,0,1,4.182,6.936c.255.51.408,1.071,1.122,1.071C164.118-17.85,166.821-18.972,166.821-19.89Zm-35.19-7.4c0-.459-.51-.714-.867-.816-.561-.2-3.621-1.224-3.927-1.224-.561,0-.663.51-.816.918a29.166,29.166,0,0,1-3.009,6.375c-.153.255-.51.714-.51.969,0,.918,2.5,1.989,3.315,1.989a1.306,1.306,0,0,0,.969-.408,43.5,43.5,0,0,0,2.652-5.1c.867-2.04.867-2.142,1.581-2.244C131.223-26.877,131.631-27.03,131.631-27.285Zm17.34,24.021c-1.02,0-1.428-.459-1.428-1.428V-9.639c0-1.734.051-2.04.714-2.4.357-.2.612-.357.612-.663,0-.408-.561-.459-.867-.51-.663-.051-4.437-.357-5-.357-.408,0-.867,0-.867.561,0,.1.051.255.051.357a14.634,14.634,0,0,1,.153,3.06v4.9c0,.969-.408,1.428-1.428,1.428h-7.344c-1.02,0-1.428-.459-1.428-1.428V-7.14c0-2.6-.051-2.8.663-3.264.408-.255.612-.357.612-.612,0-.561-.816-.561-1.224-.612-.714-.051-3.876-.306-4.386-.306-.357,0-.816.051-.816.561a.868.868,0,0,0,.051.357,16.168,16.168,0,0,1,.1,2.3v6.834c0,1.326-.051,2.6-.051,3.876,0,1.122.561,1.122,2.55,1.122,2.193,0,2.5-.051,2.6-1.173.051-.663.255-.918.918-.918h23.613c.663,0,.969.255.969.918.051,1.326.255,1.377,2.5,1.377,2.091,0,2.7,0,2.7-1.224,0-1.377-.1-2.7-.1-4.029v-5c0-2.55-.051-2.907.663-3.366.357-.2.663-.306.663-.663,0-.408-.612-.459-.867-.51-.612-.051-4.284-.357-4.794-.357-.408,0-.867.051-.867.561,0,.1.051.255.051.357a25.7,25.7,0,0,1,.153,3.978v2.244a1.249,1.249,0,0,1-1.428,1.428ZM128.979-32.385c0-1.02.408-1.428,1.428-1.428h8.058c.2.051.357.1.357.306a.281.281,0,0,1-.1.255c-.357.306-1.071.969-1.071,1.479,0,.306.408.663.612.867,1.071,1.02,2.193,2.091,3.162,3.213.561.663.918,1.071,1.377,1.071.969,0,3.009-1.632,3.009-2.448,0-.714-2.652-3.264-3.264-3.825a.678.678,0,0,1-.153-.408c0-.357.306-.459.561-.51h16.728c1.02,0,1.428.408,1.428,1.428v.765a8.645,8.645,0,0,0-.051,1.173c0,.969.663.918,2.652.918,2.244,0,2.6,0,2.6-1.122,0-.408-.051-1.122-.051-1.632v-1.632c0-1.071.1-1.836.1-2.346,0-1.53-1.53-1.836-3.774-1.836-1.377,0-2.958.1-4.692.1h-8.619a1.239,1.239,0,0,1-1.428-1.326c0-.714-.051-1.377.561-1.785.306-.2.663-.357.663-.663,0-.561-1.071-.561-1.479-.612-1.122-.1-3.519-.255-4.59-.255-.459,0-.969.051-.969.612,0,.153.051.306.051.408a11.836,11.836,0,0,1,.153,2.295c0,.969-.51,1.326-1.377,1.326h-8.721c-1.785,0-3.621-.1-5.457-.1-1.275,0-2.958.2-2.958,1.887,0,.459.1,1.224.1,2.295v1.071c0,.969-.1,1.428-.1,2.142,0,1.071.561,1.02,2.652,1.02,2.04,0,2.7.051,2.7-.969a3.859,3.859,0,0,0-.051-.765c0-.2-.051-.459-.051-.663ZM142.8-19.431a58.922,58.922,0,0,0,10.863-7.854c.408-.306,1.02-.918,1.479-.969.408,0,1.224,0,1.224-.612,0-.459-.459-.816-.816-1.071-.1-.1-.306-.255-.561-.459-.867-.663-2.346-1.836-2.805-1.836-.357,0-.765.459-.969.714-2.55,3.264-8.16,6.885-11.883,8.772a.712.712,0,0,1-.459.153c-.561,0-.714-.459-.765-.918v-1.173c0-2.04.051-2.55.663-3.111.2-.153.408-.306.408-.612,0-.612-.867-.561-1.581-.612s-3.111-.2-3.774-.2c-.408,0-.714.1-.714.612,0,.459.153,3.162.153,3.927v3.264c0,1.071-.255,1.479-1.224,1.836a81.96,81.96,0,0,1-8.568,2.4c-.561.1-1.326.306-1.326,1.02s1.071,3.519,2.5,3.519c1.224,0,7.242-1.938,8.721-2.5a2.667,2.667,0,0,1,.918-.153,8.508,8.508,0,0,1,1.581.255,11.872,11.872,0,0,0,2.7.306h12.9c1.581,0,3.621,0,4.9-1.122,1.377-1.275,2.4-4.692,2.4-5.61,0-1.479-2.652-2.091-3.825-2.091-.816,0-.969.255-1.173,1.53-.459,3.009-.918,3.264-3.111,3.264h-7.6c-.255,0-.459-.051-.459-.306A.516.516,0,0,1,142.8-19.431Z" transform="translate(682.893 4675)" fill="#009f39" stroke="#009f39" stroke-linecap="round" stroke-width="0.4"/>
      </g>
    </g>
    <g id="グループ_2920" data-name="グループ 2920" transform="translate(99 2993.5)">
      <path id="パス_6085" data-name="パス 6085" d="M760.909-3211.062c-.6-.61-.892-1.745-.892-3.469,0-.512,0-1.577,1.169-1.577a5.879,5.879,0,0,1,1,.1c.594.05,1.208.1,1.757.1.947,0,1.472-.122,1.758-.408.392-.392.391-1.173.389-2.464v-4.258c-.059-.4-.16-.528-.412-.528a.62.62,0,0,0-.345.117c-3.225,2.349-4.906,3.422-7.96,5.368l-1.023.654c-.541.348-.543.356-.624.781-.014.075-.031.161-.052.261-.094.557-.389.876-.808.876-.483,0-.935-.715-1.62-1.8q-.088-.141-.181-.286l-.011-.018a3.115,3.115,0,0,0-.287-.428l-.011-.017c-.08-.133-.169-.278-.262-.429a6.172,6.172,0,0,1-.991-1.969c0-.456.482-.657.833-.8l.1-.043a80.22,80.22,0,0,0,10.925-6.912l.011-.008.074-.05a1.26,1.26,0,0,1,.649-.289c.666,0,1.273.859,1.828,1.786l.034.059a.083.083,0,0,0,.077.042.091.091,0,0,0,.037-.005.188.188,0,0,0,.018-.1v-14.841c0-.884-.345-1.228-1.228-1.228h-3.263c-.888,0-1.781.039-2.643.076s-1.764.077-2.661.077a1.46,1.46,0,0,1-1.089-.335c-.388-.388-.387-1.043-.386-2.127v-.377c0-1.112,0-1.783.389-2.174a1.459,1.459,0,0,1,1.086-.334c.9,0,1.792.027,2.658.051s1.757.051,2.647.051h3.263c.907,0,1.228-.308,1.228-1.177v-2.091a32.974,32.974,0,0,0-.149-3.834,1.78,1.78,0,0,1-.055-.552c0-.606.359-.914,1.067-.914.563,0,4.041.256,4.718.359h.009c.452.05,1.134.125,1.134.861,0,.419-.263.582-.7.852-.065.041-.135.084-.211.132-.049.032-.232.232-.336,1.3-.073.761-.082,1.708-.082,2.353v1.519c.1.9.4,1.188,1.228,1.188h5.61c.9,0,1.805-.026,2.685-.051.863-.025,1.756-.051,2.62-.051a1.476,1.476,0,0,1,1.109.334c.373.375.371,1.031.366,2.021,0,.11,0,.224,0,.344v.186c0,1.084,0,1.74-.386,2.127a1.461,1.461,0,0,1-1.089.335c-.866,0-1.759-.039-2.623-.077s-1.787-.076-2.682-.076h-5.61c-.861,0-1.228.367-1.228,1.228v.306a4.289,4.289,0,0,0,.293,1.764,49.848,49.848,0,0,0,2.077,4.766c.21.312.361.462.643.462a.988.988,0,0,0,.627-.3,46.146,46.146,0,0,0,3.9-4.91l.007-.01c.121-.162.442-.59.874-.59.162,0,.542,0,3.66,3.118.231.231.619.62.619,1.008,0,.438-.31.71-.812.71h-.408a.969.969,0,0,0-.823.294,62.727,62.727,0,0,1-4.343,4.648,1.232,1.232,0,0,0-.5.977,1.137,1.137,0,0,0,.313.743l.008.01a39.268,39.268,0,0,0,7.205,7.61l.093.077c.357.292.9.735.9,1.2,0,.675-1.079,1.815-1.409,2.149-.68.685-1.589,1.417-2.106,1.417-.937,0-3.742-2.942-3.769-2.972a46.538,46.538,0,0,1-6.814-10.145.15.15,0,0,0-.127-.092c-.031,0-.053.026-.1.185l0,0v10.168c0,.6.039,1.211.076,1.8s.076,1.205.076,1.823c0,1.665-.274,3.316-2.267,4.112a20.032,20.032,0,0,1-6.143.831l-.381,0A2.5,2.5,0,0,1,760.909-3211.062Zm-61.025-.21c-2.615,0-4.2-.422-5.133-1.37-1.205-1.22-1.181-3.151-1.148-5.823.006-.456.012-.928.012-1.422v-10.636c-.006-.031-.012-.064-.017-.1-.057-.349-.136-.639-.547-.639a.989.989,0,0,0-.309.054l-.131.037a6.272,6.272,0,0,1-1.7.623c-.5,0-1.06-.654-1.666-1.945a9.434,9.434,0,0,1-.778-2.182c0-.913,1.286-1.384,3.621-2.239l.378-.139a1.592,1.592,0,0,0,1.152-1.753v-5.508c0-.222,0-.445,0-.666a18.034,18.034,0,0,0-.152-3.125l0-.017v-.017a1.781,1.781,0,0,0-.023-.227,2.068,2.068,0,0,1-.027-.283c0-.812.72-.812,1.067-.812.659,0,2.43.1,3.6.164l.744.041h.013c.049.006.106.012.167.018.466.044,1.334.126,1.334.844,0,.4-.344.6-.62.767-.065.039-.126.075-.183.114-.484.308-.523,1.42-.523,2.842v3.653c.005.03.01.063.015.1.055.377.138.688.6.688a1.247,1.247,0,0,0,.2-.022,1.752,1.752,0,0,1,.216-.027l1.748-.8a1.594,1.594,0,0,0,1.158-1.756v-7.9c0-1.4-.1-2.829-.2-4.167v-.015a1.8,1.8,0,0,0-.024-.227,2.215,2.215,0,0,1-.027-.284c0-.572.376-.862,1.118-.862.636,0,3.873.207,4.5.256h.013c.284.041,1.039.149,1.039.861,0,.356-.238.516-.515.7-.055.037-.113.076-.176.122-.446.363-.482,1.479-.482,2.9V-3245c.005.03.01.063.015.1.055.377.138.688.6.688a.976.976,0,0,0,.319-.03l.01,0,2.346-1.02c.3-.123.6-.264.914-.413a7.953,7.953,0,0,1,3.143-.981,3.132,3.132,0,0,1,2.608,1.407l.006.009a3.417,3.417,0,0,1,.34,1.845c0,3.81-.109,10.747-.409,14.246-.158,2.1-.683,3.4-1.7,4.2-.931.726-2.265,1.037-4.465,1.037h-.256c-1.336,0-2.443-.311-2.443-4.128,0-1.134.5-1.372.914-1.372.093,0,.2.009.323.02.171.014.365.031.595.031,1.354,0,1.433-.334,1.586-1.911a71.791,71.791,0,0,0,.356-7.478v-.089c0-.26.005-.652-.149-.809a.272.272,0,0,0-.212-.075,4.288,4.288,0,0,0-1.105.348c-.224.09-.456.183-.666.253-.593.216-1.091.418-1.615.656-.829.369-1.056.746-1.056,1.756v7.4c0,1.15.04,2.319.077,3.449.037,1.114.076,2.266.076,3.385,0,.729-.106,1.27-.624,1.542a5.241,5.241,0,0,1-2.177.24c-1.945,0-2.75,0-2.75-1.679,0-1.183.04-2.367.077-3.513.038-1.123.076-2.285.076-3.423v-5.282c-.006-.03-.012-.064-.017-.1-.058-.364-.146-.689-.6-.689a1.315,1.315,0,0,0-.387.089l-1.827.812a1.526,1.526,0,0,0-1.105,1.7v13.77c0,1.036.053,1.622.345,1.951s.849.449,2.005.449h10.506a3.155,3.155,0,0,0,2.46-.648c.579-.585.974-1.714,1.321-3.775l0-.025c.152-.913.236-1.416,1.264-1.416a9.845,9.845,0,0,1,2.762.57l.006,0c1.058.371,1.562.738,1.562,1.821a16.987,16.987,0,0,1-2.333,6.7c-1.337,1.871-3.565,2.123-5.568,2.123Zm176.382-1.693a10.513,10.513,0,0,1-3.919-2.419,10.425,10.425,0,0,1-2.45-3.9,15.375,15.375,0,0,1-.842-5.243c0-.788.076-1.805.136-2.624.036-.488.068-.909.068-1.1,0-.968-.721-1.236-1.9-1.594a17.054,17.054,0,0,1-3.044-1.239c-.506-.275-1.076-.587-1.076-1.4a13.508,13.508,0,0,1,.421-2.334c.4-1.46.926-2.2,1.563-2.2a2.592,2.592,0,0,1,1.242.459l.132.078.014.009a9.215,9.215,0,0,0,3.15,1.392c.678,0,.811-.489,1.13-2.034.051-.282.13-.595.212-.925s.17-.681.246-1.056c.022-.15.059-.314.1-.473a3.243,3.243,0,0,0,.1-.615c0-.96-.775-1.237-1.459-1.48l-.045-.016c-3.584-1.382-4.718-1.87-4.718-2.94,0-.719.752-4.586,2.087-4.586a2.689,2.689,0,0,1,1.227.556l.052.035a30.025,30.025,0,0,0,3.209,1.663l.232.108a1.372,1.372,0,0,0,.583.137c.636,0,.814-.467.98-1.076.263-.991.75-2.625,1.179-4.068.327-1.1.635-2.134.81-2.767l.019-.069c.147-.54.3-1.1.939-1.1a7.947,7.947,0,0,1,1.742.521c.3.106.6.215.871.3.125.044.283.1.464.155,1.589.519,3.14,1.092,3.14,1.871,0,.368-.287.572-.555.733l-.013.007-.159.078c-.579.281-.9.437-1.529,2.059-.365.975-.7,1.993-1.028,2.977-.081.248-.163.493-.244.737l0,.011a1.592,1.592,0,0,0-.139.64c0,.671.442.866,1.206.975,1.932.228,3.627.36,5.176.406h.257c.746,0,1.675,0,1.675,1.169a15.154,15.154,0,0,1-.57,3.374c-.2.691-.435,1.263-1.313,1.263a63.344,63.344,0,0,1-6.97-.768l-.029-.007a1.317,1.317,0,0,0-.4-.092c-.6,0-.95.322-1.184,1.077-.184.738-.859,3.817-.859,4.18,0,.8.672.908,1.551.97l.054,0c1.366.137,2.861.2,4.57.2,1.261,0,1.73.289,1.73,1.066a11.382,11.382,0,0,1-.674,3.483c-.269.807-.634,1.308-1.616,1.308a38.879,38.879,0,0,1-3.971-.4l-.848-.111-.024,0a4.883,4.883,0,0,0-.767-.1c-1.132,0-1.177.943-1.177,3.268a6.7,6.7,0,0,0,1.669,4.914,6.694,6.694,0,0,0,4.914,1.669c2.579,0,5.82-.72,7.246-2.329a5.026,5.026,0,0,0,1.071-3.488,21.794,21.794,0,0,0-1.721-7.323,2.937,2.937,0,0,1-.217-.99c0-.619.706-1.156,2.1-1.593a11.3,11.3,0,0,1,2.438-.494c.847,0,1.1.72,1.411,1.632.049.141.1.286.154.438a28.115,28.115,0,0,1,1.695,8.994,10.071,10.071,0,0,1-1.273,5.1,9.7,9.7,0,0,1-3.316,3.363,18.515,18.515,0,0,1-9.688,2.4A15.594,15.594,0,0,1,876.266-3212.964Zm41.684-.215-.042-.05a31.09,31.09,0,0,0-7.7-6.892l-.029-.016c-.393-.225-.987-.563-.987-1.125a4.885,4.885,0,0,1,1.465-2.249c.346-.356,1.525-1.521,2.2-1.521.788,0,3.853,2.341,5.539,3.724,1.237,1.014,2.359,2.012,3.159,2.811,1.3,1.3,1.447,1.75,1.447,1.978A4.977,4.977,0,0,1,921.53-3214c-.351.376-1.566,1.606-2.448,1.606C918.6-3212.393,918.226-3212.847,917.951-3213.179Zm-109.157-2.54c-2.107-4.258-3.131-9.409-3.131-15.744a62.152,62.152,0,0,1,2.608-16.934c.03-.1.059-.2.088-.3a20.072,20.072,0,0,0,.571-2.233l0-.008c.007-.031.013-.063.021-.1.1-.472.256-1.184.94-1.184a43.382,43.382,0,0,1,5.48,2.156l.051.019c.436.162,1.094.408,1.094,1.033,0,.368-.228.5-.572.7l-.239.139-.01,0c-.792.42-.976.808-1.489,2.091a40.435,40.435,0,0,0-2.841,14.41c0,.386.041,2.182.247,3.91.343,2.885.835,3.03.93,3.03,0,0,.193-.008.613-.707a8.883,8.883,0,0,0,.579-1.156l0-.01c.326-.706.667-1.34,1.252-1.34a2.45,2.45,0,0,1,1.239.654c.24.205.8.73.8,1.179a7.955,7.955,0,0,1-.476,1.5c-.585,1.625-1.564,4.345-1.564,5.9,0,.4.1,1.237.165,1.789.014.126.028.236.037.322a4.453,4.453,0,0,1,.1.8c0,.861-1.06,1.563-1.692,1.9a6.216,6.216,0,0,1-2.486.8C810.13-3213.107,809.481-3214.29,808.793-3215.719Zm-132.535-.117c-.028-.081-.052-.151-.073-.206l-.075-.21a19.918,19.918,0,0,1-1.111-3.686c0-.8.762-.94,1.267-1.031.059-.01.114-.021.168-.031a21.306,21.306,0,0,0,3.486-1.061,1.392,1.392,0,0,0,1.1-1.6v-13.26c0-.823-.284-1.131-1.081-1.177-.405,0-1.242.032-1.981.061-.562.022-1.047.041-1.227.041a1.121,1.121,0,0,1-.836-.284c-.386-.386-.385-1.083-.384-2.24v-.472c0-1.227,0-1.9.371-2.276a1.131,1.131,0,0,1,.85-.279c.5,0,2.531.051,3.215.1.752-.046,1.074-.413,1.074-1.228v-4.9a34.067,34.067,0,0,0-.15-3.992,2.694,2.694,0,0,1-.054-.649c0-.914.748-.914,1.067-.914.662,0,4.785.294,4.961.306h.011l.073.009c.427.052,1.224.147,1.224.853,0,.457-.361.663-.779.9-.075.042-.153.086-.234.135-.449.287-.517.608-.517,2.431v5.814c0,.823.3,1.132,1.131,1.177.448,0,.888-.012,1.354-.025s.952-.026,1.446-.026a1.142,1.142,0,0,1,.865.274c.357.357.356,1.037.356,2.269v.5c0,1.16,0,1.86-.368,2.231a1.135,1.135,0,0,1-.852.28c-.135,0-.551-.019-1.032-.04-.622-.028-1.4-.062-1.717-.062-.883.045-1.182.342-1.182,1.177v11.415c.058.567.226.779.616.779a2.642,2.642,0,0,0,.7-.189c.1-.033.2-.069.3-.105.292-.113.646-.26.988-.4a8.259,8.259,0,0,1,1.732-.629.9.9,0,0,1,.658.275c.619.621.616,2.153.614,2.889v.1c0,1.158-.163,1.564-1.24,2.019-3.713,1.705-7.487,3.226-11.542,4.646-1,.333-1.017.391-1.253,1.1l0,.011q-.016.04-.032.086c-.1.263-.264.7-.765.7C676.855-3214.229,676.537-3215.022,676.258-3215.836Zm144.581-2.758c-1.934-1.2-2.836-2.517-2.836-3.027a8.123,8.123,0,0,1,1.04-2.534c.52-.913,1.275-2,1.914-2a1.086,1.086,0,0,1,.82.536,9.117,9.117,0,0,0,3.342,2.739,10.181,10.181,0,0,0,4.253.754,41.325,41.325,0,0,0,11.156-1.622,3.834,3.834,0,0,1,1.134-.214c1.064,0,1.118,1.53,1.118,4.025,0,.04,0,.081,0,.122,0,.617.008,1.55-.717,1.941-1.462.782-10.164,1.553-12.182,1.553A16.89,16.89,0,0,1,820.84-3218.594Zm-81.165-3.636,0-.008a13.363,13.363,0,0,0-.5-1.807l-.009-.025c-.007-.031-.016-.067-.026-.1a3.3,3.3,0,0,1-.132-.71c0-.665.731-.786,1.167-.859.1-.016.189-.031.259-.049l.013,0,.243-.042c1.092-.19,2.22-.385,3.255-.668.887-.266,1.13-.608,1.13-1.592v-6.732c0-.846-.263-1.133-1.08-1.177-.429,0-.867.013-1.29.025s-.87.026-1.307.026a1.145,1.145,0,0,1-.861-.283c-.361-.361-.36-1-.358-2.05v-.212c0-.135,0-.265,0-.388-.005-.974-.009-1.616.347-1.975a1.158,1.158,0,0,1,.873-.285c.214,0,.622.02,1.1.044.536.027,1.143.058,1.5.058.777-.042,1.08-.387,1.08-1.229v-5.252c0-.823-.3-1.132-1.131-1.177-.37,0-1.166.032-1.869.06-.565.022-1.053.041-1.237.041a1.167,1.167,0,0,1-.868-.289c-.361-.364-.357-.992-.353-1.944,0-.116,0-.238,0-.364s0-.256,0-.376c0-.974-.008-1.618.355-1.984a1.161,1.161,0,0,1,.866-.288c.345,0,.85.017,1.434.039.794.028,1.781.063,2.7.063h5.814c.916,0,1.9-.035,2.7-.063.584-.021,1.089-.039,1.434-.039a1.153,1.153,0,0,1,.865.278c.358.358.357.99.356,2.136v.459c0,1.082,0,1.735-.354,2.092a1.154,1.154,0,0,1-.867.279c-.082,0-.537-.014-1.113-.034-.858-.028-2.031-.066-2.349-.067-.768.044-1.081.385-1.081,1.177v5.252c0,.817.324,1.185,1.081,1.229.452,0,.9-.026,1.335-.051s.9-.05,1.363-.05a1.174,1.174,0,0,1,.881.282c.348.35.346.958.34,1.967,0,.126,0,.259,0,.4v.219c0,1.056,0,1.694-.351,2.048a1.161,1.161,0,0,1-.869.28c-.4,0-.835-.013-1.292-.025s-.923-.026-1.36-.026c-.811,0-1.127.33-1.127,1.177v5.448c.075.788.417.88.668.88a1.218,1.218,0,0,0,.208-.026,1.556,1.556,0,0,1,.16-.023l.244-.09a19.01,19.01,0,0,1,3.06-.983c1.271,0,1.271,2.369,1.271,3.261a1.681,1.681,0,0,1-1.041,1.816c-2.254.979-8.505,2.9-11.5,3.781l-.005,0c-1.164.3-1.172.328-1.392.945a.858.858,0,0,1-.8.694C740.532-3219.125,740.135-3220.564,739.675-3222.229Zm19.2-8.331c-.023-.076-.047-.153-.071-.228l0-.006a40.346,40.346,0,0,0-2.641-6.5l-.005-.014c-.019-.046-.039-.093-.059-.141a2.075,2.075,0,0,1-.211-.749c0-1.1,2.9-2.189,3.515-2.189a1.28,1.28,0,0,1,1.2.874,31.14,31.14,0,0,1,1.4,2.948c.112.261.225.523.34.785l0,.006.083.206a18.334,18.334,0,0,1,1.309,3.948c0,.639-.841,1.215-1.548,1.586a5.856,5.856,0,0,1-2.069.7C759.253-3229.325,759.044-3230.009,758.875-3230.56Zm62.584-12.109c-.609-.388-.6-1.414-.6-2.026,0-.046,0-.089,0-.13,0-2.263.2-3.413,1.271-3.413a5.871,5.871,0,0,1,1.238.227l.133.033a32.433,32.433,0,0,0,6.636.76,33.089,33.089,0,0,0,7.7-1.014l.008,0c.059-.012.123-.026.191-.042a3.655,3.655,0,0,1,.767-.115c.986,0,1.154,1.011,1.217,1.392l0,.011a25.323,25.323,0,0,1,.205,2.776c0,1.058,0,1.642-1.128,1.879a59.313,59.313,0,0,1-8.609.718C829.179-3241.615,822.628-3241.89,821.459-3242.669Zm-44.381-6.9c-.1-.181-.223-.386-.355-.607a26.319,26.319,0,0,0-2.174-3.085l-.007-.009-.067-.086a1.658,1.658,0,0,1-.432-.85c0-.464.558-.978,1.66-1.524a6.867,6.867,0,0,1,2.059-.717c.995,0,2.492,2.237,2.81,2.729a1.549,1.549,0,0,1,.168.25,3.014,3.014,0,0,0,.238.361l.009.011.116.168a7.66,7.66,0,0,1,1.449,2.546c0,1.178-3.284,2.239-4.025,2.239C777.905-3248.144,777.594-3248.681,777.078-3249.573Z" transform="translate(-271 7729.317)" fill="#009f39"/>
    </g>
  </g>
</svg>
