<svg xmlns="http://www.w3.org/2000/svg" width="586.113" height="108.859" viewBox="0 0 586.113 108.859">
  <g id="earth_modal_item4_title" transform="translate(-84.075 -324.208)">
    <path id="パス_6091" data-name="パス 6091" d="M-196.172-42.5a15.1,15.1,0,0,1,.43-2.227q.2-.586.313-1.016a5.726,5.726,0,0,0,.039-1.6,9.777,9.777,0,0,0,.781-1.914q.156-.664,1.211-.664a2.925,2.925,0,0,1,1.758.508,2.261,2.261,0,0,1,.859,1.6,2.248,2.248,0,0,1-.273,1.68,12.967,12.967,0,0,0-.9,1.445,5.41,5.41,0,0,1-1.016,1.8,8.412,8.412,0,0,1-.352,1.758q-.2.508-.469,1.172a12.073,12.073,0,0,0-.469,1.367q-.2.7-.7,2.07t-1.211,4.1q-.7,2.734-1.094,4.609,2.969-.156,8.281-.508t6.523-.391q1.211-.039,5.508-.43a10,10,0,0,1,3.477.078,1.413,1.413,0,0,1,1.016,1.445,1.692,1.692,0,0,1-.508,1.523,2.956,2.956,0,0,1-1.094.508,7.912,7.912,0,0,1-1.133.156q-.586.039-2.461-.039a3.247,3.247,0,0,0-1.484-.234,7.355,7.355,0,0,1-1.875-.117q-1.25-.2-1.68.234t-1.68-.039a4.843,4.843,0,0,0-.937.313.778.778,0,0,1-.781-.156,5.052,5.052,0,0,0-1.523.156,2.217,2.217,0,0,1-.937.117,2.465,2.465,0,0,0-.9.078,2.524,2.524,0,0,1-1.016.039,3.64,3.64,0,0,0-1.367.313,1.828,1.828,0,0,1-1.016.2,9.45,9.45,0,0,0-1.445.039,3.708,3.708,0,0,1-1.406.547,8.96,8.96,0,0,1-1.094.078,2.293,2.293,0,0,1-1.25-.625q-1.094,3.594-1.875,6.992a27.368,27.368,0,0,0-.781,6.055,4.766,4.766,0,0,0,0,1.758,3.821,3.821,0,0,1-.078,1.68,10.832,10.832,0,0,0,.859,2.5,10.055,10.055,0,0,0,1.328,1.016,1.659,1.659,0,0,1,.781.977,6.114,6.114,0,0,1,.2,1.055,2.637,2.637,0,0,1-.43,1.328,1.321,1.321,0,0,1-1.25.82,4.245,4.245,0,0,1-1.367-.273,5.19,5.19,0,0,1-1.6-1.406,5.847,5.847,0,0,1-.977-1.484,8.11,8.11,0,0,1-.547-1.8,15.867,15.867,0,0,1-.156-3.047,27.35,27.35,0,0,1,.2-3.125q.156-1.094.313-2.5,1.406-6.328,2.422-10.117t1.758-6.836q.742-3.047,1.367-5.859a9.873,9.873,0,0,1,.469-1.875,3.1,3.1,0,0,0,.43-1.6,1.068,1.068,0,0,1,.117-.82Zm-5.547-7.5a5.7,5.7,0,0,0-3.125,1.016,2.757,2.757,0,0,0,1.484.781,1.362,1.362,0,0,1,1.055.625,2.755,2.755,0,0,1,.43,1.133,1.472,1.472,0,0,1-.547,1.211,5.125,5.125,0,0,1-1.133.9,2.344,2.344,0,0,1-1.562.039,10.354,10.354,0,0,1-2.7-1.172,3.982,3.982,0,0,1-1.484-.742,2.2,2.2,0,0,1-.781-1.367,2.376,2.376,0,0,1,.117-1.445q.273-.586.664-1.367a1.7,1.7,0,0,1,1.328-.937,22.513,22.513,0,0,0,2.578-1.094q.859-.078,3.008-.43t5.469-.625q3.32-.273,6.406-.391t8.867-.2h9.688q3.984.156,4.8.117a9.267,9.267,0,0,1,1.836.117,6.941,6.941,0,0,1,2.188-.156,7.034,7.034,0,0,0,1.8.078,1.9,1.9,0,0,1,1.563.625,1.661,1.661,0,0,1,.43,1.719A1.922,1.922,0,0,1-160.43-50.2a3.017,3.017,0,0,1-1.523.273,7.582,7.582,0,0,1-1.445-.312,15.849,15.849,0,0,0-1.758-.43,18.189,18.189,0,0,0-2.344-.273q-2.656-.156-3.477-.2t-2.93-.234q-2.109-.2-8.008-.117t-10.859.508q-4.961.43-6.172.586T-201.719-50Zm88.984-.625q1.719,2.344,1.523,3.2t-.312,1.563a1.612,1.612,0,0,1-.664,1.094q-.859,1.563-1.836,1.641a2.089,2.089,0,0,1-1.758-.781,2,2,0,0,1-.625-1.719q.313-.547.625-1.055a2.253,2.253,0,0,0,0-1.68,15.052,15.052,0,0,0-3.125-2.656,15.39,15.39,0,0,0-2.344-1.094,23.1,23.1,0,0,0-2.656-.742,11.878,11.878,0,0,0-2.422-.352,7.549,7.549,0,0,1-1.875-.078,2.48,2.48,0,0,1-1.641-.078,2.924,2.924,0,0,0-1.445.352,2.029,2.029,0,0,1-1.133.313,1.52,1.52,0,0,0-1.094.391,3.413,3.413,0,0,1-1.562.664,1.751,1.751,0,0,1-.82.117.671.671,0,0,0-.664.313,2.28,2.28,0,0,1-1.133.664,3.973,3.973,0,0,0-1.211.586,2.315,2.315,0,0,1-.742.43,1.388,1.388,0,0,0-.7.586,1.414,1.414,0,0,1-1.133.508,1.836,1.836,0,0,1-1.562.938q-1.016,1.094-1.367,1.523a2.7,2.7,0,0,1-.9.7,1.155,1.155,0,0,0-.664.781,3.461,3.461,0,0,1-.7,1.25,3.6,3.6,0,0,0-.742,1.523l-.078,1.406q-.078.078.078.9a3.042,3.042,0,0,0,1.25,1.68,41.323,41.323,0,0,0,7.422,4.844q3.984,2.031,8.047,4.453,2.109,1.25,4.3,2.656a40.792,40.792,0,0,1,4.063,2.969,13.628,13.628,0,0,1,3.164,3.867,7.28,7.28,0,0,1,.859,4.883,8.823,8.823,0,0,1-1.094,3.477,9.677,9.677,0,0,0-.977,1.563,1.668,1.668,0,0,1-1.094.9,4.827,4.827,0,0,0-1.133,1.016,3.7,3.7,0,0,1-1.133.938,4.4,4.4,0,0,1-1.367.508,2.3,2.3,0,0,0-1.055.43q-.391.313-.7.586t-1.328.039q-.078.7-1.25.625-2.187.7-3.516,1.016-2.891.391-5.7.859a22.422,22.422,0,0,0-2.656,0,.95.95,0,0,1-1.055.117,1.065,1.065,0,0,0-.977-.078,3.338,3.338,0,0,1-1.562.039A9.872,9.872,0,0,1-146.8-2.5a6.066,6.066,0,0,1-2.891-.859,6.007,6.007,0,0,1-2.3-2.07,7.261,7.261,0,0,1-.977-2.461,7.108,7.108,0,0,1-.391-1.992,11.065,11.065,0,0,1,.078-1.367,1.92,1.92,0,0,1,.586-1.133,1.53,1.53,0,0,1,1.094-.508,5.962,5.962,0,0,1,1.172.117,1.664,1.664,0,0,1,.977.586,1.56,1.56,0,0,1,.234,1.328,8.146,8.146,0,0,0-.156,1.6,5.675,5.675,0,0,0,.2,1.523,3.223,3.223,0,0,0,1.133,1.484q1.641,1.328,6.25,1.328a37.235,37.235,0,0,0,7.539-.625,27.832,27.832,0,0,0,5.82-1.953,17.906,17.906,0,0,0,4.531-2.812,7.186,7.186,0,0,0,2.109-3.32,4.823,4.823,0,0,0-.039-3.047,13.632,13.632,0,0,0-1.211-2.383q-.781-.625-1.523-1.328t-1.289-1.328a2.769,2.769,0,0,0-.977-.9,2.38,2.38,0,0,1-.7-.391,1.242,1.242,0,0,0-.781-.273.827.827,0,0,1-.7-.391,3.532,3.532,0,0,0-.9-.82q-.625-.43-2.812-1.68a1.779,1.779,0,0,1-1.094-.625,1.779,1.779,0,0,0-1.094-.625q-.937,0-.977-.312t-.586-.586a2.8,2.8,0,0,0-.977-.312q-.43-.039-.82-.664a1.406,1.406,0,0,1-1.25-.469,11.544,11.544,0,0,1-1.719-.937,3.34,3.34,0,0,1-1.719-1.016,14.149,14.149,0,0,1-4.727-2.773,9.717,9.717,0,0,1-2.891-4.531,6.068,6.068,0,0,1,.742-5.2,20.693,20.693,0,0,1,4.453-5.078,30.044,30.044,0,0,1,5.82-3.75,28.359,28.359,0,0,1,6.25-2.266,32.446,32.446,0,0,1,4.3-.781,20.639,20.639,0,0,1,2.539,0,25.813,25.813,0,0,1,4.219.313,18.886,18.886,0,0,1,2.93.82q.82.352,2.969,1.523A13.668,13.668,0,0,1-112.734-50.625Zm55,31.406q-1.172.938-1.562,1.289t-2.422,1.914a11.166,11.166,0,0,1-1.641,1.055,4.194,4.194,0,0,0-1.211.9,2.9,2.9,0,0,1-1.172.781,2.6,2.6,0,0,0-.977.547,3.432,3.432,0,0,1-1.016.625,11.23,11.23,0,0,0-1.562.977,3.23,3.23,0,0,1-1.484.586,38.255,38.255,0,0,1-5.586,3.125,43.169,43.169,0,0,1-5.273,2.188,17.772,17.772,0,0,1-3.281.7,1.9,1.9,0,0,1-1.562.313,1.173,1.173,0,0,0-.977-.039,4.72,4.72,0,0,1-1.68.2,18.763,18.763,0,0,1-1.953-.078,14.235,14.235,0,0,0-1.562-.078,3.635,3.635,0,0,1-1.875-.625,1.793,1.793,0,0,1-1.562-.781q-1.25.078-1.406-.859a2.668,2.668,0,0,1-1.445-.508,5.807,5.807,0,0,1-.781-1.055q-.43-.7-1.445-2.344a11.175,11.175,0,0,1-1.328-4.687,5.591,5.591,0,0,1-.234-1.406,4.844,4.844,0,0,1,.156-1.172,6.181,6.181,0,0,0,.156-1.484,3.147,3.147,0,0,1,.078-1.914q.313-.586.586-1.25a8.33,8.33,0,0,0,.43-1.367,1.957,1.957,0,0,1,.7-2.031,6.238,6.238,0,0,1,.781-2.344,1.145,1.145,0,0,0,.352-1.016.817.817,0,0,1,.156-.781,1.008,1.008,0,0,0,.234-.781q-.039-.469.9-.937a1.886,1.886,0,0,1,.313-1.328,2.565,2.565,0,0,1,.781-1.641q.078-1.25.625-1.406t.859-1.094A3.268,3.268,0,0,0-95-38.4a2.041,2.041,0,0,1,.469-1.055,13.665,13.665,0,0,0,1.016-1.484q1.094-1.563,2.266-2.969a40.4,40.4,0,0,1,3.047-3.2q1.875-1.8,3.672-3.2a18.58,18.58,0,0,1,3.594-2.3,28.031,28.031,0,0,1,3.281-1.211,7.425,7.425,0,0,1,2.031-.312,7.725,7.725,0,0,1,1.094.078,14.42,14.42,0,0,1,2.266.664,5.434,5.434,0,0,1,1.563.977,3.123,3.123,0,0,1,1.289.938,2.835,2.835,0,0,0,.938.82q.43.2.664,1.211a5.538,5.538,0,0,1,1.172,2.383,11.321,11.321,0,0,1,.234,3.047,9.715,9.715,0,0,1-.469,2.773,2.035,2.035,0,0,1-1.719,1.328,2.068,2.068,0,0,1-1.6-.2,1.859,1.859,0,0,1-1.016-1.133,1.686,1.686,0,0,1,.117-1.289,13.753,13.753,0,0,0,.781-2.07,3.86,3.86,0,0,0-.234-2.539,6.294,6.294,0,0,0-1.953-2.3,3.868,3.868,0,0,0-3.2-1.094,8.73,8.73,0,0,0-3.711,1.172,32.112,32.112,0,0,0-3.4,2.266,39.075,39.075,0,0,0-8.359,9.063,14.186,14.186,0,0,0-1.641,2.461,12.47,12.47,0,0,1-1.016,1.758q-2.109,3.906-2.656,5.234t-1.484,4.1A30.3,30.3,0,0,0-99.3-17.969a15.428,15.428,0,0,0,.2,4.453,8.171,8.171,0,0,0,1.289,2.344q1.094,1.016,2.93,2.461T-89.023-7.3a23.118,23.118,0,0,0,7.7-1.367,47.821,47.821,0,0,0,7.266-3.359q2.109-1.172,3.672-2.148a28.289,28.289,0,0,0,2.5-1.719q.938-.742,1.6-1.172a19.4,19.4,0,0,0,1.992-1.6q1.328-1.172,2.7-2.5t1.758-1.8a4.314,4.314,0,0,1,1.25-.937,2.579,2.579,0,0,1,1.6-.391,1.211,1.211,0,0,1,1.094.938,4.326,4.326,0,0,1,.2,1.719,1.824,1.824,0,0,1-.586,1.289Q-56.8-19.922-57.734-19.219ZM-7.969-30.625a2.021,2.021,0,0,1-1.914.586,2.637,2.637,0,0,1-1.289-.742,1.652,1.652,0,0,1-.273-1.328,1.955,1.955,0,0,1,.977-1.406,7.994,7.994,0,0,1,2.461-.742q1.367-.2,3.242-.586a7.738,7.738,0,0,1,2.422-.273,9.709,9.709,0,0,0,2.578-.2,6.118,6.118,0,0,1,2.031.469q1.25.469,1.133,1.484a1.588,1.588,0,0,1-.7,1.328,3.473,3.473,0,0,1-1.211.391A10.312,10.312,0,0,0-2.5-31.953,15.594,15.594,0,0,0-7.969-30.625ZM.7-23.75q-2.5.078-4.609.273a29.034,29.034,0,0,0-6.172,1.6,2.579,2.579,0,0,1-1.953-.352,2.814,2.814,0,0,1-.9-1.445q-.273-.937.977-1.719,1.953-.469,2.578-.664a4.827,4.827,0,0,1,1.719-.117,8.326,8.326,0,0,1,3.047-.664q1.563-.039,2.93-.2a15.253,15.253,0,0,1,2.3-.117,18.064,18.064,0,0,0,2.031-.039A2.576,2.576,0,0,1,4.1-26.016a1.767,1.767,0,0,1-.2,1.953,3.5,3.5,0,0,1-1.562.43A6.773,6.773,0,0,1,.7-23.75ZM-20.156-40.156q1.8-.547,3.75-1.016a19.333,19.333,0,0,1,3.4-.547,28.717,28.717,0,0,0,2.93-.312q3.906-.234,4.844-.352a10.777,10.777,0,0,1,2.07-.039q1.133.078,5.43-.039a31.553,31.553,0,0,1,5.391.117,4.239,4.239,0,0,1,1.875.2,5.416,5.416,0,0,1,1.211.742,3.346,3.346,0,0,1,.938,1.758,2.026,2.026,0,0,1-.469,2.109,2.54,2.54,0,0,1-1.836.82,1.823,1.823,0,0,1-1.367-.391A3.478,3.478,0,0,1,7.383-38.4a1.239,1.239,0,0,0-1.133-.977,1.419,1.419,0,0,1-1.406-.156,16.924,16.924,0,0,0-2.812-.078,2.18,2.18,0,0,1-1.641-.234,4.708,4.708,0,0,1-1.641.156,2.259,2.259,0,0,0-1.211.156,1.481,1.481,0,0,1-1.367-.312,2.233,2.233,0,0,1-1.68.547,4.781,4.781,0,0,0-1.367-.117,8.7,8.7,0,0,0-1.406.2,4.871,4.871,0,0,1-1.523.078,8.871,8.871,0,0,0-2.383.234,18.092,18.092,0,0,1-2.422.313,1.878,1.878,0,0,1-1.328.586,1.683,1.683,0,0,0-1.172.391,6.122,6.122,0,0,1-1.562.82A4.771,4.771,0,0,1-20.2-35.43q-.9.508-1.953-.625a1.768,1.768,0,0,1-.508-2.148A5.4,5.4,0,0,1-20.156-40.156Zm18.594-6.172q.7-1.406,1.016-2.227T.508-51.445a35.516,35.516,0,0,0,1.367-6.367q-.781-1.094-1.289-1.68A1.091,1.091,0,0,1,.469-60.82a2.865,2.865,0,0,1,1.563-1.211,2.173,2.173,0,0,1,1.758.313,5.369,5.369,0,0,1,.977,1.289,6.323,6.323,0,0,1,.625,2.461,11,11,0,0,0-.273,2.07,2.923,2.923,0,0,1-.508,1.68,1.2,1.2,0,0,1,.078,1.367,6.245,6.245,0,0,0-.781,1.523A.853.853,0,0,1,3.828-50.2,2.636,2.636,0,0,0,3.2-48.867a20.8,20.8,0,0,1-1.016,3.008,1.244,1.244,0,0,1-.664,1.328,2.444,2.444,0,0,1-2.266,0Q-2.188-45.078-1.562-46.328ZM8.359-6.406q.469,1.172.156,1.641a1.951,1.951,0,0,1-.82.7,4.908,4.908,0,0,1-1.6.313q-4.531.781-5.352.82a6.561,6.561,0,0,0-1.68.313q-.859.273-1.6.469A3.215,3.215,0,0,1-4.3-2.266a8.063,8.063,0,0,1-1.562.547,10,10,0,0,1-1.094.2,1.014,1.014,0,0,1-.82-.469,2.135,2.135,0,0,1-.508-1.133,5.99,5.99,0,0,1,0-1.367,1.112,1.112,0,0,1,.938-.977q.859-.313,1.641-.547t2.891-.859Q-1.8-7.656-1.25-8.008T.469-9.219A5.884,5.884,0,0,1,1.8-10.937a7.32,7.32,0,0,0,1.484-1.875q.781-1.484.508-1.953a1.846,1.846,0,0,0-.937-.742,1.424,1.424,0,0,0-1.172-.039,1.474,1.474,0,0,1-1.055.078,2.176,2.176,0,0,0-1.641,0,1.868,1.868,0,0,1-1.328.156,2.681,2.681,0,0,1-1.367.43,5.209,5.209,0,0,0-1.992.664A13.875,13.875,0,0,1-6.875-12.93a2.329,2.329,0,0,1-1.25.469,1.636,1.636,0,0,1-1.25-.2A2.116,2.116,0,0,1-10-13.633a1.9,1.9,0,0,1,.078-1.406,3.076,3.076,0,0,1,1.484-1.367,15.124,15.124,0,0,1,3.75-1.328A27.122,27.122,0,0,1-.977-18.4q1.836-.2,2.969-.234a5.642,5.642,0,0,1,2.3.43,5.849,5.849,0,0,1,1.992,1.289,3.243,3.243,0,0,1,.977,1.758,4.034,4.034,0,0,1-.234,2.031q-.7,1.25-1.562,2.578T4.1-8.516q-.508.7-1.367,1.8a15.6,15.6,0,0,1,4.375-.508A2.565,2.565,0,0,1,8.359-6.406ZM-15.7-15.078q.312-1.719.547-2.812a3.839,3.839,0,0,1,.547-1.484,1.927,1.927,0,0,1,1.289-.508,1.866,1.866,0,0,1,1.445.273,1.436,1.436,0,0,1,.547.859,4.994,4.994,0,0,1-.391,1.875q-.547,1.25-1.016,2.188a14.029,14.029,0,0,1,0,2.148q-.078.586-.234,1.6-.078,1.406-.156,1.914a3.625,3.625,0,0,0,.039,1.172A14.432,14.432,0,0,0-12.422-5.7a2.577,2.577,0,0,0,1.406,1.641A2.514,2.514,0,0,1-9.687-2.891a1.384,1.384,0,0,1-.2,1.289,2.126,2.126,0,0,1-1.133.9,2.135,2.135,0,0,1-1.641-.234,21.034,21.034,0,0,1-1.8-1.719,7.958,7.958,0,0,1-.937-2.383A16.611,16.611,0,0,1-15.9-9.766Q-15.859-12.578-15.7-15.078ZM31.8-30.937a40.24,40.24,0,0,0,2.422,6.25,3.663,3.663,0,0,0,1.8-.547,14.16,14.16,0,0,0,1.992-1.8,36.147,36.147,0,0,0,2.773-3.281q1.484-1.953,2.891-3.906a33.544,33.544,0,0,0,2.656-4.414,17.1,17.1,0,0,0,1.641-4.57A5.933,5.933,0,0,0,48.4-45a2.046,2.046,0,0,0-.586-1.484,2.742,2.742,0,0,0-1.289-1.055l-1.484-.547a4.714,4.714,0,0,0-1.641-.273,3.148,3.148,0,0,1-1.367-.234q-1.328-.078-2.656-.078t-2.344-.078a11.056,11.056,0,0,1-2.656.156,7.164,7.164,0,0,0-1.25.273,2.538,2.538,0,0,1-1.328.039,3.633,3.633,0,0,1-2.109.234,3.238,3.238,0,0,1-1.758.547,4.207,4.207,0,0,0-1.758.391q-1.094.391-3.125,1.172t-2.969,1.25a4.018,4.018,0,0,0-1.68,1.328,2.5,2.5,0,0,1-.977.977,1.833,1.833,0,0,1-1.25.117,5.743,5.743,0,0,1-1.328-.469,1.728,1.728,0,0,1-.82-1.328,2.2,2.2,0,0,1,.664-1.953A8.433,8.433,0,0,1,18.2-47.7q2.578-.742,4.141-1.289,1.875-.547,3.438-.859A57.19,57.19,0,0,1,36.8-51.25a5.093,5.093,0,0,1,1.406.039,2.119,2.119,0,0,0,1.328-.2,5.323,5.323,0,0,1,2.109.313,8.893,8.893,0,0,1,2.891,0,14.6,14.6,0,0,1,2.422.547,8.934,8.934,0,0,1,2.3,1.094A5.92,5.92,0,0,1,50.9-47.891a3.385,3.385,0,0,1,.586,1.953q0,1.094-.039,1.914a7.618,7.618,0,0,1-.586,2.227,23.068,23.068,0,0,1-1.484,3.047,11.737,11.737,0,0,0-.742,1.094q-.273.469-.9,1.563-.078,1.172-.547,1.445a1.848,1.848,0,0,0-.742.977,2.332,2.332,0,0,1-.742,1.055,2.349,2.349,0,0,0-.742,1.016,5.853,5.853,0,0,1-1.289,1.68A15.43,15.43,0,0,0,42.5-28.281a3.438,3.438,0,0,1-1.172,1.094q-.234.469-.586,1.055a7.262,7.262,0,0,1-.937,1.211q-.586.625-1.25,1.289a6.012,6.012,0,0,1-1.211.977,15.539,15.539,0,0,0-1.484,1.016,2.645,2.645,0,0,1-1.719.43,3.317,3.317,0,0,1-1.367-.508,3.307,3.307,0,0,1-1.055-1.406q-1.016-2.031-1.328-2.734t-.859-1.953a29.85,29.85,0,0,1-1.172-3.359,1.807,1.807,0,0,1,.82-1.719,1.969,1.969,0,0,1,1.445-.312,1.182,1.182,0,0,1,.859.781A5.72,5.72,0,0,1,31.8-30.937ZM19.063-34.531q-.547-.391-1.094-.859a2.133,2.133,0,0,1-.312-2.109A1.386,1.386,0,0,1,19.3-38.594q1.25-.234,1.719.273l.938,1.016a16.448,16.448,0,0,1,1.641,2.773q.859-1.016,1.563-1.719a15.3,15.3,0,0,0,1.406-1.641,6.777,6.777,0,0,1,1.328-1.719,7.025,7.025,0,0,1,.977-1.8,5.678,5.678,0,0,0,.859-1.523A19.532,19.532,0,0,0,30.391-45a1.609,1.609,0,0,1,1.445-1.172q1.133-.156,1.523.43t.664,1.055q.273.469-.234,1.641a14.282,14.282,0,0,1-1.758,2.813Q31.016-38.75,30.625-38.2t-2.227,2.7a40.35,40.35,0,0,1-2.93,3.164,2.261,2.261,0,0,0,.469,1.172,13.558,13.558,0,0,1,1.094,1.406,1.4,1.4,0,0,1-.117,2.07A2.107,2.107,0,0,1,25-26.914a1.615,1.615,0,0,1-1.25-.9,9.776,9.776,0,0,0-1.094-1.8q-2.188,2.266-3.75,3.672T16.25-23.359q-.859.781-1.641,1.484a2.148,2.148,0,0,1-1.758.586,1.362,1.362,0,0,1-1.25-.977,1.556,1.556,0,0,1,.2-1.484,7.272,7.272,0,0,1,1.172-1.211,8.668,8.668,0,0,1,1.875-1.133,15.912,15.912,0,0,0,2.148-1.68q.664-.664,1.289-1.25t1.289-1.289q.664-.7,1.523-1.484A9.848,9.848,0,0,0,20.039-33.2,7.98,7.98,0,0,1,19.063-34.531Zm10,18.828a1.523,1.523,0,0,1-.742-1.055,2.413,2.413,0,0,1,.117-1.289,1.066,1.066,0,0,1,.742-.742,3.375,3.375,0,0,1,1.055-.2,3.034,3.034,0,0,1,1.016.2,2.135,2.135,0,0,1,1.016,1.211,11.18,11.18,0,0,1,.7,3.281,11.327,11.327,0,0,1,.234,1.953q0,.7.234,2.734a3.014,3.014,0,0,1,.313,1.367,2.229,2.229,0,0,0,.469,1.367,10.536,10.536,0,0,0,1.523,3.242A7.885,7.885,0,0,0,38.4-1.211a3.669,3.669,0,0,0,3.242.273,7.371,7.371,0,0,1,1.289-.937A6.428,6.428,0,0,0,44.3-3.125a4.954,4.954,0,0,0,.977-1.211,1.706,1.706,0,0,1,.586-.7,3.082,3.082,0,0,0,.82-1.25q.43-.977,1.211-2.383.7-1.172,1.328-2.187a1.593,1.593,0,0,1,1.6-.9,1.6,1.6,0,0,1,1.328.781A1.318,1.318,0,0,1,52.3-9.844q-.2.469-.742,1.719-1.016,1.484-1.6,2.383T48.438-3.555a19.987,19.987,0,0,1-2.031,2.383A14,14,0,0,1,43.945.781a7.532,7.532,0,0,1-2.852,1.094A8.136,8.136,0,0,1,39.1,1.719q-.508-.156-1.25-.391a5.7,5.7,0,0,1-1.445-.7A10.04,10.04,0,0,0,34.844-.781a5.061,5.061,0,0,1-1.406-1.562A15.276,15.276,0,0,0,32.7-3.789a6.462,6.462,0,0,1-.664-1.68,4.624,4.624,0,0,0-.586-1.406,2.8,2.8,0,0,1-.43-1.484A1.881,1.881,0,0,1,30.391-10a12.293,12.293,0,0,1-.7-2.773A21.374,21.374,0,0,0,29.063-15.7Zm-17.5,9.531a4.468,4.468,0,0,0,1.211-1.367,4.825,4.825,0,0,1,.664-1.055,5.1,5.1,0,0,1,1.328-1.016A2.606,2.606,0,0,1,16.25-11.25a2.818,2.818,0,0,0,.859-1.484,5.125,5.125,0,0,0,.9-1.133,1.632,1.632,0,0,1,.82-.742,3.34,3.34,0,0,0,.781-1.289,2.935,2.935,0,0,1,.742-1.211,4.8,4.8,0,0,1,1.25-.977,5.286,5.286,0,0,1,1.445-.508,1.374,1.374,0,0,1,1.367.508A2.1,2.1,0,0,1,25-16.68a1.181,1.181,0,0,1-.312.977,5.867,5.867,0,0,0-.625.547,4.234,4.234,0,0,1-1.172.7A52.01,52.01,0,0,1,19.1-9.961q-2.227,2.383-3.711,4.3a12,12,0,0,0-1.719,2.617,9.639,9.639,0,0,1-.859,1.641A3.024,3.024,0,0,1,11.641-.352a1.571,1.571,0,0,1-1.25.156A2.332,2.332,0,0,1,9.375-.977a1.736,1.736,0,0,1-.43-1.211,3.507,3.507,0,0,1,.273-1.172,3.992,3.992,0,0,1,.742-1.289A9.1,9.1,0,0,1,11.563-6.172ZM49.688-20.078a8.1,8.1,0,0,0,1.641,1.563q.547.313,1.25.664a1.84,1.84,0,0,1,.938,1.289,1.168,1.168,0,0,1-.117,1.484,2.03,2.03,0,0,1-1.172.7,1.314,1.314,0,0,1-1.055-.312,14.9,14.9,0,0,1-2.266-1.484,11.529,11.529,0,0,1-2.422-2.578,2.894,2.894,0,0,1-1.133-1.172,2.1,2.1,0,0,1-.234-1.562,1.254,1.254,0,0,1,.977-.977,2.867,2.867,0,0,1,1.484,0,2.236,2.236,0,0,1,1.172.781A7.881,7.881,0,0,1,49.688-20.078Zm-10.7,4.531a5.753,5.753,0,0,0-.43-1.836,7.79,7.79,0,0,1-.508-1.68,2.665,2.665,0,0,1,.469-1.875,2.513,2.513,0,0,1,2.109-.273,2.605,2.605,0,0,1,1.211.742,1.264,1.264,0,0,1,.2.938,8.022,8.022,0,0,0,0,1.6,5.627,5.627,0,0,0,.781,2.3,2.24,2.24,0,0,1,.391,1.6,3.013,3.013,0,0,1-.508,1.133,1.486,1.486,0,0,1-1.094.547,2.1,2.1,0,0,1-1.367-.312Q39.609-13.047,38.984-15.547ZM72.969-30.859a2.089,2.089,0,0,1-1.914.508,2.637,2.637,0,0,1-1.289-.742,1.652,1.652,0,0,1-.273-1.328,1.955,1.955,0,0,1,.977-1.406,7.368,7.368,0,0,1,2.5-.7q1.406-.156,3.281-.547a7.738,7.738,0,0,1,2.422-.273,10.787,10.787,0,0,0,2.578-.117A5.8,5.8,0,0,1,83.242-35q1.211.469,1.094,1.484a1.588,1.588,0,0,1-.7,1.328,3.473,3.473,0,0,1-1.211.391,10.658,10.658,0,0,0-3.984-.352A14.989,14.989,0,0,0,72.969-30.859Zm8.594,6.953q-2.5,0-4.609.2a31.139,31.139,0,0,0-6.172,1.523,2.579,2.579,0,0,1-1.953-.352,2.814,2.814,0,0,1-.9-1.445q-.273-.937.977-1.719,1.953-.469,2.578-.664a4.055,4.055,0,0,1,1.719-.039,8.326,8.326,0,0,1,3.047-.664q1.562-.039,2.93-.156a18.628,18.628,0,0,1,2.3-.078,18.064,18.064,0,0,0,2.031-.039,2.576,2.576,0,0,1,1.445,1.172,1.767,1.767,0,0,1-.2,1.953,3.5,3.5,0,0,1-1.562.43A6.773,6.773,0,0,1,81.563-23.906Zm-20.7-16.641q1.8-.547,3.789-.977a22.408,22.408,0,0,1,3.438-.508,28.717,28.717,0,0,0,2.93-.312q3.906-.156,4.844-.273a10.777,10.777,0,0,1,2.07-.039q1.133.078,5.43.039a34.164,34.164,0,0,1,5.391.2,4.239,4.239,0,0,1,1.875.2,4.189,4.189,0,0,1,1.172.781,3.83,3.83,0,0,1,.9,1.8,1.947,1.947,0,0,1-.469,2.07,2.6,2.6,0,0,1-1.836.781,1.823,1.823,0,0,1-1.367-.391,3.478,3.478,0,0,1-.625-1.289,1.239,1.239,0,0,0-1.133-.977,1.419,1.419,0,0,1-1.406-.156,12.754,12.754,0,0,0-2.812-.156A2.18,2.18,0,0,1,81.406-40a4.068,4.068,0,0,1-1.641.117,2.045,2.045,0,0,0-1.211.117,1.481,1.481,0,0,1-1.367-.312,2.233,2.233,0,0,1-1.68.547,4.781,4.781,0,0,0-1.367-.117,12.9,12.9,0,0,0-1.406.156,5.874,5.874,0,0,1-1.523.039,8.871,8.871,0,0,0-2.383.234,12.321,12.321,0,0,1-2.422.234,1.878,1.878,0,0,1-1.328.586,1.683,1.683,0,0,0-1.172.391,6.122,6.122,0,0,1-1.562.82,4.366,4.366,0,0,1-1.523,1.328q-.9.469-1.953-.664a1.768,1.768,0,0,1-.508-2.148A5.031,5.031,0,0,1,60.859-40.547Zm18.672-5.937a18.556,18.556,0,0,0,1.094-2.227q.313-.82,1.055-2.891a39.113,39.113,0,0,0,1.445-6.367q-.781-1.094-1.289-1.68a1.054,1.054,0,0,1-.078-1.328,3.079,3.079,0,0,1,1.6-1.211,1.788,1.788,0,0,1,1.328.156A4.815,4.815,0,0,1,85.82-60.7a5.818,5.818,0,0,1,.82,2.656,11,11,0,0,0-.273,2.07,2.923,2.923,0,0,1-.508,1.68,1.206,1.206,0,0,1,0,1.328,5.442,5.442,0,0,0-.781,1.484A.853.853,0,0,1,85-50.352a2.636,2.636,0,0,0-.625,1.328,18.093,18.093,0,0,1-1.094,3.008,1.244,1.244,0,0,1-.664,1.328,2.388,2.388,0,0,1-2.266-.039Q78.906-45.312,79.531-46.484Zm9.453,40q.469,1.172.156,1.641a1.951,1.951,0,0,1-.82.7,4.908,4.908,0,0,1-1.6.313q-4.531.7-5.352.742a7.784,7.784,0,0,0-1.68.273q-.859.234-1.641.43a3.343,3.343,0,0,1-1.8-.117,8.063,8.063,0,0,1-1.562.547,10,10,0,0,1-1.094.2q-.391.039-.781-.508a2.535,2.535,0,0,1-.469-1.172,5.99,5.99,0,0,1,0-1.367.993.993,0,0,1,.938-.9q.859-.313,1.641-.547t2.891-.859A15.341,15.341,0,0,1,79.375-8.2q.547-.312,1.8-1.172A5.884,5.884,0,0,1,82.5-11.094a7.32,7.32,0,0,0,1.484-1.875q.781-1.484.547-1.953a1.642,1.642,0,0,0-.9-.742,1.424,1.424,0,0,0-1.172-.039,1.474,1.474,0,0,1-1.055.078,2.287,2.287,0,0,0-1.68,0,1.576,1.576,0,0,1-1.289.078,3.063,3.063,0,0,1-1.445.43A5.209,5.209,0,0,0,75-14.453a13.876,13.876,0,0,1-1.172,1.289,2.141,2.141,0,0,1-1.25.43,1.741,1.741,0,0,1-1.25-.234,2.117,2.117,0,0,1-.625-.977,1.793,1.793,0,0,1,.117-1.406,3.325,3.325,0,0,1,1.523-1.367,17.59,17.59,0,0,1,3.75-1.25,23.506,23.506,0,0,1,3.711-.625q1.836-.156,2.969-.2a5.3,5.3,0,0,1,2.3.469,6.352,6.352,0,0,1,1.992,1.328,3.013,3.013,0,0,1,.938,1.758,4.4,4.4,0,0,1-.273,2.031q-.7,1.25-1.562,2.539T84.766-8.672q-.547.7-1.406,1.8a16.259,16.259,0,0,1,4.375-.43A2.565,2.565,0,0,1,88.984-6.484ZM65.078-15.469q.313-1.719.547-2.812a3.437,3.437,0,0,1,.547-1.445,2.081,2.081,0,0,1,1.289-.469,1.866,1.866,0,0,1,1.445.273,1.436,1.436,0,0,1,.547.859,4.994,4.994,0,0,1-.391,1.875A21.348,21.348,0,0,1,67.969-15a14.029,14.029,0,0,1,0,2.148q-.078.586-.234,1.6a13.488,13.488,0,0,1-.2,1.914,2.946,2.946,0,0,0,0,1.172A14.431,14.431,0,0,0,68.2-6.016a2.577,2.577,0,0,0,1.406,1.641A2.514,2.514,0,0,1,70.938-3.2,1.335,1.335,0,0,1,70.7-1.914a2.313,2.313,0,0,1-1.172.9,2.135,2.135,0,0,1-1.641-.234,13.1,13.1,0,0,1-1.758-1.758,10.163,10.163,0,0,1-.9-2.422,15.842,15.842,0,0,1-.469-4.727Q64.844-12.969,65.078-15.469Zm45.938-10.469q.625-4.063.664-4.961a6.269,6.269,0,0,1,.313-1.719q.273-.82.586-1.992a1.943,1.943,0,0,1,.156-1.328,3.855,3.855,0,0,0,.391-1.211,5.566,5.566,0,0,1,.43-1.406,2.723,2.723,0,0,1,1.133-1.289,1.831,1.831,0,0,1,1.719-.078,1.481,1.481,0,0,1,.938,1.289,1.849,1.849,0,0,1-.352,1.406,4.229,4.229,0,0,0-.7,1.211,3.345,3.345,0,0,1-.742,1.172,17.988,17.988,0,0,0-.547,2.7,9.263,9.263,0,0,1-.391,1.914,17.476,17.476,0,0,0-.391,1.836,10.546,10.546,0,0,0-.156,1.6q3.906-.391,5.391-.7a3.99,3.99,0,0,1,1.836-.352,9.342,9.342,0,0,0,1.914-.117,8.077,8.077,0,0,1,1.953-.078,3.624,3.624,0,0,1,1.328.039,2.472,2.472,0,0,0,1.016.078,1.212,1.212,0,0,1,1.172.586,2.4,2.4,0,0,1,.391,1.289,1.407,1.407,0,0,1-.586,1.133,5.869,5.869,0,0,1-1.289.781,1.738,1.738,0,0,1-1.484-.039,4.34,4.34,0,0,0-1.562-.43,4.6,4.6,0,0,1-1.562.2,10.912,10.912,0,0,0-2.187.2,19.272,19.272,0,0,0-2.07.43,7.91,7.91,0,0,1-1.445.273,6.164,6.164,0,0,0-1.523.352,9.164,9.164,0,0,1-1.914.43q-.7,2.5-.937,3.789t-.781,3.906a36.234,36.234,0,0,0-.7,5.352,2.676,2.676,0,0,1,1.641.664,4.876,4.876,0,0,1,.781,1.133q2.344.156,7.3.469t8.242.7a3.571,3.571,0,0,1,1.719.586,6.626,6.626,0,0,1,1.211,1.367q.664.938-.039,1.406t-1.211.742q-.508.273-1.992-.273-1.8-.312-2.422-.469a2.952,2.952,0,0,0-.977-.117q-.352.039-.82-.664-1.328-.078-2.3-.2l-3.555-.43q-2.578-.313-7.187-.391a5.78,5.78,0,0,1-2.7.547,17.366,17.366,0,0,1-1.836-.469,22.7,22.7,0,0,0-3.086.156q-1.055.156-2.3.313T99.531-4.3q-1.8.234-2.422.313a8.477,8.477,0,0,0-2.031.7,2.18,2.18,0,0,1-1.953.938,2.425,2.425,0,0,1-2.031-.9A2.06,2.06,0,0,1,90.586-5a1.282,1.282,0,0,1,.977-1.055q.781-.2,2.109-.508,1.328-.391,2.578-.7a14.8,14.8,0,0,1,.039-4.531q.352-1.484,1.133-4.453.781-3.125,1.289-4.766t.82-2.734a26.439,26.439,0,0,1,1.016-3.281,2.488,2.488,0,0,1,1.563-1.758,3.36,3.36,0,0,1,2.188-.117,2.23,2.23,0,0,1,1.406,1.055,1.617,1.617,0,0,1-.2,1.68,2.82,2.82,0,0,1-1.6,1.25,1.18,1.18,0,0,0-.781,1.055,2.269,2.269,0,0,1-.234,1.094,9.685,9.685,0,0,1-.937,1.289,14.979,14.979,0,0,0-.312,2.148,2.812,2.812,0,0,1-.2,1.016q-.2.508-.43,1.367a5.133,5.133,0,0,1-.781,2.266,5.359,5.359,0,0,1-.2,1.875,1.5,1.5,0,0,0-.078.977,3.715,3.715,0,0,1-.039,1.406,4.691,4.691,0,0,0-.078,1.445,2.539,2.539,0,0,0,.938,1.406q1.484-.156,2.969-.234t3.438-.234a49.922,49.922,0,0,0,1.8-6.6q.7-3.477,1.172-7.148a8.234,8.234,0,0,1-.742-1.953Q109.141-24.844,111.016-25.937Zm18.359-17.031a14.161,14.161,0,0,1,.039,1.758,1.727,1.727,0,0,1-.9,1.25,6.031,6.031,0,0,1-1.641.82,1.129,1.129,0,0,1-1.328-.547,4.27,4.27,0,0,1-.7-1.875,15.287,15.287,0,0,0-3.125-.7q-1.094-.078-2.148-.2a3.508,3.508,0,0,0-1.641.117,3.372,3.372,0,0,1-1.6.117,21.674,21.674,0,0,0-3.242,0,35.542,35.542,0,0,0-5.117.7,61.036,61.036,0,0,0-6.328,1.68,5.323,5.323,0,0,1-2.109.313q-.937-.078-1.094-1.25a2.511,2.511,0,0,1,.7-2.109,8.533,8.533,0,0,1,2.422-.859q1.016-.156,3.633-.391t4.961-.547q2.344-.312,4.531-.43t6.016-.039q3.828.078,5.547.234a5.564,5.564,0,0,1,1.953.273Q128.906-44.375,129.375-42.969Zm49.219,22.109a14.821,14.821,0,0,0-.82,2.656q-.273,1.328-.391,2.227t-.312,1.8a9.814,9.814,0,0,0-.2,2.07,15.1,15.1,0,0,1-.43,2.227,1.529,1.529,0,0,0-.039,1.016,2,2,0,0,1,.078.977q.078,1.406.156,2.891a7.423,7.423,0,0,0,2.7-1.758q1.211-1.211,2.461-2.5a35.565,35.565,0,0,0,2.578-3.008q1.328-1.719,2.031-2.656a2.949,2.949,0,0,1,1.172-1.25,2.209,2.209,0,0,1,1.641-.391,1.713,1.713,0,0,1,1.133.664,1.174,1.174,0,0,1,.156,1.094A9.277,9.277,0,0,1,190-13.594a10.966,10.966,0,0,0-1.562,1.563,26.648,26.648,0,0,1-2.109,2.188,5.379,5.379,0,0,0-.937,1.016,10.918,10.918,0,0,1-1.25,1.406,12.667,12.667,0,0,0-1.523,1.836,6.438,6.438,0,0,1-1.68,1.68,5.153,5.153,0,0,1-1.367,1.133,19.871,19.871,0,0,1-1.836.82,3.047,3.047,0,0,1-2.344,0,2.627,2.627,0,0,1-1.562-1.875,14.032,14.032,0,0,1-.391-4.922l.156-1.875a2.3,2.3,0,0,1-.547-.078,10.4,10.4,0,0,1-2.422-1.484,3.743,3.743,0,0,1-1.8-1.172,13.22,13.22,0,0,0-1.484-.586,2.038,2.038,0,0,1-1.094-.977,3.441,3.441,0,0,1-1.328-.7,3.458,3.458,0,0,1-1.406-.977,3.635,3.635,0,0,1-.664-1.25,1.19,1.19,0,0,1,.234-1.172,2.64,2.64,0,0,1,.977-.742,1.8,1.8,0,0,1,1.172-.078q1.8,1.562,3.4,2.7a22.512,22.512,0,0,0,2.852,1.758,13.515,13.515,0,0,0,2.031.859l.469.313q.391-2.266.859-4.609.547-2.578,1.172-5.078t1.211-5.039a31.215,31.215,0,0,0,.742-5.2q-.078-.7-.2-1.367a2.321,2.321,0,0,1,.2-1.367,2.564,2.564,0,0,1,1.523-.742,1.884,1.884,0,0,1,1.6.547,2.478,2.478,0,0,1,.742,1.8,8.256,8.256,0,0,1-.2,2.148,12.322,12.322,0,0,1-.664,2.031,6.581,6.581,0,0,0-.508,2.109,6.209,6.209,0,0,0-.781,2.3,7.9,7.9,0,0,1-.391,1.8,7.657,7.657,0,0,0-.391,1.68,105.028,105.028,0,0,0,12.813-6.328q-.781-2.5-1.641-4.766a5.52,5.52,0,0,1-1.055-1.836,4.793,4.793,0,0,1-.117-1.641,2.662,2.662,0,0,1,.508-1.445,1.643,1.643,0,0,1,1.172-.625,1.626,1.626,0,0,1,1.328.469,3.732,3.732,0,0,1,.859,1.133,1.948,1.948,0,0,1,.156,1.211,1.2,1.2,0,0,0,.586,1.172,1.209,1.209,0,0,1,.2.977,1.807,1.807,0,0,0,.2,1.172q.312.664.469,1.016a4.545,4.545,0,0,1,0,1.758,31.451,31.451,0,0,0,3.125-1.68q1.172-.742,2.969-1.68.7-.469,1.406-.977a1.993,1.993,0,0,1,1.406-.43,1.973,1.973,0,0,1,1.289.781,1.325,1.325,0,0,1,.273,1.445,2.911,2.911,0,0,1-.781,1.133,4.273,4.273,0,0,1-1.953,1.172,3.589,3.589,0,0,1-1.953.859,3.912,3.912,0,0,1-1.328.938,6.158,6.158,0,0,0-1.172.586,18.548,18.548,0,0,1-2.5,1.133A103.01,103.01,0,0,0,198.2-15.7,34.508,34.508,0,0,0,204.3-4.3q1.25-2.578,2.3-5.2a26.771,26.771,0,0,0,1.289-3.711,2.219,2.219,0,0,0,.586-1.367,2.376,2.376,0,0,1,.352-1.211,5.291,5.291,0,0,0,.586-1.406,14.668,14.668,0,0,0,.43-2.031q.625-1.484,1.836-1.406a2.426,2.426,0,0,1,1.641.547,1.563,1.563,0,0,1,.313,1.328,4.051,4.051,0,0,1-.508,1.523,8.419,8.419,0,0,0-.7,1.6q-.312.7-.586,1.25t-.586,1.094a10.864,10.864,0,0,0-.7,1.641q-.391,1.094-.859,2.109-.859.859-.859,1.367a3.956,3.956,0,0,1-.312,1.328q-.312.82-.742,2.031a9.3,9.3,0,0,1-1.289,2.383,2.264,2.264,0,0,1-2.344.938,5.163,5.163,0,0,1-2.187-1.68,25.645,25.645,0,0,1-1.562-2.3,21.283,21.283,0,0,1-1.25-2.422A114.859,114.859,0,0,1,192.5-26.406a10.175,10.175,0,0,1-1.367,1.016,1.851,1.851,0,0,1-.9.234,11.5,11.5,0,0,1-1.719,1.094,12.575,12.575,0,0,0-2.227,1.172q-1.367.859-3.477,2.031a9.8,9.8,0,0,1-1.562,1.016,3.48,3.48,0,0,1-1.211.156Q179.219-19.687,178.594-20.859Zm5.078-21.25q-.469.7-.82,1.172a4.837,4.837,0,0,1-.977.938q-1.406,1.016-2.3-.234a2.645,2.645,0,0,1-.273-2.734,9.924,9.924,0,0,0,1.563-1.445,7.284,7.284,0,0,1,.977-1.016q.508-.43.82-.664a1.881,1.881,0,0,0,.547-.859l1.953-1.406a3.931,3.931,0,0,1,1.719-1.406q1.25-.859,2.07-1.484t1.6-1.172q.781-.547,4.141-2.969a4.288,4.288,0,0,1,1.992-1.133,8.759,8.759,0,0,1,1.172,0,6.847,6.847,0,0,1,1.016.156,1.94,1.94,0,0,1,.938.547,2.869,2.869,0,0,1,.664,1.094,1.01,1.01,0,0,1-.234,1.133,3.906,3.906,0,0,1-1.016.742,3.044,3.044,0,0,1-1.367.273,7.1,7.1,0,0,0-1.914.313,20.223,20.223,0,0,1-3.086,2.188,27.486,27.486,0,0,0-4.3,3.281,31.782,31.782,0,0,1-2.578,2.266,5.846,5.846,0,0,0-1.172,1.094Q184.3-42.812,183.672-42.109ZM159.219-55.7a5.663,5.663,0,0,1,2.734-1.094,1.793,1.793,0,0,1,1.563,1.25,1.707,1.707,0,0,1-.273,1.836,5.684,5.684,0,0,1-1.523,1.211q-.859.469-1.953,1.094a22.045,22.045,0,0,0-3.516,1.914q-.859.664-2.656,1.875a39.442,39.442,0,0,0-3.2,2.383l-1.953,1.563a2.619,2.619,0,0,0-1.094,1.133q-.234.586,1.25,1.68l1.484,1.016a3.049,3.049,0,0,1,1.133.547,1.994,1.994,0,0,0,1.133.391,3.879,3.879,0,0,1,1.172.469,1.943,1.943,0,0,1,1.25.078,6.277,6.277,0,0,0,2.344.156q5.234-3.047,6.641-3.828a27.9,27.9,0,0,1,2.813-1.289,3.97,3.97,0,0,1,3.125.117,3.976,3.976,0,0,1,.586,1.367A1.865,1.865,0,0,1,170-40.82a1.309,1.309,0,0,1-.977.7,7.018,7.018,0,0,1-1.211.117q-1.563.781-2.383,1.133t-3.164,1.6a1.594,1.594,0,0,1-.352,1.445,3.252,3.252,0,0,1-1.133,1.172,3.175,3.175,0,0,1-1.523.234q-.977-.039-2.148-.2-2.5,1.563-5.586,3.711a40.423,40.423,0,0,0-5.508,4.57,1.758,1.758,0,0,0,1.211.977,10.782,10.782,0,0,0,2.109.234,12.158,12.158,0,0,0,2.266-.117,8.462,8.462,0,0,0,1.406-.312,18.573,18.573,0,0,1,1.836-.469,7.835,7.835,0,0,1,1.914-.742,13,13,0,0,0,2.422-.9A25.692,25.692,0,0,0,163.2-30a9.607,9.607,0,0,1,.352-1.875,1.326,1.326,0,0,1,.938-.781,3.855,3.855,0,0,1,2.109.156q1.367.391,1.6,2.5a9.931,9.931,0,0,0,1.875,2.109,15.636,15.636,0,0,1,1.563,1.484,4.03,4.03,0,0,0,.859.781,2.69,2.69,0,0,1,.859.742,5.206,5.206,0,0,1,.625,1.445q.469.859-.156,1.289a2.391,2.391,0,0,1-1.133.469,3.883,3.883,0,0,1-1.25-.156q-.742-.2-1.68-1.914a46.5,46.5,0,0,1-3.594-4.219,5.875,5.875,0,0,1-1.641.977,1.565,1.565,0,0,0-.9.625,1.555,1.555,0,0,1-.859.625,4.328,4.328,0,0,1-1.367.2,3.526,3.526,0,0,1-1.641,1.016q.312.859.117,1.172a4.07,4.07,0,0,0-.273,1.523,5.727,5.727,0,0,1-.391,1.914,9.1,9.1,0,0,0,.078,1.484,3.554,3.554,0,0,1,.039.938,2.836,2.836,0,0,1-.586,1.328A1.136,1.136,0,0,1,158.984-15a7.73,7.73,0,0,0-.391,1.172,1.831,1.831,0,0,1,0,1.484,3.14,3.14,0,0,0-.234,1.445,2.146,2.146,0,0,1-.547,1.445,1.468,1.468,0,0,1-.391,1.25,2.54,2.54,0,0,1-.156,1.8,1.727,1.727,0,0,1-.117.977,11.781,11.781,0,0,0-.508,1.992A4.346,4.346,0,0,1,155.508-.9a2.207,2.207,0,0,1-2.07.2q-1.406-.313-1.562-1.367a18.237,18.237,0,0,0-.43-2.07,2.563,2.563,0,0,1,.234-1.953q.508-.937,2.227-.859a41.618,41.618,0,0,0,1.992-8.4,62.343,62.343,0,0,0,.586-8.164,28.129,28.129,0,0,1-4.258,1.211,15.354,15.354,0,0,1-4.375.234,7.57,7.57,0,0,1-4.1-1.68,3.456,3.456,0,0,1-1.211-2.227,11.956,11.956,0,0,1,.2-1.719,1.466,1.466,0,0,1,1.094-1.133,3.178,3.178,0,0,1,1.8-1.25,1.915,1.915,0,0,1,1.016-1.094,2.015,2.015,0,0,1,1.406-.781q.469-.781.9-.9a28.77,28.77,0,0,0,3.633-2.383,7.646,7.646,0,0,1-1.914-.664q-1.055-.508-3.4-1.914a15.341,15.341,0,0,1-1.6-1.055q-.43-.352-.781-.625A6.336,6.336,0,0,1,144.3-40a2.883,2.883,0,0,1-.469-1.172,3.445,3.445,0,0,1,.039-2.734,5.113,5.113,0,0,1,1.094-1.836,16.492,16.492,0,0,1,1.445-1.055,13.828,13.828,0,0,1,2.422-1.836q1.563-.977,3.789-2.578T159.219-55.7ZM147.344-14.687q-4.141,4.063-6.172,6.25a4.825,4.825,0,0,0-.664,1.055,3.027,3.027,0,0,1-1.055,1.133,1.367,1.367,0,0,1-1.641,0,2.138,2.138,0,0,1-.937-1.8,3.026,3.026,0,0,1,.625-1.914,10.459,10.459,0,0,1,1.875-2.07q1.172-1.016,2.969-2.891a15.653,15.653,0,0,0,2.031-1.914,5.976,5.976,0,0,1,2.344-1.6,3.6,3.6,0,0,1,3.594.781,2.321,2.321,0,0,1-.234,3.438,1.246,1.246,0,0,1-1.367.234Q148.047-14.3,147.344-14.687Z" transform="matrix(0.999, -0.035, 0.035, 0.999, 375.957, 394.901)" fill="#009f39" stroke="#009f3a" stroke-width="2"/>
    <path id="パス_6090" data-name="パス 6090" d="M-3.631-37.039a5.784,5.784,0,0,1,1.719-.473h.559a5.65,5.65,0,0,1,1.375.172A1.117,1.117,0,0,1,.795-37.4a1.577,1.577,0,0,0,.816,0,.728.728,0,0,1,.623.043.566.566,0,0,0,.537.043,1.435,1.435,0,0,1,.945.15,12.545,12.545,0,0,1,4.018,1.461,13.609,13.609,0,0,1,5.092,4.254A11.774,11.774,0,0,1,14.438-25.7a14.147,14.147,0,0,1-.687,5.135,16.88,16.88,0,0,1-1.59,3.33,19.151,19.151,0,0,1-2.084,2.621A16.358,16.358,0,0,1,6.4-11.859a13.765,13.765,0,0,1-5.178,1.783,15.162,15.162,0,0,1-5.5-.279,20.834,20.834,0,0,1-4.512-2.105A12.362,12.362,0,0,1-12.4-15.855a14.349,14.349,0,0,1-2.191-6.059A13.949,13.949,0,0,1-13.9-28.23a17.634,17.634,0,0,1,2.664-4.576,11.4,11.4,0,0,1,4.211-3.244A7.731,7.731,0,0,0-5.393-36.7,3.1,3.1,0,0,1-3.631-37.039Zm15.34,6.789a5.355,5.355,0,0,1-.816-1.074,2.736,2.736,0,0,1-.516-.473q-.215-.258-.451-.516a4.831,4.831,0,0,0-.387-.387,8.728,8.728,0,0,0-1.053-.6A7.669,7.669,0,0,0,6.037-34.74a11.442,11.442,0,0,0-3.609-.838,14.55,14.55,0,0,0-5.564-.043,13.171,13.171,0,0,0-5.049,2.063,2.565,2.565,0,0,1-.687.623,2.565,2.565,0,0,0-.687.623,1.887,1.887,0,0,0-.623.559,2.137,2.137,0,0,1-.408.494,1.014,1.014,0,0,0-.322.559.69.69,0,0,1-.3.473.281.281,0,0,0-.15.365.488.488,0,0,1-.15.494,2.266,2.266,0,0,0-.387.688,3.8,3.8,0,0,1-.408.795,13.022,13.022,0,0,0-.6,6.273,11.01,11.01,0,0,0,1.547,4.684,14.285,14.285,0,0,0,1.934,2.277,11.277,11.277,0,0,0,2.514,1.59A20.5,20.5,0,0,0-3.2-11.687a2.331,2.331,0,0,0,1.311.107,1.135,1.135,0,0,1,.73-.064,1.5,1.5,0,0,0,.795-.043.946.946,0,0,1,.688,0,.946.946,0,0,0,.688,0A2.19,2.19,0,0,1,2-11.73a1.956,1.956,0,0,1,.967-.451,2.151,2.151,0,0,0,.838-.193A13.981,13.981,0,0,0,8.873-15.9a4.266,4.266,0,0,1,.773-.752,4.266,4.266,0,0,0,.773-.752,24.328,24.328,0,0,0,1.633-2.449,14.331,14.331,0,0,0,.688-2.062,10.854,10.854,0,0,0,.279-3.137,13.557,13.557,0,0,0-.473-3.266A5.7,5.7,0,0,0,11.709-30.25ZM-.236-22.988q-1.074.344-2.127.6a13.534,13.534,0,0,1-2.256.344q-.215,1.676-.408,3.717a9.151,9.151,0,0,0,.064,2.986q.387,1.375-.236,1.611a1.364,1.364,0,0,1-1.182-.064,1.044,1.044,0,0,1-.58-.945,8.906,8.906,0,0,1,.043-1.246,10.2,10.2,0,0,0,.064-1.074,2.574,2.574,0,0,1,.086-.666,2.935,2.935,0,0,0,.086-.752,7.745,7.745,0,0,0,.215-1.439q.043-.752.129-1.826a1.409,1.409,0,0,1-.344-1.418,2.715,2.715,0,0,1,.688-1.031q.258-1.074.43-2.32a1.782,1.782,0,0,1,.043-.687q.086-.3.129-.494a1.889,1.889,0,0,0,.021-.516,1.509,1.509,0,0,1,.15-.709,3.087,3.087,0,0,0,.129-1.289,3.153,3.153,0,0,1-.559-.43,1.606,1.606,0,0,1-.322-.838,1.08,1.08,0,0,1,.623-1.1,8.761,8.761,0,0,1,2.836-.859,31.857,31.857,0,0,1,3.953-.451,9.24,9.24,0,0,1,2.32.236,5.412,5.412,0,0,1,1.869.816,4.489,4.489,0,0,1,1.354,1.611,3.157,3.157,0,0,1,.129,2.471,8.021,8.021,0,0,1-.43.967,8.833,8.833,0,0,1-.537.9,1.507,1.507,0,0,1-.795.58q-.258.387-.451.709a1.472,1.472,0,0,1-.967.494q-.215.516-.58.473a.854.854,0,0,0-.645.172,2.208,2.208,0,0,1-.687.344q-.408.129-.795.258a22.278,22.278,0,0,0,1.5,2.32Q3.8-20.023,5.436-18q.387.43.73.838a4.267,4.267,0,0,1,.6.967.773.773,0,0,1-.172.967,1.093,1.093,0,0,1-.859.365.988.988,0,0,1-.709-.408,4.831,4.831,0,0,1-.58-1.139,11.4,11.4,0,0,0-.73-1.053,14.909,14.909,0,0,1-.881-1.289q-.494-.795-1.354-2.02A27.067,27.067,0,0,0-.236-22.988ZM-4.4-23.762q1.461-.3,2-.387a5.5,5.5,0,0,0,1.311-.43,1.119,1.119,0,0,1,.516-.645,2.735,2.735,0,0,1,1.16-.043,12.667,12.667,0,0,0,2.75-1.461,4.406,4.406,0,0,0,1.8-2.105,2.223,2.223,0,0,0,.064-2.02,2.644,2.644,0,0,0-.9-.924,4.721,4.721,0,0,0-1.354-.387,7.315,7.315,0,0,0-1.418-.129q-.516.021-1.01,0a4.482,4.482,0,0,0-.795.021,2.38,2.38,0,0,0-.666.215,2.354,2.354,0,0,1-.709.215,3.727,3.727,0,0,0-1.117.473,22.841,22.841,0,0,0-1.053,4.125Q-4.189-25.008-4.4-23.762Z" transform="matrix(0.999, -0.035, 0.035, 0.999, 334.636, 371.432)" fill="#009f39" stroke="#009f3a" stroke-width="1.6"/>
    <path id="パス_3193" data-name="パス 3193" d="M4358.683,8008.586c-116.589-.434-344.9,14.584-477.9,26.236-68.334,5.987-99.015,11.819-102.123,12.65-9.143,2.444,4.968,2.065,4.968,2.065" transform="translate(-3690 -7618)" fill="none" stroke="#009f39" stroke-linecap="round" stroke-width="3"/>
  </g>
</svg>
