<svg xmlns="http://www.w3.org/2000/svg" width="586.113" height="175.77" viewBox="0 0 586.113 175.77">
  <g id="earth_modal_item3_title" transform="translate(-84.075 -300.298)">
    <path id="パス_6092" data-name="パス 6092" d="M-113.2-7.578q-1.953-.937-3.2-1.641t-2.656-1.68a22.7,22.7,0,0,0-2.227-1.406,7.309,7.309,0,0,1-1.836-1.523,62.915,62.915,0,0,1-7.148-6.6q-2.539-2.852-5.508-6.055-6.094,5.859-13.2,11.563l-13.2,10.859a2.212,2.212,0,0,1-1.719.977,5.755,5.755,0,0,1-1.562-.273q-.7-.234-.7-1.719t.586-1.8a2.784,2.784,0,0,0,1.016-.977A2.678,2.678,0,0,1-163.2-8.867q.938-.352,1.641-.664a11.529,11.529,0,0,1,1.484-1.055,11.158,11.158,0,0,0,1.094-.664,7.681,7.681,0,0,0,1.172-.937,10.531,10.531,0,0,1,2.5-1.523,2.341,2.341,0,0,0,1.328-.937,1.3,1.3,0,0,1,1.016-.664q.547-1.016.938-1.094a1.566,1.566,0,0,0,.82-.586A1.5,1.5,0,0,1-150-17.5a1.246,1.246,0,0,1,.9-1.133q.742-.2.781-.547t.977-1.016q.938-.664,1.8-1.367A6.026,6.026,0,0,1-144.18-22.7q.43-.2,1.055-.43.391-1.016,1.016-1.094a2.005,2.005,0,0,1,1.484-1.094,1.3,1.3,0,0,1,.938-1.094,9.638,9.638,0,0,1,1.875-2.031q-2.031-3.594-3.008-5.312t-1.6-2.7q-.625-.977-1.094-1.758a7.439,7.439,0,0,1-.781-.937,16.7,16.7,0,0,1-1.016-1.719q-.547-1.094-.9-1.719a3.463,3.463,0,0,1-.43-1.328,1.712,1.712,0,0,1,.234-1.172,3.752,3.752,0,0,1,1.328-1.016,1.729,1.729,0,0,1,1.953.117,2.482,2.482,0,0,1,1.094,1.328q.156.664.313,1.836l.391,1.641a.994.994,0,0,1,.625.781,3.131,3.131,0,0,0,.82,1.328,1.731,1.731,0,0,1,.508,1.563,1.7,1.7,0,0,1,.9,1.094,6.194,6.194,0,0,0,.82,1.8,2.851,2.851,0,0,1,1.172,1.445,21.692,21.692,0,0,0,1.172,2.383q1.016-.937,1.758-1.68a7.964,7.964,0,0,1,1.523-1.211q.625-1.172,1.25-1.367a1.581,1.581,0,0,0,.938-.742,1.279,1.279,0,0,1,.859-.664q.547-.117.938-1.133a3.969,3.969,0,0,0,1.172-1.016,6.889,6.889,0,0,1,1.094-1.172q.547-.312,1.172-.742a1.849,1.849,0,0,0,.781-1.211,4.08,4.08,0,0,0,.859-.625,8.814,8.814,0,0,1,1.563-1.016,2.729,2.729,0,0,1,.7-1.562,10.989,10.989,0,0,1,.938-.7q.7-.937,1.328-1.8a4.822,4.822,0,0,1,1.406-1.328,9.08,9.08,0,0,1,.781-1.523q.391-.586.9-1.211a2.485,2.485,0,0,1,1.055-.82,5.519,5.519,0,0,1,1.719-.2,1.661,1.661,0,0,1,1.641,1.172,2.139,2.139,0,0,1-.234,2.422,16.324,16.324,0,0,1-1.562,1.641,17.214,17.214,0,0,0-2.148,1.914,23.211,23.211,0,0,1-2.93,2.461q-3.359,3.281-6.914,6.367t-8.867,7.93q.859,1.172,2.578,3.281t2.539,2.93q.82.82,2.031,1.914t2.539,2.266q.7.547,1.953,1.406.7.859,1.289.781t1.211.938a1.428,1.428,0,0,1,1.094.938,1.509,1.509,0,0,1,1.328.469.972.972,0,0,0,.938.43q.625-.039,1.641.977a18.8,18.8,0,0,1,1.914.469,6.915,6.915,0,0,1,1.6.781,2.039,2.039,0,0,1,1.367.547,1.216,1.216,0,0,0,.9.469,1.672,1.672,0,0,1,1.133.82,1.558,1.558,0,0,1-.078,1.758,2.15,2.15,0,0,1-1.406,1.172,2.818,2.818,0,0,1-1.484-.078Q-111.172-6.562-113.2-7.578Zm21.563-5.234a6.323,6.323,0,0,0,.9-1.484,1.064,1.064,0,0,1,.469-.664q.273-.117.273-.547a.59.59,0,0,1,.469-.586,3.03,3.03,0,0,0,1.172-1.094,1.482,1.482,0,0,1,.547-.9,2.589,2.589,0,0,0,.7-.781,8.091,8.091,0,0,0,.547-1.055,1.609,1.609,0,0,1,.625-.781,3.268,3.268,0,0,0,.742-.625,6.207,6.207,0,0,0,.625-.82,9.33,9.33,0,0,1,.586-.82q1.094-1.172,2.188-2.461A22.847,22.847,0,0,0-80-27.812q.234-1.016.7-1.172a1.7,1.7,0,0,0,.859-.937,2.194,2.194,0,0,1,.781-1.133,1.162,1.162,0,0,0,.547-.508,1.961,1.961,0,0,1,.547-.625,1.019,1.019,0,0,0,.43-.664,1.772,1.772,0,0,1,.586-.9,12.105,12.105,0,0,1,1.8-2.5,10.306,10.306,0,0,0-2.383.352,2.129,2.129,0,0,1-1.445.039,4.763,4.763,0,0,1-1.484.391H-80q-.469,0-.586.313t-.9.273a4.6,4.6,0,0,0-1.562.2,1.3,1.3,0,0,0-1.094.2,2.128,2.128,0,0,1-1.172.352q-1.406.391-2.656.7l-2.5.625a3.6,3.6,0,0,0-1.328.7,4.256,4.256,0,0,1-.937,1.055,3.59,3.59,0,0,1-1.094.547,2.085,2.085,0,0,1-1.367-.078,2.151,2.151,0,0,1-1.172-1.289,2.139,2.139,0,0,1,.664-2.266,5.58,5.58,0,0,1,1.8-1.094,2.243,2.243,0,0,0,.9-.391,3.169,3.169,0,0,1,1.094-.469q.82-.234,3.086-.625,3.516-.859,8.359-1.641t9.219-1.719q.625-.937,2.07-2.93a13.358,13.358,0,0,0,1.914-3.4,1.784,1.784,0,0,0,.7-.859,1.4,1.4,0,0,1,.469-.7,3.652,3.652,0,0,0,.781-1.25,1.189,1.189,0,0,1,.7-1.172,5.112,5.112,0,0,0,.664-1.328q.117-.469.352-.547a1.689,1.689,0,0,0,.625-.625,6.51,6.51,0,0,1,1.406-1.953,4.763,4.763,0,0,1,1.484-.391,3.712,3.712,0,0,1,1.016.156q.547.156.742,1.016a5,5,0,0,1,.156,1.406,1.586,1.586,0,0,1-.508,1.016q-.469.469-.937.859a1.773,1.773,0,0,1-.586.977,9.093,9.093,0,0,0-1.133,1.211,26.584,26.584,0,0,0-1.641,2.3q-.937,1.445-1.875,2.7l-.937,1.406q-.469.7-1.172,1.8,2.578-.312,5.586-.547a28.806,28.806,0,0,1,4.648-.078,8.445,8.445,0,0,1,2.07.352,4.618,4.618,0,0,0,1.094.313,9.819,9.819,0,0,1,1.172.273,6.365,6.365,0,0,1,.977.391,4.58,4.58,0,0,1,2.266,2.031,1.023,1.023,0,0,1,.469,1.016,8.374,8.374,0,0,1,.781,1.914,3.033,3.033,0,0,1-.156,1.289,6.652,6.652,0,0,1-.234,2.109,10.961,10.961,0,0,1-.664,1.406q-.43.781-.9,1.563-1.094,1.719-2.656,3.828a46.433,46.433,0,0,1-3.945,4.57,60.656,60.656,0,0,1-7.7,6.289,29.221,29.221,0,0,1-3.2,2.148,10.731,10.731,0,0,1-3.086,1.406,12.445,12.445,0,0,1-2.266.2,3.83,3.83,0,0,1-2.539-1.25,11.028,11.028,0,0,1-1.016-3.555,17.678,17.678,0,0,1,0-3.32q0-1.641-.078-3.359a6.35,6.35,0,0,1,.352-3.008q.508-1.211,1.133-1.328a3.157,3.157,0,0,1,1.211,0,1.872,1.872,0,0,1,1.055.664,2.607,2.607,0,0,1,.469,1.719,8.68,8.68,0,0,0-.234,1.68,7.817,7.817,0,0,1-.2,1.523,9.171,9.171,0,0,0-.2,1.875q0,.938-.078,1.914a4.069,4.069,0,0,0,.313,1.914q0,1.641,1.641.938a6.846,6.846,0,0,0,1.641-.781q.7-.469,1.25-.781l1.719-.859a7.444,7.444,0,0,0,1.094-.7q.625-.469,1.172-.859.781-.625,1.094-.82a1.178,1.178,0,0,0,.469-.625.467.467,0,0,1,.625-.312q.469.117.7-.469a1.473,1.473,0,0,1,.586-.781,2.8,2.8,0,0,0,.625-.469q.273-.273.625-.586a3.5,3.5,0,0,0,.625-.742,1.62,1.62,0,0,1,.7-.625,1.693,1.693,0,0,0,.742-.742,3.923,3.923,0,0,1,1.25-1.172,1.442,1.442,0,0,1,.625-1.328,4.3,4.3,0,0,0,.7-1.094,1.466,1.466,0,0,1,.586-.742,3.358,3.358,0,0,0,.9-.977q.7-1.172.977-1.562a3.073,3.073,0,0,0,.43-.977,11.88,11.88,0,0,0,.273-1.484,5.209,5.209,0,0,0,0-1.562,2.834,2.834,0,0,0-.937-1.445,6.747,6.747,0,0,0-1.6-1.172,8.568,8.568,0,0,1-1.445-.469.841.841,0,0,0-.859,0q-.352.234-1.133-.156a12.017,12.017,0,0,1-3.359,0q-1.953.234-2.578.273a4.666,4.666,0,0,1-1.211-.078,1.458,1.458,0,0,0-1.055.156.8.8,0,0,1-.859.039,15.065,15.065,0,0,1-3.125.547A35.377,35.377,0,0,0-72.148-33.4q-1.758,2.617-4.414,5.859t-4.023,4.922q-1.367,1.68-1.68,2.188a16.354,16.354,0,0,1-1.406,1.758q-.7.859-1.836,2.266t-4.727,6.484q-1.016,1.875-2.344,3.906a.893.893,0,0,1,.039,1.094,4.513,4.513,0,0,1-.7.977,2.107,2.107,0,0,1-1.055.508,2.608,2.608,0,0,1-1.562-.2,1.514,1.514,0,0,1-1.016-1.055,3.882,3.882,0,0,1-.078-1.328,2.535,2.535,0,0,1,.469-1.172l.977-1.367A8.152,8.152,0,0,1-94.453-9.8a6.567,6.567,0,0,0,.82-.9q.352-.469.781-1.172A2.075,2.075,0,0,1-91.641-12.812ZM20.391-17.187a5.059,5.059,0,0,0-1.641-.039,2.276,2.276,0,0,0-.937.352.768.768,0,0,1-.82,0,3.03,3.03,0,0,0-1.6-.078,1.95,1.95,0,0,1-1.484.156.99.99,0,0,0-.937,0,3.963,3.963,0,0,1-1.719.234,3.3,3.3,0,0,0-1.914.273q-.508.352-1.523-.117a7.116,7.116,0,0,1-2.578.156q-3.2,0-6.406.234t-6.992.391q-3.789.156-9.961.508t-6.953.82a5.462,5.462,0,0,1-1.719.156,2.929,2.929,0,0,0-1.25.117,4.392,4.392,0,0,1-1.8.039,3.568,3.568,0,0,1-2.148-.039,1.874,1.874,0,0,1-1.367-1.523,3.134,3.134,0,0,1,.156-1.992,2.129,2.129,0,0,1,1.563-1.094,2.606,2.606,0,0,1,1.875.117,2.824,2.824,0,0,0,1.641.313,19.609,19.609,0,0,1,2.891.078,75.56,75.56,0,0,0,8.477,0q5.273-.234,10.625-.547t10.547-.547q5.2-.234,10.352-.859,2.344-.313,4.688-.547a3.754,3.754,0,0,1,1.406-.2l1.406.078a2.038,2.038,0,0,1,1.406.977,1.454,1.454,0,0,1,.234,1.719,1.729,1.729,0,0,1-1.25.9A9.621,9.621,0,0,1,20.391-17.187ZM-.859-38.2a4.047,4.047,0,0,1-2.109-.625,3.109,3.109,0,0,0-1.719,0q-.547.234-1.641-.625a2.891,2.891,0,0,1-1.641,0q-1.25.078-1.719.117a1.426,1.426,0,0,1-1.016-.43,3.262,3.262,0,0,1-1.68.273q-.664-.117-1.367-.273a1.27,1.27,0,0,1-1.484.117,1.173,1.173,0,0,0-1.172-.2,7.139,7.139,0,0,1-2.109.313q-1.25.938-2.031,1.484a2,2,0,0,1-1.484.43,3.694,3.694,0,0,1-1.484-.664,3.333,3.333,0,0,1-.586-1.562,2.441,2.441,0,0,1,.43-1.445,1.946,1.946,0,0,1,.977-.9q.508-.156,1.133-.391a6,6,0,0,1,1.094-.312,4.1,4.1,0,0,1,1.758-.2,13.484,13.484,0,0,0,2.461.039,7.327,7.327,0,0,0,2.266-.156q.938.156,1.68.234t1.758.234a6.722,6.722,0,0,1,1.25-.156,7.212,7.212,0,0,1,1.016.078q.547.078,1.133.117a2.613,2.613,0,0,1,1.133.352q1.484.078,2.891.234t2.656.391a26.679,26.679,0,0,1,3.086.82q1.836.586,2.852.9A2.135,2.135,0,0,1,6.68-38.437a1.866,1.866,0,0,1-.391,1.523,3.884,3.884,0,0,1-1.211.938,1.352,1.352,0,0,1-1.367-.039,8.8,8.8,0,0,1-1.367-1.016q-1.172-.078-1.328-.352a.759.759,0,0,0-.547-.352A8.392,8.392,0,0,1-.859-38.2ZM38.828-12.812a6.322,6.322,0,0,0,.9-1.484,1.064,1.064,0,0,1,.469-.664q.273-.117.273-.547a.59.59,0,0,1,.469-.586,3.03,3.03,0,0,0,1.172-1.094,1.482,1.482,0,0,1,.547-.9,2.589,2.589,0,0,0,.7-.781,8.091,8.091,0,0,0,.547-1.055,1.609,1.609,0,0,1,.625-.781,3.267,3.267,0,0,0,.742-.625,6.207,6.207,0,0,0,.625-.82,9.332,9.332,0,0,1,.586-.82q1.094-1.172,2.188-2.461a22.847,22.847,0,0,0,1.8-2.383q.234-1.016.7-1.172a1.7,1.7,0,0,0,.859-.937,2.194,2.194,0,0,1,.781-1.133,1.162,1.162,0,0,0,.547-.508,1.961,1.961,0,0,1,.547-.625,1.019,1.019,0,0,0,.43-.664,1.772,1.772,0,0,1,.586-.9,12.105,12.105,0,0,1,1.8-2.5,10.306,10.306,0,0,0-2.383.352,2.129,2.129,0,0,1-1.445.039,4.763,4.763,0,0,1-1.484.391h-.937q-.469,0-.586.313t-.9.273a4.6,4.6,0,0,0-1.562.2,1.3,1.3,0,0,0-1.094.2,2.128,2.128,0,0,1-1.172.352q-1.406.391-2.656.7l-2.5.625a3.6,3.6,0,0,0-1.328.7,4.256,4.256,0,0,1-.937,1.055,3.59,3.59,0,0,1-1.094.547,2.085,2.085,0,0,1-1.367-.078A2.151,2.151,0,0,1,34.1-31.875a2.139,2.139,0,0,1,.664-2.266,5.58,5.58,0,0,1,1.8-1.094,2.243,2.243,0,0,0,.9-.391,3.169,3.169,0,0,1,1.094-.469q.82-.234,3.086-.625,3.516-.859,8.359-1.641t9.219-1.719q.625-.937,2.07-2.93a13.358,13.358,0,0,0,1.914-3.4,1.784,1.784,0,0,0,.7-.859,1.4,1.4,0,0,1,.469-.7,3.652,3.652,0,0,0,.781-1.25,1.189,1.189,0,0,1,.7-1.172,5.112,5.112,0,0,0,.664-1.328q.117-.469.352-.547a1.689,1.689,0,0,0,.625-.625,6.51,6.51,0,0,1,1.406-1.953,4.763,4.763,0,0,1,1.484-.391,3.712,3.712,0,0,1,1.016.156q.547.156.742,1.016a5,5,0,0,1,.156,1.406,1.586,1.586,0,0,1-.508,1.016q-.469.469-.937.859a1.773,1.773,0,0,1-.586.977,9.093,9.093,0,0,0-1.133,1.211,26.584,26.584,0,0,0-1.641,2.3q-.937,1.445-1.875,2.7l-.937,1.406q-.469.7-1.172,1.8,2.578-.312,5.586-.547a28.806,28.806,0,0,1,4.648-.078,8.445,8.445,0,0,1,2.07.352,4.618,4.618,0,0,0,1.094.313,9.819,9.819,0,0,1,1.172.273,6.366,6.366,0,0,1,.977.391,4.58,4.58,0,0,1,2.266,2.031,1.023,1.023,0,0,1,.469,1.016,8.374,8.374,0,0,1,.781,1.914,3.032,3.032,0,0,1-.156,1.289,6.652,6.652,0,0,1-.234,2.109,10.96,10.96,0,0,1-.664,1.406q-.43.781-.9,1.563-1.094,1.719-2.656,3.828a46.433,46.433,0,0,1-3.945,4.57,60.656,60.656,0,0,1-7.7,6.289,29.221,29.221,0,0,1-3.2,2.148,10.731,10.731,0,0,1-3.086,1.406,12.445,12.445,0,0,1-2.266.2,3.83,3.83,0,0,1-2.539-1.25,11.028,11.028,0,0,1-1.016-3.555,17.677,17.677,0,0,1,0-3.32q0-1.641-.078-3.359a6.35,6.35,0,0,1,.352-3.008q.508-1.211,1.133-1.328a3.157,3.157,0,0,1,1.211,0,1.872,1.872,0,0,1,1.055.664,2.607,2.607,0,0,1,.469,1.719,8.68,8.68,0,0,0-.234,1.68,7.817,7.817,0,0,1-.2,1.523,9.171,9.171,0,0,0-.2,1.875q0,.938-.078,1.914a4.069,4.069,0,0,0,.313,1.914q0,1.641,1.641.938A6.846,6.846,0,0,0,61.25-14.3q.7-.469,1.25-.781l1.719-.859a7.444,7.444,0,0,0,1.094-.7q.625-.469,1.172-.859.781-.625,1.094-.82a1.178,1.178,0,0,0,.469-.625.467.467,0,0,1,.625-.312q.469.117.7-.469a1.473,1.473,0,0,1,.586-.781,2.8,2.8,0,0,0,.625-.469q.273-.273.625-.586a3.5,3.5,0,0,0,.625-.742,1.62,1.62,0,0,1,.7-.625,1.693,1.693,0,0,0,.742-.742,3.923,3.923,0,0,1,1.25-1.172,1.442,1.442,0,0,1,.625-1.328,4.3,4.3,0,0,0,.7-1.094,1.466,1.466,0,0,1,.586-.742,3.358,3.358,0,0,0,.9-.977q.7-1.172.977-1.562a3.073,3.073,0,0,0,.43-.977,11.881,11.881,0,0,0,.273-1.484,5.209,5.209,0,0,0,0-1.562,2.834,2.834,0,0,0-.937-1.445,6.747,6.747,0,0,0-1.6-1.172,8.567,8.567,0,0,1-1.445-.469.841.841,0,0,0-.859,0q-.352.234-1.133-.156a12.017,12.017,0,0,1-3.359,0q-1.953.234-2.578.273a4.666,4.666,0,0,1-1.211-.078,1.458,1.458,0,0,0-1.055.156.8.8,0,0,1-.859.039,15.065,15.065,0,0,1-3.125.547A35.378,35.378,0,0,0,58.32-33.4q-1.758,2.617-4.414,5.859t-4.023,4.922q-1.367,1.68-1.68,2.188A16.353,16.353,0,0,1,46.8-18.672q-.7.859-1.836,2.266T40.234-9.922q-1.016,1.875-2.344,3.906a.893.893,0,0,1,.039,1.094,4.513,4.513,0,0,1-.7.977,2.107,2.107,0,0,1-1.055.508,2.608,2.608,0,0,1-1.562-.2,1.514,1.514,0,0,1-1.016-1.055,3.882,3.882,0,0,1-.078-1.328,2.535,2.535,0,0,1,.469-1.172l.977-1.367A8.152,8.152,0,0,1,36.016-9.8a6.567,6.567,0,0,0,.82-.9q.352-.469.781-1.172A2.075,2.075,0,0,1,38.828-12.812Zm106.8-1.328a21.816,21.816,0,0,1-3.867,1.641q-1.992.625-3.242.977t-2.266.547a11.148,11.148,0,0,1-2.109.2,11.156,11.156,0,0,1-1.992-.234q-.586-.156-1.953-.469a4.882,4.882,0,0,1-2.7-2.344,9.158,9.158,0,0,1-.391-4.922,37.376,37.376,0,0,1,1.211-4.961q.742-2.3,2.227-6.406t2.969-8.008a4.505,4.505,0,0,0,.7-1.758,1.958,1.958,0,0,1,.469-1.133,1.905,1.905,0,0,0,.469-1.055,3.108,3.108,0,0,1,.469-1.289,14.079,14.079,0,0,1,.7-1.953,2.841,2.841,0,0,1,1.875-1.328,2.911,2.911,0,0,1,1.953.781,1.714,1.714,0,0,1,.43,1.758,6.115,6.115,0,0,1-1.211,2.227q-.781,1.328-.977,1.758T137.344-38.2q-1.094,2.734-1.758,4.1T134.3-31.328a2.771,2.771,0,0,1-1.25,2.422.708.708,0,0,1,.117.9,4.852,4.852,0,0,0-.469.977,3.705,3.705,0,0,0-.2,1.25.785.785,0,0,1-.625.859,5.71,5.71,0,0,0-.273,1.641.687.687,0,0,1-.508.7,4.213,4.213,0,0,0-.2,1.719.943.943,0,0,1-.43.938,4.854,4.854,0,0,1-.547,2.188A1.077,1.077,0,0,1,130-16.68a1.713,1.713,0,0,0-.078,1.133,2,2,0,0,0,.781,1.016,3.467,3.467,0,0,0,1.484.625,10.031,10.031,0,0,0,1.8.156,11.475,11.475,0,0,0,3.2-.43,13.362,13.362,0,0,1,2.344-.508,6.093,6.093,0,0,1,1.563-.625q1.328-.078,1.563-.43t1.406-.508a2.8,2.8,0,0,1,1.289-.742,4.846,4.846,0,0,0,1.406-.625q.664-.43,3.4-1.992a6.356,6.356,0,0,1,1.875-1.133,1.131,1.131,0,0,0,.742-.469,2,2,0,0,1,.7-.586q.352-.156,1.055-.391a2.391,2.391,0,0,1,1.289-1.172,14.5,14.5,0,0,1,1.523-.391,1.122,1.122,0,0,1,.742-1.133q.82-.43,1.367-.742a10.464,10.464,0,0,0,1.523-1.172,6.7,6.7,0,0,1,2.539-1.328l1.523-.469q.508-.156,1.133.625a3.415,3.415,0,0,1,.742,1.758q.117.977-1.6,2.07a10.981,10.981,0,0,1-1.484.938q-.625.313-1.8.781a2.417,2.417,0,0,1-.977.7,7.145,7.145,0,0,0-1.094.547q-.508.313-1.133.625l-1.25.625q-1.25.625-2.109,1.016a11.108,11.108,0,0,0-1.289.664,4.951,4.951,0,0,1-1.445.508,2.371,2.371,0,0,1-1.289.859,3.1,3.1,0,0,0-1.133.508,3.7,3.7,0,0,1-1.484.508,1.168,1.168,0,0,1-.781.7,3.63,3.63,0,0,0-1.133.586A2.131,2.131,0,0,1,145.625-14.141Zm-50.7,7.188a2.523,2.523,0,0,1,1.484-1.719A1.9,1.9,0,0,1,97.734-10a2.728,2.728,0,0,1,.938-1.211A3.868,3.868,0,0,0,99.727-12.3a7.7,7.7,0,0,1,1.094-1.289,4.97,4.97,0,0,0,.781-.859q.2-.312.43-.742a1.618,1.618,0,0,1,1.016-.664,4.079,4.079,0,0,1,.43-1.133,3.919,3.919,0,0,1,.664-.664,2.588,2.588,0,0,1,.82-1.133,3.591,3.591,0,0,0,.82-.742,1.635,1.635,0,0,1,1.094-1.328,2.24,2.24,0,0,1,.938-1.25,1.865,1.865,0,0,1,.7-1.25q.625-.937,1.641-2.578t2.148-3.75q1.133-2.109,1.836-3.594,0-1.172.391-1.445a1.246,1.246,0,0,0,.508-.742,9.612,9.612,0,0,0,.2-1.055,2.03,2.03,0,0,1,.859-1.211q.234-1.172.938-3.672.078-1.875.117-2.7a1.135,1.135,0,0,1,.859-1.094,3.54,3.54,0,0,1,1.641-.156,2.594,2.594,0,0,1,1.484.781,1.639,1.639,0,0,1,.547,1.445q-.117.781-.273,2.578a3.334,3.334,0,0,0-.859,1.641,1.336,1.336,0,0,1-.664,1.055,1.706,1.706,0,0,0-.664,1.445,21.539,21.539,0,0,0-1.8,3.125,26.3,26.3,0,0,1-1.641,3.32q-.781,1.289-1.328,2.148-.625.938-1.875,3.047T109.922-20.7q-1.406,1.953-3.477,5.039t-5.2,7.3a17.456,17.456,0,0,1-1.367,1.992q-.664.82-1.445,1.992a5.125,5.125,0,0,1-2.3,1.055,3.681,3.681,0,0,1-1.641-.312q-.82-.352-.664-1.641A1.888,1.888,0,0,1,94.922-6.953Zm-320.7,79.844a6.724,6.724,0,0,0,.43-1.8q.039-.7.117-1.445a2.3,2.3,0,0,1,.547-1.289,1.62,1.62,0,0,0,.469-1.016q.469-.7,1.172-1.719-.312-1.016.039-1.406a2.352,2.352,0,0,0,.508-1.055,17.584,17.584,0,0,1,.7-2.07,5.258,5.258,0,0,0,.625-1.172,1.218,1.218,0,0,0,0-.859q-.156-.391.391-1.25a19.662,19.662,0,0,0,1.289-3.2q.82-2.422,1.445-4.687t1.25-3.984a8.7,8.7,0,0,0,.625-2.3,6.22,6.22,0,0,1,.2-1.406,5.549,5.549,0,0,1,.82-1.758,5.2,5.2,0,0,1,.781-2.422,15.046,15.046,0,0,1,.234-2.422,3.17,3.17,0,0,0,.781-1.523,6.932,6.932,0,0,1,.469-1.523,3.067,3.067,0,0,1,.625-1.875,1.215,1.215,0,0,1,0-1.055,3.432,3.432,0,0,0,.391-1.211,8.075,8.075,0,0,1,.859-2.187q.078-1.016.273-1.172a1.138,1.138,0,0,0,.234-.781,6.664,6.664,0,0,1,.117-.977,7.058,7.058,0,0,1,.547-1.289,6.414,6.414,0,0,0,.352-1.562,2.737,2.737,0,0,1,.508-1.328,4.893,4.893,0,0,0,.625-1.211,1.938,1.938,0,0,1,1.016-.977,2.832,2.832,0,0,1,2.109.313,1.393,1.393,0,0,1,.664,1.563q-.2,1.016-.43,2.031-.469.938-.82,1.758t-.742,1.992a7.742,7.742,0,0,0-.742,1.836,9.237,9.237,0,0,1-.586,1.68,4.238,4.238,0,0,0-.625,1.367,3.474,3.474,0,0,1-.625,1.289,13.737,13.737,0,0,1-.742,1.758,16.98,16.98,0,0,0-.937,2.656q-.586,1.992-1.523,4.609t-1.25,3.867a28.684,28.684,0,0,1-.9,2.852q-.586,1.6-2.148,6.914t-2.812,10.7q-.7,3.281-1.172,6.719a4.7,4.7,0,0,0-.469,2.109,2.172,2.172,0,0,1-.312,1.406,3.153,3.153,0,0,1-1.016,1.016,1.8,1.8,0,0,1-1.484.156,2.5,2.5,0,0,1-1.211-.625A5.021,5.021,0,0,1-225.781,72.891Zm-7.969-45.078a7.558,7.558,0,0,1-.352,1.719,7.1,7.1,0,0,0-.352,1.172q-.312,1.953-.781,3.906a9.359,9.359,0,0,0-.312,2.422,18.312,18.312,0,0,0,.156,2.422,2.228,2.228,0,0,0,.43,1.211,2.041,2.041,0,0,0,.859.625,9.212,9.212,0,0,1,1.25.625q.742.43,1.836.977.7.469.352,1.719a2.089,2.089,0,0,1-1.055,1.523,1.909,1.909,0,0,1-1.367.039q-.664-.234-1.328-.508a9.543,9.543,0,0,1-1.68-.977,10.889,10.889,0,0,1-2.344-1.875,3.189,3.189,0,0,1-.977-1.992q-.039-.977-.117-1.8a6.113,6.113,0,0,1,.078-1.68q.156-.859.7-2.891a3.86,3.86,0,0,1-.117-1.133,1.409,1.409,0,0,1,.234-.7,2.475,2.475,0,0,0,.234-1.172,6.22,6.22,0,0,1,.586-2.148q.234-1.484.82-3.828a18.035,18.035,0,0,1,1.133-3.437l.9-1.8.9-1.8A3.365,3.365,0,0,1-232.5,17.7a2.409,2.409,0,0,1,1.875.43,2.2,2.2,0,0,1,1.055,1.6,1.4,1.4,0,0,1-.586,1.445q-.7.469-1.406,1.016-.469,1.094-.664,1.68a3.218,3.218,0,0,1-.82,1.211A5.457,5.457,0,0,1-233.75,27.813Zm66.094,2.578a2.364,2.364,0,0,0-1.484.547.746.746,0,0,1-.9.2,1.152,1.152,0,0,0-1.055.117,2.241,2.241,0,0,1-1.133.352q-.664.039-2.148.273a1.084,1.084,0,0,1-1.328.313,3.622,3.622,0,0,1-1.484.469,2.673,2.673,0,0,0-1.133.273,14.691,14.691,0,0,1-1.523.586,6.8,6.8,0,0,1-1.8.234,7.709,7.709,0,0,1-2.422.781,2.135,2.135,0,0,1-1.172.781,6.653,6.653,0,0,0-1.641.781q-1.563,1.094-2.031.977a2.832,2.832,0,0,1-1.172-.859,2.1,2.1,0,0,1-.7-1.367,2.245,2.245,0,0,1,.469-1.289,3.122,3.122,0,0,1,1.523-1.055q1.055-.391,2.383-.937l2.656-.937a19.583,19.583,0,0,1,2.5-.586q.859-.117,2.266-.2a3.061,3.061,0,0,1,2.031-.391,3.6,3.6,0,0,1,1.328-.508,6.7,6.7,0,0,1,1.641-.039,2.087,2.087,0,0,1,1.8-.391q3.125-.469,6.875-.859.234-1.328.7-4.453a31.352,31.352,0,0,1,.977-4.687,4.909,4.909,0,0,1,1.6-2.422,1.568,1.568,0,0,1,1.367-.547,1.483,1.483,0,0,1,1.367.625,2.592,2.592,0,0,1,.43,1.172,3.264,3.264,0,0,1-.2,1.25,2.186,2.186,0,0,1-1.016,1.172,20.374,20.374,0,0,1-.547,2.344,7.564,7.564,0,0,1-.7,1.484,1.575,1.575,0,0,1-.312,1.563q-.156,1.094-.391,2.109,2.187-.234,3.359-.312,1.719-.078,7.578-.391,3.594-.234,6.641-.234,1.094-2.812,1.406-3.984a2.138,2.138,0,0,1,.469-1.6,1.078,1.078,0,0,0,.352-1.055,1.92,1.92,0,0,1,.586-1.484A2.606,2.606,0,0,1-141.6,16.8a3.518,3.518,0,0,0,.273-1.172,2.2,2.2,0,0,1,1.172-2.109,2.888,2.888,0,0,1,1.641-.469,2.744,2.744,0,0,1,1.563,1.289,3.711,3.711,0,0,1,.391,1.6,2.5,2.5,0,0,1-.625,1.563,5.975,5.975,0,0,0-1.133,2.07,13.263,13.263,0,0,1-.977,2.3,8.2,8.2,0,0,0-.625,1.758,16.229,16.229,0,0,1-1.016,2.7h5.469q1.25,0,3.945.039t9.414.352a12.285,12.285,0,0,1,2.109.313,1.849,1.849,0,0,1,.9.859,3.484,3.484,0,0,1,.43,1.836q0,1.133-.547,1.445a3.2,3.2,0,0,1-1.25.391,7.813,7.813,0,0,1-1.562,0q-.781-.234-1.445-.391a3.852,3.852,0,0,1-1.211-.508,1.787,1.787,0,0,0-1.211-.273,1.787,1.787,0,0,1-1.211-.273A1.766,1.766,0,0,0-128.2,29.8a3.443,3.443,0,0,1-1.211-.156,9.279,9.279,0,0,0-2.3-.2,3.492,3.492,0,0,0-1.8-.156q-1.719-.234-3.594-.391a7.686,7.686,0,0,1-2.187,0q-.781-.078-2.5-.156a2.253,2.253,0,0,0-.664,1.211,5.415,5.415,0,0,1-.312,1.133,12.376,12.376,0,0,1-.82,1.484,25.958,25.958,0,0,0-1.484,3.75,3.486,3.486,0,0,1-.469,1.25,7.513,7.513,0,0,0-.7,1.641q-.391,1.172-1.875,4.336t-2.891,6.367q-1.328,2.734-2.539,5.586a42.555,42.555,0,0,1-2.3,4.727q-.391,1.328-.664,2.109a3.969,3.969,0,0,1-.977,1.484,4.068,4.068,0,0,1-.937,2.422,2.816,2.816,0,0,1-.508,1.523,1.1,1.1,0,0,0-.312.9,2.651,2.651,0,0,1-.586,1.484,2.449,2.449,0,0,1-.312,1.875,4.863,4.863,0,0,0-.781,1.289q-.312.742-2.031,1.016t-1.914-.859a4.433,4.433,0,0,1,.156-2.187,7.3,7.3,0,0,1,1.25-2.187,8.084,8.084,0,0,0,1.367-2.617,19.683,19.683,0,0,1,1.406-2.344q5.391-11.172,8.086-16.836t6.055-14.961q.625-2.031,1.25-3.594-2.031.078-4.219.078-3.438.156-6.172.391t-3.984.234q-.937.078-2.344.234l-.547,1.484a18.2,18.2,0,0,1-.312,2.5,2.707,2.707,0,0,1,0,1.6,3.2,3.2,0,0,0-.156,1.523,2.4,2.4,0,0,0,1.094,2.188,4.408,4.408,0,0,0,1.445.547q.586.078,1.289.156a1.422,1.422,0,0,1,1.094.7q1.094.391.7,1.914a1.836,1.836,0,0,1-1.953,1.523q-1.016-.391-2.07-.7t-2.266-.664a2.726,2.726,0,0,1-1.758-1.445,5.925,5.925,0,0,1-.859-3.086q-.078-1.914,0-3.32t.547-4.531Zm96.875-12.734a7.045,7.045,0,0,1,2.5-1.016h.078a2.718,2.718,0,0,1,1.719.7,1.833,1.833,0,0,1,.625,1.8,2.636,2.636,0,0,1-.664,1.328,2.137,2.137,0,0,1-1.094.508,5.446,5.446,0,0,1-1.289.078A1.723,1.723,0,0,0-70,21.328q-.937.469-1.953.938a2.18,2.18,0,0,1-1.484.547A5.8,5.8,0,0,1-75,24.141q-1.016.625-1.953,1.328a3.1,3.1,0,0,1-1.172.586,3.04,3.04,0,0,0-1.328.82,1,1,0,0,1-.859.625q-.781,1.016-1.562.938a8.913,8.913,0,0,1-1.719,1.719,12.556,12.556,0,0,0-2.891,1.875,6.275,6.275,0,0,0-1.8,1.406q-.859.625-1.719,1.133a5.907,5.907,0,0,0-1.562,1.367q-.937.781-1.953,1.484-.937.7-2.383,1.914a7.774,7.774,0,0,0-1.836,1.953,1.675,1.675,0,0,1-1.25.9,2.084,2.084,0,0,1-1.328,1.25,11.088,11.088,0,0,1-1.25,1.445,3.133,3.133,0,0,0-.742.938,1.885,1.885,0,0,1-.469.664,2.6,2.6,0,0,0-.547.742,2.012,2.012,0,0,1-.625.742q-.352.234-.039,1.094.7.391,1.367.781a1.538,1.538,0,0,1,.781,1.133,1.3,1.3,0,0,1-.469,1.25,7.234,7.234,0,0,0-.9.9,1.649,1.649,0,0,1-1.25.43,3.8,3.8,0,0,1-1.875-.43,4.244,4.244,0,0,1-1.484-1.172,3.46,3.46,0,0,1-1.133-1.992,2.737,2.737,0,0,1,.391-2.031,14.772,14.772,0,0,1,1.523-1.914q1.328-1.484,2.031-2.148a3.349,3.349,0,0,0,.9-1.211q.2-.547,1.289-.781a4.4,4.4,0,0,1,1.328-1.25,5.414,5.414,0,0,1,1.719-1.719,32.773,32.773,0,0,1,3.516-3.047q.938-.781,3.438-2.773t5.938-4.57q3.437-2.578,8.672-6.133T-70.781,17.656ZM-82.344,66.328a15.175,15.175,0,0,1-.586,2.188,1.645,1.645,0,0,1-1.289.938q-.859.156-1.094-.078a8.876,8.876,0,0,0-.937-.742,2.206,2.206,0,0,1-.781-1.758,5.726,5.726,0,0,1,.039-1.484A1.991,1.991,0,0,1-86.25,64.1a2.577,2.577,0,0,0,.859-1.289,37.711,37.711,0,0,1,1.133-4.141,6.269,6.269,0,0,0,.43-1.406q.078-.547.117-1.328a5.548,5.548,0,0,1,.273-1.484,3.233,3.233,0,0,1,.2-1.094,2.232,2.232,0,0,0,.039-1.25,2.409,2.409,0,0,0,.625-1.758,2.736,2.736,0,0,1,.313-1.6,1.7,1.7,0,0,1,.313-1.875.851.851,0,0,1,0-1.25,3.788,3.788,0,0,1,.313-2.031,4.1,4.1,0,0,0-.156-1.641,8.892,8.892,0,0,1,.156-1.914,2.75,2.75,0,0,0,.039-1.211,8.837,8.837,0,0,1-.156-1.406,3.483,3.483,0,0,0-.586-1.719,1.112,1.112,0,0,1-.234-1.289,11.972,11.972,0,0,1,.625-1.172,1.647,1.647,0,0,1,1.016-.7,2.177,2.177,0,0,1,1.406.078,2.19,2.19,0,0,1,1.094.9,3.6,3.6,0,0,1,.313,2.031,48.836,48.836,0,0,1-.352,6.914q-.352,2.227-1.445,10.742-.391,1.953-.625,3.281t-.7,4.063Q-82.031,64.219-82.344,66.328Zm50.234-1.875a1.724,1.724,0,0,1-.469,1.211,5.283,5.283,0,0,1-.937.82q-.078,1.172-.508,1.25t-.82,1.094a6.4,6.4,0,0,0-.781.977,4.887,4.887,0,0,0-.625,1.6q-.312.469-.742,1.172a1.3,1.3,0,0,1-1.445.547,2.255,2.255,0,0,1-1.523-.82,3.781,3.781,0,0,1-.664-1.211,3.332,3.332,0,0,1-.039-1.367,1.747,1.747,0,0,1,.9-1.289q.859-1.172,1.523-1.953A4.628,4.628,0,0,1-36.8,65.313,3.082,3.082,0,0,1-35.7,63.984q1.094-1.094,2.344-2.578a19.744,19.744,0,0,1,1.719-2.344,36.828,36.828,0,0,0,2.266-3.008q1.562-2.227,4.883-6.523t6.289-8.672q.7-1.172,1.523-2.5t1.523-2.422q.7-1.094,1.172-1.836a15,15,0,0,0,.859-1.562q.391-.82.742-1.562t1.133-3.008a20.619,20.619,0,0,0,.039-2.07.7.7,0,0,0-.508-.664,8.5,8.5,0,0,1-1.562-.859,10.786,10.786,0,0,1-2.773-.234,3.907,3.907,0,0,0-1.562-.156,10.826,10.826,0,0,0-1.6.273,11.637,11.637,0,0,1-2.031.273,3.189,3.189,0,0,1-1.6.7,1.371,1.371,0,0,0-1.055.547,4.907,4.907,0,0,1-1.445,1.094,1.561,1.561,0,0,1-1.758-.156q-.859-.625-1.172-.9a1.54,1.54,0,0,1-.391-1.016,2.1,2.1,0,0,1,.742-1.6,4.766,4.766,0,0,1,2.07-1.25,2.421,2.421,0,0,1,1.953-.547q1.562-.469,2.5-.781a5.786,5.786,0,0,1,1.836-.312q.9,0,2.5.039t2.266.039a10.7,10.7,0,0,1,2.07.313,4.711,4.711,0,0,0,1.484.352,3.066,3.066,0,0,1,1.289.352A4.56,4.56,0,0,1-8.711,22.5a7.383,7.383,0,0,1,1.055,1.6,4.413,4.413,0,0,1,.313,2.148A3.4,3.4,0,0,1-7.5,28.125,7.5,7.5,0,0,0-8.047,30a1.01,1.01,0,0,1-.43.82,1.124,1.124,0,0,0-.508.664,10.687,10.687,0,0,1-.469,1.133,4.91,4.91,0,0,1-1.172,1.445A3.683,3.683,0,0,1-11.6,35.9a1,1,0,0,0-.469.938,1.773,1.773,0,0,1-.664,1.289,3.76,3.76,0,0,0-.937.938,1.961,1.961,0,0,1-.547.625,1.357,1.357,0,0,0-.469.938,2.815,2.815,0,0,0-.859.938,6.079,6.079,0,0,1-.625.977q-.391.508-3.125,4.1t-3.32,4.609a6.98,6.98,0,0,1-1.367,1.719q-.234.938-.625,1.094a3.855,3.855,0,0,0-1.172,1.25,8.887,8.887,0,0,0-.781,1.328,1.827,1.827,0,0,1-.859.781,5.318,5.318,0,0,0-.625,1.406,2.677,2.677,0,0,1-1.094,1.328,3.683,3.683,0,0,0-1.211,1.6,3.693,3.693,0,0,1-.781,1.367A7.98,7.98,0,0,0-32.109,64.453Zm-8.125-32.031a4.257,4.257,0,0,1-1.016,1.563,5.566,5.566,0,0,1-1.562,1.563,5.7,5.7,0,0,1-.625,1.211,2.8,2.8,0,0,0-.234,1.68,3.192,3.192,0,0,1,.938,1.836,1.925,1.925,0,0,1-.977,1.68,2.533,2.533,0,0,1-1.8.664,2.13,2.13,0,0,1-1.211-.586,6.208,6.208,0,0,1-.781-.937,2.773,2.773,0,0,1-.586-2.539,12.4,12.4,0,0,1,.9-2.461,14.964,14.964,0,0,1,1.641-2.187,8.245,8.245,0,0,0,1.172-1.523,7.711,7.711,0,0,1,1.211-1.523q.9-.937,2.852-2.891a4.526,4.526,0,0,0,.859-.977,7.456,7.456,0,0,1,.938-1.133,12.51,12.51,0,0,1,2.188-2.344A14.355,14.355,0,0,0-33.75,20.7q.7-.391,1.445-.859a2.547,2.547,0,0,0,1.055-1.406,6.394,6.394,0,0,0,2.031-1.719,2.271,2.271,0,0,1,.859-.781,2.063,2.063,0,0,0,.781-.625,8.24,8.24,0,0,1,1.328-1.172,12.614,12.614,0,0,0,1.211-.937,3.374,3.374,0,0,1,1.523-.625,3.468,3.468,0,0,1,2.031.547,3.151,3.151,0,0,1,1.133,1.25,1.673,1.673,0,0,1-.156,1.289,1.79,1.79,0,0,1-.977.977,11.508,11.508,0,0,1-1.25.391,7.482,7.482,0,0,0-1.8.859,27.244,27.244,0,0,0-4.141,3.2q-2.422,2.188-4.8,4.531t-3.4,3.4q-1.016,1.055-2.109,2.07A1.719,1.719,0,0,1-40.234,32.422ZM56.484,55.859A21.817,21.817,0,0,1,52.617,57.5q-1.992.625-3.242.977t-2.266.547a9.864,9.864,0,0,1-4.1-.039q-.586-.156-1.953-.469a4.882,4.882,0,0,1-2.7-2.344,9.158,9.158,0,0,1-.391-4.922,37.376,37.376,0,0,1,1.211-4.961q.742-2.3,2.227-6.406t2.969-8.008a4.505,4.505,0,0,0,.7-1.758,1.958,1.958,0,0,1,.469-1.133,1.905,1.905,0,0,0,.469-1.055,3.108,3.108,0,0,1,.469-1.289,14.08,14.08,0,0,1,.7-1.953,2.841,2.841,0,0,1,1.875-1.328,2.911,2.911,0,0,1,1.953.781,1.714,1.714,0,0,1,.43,1.758,6.115,6.115,0,0,1-1.211,2.227q-.781,1.328-.977,1.758T48.2,31.8q-1.094,2.734-1.758,4.1t-1.289,2.773a2.771,2.771,0,0,1-1.25,2.422.708.708,0,0,1,.117.9,4.853,4.853,0,0,0-.469.977,3.7,3.7,0,0,0-.2,1.25.785.785,0,0,1-.625.859,5.71,5.71,0,0,0-.273,1.641.687.687,0,0,1-.508.7,4.213,4.213,0,0,0-.2,1.719.943.943,0,0,1-.43.938,4.854,4.854,0,0,1-.547,2.188,1.077,1.077,0,0,1,.078,1.055,1.713,1.713,0,0,0-.078,1.133,2,2,0,0,0,.781,1.016,3.467,3.467,0,0,0,1.484.625,10.031,10.031,0,0,0,1.8.156,11.475,11.475,0,0,0,3.2-.43,13.362,13.362,0,0,1,2.344-.508,6.093,6.093,0,0,1,1.563-.625q1.328-.078,1.563-.43t1.406-.508a2.8,2.8,0,0,1,1.289-.742,4.846,4.846,0,0,0,1.406-.625q.664-.43,3.4-1.992a6.356,6.356,0,0,1,1.875-1.133,1.131,1.131,0,0,0,.742-.469,2,2,0,0,1,.7-.586q.352-.156,1.055-.391a2.391,2.391,0,0,1,1.289-1.172A14.5,14.5,0,0,1,68.2,46.25a1.122,1.122,0,0,1,.742-1.133q.82-.43,1.367-.742A10.462,10.462,0,0,0,71.836,43.2a6.7,6.7,0,0,1,2.539-1.328l1.523-.469q.508-.156,1.133.625a3.415,3.415,0,0,1,.742,1.758q.117.977-1.6,2.07a10.98,10.98,0,0,1-1.484.938q-.625.312-1.8.781a2.417,2.417,0,0,1-.977.7,7.145,7.145,0,0,0-1.094.547q-.508.312-1.133.625l-1.25.625q-1.25.625-2.109,1.016a11.11,11.11,0,0,0-1.289.664,4.951,4.951,0,0,1-1.445.508,2.371,2.371,0,0,1-1.289.859,3.1,3.1,0,0,0-1.133.508,3.7,3.7,0,0,1-1.484.508,1.168,1.168,0,0,1-.781.7,3.63,3.63,0,0,0-1.133.586A2.131,2.131,0,0,1,56.484,55.859Zm-50.7,7.188a2.523,2.523,0,0,1,1.484-1.719A1.9,1.9,0,0,1,8.594,60a2.728,2.728,0,0,1,.938-1.211A3.868,3.868,0,0,0,10.586,57.7a7.7,7.7,0,0,1,1.094-1.289,4.97,4.97,0,0,0,.781-.859q.2-.312.43-.742a1.618,1.618,0,0,1,1.016-.664,4.079,4.079,0,0,1,.43-1.133A3.919,3.919,0,0,1,15,52.344a2.588,2.588,0,0,1,.82-1.133,3.591,3.591,0,0,0,.82-.742,1.635,1.635,0,0,1,1.094-1.328,2.24,2.24,0,0,1,.938-1.25,1.865,1.865,0,0,1,.7-1.25Q20,45.7,21.016,44.063t2.148-3.75Q24.3,38.2,25,36.719q0-1.172.391-1.445a1.246,1.246,0,0,0,.508-.742,9.611,9.611,0,0,0,.2-1.055,2.03,2.03,0,0,1,.859-1.211q.234-1.172.938-3.672.078-1.875.117-2.7a1.135,1.135,0,0,1,.859-1.094,3.54,3.54,0,0,1,1.641-.156,2.594,2.594,0,0,1,1.484.781,1.639,1.639,0,0,1,.547,1.445q-.117.781-.273,2.578a3.334,3.334,0,0,0-.859,1.641,1.336,1.336,0,0,1-.664,1.055,1.706,1.706,0,0,0-.664,1.445,21.54,21.54,0,0,0-1.8,3.125,26.3,26.3,0,0,1-1.641,3.32q-.781,1.289-1.328,2.148-.625.938-1.875,3.047T20.781,49.3Q19.375,51.25,17.3,54.336t-5.2,7.3a17.456,17.456,0,0,1-1.367,1.992q-.664.82-1.445,1.992a5.125,5.125,0,0,1-2.3,1.055,3.681,3.681,0,0,1-1.641-.312q-.82-.352-.664-1.641A1.888,1.888,0,0,1,5.781,63.047ZM97.344,47.891a30.794,30.794,0,0,0,10.547-1.484,36.765,36.765,0,0,0,8.555-3.945,23.577,23.577,0,0,0,4.883-3.867,14.048,14.048,0,0,0,2.266-2.578,22.5,22.5,0,0,1,1.445-2.852q1.055-1.836.781-5.586t-5.039-6.719a6.83,6.83,0,0,1-1.68-1.016,1.534,1.534,0,0,0-1.172-.43,1.751,1.751,0,0,1-1.367-.82q-.547.156-1.172-.7a2.906,2.906,0,0,1-2.187-.312q-1.172.234-1.562-.312a2.058,2.058,0,0,1-1.523-.078,1.245,1.245,0,0,0-1.211,0,3.441,3.441,0,0,0-1.484-.234,1.293,1.293,0,0,1-1.094-.469,2.24,2.24,0,0,1-1.6.391,1.085,1.085,0,0,0-1.016.156q-.352.313-1.367-.312a7.644,7.644,0,0,1-1.562.352,2.366,2.366,0,0,0-.977.273q-.43.234-1.172.547a1.018,1.018,0,0,1-1.211-.156,7.349,7.349,0,0,1-1.641.625,2.34,2.34,0,0,0-.977.391,1.822,1.822,0,0,1-1.211.156,3.36,3.36,0,0,1-1.367.742,2.8,2.8,0,0,0-1.289.742,12.112,12.112,0,0,1-1.562.9q-1.016.508-1.055.977a5.858,5.858,0,0,1-.234,1.133,1.4,1.4,0,0,1-.859.938,2.8,2.8,0,0,1-1.562.117,1.423,1.423,0,0,1-1.172-1.133,3.984,3.984,0,0,1,0-2.07,4.178,4.178,0,0,1,.9-1.8,6.2,6.2,0,0,1,1.875-1.328,43.834,43.834,0,0,1,10.156-3.359,46.246,46.246,0,0,1,8.438-.781h1.719a38.243,38.243,0,0,1,10.352,1.992,18.316,18.316,0,0,1,8.633,5.9,9.384,9.384,0,0,1,1.328,2.3,22.358,22.358,0,0,1,.781,2.813,12.45,12.45,0,0,1,.234,3.711,15.616,15.616,0,0,1-1.953,5.352,19.473,19.473,0,0,1-2.852,3.906,39.283,39.283,0,0,1-3.633,3.125,40.725,40.725,0,0,1-4.883,3.242,42.257,42.257,0,0,1-7.617,3.086,49.434,49.434,0,0,1-11.484,2.07,33.194,33.194,0,0,0-1.992,6.953q-.273,2.344-.469,3.672a11.8,11.8,0,0,0-.117,2.5,2.723,2.723,0,0,1,.781,1.328,1.943,1.943,0,0,1-.156,1.328,2.828,2.828,0,0,1-1.25,1.484,2.275,2.275,0,0,1-1.562.078q-1.406,0-1.6-.977a12.221,12.221,0,0,1-.234-1.836A5.2,5.2,0,0,1,90,64.531q1.641-6.562,2.383-8.867a24,24,0,0,0,.977-4.023,3.427,3.427,0,0,1-.977-1.6,2.7,2.7,0,0,1,.156-1.68q.352-.859,2.07-1.016,1.562-4.922,3.125-11.406t3.125-12.5a13.245,13.245,0,0,1,.625-2.148,1.946,1.946,0,0,1,.977-1.055,3.319,3.319,0,0,1,1.758-.2,1.319,1.319,0,0,1,1.289,1.133,3.429,3.429,0,0,1,.078,1.406,6.858,6.858,0,0,1-1.211,1.641,17.962,17.962,0,0,0-.977,2.148q-.43,1.133-1.367,4.414t-2.383,8.477Q98.2,44.453,97.344,47.891Zm88.438-25.937a8.122,8.122,0,0,1-1.953-.391q-.781-.391-1.172-.625a1.307,1.307,0,0,0-.9-.156,2.771,2.771,0,0,1-1.523-.469,2.282,2.282,0,0,1-1.641.156,2.415,2.415,0,0,0-1.289-.2A2.815,2.815,0,0,1,175.859,20a3.162,3.162,0,0,1-1.641.156q-.547.234-1.484-.469a5.76,5.76,0,0,1-1.523.313,10.844,10.844,0,0,1-1.914-.312,3.831,3.831,0,0,1-2.187,0,2.5,2.5,0,0,1-1.641.391q-.937-.078-1.68-.078h-1.367a10.068,10.068,0,0,0-1.25.078,5.336,5.336,0,0,1-1.289,0,10.293,10.293,0,0,0-2.461.234q-1.8.313-3.437.625a2.615,2.615,0,0,1,.742,2.031,3.1,3.1,0,0,1-.586,1.25q-.859,2.578-1.953,5.391a4.392,4.392,0,0,1-.312,1.992q-.391.977-.7,1.836a3.625,3.625,0,0,1-.625,2.188,17.343,17.343,0,0,1-.625,3.516,14.891,14.891,0,0,0,1.836.039q.82-.039,1.406-.117a4.125,4.125,0,0,1,1.133,0,2.866,2.866,0,0,1,1.719-.312,1.8,1.8,0,0,0,1.172-.078,1.522,1.522,0,0,1,1.172,0q1.016-.547,1.445-.352a1.278,1.278,0,0,0,1.055-.078,1.181,1.181,0,0,1,1.25.2q1.172-.312,1.68-.469a1.506,1.506,0,0,1,1.133.156,1.408,1.408,0,0,1,1.563,0,2.6,2.6,0,0,1,1.6-.664q.664.039,1.445.117a6.769,6.769,0,0,0,1.25-.117,13.023,13.023,0,0,1,2.109-.117,12.36,12.36,0,0,0,2.266-.156,3.249,3.249,0,0,1,1.8.234,2.355,2.355,0,0,1,1.6.078,1.211,1.211,0,0,1,.7,1.133,3.932,3.932,0,0,1-.234,1.563,1.639,1.639,0,0,1-1.016,1.016,3.7,3.7,0,0,1-2.3-.273q-1.328-.078-2.07-.156a5.99,5.99,0,0,0-1.367,0H167.5a4.434,4.434,0,0,1-1.875.234q-.859.078-1.68.2t-1.719.156a6.047,6.047,0,0,0-1.523.234,7.3,7.3,0,0,1-1.211.273,9.634,9.634,0,0,1-1.758,0q-1.016.156-1.6.273a10,10,0,0,1-1.484.156,4.724,4.724,0,0,0-1.641.352,3.583,3.583,0,0,1-1.8.2,4.234,4.234,0,0,0-2.461.664,19.932,19.932,0,0,0-1.523,4.219,49.324,49.324,0,0,0-1.094,5.859q-.43,3.281-.43,4.063t-.078,1.641a5.375,5.375,0,0,0,.156,1.8,4.244,4.244,0,0,0,2.031.625q1.172.078,6.836-.312t7.93-.625q2.266-.234,3.828-.312a4.1,4.1,0,0,1,1.133-.156q.586,0,1.445-.078a9.791,9.791,0,0,1,3.281-.391,8.652,8.652,0,0,1,2.813-.312,4.671,4.671,0,0,1,1.953-.391,9.014,9.014,0,0,1,2.266-.156,3.072,3.072,0,0,1,2.422.234q1.25.625,1.172,1.6a1.966,1.966,0,0,1-.586,1.406,3.816,3.816,0,0,1-.977.625,1.079,1.079,0,0,1-.937-.039,1.157,1.157,0,0,0-1.016,0,3.437,3.437,0,0,1-1.133.273,3.648,3.648,0,0,1-1.328-.2,1.822,1.822,0,0,0-1.289,0,2.532,2.532,0,0,1-1.172.2q-.625-.039-2.5.039-1.563.156-3.594.313t-2.891.2q-.859.039-2.266.2t-5.937.391a36.577,36.577,0,0,0-5.664.547,18.214,18.214,0,0,1-3.32.469,5.112,5.112,0,0,1-2.656-.078,6.891,6.891,0,0,1-2.578-1.484,2.933,2.933,0,0,1-.937-2.578,6.08,6.08,0,0,1,.156-2.344,9.689,9.689,0,0,0,.313-2.344,2.65,2.65,0,0,1,.234-1.641,1.309,1.309,0,0,0,.391-1.133,5.336,5.336,0,0,1,0-1.289,6.978,6.978,0,0,0,.586-1.992,4.915,4.915,0,0,1,.313-1.406q.273-.742,2.227-9.023t2.344-9.609q.391-1.328.938-3.437a7.514,7.514,0,0,1,.469-1.836,10.849,10.849,0,0,0,.547-1.758,21.256,21.256,0,0,0,.391-2.5,8.922,8.922,0,0,0-1.445.391,3.659,3.659,0,0,1-1.016.234q-.664.078-1.445.2a3.7,3.7,0,0,0-1.367.469,2.885,2.885,0,0,0-.82.664,2.185,2.185,0,0,1-1.328.469,4.261,4.261,0,0,1-1.8-.273q-1.016-.352-1.172-.742t-.43-.977a1.161,1.161,0,0,1,0-1.094,3.5,3.5,0,0,1,.9-1.016,2.638,2.638,0,0,1,1.445-.586q.82-.078,3.008-.312,10.781-.859,16.563-1.016,4.531-.156,9.219-.156h2.422q5.859.078,7.969.156a21.036,21.036,0,0,1,3.32.2,8.164,8.164,0,0,1,1.992.586,1.868,1.868,0,0,1,1.094,1.25,2.591,2.591,0,0,1-.156,1.758Q187.578,21.875,185.781,21.953Zm11.25-1.406a27.449,27.449,0,0,1,2.891-.625q1.094-.156,10.7-1.016t16.445-.977q6.836-.117,11.25-.039t5.352.234a6.959,6.959,0,0,1,2.422-.234q.859.234,1.445.352a8.819,8.819,0,0,1,1.055.273,1.892,1.892,0,0,1,.9.781,2.188,2.188,0,0,1,.352,1.484,1.513,1.513,0,0,1-.742,1.25,7.029,7.029,0,0,1-1.094.547,2.564,2.564,0,0,1-1.211.039,3.018,3.018,0,0,1-1.328-.508,4.225,4.225,0,0,0-1.875-.547q-1.484-.234-3.516-.7a7.448,7.448,0,0,1-2.07-.2,1.243,1.243,0,0,0-1.094.117,1.35,1.35,0,0,1-1.367-.156,2.708,2.708,0,0,1-1.758.039,6.824,6.824,0,0,0-1.992-.273q-1.094,0-2.891.078t-6.484-.078a30.84,30.84,0,0,1-3.867.43q-1.445.039-3.086.078a11.339,11.339,0,0,0-2.227.2q-.586.156-3.4.547t-7.031,1.25a14.579,14.579,0,0,1-1.445.664,3.617,3.617,0,0,0-.859.469q-.508.352-1.133.859a1.894,1.894,0,0,1-1.68.273,2.767,2.767,0,0,1-1.445-.664,3.708,3.708,0,0,1-.664-1.094,1.609,1.609,0,0,1-.039-1.25A5.049,5.049,0,0,1,197.031,20.547Zm31.172,5q-.391,1.172-.859,2.227a13.379,13.379,0,0,1-1.094,1.992,3.2,3.2,0,0,1-.234,1.484q-.234.391-.7,1.328a3.1,3.1,0,0,1-.625,1.8q-1.25,4.922-3.008,12.344A91.918,91.918,0,0,0,219.531,58.2q-.547,2.734-.156,3.164a2.167,2.167,0,0,1,.469,1.289q.469.781,1.016,1.563a2.712,2.712,0,0,1,.547,1.563,3.219,3.219,0,0,1-.469,1.6,1.987,1.987,0,0,1-1.289,1.016,2.651,2.651,0,0,1-1.562-.078,2.742,2.742,0,0,1-1.289-1.055,7.971,7.971,0,0,1-.7-1.719,18.5,18.5,0,0,1-.43-2.344,7.687,7.687,0,0,1-.039-2.3q.156-.82.859-4.648.7-4.062,1.6-7.7t1.641-7.266a45.432,45.432,0,0,1,1.836-6.6q.312-1.25.508-1.914a8.023,8.023,0,0,0,.273-1.328q.078-.664,1.8-6.6a5.775,5.775,0,0,1,1.172-2.461,1.816,1.816,0,0,1,1.719-.352,2.126,2.126,0,0,1,1.563,1.25A2.224,2.224,0,0,1,228.2,25.547Z" transform="matrix(0.999, -0.035, 0.035, 0.999, 375.957, 365.252)" fill="#009f39" stroke="#009f3a" stroke-width="2"/>
    <path id="パス_3193" data-name="パス 3193" d="M4358.683,8008.586c-116.589-.434-344.9,14.584-477.9,26.236-68.334,5.987-99.015,11.819-102.123,12.65-9.143,2.444,4.968,2.065,4.968,2.065" transform="translate(-3690 -7575)" fill="none" stroke="#009f39" stroke-linecap="round" stroke-width="3"/>
  </g>
</svg>
