<svg xmlns="http://www.w3.org/2000/svg" width="16" height="24" viewBox="0 0 16 24">
  <g id="icon_arw_r_wh" transform="translate(-2580.05 -8242.19)">
    <path id="線_15" data-name="線 15" d="M11,12.5a2.491,2.491,0,0,1-1.681-.65l-11-10A2.5,2.5,0,0,1-1.85-1.682,2.5,2.5,0,0,1,1.682-1.85l11,10A2.5,2.5,0,0,1,11,12.5Z" transform="translate(2582.55 8244.69)" fill="#fff"/>
    <path id="線_17" data-name="線 17" d="M0,11.5a2.5,2.5,0,0,1-1.936-.917,2.5,2.5,0,0,1,.352-3.518l11-9a2.5,2.5,0,0,1,3.518.352,2.5,2.5,0,0,1-.352,3.518l-11,9A2.49,2.49,0,0,1,0,11.5Z" transform="translate(2582.55 8254.69)" fill="#fff"/>
  </g>
</svg>
