<svg xmlns="http://www.w3.org/2000/svg" width="18.24" height="75.528" viewBox="0 0 18.24 75.528">
  <path id="kv_scroll_text" d="M-30.12.312a11.339,11.339,0,0,1-4.1-.912,1.43,1.43,0,0,0-.6-.144,1.243,1.243,0,0,0-.636.192,4.354,4.354,0,0,0-.732.576q-.1.1-.168.072t-.1-.144l-1.032-4.44-.048-.216a.13.13,0,0,1,.06-.1.478.478,0,0,1,.12-.072.258.258,0,0,0,.084-.048.334.334,0,0,1,.144-.024q.1,0,.264.192,2.688,4.08,6.5,4.08a4.145,4.145,0,0,0,2.58-.792,2.767,2.767,0,0,0,1.044-2.352,2.883,2.883,0,0,0-1.992-2.712,27.92,27.92,0,0,0-2.64-.96l-1.08-.36a11.761,11.761,0,0,1-1.536-.624,4.615,4.615,0,0,1-2.832-4.32,5.721,5.721,0,0,1,.5-2.256,4.7,4.7,0,0,1,1.764-2.028,5.882,5.882,0,0,1,3.348-.852,6.267,6.267,0,0,1,1.452.168q.708.168,1.716.5a1.956,1.956,0,0,0,.672.144,1.635,1.635,0,0,0,1.152-.6q.192-.192.264.048l1.152,3.888.024.048q.048.168-.024.24a.515.515,0,0,1-.168.1.762.762,0,0,1-.216.048.328.328,0,0,1-.24-.144A9.492,9.492,0,0,0-26.448-14.8a8.223,8.223,0,0,0-2-1.56,5.51,5.51,0,0,0-2.82-.732,3.379,3.379,0,0,0-2.136.588,2.887,2.887,0,0,0-.984,1.26,3.525,3.525,0,0,0-.24,1.152,2.6,2.6,0,0,0,1.584,2.376,11.108,11.108,0,0,0,1.332.564q.828.3,1.692.588A30.588,30.588,0,0,1-27-9.456a5.563,5.563,0,0,1,2.424,1.98,4.682,4.682,0,0,1,.72,2.508,5.059,5.059,0,0,1-.732,2.688,5.041,5.041,0,0,1-2.148,1.9A7.6,7.6,0,0,1-30.12.312Zm15.576,0a6.219,6.219,0,0,1-2.856-.7,5.66,5.66,0,0,1-2.232-2.052A5.925,5.925,0,0,1-20.5-5.688a6.524,6.524,0,0,1,.708-2.9,6.11,6.11,0,0,1,2.076-2.376,5.639,5.639,0,0,1,3.264-.936,6.666,6.666,0,0,1,2.688.468,3.7,3.7,0,0,1,1.536,1.128A2.118,2.118,0,0,1-9.744-9.1a1.325,1.325,0,0,1-.372.96,1.155,1.155,0,0,1-.852.384,1.356,1.356,0,0,1-.984-.372,4.552,4.552,0,0,1-.768-1.068,6.5,6.5,0,0,0-.936-1.488,1.435,1.435,0,0,0-1.1-.5,1.854,1.854,0,0,0-1.4.672,4.683,4.683,0,0,0-.96,1.9,10.291,10.291,0,0,0-.348,2.808,6.881,6.881,0,0,0,.516,2.856,3.633,3.633,0,0,0,1.32,1.632,3.175,3.175,0,0,0,1.716.5A4.206,4.206,0,0,0-10.3-2.736a.26.26,0,0,1,.192-.12.341.341,0,0,1,.192.048.233.233,0,0,1,.168.216.2.2,0,0,1-.048.144A5.524,5.524,0,0,1-11.652-.48,5.168,5.168,0,0,1-14.544.312ZM1.608-11.928a2.275,2.275,0,0,1,1.56.528,1.591,1.591,0,0,1,.6,1.224,1.215,1.215,0,0,1-.372.912,1.277,1.277,0,0,1-.924.36,1.27,1.27,0,0,1-.636-.156,5,5,0,0,1-.66-.468,4.454,4.454,0,0,0-.6-.408,1.137,1.137,0,0,0-.552-.144,1.45,1.45,0,0,0-1.08.564,6.053,6.053,0,0,0-.936,1.5v6.288q0,.72.36.936A2.023,2.023,0,0,0-.6-.576h.288q.168,0,.168.288T-.312,0H-6.384q-.168,0-.168-.288t.168-.288h.24A2.023,2.023,0,0,0-5.112-.792q.36-.216.36-.936V-9.144a1.111,1.111,0,0,0-.36-.984,2.514,2.514,0,0,0-1.2-.288q-.216-.024-.216-.384a.154.154,0,0,1,.144-.168q.624-.144,1.908-.42t2.268-.468h.048a.148.148,0,0,1,.168.168v2.5A6.526,6.526,0,0,1-.348-11.184,3.138,3.138,0,0,1,1.608-11.928ZM12.312.312A5.7,5.7,0,0,1,9.168-.564,5.992,5.992,0,0,1,7.056-2.856a6.265,6.265,0,0,1-.744-2.952A6.289,6.289,0,0,1,7.056-8.8a5.838,5.838,0,0,1,2.112-2.256,5.823,5.823,0,0,1,3.144-.852,5.884,5.884,0,0,1,3.156.852A5.9,5.9,0,0,1,17.6-8.8a6.21,6.21,0,0,1,.756,2.988A6.186,6.186,0,0,1,17.6-2.856,6.054,6.054,0,0,1,15.468-.564,5.762,5.762,0,0,1,12.312.312Zm0-.648a2.531,2.531,0,0,0,2.292-1.6,8.333,8.333,0,0,0,.828-3.876,8.254,8.254,0,0,0-.816-3.876,2.523,2.523,0,0,0-2.3-1.548,2.492,2.492,0,0,0-2.256,1.56A8.269,8.269,0,0,0,9.24-5.808a8.436,8.436,0,0,0,.816,3.876A2.493,2.493,0,0,0,12.312-.336ZM21.864,0q-.192,0-.192-.312,0-.264.192-.264h.24a2.374,2.374,0,0,0,1.1-.216.961.961,0,0,0,.408-.936l-.048-13.464A1.164,1.164,0,0,0,23.22-16.2a2.376,2.376,0,0,0-1.164-.288q-.24,0-.24-.36a.154.154,0,0,1,.144-.168q.36-.12,4.2-.888h.048a.148.148,0,0,1,.168.168V-1.728q0,.72.4.936a2.3,2.3,0,0,0,1.092.216h.264q.168,0,.168.264Q28.3,0,28.128,0Zm9.7,0q-.192,0-.192-.312,0-.264.192-.264h.24a2.374,2.374,0,0,0,1.1-.216.961.961,0,0,0,.408-.936l-.048-13.464a1.164,1.164,0,0,0-.348-1.008,2.376,2.376,0,0,0-1.164-.288q-.24,0-.24-.36a.154.154,0,0,1,.144-.168q.36-.12,4.2-.888H35.9a.148.148,0,0,1,.168.168V-1.728q0,.72.4.936a2.3,2.3,0,0,0,1.092.216h.264q.168,0,.168.264,0,.312-.168.312Z" transform="translate(0.312 37.536) rotate(90)" fill="#228f28" opacity="0.9"/>
</svg>
