<svg xmlns="http://www.w3.org/2000/svg" width="395.992" height="80.227" viewBox="0 0 395.992 80.227">
  <g id="lineup_title_mb" transform="translate(-177.455 -12302.516)">
    <path id="パス_3847" data-name="パス 3847" d="M4163.024,8003.983c-77.667-.423-208.817,1.97-317.212,12.5s-68.589,11.585-68.589,11.585,3.173-1.385-1.108-1.385" transform="translate(-3591.086 4353.168)" fill="none" stroke="#009f39" stroke-linecap="round" stroke-width="3"/>
    <g id="グループ_2928" data-name="グループ 2928" transform="translate(-209.5 4649.168)">
      <path id="パス_6082" data-name="パス 6082" d="M-147.339-26.877c-.51,0-.51.255-.51.663a27.351,27.351,0,0,1-.816,7.6A24.158,24.158,0,0,1-159.324-3.774c-.714.459-1.224.663-1.224,1.122,0,.918,3.315,3.57,4.182,3.57.561,0,1.275-.612,1.683-.918,7.6-5.865,10.761-12.342,12.24-21.675.153-.969.357-2.958,1.02-3.672a.777.777,0,0,0,.306-.51c0-.561-.714-.561-1.071-.612C-142.953-26.571-146.676-26.877-147.339-26.877Zm-8.925-7.752c-2.346,0-4.692-.1-7.038-.1-1.173,0-1.275.612-1.275,1.938v1.02c0,2.04.051,2.6,1.377,2.6,2.295,0,4.59-.153,6.936-.153h21.879c.459,0,1.581-.1,1.581.612s-5.661,5.712-6.579,6.528c-.357.306-1.275,1.02-1.275,1.53,0,.867,2.856,3.111,3.723,3.111.51,0,.867-.408,1.224-.714,1.887-1.683,4.539-4.284,6.324-6.12.612-.663,4.437-4.641,4.743-4.9.408-.306,1.122-.816,1.122-1.377,0-.918-1.275-2.3-1.887-2.958s-1.122-1.326-1.887-1.326a2.694,2.694,0,0,0-.663.051,36.6,36.6,0,0,1-5.3.255Zm55.59,4.539c-1.683,0-3.417-.1-5.1-.1-1.122,0-1.224.51-1.224,2.652,0,2.091.153,2.805,1.275,2.805.816,0,3.672-.153,5.1-.153l7.191-.1a1.046,1.046,0,0,1,1.071,1.071,25.47,25.47,0,0,1-1.326,4.845A34.687,34.687,0,0,1-104.754-3.621c-.306.255-.714.51-.714.918,0,.969,2.907,3.315,3.876,3.315.918,0,3.927-3.162,4.641-3.978A41.816,41.816,0,0,0-86.9-23.2c.153-.765.357-1.836,1.632-1.836l5.1-.051c2.346,0,3.06-.1,3.06,1.275a91.516,91.516,0,0,1-1.53,12.189c-.765,3.519-1.785,5-4.845,5-.612,0-1.275-.051-1.938-.1a6.172,6.172,0,0,0-.969-.051c-.612,0-.918.306-.918.867a10.465,10.465,0,0,0,1.326,3.57A1.559,1.559,0,0,0-84.3-1.275a20.641,20.641,0,0,0,3.06-.255c3.162-.459,5.253-1.428,6.63-4.437,1.581-3.468,2.4-10.506,2.856-14.433.1-.969.816-6.681.816-7.191,0-1.02-1.785-2.907-2.907-2.907-.765,0-4.08.153-5.61.153l-4.947.051a1.1,1.1,0,0,1-1.173-1.173c0-.459.357-3.519.408-4.284.153-1.581.1-1.632.714-2.193.2-.2.561-.561.561-.867,0-.408-.816-.612-1.173-.663-.663-.153-4.488-.918-4.9-.918-.714,0-.714.663-.714,1.173-.051,1.224-.255,6.732-.408,7.7a1.489,1.489,0,0,1-1.479,1.326Zm31.365-13.362c-.612,0-2.6,1.377-2.6,1.989,0,.255.255.51.408.663,1.173,1.428,2.4,2.856,3.417,4.335.153.255.357.561.663.561.612,0,2.55-1.428,2.55-2.244C-64.872-38.76-68.85-43.452-69.309-43.452Zm-5.1,3.468c-.612,0-2.6,1.275-2.6,1.938,0,.255.2.459.357.663A48.03,48.03,0,0,1-73.236-33c.153.2.357.51.663.51.663,0,2.6-1.428,2.6-2.193C-69.972-35.241-73.95-39.984-74.409-39.984ZM-30.09-5.61c0,.816-.408,1.734-1.377,1.734-1.53,0-3.978-.867-3.978-2.7a2.112,2.112,0,0,1,2.193-2.04A3.116,3.116,0,0,1-30.09-5.61Zm4.743-33.048a6.958,6.958,0,0,0-1.938.561c-2.958,1.173-9.639,1.887-12.9,1.887h-1.224c-1.53,0-1.581.1-1.581,1.275,0,.867.153,4.692,1.275,4.692.816,0,8.007-1.479,9.231-1.785a12.236,12.236,0,0,1,1.224-.2c.408,0,.867.153.867.612,0,.51-.918,1.428-1.326,1.836A204.363,204.363,0,0,1-47.583-13.77c-.459.357-1.224.918-1.224,1.53,0,.816,2.6,3.672,3.672,3.672a.692.692,0,0,0,.561-.357c1.836-2.091,3.672-4.182,5.661-6.12,3.264-3.213,6.783-5,11.424-5,4.437,0,8.619,2.04,8.619,6.987,0,5.151-4.845,7.854-6.171,7.854-.408,0-.561-.306-.612-.663a5.072,5.072,0,0,0-.918-3.264,8.319,8.319,0,0,0-6.783-3.621,6.4,6.4,0,0,0-6.528,6.171c0,5.2,6.018,6.936,10.251,6.936,8.211,0,16.218-4.692,16.218-13.719a10.54,10.54,0,0,0-6.069-9.894,14.957,14.957,0,0,0-6.273-1.53,9.69,9.69,0,0,0-2.091.2,2.985,2.985,0,0,1-.663.1c-.459,0-.867-.255-.867-.663a1.525,1.525,0,0,1,.51-.867,49.389,49.389,0,0,1,7.4-6.834c.561-.408,1.122-.714,1.122-1.071C-20.349-34.782-23.307-38.658-25.347-38.658ZM16.626-8.007A1.459,1.459,0,0,1,15.2-9.435V-30.5a1.459,1.459,0,0,1,1.428-1.428H39.474A1.459,1.459,0,0,1,40.9-30.5V-9.435a1.459,1.459,0,0,1-1.428,1.428ZM40.8-2.04a5.543,5.543,0,0,0-.051.918c0,1.326.816,1.275,2.856,1.275,2.142,0,2.805,0,2.805-1.428,0-2.04-.153-4.08-.153-6.171V-29.529c0-1.581.1-3.111.1-4.692,0-2.091-.918-2.6-2.856-2.6-1.53,0-3.111.1-4.641.1H17.289c-1.53,0-3.111-.1-4.692-.1-1.938,0-2.8.561-2.8,2.6,0,1.581.1,3.111.1,4.692V-7.395c0,2.091-.153,4.182-.153,6.273C9.741.2,10.455.2,12.546.2,14.841.2,15.3.153,15.3-1.275v-.51c.1-1.02.408-1.377,1.377-1.377h22.9A1.053,1.053,0,0,1,40.8-2.04ZM99.144-37.587c-.561,0-2.7,1.071-2.7,1.683,0,.306.51.918.714,1.224.765,1.122,1.581,2.5,2.244,3.672.459.765.561,1.071.969,1.071.612,0,2.7-1.173,2.7-1.938a16.292,16.292,0,0,0-1.938-3.366C100.827-35.7,99.654-37.587,99.144-37.587Zm5.3-3.519c-.51,0-2.7,1.071-2.7,1.785a.974.974,0,0,0,.153.408c1.122,1.683,2.091,3.009,3.06,4.794.153.306.306.714.714.714.561,0,2.7-1.173,2.7-1.989a17.038,17.038,0,0,0-1.887-3.315C106.029-39.372,104.907-41.106,104.448-41.106Zm-26.214,2.4c-1.785.255-3.366.357-3.366,1.071a3.562,3.562,0,0,0,.153.612,27.1,27.1,0,0,1,.969,3.315c.561,2.244,1.887,7.5,2.6,9.435a2.114,2.114,0,0,1,.153.816c0,.867-.612,1.173-1.224,1.581-4.029,2.55-7.6,6.018-7.6,11.118a8.869,8.869,0,0,0,4.641,7.9C77.928-.969,81.4-.714,85.17-.714c2.652,0,11.271-.306,13.566-.714,1.326-.255,1.428-.765,1.428-2.142v-.612c0-1.173-.051-3.264-.765-3.264a1.735,1.735,0,0,0-.51.051c-.765.153-4.386.714-5.3.816a69.435,69.435,0,0,1-7.956.51,20.641,20.641,0,0,1-6.834-.867C77.214-7.5,75.48-8.823,75.48-10.659c0-4.539,7.7-8.415,11.169-10.251A85.687,85.687,0,0,1,97.257-25.7c.357-.1.969-.255.969-.765,0-.816-2.448-5.2-3.315-5.2a3.364,3.364,0,0,0-1.326.561c-1.224.765-7.854,4.794-8.772,4.794-.867,0-1.02-.867-1.173-1.53-.612-3.06-1.275-6.069-1.581-9.18-.1-1.173,0-1.887-1.428-1.887A18.223,18.223,0,0,0,78.234-38.709Zm71.6.969a2.286,2.286,0,0,0,.051.612,61.563,61.563,0,0,1,1.275,8.364,1.37,1.37,0,0,1-1.071,1.377c-1.173.255-6.375.663-7.8.765-2.244.1-2.448.1-2.448,2.091,0,3.213.816,3.315,1.479,3.315a10.636,10.636,0,0,0,1.785-.2c.918-.153,6.885-1.071,7.293-1.071,1.173,0,1.275,1.02,1.275,2.6v1.071c0,7.242-1.683,11.883-7.293,16.575a.839.839,0,0,0-.408.765c0,.918,2.8,3.366,3.723,3.366,1.071,0,3.009-2.3,3.621-3.111a25.036,25.036,0,0,0,5.61-16.677c0-1.326-.051-2.7-.051-4.08,0-1.785,1.479-1.734,3.315-1.938,2.652-.357,3.213-.408,3.213-1.683,0-.867-.051-3.978-1.173-3.978a3.937,3.937,0,0,0-.765.1c-.561.153-3.366.765-3.774.765-.867,0-1.122-.714-1.173-1.479-.051-1.581-.255-3.162-.255-4.743,0-1.938.765-1.836.765-2.5,0-.357-.459-.459-.714-.51-1.53-.255-3.111-.2-4.692-.357-.255,0-.612-.1-.867-.1C150.3-38.4,149.838-38.25,149.838-37.74Zm-15.1,1.734c-.561-.2-4.284-1.53-4.539-1.53-.612,0-.663.765-.765,1.224a11.686,11.686,0,0,1-.357,1.428,60.246,60.246,0,0,0-2.6,16.728c0,5.406.918,11.373,3.621,16.116.663,1.122.969,1.581,1.785,1.581.459,0,3.876-.714,3.876-2.7,0-.816-.051-1.632-.051-2.4,0-3.366,1.887-8.262,1.887-8.925,0-.612-1.683-1.53-2.142-1.53-.561,0-.918,1.122-1.428,2.4-.2.459-.714,2.244-1.122,2.244-.969,0-1.326-5.916-1.326-6.885a41.591,41.591,0,0,1,2.754-14.331,2.928,2.928,0,0,1,1.632-1.836c.255-.153.51-.255.51-.561C136.476-35.547,135.762-35.7,134.742-36.006Z" transform="translate(585 7697)" fill="#009f39" stroke="#009f39" stroke-linecap="round" stroke-width="0.4"/>
    </g>
  </g>
</svg>
