<svg id="logo_greenghana" xmlns="http://www.w3.org/2000/svg" xmlns:xlink="http://www.w3.org/1999/xlink" width="440" height="191.774" viewBox="0 0 440 191.774">
  <defs>
    <clipPath id="clip-path">
      <rect id="長方形_1526" data-name="長方形 1526" width="440" height="191.774" fill="none"/>
    </clipPath>
  </defs>
  <g id="グループ_2440" data-name="グループ 2440" clip-path="url(#clip-path)">
    <path id="パス_2743" data-name="パス 2743" d="M153.425,149.2V121.829c0-9.29-9.8-15.283-18.471-10.675l-14.369,7.64V83.524H93.218v2.737h5.474V149.2H93.218v2.737h31.473V149.2h-4.105V121.893l6.615-3.51c2.052-1.09,4.332-.123,4.332,2.315V149.2h-4.107v2.737H158.9V149.2Z" transform="translate(42.928 38.464)" fill="#176114"/>
    <path id="パス_2744" data-name="パス 2744" d="M240.869,140.993V113.617c0-9.29-9.8-15.283-18.471-10.675l-14.369,7.64v-8.814H180.662v2.737h5.474v36.488h-5.475v2.737h31.473v-2.737h-4.106V113.682l6.615-3.51c2.052-1.09,4.332-.123,4.332,2.315v28.506H214.87v2.737h31.473v-2.737Z" transform="translate(83.197 46.675)" fill="#176114"/>
    <path id="パス_2745" data-name="パス 2745" d="M110.263,151.005v-26h5.473V122.27h-30.1v2.737h5.474V138.69c0,8.667-5.473,12.315-12.315,12.315-6.385,0-7.754-3.878-7.754-9.124V94.219c0-2.81,0-8.895,7.907-8.895h.1c14.119,0,23.9,10.035,26.662,23.263H108.9V85.324h-3.878c-.456,2.508-3.876,3.193-8.665,1.167a46.849,46.849,0,0,0-17.625-3.882h-.006c-.428-.015-.862-.023-1.3-.023a35.577,35.577,0,1,0,0,71.155,35.4,35.4,0,0,0,15.051-3.334c5.8-2.823,12.873-1.91,15.055.6h2.737" transform="translate(19.27 38.032)" fill="#176114"/>
    <path id="パス_2746" data-name="パス 2746" d="M195.1,137.1c-2.054,0-3.193-.911-3.193-3.193v-18.7c0-2.7-.012-13.51-21.889-14.71h0c-1.1-.06-2.01-.1-3.215-.111-15.258,0-24.153,5.7-24.153,11.629,0,4.333,3.876,6.158,9.35,6.158,7.07,0,11.4-2.281,11.4-7.07a5.965,5.965,0,0,0-1.569-4,3.961,3.961,0,0,1,4.078-3.983c2.963,0,4.1,2.28,4.1,4.789v11.632H163.4c-16.421,0-23.491,5.7-23.491,14.139,0,6.158,4.333,11.859,14.369,11.859a25.8,25.8,0,0,0,11.858-2.87l4.668-2.483c1.567,3.664,5.341,5.353,10.156,5.353a21.021,21.021,0,0,0,9.651-2.788l6.768-3.6V137.1Zm-25.086.406-1.382.735c-3.863,2.055-6.828,0-6.828-3.876v-5.816c0-4.675,2.508-6.271,5.93-6.271h2.28Z" transform="translate(64.429 46.231)" fill="#176114"/>
    <path id="パス_2747" data-name="パス 2747" d="M282.542,137.1c-2.052,0-3.193-.911-3.193-3.193v-18.7c0-2.7-.012-13.51-21.889-14.71h0c-1.1-.06-2.01-.1-3.215-.111-15.258,0-24.153,5.7-24.153,11.629,0,4.333,3.876,6.158,9.35,6.158,7.07,0,11.4-2.281,11.4-7.07a5.965,5.965,0,0,0-1.569-4,3.961,3.961,0,0,1,4.078-3.983c2.963,0,4.1,2.28,4.1,4.789v11.632h-6.613c-16.421,0-23.491,5.7-23.491,14.139,0,6.158,4.333,11.859,14.369,11.859a25.8,25.8,0,0,0,11.858-2.87l4.668-2.483c1.567,3.664,5.341,5.353,10.156,5.353a21.022,21.022,0,0,0,9.651-2.788l6.768-3.6V137.1Zm-25.086.406-1.382.735c-3.863,2.055-6.828,0-6.828-3.876v-5.816c0-4.675,2.508-6.271,5.93-6.271h2.28Z" transform="translate(104.699 46.231)" fill="#176114"/>
    <path id="パス_2748" data-name="パス 2748" d="M152.175,147.956V120.58c0-9.29-9.8-15.283-18.471-10.675l-14.367,7.64V82.275H91.97v2.737h5.473v62.944H91.97v2.737h31.471v-2.737h-4.1V120.644l6.613-3.51c2.052-1.09,4.332-.123,4.332,2.315v28.506h-4.107v2.737h31.473v-2.737Z" transform="translate(42.353 37.889)" fill="#009e3a"/>
    <path id="パス_2749" data-name="パス 2749" d="M239.618,139.744V112.368c0-9.29-9.8-15.283-18.471-10.675l-14.367,7.64v-8.814H179.413v2.737h5.473v36.488h-5.474v2.737h31.471v-2.737h-4.1V112.433l6.613-3.51c2.052-1.09,4.332-.123,4.332,2.315v28.506H213.62v2.737h31.473v-2.737Z" transform="translate(82.622 46.1)" fill="#009e3a"/>
    <path id="パス_2750" data-name="パス 2750" d="M109.013,149.756v-26h5.473v-2.737h-30.1v2.737h5.474v13.684c0,8.667-5.473,12.315-12.315,12.315-6.385,0-7.754-3.878-7.754-9.124V92.97c0-2.81,0-8.895,7.907-8.895h.1c14.119,0,23.9,10.035,26.662,23.263h3.193V84.075h-3.878c-.456,2.508-3.876,3.193-8.665,1.167A46.85,46.85,0,0,0,77.477,81.36h-.006c-.428-.015-.862-.023-1.3-.023a35.577,35.577,0,1,0,0,71.155,35.4,35.4,0,0,0,15.051-3.334c5.8-2.823,12.873-1.91,15.055.6h2.737" transform="translate(18.695 37.457)" fill="#009e3a"/>
    <path id="パス_2751" data-name="パス 2751" d="M193.849,135.855c-2.053,0-3.193-.911-3.193-3.193v-18.7c0-2.7-.012-13.51-21.889-14.71h0c-1.1-.06-2.01-.1-3.215-.111-15.258,0-24.153,5.7-24.153,11.629,0,4.333,3.876,6.158,9.35,6.158,7.07,0,11.4-2.281,11.4-7.07a5.965,5.965,0,0,0-1.569-4,3.961,3.961,0,0,1,4.078-3.983c2.963,0,4.1,2.281,4.1,4.789V118.3H162.15c-16.421,0-23.491,5.7-23.491,14.139,0,6.158,4.333,11.859,14.369,11.859a25.8,25.8,0,0,0,11.858-2.87l4.668-2.483c1.567,3.664,5.341,5.353,10.156,5.353a21.021,21.021,0,0,0,9.651-2.788l6.768-3.6v-2.053Zm-25.086.406-1.382.735c-3.863,2.055-6.828,0-6.828-3.876V127.3c0-4.675,2.508-6.271,5.93-6.271h2.28Z" transform="translate(63.854 45.656)" fill="#009e3a"/>
    <path id="パス_2752" data-name="パス 2752" d="M281.292,135.855c-2.053,0-3.193-.911-3.193-3.193v-18.7c0-2.7-.012-13.51-21.889-14.71h0c-1.1-.06-2.01-.1-3.215-.111-15.258,0-24.152,5.7-24.152,11.629,0,4.333,3.876,6.158,9.35,6.158,7.07,0,11.4-2.281,11.4-7.07a5.965,5.965,0,0,0-1.569-4,3.961,3.961,0,0,1,4.078-3.983c2.963,0,4.1,2.281,4.1,4.789V118.3h-6.613c-16.421,0-23.491,5.7-23.491,14.139,0,6.158,4.333,11.859,14.369,11.859a25.8,25.8,0,0,0,11.858-2.87L257,138.941c1.567,3.664,5.341,5.353,10.156,5.353a21.02,21.02,0,0,0,9.651-2.788l6.768-3.6v-2.053Zm-25.086.406-1.382.735c-3.863,2.055-6.828,0-6.828-3.876V127.3c0-4.675,2.508-6.271,5.93-6.271h2.28Z" transform="translate(104.123 45.656)" fill="#009e3a"/>
    <path id="パス_2753" data-name="パス 2753" d="M112.49,75.669c.1.1.1.359.066.9a5.961,5.961,0,0,0,0,1.176.129.129,0,0,1-.034.1,2.794,2.794,0,0,0-.533,2.534c.025.149.047.3.06.448a20.153,20.153,0,0,1,.031,2.153l-.013.786a.857.857,0,0,1-.022.148l-.007.035a3.4,3.4,0,0,0-.06.416c-.012.2-.012.409-.01.613a3.7,3.7,0,0,1-.053.83,3.014,3.014,0,0,0,.207,2.379.13.13,0,0,1,.012.118l-.505,1.256.53,1.275a.139.139,0,0,1,.009.06,25.537,25.537,0,0,0,.148,5.943.123.123,0,0,1-.013.082l-.586,1.09.145.98a.285.285,0,0,1-.15.291,6.144,6.144,0,0,0-.816.776,5.182,5.182,0,0,1-.508.505c-.678.562-1.455,1.16-2.443,1.881-.6.44-1.225.869-1.829,1.284l-.345.083a.915.915,0,0,1-.145.095c-.6.256-1.187.5-1.78.746l-1.019.424a1,1,0,0,0-.628.51c-.166.326-.463.457-1.1.679-.213.074-.434.152-.638.242a3.218,3.218,0,0,0-1.855,1.715.124.124,0,0,1-.069.07c-.757.329-1.58.67-2.516,1.046-.171.067-.345.124-.52.183l-.06.02a6.594,6.594,0,0,0-1.208.486l-.234.13a5.44,5.44,0,0,1-2.365.876l-.111.02-2.021.981a2.881,2.881,0,0,0-.705.415,3.336,3.336,0,0,1-2.962.78l-.456-.08-.332.332a1.374,1.374,0,0,1-.812.476.4.4,0,0,1-.206-.058l-.308-.171-.968.235c-.475.112-.869.207-1.256.324a4.483,4.483,0,0,0-.666.28,3.531,3.531,0,0,1-.326.15c-.171.064-.345.133-.517.2l-.134.053a10.3,10.3,0,0,1-1.608.551,12.542,12.542,0,0,1-1.39.193,11.677,11.677,0,0,0-1.922.307c-1.155.314-2.283.724-3.374,1.12-.431.156-.86.313-1.294.463a1.5,1.5,0,0,0-.878.586c-.143.225-.263.326-.387.326a3.228,3.228,0,0,1-1.078-.412l-.5-.25-.729.513a4.064,4.064,0,0,1-.336.238l-.172.108a1.693,1.693,0,0,1-.762.353.552.552,0,0,1-.172-.031,1.483,1.483,0,0,0-.437-.066,2.69,2.69,0,0,0-.9.2,2.2,2.2,0,0,1-.583.137.122.122,0,0,1-.1-.044l-.187-.21-1.072-.1c-.551-.053-1.069-.1-1.576-.107a2.831,2.831,0,0,0-1.44.381,1.6,1.6,0,0,1-1.281.181,4.611,4.611,0,0,0-.9-.082c-.39,0-.8.039-1.167.076l-.324.031c-.169.015-.283.025-.383.025a.116.116,0,0,1-.057-.013,2.324,2.324,0,0,1-.428-.4L54,118.618l-1.165.4c-.406.137-.832.28-1.255.432a1.216,1.216,0,0,1-.412.1.308.308,0,0,1-.072-.007.136.136,0,0,1-.072-.055l-.313-.494L50.1,119a11.929,11.929,0,0,1-1.554.1,9.9,9.9,0,0,1-4.214-.92l-.359-.164-.46.2c-.464.2-1.26-.52-1.589-.52-.142,0-.294-.025-.5-.314l-.19-.272-.318-.083c-.3-.082-.583-.166-.86-.248a12.523,12.523,0,0,0-1.944-.467,8.716,8.716,0,0,0-1.142-.066c-.277,0-.554.007-.831.016l-.073,0h-.006a.127.127,0,0,1-.074-.025l-2.023-1.433-.773.035a.128.128,0,0,1-.057-.01l-1.1-.463c-.622-.259-1.266-.526-1.886-.824a12.813,12.813,0,0,1-1.284-.736l-.387-.238a.174.174,0,0,1-.034-.032,1.406,1.406,0,0,0-.415-.364q-.651-.368-1.3-.73l-.33-.185c-.856-.475-1.739-.968-2.6-1.477-.437-.259-.86-.549-1.271-.831l-.029-.02c-.5-.345-.954-.651-1.423-.929-.451-.266-.942-.5-1.376-.713-.361-.172-.735-.352-1.092-.555a6.334,6.334,0,0,1-1.195-.869,17.771,17.771,0,0,1-1.7-1.772c-.44-.546-.527-.21-.929-.773-.27-.378-.542-.758-.819-1.13a4.881,4.881,0,0,0-1.04-1.12,7.923,7.923,0,0,1-1.994-2.4l-.326-.51c-.348-.536-.686-1.078-1.027-1.621a39.3,39.3,0,0,0-2.549-4.046,12.737,12.737,0,0,1-1.5-2.752c-.107-.24-.355-.781-.4-.884l-.083-.1a6.138,6.138,0,0,1-1.431-2.344,6.982,6.982,0,0,0-.332-1.18l-.035-.05a.861.861,0,0,1-.1-.168c-.294-.881-.269-1.583-.478-2.344l-.162-.587c-.234-.831-.589-1.671-.758-2.483-.1-.485-.326-1.065-.387-1.506a18.517,18.517,0,0,0-.359-2.014A6.581,6.581,0,0,1,.59,73.825a13.571,13.571,0,0,0,.038-1.956,4.919,4.919,0,0,0-.19-1.157,2.778,2.778,0,0,1-.172-1.85,4.252,4.252,0,0,0-.045-2.188l-.038-.188a11.027,11.027,0,0,1,.012-4.066,2.575,2.575,0,0,0-.053-1.475,3.064,3.064,0,0,1,.041-1.888,8.66,8.66,0,0,0,.2-1.3,2.087,2.087,0,0,1,.187-.4c.079-.145.156-.292.223-.443l.24-.549-.745-.819a.121.121,0,0,1-.034-.092c.085-1.744.209-1.91.854-2.5l.482-.437-.6-1.44a.122.122,0,0,1,0-.091l1.057-3.127a.135.135,0,0,1,.045-.061l.814-.606-.333-.938a.126.126,0,0,1,0-.08c.042-.137.08-.275.12-.413l.037-.126A12.284,12.284,0,0,1,3.1,44.464c.276-.7-.037-1.366.257-2.045l.457-1.071c.165-.389.326-.78.485-1.171l.013-.035a8.6,8.6,0,0,1,.462-1.4l.245-.41.19-.321c-.129-.721.155-.936.432-1.082l.225-.343.229-.237a12.462,12.462,0,0,1,2.021-3.574,11.442,11.442,0,0,0,1.58-3.161c.161-.52.245-.593.273-.616a.122.122,0,0,1,.061-.031l.667-.123.13-.7.1-.946a.13.13,0,0,1,.082-.105l1.287-.514-.26-.818a1.115,1.115,0,0,1-.079-.5.138.138,0,0,1,.05-.08,3.99,3.99,0,0,1,1.036-.253l.093-.857a.128.128,0,0,1,.051-.091l.608-.445c-.226-.559-.066-.77.7-1.447.117-.1.234-.2.346-.31a19.239,19.239,0,0,0,1.579-1.72l.07-.082c.15-.178.3-.356.456-.532a2.075,2.075,0,0,0,.253-.381l.131.026h0l-.114-.057a.182.182,0,0,1,.031-.044c.256-.226.527-.445.767-.638a10.257,10.257,0,0,0,1.812-1.735,8.538,8.538,0,0,1,2.382-2.162c.58-.356,1.163-.707,1.833-1.113l1.366-.824.07-.41c.066-.372.2-.447.4-.447a1.306,1.306,0,0,1,.267.034l.7.158.307-.662c.158-.343.285-.381.517-.381a1.639,1.639,0,0,0,1.57-.889c.114-.314.251-.505,1.2-.52l.889-.013V8.188a.13.13,0,0,1,.093-.124,8.519,8.519,0,0,0,2.359-1.2,11.877,11.877,0,0,1,1.195-.713c1.255-.615,2.6-1.144,3.892-1.655l.435-.171a1.387,1.387,0,0,1,.288-.02,3.54,3.54,0,0,0,.559-.047l.127-.023.086-.044c.332-.155.65-.337.974-.524a3.461,3.461,0,0,1,2.445-.691,5.36,5.36,0,0,0,3.735-.907A8.353,8.353,0,0,1,50.9.843l.361-.069A17.653,17.653,0,0,1,54.593.345,7.5,7.5,0,0,1,55.536.4c.809.1,1.634.183,2.363.253l1.32.133.523-.324a.109.109,0,0,1,.08-.019L59.89.45,65.557.015a.447.447,0,0,1,.2,0,10.528,10.528,0,0,0,4.438.4h.041A4.057,4.057,0,0,1,71.429.65c.229.07.454.137.678.191.58.142,1.16.294,1.737.447a39.675,39.675,0,0,0,4.05.919c.253.039.5.066.8.1a4.9,4.9,0,0,1,1.534.311l.164.061a.132.132,0,0,1,.037.012c.159.077.32.162.48.248a4.961,4.961,0,0,0,2.376.757,3.38,3.38,0,0,0,.4-.025.129.129,0,0,1,.089.02l.1.072.031.023a4.827,4.827,0,0,0,.413.267l.948.516.047-.142a.133.133,0,0,1,.066-.077.131.131,0,0,1,.1,0L90.8,6.32l.247-.05c1.076-.222,2.09.134,3.388,1.208l.193.159.247.038a2.944,2.944,0,0,1,2.02.949l.283.222L97.7,8.8c.383-.037.659-.063.878-.072a.131.131,0,0,1,.127.083l.123.34.277.166c.5.3.976.594,1.442.884l.029.019a34.963,34.963,0,0,0,3.19,1.831A6.389,6.389,0,0,1,105.83,13.8a.861.861,0,0,1,.168.3c.035.631.028,1.272.022,1.786l0,.288a.121.121,0,0,1-.018.064l-3.558,6.054a.121.121,0,0,1-.05.048,4.779,4.779,0,0,0-1.808,2.2l-.022.042c-.108.206-.216.413-.333.61a1.2,1.2,0,0,0-.095.206.121.121,0,0,1-.029.05,6.082,6.082,0,0,0-1.163,1.89l-.019.039a6.169,6.169,0,0,1-.559,1.06L95.909,31.86l.251.5a.613.613,0,0,1,.058.156.137.137,0,0,1,0,.069,2.3,2.3,0,0,1-.459.564A4.6,4.6,0,0,0,94.7,34.674l-.044.117-.009.095c-.2,1.529-1.811,2.769-3.745,2.882A9.3,9.3,0,0,1,86.417,36.5l-.318-.15c-.876-.412-1.76-.878-2.613-1.331a28.332,28.332,0,0,0-6.413-2.738L75.957,32a41.863,41.863,0,0,0-8.328-1.5,8.869,8.869,0,0,1-1.792-.282,7.549,7.549,0,0,0-4.8.4.308.308,0,0,1-.2.023,4.227,4.227,0,0,0-1.462-.237,9.658,9.658,0,0,0-2.321.368l-.327.08a6.516,6.516,0,0,1-1.485.185c-.077,0-.438-.01-.438-.01a6.576,6.576,0,0,0-2.465.609l-.058.023c-.254.1-.516.2-.781.288-.178.055-.358.105-.539.153-.27.073-.514.14-.752.221-.08.028-.166.053-.251.077a2.785,2.785,0,0,0-1.209.6,7.726,7.726,0,0,1-3.266,1.763,5.565,5.565,0,0,0-1.991,1.3l-.114-.073.086.1c-.187.165-.38.336-.575.488a4.74,4.74,0,0,0-.5.479c-.074.079-.148.159-.228.232-2.181,1.982-4.947,4.181-5.456,7.456a1.338,1.338,0,0,1-.1.314c-.835,1.877-1.929,3.127-2.189,5.788a20.114,20.114,0,0,1-.759,3.448c-.174.615-.418,1.3-.561,1.906a7.765,7.765,0,0,0-.152.989c-.013.142.177,1.313.156,1.455-.031.2-.051.41-.07.619a4.214,4.214,0,0,1-.184,1.065,6.5,6.5,0,0,0,0,3.529.118.118,0,0,1,.012.05l1.111,3.638a.111.111,0,0,1-.007.048l-.184.552.748,3.114.127.146c.41.47.453.6.286.851l-.251.372.14.428a11.641,11.641,0,0,0,2.766,5.118.133.133,0,0,1,.029.147c.006.06.031.18.039.225l.088.412,1.811,2.08L41.3,83.486c.244.1.5.18.776.264.795.244,1.281.415,1.531.908l.152.3,1.3.543c1.047.437,2.251,1.607,3.279,2.026a2.184,2.184,0,0,0,.863.228,1.165,1.165,0,0,0,.424-.076.66.66,0,0,1,.226-.044,2.058,2.058,0,0,1,.814.3,5,5,0,0,0,.925.391,3.53,3.53,0,0,1,.426.162l.05.022a4.61,4.61,0,0,0,.875.3c.41.088.847.143,1.233.191a6.471,6.471,0,0,1,1.758.375c.832.367,1.964-.079,2.975-.079A17.144,17.144,0,0,0,61.3,89.08L61.86,89a2.662,2.662,0,0,1,1.316.123c.831.355,1.482-.346,2.391-.624a.118.118,0,0,1,.092.006l1.1.5.362-.155a4.185,4.185,0,0,1,1.414-.229,7.54,7.54,0,0,0,1.9-.282.139.139,0,0,1,.1.01l1.109.622L72,88.862c.52-.159,1.043-.3,1.6-.448l.047-.013a22.753,22.753,0,0,0,4.24-1.447c1.4-.692,3.323-1.64,3.616-3.932a18.073,18.073,0,0,0,.429-1.907V80.8c.009-1.018-.015-4.333-.016-5.63l-.086-3.051-1.314.272a.591.591,0,0,1-.351.105,3.165,3.165,0,0,1-1.1-.334l-.624.266L77.4,72.91a.13.13,0,0,1-.111.026,10.161,10.161,0,0,0-2.24-.228c-.837,0-1.691.077-2.445.145-.72.064-1.377.123-2.042.137a7.556,7.556,0,0,0-1,.107,5.609,5.609,0,0,1-.831.091,1.526,1.526,0,0,1-.662-.133,1.866,1.866,0,0,0-.777-.158,4.764,4.764,0,0,0-1.215.213l-.051.015c-.15.039-.3.077-.438.105-.336.063-.676.145-1.027.231a10.543,10.543,0,0,1-1.585.3,16.4,16.4,0,0,1-2.759-.1.124.124,0,0,1-.05-.016,2.324,2.324,0,0,1-.679-.986l-.1-.869c-.107-.908-.216-1.848-.247-2.768a9.679,9.679,0,0,1,.118-1.507c.045-.334.085-.644.11-.948.009-.085.019-.168.028-.253l.007-.063a2.923,2.923,0,0,0-.428-2.273.125.125,0,0,1-.026-.082c.022-.929.055-1.862.095-2.946l.051-1.417-.108-.212c-.47-.927-.47-2.316,0-4.247l.079-.318-.14-.3a2.526,2.526,0,0,1,.069-2.2l.229-.5-.859-1.132a.129.129,0,0,1-.018-.126.391.391,0,0,1,.231-.2c.332-.158.648-.323.965-.488l.594-.307a1.159,1.159,0,0,1,1.146.047,3.534,3.534,0,0,0,1.791.148l1.541-.137c.724-.066,1.452-.13,2.178-.183.786-.057,1.573-.105,2.36-.153.7-.044,1.406-.088,2.11-.136a2.925,2.925,0,0,0,1.056-.248.832.832,0,0,1,.337-.1.411.411,0,0,1,.244.111,1.861,1.861,0,0,0,1.186.348c.076,0,.149,0,.219-.007.656-.039,1.312-.092,1.966-.145.6-.048,1.2-.1,1.807-.136,1.42-.089,2.588-.145,3.675-.175h0a8.4,8.4,0,0,1,.847.045c.25.022.479.042.707.051.112,0,.225.009.337.009a3.458,3.458,0,0,0,.73-.069c.453-.1.9-.2,1.354-.313.821-.2,1.595-.384,2.379-.5.53-.076,1.31.7,1.891.681a16.187,16.187,0,0,0,1.922-.136l.511-.085A8.2,8.2,0,0,1,93.8,48.27c.044,0,.152,0,.25.009l.187.006a4.611,4.611,0,0,0,1.5-.329l.055-.019c.18-.063.365-.126.552-.171.3-.07.6-.167.878-.253a3.531,3.531,0,0,1,1.534-.286,8.016,8.016,0,0,0,1.363.108c.581,0,1.144-.05,1.687-.1l.061-.006c.356-.031.727-.063,1.1-.077.32,0,.288.209.634-.089.2-.174.815-.115.943-.115.27,0,.191-.115.52.02l.4.115.713.172c.9-.451,1.176-.209,2.223.289a3.186,3.186,0,0,0,1.168.253l.072,0a2.313,2.313,0,0,1,.4.051c.332.082.336-.025.441,0,.346.076.394.123.4.134a6.871,6.871,0,0,1,.615.789l.055.083c.2.3.394.6.6.889a4.155,4.155,0,0,0,.351.432.127.127,0,0,1,.032.1l-.015.158a32.1,32.1,0,0,0-.161,6l-.231,2.9c.053.533.108,1.087.139,1.631.1,1.706.158,3.032.19,4.3.038,1.6.07,3.163.032,4.76-.026,1.043-.092,2.086-.162,3.19l-.007.118c-.029.464-.107,1.751-.124,2.04ZM439.613,56.463l-.365-.621.313-.481a1.473,1.473,0,0,0-.247-1.874l-.38-.425.212-.532a2.739,2.739,0,0,0-.06-2.512l-.093-.164-.022-.188c-.026-.228-.042-.438-.06-.66a4.9,4.9,0,0,0-.118-.868c-.1-.356-.231-.7-.365-1.056s.034-.378-.069-.707c-.3-.961-.581-1.925-.869-2.89q-.388-1.312-.787-2.623c-.1-.329-.218-.654-.342-1-.152-.426-.032-.47-.153-.91a13.7,13.7,0,0,0-2.36-4.24l-.153-.213a23.826,23.826,0,0,0-2.442-2.743l-.035-.037c-.336-.342-.672-.684-1-1.031a2.718,2.718,0,0,0-.565-.419c-.272-.164-.549-.317-.827-.472-.342-.191-.73-.407-1.1-.635-.258-.162-.518-.356-.727-.511-.618-.46-1.3-1.139-1.8-1.139a1.366,1.366,0,0,0-.19.013l-.139.009a1.292,1.292,0,0,1-.846-.378c-.251-.153-.5-.314-.748-.475l-.044-.028a14.36,14.36,0,0,0-1.715-1,9.238,9.238,0,0,0-1.539-.5c-.282-.073-.561-.146-.841-.232a1.835,1.835,0,0,1-.64-.317,3.015,3.015,0,0,0-2.952-.85,2.4,2.4,0,0,1-.979.015c-.066-.01-.131-.02-.194-.026l-.5-.038c-.475-.037-.967-.074-1.446-.142l-.237-.029a4.2,4.2,0,0,1-1.538-.409.723.723,0,0,0-.356-.105,1.165,1.165,0,0,0-.473.134l-1.645.771-.438-.364a1.275,1.275,0,0,0-1.364-.253,4.008,4.008,0,0,1-2.591.155,1.509,1.509,0,0,0-.353-.047.516.516,0,0,0-.472.2,3.639,3.639,0,0,1-3.111,1.354h-.108a4.926,4.926,0,0,0-2.069.637,12.527,12.527,0,0,1-1.227.517,3.033,3.033,0,0,0-1.44.838,5.671,5.671,0,0,1-2.221,1.58c-.146.069-.294.139-.44.212a9.846,9.846,0,0,0-1.322.793.722.722,0,0,0-.088.12l-.034.048a2.355,2.355,0,0,1-.465.545c-.6.5-1.218.981-1.83,1.468l-.111.086q-.811.642-1.617,1.291a3.25,3.25,0,0,0-.4.429l-.131.156q-.215.252-.421.507c-.183.223-.365.445-.554.663q-.429.489-.863.971l-.028.032c-.432.483-1.107.987-1.534,1.493a16.112,16.112,0,0,1-2.156,2.059l-1.04.828-.012-2.844a17.592,17.592,0,0,1,.816-7.044,6.492,6.492,0,0,0,.267-1.969,5.185,5.185,0,0,0-.12-.939,8.132,8.132,0,0,1-.139-.967c-.172-2.423-1.652-2.433-2.138-2.438-.291,0-.578-.007-.879-.013-.356-.006-.714-.013-1.072-.013a9.6,9.6,0,0,0-3.413.482,1.62,1.62,0,0,1-.676.069c-.231-.022-.462-.038-.692-.055a17.961,17.961,0,0,1-1.8-.2,8.752,8.752,0,0,0-1.481-.167,2.427,2.427,0,0,0-1.246.288l-.272.153-.305-.047c-.385-.058-.761-.145-1.176-.242a7.089,7.089,0,0,0-1.551-.25,2.3,2.3,0,0,0-.714.105l-.226.058h-.145a1.866,1.866,0,0,1-.518-.088,6.36,6.36,0,0,0-3.835.247l-.818.193-.137-.308a.131.131,0,0,0-.108-.076c-.168-.013-.367-.029-.565-.029l-.127,0a3,3,0,0,0-.445.063l-.054.01a4.613,4.613,0,0,1-.849.1,2.17,2.17,0,0,1-.4-.034,1.9,1.9,0,0,0-1.845.545,5.973,5.973,0,0,1-.892.685,3.763,3.763,0,0,0-1.164,1.874,12.175,12.175,0,0,0,.025,2.4c.085.727.225,1.444.372,2.208.08.41.161.822.231,1.239a4.2,4.2,0,0,1,.045.777v.129c0,.2-.018.415-.035.613a1.9,1.9,0,0,0-.007.641c.51,1.306-.055,3.029-.215,3.847a5.159,5.159,0,0,0,.171,2.492,14.39,14.39,0,0,1,.422,2.933c.035.478.031.974.026,1.414a8.475,8.475,0,0,0,.123,1.982,11.385,11.385,0,0,1,.139,3.375c-.028.464-.058.945-.054,1.423.006.748-.006,1.51-.015,2.248l0,.156c-.016,1.072-.225,2.366-.193,3.445.038,1.274.155,2.581.269,3.854l-.175,1.767a4.7,4.7,0,0,0,.1.581l.019.092c.034.158.066.314.092.472.044.273.114.556.18.815a7.374,7.374,0,0,1,.044,2.969,3.46,3.46,0,0,0,.06,1.43,4.781,4.781,0,0,1,0,2.185.129.129,0,0,0,.007.091,2.76,2.76,0,0,1,0,2.018l-.032.107a1.841,1.841,0,0,0,.1,1.586,2.6,2.6,0,0,1,.317,1.148l.026.219a7.05,7.05,0,0,1,.086,1.09c0,.559-.018,1.293-.073,2.018-.026.311-.064.615-.111.957a10.223,10.223,0,0,0-.114,1.234c0,.378.032.764.067,1.136l0,.057a8.6,8.6,0,0,1,0,2.316A4.983,4.983,0,0,0,353,89.585l.074.21-.314,4.224c0,.032.023.06.025.093.067,1.6-.215,2.53-.086,3.67a13.867,13.867,0,0,1-.107,1.62,7.309,7.309,0,0,1-.247,3.162,3.123,3.123,0,0,0-.127.847c-.01.14-.02.28-.035.421-.034.311-.051.629-.07.936l-.006.105a10.774,10.774,0,0,1-.311,2.4,4.92,4.92,0,0,0,.868,2.813,2.916,2.916,0,0,0,2.1,1.314h0a19.406,19.406,0,0,1,3.042-.167s.892,0,1.168-.006q.865-.011,1.732-.01l2.963.006.294.263c.07.064.19.169.283.24a.149.149,0,0,0,.1.025,4.223,4.223,0,0,1,.786-.064c.077,0,.263.006.438.01s.313.009.371.009a2.231,2.231,0,0,0,.381-.026c1.7-.279,2.86-1.107,4.339-.821.875.171,1.748.28,2.7.4.41.051.821.1,1.231.159l.261.035a.11.11,0,0,0,.044,0,3.172,3.172,0,0,1,.646-.077l.736.054c.656.055,1.276.108,1.89.108a5.722,5.722,0,0,0,2.591-.514,1.693,1.693,0,0,1,.735-.149l.282.007a.422.422,0,0,0,.237-.047.133.133,0,0,0,.06-.127l-.058-.45-.053-1.231.311.058a.141.141,0,0,0,.147-.092l.3-1.054a.121.121,0,0,0-.006-.091,5.577,5.577,0,0,1-.12-3.618l.034-.174a.131.131,0,0,0-.007-.074c-.616-1.5-1.148-3.107-.318-4.836a1.283,1.283,0,0,0,.042-1.19,4.919,4.919,0,0,1-.472-2.484,3.784,3.784,0,0,0-.153-1.354l-.13-.326.12-.332a4.888,4.888,0,0,0,.114-2.032,7.054,7.054,0,0,1,.162-2.67,2.661,2.661,0,0,0-.1-1.094,6.086,6.086,0,0,1-.12-.644l-.013-.117.016-.118c.045-.315.1-.612.155-.9l.012-.058a5.518,5.518,0,0,0,.158-1.389,20.122,20.122,0,0,0-.4-2.42c-.073-.361-.149-.723-.216-1.09l-.114-.618.532-.33a1.458,1.458,0,0,0,.172-.123.131.131,0,0,0,.035-.148,3.744,3.744,0,0,0-.19-.355l-.029-.053a5.538,5.538,0,0,1-.294-.546l-.2-.454.574-.9a.136.136,0,0,0,.02-.072l-.009-.729c-.01-.784-.022-1.6.029-2.408a11.553,11.553,0,0,1,.248-1.614c.056-.27.111-.54.153-.812a2.283,2.283,0,0,0,0-.518c-.038-.4-.082-.795-.129-1.19l0-.037c-.086-.771-.177-1.569-.2-2.375-.042-1.23-.034-2.449-.025-3.629,0-.45.007-1.513.009-1.71l.108-.2a17.178,17.178,0,0,1,3.264-4.333,12.36,12.36,0,0,0,.9-1.021c.159-.2.32-.391.486-.583l.346-.41A12.8,12.8,0,0,1,388.2,54.61c.272-.256.562-.486.888-.739a7.645,7.645,0,0,0,1-.881,3.161,3.161,0,0,1,1.982-1.024c1-.175,2-.4,3.077-.64l1.945-.426.348.418c.317.377,1.271-.112,2.052-.07a2.236,2.236,0,0,1,1.075.415l.05.031a1.847,1.847,0,0,0,.168.1l.421.215c.253.131.539.28.828.409a14.124,14.124,0,0,1,5.15,4.328,3.643,3.643,0,0,1,.47.878l.041.1c.115.272.235.543.367.84a21.963,21.963,0,0,1,.9,2.277,18.813,18.813,0,0,1,.781,3.94c.028.464.037.929.042,1.462a12.7,12.7,0,0,0,.267,2.946,7.252,7.252,0,0,1,.164,1.649c.019.865-.465,1.522-.08,2.005l.5.621-.54.583c-.454.488-.362.714-.171,1.008l.088.131.532,2.156-.064,1.7c-.047,1.161-.218.46-.228,1.661a5.753,5.753,0,0,0,.1.9l.129-.019-.123.058a6.37,6.37,0,0,1,.11,1.387,12.777,12.777,0,0,1-.558,3.485,1.456,1.456,0,0,0,.023,1.317l.164.222.251,4.969-.615.9a.13.13,0,0,0-.009.13l.292.6-.142.878a.13.13,0,0,0,.019.091l.732,1.136-.555.524c-.323.307-.337.391-.126.754a4.183,4.183,0,0,1,.377,2.3c-.05.936-.143,1.886-.234,2.8l-.006.061c-.047.464-.093.927-.136,1.4a.125.125,0,0,0,.006.045c.012.053.13.628.13.628.063.314.117.6.151.882.09.736.172,1.474.256,2.224l.152,1.371-.226.688a.134.134,0,0,0,.019.117,3.229,3.229,0,0,0,2.408,1.24,20.839,20.839,0,0,0,2.172.1c.648,0,1.293-.018,1.9-.034.889-.023,1.832-.044,2.774-.02l.2,0a8.733,8.733,0,0,0,1.268-.022l.044-.006s.389-.048.527-.067c.267-.038.545-.077.815-.093a7.038,7.038,0,0,1,1.128.044l.058.006c.2.019.41.038.615.038.494,0,.459.228.648.012l.507.1h.407c.137,0,.277-.013.415-.026l.069-.007c.2-.019.41-.039.609-.039a2.012,2.012,0,0,1,.977.221,1.093,1.093,0,0,0,.494.159.725.725,0,0,0,.5-.257l.256-.24.486,0c.387,0,.77.007,1.154.015l.22,0c.294,0,.587.01.879.01,1.224,0,2.576.526,3.8,0l.421-.181.393.238a.7.7,0,0,0,.383.107c.387,0,.781-.124,2.072-1.351a.141.141,0,0,0,.034-.053c.06-.183.07-1.723.139-1.919a10.659,10.659,0,0,0,.4-1.332,6.285,6.285,0,0,0,.153-1.884c-.118-.941.025-2.015-.164-2.927q-.129-.613-.248-1.236l-.114-.59.491-.34a1.5,1.5,0,0,0,.169-.137.127.127,0,0,0,.019-.162,2.05,2.05,0,0,0-.248-.3l-.253-.269.006-1.227c.007-.558.013-1.085-.015-1.615-.028-.555-.082-1.116-.132-1.658l-.016-.156c-.035-.375-.069-.749-.1-1.123-.023-.286-.058-.571-.092-.859l-.01-.083a10.055,10.055,0,0,1-.082-2.614l.047-.311c.115-.746.159-1.12-.123-1.455l-.473-.562.815-1.082a.125.125,0,0,0,.019-.115c-.069-.222-.14-.462-.222-.761a3.676,3.676,0,0,1-.165-.98c0-.435.026-.878.057-1.412l.058-1.063.213-.241c.082-.092.088-.412-.168-1.008-.54-1.262-.481-.5-.069-1.589A2.9,2.9,0,0,0,439.2,77.8a7.63,7.63,0,0,1-.009-4.809.633.633,0,0,0,.028-.275,2.65,2.65,0,0,1,.431-2.725.131.131,0,0,0,.026-.121,12.1,12.1,0,0,1-.342-1.336c-.018-.095-.038-.194-.06-.3l-.006-.032a2.845,2.845,0,0,1,.077-2.07,2.341,2.341,0,0,0,.223-1.252c0-.221,0-.456.025-.694l.044-.555c.025-.337.048-.672.088-1.008.095-.827-.393-1.938-.286-2.81l.239-1.945.058-.386.212-.172a.13.13,0,0,0,.039-.145,5.121,5.121,0,0,0-.378-.71M259.162,82.944c.18.418-.288,1.128-1.053,1.541-.412.221-.809.478-1.228.749-.166.107-.342.219-.53.337a.1.1,0,0,1-.034.016l-5.113,1.3a.142.142,0,0,1-.1-.015l-.478-.3c-.168.023-.749.1-.91.121a12.53,12.53,0,0,0-1.259.2,4.5,4.5,0,0,1-.93.064,4.224,4.224,0,0,0-2.127.409.119.119,0,0,1-.079.015,3.159,3.159,0,0,0-.378-.031h-.283c-.516,0-1.028.009-1.542.023-.594.018-1.176.036-1.751.086a8.84,8.84,0,0,0-.967.156l-.222.044a3.388,3.388,0,0,0-.334.083l-.047.015a.883.883,0,0,1-.161.037c-.549.044-1.1.083-1.649.123l-.161.012c-.78.055-1.56.111-2.34.178-.888.076-1.785.171-2.576.254l-1.079.111c-.082.009-.166.018-.251.032q-.874.151-1.75.308l-.067.012c-1.387.248-2.823.5-4.236.7-1.456.2-2.968.305-4.428.4l-.259.018c-.4.028-.8.029-1.206.029h-.349c-.4,0-.786,0-1.177.026a4.463,4.463,0,0,0-.942.172l-.039.01c-.131.034-.263.069-.4.091-.929.158-1.858.307-2.9.475L212.287,91l-3.279.276a4.679,4.679,0,0,0-1.057.127c-.688.177-1.341.4-1.973.61l-1.789.589,1.377,3.044.4.115c.167.048.517.148.681.951a1.748,1.748,0,0,0,.716,1.184,9.915,9.915,0,0,1,1.3,1.011,8.15,8.15,0,0,0,2.388,1.608,4.927,4.927,0,0,0,1.247.256l.126.013a.172.172,0,0,1,.1.047l.523.613.446-.029c.311-.019.556-.035.757-.035.314,0,.339.022.971.584l.193.172,1.043.184c.678.124,1.241.225,1.811.294l.209.01a2.929,2.929,0,0,0,.7-.105l.05-.013c.069-.016.134-.034.2-.044l.24-.034a6.817,6.817,0,0,1,.974-.1,1.313,1.313,0,0,1,.913.288l.248.2h3.686l.241-.184a3.994,3.994,0,0,1,.719-.5c.015,0,.032,0,.041-.006a5.172,5.172,0,0,1,.818.194l.351.1.751-.41c.342-.184.659-.353.967-.545.4-.244,1.371-.856,2.357-1.471,1.022-.64,2.056-1.284,2.467-1.538a3.5,3.5,0,0,1,.339-.172l.035-.016a3.99,3.99,0,0,0,.787-.447l.514-.388a18.2,18.2,0,0,0,2.217-1.867,5.7,5.7,0,0,1,2.381-1.777,4.924,4.924,0,0,0,.868-.336,3.959,3.959,0,0,1,4.45.362c.571.4,1.189.834,1.83,1.246a3.819,3.819,0,0,0,.778.358l.149.054a2.193,2.193,0,0,0,.346.1c.029,0,.031.007.054.023.542.428,1.082.863,1.64,1.314l1.309,1.059.426-.1a.984.984,0,0,1,.242-.031c.234,0,.568.093,1.072.822a9.123,9.123,0,0,0,2.787,2.4l.148.1a4.567,4.567,0,0,1,.789.733l.153.165c.14.147.273.305.406.464l.047.057a9.245,9.245,0,0,0,.78.86.128.128,0,0,1,.038.123l-.257,1.12c-.156.567-.311,1.128-.473,1.69l-.039.137a2.021,2.021,0,0,1-.161.459l-.1.13c-.995,1.339-2.021,2.722-3.09,4.018a3.936,3.936,0,0,1-1.114.762,20.823,20.823,0,0,0-4.526,2.985,9.309,9.309,0,0,1-3.891,2.032,4.634,4.634,0,0,0-1.821,1.024,3.43,3.43,0,0,1-2.02,1.1l-.343.032-.235.256a9.552,9.552,0,0,1-2.889,1.919,22.263,22.263,0,0,1-3.366,1.306c-.221.07-.444.126-.667.184a9.845,9.845,0,0,0-1.091.324,7.514,7.514,0,0,0-1.526.786,2.187,2.187,0,0,1-1.018.46.763.763,0,0,1-.45-.168l-.507-.352-1.306.9a.142.142,0,0,1-.114.018,3.339,3.339,0,0,0-1.076-.165,7.388,7.388,0,0,0-1.367.165l-.069.013a6.9,6.9,0,0,1-.778.117c-.283.02-.574.023-.856.026a7.506,7.506,0,0,0-2.154.242,5.166,5.166,0,0,1-1.563.2c-.269,0-.537-.009-.809-.019l-.336-.01c-.146,0-.3-.016-.5-.039a.132.132,0,0,1-.114-.131l.01-.7-1.753.748a.128.128,0,0,1-.121-.01l-.457-.294-.356.076a3.326,3.326,0,0,1-.717.073,8.5,8.5,0,0,1-2.051-.352l-.558-.137a7.41,7.41,0,0,0-1.158-.155l-.064-.006c-.152-.013-.3-.025-.456-.044l-1.082-.142c-.578-.076-1.161-.153-1.744-.216a4.717,4.717,0,0,0-.517-.025l-.454.007h0a.129.129,0,0,1-.076-.023l-1.168-.828c-.158-.009-.771-.044-1-.054-.66-.031-1.407-.064-2.115-.168a.79.79,0,0,1-.378-.272,3.715,3.715,0,0,0-1.586-1.425,7.724,7.724,0,0,0-1.453-.561,3.032,3.032,0,0,1-1.7-.889A7.16,7.16,0,0,0,195.262,118c-.26-.172-.508-.339-.743-.517a3.753,3.753,0,0,0-1.319-.577.253.253,0,0,1-.058-.022c-.164-.1-.329-.2-.494-.3a11.165,11.165,0,0,1-1.211-.8c-.514-.415-.995-.879-1.46-1.328-.209-.2-.418-.4-.629-.6l-.5-.46c-.37-.34-.754-.694-1.11-1.062a4.244,4.244,0,0,1-.77-.96,20.932,20.932,0,0,0-3.4-5.274,1.764,1.764,0,0,1-.107-.225.106.106,0,0,1-.01-.035,1.423,1.423,0,0,0-.216-.665c-.136-.2-.267-.4-.4-.6a16.162,16.162,0,0,0-1.367-1.88,4.676,4.676,0,0,1-1.3-2.776,4.224,4.224,0,0,0-.863-2.275,5.381,5.381,0,0,1-.938-3.025,15.673,15.673,0,0,0-.355-1.864c-.111-.472-.225-.96-.289-1.439a16.218,16.218,0,0,0-.526-2.27l-.019-.067c-.1-.359-.207-.732-.294-1.1a2.523,2.523,0,0,1-.048-.768c.044-.518.1-1.035.153-1.553.053-.5.105-.986.146-1.474l.02-.2a3.842,3.842,0,0,0-.06-1.487,9.071,9.071,0,0,1-.1-3.477l.066-.67a4.307,4.307,0,0,1,.58-1.465c.131-.25.27-.514.39-.777a.684.684,0,0,1,.1-.133l.022-.025c.045-.053.083-.1.111-.139l.31-.419-.2-.482c-.092-.223-.209-.447-.318-.657a2.525,2.525,0,0,1-.283-.653,3.481,3.481,0,0,1,.732-1.523c.351-.483-.161-1.529-.153-2.477a.678.678,0,0,1,.026-.171.124.124,0,0,1,.039-.061,4.419,4.419,0,0,0,1.32-2.518.147.147,0,0,1,.038-.066l1.487-1.4-.527-.247a.13.13,0,0,1-.067-.158c.13-.387.278-.847.4-1.325a2.962,2.962,0,0,0,.063-.876.127.127,0,0,1,.092-.129,2.8,2.8,0,0,0,1.723-1.9l.066-.159a11.475,11.475,0,0,1,.98-1.991,9.964,9.964,0,0,1,.873-1.06c.28-.31.549-.61.787-.922l.2-.254a3.286,3.286,0,0,0,.926-1.868c.019-.536.276-.746.954-1.174a2.775,2.775,0,0,0,1.49-2.01.127.127,0,0,1,.057-.089,6.635,6.635,0,0,0,2.459-2.7.107.107,0,0,1,.029-.039,1.173,1.173,0,0,1,.364-.193c.426-.121,2.633-.12,2.787-1.652a.125.125,0,0,1,.051-.091l.016-.023.042-.056a9,9,0,0,1,3.6-2.163l.473-.088.193-.445c.041-.1.079-.209.118-.321a1.866,1.866,0,0,1,.1-.26,1.888,1.888,0,0,1,.248-.235.1.1,0,0,1,.086-.026c.077.006.167.007.257.007a3.463,3.463,0,0,0,2.785-1.316.132.132,0,0,1,.1-.048,5.031,5.031,0,0,0,2.2-.659l.038-.018c.136-.067.272-.134.409-.2a2.749,2.749,0,0,1,1.037-.286,5.1,5.1,0,0,0,.584.041,2.389,2.389,0,0,0,1.652-.618,1.1,1.1,0,0,1,.378-.256.122.122,0,0,1,.107.015l.5.315.523-.313.3-.212a2.206,2.206,0,0,1,.954-.511.538.538,0,0,1,.234.058l.516.238.811-.691a.134.134,0,0,1,.066-.029l.042-.006c.207-.035.424-.063.638-.091a9.145,9.145,0,0,0,1.688-.33c.2-.064.391-.133.584-.2a3.828,3.828,0,0,1,2.419-.323,1.632,1.632,0,0,0,1.063-.037c.424-.164,1,.056,1.674.056.244,0,.491.009.736.016l.076,0c.24.007.479.016.719.016.136,0,.406-.009.406-.009a1.961,1.961,0,0,1,.47.105l.168.05a6.305,6.305,0,0,0,1.723.307,3.384,3.384,0,0,0,1.138-.191,1.327,1.327,0,0,1,.437-.085,1.08,1.08,0,0,1,.688.275,4.868,4.868,0,0,0,2.24.854c.792.131.911.242.979.45l.162.486,1.2.272c.472.107.925.207,1.376.318l.308.076a15.906,15.906,0,0,0,1.576.336.145.145,0,0,1,.058.023l.827.615.783-.095a.123.123,0,0,1,.074.013l1.22.619c.9.457,1.837.93,2.746,1.417l.161.085c.451.235.6.334.7.6a2.665,2.665,0,0,0,2.376,1.815,1.044,1.044,0,0,1,.235.048.13.13,0,0,1,.093.115l.054.777.957.478a.134.134,0,0,1,.07.137l-.066.4,1.567,1.493.1.064a9.961,9.961,0,0,1,2.673,2.674c.739,1,1.439,2.051,2.115,3.061.256.383.514.767.78,1.157a.133.133,0,0,1,.022.07,5.115,5.115,0,0,0,1.493,3.051l.035.039a.137.137,0,0,1,.029.108l-.145.755.032.216a9.542,9.542,0,0,0,.714,1.978,4.593,4.593,0,0,1,.628,2.642l-.02.121c.007.088.042.508.056.672a11.186,11.186,0,0,0,.167,1.421,20.507,20.507,0,0,0,.625,2.277c.083.26.391.508.5.754a4.025,4.025,0,0,1,.28.746,1.984,1.984,0,0,1,.006.4,3.486,3.486,0,0,0,.038.862c.028.232.069.459.11.684a3.37,3.37,0,0,1,.1,1.1,8.364,8.364,0,0,0,.27,3.418,14.02,14.02,0,0,1,.272,1.414,1.319,1.319,0,0,0,.066.282.129.129,0,0,1,0,.074,4.1,4.1,0,0,0,.368,2.893l.019.037c.085.169.076.573.15.745m-26.234-11.81a.117.117,0,0,1,0-.08l.077-1.117-.467-1.367c-.19-.159-.377-.314-.562-.475-.095-.083-.207-.644-.34-.739l-.056-.038-.082-.058a.127.127,0,0,1-.045-.064c-.326-1.021-.343-1.31-.952-1.766l-.039-.029a5.966,5.966,0,0,1-.571-.464,25.742,25.742,0,0,0-2.779-2.125c-.356-.264-.694-.516-1.009-.761l-.139-.11-.169-.047c-.494-.137-.868-.911-1.3-1.009-1.329-.3-1.078-.308-3.329-.705l-.237-.238-.672-.05c-.973-.073-1.972-.148-2.993-.148a17.823,17.823,0,0,0-6.936,2.1l-.148.077-.11.127c-.13.148-.294.31-.466.48l-.028.029a8.627,8.627,0,0,0-1.729,2.17c-.32.635-1.2,1.415-1.535,2.013a16.016,16.016,0,0,0-2,4.16c-.486,1.794-1.247,4.19-.616,5.547.289.621.694,1.233,3.482,1.395l.444-.018a7.218,7.218,0,0,0,3.2-.656,1.616,1.616,0,0,1,1.677-.019l.282.2,4.037-.483.152-.083c.107-.06.238-.149.352-.228a1.773,1.773,0,0,1,.457-.266,6.377,6.377,0,0,1,.727-.037c.294,0,.586.013.879.025h.035c.308.013.613.026.92.026a6.394,6.394,0,0,0,1.956-.257.129.129,0,0,1,.074,0,4.275,4.275,0,0,0,1.246.177,9.147,9.147,0,0,0,1.925-.264,7.682,7.682,0,0,1,1.567-.229,1.158,1.158,0,0,0,.713-.266,4.276,4.276,0,0,1,1.967-.654l.036-.007c.188-.032.375-.064.561-.1l.107-.02a3.957,3.957,0,0,0,.688-.18,2.87,2.87,0,0,0,1.751-1.465,2.665,2.665,0,0,0,0-1.9m112.373.077a1.188,1.188,0,0,0-.118,1,2.993,2.993,0,0,1,.039,1.436,7.048,7.048,0,0,0-.064,1.331,8.612,8.612,0,0,1-.631,4.665c-.091.172-.18.351-.269.533-.533,1.088-.905,1.761-1.81,1.9a1.074,1.074,0,0,0-.258.072.092.092,0,0,1-.054.009l-.628-.028c-.85-.038-1.7-.074-2.512-.158-.574-.058-1.151-.153-1.709-.247l-.045-.007c-.478-.079-.906-.149-1.336-.206-.565-.076-1.151-.115-1.666-.15l-.4-.028c-.067,0-.136-.013-.2-.022l-.035,0a2.658,2.658,0,0,0-1.182.056,1.324,1.324,0,0,1-.453.092.624.624,0,0,1-.5-.266l-.457-.517L330.38,81c-.133.07-.267.149-.4.226-.111.066-.266.156-.372.207a.127.127,0,0,1-.152-.028l-.273-.3-.536.056a10.347,10.347,0,0,1-1.9.181,7.327,7.327,0,0,1-3.06-.651l-.576-.261-.457.467a.824.824,0,0,1-.665.314,3.6,3.6,0,0,1-.7-.107,5.35,5.35,0,0,0-1.164-.114c-.266,0-.543.009-.834.02-.232.009-.464.018-.705.02a.1.1,0,0,1-.051-.01,5.22,5.22,0,0,0-1.978-.324c-.234,0-.492.007-.789.025a7.3,7.3,0,0,1-1.576-.145c-.478-.077-.9-.142-1.32-.168-.681-.041-1.369-.114-2.033-.187a30.754,30.754,0,0,0-3.133-.229c-.776,0-6.423-.781-7.1-.667a.153.153,0,0,1-.036,0,1.187,1.187,0,0,1-.123-.028l-.263-.06c-.175-.035-.349-.079-.521-.124a6.845,6.845,0,0,0-1.206-.223c-.968-.066-1.957-.093-2.914-.121l-1.173-.034a4.271,4.271,0,0,0-.444.02l-4.921-.524.073.933a12.2,12.2,0,0,0,2.065,5.265l.238.37a.283.283,0,0,1,.016.036l.352,1.379,2.032,1.484c.6.651,1.167,1.259,1.75,1.821a6.393,6.393,0,0,0,.977.732c.185.12,2.772,1.57,2.94,1.7a5.066,5.066,0,0,1,.675.662c.59.675,3.878.919,5.055,1.049l.05.006a.1.1,0,0,1,.051.018,6.217,6.217,0,0,0,3.245.813c.529,0,1.076-.034,1.607-.07l.076,0c.46-.032.935-.064,1.4-.061a6.181,6.181,0,0,1,.822.076l.069.01c.145.02.565.07.672.083l.162-.042c.355-.092.716-.193,1.081-.3l.11-.031a24.574,24.574,0,0,1,2.715-.657,7.128,7.128,0,0,0,3.568-1.973c1.282-1.122,2.592-2.2,3.9-3.21a1.763,1.763,0,0,1,1.037-.256,3.118,3.118,0,0,1,2.232.888c.377.46.727.955,1.065,1.434s.673.951,1.031,1.4a7.605,7.605,0,0,0,1.491,1.408c.2.148.419.285.609.407a3.383,3.383,0,0,1,1.141.976,7.224,7.224,0,0,0,1.405,1.491l-.061.124.088-.1c.21.183.428.371.643.581l.245.237.345.012c.285.007.375.074.456.336a1.774,1.774,0,0,0,.808.926l.044.029a1.013,1.013,0,0,1,.161.118c.558.679,1.1,1.395,1.614,2.089l.174.231c.137.184.264.383.4.593l.056.086a.122.122,0,0,1,.023.086c-.015.137-.029.276-.044.415a11.267,11.267,0,0,1-.254,1.71c-.231.876-.964,1.446-1.973,2.157a.221.221,0,0,1-.032.016,1.194,1.194,0,0,0-.7.61,5.213,5.213,0,0,1-1.726,1.789c-.28.213-.562.429-.824.654a3.762,3.762,0,0,1-.6.374l-.14.076a11.418,11.418,0,0,1-1.358.6,7.6,7.6,0,0,0-3.02,1.791.15.15,0,0,1-.054.035c-.282.1-.565.2-.846.3l-.286.1c-.609.21-1.238.428-1.849.657-.307.112-.6.247-.91.387-.238.11-.508.232-.778.334-1.268.473-3.48,1.165-4.675,1.55a6.9,6.9,0,0,1-1.014.2c-.238.035-.475.073-.711.121-.212.042-.431.074-.647.108a5.877,5.877,0,0,0-1.972.537,1.877,1.877,0,0,1-.948.232,5.971,5.971,0,0,1-1.269-.21c-.4-.095-.743-.142-1.044-.184,0,0-.5-.066-.644-.082l-.035,0c-.155-.016-.308-.032-.46-.06a1,1,0,0,1-.111-.034l-.034-.012a2.058,2.058,0,0,0-.616-.145l-1.35.832c-1.021-.06-2.074-.126-3.114-.095h-.111c-.145,0-.289.009-.429.007-.65-.006-.815-.126-.984-.48l-.473-.981-.887.676a.925.925,0,0,1-.627.225,3.916,3.916,0,0,1-.7-.1c-.2-.042-.378-.08-.57-.108a9.336,9.336,0,0,1-1.669-.476,4.67,4.67,0,0,0-2.5-.451.167.167,0,0,1-.038,0,2.788,2.788,0,0,1-.453-.223c-.219-.12-2.417-.1-2.641-.183-.516-.193-1.036-.378-1.555-.562l-2.734-.981-2.178-.846a.109.109,0,0,1-.035-.016l-2.017-1.2a.148.148,0,0,1-.114-.01c-.216-.134-.432-.27-.65-.4s-.39-.537-.681-.666q-.377-.164-.752-.323a.127.127,0,0,1-.067-.167l-.594-.437-.732-.428c-.105-.015-.124-.467-.232-.476a2.076,2.076,0,0,1-.44-.07c-.111-.041-.185-.07-.237-.095a.125.125,0,0,1-.061-.064c-.334-.819-1.471-.428-1.959-.64l-.2-.088c-.3-.139-.518-1.479-.795-1.855l-.212-.291-.64-.091a.128.128,0,0,1-.072-.035l-1.161-.384c-.853-.876-.552-1.848-1.259-2.594-.518-.546-1.025-1.1-1.535-1.658-.416-.456-.835-.913-1.258-1.364a4.8,4.8,0,0,0-.475-.424,1.743,1.743,0,0,1-.346-.318,9.548,9.548,0,0,1-.65-2.173l-.038-.191-.543-.742c-.235-.32-.47-.641-.7-.964-.215-.3-.454-1.688-.673-1.988-.559-.757-.266-1.523-.7-2.3a3.8,3.8,0,0,1-.488-1.81,12.965,12.965,0,0,0-.631-3.717c-.143-.521-.291-1.054-.4-1.592a26.894,26.894,0,0,1-.7-7.4,14.066,14.066,0,0,0-.115-2.531l-.013-.12c-.035-.323-.07-.647-.091-.97l-.035-.444a7.03,7.03,0,0,1-.041-1.091c.044-.592.12-1.19.193-1.77l.034-.26c.035-.279.07-.558.1-.837a3.837,3.837,0,0,0,.019-.724,11.739,11.739,0,0,1,.831-4.376l.066-.2c.048-.149.108-.3.169-.441a3.487,3.487,0,0,0,.359-2.059.126.126,0,0,1,0-.057,3.037,3.037,0,0,1,.143-.358c.738-1.618,1.368-2.956,1.985-4.214a.138.138,0,0,1,.077-.069c.015-.012.047-.037.091-.076.105-.092.215-.191.327-.3l-.035-.386.267-.552c-.148-.443.063-.781.516-1.446a7.7,7.7,0,0,0,.61-1.011c.009-.019.032-.029.041-.05,1.458-3.441,2.01-3.095,2.7-4.785l.686-1.294c.846-2.024,1.8-2.644,3.22-3.8a10.244,10.244,0,0,0,1.409-1.487c.2-.242.412-.5.643-.754l.156-.174.134-.118c.093-.368.194-.462.539-.5.5-.053.467-.426.831-.654.126-.08.257-.164.393-.235l.02-.234,1.141-1.078a.142.142,0,0,1,.072-.072,7.27,7.27,0,0,0,2.768-2.467,3.662,3.662,0,0,1,1.17-.911c1.1-.574,2.235-1.126,3.33-1.659l.08-.038q.938-.458,1.877-.92c.2-.1.406.048.521-.045l.032-.026a1.015,1.015,0,0,1,.092-.07c.093-.039.2-.095.315-.15l.035-.016c.1-.05.226-.112.313-.145a.113.113,0,0,1,.076-.006c.372.089.711-.142,1.1-.142a9.463,9.463,0,0,0,2.931-.6l.567-.178a16.211,16.211,0,0,1,2.027-.431c.378-.064.765-.131,1.176-.212l.367-.072.219-.305a.8.8,0,0,1,.736-.377,3.667,3.667,0,0,1,1.231.289,2.315,2.315,0,0,0,.815.131s.606-.015.739-.015a3.8,3.8,0,0,1,.5.026l.3.041.273-.156a.668.668,0,0,1,.352-.108,2.2,2.2,0,0,1,.852.311c.276.139,1.345-.327,1.7-.229a.143.143,0,0,1,.042.02,1.415,1.415,0,0,0,.555.273c.862.2,1.652-.083,2.817.14a5.429,5.429,0,0,0,1.525.105c.187-.018.353-.031.491-.031a.1.1,0,0,1,.115.055c.047.077.111.2.191.37l.164.343,3.092,1.072,1.05.209c.659.129,1.279.25,1.9.387a1.891,1.891,0,0,1,.307.1l.05.02a3.126,3.126,0,0,0,.92.245c.606.045.679.248.713.51l.06.476,1.225.524a.117.117,0,0,1,.061.158l1.1-.254.152.738a2.912,2.912,0,0,1,2.3.971l.162.13a17.827,17.827,0,0,0,4.37,2.664.112.112,0,0,1,.066.066l.283.694.371.124a4.123,4.123,0,0,1,2.516,2.065,2.23,2.23,0,0,0,.739.758l.121.086a.115.115,0,0,1,.029.031l.4.621c.4.608.815,1.237,1.2,1.884a2.792,2.792,0,0,1,.2.454l.026.069a4.568,4.568,0,0,0,.386.837c.3.488.651.965,1.021,1.471l.294.4a.133.133,0,0,1,.022.082c-.127,1.605,1.092,2.768,1.748,3.391a1.264,1.264,0,0,1,.352.612c.215,1.341-.32,3.3.31,4.252a.133.133,0,0,1,.017.045l.374,2.077,1.338,1.453a.123.123,0,0,1,.016.146l-.333.6.21.421a3.947,3.947,0,0,1,.694,2.582,3.429,3.429,0,0,0,.216,1.8,5.331,5.331,0,0,1,.178,2.138c-.012.244-.022.481-.025.717l.015.169c.026.159.066.318.105.479a2.393,2.393,0,0,1,.1.612,5.8,5.8,0,0,0,.25,3.13.131.131,0,0,1,0,.082Zm-30.385-5.955a2.592,2.592,0,0,1,.885-.377.152.152,0,0,1,.067.018,2.4,2.4,0,0,1,.353.231l.1.073.115.042a3.362,3.362,0,0,0,1.176.206,6.787,6.787,0,0,0,1.374-.174,4.875,4.875,0,0,1,.911-.129,1.018,1.018,0,0,1,.643.2l.447.324,2.229-1.2-.06-.618c-.034-.348-.073-.7-.112-1.041-.082-.713-.167-1.449-.184-2.166-.092-3.705-3.055-6.911-5.791-9.582-.191-.187-3.415-1.461-3.808-1.614a14.005,14.005,0,0,0-5.306-.57c-.25,0-.5.007-.751.025-.349.025-.73.037-1.2.035-.314,0-.629-.006-.946-.012h-.076c-.359-.007-.719-.015-1.081-.016l-.592-.181-.621-.149c-.315.165-.615.318-.933.448a6.242,6.242,0,0,1-.606.2l-.039.012c-.421.121-1.526-.08-1.972.19a28.417,28.417,0,0,0-2.779,2c-.367.286-2.792,1.363-3.051,1.9-.085.177-.174.351-.267.526-.4.774-1.849,2.238-1.731,3.409a1.923,1.923,0,0,1-.238.7c-.092.188-.184.374-.277.559a7.9,7.9,0,0,0-1.056,2.118c-.28,1.288-.38,2.493,1.484,3.089,2.213.707,8.556,1.16,10.73,1.225.315.009.631.013.945.019h.1c.66.009,1.319.019,1.963.067.349.025.656.037.939.038a7.055,7.055,0,0,0,2.442-.381.691.691,0,0,1,.237-.028,4,4,0,0,1,.578.06l.039.006c.15.022,4.478.372,4.663.45.112.045.222.091.326.129l.37.131ZM183.945,47.077a11.589,11.589,0,0,0,2.259-3.206,6.231,6.231,0,0,1,.762-1.274c.123-.172.25-.349.362-.533a2.622,2.622,0,0,0,.177-.38l.3-.732c.14-.352.282-.7.447-1.019.088-.174.183-.345.276-.514l.032-.058a3.549,3.549,0,0,0,.628-1.744,3.844,3.844,0,0,1,.54-2.289c.332-.447.342-.58.2-.776l-.282-.4.77-2.013a.147.147,0,0,0,.006-.072l-.5-2.592.269-.586a.13.13,0,0,0,.007-.088,5.471,5.471,0,0,1,.038-2.5c.038-.21.076-.415.1-.613a.131.131,0,0,0-.028-.1,3.845,3.845,0,0,1-.735-2.73,10.826,10.826,0,0,0-.38-2.753l-.067-.305a7.938,7.938,0,0,0-.454-1.284c-.093-.221-.188-.454-.288-.71a.162.162,0,0,0-.022-.038l-.353-.407c-.428-.488-.961-1.1-1.447-1.732-.318-.418-.6-.847-.91-1.325a10.1,10.1,0,0,0-1.649-2.113,1.527,1.527,0,0,0-.99-.4.819.819,0,0,0-.787.469,7.255,7.255,0,0,1-2.708,3.182l-.079.053-.121.037c-.15.045-.3.086-.441.126l-.074.02a5.745,5.745,0,0,0-.857.279,4.077,4.077,0,0,0-.564.332l-.053.035c-.206.136-.409.269-.622.383-.31.168-.63.326-.946.482a14.907,14.907,0,0,0-1.45.776,2.729,2.729,0,0,1-2.328.429.128.128,0,0,0-.1.012L168.5,20.26l-.74-.628a.119.119,0,0,0-.108-.029,2.488,2.488,0,0,0-1.275.675,3.143,3.143,0,0,1-1.186.613l-.053.016a3.292,3.292,0,0,0-.362.137c-.162.076-.329.149-.5.222a4.954,4.954,0,0,0-1.075.568c-.454.364-.881.768-1.341,1.206s-.92.872-1.425,1.278a19.133,19.133,0,0,0-3.115,3.5c-.594.787-1.211,1.6-1.9,2.356a2.54,2.54,0,0,0-.39.574c-.15.308-.286.628-.424.948a13.8,13.8,0,0,1-.884,1.811c-.15.247-.307.492-.462.738l-.092.145a15.165,15.165,0,0,0-1.83,3.526,2.434,2.434,0,0,1-.351.646l-1.621,2.706-.05-3.166c0-.12,0-.241,0-.361v-.07c.015-.716-.022-.857-.256-1.008l-.685-.432.349-.739c.074-.159.155-.313.234-.462L148.98,35a3.976,3.976,0,0,0,.348-.783,1.87,1.87,0,0,0,.066-.535.139.139,0,0,0-.02-.064,3.184,3.184,0,0,1-.388-2.6c.253-1.027.067-1.255-.145-1.4l-.37-.251-.256-3.869.095-.21a3.536,3.536,0,0,0,.378-1.417,7.4,7.4,0,0,0-.108-1.022,6.463,6.463,0,0,1-.093-1.766,10.852,10.852,0,0,0-.371-4.437c-.25-.9-.3-.979-.7-1.056l-.662-.13-.064-.681a.685.685,0,0,0-.539-.673c-.583-.226-1.132-.5-1.662-.759-.225-.111-.692-.337-.692-.337a.128.128,0,0,0-.1,0l-5.917,2.3-.64-.339a.152.152,0,0,0-.088-.012,6.862,6.862,0,0,0-3.088,1.418,2.772,2.772,0,0,1-.989.463c-1.085.346-2.173.686-3.318,1.044l-.939.294a.118.118,0,0,0-.067.048l-.372.526-.808.231c-.348.1-.665.193-.986.273-1.37.34-2.842.7-4.322,1.049l-.19.034h-.115a2.206,2.206,0,0,1-.432-.053l-.152-.019-.035,0a1.755,1.755,0,0,0-.351,0l-.523.085c-.7.112-1.36.219-2.014.383a5.551,5.551,0,0,0-1.126.492.124.124,0,0,0-.064.037l-.076.08a1.814,1.814,0,0,1-.575.453c-.228.105-.333.225-.345.66-.02.777-.041,1.512-.012,2.251.01.2.013.406.018.609l0,.105a8.6,8.6,0,0,0,.193,2.039c.47,1.738,1.034,3.505,1.532,5.064l.339,1.071a.129.129,0,0,0,.161.085l.954-.291-.771,2.061a.123.123,0,0,0,.022.127,2.155,2.155,0,0,1,.415,2.627.139.139,0,0,0-.01.042l-.1,1.681a.115.115,0,0,0,0,.032l.032.169c.053.276.112.6.164.922l.7,4.364c.038.241.082.481.124.721l.009.042c.08.445.164.906.216,1.363a7.418,7.418,0,0,1,.023,1.085c0,.136-.009.272-.009.407v.241l-.117.212c-.121.213-.168.412.326,1.019l.333.407-.183.5c-.053.139-.112.272-.171.4a1.264,1.264,0,0,1-.074.148.13.13,0,0,0-.032.085,3.7,3.7,0,0,0,.1.678,3.464,3.464,0,0,1,0,1.826.129.129,0,0,0,.023.123l.2.244.028.28c.023.241.053.466.08.686a9.981,9.981,0,0,1,.111,1.389c-.01,1.008-.045,2.033-.079,3.022-.019.568-.039,1.135-.054,1.7l-.006.209a5.162,5.162,0,0,0-.086.87c.067.451-.093,1.189,0,1.694.126.688-.075,1.1,0,1.823a12.729,12.729,0,0,1,.007,1.872c-.013.26-.025.518-.029.777l-.016,1.2c-.009.786.657,3.8.635,4.589-.015.521-.048,1.05-.086,1.639l-.063,1.046-.349.708a.124.124,0,0,0,0,.115l.91,1.786-.587.878a.124.124,0,0,0-.018.108l.273.923-.359.383c-.349.372-.314,3.345-.026,4.113a4.033,4.033,0,0,1,.294,1.1l.013.185.114,1.461c-.066.194-.134.369-.206.549a2.227,2.227,0,0,0-.171.524c-.032.568-.042,1.148-.054,1.707v.139c-.016.777-.031,1.579-.1,2.379-.022.275-.058.546-.095.818l-.006.048a3.475,3.475,0,0,0,.142,2.287l.256.45-.472.859a.123.123,0,0,0-.007.108,2.309,2.309,0,0,0,1.335,1.371,2.654,2.654,0,0,1,.726.467,1.45,1.45,0,0,0,.989.361,2.1,2.1,0,0,0,.521-.069c1.11-.288,2.051.384,3.09.018.418-.146.821-.288,1.211-.418l.251-.083.257.067c.2.053.383.115.549.175.077.026.146.054.185.07a.146.146,0,0,0,.079.006c.57-.137,1.148-.327,1.659-.494l.948-.3.277.1c.127.042.5.587.613.64l.028.012a.148.148,0,0,0,.121.072c1.564-.077,2.823-.168,3.962-.285,1.079-.11,1.754.419,2.814.292l.2-.023c.762-.092,1.526-.183,2.292-.264.7-.077,1.4-.136,2.185-.2a.129.129,0,0,0,.117-.133l-.028-.689,1.366.684a.094.094,0,0,0,.07.013l.032,0c.407-.035.828-.058,1.24-.08.9-.05.44.245,1.243.058.828-.191-.067.327.8-.031l.063-.026c.24-.1.48-.2.724-.3a.133.133,0,0,0,.076-.085,4.565,4.565,0,0,1,.616-1.3c.2-.283-.126-.429-.069-3.286l-.086-.2c-.188-.431-.18-2.267-.409-2.724l.1-1.945-.019-1.167a.606.606,0,0,0,.111-.091.129.129,0,0,0,.086-.148,2.365,2.365,0,0,0-.127-.356,2.208,2.208,0,0,1-.225-.865.114.114,0,0,0-.006-.038c-.085-.279-.169-.539-.254-.793-.221-.667.238-3.315.184-3.989-.013-.133-.02-.264-.029-.4l0-.089a2.96,2.96,0,0,0-.4-1.674l-.307-.415.428-1.056a.132.132,0,0,0-.028-.139c-.844-.863.289-2.109.329-2.849l0-.041c.006-.143.015-.286.013-.428,0-.407-.018-.814-.039-1.3l-.042-3.27c.092-.089.307-.3.311-.3a.131.131,0,0,0,.022-.152c-.085-.164-.206-.377-.326-.587l-.118-.212V70.2c0-.374.02-.74.042-1.111a5.513,5.513,0,0,0-.063-1.744,6.02,6.02,0,0,1-.1-3.3,11.713,11.713,0,0,1,.4-1.174c.057-.15.232-.632.278-.755.12-.112.685-.643.908-.857.577-.548,2.2-1.392,2.883-1.966a7.789,7.789,0,0,1,4.265-2.124,14.037,14.037,0,0,0,1.428-.231l.175-.034c.584-.112,1.165-.235,1.747-.361l.129-.026c1.317-.282,2.68-.573,4.056-.746.481-.061.963-.114,1.453-.165a15.678,15.678,0,0,0,5.807-1.37,1.241,1.241,0,0,1,.226-.092l1.211-.548q1.341-.609,2.687-1.211a3.159,3.159,0,0,0,1.618-1.144,1.447,1.447,0,0,1,.787-.594c.159-.1.323-.194.5-.3a4.588,4.588,0,0,0,.856-.574,16.237,16.237,0,0,0,1.268-1.415l.418-.5q.342-.4.691-.79" transform="translate(0 0)" fill="#009e3a"/>
  </g>
</svg>
