<svg xmlns="http://www.w3.org/2000/svg" width="366.472" height="28.994" viewBox="0 0 366.472 28.994">
  <path id="menu_officialsns_text" d="M-169.86.494a13.67,13.67,0,0,1-5.4-1.387,14.162,14.162,0,0,1-5.491-4.5,12.8,12.8,0,0,1-2.375-7.98,17.873,17.873,0,0,1,1.387-6.574,14.606,14.606,0,0,1,4.389-5.966,11.449,11.449,0,0,1,7.524-2.47,9.509,9.509,0,0,1,2.261.247,17.881,17.881,0,0,1,2.261.741,7.255,7.255,0,0,0,1.938.456,2.793,2.793,0,0,0,1.938-.76q.152-.152.247-.133t.133.209q.38,1.52.779,3.344t.589,2.812l.076.342q0,.152-.228.266a.31.31,0,0,1-.228.076.543.543,0,0,1-.418-.228,26.075,26.075,0,0,0-2.413-3.059,10.427,10.427,0,0,0-2.85-2.109,8.45,8.45,0,0,0-3.933-.874,5.983,5.983,0,0,0-5.282,2.7,14.7,14.7,0,0,0-2.356,5.833,33.192,33.192,0,0,0-.532,5.453,16.048,16.048,0,0,0,1.1,5.8,13.1,13.1,0,0,0,2.945,4.693A5.544,5.544,0,0,0-169.86-.76a5.785,5.785,0,0,0,3.8-1.083,4.714,4.714,0,0,0,1.634-2.717,10.5,10.5,0,0,0,.3-2.622A11.143,11.143,0,0,0-164.2-8.4a2.463,2.463,0,0,0-.836-1.653A4.825,4.825,0,0,0-168-10.678q-.3,0-.3-.456,0-.418.3-.418h11.742q.266,0,.266.418,0,.456-.266.456a4.117,4.117,0,0,0-2.3.608,2.388,2.388,0,0,0-1.083,1.786,14.4,14.4,0,0,0-.076,1.786q0,2.432.114,4.94a.269.269,0,0,1-.3.3h-.418a12.11,12.11,0,0,0-2.394.209,25,25,0,0,0-2.47.665q-1.292.418-2.318.646A10.927,10.927,0,0,1-169.86.494ZM-131.9-.912q.266,0,.266.456T-131.9,0h-9.576q-.3,0-.3-.456t.3-.456h.38a3.2,3.2,0,0,0,1.634-.342q.57-.342.57-1.482.076-3.724.076-6.46,0-1.976-.076-3.42a7.176,7.176,0,0,0-.855-3.173,2.593,2.593,0,0,0-2.413-1.159,4.047,4.047,0,0,0-2.394.817,7.264,7.264,0,0,0-2.014,2.337V-2.736q0,1.14.57,1.482a3.2,3.2,0,0,0,1.634.342h.418q.3,0,.3.456t-.3.456h-9.614q-.3,0-.3-.456t.3-.456h.418a3.2,3.2,0,0,0,1.634-.342q.57-.342.57-1.482l-.038-21.28a1.791,1.791,0,0,0-.551-1.558,4.086,4.086,0,0,0-1.881-.494.306.306,0,0,1-.247-.114.357.357,0,0,1-.1-.228v-.228a.244.244,0,0,1,.228-.266q.988-.228,3.021-.665t3.591-.741h.076a.235.235,0,0,1,.266.266v12.578A8.942,8.942,0,0,1-144-17.936a6.018,6.018,0,0,1,3.249-.912,6.455,6.455,0,0,1,3.42.836,5.392,5.392,0,0,1,2.052,2.185A6.56,6.56,0,0,1-134.558-13v10.26q0,1.14.589,1.482a3.314,3.314,0,0,0,1.653.342Zm22.952-2.432q.3,0,.3.266l-.038.228a4.577,4.577,0,0,1-1.691,2.356,4.263,4.263,0,0,1-2.565.912,3.365,3.365,0,0,1-3.534-2.546,10.723,10.723,0,0,1-3.306,1.976,10.229,10.229,0,0,1-3.61.684,5.681,5.681,0,0,1-3.686-1.083A3.722,3.722,0,0,1-128.4-3.61q0-2.888,3.154-4.6a9.29,9.29,0,0,1,1.976-.741q1.1-.285,2.964-.665.57-.114,1.653-.361t1.919-.475v-1.71a24.86,24.86,0,0,0-.133-3.1A3.077,3.077,0,0,0-117.5-16.8a2.635,2.635,0,0,0-2.242-.95,2.574,2.574,0,0,0-1.748.627,4.779,4.779,0,0,0-1.178,2.413,3.982,3.982,0,0,1-1.007,1.919,2.176,2.176,0,0,1-1.539.627,2.529,2.529,0,0,1-1.558-.513,1.72,1.72,0,0,1-.684-1.463,4,4,0,0,1,.589-1.8,5.4,5.4,0,0,1,2.3-2,10.413,10.413,0,0,1,4.826-.912,10.605,10.605,0,0,1,3.838.608,5.965,5.965,0,0,1,2.432,1.634,3.891,3.891,0,0,1,.912,1.672,9.4,9.4,0,0,1,.228,2.242q0,2.584-.038,3.952l-.038,4.256a3.749,3.749,0,0,0,.4,2.128,1.206,1.206,0,0,0,.969.494,1.744,1.744,0,0,0,.95-.323,2.856,2.856,0,0,0,.874-.969A.321.321,0,0,1-108.946-3.344ZM-120.84-1.558a5.838,5.838,0,0,0,2.109-.418,6.652,6.652,0,0,0,2-1.216,13.5,13.5,0,0,1-.114-1.748l.076-4.446a14.984,14.984,0,0,0-5.358,2.223,3.956,3.956,0,0,0-1.71,3.249,2.106,2.106,0,0,0,.8,1.691A3.342,3.342,0,0,0-120.84-1.558Zm35.872.646q.3,0,.3.456t-.3.456h-9.576q-.266,0-.266-.456t.266-.456h.456a3.1,3.1,0,0,0,1.615-.342q.551-.342.551-1.482l.038-6.688q0-1.824-.076-3.192a6.485,6.485,0,0,0-.8-3.154,2.664,2.664,0,0,0-2.47-1.178,3.988,3.988,0,0,0-2.394.836,7.486,7.486,0,0,0-2.014,2.356v11.02q0,1.14.57,1.482a3.2,3.2,0,0,0,1.634.342h.456q.266,0,.266.456T-96.976,0h-9.614q-.3,0-.3-.456t.3-.456h.38a3.3,3.3,0,0,0,1.672-.342q.57-.342.57-1.482l-.038-11.7a1.785,1.785,0,0,0-.589-1.577,3.848,3.848,0,0,0-1.881-.475q-.342-.038-.342-.608a.244.244,0,0,1,.228-.266q.988-.228,3.021-.665t3.591-.741h.076a.235.235,0,0,1,.266.266v3.04a8.427,8.427,0,0,1,2.546-2.47,6.114,6.114,0,0,1,3.268-.912,6.659,6.659,0,0,1,3.458.836,5.356,5.356,0,0,1,2.09,2.166,6.435,6.435,0,0,1,.722,2.812v10.3q0,1.14.57,1.482a3.2,3.2,0,0,0,1.634.342Zm22.952-2.432q.3,0,.3.266l-.038.228A4.577,4.577,0,0,1-63.441-.494a4.263,4.263,0,0,1-2.565.912A3.365,3.365,0,0,1-69.54-2.128,10.723,10.723,0,0,1-72.846-.152a10.229,10.229,0,0,1-3.61.684A5.681,5.681,0,0,1-80.142-.551a3.722,3.722,0,0,1-1.33-3.059q0-2.888,3.154-4.6a9.29,9.29,0,0,1,1.976-.741q1.1-.285,2.964-.665.57-.114,1.653-.361t1.919-.475v-1.71a24.86,24.86,0,0,0-.133-3.1,3.077,3.077,0,0,0-.627-1.539,2.635,2.635,0,0,0-2.242-.95,2.574,2.574,0,0,0-1.748.627,4.779,4.779,0,0,0-1.178,2.413,3.982,3.982,0,0,1-1.007,1.919,2.176,2.176,0,0,1-1.539.627,2.529,2.529,0,0,1-1.558-.513,1.72,1.72,0,0,1-.684-1.463,4,4,0,0,1,.589-1.8,5.4,5.4,0,0,1,2.3-2,10.413,10.413,0,0,1,4.826-.912,10.605,10.605,0,0,1,3.838.608,5.965,5.965,0,0,1,2.432,1.634,3.891,3.891,0,0,1,.912,1.672,9.4,9.4,0,0,1,.228,2.242q0,2.584-.038,3.952l-.038,4.256a3.749,3.749,0,0,0,.4,2.128,1.206,1.206,0,0,0,.969.494,1.743,1.743,0,0,0,.95-.323,2.856,2.856,0,0,0,.874-.969A.321.321,0,0,1-62.016-3.344ZM-73.91-1.558A5.838,5.838,0,0,0-71.8-1.976a6.652,6.652,0,0,0,2-1.216A13.5,13.5,0,0,1-69.92-4.94l.076-4.446A14.984,14.984,0,0,0-75.2-7.163a3.956,3.956,0,0,0-1.71,3.249,2.106,2.106,0,0,0,.8,1.691A3.342,3.342,0,0,0-73.91-1.558ZM-35.948.494a13,13,0,0,1-6.27-1.672,13.432,13.432,0,0,1-5.073-4.94,14.738,14.738,0,0,1-1.995-7.828,14.738,14.738,0,0,1,1.995-7.828,13.432,13.432,0,0,1,5.073-4.94,13,13,0,0,1,6.27-1.672A12.891,12.891,0,0,1-29.7-26.714a13.475,13.475,0,0,1,5.054,4.94,14.738,14.738,0,0,1,2,7.828,14.738,14.738,0,0,1-2,7.828A13.475,13.475,0,0,1-29.7-1.178,12.891,12.891,0,0,1-35.948.494Zm0-1.178A6.142,6.142,0,0,0-31.92-2.166a10.018,10.018,0,0,0,2.85-4.465,21.791,21.791,0,0,0,1.064-7.277,21.962,21.962,0,0,0-1.064-7.3,10.017,10.017,0,0,0-2.85-4.484,6.093,6.093,0,0,0-3.99-1.482,6.215,6.215,0,0,0-4.047,1.482,9.807,9.807,0,0,0-2.85,4.465,22.292,22.292,0,0,0-1.045,7.315,22.156,22.156,0,0,0,1.045,7.277,9.891,9.891,0,0,0,2.831,4.465A6.142,6.142,0,0,0-35.948-.684ZM-7.79-28.462a4.646,4.646,0,0,1,2.869.817A2.288,2.288,0,0,1-3.838-25.84a1.8,1.8,0,0,1-.532,1.33,2,2,0,0,1-1.482.532,2.5,2.5,0,0,1-1.615-.475,6.043,6.043,0,0,1-1.159-1.311,6.233,6.233,0,0,0-.7-.836.991.991,0,0,0-.7-.266q-.608,0-.931.779a8.663,8.663,0,0,0-.4,2.679q-.076.836-.076,2.774v2.2H-7.9a.269.269,0,0,1,.3.3v.684a.269.269,0,0,1-.3.3h-3.534v14.4q0,1.14.627,1.482a3.64,3.64,0,0,0,1.729.342h.456q.266,0,.266.456T-8.626,0H-18.62q-.266,0-.266-.456t.266-.456h.418a3.64,3.64,0,0,0,1.729-.342q.627-.342.627-1.482v-14.4h-3.04a.269.269,0,0,1-.3-.3v-.684a.269.269,0,0,1,.3-.3h3.078a14.512,14.512,0,0,1,1.064-5.016,8.7,8.7,0,0,1,2.736-3.648A6.736,6.736,0,0,1-7.79-28.462Zm15.542,0a4.646,4.646,0,0,1,2.869.817A2.288,2.288,0,0,1,11.7-25.84a1.8,1.8,0,0,1-.532,1.33,2,2,0,0,1-1.482.532,2.5,2.5,0,0,1-1.615-.475,6.043,6.043,0,0,1-1.159-1.311,6.233,6.233,0,0,0-.7-.836.991.991,0,0,0-.7-.266q-.608,0-.931.779a8.663,8.663,0,0,0-.4,2.679q-.076.836-.076,2.774v2.2H7.638a.269.269,0,0,1,.3.3v.684a.269.269,0,0,1-.3.3H4.1v14.4q0,1.14.627,1.482A3.64,3.64,0,0,0,6.46-.912h.456q.266,0,.266.456T6.916,0H-3.078q-.266,0-.266-.456t.266-.456h.418A3.64,3.64,0,0,0-.931-1.254Q-.3-1.6-.3-2.736v-14.4h-3.04a.269.269,0,0,1-.3-.3v-.684a.269.269,0,0,1,.3-.3H-.266A14.512,14.512,0,0,1,.8-23.446a8.7,8.7,0,0,1,2.736-3.648A6.736,6.736,0,0,1,7.752-28.462ZM16.986-22.8a2.714,2.714,0,0,1-2-.817,2.67,2.67,0,0,1-.817-1.957,2.714,2.714,0,0,1,.817-2,2.714,2.714,0,0,1,2-.817,2.733,2.733,0,0,1,1.976.817,2.683,2.683,0,0,1,.836,2,2.64,2.64,0,0,1-.836,1.957A2.733,2.733,0,0,1,16.986-22.8ZM12.236,0q-.266,0-.266-.494,0-.418.266-.418h.456a3.64,3.64,0,0,0,1.729-.342q.627-.342.627-1.482l-.038-11.7A1.759,1.759,0,0,0,14.44-16a3.981,3.981,0,0,0-1.9-.456q-.342-.038-.342-.57,0-.3.228-.342,1.026-.228,3.059-.665t3.591-.741h.076a.235.235,0,0,1,.266.266L19.38-2.736a1.522,1.522,0,0,0,.646,1.482,3.759,3.759,0,0,0,1.748.342h.456q.266,0,.266.418Q22.5,0,22.23,0ZM34.884.494a9.847,9.847,0,0,1-4.522-1.1,8.962,8.962,0,0,1-3.534-3.249A9.381,9.381,0,0,1,25.46-9.006a10.33,10.33,0,0,1,1.121-4.6,9.674,9.674,0,0,1,3.287-3.762,8.928,8.928,0,0,1,5.168-1.482,10.555,10.555,0,0,1,4.256.741,5.851,5.851,0,0,1,2.432,1.786,3.354,3.354,0,0,1,.76,1.919,2.1,2.1,0,0,1-.589,1.52,1.829,1.829,0,0,1-1.349.608,2.146,2.146,0,0,1-1.558-.589,7.208,7.208,0,0,1-1.216-1.691A10.3,10.3,0,0,0,36.29-16.91a2.273,2.273,0,0,0-1.748-.8,2.936,2.936,0,0,0-2.223,1.064,7.415,7.415,0,0,0-1.52,3A16.294,16.294,0,0,0,30.248-9.2a10.9,10.9,0,0,0,.817,4.522,5.753,5.753,0,0,0,2.09,2.584,5.028,5.028,0,0,0,2.717.8,6.66,6.66,0,0,0,5.738-3.04.412.412,0,0,1,.3-.19.54.54,0,0,1,.3.076.368.368,0,0,1,.266.342.31.31,0,0,1-.076.228A8.747,8.747,0,0,1,39.463-.76,8.183,8.183,0,0,1,34.884.494ZM50.692-22.8a2.714,2.714,0,0,1-1.995-.817,2.67,2.67,0,0,1-.817-1.957,2.714,2.714,0,0,1,.817-2,2.714,2.714,0,0,1,1.995-.817,2.733,2.733,0,0,1,1.976.817,2.683,2.683,0,0,1,.836,2,2.64,2.64,0,0,1-.836,1.957A2.733,2.733,0,0,1,50.692-22.8ZM45.942,0q-.266,0-.266-.494,0-.418.266-.418H46.4a3.64,3.64,0,0,0,1.729-.342q.627-.342.627-1.482l-.038-11.7A1.759,1.759,0,0,0,48.146-16a3.981,3.981,0,0,0-1.9-.456q-.342-.038-.342-.57,0-.3.228-.342,1.026-.228,3.059-.665t3.591-.741h.076a.235.235,0,0,1,.266.266l-.038,15.77a1.522,1.522,0,0,0,.646,1.482,3.759,3.759,0,0,0,1.748.342h.456q.266,0,.266.418Q56.2,0,55.936,0ZM78.926-3.344q.3,0,.3.266l-.038.228A4.577,4.577,0,0,1,77.5-.494a4.263,4.263,0,0,1-2.565.912A3.365,3.365,0,0,1,71.4-2.128,10.723,10.723,0,0,1,68.1-.152a10.229,10.229,0,0,1-3.61.684A5.681,5.681,0,0,1,60.8-.551,3.722,3.722,0,0,1,59.47-3.61q0-2.888,3.154-4.6A9.29,9.29,0,0,1,64.6-8.949q1.1-.285,2.964-.665.57-.114,1.653-.361t1.919-.475v-1.71a24.86,24.86,0,0,0-.133-3.1,3.077,3.077,0,0,0-.627-1.539,2.635,2.635,0,0,0-2.242-.95,2.574,2.574,0,0,0-1.748.627,4.779,4.779,0,0,0-1.178,2.413A3.982,3.982,0,0,1,64.2-12.787a2.176,2.176,0,0,1-1.539.627,2.529,2.529,0,0,1-1.558-.513,1.72,1.72,0,0,1-.684-1.463,4,4,0,0,1,.589-1.8,5.4,5.4,0,0,1,2.3-2,10.413,10.413,0,0,1,4.826-.912,10.605,10.605,0,0,1,3.838.608A5.965,5.965,0,0,1,74.4-16.606a3.891,3.891,0,0,1,.912,1.672,9.4,9.4,0,0,1,.228,2.242q0,2.584-.038,3.952l-.038,4.256a3.749,3.749,0,0,0,.4,2.128,1.206,1.206,0,0,0,.969.494,1.744,1.744,0,0,0,.95-.323,2.856,2.856,0,0,0,.874-.969A.321.321,0,0,1,78.926-3.344ZM67.032-1.558a5.838,5.838,0,0,0,2.109-.418,6.652,6.652,0,0,0,2-1.216,13.5,13.5,0,0,1-.114-1.748L71.1-9.386A14.984,14.984,0,0,0,65.74-7.163a3.956,3.956,0,0,0-1.71,3.249,2.106,2.106,0,0,0,.8,1.691A3.342,3.342,0,0,0,67.032-1.558ZM81.472,0q-.3,0-.3-.494,0-.418.3-.418h.38A3.759,3.759,0,0,0,83.6-1.254a1.522,1.522,0,0,0,.646-1.482L84.17-24.054a1.843,1.843,0,0,0-.551-1.6,3.762,3.762,0,0,0-1.843-.456q-.38,0-.38-.57a.244.244,0,0,1,.228-.266q.57-.19,6.65-1.406h.076a.235.235,0,0,1,.266.266V-2.736q0,1.14.627,1.482a3.64,3.64,0,0,0,1.729.342h.418q.266,0,.266.418,0,.494-.266.494Zm35.454.494a17.953,17.953,0,0,1-6.5-1.444,2.264,2.264,0,0,0-.95-.228,1.968,1.968,0,0,0-1.007.3,6.893,6.893,0,0,0-1.159.912q-.152.152-.266.114t-.152-.228l-1.634-7.03-.076-.342a.206.206,0,0,1,.095-.152.756.756,0,0,1,.19-.114.408.408,0,0,0,.133-.076.529.529,0,0,1,.228-.038q.152,0,.418.3,4.256,6.46,10.3,6.46a6.563,6.563,0,0,0,4.085-1.254,4.381,4.381,0,0,0,1.653-3.724q0-2.888-3.154-4.294a44.207,44.207,0,0,0-4.18-1.52l-1.71-.57a18.621,18.621,0,0,1-2.432-.988q-4.484-2.28-4.484-6.84a9.059,9.059,0,0,1,.8-3.572,7.444,7.444,0,0,1,2.793-3.211,9.314,9.314,0,0,1,5.3-1.349,9.923,9.923,0,0,1,2.3.266q1.121.266,2.717.8a3.1,3.1,0,0,0,1.064.228,2.589,2.589,0,0,0,1.824-.95q.3-.3.418.076l1.824,6.156.038.076q.076.266-.038.38a.816.816,0,0,1-.266.152,1.206,1.206,0,0,1-.342.076.519.519,0,0,1-.38-.228,15.029,15.029,0,0,0-1.634-2.071,13.019,13.019,0,0,0-3.173-2.47,8.725,8.725,0,0,0-4.465-1.159,5.349,5.349,0,0,0-3.382.931,4.571,4.571,0,0,0-1.558,2,5.582,5.582,0,0,0-.38,1.824,4.117,4.117,0,0,0,2.508,3.762,17.588,17.588,0,0,0,2.109.893q1.311.475,2.679.931a48.432,48.432,0,0,1,4.788,1.748,8.808,8.808,0,0,1,3.838,3.135,7.414,7.414,0,0,1,1.14,3.971,8.011,8.011,0,0,1-1.159,4.256,7.982,7.982,0,0,1-3.4,3A12.035,12.035,0,0,1,116.926.494ZM130.454,0q-.228,0-.228-.494,0-.418.228-.418h.38a3.283,3.283,0,0,0,2.261-.912A3.26,3.26,0,0,0,134.1-4.37V-24.4a4.47,4.47,0,0,0-1.235-1.862,3.956,3.956,0,0,0-1.919-.8l-.3-.038a.517.517,0,0,1-.342-.076q-.114-.076-.114-.38,0-.456.266-.456h7.638q.3,0,.38.19l14.06,20.292v-16.15a3.125,3.125,0,0,0-1.026-2.489,3.563,3.563,0,0,0-2.28-.931h-.38q-.266,0-.266-.456t.266-.456H157.7q.266,0,.266.456t-.266.456h-.456a3.415,3.415,0,0,0-2.242.931,3.184,3.184,0,0,0-.988,2.489V-.3a.269.269,0,0,1-.3.3h-1.862a.408.408,0,0,1-.38-.19L135.622-23.18V-4.37a3.229,3.229,0,0,0,1.026,2.546,3.307,3.307,0,0,0,2.242.912h.418q.266,0,.266.418,0,.494-.266.494Zm42.978.494a17.953,17.953,0,0,1-6.5-1.444,2.264,2.264,0,0,0-.95-.228,1.968,1.968,0,0,0-1.007.3,6.894,6.894,0,0,0-1.159.912q-.152.152-.266.114T163.4-.076l-1.634-7.03-.076-.342a.206.206,0,0,1,.1-.152.756.756,0,0,1,.19-.114.408.408,0,0,0,.133-.076.529.529,0,0,1,.228-.038q.152,0,.418.3,4.256,6.46,10.3,6.46a6.563,6.563,0,0,0,4.085-1.254,4.381,4.381,0,0,0,1.653-3.724q0-2.888-3.154-4.294a44.207,44.207,0,0,0-4.18-1.52l-1.71-.57a18.621,18.621,0,0,1-2.432-.988q-4.484-2.28-4.484-6.84a9.059,9.059,0,0,1,.8-3.572,7.444,7.444,0,0,1,2.793-3.211,9.314,9.314,0,0,1,5.3-1.349,9.924,9.924,0,0,1,2.3.266q1.121.266,2.717.8a3.1,3.1,0,0,0,1.064.228,2.589,2.589,0,0,0,1.824-.95q.3-.3.418.076l1.824,6.156.038.076q.076.266-.038.38a.816.816,0,0,1-.266.152,1.206,1.206,0,0,1-.342.076.519.519,0,0,1-.38-.228,15.03,15.03,0,0,0-1.634-2.071,13.019,13.019,0,0,0-3.173-2.47,8.725,8.725,0,0,0-4.465-1.159,5.349,5.349,0,0,0-3.382.931,4.571,4.571,0,0,0-1.558,2,5.581,5.581,0,0,0-.38,1.824,4.117,4.117,0,0,0,2.508,3.762,17.587,17.587,0,0,0,2.109.893q1.311.475,2.679.931a48.431,48.431,0,0,1,4.788,1.748,8.808,8.808,0,0,1,3.838,3.135,7.414,7.414,0,0,1,1.14,3.971,8.011,8.011,0,0,1-1.159,4.256,7.982,7.982,0,0,1-3.4,3A12.035,12.035,0,0,1,173.432.494Z" transform="translate(183.122 28.462)" fill="#5b1e16"/>
</svg>
