<svg xmlns="http://www.w3.org/2000/svg" width="100" height="109.704" viewBox="0 0 100 109.704">
  <g id="earth_modal_btn_back_mb" transform="translate(-35 -112.177)">
    <path id="パス_3203" data-name="パス 3203" d="M20.8,20.62c-2.137.825-2.23.528-4.453,1.072s-2.235.52-4.465,1.065-2.213.621-4.446,1.168-2.321.252-4.487,1.022c-.631.722-.818-.851-.827-3.041,0-1.173.036-2.513.079-3.753a15.538,15.538,0,0,0-.686-3.576c-.35-1.978.388-2.126,0-4.1s-.49-1.752-.727-3.43-1.66-7.554-.825-9S2.645-1.141,4.213.425C5.872,2.087,6.079,1.9,7.741,3.558s2.521,1.258,4.18,2.915S15.538,9,17.2,10.666s.272,1.6,1.936,3.265-.1,1.73,1.562,3.394A2.421,2.421,0,0,1,20.8,20.62" transform="translate(78.608 114.415) rotate(30)" fill="#009f3a"/>
    <path id="パス_2983" data-name="パス 2983" d="M100,49.648c0,1.755-1.174,3.39-1.352,5.1-.18,1.742,1.271,3.719.915,5.4a50.436,50.436,0,0,1-1.4,5.1,50.322,50.322,0,0,1-2.174,4.806c-.71,1.591-2.2,2.782-3.072,4.28a49.064,49.064,0,0,1-2.721,4.4,49.309,49.309,0,0,1-3.274,4.011,49.355,49.355,0,0,1-3.787,3.52c-1.288,1.161-2.087,2.933-3.49,3.956a51.877,51.877,0,0,1-4.153,3.289c-1.5.865-3.882.015-5.473.725S67.2,96.425,65.54,96.962c-1.638.532-3.5.121-5.21.483-1.685.356-3.253,1.163-5,1.345a49.563,49.563,0,0,1-5.168.566A49.519,49.519,0,0,1,45,98.839c-1.744-.182-3.651.587-5.337.231-1.71-.362-3.109-1.943-4.749-2.475-1.661-.54-3.464-.661-5.041-1.363s-3.537-.845-5.035-1.712-2.276-2.926-3.678-3.945a50.606,50.606,0,0,1-4.333-2.9c-1.29-1.163-3.047-1.928-4.21-3.217a52.052,52.052,0,0,1-3.178-4.219c-1.019-1.4-1.083-3.445-1.954-4.95s-2.829-2.471-3.539-4.062-.119-3.687-.657-5.346c-.534-1.64-2.172-3.019-2.534-4.729-.356-1.684.356-3.585.176-5.327C.75,53.115,0,51.4,0,49.648S.941,46.2,1.119,44.491A49.029,49.029,0,0,1,1.8,39.363a50.648,50.648,0,0,1,.873-5.151,49.266,49.266,0,0,1,1.907-4.865,51.412,51.412,0,0,1,1.949-4.9,51.048,51.048,0,0,1,2.89-4.41A51.874,51.874,0,0,1,12.58,15.8a51.65,51.65,0,0,1,3.909-3.56A51,51,0,0,1,20.64,9c1.4-1.019,3.553-.871,5.058-1.742s2.471-2.74,4.062-3.448a50.186,50.186,0,0,1,4.956-1.723A49.961,49.961,0,0,1,39.781.8a50.611,50.611,0,0,1,5.21-.39A49.62,49.62,0,0,1,50.167,0c1.755,0,3.416.729,5.124.907,1.744.18,3.555-.362,5.24-.006a50.255,50.255,0,0,1,5.1,1.151,50.279,50.279,0,0,1,4.937,1.774A49.541,49.541,0,0,1,75.046,6.56,50.713,50.713,0,0,1,83.2,12.97a49.3,49.3,0,0,1,3.386,3.9,48.908,48.908,0,0,1,3.337,3.9c1.019,1.4,3.269,2.034,4.14,3.539a51.249,51.249,0,0,1,2.337,4.757c.7,1.577-.038,3.738.5,5.4.532,1.64,2.121,3.011,2.483,4.721.356,1.684,0,3.526.184,5.268A49.943,49.943,0,0,1,100,49.648" transform="translate(35 122.524)" fill="#009f39"/>
    <g id="グループ_2600" data-name="グループ 2600" transform="translate(53.07 166.203)">
      <line id="線_15" data-name="線 15" x1="8" y2="6" fill="none" stroke="#fff" stroke-linecap="round" stroke-width="3"/>
      <line id="線_16" data-name="線 16" x1="8" y1="6" transform="translate(0 6)" fill="none" stroke="#fff" stroke-linecap="round" stroke-width="3"/>
    </g>
    <path id="パス_6210" data-name="パス 6210" d="M27.9,16.08a21.206,21.206,0,0,1,2.568.144V13.7a17.671,17.671,0,0,1-2.568.12H22.712c.072-.552.1-.768.12-1.056a4.658,4.658,0,0,1,.12-1.032H20.24c.024.264.048.408.048.5a9.88,9.88,0,0,1-.12,1.584H16.616a16.769,16.769,0,0,1-2.5-.12v2.5a19.994,19.994,0,0,1,2.5-.12h2.928c-1.152,2.28-3.288,3.552-7.248,4.3a9.012,9.012,0,0,1,1.32,2.5,16.033,16.033,0,0,0,5.256-2.352,7.979,7.979,0,0,0,2.712-3.072,9.994,9.994,0,0,0,3.12,3.288,14.581,14.581,0,0,0,5.424,2.136,10.792,10.792,0,0,1,.936-2.616,13.723,13.723,0,0,1-4.632-1.344,7.531,7.531,0,0,1-3.048-2.832Zm2.76-14.568a21.142,21.142,0,0,1-2.784.144H12.2a22.447,22.447,0,0,1-2.784-.144V4.1a23.04,23.04,0,0,1,2.784-.12H27.872a21.405,21.405,0,0,1,2.784.12Zm-3.6,9.792a17.471,17.471,0,0,1,2.16.1c-.048-.552-.072-1.008-.072-1.848V6.984a17.417,17.417,0,0,1,.072-1.776,16.044,16.044,0,0,1-2.16.1H13.736c-1.08,0-1.872-.024-2.616-.1.072.768.1,1.464.1,2.4,0,7.68-.528,10.224-2.736,13.32A10.971,10.971,0,0,1,10.568,22.9c2.256-3.216,3.024-6.048,3.144-11.592ZM13.736,9.216c.024-.288.024-.6.024-.984v-.84H26.648V9.216Zm27.72,1.824a9.42,9.42,0,0,0,.984-.624c.48-.312,2.208-1.608,2.64-1.968.816-.7,2.568-2.256,3.768-3.36A5.144,5.144,0,0,1,50.1,4.1L48.608,1.992A3.536,3.536,0,0,1,47.12,2.3c-2.328.168-5.256.288-7.3.288a21.706,21.706,0,0,1-2.832-.144l.12,2.88a8.1,8.1,0,0,1,1.152-.12c4.344-.192,5.88-.288,6.792-.408l.024.024-.432.432a80.137,80.137,0,0,1-7.176,6.24,21.584,21.584,0,0,1-3.384,2.256l1.632,2.592a14.788,14.788,0,0,1,9.888-4.032c2.9,0,4.752,1.224,4.752,3.1,0,1.7-.864,2.736-2.856,3.48a6.455,6.455,0,0,0-1.1-2.16,5.165,5.165,0,0,0-4.152-1.968c-2.4,0-4.128,1.44-4.128,3.432a3.426,3.426,0,0,0,1.44,2.76,8.119,8.119,0,0,0,4.656,1.1,11.874,11.874,0,0,0,5.808-1.368,5.865,5.865,0,0,0,3.264-5.3c0-3.288-2.64-5.4-6.744-5.4a11.715,11.715,0,0,0-5.04,1.1Zm3.456,8.544a6.5,6.5,0,0,1-1.248.1c-1.776,0-2.856-.552-2.856-1.512,0-.672.552-1.1,1.416-1.1C43.568,17.064,44.48,17.928,44.912,19.584Z" transform="translate(61.5 159.703)" fill="#fff"/>
  </g>
</svg>
