<svg xmlns="http://www.w3.org/2000/svg" width="74" height="81" viewBox="0 0 74 81">
  <g id="earth_modal_btn_back_dt" transform="translate(-4741 -9577)">
    <path id="パス_3203" data-name="パス 3203" d="M15.56,16.729a17.876,17.876,0,0,1-3.285.778c-1.643.4-1.648.378-3.293.773s-1.633.451-3.279.848a22.735,22.735,0,0,0-3.309.742c-.465.524-.6-.618-.61-2.208,0-.852.027-1.825.058-2.725a11.132,11.132,0,0,0-.506-2.6c-.258-1.437.287-1.544,0-2.976S.975,8.092.8,6.874-.424,1.388.192.337,2.167.926,3.323,2.063C4.547,3.27,4.7,3.133,5.925,4.338s1.859.913,3.083,2.117S11.677,8.294,12.9,9.5s.2,1.162,1.428,2.371-.075,1.256,1.152,2.465a1.738,1.738,0,0,1,.078,2.393" transform="translate(4774 9577) rotate(30)" fill="#009f3a"/>
    <path id="パス_2983" data-name="パス 2983" d="M74,36.478c0,1.29-.869,2.491-1,3.746-.133,1.28.94,2.733.677,3.97a36.85,36.85,0,0,1-1.037,3.744,36.851,36.851,0,0,1-1.609,3.531c-.526,1.169-1.631,2.044-2.273,3.145a36.007,36.007,0,0,1-2.014,3.234,36.285,36.285,0,0,1-2.423,2.947,36.424,36.424,0,0,1-2.8,2.587c-.953.853-1.544,2.155-2.583,2.907A38.348,38.348,0,0,1,55.862,68.7c-1.108.636-2.873.011-4.05.533s-2.084,1.61-3.313,2c-1.212.391-2.591.089-3.855.355a36.3,36.3,0,0,1-3.7.988A36.928,36.928,0,0,1,37.123,73a36.9,36.9,0,0,1-3.826-.38c-1.291-.134-2.7.431-3.949.17-1.265-.266-2.3-1.428-3.515-1.819a37.822,37.822,0,0,1-3.73-1c-1.177-.522-2.618-.621-3.726-1.258s-1.684-2.15-2.721-2.9a37.472,37.472,0,0,1-3.206-2.13,38.935,38.935,0,0,1-3.115-2.364,38.269,38.269,0,0,1-2.351-3.1c-.754-1.03-.8-2.531-1.446-3.637S3.443,52.767,2.918,51.6s-.088-2.709-.486-3.928S.824,45.452.556,44.2c-.263-1.237.263-2.634.13-3.914A36.766,36.766,0,0,1,0,36.478c0-1.29.7-2.534.828-3.789a35.78,35.78,0,0,1,.5-3.768,36.97,36.97,0,0,1,.646-3.785,36.043,36.043,0,0,1,1.411-3.574,37.616,37.616,0,0,1,1.442-3.6,37.481,37.481,0,0,1,2.138-3.241,38.135,38.135,0,0,1,2.342-3.114A38.124,38.124,0,0,1,12.2,8.992a37.7,37.7,0,0,1,3.072-2.378c1.037-.749,2.629-.64,3.743-1.28S20.845,3.321,22.022,2.8A37.317,37.317,0,0,1,25.69,1.535,37.187,37.187,0,0,1,29.438.586,37.716,37.716,0,0,1,33.293.3a36.977,36.977,0,0,1,3.83-.3,36.66,36.66,0,0,1,3.792.666c1.291.132,2.63-.266,3.878,0a37.416,37.416,0,0,1,3.777.846,37.381,37.381,0,0,1,3.653,1.3A36.709,36.709,0,0,1,55.534,4.82a37.49,37.49,0,0,1,6.03,4.71,36.3,36.3,0,0,1,2.506,2.862,36,36,0,0,1,2.469,2.869c.754,1.03,2.419,1.494,3.063,2.6a37.546,37.546,0,0,1,1.729,3.5c.521,1.159-.028,2.747.37,3.967.394,1.2,1.57,2.212,1.837,3.469a38.383,38.383,0,0,1,.136,3.871A36.439,36.439,0,0,1,74,36.478" transform="translate(4741 9585)" fill="#009f39"/>
    <g id="グループ_3055" data-name="グループ 3055" transform="translate(3.715)">
      <g id="グループ_3049" data-name="グループ 3049" transform="translate(4753.286 9616)">
        <path id="線_15" data-name="線 15" d="M-.387,5.173a1.11,1.11,0,0,1-.891-.445,1.112,1.112,0,0,1,.222-1.557L4.876-1.278a1.112,1.112,0,0,1,1.557.222A1.112,1.112,0,0,1,6.211.5L.279,4.95A1.107,1.107,0,0,1-.387,5.173Z" transform="translate(1.5 1.5)" fill="#fff"/>
        <path id="線_16" data-name="線 16" d="M5.542,5.173a1.107,1.107,0,0,1-.666-.222L-1.055.5a1.112,1.112,0,0,1-.222-1.557A1.112,1.112,0,0,1,.279-1.278L6.211,3.171a1.112,1.112,0,0,1-.668,2Z" transform="translate(1.5 5.949)" fill="#fff"/>
      </g>
      <path id="パス_6211" data-name="パス 6211" d="M11.606,9.13a12.37,12.37,0,0,1,1.5.084V7.744a10.308,10.308,0,0,1-1.5.07H8.582c.042-.322.056-.448.07-.616a2.717,2.717,0,0,1,.07-.6H7.14c.014.154.028.238.028.294a5.763,5.763,0,0,1-.07.924H5.026a9.782,9.782,0,0,1-1.456-.07V9.2a11.663,11.663,0,0,1,1.456-.07H6.734c-.672,1.33-1.918,2.072-4.228,2.506a5.257,5.257,0,0,1,.77,1.456A9.352,9.352,0,0,0,6.342,11.72,4.654,4.654,0,0,0,7.924,9.928a5.83,5.83,0,0,0,1.82,1.918,8.506,8.506,0,0,0,3.164,1.246,6.3,6.3,0,0,1,.546-1.526,8,8,0,0,1-2.7-.784A4.393,4.393,0,0,1,8.974,9.13Zm1.61-8.5a12.333,12.333,0,0,1-1.624.084H2.45A13.094,13.094,0,0,1,.826.632V2.144a13.44,13.44,0,0,1,1.624-.07h9.142a12.487,12.487,0,0,1,1.624.07Zm-2.1,5.712a10.191,10.191,0,0,1,1.26.056c-.028-.322-.042-.588-.042-1.078v-1.5a10.16,10.16,0,0,1,.042-1.036,9.359,9.359,0,0,1-1.26.056H3.346c-.63,0-1.092-.014-1.526-.056.042.448.056.854.056,1.4,0,4.48-.308,5.964-1.6,7.77A6.4,6.4,0,0,1,1.5,13.106C2.814,11.23,3.262,9.578,3.332,6.344ZM3.346,5.126c.014-.168.014-.35.014-.574v-.49h7.518V5.126ZM19.516,6.19a5.5,5.5,0,0,0,.574-.364c.28-.182,1.288-.938,1.54-1.148.476-.406,1.5-1.316,2.2-1.96a3,3,0,0,1,.728-.574L23.688.912a2.063,2.063,0,0,1-.868.182c-1.358.1-3.066.168-4.256.168a12.661,12.661,0,0,1-1.652-.084l.07,1.68a4.723,4.723,0,0,1,.672-.07c2.534-.112,3.43-.168,3.962-.238l.014.014-.252.252a46.747,46.747,0,0,1-4.186,3.64,12.591,12.591,0,0,1-1.974,1.316l.952,1.512a8.626,8.626,0,0,1,5.768-2.352c1.694,0,2.772.714,2.772,1.806,0,.994-.5,1.6-1.666,2.03a3.765,3.765,0,0,0-.644-1.26A3.013,3.013,0,0,0,19.978,8.36a2.155,2.155,0,0,0-2.408,2,2,2,0,0,0,.84,1.61,4.736,4.736,0,0,0,2.716.644,6.927,6.927,0,0,0,3.388-.8,3.421,3.421,0,0,0,1.9-3.094c0-1.918-1.54-3.15-3.934-3.15a6.834,6.834,0,0,0-2.94.644Zm2.016,4.984a3.789,3.789,0,0,1-.728.056c-1.036,0-1.666-.322-1.666-.882,0-.392.322-.644.826-.644C20.748,9.7,21.28,10.208,21.532,11.174Z" transform="translate(4766.248 9615)" fill="#fff"/>
    </g>
  </g>
</svg>
