<svg xmlns="http://www.w3.org/2000/svg" width="235.714" height="37.12" viewBox="0 0 235.714 37.12">
  <g id="profile_title" transform="translate(-467.602 -7659.978)">
    <g id="グループ_2919" data-name="グループ 2919" transform="translate(-57 2908)">
      <path id="パス_6081" data-name="パス 6081" d="M-112.557-.408c1.173,0,1.479-.2,1.479-1.275,0-.357-.153-5.967-.153-8.925v-1.173c0-1.275.255-1.53,1.53-1.53h4.029c9.435,0,13.566-5.355,13.566-12.648,0-7.191-4.386-10.557-11.628-10.557h-5.2c-2.4,0-6.426-.1-6.783-.1-1.122,0-1.428.408-1.428,1.632.051,2.907.1,6.069.1,8.568v15.81c0,2.958-.153,8.568-.153,8.925,0,1.071.306,1.275,1.479,1.275Zm1.326-29.325c0-1.275.255-1.53,1.53-1.53h4.9c3.774,0,6.681,1.428,6.681,5.865,0,5.049-3.315,7.038-7.548,7.038H-109.7c-1.275,0-1.53-.255-1.53-1.53ZM-72.777-12.7c0-1.275.255-1.53,1.53-1.53h1.734a2.4,2.4,0,0,1,2.448,1.224l2.04,2.856c1.887,2.55,3.825,5.2,5.967,8.466A2.192,2.192,0,0,0-56.712-.408h4.233c.765,0,1.224-.153,1.224-.51a1.7,1.7,0,0,0-.408-.816c-3.366-4.284-5.406-6.987-7.854-10.251l-1.632-2.244a1.852,1.852,0,0,1-.51-1.02c0-.306.306-.561.918-.918a11.176,11.176,0,0,0,6.171-10.4c0-7.395-4.845-9.945-11.424-9.945h-4.488c-2.4,0-6.426-.1-6.783-.1-1.122,0-1.428.408-1.428,1.632.051,2.856.1,6.069.1,8.568v15.81c0,2.958-.153,8.568-.153,8.925,0,1.071.306,1.275,1.479,1.275H-74.1c1.173,0,1.479-.2,1.479-1.275,0-.357-.153-5.967-.153-8.925Zm0-17.034c0-1.275.255-1.53,1.53-1.53H-66.5c3.162,0,5.916.969,5.916,5.406,0,5-3.417,6.63-7.242,6.63h-3.417c-1.275,0-1.53-.255-1.53-1.53Zm49.266-7.089c-10.608,0-18.207,7.344-18.207,18.615,0,9.537,6.324,18.1,17.391,18.1,9.792,0,18.309-6.834,18.309-18.819C-6.018-28.458-12.393-36.822-23.511-36.822Zm-.153,5.865c7.293,0,11.526,5.508,11.526,12.342,0,8.058-5.355,12.9-11.985,12.9-7.293,0-11.475-5.559-11.475-12.444C-35.6-25.5-30.957-30.957-23.664-30.957ZM13.413-15.3c0-1.275.255-1.53,1.53-1.53h2.55c2.4,0,7.038.1,7.4.1,1.071,0,1.275-.306,1.275-1.479v-2.5c0-1.173-.2-1.479-1.275-1.479-.357,0-5,.1-7.4.1h-2.55c-1.275,0-1.53-.255-1.53-1.53v-5.916c0-1.275.255-1.53,1.53-1.53h3.621c2.448,0,7.038.153,7.4.153,1.071,0,1.275-.306,1.275-1.479v-2.754c0-1.173-.2-1.479-1.275-1.479-.357,0-4.947.1-7.4.1H15.708c-2.4,0-6.426-.1-6.783-.1-1.122,0-1.428.408-1.428,1.632.051,2.7.1,6.018.1,8.517v15.861c0,2.958-.153,8.568-.153,8.925,0,1.071.306,1.275,1.479,1.275h3.162c1.173,0,1.479-.2,1.479-1.275,0-.357-.153-5.967-.153-8.925ZM46-.408c1.173,0,1.479-.2,1.479-1.275,0-.357-.153-5.967-.153-8.925V-26.316c0-2.958.153-8.568.153-8.925,0-1.071-.306-1.275-1.479-1.275H42.738c-1.173,0-1.479.2-1.479,1.275,0,.357.153,5.967.153,8.925v15.708c0,2.958-.153,8.568-.153,8.925,0,1.071.306,1.275,1.479,1.275Zm28.866,0c2.448,0,7.038.1,7.395.1,1.071,0,1.275-.306,1.275-1.479V-4.437c0-1.173-.2-1.479-1.275-1.479-.357,0-4.947.153-7.395.153H70.227c-1.275,0-1.53-.255-1.53-1.53V-26.316c0-2.958.153-8.568.153-8.925,0-1.071-.306-1.275-1.479-1.275H64.107c-1.173,0-1.479.2-1.479,1.275,0,.357.153,5.967.153,8.925v15.861c0,2.856-.1,8.364-.1,8.721,0,1.071.357,1.428,1.428,1.428.357,0,4.386-.1,6.783-.1Zm29.886-5.355c-1.275,0-1.53-.255-1.53-1.53V-15.4c0-1.275.255-1.53,1.53-1.53h2.55c2.4,0,7.038.1,7.4.1,1.071,0,1.275-.306,1.275-1.479v-2.5c0-1.173-.2-1.479-1.275-1.479-.357,0-5,.1-7.4.1h-2.55c-1.275,0-1.53-.255-1.53-1.53v-5.814c0-1.275.255-1.53,1.53-1.53h3.621c2.448,0,7.038.153,7.4.153,1.071,0,1.275-.306,1.275-1.479v-2.754c0-1.173-.2-1.479-1.275-1.479-.357,0-4.947.1-7.4.1h-2.856c-2.4,0-6.426-.1-6.783-.1-1.122,0-1.428.408-1.428,1.632.051,2.6.1,6.018.1,8.517v16.014c0,2.448-.051,5.661-.1,8.517,0,1.224.306,1.632,1.428,1.632.357,0,4.386-.1,6.783-.1h3.927c2.448,0,7.038.1,7.4.1,1.071,0,1.275-.306,1.275-1.479V-4.437c0-1.173-.2-1.479-1.275-1.479-.357,0-4.947.153-7.4.153Z" transform="translate(642 4789)" fill="#f4ffc4" stroke="#f4ffc4" stroke-linecap="round" stroke-width="0.4"/>
    </g>
  </g>
</svg>
